<svg width="400" height="225" viewBox="0 0 400 225" fill="none" xmlns="http://www.w3.org/2000/svg">
<path d="M400 0H0V225H400V0Z" fill="#E981AF"/>
<path d="M185.104 143.896C185.679 143.896 186.146 143.429 186.146 142.854C186.146 142.279 185.679 141.812 185.104 141.812C184.529 141.812 184.062 142.279 184.062 142.854C184.062 143.429 184.529 143.896 185.104 143.896Z" fill="#383A48"/>
<path d="M185.104 149.041C185.679 149.041 186.146 148.575 186.146 148C186.146 147.424 185.679 146.958 185.104 146.958C184.529 146.958 184.062 147.424 184.062 148C184.062 148.575 184.529 149.041 185.104 149.041Z" fill="#383A48"/>
<path d="M185.104 154.187C185.679 154.187 186.146 153.72 186.146 153.145C186.146 152.57 185.679 152.104 185.104 152.104C184.529 152.104 184.062 152.57 184.062 153.145C184.062 153.72 184.529 154.187 185.104 154.187Z" fill="#383A48"/>
<path d="M185.104 159.313C185.679 159.313 186.146 158.846 186.146 158.271C186.146 157.696 185.679 157.229 185.104 157.229C184.529 157.229 184.062 157.696 184.062 158.271C184.062 158.846 184.529 159.313 185.104 159.313Z" fill="#383A48"/>
<path d="M185.104 164.458C185.679 164.458 186.146 163.992 186.146 163.417C186.146 162.841 185.679 162.375 185.104 162.375C184.529 162.375 184.062 162.841 184.062 163.417C184.062 163.992 184.529 164.458 185.104 164.458Z" fill="#383A48"/>
<path d="M185.104 169.604C185.679 169.604 186.146 169.137 186.146 168.562C186.146 167.987 185.679 167.521 185.104 167.521C184.529 167.521 184.062 167.987 184.062 168.562C184.062 169.137 184.529 169.604 185.104 169.604Z" fill="#383A48"/>
<path d="M185.104 174.729C185.679 174.729 186.146 174.262 186.146 173.687C186.146 173.112 185.679 172.646 185.104 172.646C184.529 172.646 184.062 173.112 184.062 173.687C184.062 174.262 184.529 174.729 185.104 174.729Z" fill="#383A48"/>
<path d="M185.104 179.874C185.679 179.874 186.146 179.408 186.146 178.833C186.146 178.257 185.679 177.791 185.104 177.791C184.529 177.791 184.062 178.257 184.062 178.833C184.062 179.408 184.529 179.874 185.104 179.874Z" fill="#383A48"/>
<path d="M185.104 185.021C185.679 185.021 186.146 184.554 186.146 183.979C186.146 183.404 185.679 182.938 185.104 182.938C184.529 182.938 184.062 183.404 184.062 183.979C184.062 184.554 184.529 185.021 185.104 185.021Z" fill="#383A48"/>
<path d="M179.96 143.896C180.535 143.896 181.001 143.429 181.001 142.854C181.001 142.279 180.535 141.812 179.96 141.812C179.384 141.812 178.918 142.279 178.918 142.854C178.918 143.429 179.384 143.896 179.96 143.896Z" fill="#383A48"/>
<path d="M179.96 149.041C180.535 149.041 181.001 148.575 181.001 148C181.001 147.424 180.535 146.958 179.96 146.958C179.384 146.958 178.918 147.424 178.918 148C178.918 148.575 179.384 149.041 179.96 149.041Z" fill="#383A48"/>
<path d="M179.96 154.187C180.535 154.187 181.001 153.72 181.001 153.145C181.001 152.57 180.535 152.104 179.96 152.104C179.384 152.104 178.918 152.57 178.918 153.145C178.918 153.72 179.384 154.187 179.96 154.187Z" fill="#383A48"/>
<path d="M179.96 159.313C180.535 159.313 181.001 158.846 181.001 158.271C181.001 157.696 180.535 157.229 179.96 157.229C179.384 157.229 178.918 157.696 178.918 158.271C178.918 158.846 179.384 159.313 179.96 159.313Z" fill="#383A48"/>
<path d="M179.96 164.458C180.535 164.458 181.001 163.992 181.001 163.417C181.001 162.841 180.535 162.375 179.96 162.375C179.384 162.375 178.918 162.841 178.918 163.417C178.918 163.992 179.384 164.458 179.96 164.458Z" fill="#383A48"/>
<path d="M179.96 169.604C180.535 169.604 181.001 169.137 181.001 168.562C181.001 167.987 180.535 167.521 179.96 167.521C179.384 167.521 178.918 167.987 178.918 168.562C178.918 169.137 179.384 169.604 179.96 169.604Z" fill="#383A48"/>
<path d="M179.96 174.729C180.535 174.729 181.001 174.262 181.001 173.687C181.001 173.112 180.535 172.646 179.96 172.646C179.384 172.646 178.918 173.112 178.918 173.687C178.918 174.262 179.384 174.729 179.96 174.729Z" fill="#383A48"/>
<path d="M179.96 179.874C180.535 179.874 181.001 179.408 181.001 178.833C181.001 178.257 180.535 177.791 179.96 177.791C179.384 177.791 178.918 178.257 178.918 178.833C178.918 179.408 179.384 179.874 179.96 179.874Z" fill="#383A48"/>
<path d="M179.96 185.021C180.535 185.021 181.001 184.554 181.001 183.979C181.001 183.404 180.535 182.938 179.96 182.938C179.384 182.938 178.918 183.404 178.918 183.979C178.918 184.554 179.384 185.021 179.96 185.021Z" fill="#383A48"/>
<path d="M174.811 143.896C175.386 143.896 175.853 143.429 175.853 142.854C175.853 142.279 175.386 141.812 174.811 141.812C174.236 141.812 173.77 142.279 173.77 142.854C173.77 143.429 174.236 143.896 174.811 143.896Z" fill="#383A48"/>
<path d="M174.811 149.041C175.386 149.041 175.853 148.575 175.853 148C175.853 147.424 175.386 146.958 174.811 146.958C174.236 146.958 173.77 147.424 173.77 148C173.77 148.575 174.236 149.041 174.811 149.041Z" fill="#383A48"/>
<path d="M174.811 154.187C175.386 154.187 175.853 153.72 175.853 153.145C175.853 152.57 175.386 152.104 174.811 152.104C174.236 152.104 173.77 152.57 173.77 153.145C173.77 153.72 174.236 154.187 174.811 154.187Z" fill="#383A48"/>
<path d="M174.811 159.313C175.386 159.313 175.853 158.846 175.853 158.271C175.853 157.696 175.386 157.229 174.811 157.229C174.236 157.229 173.77 157.696 173.77 158.271C173.77 158.846 174.236 159.313 174.811 159.313Z" fill="#383A48"/>
<path d="M174.811 164.458C175.386 164.458 175.853 163.992 175.853 163.417C175.853 162.841 175.386 162.375 174.811 162.375C174.236 162.375 173.77 162.841 173.77 163.417C173.77 163.992 174.236 164.458 174.811 164.458Z" fill="#383A48"/>
<path d="M174.811 169.604C175.386 169.604 175.853 169.137 175.853 168.562C175.853 167.987 175.386 167.521 174.811 167.521C174.236 167.521 173.77 167.987 173.77 168.562C173.77 169.137 174.236 169.604 174.811 169.604Z" fill="#383A48"/>
<path d="M174.811 174.729C175.386 174.729 175.853 174.262 175.853 173.687C175.853 173.112 175.386 172.646 174.811 172.646C174.236 172.646 173.77 173.112 173.77 173.687C173.77 174.262 174.236 174.729 174.811 174.729Z" fill="#383A48"/>
<path d="M174.811 179.874C175.386 179.874 175.853 179.408 175.853 178.833C175.853 178.257 175.386 177.791 174.811 177.791C174.236 177.791 173.77 178.257 173.77 178.833C173.77 179.408 174.236 179.874 174.811 179.874Z" fill="#383A48"/>
<path d="M174.811 185.021C175.386 185.021 175.853 184.554 175.853 183.979C175.853 183.404 175.386 182.938 174.811 182.938C174.236 182.938 173.77 183.404 173.77 183.979C173.77 184.554 174.236 185.021 174.811 185.021Z" fill="#383A48"/>
<path d="M169.688 143.896C170.263 143.896 170.73 143.429 170.73 142.854C170.73 142.279 170.263 141.812 169.688 141.812C169.113 141.812 168.646 142.279 168.646 142.854C168.646 143.429 169.113 143.896 169.688 143.896Z" fill="#383A48"/>
<path d="M169.688 149.041C170.263 149.041 170.73 148.575 170.73 148C170.73 147.424 170.263 146.958 169.688 146.958C169.113 146.958 168.646 147.424 168.646 148C168.646 148.575 169.113 149.041 169.688 149.041Z" fill="#383A48"/>
<path d="M169.688 154.187C170.263 154.187 170.73 153.72 170.73 153.145C170.73 152.57 170.263 152.104 169.688 152.104C169.113 152.104 168.646 152.57 168.646 153.145C168.646 153.72 169.113 154.187 169.688 154.187Z" fill="#383A48"/>
<path d="M169.688 159.313C170.263 159.313 170.73 158.846 170.73 158.271C170.73 157.696 170.263 157.229 169.688 157.229C169.113 157.229 168.646 157.696 168.646 158.271C168.646 158.846 169.113 159.313 169.688 159.313Z" fill="#383A48"/>
<path d="M169.688 164.458C170.263 164.458 170.73 163.992 170.73 163.417C170.73 162.841 170.263 162.375 169.688 162.375C169.113 162.375 168.646 162.841 168.646 163.417C168.646 163.992 169.113 164.458 169.688 164.458Z" fill="#383A48"/>
<path d="M169.688 169.604C170.263 169.604 170.73 169.137 170.73 168.562C170.73 167.987 170.263 167.521 169.688 167.521C169.113 167.521 168.646 167.987 168.646 168.562C168.646 169.137 169.113 169.604 169.688 169.604Z" fill="#383A48"/>
<path d="M169.688 174.729C170.263 174.729 170.73 174.262 170.73 173.687C170.73 173.112 170.263 172.646 169.688 172.646C169.113 172.646 168.646 173.112 168.646 173.687C168.646 174.262 169.113 174.729 169.688 174.729Z" fill="#383A48"/>
<path d="M169.688 179.874C170.263 179.874 170.73 179.408 170.73 178.833C170.73 178.257 170.263 177.791 169.688 177.791C169.113 177.791 168.646 178.257 168.646 178.833C168.646 179.408 169.113 179.874 169.688 179.874Z" fill="#383A48"/>
<path d="M169.688 185.021C170.263 185.021 170.73 184.554 170.73 183.979C170.73 183.404 170.263 182.938 169.688 182.938C169.113 182.938 168.646 183.404 168.646 183.979C168.646 184.554 169.113 185.021 169.688 185.021Z" fill="#383A48"/>
<path d="M164.542 143.896C165.117 143.896 165.583 143.429 165.583 142.854C165.583 142.279 165.117 141.812 164.542 141.812C163.966 141.812 163.5 142.279 163.5 142.854C163.5 143.429 163.966 143.896 164.542 143.896Z" fill="#383A48"/>
<path d="M164.542 149.041C165.117 149.041 165.583 148.575 165.583 148C165.583 147.424 165.117 146.958 164.542 146.958C163.966 146.958 163.5 147.424 163.5 148C163.5 148.575 163.966 149.041 164.542 149.041Z" fill="#383A48"/>
<path d="M164.542 154.187C165.117 154.187 165.583 153.72 165.583 153.145C165.583 152.57 165.117 152.104 164.542 152.104C163.966 152.104 163.5 152.57 163.5 153.145C163.5 153.72 163.966 154.187 164.542 154.187Z" fill="#383A48"/>
<path d="M164.542 159.313C165.117 159.313 165.583 158.846 165.583 158.271C165.583 157.696 165.117 157.229 164.542 157.229C163.966 157.229 163.5 157.696 163.5 158.271C163.5 158.846 163.966 159.313 164.542 159.313Z" fill="#383A48"/>
<path d="M164.542 164.458C165.117 164.458 165.583 163.992 165.583 163.417C165.583 162.841 165.117 162.375 164.542 162.375C163.966 162.375 163.5 162.841 163.5 163.417C163.5 163.992 163.966 164.458 164.542 164.458Z" fill="#383A48"/>
<path d="M164.542 169.604C165.117 169.604 165.583 169.137 165.583 168.562C165.583 167.987 165.117 167.521 164.542 167.521C163.966 167.521 163.5 167.987 163.5 168.562C163.5 169.137 163.966 169.604 164.542 169.604Z" fill="#383A48"/>
<path d="M164.542 174.729C165.117 174.729 165.583 174.262 165.583 173.687C165.583 173.112 165.117 172.646 164.542 172.646C163.966 172.646 163.5 173.112 163.5 173.687C163.5 174.262 163.966 174.729 164.542 174.729Z" fill="#383A48"/>
<path d="M164.542 179.874C165.117 179.874 165.583 179.408 165.583 178.833C165.583 178.257 165.117 177.791 164.542 177.791C163.966 177.791 163.5 178.257 163.5 178.833C163.5 179.408 163.966 179.874 164.542 179.874Z" fill="#383A48"/>
<path d="M164.542 185.021C165.117 185.021 165.583 184.554 165.583 183.979C165.583 183.404 165.117 182.938 164.542 182.938C163.966 182.938 163.5 183.404 163.5 183.979C163.5 184.554 163.966 185.021 164.542 185.021Z" fill="#383A48"/>
<path d="M161.938 38.8337C161.75 38.5628 161.438 38.417 161.105 38.417H57.7921C57.3754 38.417 56.9796 38.667 56.8337 39.0628C56.6879 39.4587 56.7713 39.917 57.0838 40.2087C59.0838 42.1462 63.4796 48.0212 65.7713 56.3962C67.4379 62.5212 67.7921 69.0836 66.8129 75.8961C65.5838 84.4378 62.2504 93.3961 56.9171 102.542C47.5213 118.604 52.6879 128.479 59.2088 140.979C64.6463 151.396 71.4379 164.375 71.4379 185.084C71.4379 185.667 71.8963 186.125 72.4796 186.125H100.063C100.438 186.125 100.771 185.938 100.959 185.625L138.063 123.604C138.105 123.521 138.146 123.438 138.167 123.354L162.125 39.7503C162.188 39.4378 162.125 39.0837 161.938 38.8337Z" fill="#F3F6E6"/>
<path d="M359.689 54.7295C359.105 54.7295 358.647 55.1878 358.647 55.7712C358.647 63.7712 353.085 68.8128 345.397 75.8128C338.772 81.8337 330.543 89.3128 323.834 101.084C320.293 107.292 318.272 113.021 316.314 118.563C312.251 130.042 308.418 140.896 291.48 154.125C283.814 160.104 272.418 162.438 260.376 164.917C244.084 168.271 227.251 171.709 219.918 185.042C219.73 185.354 219.751 185.75 219.939 186.084C220.126 186.396 220.459 186.604 220.834 186.604H341.314C352.022 186.604 360.73 177.896 360.73 167.188V55.7712C360.73 55.2087 360.251 54.7295 359.689 54.7295Z" fill="#F3F6E6"/>
<path d="M220.833 143.334H183V185.542H220.833V143.334Z" fill="#F3F6E6"/>
<path d="M220.834 186.584H183.001C182.417 186.584 181.959 186.125 181.959 185.542V143.334C181.959 142.75 182.417 142.292 183.001 142.292H220.834C221.417 142.292 221.876 142.75 221.876 143.334V185.542C221.876 186.125 221.417 186.584 220.834 186.584ZM184.042 184.5H219.792V144.375H184.042V184.5Z" fill="#383A48"/>
<path d="M220.833 142.292H183C182.541 142.292 182.125 142.604 182 143.042C181.875 143.479 182.041 143.959 182.437 144.209L220.271 168.375C220.437 168.48 220.646 168.542 220.833 168.542C221 168.542 221.187 168.5 221.333 168.417C221.666 168.23 221.875 167.875 221.875 167.5V143.334C221.875 142.771 221.416 142.292 220.833 142.292Z" fill="#FF277E"/>
<path d="M277.395 144.98H126.437C121.937 144.98 118.291 141.334 118.291 136.834V47.6048C118.291 43.1048 121.937 39.459 126.437 39.459H277.416C281.916 39.459 285.562 43.1048 285.562 47.6048V136.813C285.541 141.313 281.895 144.98 277.395 144.98Z" fill="#AAC6FC"/>
<path d="M277.396 146.021H126.438C121.375 146.021 117.25 141.896 117.25 136.834V47.6045C117.25 42.542 121.375 38.417 126.438 38.417H277.417C282.479 38.417 286.604 42.542 286.604 47.6045V136.813C286.583 141.896 282.458 146.021 277.396 146.021ZM126.438 40.5003C122.521 40.5003 119.333 43.6878 119.333 47.6045V136.813C119.333 140.729 122.521 143.917 126.438 143.917H277.417C281.333 143.917 284.521 140.729 284.521 136.813V47.6045C284.521 43.6878 281.333 40.5003 277.417 40.5003H126.438Z" fill="#383A48"/>
<path d="M285.543 124.354H118.272C117.689 124.354 117.23 124.813 117.23 125.396V136.667C117.23 141.813 121.418 146 126.564 146H277.251C282.397 146 286.585 141.813 286.585 136.667V125.396C286.585 124.834 286.126 124.354 285.543 124.354Z" fill="#383A48"/>
<path d="M237.438 184.5H71.209V186.583H237.438V184.5Z" fill="#383A48"/>
<path d="M285.542 63.084H191.709V125.396H285.542V63.084Z" fill="#F3F6E6"/>
<path d="M285.543 126.438H191.71C191.126 126.438 190.668 125.98 190.668 125.396V63.0837C190.668 62.5003 191.126 62.042 191.71 62.042H285.543C286.126 62.042 286.585 62.5003 286.585 63.0837V125.396C286.585 125.98 286.126 126.438 285.543 126.438ZM192.751 124.355H284.501V64.1253H192.751V124.355Z" fill="#383A48"/>
<path d="M285.542 63.084H191.709V81.3757H285.542V63.084Z" fill="#F6E049"/>
<path d="M285.543 82.417H191.71C191.126 82.417 190.668 81.9587 190.668 81.3753V63.0837C190.668 62.5003 191.126 62.042 191.71 62.042H285.543C286.126 62.042 286.585 62.5003 286.585 63.0837V81.3753C286.585 81.9587 286.126 82.417 285.543 82.417ZM192.751 80.3337H284.501V64.1253H192.751V80.3337Z" fill="#383A48"/>
<path d="M269.855 94.1045H207.396V109.104H269.855V94.1045Z" fill="#F3F6E6"/>
<path d="M269.856 110.146H207.397C206.814 110.146 206.355 109.688 206.355 109.104V94.1042C206.355 93.5208 206.814 93.0625 207.397 93.0625H269.856C270.439 93.0625 270.897 93.5208 270.897 94.1042V109.104C270.897 109.688 270.439 110.146 269.856 110.146ZM208.439 108.063H268.814V95.1458H208.439V108.063Z" fill="#383A48"/>
<path d="M86.2493 115.666L191.708 63.083L151.541 173.875L134.77 146.021L100.041 185.062L82.6035 169.52L117.187 130.625L86.2493 115.666Z" fill="#F3F6E6"/>
<path d="M100.041 186.104C99.791 186.104 99.541 186.021 99.3535 185.833L81.916 170.271C81.4785 169.896 81.4576 169.229 81.8326 168.792L115.52 130.938L85.8118 116.583C85.4576 116.417 85.2285 116.042 85.2285 115.646C85.2285 115.25 85.4576 114.875 85.8118 114.708L191.249 62.1459C191.624 61.9584 192.083 62.0209 192.416 62.2917C192.728 62.5834 192.853 63.0209 192.708 63.4167L152.52 174.229C152.374 174.604 152.041 174.875 151.645 174.917C151.249 174.958 150.853 174.771 150.645 174.417L134.624 147.771L100.812 185.771C100.624 185.979 100.374 186.104 100.103 186.125C100.083 186.104 100.062 186.104 100.041 186.104ZM84.0618 169.438L99.9576 183.604L133.999 145.333C134.228 145.083 134.541 144.958 134.874 144.979C135.208 145 135.499 145.188 135.666 145.479L151.291 171.458L189.833 65.1667L88.6035 115.646L117.645 129.688C117.937 129.833 118.145 130.104 118.208 130.417C118.27 130.729 118.187 131.063 117.958 131.313L84.0618 169.438Z" fill="#383A48"/>
<path d="M323.124 102.312C338.634 102.312 351.208 89.7388 351.208 74.2288C351.208 58.7188 338.634 46.1455 323.124 46.1455C307.614 46.1455 295.041 58.7188 295.041 74.2288C295.041 89.7388 307.614 102.312 323.124 102.312Z" fill="#7FD6C2"/>
<path d="M323.125 103.375C307.063 103.375 294 90.3125 294 74.25C294 58.1875 307.063 45.125 323.125 45.125C339.188 45.125 352.25 58.1875 352.25 74.25C352.271 90.2917 339.188 103.375 323.125 103.375ZM323.125 47.1875C308.208 47.1875 296.083 59.3125 296.083 74.2292C296.083 89.1458 308.208 101.271 323.125 101.271C338.042 101.271 350.167 89.1458 350.167 74.2292C350.167 59.3125 338.042 47.1875 323.125 47.1875Z" fill="#383A48"/>
<path d="M323.124 73.7917C327.174 73.7917 330.458 70.5084 330.458 66.4583C330.458 62.4082 327.174 59.125 323.124 59.125C319.074 59.125 315.791 62.4082 315.791 66.4583C315.791 70.5084 319.074 73.7917 323.124 73.7917Z" fill="#F3F6E6"/>
<path d="M323.125 74.833C318.521 74.833 314.75 71.083 314.75 66.458C314.75 61.8538 318.5 58.083 323.125 58.083C327.729 58.083 331.5 61.833 331.5 66.458C331.5 71.083 327.75 74.833 323.125 74.833ZM323.125 60.1872C319.667 60.1872 316.833 62.9997 316.833 66.4788C316.833 69.958 319.646 72.7705 323.125 72.7705C326.583 72.7705 329.417 69.958 329.417 66.4788C329.417 62.9997 326.604 60.1872 323.125 60.1872Z" fill="#383A48"/>
<path d="M334.666 88.0834H311.604V85.3334C311.604 78.9583 316.77 73.8125 323.124 73.8125C329.499 73.8125 334.645 78.9792 334.645 85.3334L334.666 88.0834Z" fill="#F3F6E6"/>
<path d="M334.667 89.1247H311.604C311.021 89.1247 310.562 88.6664 310.562 88.083V85.333C310.562 78.3955 316.208 72.7705 323.125 72.7705C330.042 72.7705 335.687 78.4163 335.687 85.333V88.083C335.708 88.6455 335.229 89.1247 334.667 89.1247ZM312.646 87.0414H333.625V85.333C333.625 79.5414 328.917 74.8538 323.146 74.8538C317.354 74.8538 312.667 79.5622 312.667 85.333L312.646 87.0414Z" fill="#383A48"/>
<path d="M79.1452 115.604C92.1469 115.604 102.687 105.064 102.687 92.0622C102.687 79.0605 92.1469 68.5205 79.1452 68.5205C66.1435 68.5205 55.6035 79.0605 55.6035 92.0622C55.6035 105.064 66.1435 115.604 79.1452 115.604Z" fill="#AAC6FC"/>
<path d="M79.1458 116.625C65.6042 116.625 54.5625 105.604 54.5625 92.0413C54.5625 78.4788 65.5833 67.458 79.1458 67.458C92.7083 67.458 103.729 78.4788 103.729 92.0413C103.729 105.604 92.6875 116.625 79.1458 116.625ZM79.1458 69.5622C66.75 69.5622 56.6458 79.6455 56.6458 92.0622C56.6458 104.458 66.7292 114.562 79.1458 114.562C91.5417 114.562 101.646 104.479 101.646 92.0622C101.625 79.6455 91.5417 69.5622 79.1458 69.5622Z" fill="#383A48"/>
<path d="M79.1445 91.666C82.5273 91.666 85.2695 88.9238 85.2695 85.541C85.2695 82.1583 82.5273 79.416 79.1445 79.416C75.7618 79.416 73.0195 82.1583 73.0195 85.541C73.0195 88.9238 75.7618 91.666 79.1445 91.666Z" fill="#F3F6E6"/>
<path d="M79.1452 92.7074C75.1869 92.7074 71.9785 89.4782 71.9785 85.5407C71.9785 81.6032 75.2077 78.374 79.1452 78.374C83.0827 78.374 86.3119 81.6032 86.3119 85.5407C86.3119 89.4782 83.1035 92.7074 79.1452 92.7074ZM79.1452 80.4365C76.3327 80.4365 74.0619 82.7282 74.0619 85.5199C74.0619 88.3115 76.3535 90.6032 79.1452 90.6032C81.9369 90.6032 84.2285 88.3115 84.2285 85.5199C84.2285 82.7282 81.9369 80.4365 79.1452 80.4365Z" fill="#383A48"/>
<path d="M88.791 103.645H69.4785V101.333C69.4785 95.9993 73.8118 91.666 79.1452 91.666C84.4785 91.666 88.8119 95.9993 88.8119 101.333L88.791 103.645Z" fill="#F3F6E6"/>
<path d="M88.7917 104.687H69.4792C68.8958 104.687 68.4375 104.228 68.4375 103.645V101.332C68.4375 95.4365 73.2292 90.624 79.1458 90.624C85.0417 90.624 89.8542 95.4157 89.8542 101.332V103.645C89.8333 104.228 89.375 104.687 88.7917 104.687ZM70.5208 102.603H87.75V101.332C87.75 96.5824 83.875 92.7074 79.125 92.7074C74.375 92.7074 70.5 96.5824 70.5 101.332L70.5208 102.603Z" fill="#383A48"/>
<path d="M341.646 185.543C351.598 185.543 359.667 177.474 359.667 167.522C359.667 157.569 351.598 149.501 341.646 149.501C331.693 149.501 323.625 157.569 323.625 167.522C323.625 177.474 331.693 185.543 341.646 185.543Z" fill="#F6E049"/>
<path d="M341.646 186.584C331.126 186.584 322.584 178.021 322.584 167.521C322.584 157.021 331.146 148.459 341.646 148.459C352.146 148.459 360.709 157.021 360.709 167.521C360.709 178.021 352.167 186.584 341.646 186.584ZM341.646 150.521C332.271 150.521 324.667 158.146 324.667 167.501C324.667 176.855 332.292 184.48 341.646 184.48C351.021 184.48 358.626 176.855 358.626 167.501C358.626 158.146 351.021 150.521 341.646 150.521Z" fill="#383A48"/>
<path d="M341.646 167.23C344.246 167.23 346.354 165.122 346.354 162.522C346.354 159.921 344.246 157.813 341.646 157.813C339.045 157.813 336.938 159.921 336.938 162.522C336.938 165.122 339.045 167.23 341.646 167.23Z" fill="#F3F6E6"/>
<path d="M341.646 168.271C338.48 168.271 335.896 165.688 335.896 162.521C335.896 159.355 338.48 156.771 341.646 156.771C344.813 156.771 347.396 159.355 347.396 162.521C347.396 165.688 344.813 168.271 341.646 168.271ZM341.646 158.876C339.626 158.876 337.98 160.521 337.98 162.542C337.98 164.563 339.626 166.209 341.646 166.209C343.667 166.209 345.313 164.563 345.313 162.542C345.313 160.501 343.667 158.876 341.646 158.876Z" fill="#383A48"/>
<path d="M349.063 176.397H334.271V174.626C334.271 170.543 337.584 167.23 341.667 167.23C345.751 167.23 349.063 170.543 349.063 174.626V176.397Z" fill="#F3F6E6"/>
<path d="M349.064 177.438H334.272C333.689 177.438 333.23 176.98 333.23 176.397V174.626C333.23 169.98 337.022 166.188 341.668 166.188C346.314 166.188 350.106 169.98 350.106 174.626V176.397C350.106 176.98 349.626 177.438 349.064 177.438ZM335.293 175.355H348.001V174.626C348.001 171.126 345.147 168.272 341.647 168.272C338.147 168.272 335.293 171.126 335.293 174.626V175.355Z" fill="#383A48"/>
<path d="M323.124 126.438H285.541V124.355H322.083V102.334H324.166V125.417C324.166 125.98 323.708 126.438 323.124 126.438Z" fill="#383A48"/>
<path d="M342.688 149.479H340.604V126.438H323.125V124.354H341.646C342.229 124.354 342.688 124.813 342.688 125.396V149.479Z" fill="#383A48"/>
<path d="M323.126 127.75C324.426 127.75 325.48 126.696 325.48 125.396C325.48 124.096 324.426 123.042 323.126 123.042C321.825 123.042 320.771 124.096 320.771 125.396C320.771 126.696 321.825 127.75 323.126 127.75Z" fill="#383A48"/>
<path d="M323.126 128.792C321.251 128.792 319.73 127.271 319.73 125.396C319.73 123.521 321.251 122 323.126 122C325.001 122 326.522 123.521 326.522 125.396C326.522 127.271 325.001 128.792 323.126 128.792ZM323.126 124.083C322.397 124.083 321.814 124.667 321.814 125.396C321.814 126.125 322.397 126.708 323.126 126.708C323.855 126.708 324.439 126.125 324.439 125.396C324.439 124.667 323.855 124.083 323.126 124.083Z" fill="#383A48"/>
<path d="M341.645 127.75C342.945 127.75 343.999 126.696 343.999 125.396C343.999 124.096 342.945 123.042 341.645 123.042C340.345 123.042 339.291 124.096 339.291 125.396C339.291 126.696 340.345 127.75 341.645 127.75Z" fill="#383A48"/>
<path d="M341.646 128.792C339.771 128.792 338.25 127.271 338.25 125.396C338.25 123.521 339.771 122 341.646 122C343.521 122 345.042 123.521 345.042 125.396C345.042 127.271 343.521 128.792 341.646 128.792ZM341.646 124.083C340.917 124.083 340.333 124.667 340.333 125.396C340.333 126.125 340.917 126.708 341.646 126.708C342.375 126.708 342.958 126.125 342.958 125.396C342.958 124.667 342.375 124.083 341.646 124.083Z" fill="#383A48"/>
<path d="M79.1452 56.5003C80.4454 56.5003 81.4994 55.4463 81.4994 54.1462C81.4994 52.846 80.4454 51.792 79.1452 51.792C77.845 51.792 76.791 52.846 76.791 54.1462C76.791 55.4463 77.845 56.5003 79.1452 56.5003Z" fill="#383A48"/>
<path d="M79.1458 57.5417C77.2708 57.5417 75.75 56.0208 75.75 54.1458C75.75 52.2708 77.2708 50.75 79.1458 50.75C81.0208 50.75 82.5416 52.2708 82.5416 54.1458C82.5208 56 81 57.5417 79.1458 57.5417ZM79.1458 52.8333C78.4167 52.8333 77.8333 53.4167 77.8333 54.1458C77.8333 54.875 78.4167 55.4583 79.1458 55.4583C79.875 55.4583 80.4583 54.875 80.4583 54.1458C80.4583 53.4167 79.8542 52.8333 79.1458 52.8333Z" fill="#383A48"/>
<path d="M80.1868 68.5212H78.1035V54.1462C78.1035 53.5628 78.5618 53.1045 79.1452 53.1045H118.291V55.1878H80.1868V68.5212Z" fill="#383A48"/>
<path d="M57.9583 156.126L56.625 154.521C63.1042 149.167 66.9792 144.646 68.25 141.042C66.8542 140.542 65.6042 139.751 64.625 138.709C63.3958 137.396 62.9792 135.896 63.4583 134.605C63.8542 133.542 64.8125 132.792 65.9583 132.646C67.3125 132.501 68.6875 133.23 69.6042 134.626C70.5625 136.105 70.9583 137.709 70.75 139.501C71.0625 139.542 71.375 139.563 71.6875 139.563C74.9792 139.626 80.4583 138.126 87.9375 130.646L89.4167 132.126C81.4167 140.126 75.3542 141.709 71.6458 141.646C71.1875 141.646 70.7292 141.605 70.2708 141.542C68.9375 145.605 64.8333 150.438 57.9583 156.126ZM66.3542 134.688C66.3125 134.688 66.2708 134.688 66.2292 134.688C65.8542 134.73 65.5625 134.959 65.4375 135.292C65.2292 135.834 65.5 136.563 66.1667 137.271C66.8542 138.001 67.7083 138.584 68.7083 138.959C68.7917 137.771 68.5208 136.688 67.8958 135.751C67.4375 135.063 66.8958 134.688 66.3542 134.688Z" fill="#383A48"/>
<path d="M297.396 164.938H295.312V171.813H297.396V164.938Z" fill="#383A48"/>
<path d="M299.791 167.333H292.916V169.416H299.791V167.333Z" fill="#383A48"/>
<path d="M44.7923 50.709H42.709V57.584H44.7923V50.709Z" fill="#383A48"/>
<path d="M47.1875 53.1045H40.3125V55.1878H47.1875V53.1045Z" fill="#383A48"/>
<path d="M133.542 168.375H131.459V175.25H133.542V168.375Z" fill="#383A48"/>
<path d="M135.959 170.771H129.084V172.854H135.959V170.771Z" fill="#383A48"/>
<path d="M170.252 52.2335L168.928 53.8418L174.879 58.742L176.203 57.1337L170.252 52.2335Z" fill="#F3F6E6"/>
<path d="M200.553 46.1855L196.67 52.8447L198.47 53.8941L202.352 47.2349L200.553 46.1855Z" fill="#F3F6E6"/>
<path d="M185.865 45.9154L183.814 46.2822L185.062 53.255L187.113 52.8882L185.865 45.9154Z" fill="#F3F6E6"/>
</svg>
