<svg width="422" height="195" viewBox="0 0 422 195" fill="none" xmlns="http://www.w3.org/2000/svg">
<path d="M190.407 138.709C191.163 138.709 191.777 138.096 191.777 137.34C191.777 136.583 191.163 135.97 190.407 135.97C189.65 135.97 189.037 136.583 189.037 137.34C189.037 138.096 189.65 138.709 190.407 138.709Z" fill="#383A48"/>
<path d="M190.407 145.476C191.163 145.476 191.777 144.863 191.777 144.106C191.777 143.35 191.163 142.736 190.407 142.736C189.65 142.736 189.037 143.35 189.037 144.106C189.037 144.863 189.65 145.476 190.407 145.476Z" fill="#383A48"/>
<path d="M190.407 152.244C191.163 152.244 191.777 151.63 191.777 150.874C191.777 150.117 191.163 149.504 190.407 149.504C189.65 149.504 189.037 150.117 189.037 150.874C189.037 151.63 189.65 152.244 190.407 152.244Z" fill="#383A48"/>
<path d="M190.407 158.983C191.163 158.983 191.777 158.37 191.777 157.613C191.777 156.856 191.163 156.243 190.407 156.243C189.65 156.243 189.037 156.856 189.037 157.613C189.037 158.37 189.65 158.983 190.407 158.983Z" fill="#383A48"/>
<path d="M190.407 165.749C191.163 165.749 191.777 165.136 191.777 164.38C191.777 163.623 191.163 163.01 190.407 163.01C189.65 163.01 189.037 163.623 189.037 164.38C189.037 165.136 189.65 165.749 190.407 165.749Z" fill="#383A48"/>
<path d="M190.407 172.517C191.163 172.517 191.777 171.904 191.777 171.147C191.777 170.391 191.163 169.777 190.407 169.777C189.65 169.777 189.037 170.391 189.037 171.147C189.037 171.904 189.65 172.517 190.407 172.517Z" fill="#383A48"/>
<path d="M190.407 179.256C191.163 179.256 191.777 178.643 191.777 177.886C191.777 177.13 191.163 176.517 190.407 176.517C189.65 176.517 189.037 177.13 189.037 177.886C189.037 178.643 189.65 179.256 190.407 179.256Z" fill="#383A48"/>
<path d="M190.407 186.024C191.163 186.024 191.777 185.411 191.777 184.654C191.777 183.897 191.163 183.284 190.407 183.284C189.65 183.284 189.037 183.897 189.037 184.654C189.037 185.411 189.65 186.024 190.407 186.024Z" fill="#383A48"/>
<path d="M190.407 192.79C191.163 192.79 191.777 192.177 191.777 191.421C191.777 190.664 191.163 190.051 190.407 190.051C189.65 190.051 189.037 190.664 189.037 191.421C189.037 192.177 189.65 192.79 190.407 192.79Z" fill="#383A48"/>
<path d="M183.639 138.709C184.396 138.709 185.009 138.096 185.009 137.34C185.009 136.583 184.396 135.97 183.639 135.97C182.883 135.97 182.27 136.583 182.27 137.34C182.27 138.096 182.883 138.709 183.639 138.709Z" fill="#383A48"/>
<path d="M183.639 145.476C184.396 145.476 185.009 144.863 185.009 144.106C185.009 143.35 184.396 142.736 183.639 142.736C182.883 142.736 182.27 143.35 182.27 144.106C182.27 144.863 182.883 145.476 183.639 145.476Z" fill="#383A48"/>
<path d="M183.639 152.244C184.396 152.244 185.009 151.63 185.009 150.874C185.009 150.117 184.396 149.504 183.639 149.504C182.883 149.504 182.27 150.117 182.27 150.874C182.27 151.63 182.883 152.244 183.639 152.244Z" fill="#383A48"/>
<path d="M183.639 158.983C184.396 158.983 185.009 158.37 185.009 157.613C185.009 156.856 184.396 156.243 183.639 156.243C182.883 156.243 182.27 156.856 182.27 157.613C182.27 158.37 182.883 158.983 183.639 158.983Z" fill="#383A48"/>
<path d="M183.639 165.749C184.396 165.749 185.009 165.136 185.009 164.38C185.009 163.623 184.396 163.01 183.639 163.01C182.883 163.01 182.27 163.623 182.27 164.38C182.27 165.136 182.883 165.749 183.639 165.749Z" fill="#383A48"/>
<path d="M183.639 172.517C184.396 172.517 185.009 171.904 185.009 171.147C185.009 170.391 184.396 169.777 183.639 169.777C182.883 169.777 182.27 170.391 182.27 171.147C182.27 171.904 182.883 172.517 183.639 172.517Z" fill="#383A48"/>
<path d="M183.639 179.256C184.396 179.256 185.009 178.643 185.009 177.886C185.009 177.13 184.396 176.517 183.639 176.517C182.883 176.517 182.27 177.13 182.27 177.886C182.27 178.643 182.883 179.256 183.639 179.256Z" fill="#383A48"/>
<path d="M183.639 186.024C184.396 186.024 185.009 185.411 185.009 184.654C185.009 183.897 184.396 183.284 183.639 183.284C182.883 183.284 182.27 183.897 182.27 184.654C182.27 185.411 182.883 186.024 183.639 186.024Z" fill="#383A48"/>
<path d="M183.639 192.79C184.396 192.79 185.009 192.177 185.009 191.421C185.009 190.664 184.396 190.051 183.639 190.051C182.883 190.051 182.27 190.664 182.27 191.421C182.27 192.177 182.883 192.79 183.639 192.79Z" fill="#383A48"/>
<path d="M176.872 138.709C177.628 138.709 178.242 138.096 178.242 137.34C178.242 136.583 177.628 135.97 176.872 135.97C176.115 135.97 175.502 136.583 175.502 137.34C175.502 138.096 176.115 138.709 176.872 138.709Z" fill="#383A48"/>
<path d="M176.872 145.476C177.628 145.476 178.242 144.863 178.242 144.106C178.242 143.35 177.628 142.736 176.872 142.736C176.115 142.736 175.502 143.35 175.502 144.106C175.502 144.863 176.115 145.476 176.872 145.476Z" fill="#383A48"/>
<path d="M176.872 152.244C177.628 152.244 178.242 151.63 178.242 150.874C178.242 150.117 177.628 149.504 176.872 149.504C176.115 149.504 175.502 150.117 175.502 150.874C175.502 151.63 176.115 152.244 176.872 152.244Z" fill="#383A48"/>
<path d="M176.872 158.983C177.628 158.983 178.242 158.37 178.242 157.613C178.242 156.856 177.628 156.243 176.872 156.243C176.115 156.243 175.502 156.856 175.502 157.613C175.502 158.37 176.115 158.983 176.872 158.983Z" fill="#383A48"/>
<path d="M176.872 165.749C177.628 165.749 178.242 165.136 178.242 164.38C178.242 163.623 177.628 163.01 176.872 163.01C176.115 163.01 175.502 163.623 175.502 164.38C175.502 165.136 176.115 165.749 176.872 165.749Z" fill="#383A48"/>
<path d="M176.872 172.517C177.628 172.517 178.242 171.904 178.242 171.147C178.242 170.391 177.628 169.777 176.872 169.777C176.115 169.777 175.502 170.391 175.502 171.147C175.502 171.904 176.115 172.517 176.872 172.517Z" fill="#383A48"/>
<path d="M176.872 179.256C177.628 179.256 178.242 178.643 178.242 177.886C178.242 177.13 177.628 176.517 176.872 176.517C176.115 176.517 175.502 177.13 175.502 177.886C175.502 178.643 176.115 179.256 176.872 179.256Z" fill="#383A48"/>
<path d="M176.872 186.024C177.628 186.024 178.242 185.411 178.242 184.654C178.242 183.897 177.628 183.284 176.872 183.284C176.115 183.284 175.502 183.897 175.502 184.654C175.502 185.411 176.115 186.024 176.872 186.024Z" fill="#383A48"/>
<path d="M176.872 192.79C177.628 192.79 178.242 192.177 178.242 191.421C178.242 190.664 177.628 190.051 176.872 190.051C176.115 190.051 175.502 190.664 175.502 191.421C175.502 192.177 176.115 192.79 176.872 192.79Z" fill="#383A48"/>
<path d="M170.134 138.709C170.89 138.709 171.503 138.096 171.503 137.34C171.503 136.583 170.89 135.97 170.134 135.97C169.377 135.97 168.764 136.583 168.764 137.34C168.764 138.096 169.377 138.709 170.134 138.709Z" fill="#383A48"/>
<path d="M170.134 145.476C170.89 145.476 171.503 144.863 171.503 144.106C171.503 143.35 170.89 142.736 170.134 142.736C169.377 142.736 168.764 143.35 168.764 144.106C168.764 144.863 169.377 145.476 170.134 145.476Z" fill="#383A48"/>
<path d="M170.134 152.244C170.89 152.244 171.503 151.63 171.503 150.874C171.503 150.117 170.89 149.504 170.134 149.504C169.377 149.504 168.764 150.117 168.764 150.874C168.764 151.63 169.377 152.244 170.134 152.244Z" fill="#383A48"/>
<path d="M170.134 158.983C170.89 158.983 171.503 158.37 171.503 157.613C171.503 156.856 170.89 156.243 170.134 156.243C169.377 156.243 168.764 156.856 168.764 157.613C168.764 158.37 169.377 158.983 170.134 158.983Z" fill="#383A48"/>
<path d="M170.134 165.749C170.89 165.749 171.503 165.136 171.503 164.38C171.503 163.623 170.89 163.01 170.134 163.01C169.377 163.01 168.764 163.623 168.764 164.38C168.764 165.136 169.377 165.749 170.134 165.749Z" fill="#383A48"/>
<path d="M170.134 172.517C170.89 172.517 171.503 171.904 171.503 171.147C171.503 170.391 170.89 169.777 170.134 169.777C169.377 169.777 168.764 170.391 168.764 171.147C168.764 171.904 169.377 172.517 170.134 172.517Z" fill="#383A48"/>
<path d="M170.134 179.256C170.89 179.256 171.503 178.643 171.503 177.886C171.503 177.13 170.89 176.517 170.134 176.517C169.377 176.517 168.764 177.13 168.764 177.886C168.764 178.643 169.377 179.256 170.134 179.256Z" fill="#383A48"/>
<path d="M170.134 186.024C170.89 186.024 171.503 185.411 171.503 184.654C171.503 183.897 170.89 183.284 170.134 183.284C169.377 183.284 168.764 183.897 168.764 184.654C168.764 185.411 169.377 186.024 170.134 186.024Z" fill="#383A48"/>
<path d="M170.134 192.79C170.89 192.79 171.503 192.177 171.503 191.421C171.503 190.664 170.89 190.051 170.134 190.051C169.377 190.051 168.764 190.664 168.764 191.421C168.764 192.177 169.377 192.79 170.134 192.79Z" fill="#383A48"/>
<path d="M163.366 138.709C164.122 138.709 164.736 138.096 164.736 137.34C164.736 136.583 164.122 135.97 163.366 135.97C162.609 135.97 161.996 136.583 161.996 137.34C161.996 138.096 162.609 138.709 163.366 138.709Z" fill="#383A48"/>
<path d="M163.366 145.476C164.122 145.476 164.736 144.863 164.736 144.106C164.736 143.35 164.122 142.736 163.366 142.736C162.609 142.736 161.996 143.35 161.996 144.106C161.996 144.863 162.609 145.476 163.366 145.476Z" fill="#383A48"/>
<path d="M163.366 152.244C164.122 152.244 164.736 151.63 164.736 150.874C164.736 150.117 164.122 149.504 163.366 149.504C162.609 149.504 161.996 150.117 161.996 150.874C161.996 151.63 162.609 152.244 163.366 152.244Z" fill="#383A48"/>
<path d="M163.366 158.983C164.122 158.983 164.736 158.37 164.736 157.613C164.736 156.856 164.122 156.243 163.366 156.243C162.609 156.243 161.996 156.856 161.996 157.613C161.996 158.37 162.609 158.983 163.366 158.983Z" fill="#383A48"/>
<path d="M163.366 165.749C164.122 165.749 164.736 165.136 164.736 164.38C164.736 163.623 164.122 163.01 163.366 163.01C162.609 163.01 161.996 163.623 161.996 164.38C161.996 165.136 162.609 165.749 163.366 165.749Z" fill="#383A48"/>
<path d="M163.366 172.517C164.122 172.517 164.736 171.904 164.736 171.147C164.736 170.391 164.122 169.777 163.366 169.777C162.609 169.777 161.996 170.391 161.996 171.147C161.996 171.904 162.609 172.517 163.366 172.517Z" fill="#383A48"/>
<path d="M163.366 179.256C164.122 179.256 164.736 178.643 164.736 177.886C164.736 177.13 164.122 176.517 163.366 176.517C162.609 176.517 161.996 177.13 161.996 177.886C161.996 178.643 162.609 179.256 163.366 179.256Z" fill="#383A48"/>
<path d="M163.366 186.024C164.122 186.024 164.736 185.411 164.736 184.654C164.736 183.897 164.122 183.284 163.366 183.284C162.609 183.284 161.996 183.897 161.996 184.654C161.996 185.411 162.609 186.024 163.366 186.024Z" fill="#383A48"/>
<path d="M163.366 192.79C164.122 192.79 164.736 192.177 164.736 191.421C164.736 190.664 164.122 190.051 163.366 190.051C162.609 190.051 161.996 190.664 161.996 191.421C161.996 192.177 162.609 192.79 163.366 192.79Z" fill="#383A48"/>
<path d="M159.941 0.547932C159.694 0.191776 159.283 0 158.845 0H22.9853C22.4373 0 21.9168 0.328761 21.725 0.849297C21.5332 1.36983 21.6428 1.97256 22.0538 2.35611C24.6839 4.904 30.4646 12.6298 33.4782 23.6433C35.6699 31.6979 36.1357 40.3278 34.848 49.2865C33.2316 60.5191 28.8482 72.2997 21.8346 84.3268C9.47875 105.45 16.2731 118.436 24.8482 134.874C31.9988 148.572 40.9301 165.64 40.9301 192.872C40.9301 193.639 41.5328 194.242 42.2999 194.242H78.573C79.0661 194.242 79.5045 193.995 79.7511 193.584L128.544 112.025C128.599 111.915 128.654 111.806 128.681 111.696L160.188 1.75339C160.27 1.34244 160.188 0.876692 159.941 0.547932Z" fill="#F3F6E6"/>
<path d="M419.989 21.4512C419.222 21.4512 418.62 22.0539 418.62 22.821C418.62 33.3413 411.305 39.9713 401.195 49.1765C392.483 57.0942 381.662 66.9296 372.84 82.4086C368.182 90.5728 365.525 98.1069 362.95 105.394C357.607 120.49 352.566 134.764 330.293 152.16C320.211 160.023 305.225 163.092 289.39 166.352C267.966 170.763 245.829 175.283 236.185 192.817C235.939 193.228 235.966 193.748 236.213 194.187C236.459 194.598 236.898 194.872 237.391 194.872H395.826C409.907 194.872 421.359 183.42 421.359 169.338V22.821C421.359 22.0813 420.729 21.4512 419.989 21.4512Z" fill="#F3F6E6"/>
<path d="M237.391 137.97H187.639V193.475H237.391V137.97Z" fill="#F3F6E6"/>
<path d="M237.392 194.845H187.639C186.872 194.845 186.27 194.242 186.27 193.475V137.969C186.27 137.202 186.872 136.6 187.639 136.6H237.392C238.159 136.6 238.761 137.202 238.761 137.969V193.475C238.761 194.242 238.159 194.845 237.392 194.845ZM189.009 192.105H236.022V139.339H189.009V192.105Z" fill="#383A48"/>
<path d="M237.392 136.6H187.64C187.037 136.6 186.49 137.011 186.325 137.586C186.161 138.161 186.38 138.791 186.9 139.12L236.653 170.9C236.872 171.037 237.146 171.119 237.392 171.119C237.612 171.119 237.858 171.065 238.05 170.955C238.488 170.708 238.762 170.243 238.762 169.75V137.969C238.762 137.23 238.16 136.6 237.392 136.6Z" fill="#FF277E"/>
<path d="M311.773 140.134H113.257C107.339 140.134 102.545 135.34 102.545 129.422V12.0822C102.545 6.16453 107.339 1.37012 113.257 1.37012H311.8C317.718 1.37012 322.512 6.16453 322.512 12.0822V129.394C322.485 135.312 317.691 140.134 311.773 140.134Z" fill="#AAC6FC"/>
<path d="M311.774 141.504H113.258C106.6 141.504 101.176 136.079 101.176 129.422V12.0819C101.176 5.42453 106.6 0 113.258 0H311.801C318.458 0 323.883 5.42453 323.883 12.0819V129.394C323.855 136.079 318.431 141.504 311.774 141.504ZM113.258 2.73966C108.107 2.73966 103.915 6.93135 103.915 12.0819V129.394C103.915 134.545 108.107 138.736 113.258 138.736H311.801C316.952 138.736 321.143 134.545 321.143 129.394V12.0819C321.143 6.93135 316.952 2.73966 311.801 2.73966H113.258Z" fill="#383A48"/>
<path d="M322.486 113.011H102.518C101.751 113.011 101.148 113.613 101.148 114.381V129.202C101.148 135.969 106.655 141.476 113.422 141.476H311.582C318.349 141.476 323.855 135.969 323.855 129.202V114.381C323.855 113.641 323.253 113.011 322.486 113.011Z" fill="#383A48"/>
<path d="M259.226 192.105H40.6289V194.845H259.226V192.105Z" fill="#383A48"/>
<path d="M322.486 32.4375H199.092V114.381H322.486V32.4375Z" fill="#F3F6E6"/>
<path d="M322.485 115.75H199.091C198.323 115.75 197.721 115.148 197.721 114.381V32.4372C197.721 31.6701 198.323 31.0674 199.091 31.0674H322.485C323.252 31.0674 323.855 31.6701 323.855 32.4372V114.381C323.855 115.148 323.252 115.75 322.485 115.75ZM200.46 113.011H321.115V33.807H200.46V113.011Z" fill="#383A48"/>
<path d="M322.486 32.4375H199.092V56.4917H322.486V32.4375Z" fill="#F6E049"/>
<path d="M322.485 57.8613H199.091C198.323 57.8613 197.721 57.2586 197.721 56.4914V32.4372C197.721 31.6701 198.323 31.0674 199.091 31.0674H322.485C323.252 31.0674 323.855 31.6701 323.855 32.4372V56.4914C323.855 57.2586 323.252 57.8613 322.485 57.8613ZM200.46 55.1216H321.115V33.807H200.46V55.1216Z" fill="#383A48"/>
<path d="M301.856 73.2305H219.721V92.956H301.856V73.2305Z" fill="#F3F6E6"/>
<path d="M301.855 94.3266H219.719C218.952 94.3266 218.35 93.7238 218.35 92.9567V73.2312C218.35 72.4641 218.952 71.8613 219.719 71.8613H301.855C302.622 71.8613 303.224 72.4641 303.224 73.2312V92.9567C303.224 93.7238 302.622 94.3266 301.855 94.3266ZM221.089 91.5869H300.485V74.601H221.089V91.5869Z" fill="#383A48"/>
<path d="M60.4096 101.587L199.091 32.4375L146.271 178.133L124.216 141.503L78.5462 192.845L55.6152 172.407L101.094 121.257L60.4096 101.587Z" fill="#F3F6E6"/>
<path d="M78.5461 194.215C78.2173 194.215 77.8886 194.105 77.642 193.859L54.711 173.394C54.1357 172.901 54.1083 172.024 54.6014 171.448L98.9018 121.669L59.8342 102.793C59.3684 102.573 59.0671 102.08 59.0671 101.56C59.0671 101.039 59.3684 100.546 59.8342 100.327L198.488 31.2052C198.982 30.9586 199.584 31.0408 200.023 31.397C200.434 31.7805 200.598 32.3559 200.406 32.8764L147.558 178.599C147.366 179.092 146.928 179.448 146.407 179.503C145.887 179.558 145.366 179.311 145.092 178.846L124.024 143.805L79.5597 193.777C79.3132 194.051 78.9844 194.215 78.6283 194.242C78.6009 194.215 78.5735 194.215 78.5461 194.215ZM57.5329 172.298L78.4365 190.927L123.203 140.6C123.504 140.271 123.915 140.107 124.353 140.134C124.792 140.162 125.175 140.408 125.394 140.792L145.942 174.955L196.625 35.1777L63.5053 101.56L101.696 120.025C102.08 120.217 102.354 120.573 102.436 120.984C102.518 121.395 102.409 121.833 102.107 122.162L57.5329 172.298Z" fill="#383A48"/>
<path d="M371.909 84.0253C392.305 84.0253 408.84 67.4909 408.84 47.0947C408.84 26.6985 392.305 10.1641 371.909 10.1641C351.513 10.1641 334.979 26.6985 334.979 47.0947C334.979 67.4909 351.513 84.0253 371.909 84.0253Z" fill="#7FD6C2"/>
<path d="M371.91 85.4222C350.787 85.4222 333.609 68.2445 333.609 47.1218C333.609 25.999 350.787 8.82129 371.91 8.82129C393.033 8.82129 410.21 25.999 410.21 47.1218C410.238 68.2171 393.033 85.4222 371.91 85.4222ZM371.91 11.5336C352.294 11.5336 336.349 27.4784 336.349 47.0944C336.349 66.7103 352.294 82.6552 371.91 82.6552C391.526 82.6552 407.471 66.7103 407.471 47.0944C407.471 27.4784 391.526 11.5336 371.91 11.5336Z" fill="#383A48"/>
<path d="M371.911 46.5196C377.237 46.5196 381.555 42.2021 381.555 36.876C381.555 31.55 377.237 27.2324 371.911 27.2324C366.585 27.2324 362.268 31.55 362.268 36.876C362.268 42.2021 366.585 46.5196 371.911 46.5196Z" fill="#F3F6E6"/>
<path d="M371.912 47.8892C365.857 47.8892 360.898 42.9578 360.898 36.8757C360.898 30.8211 365.83 25.8623 371.912 25.8623C377.967 25.8623 382.925 30.7937 382.925 36.8757C382.925 42.9578 377.994 47.8892 371.912 47.8892ZM371.912 28.6294C367.364 28.6294 363.638 32.3279 363.638 36.9031C363.638 41.4784 367.337 45.1769 371.912 45.1769C376.46 45.1769 380.186 41.4784 380.186 36.9031C380.186 32.3279 376.487 28.6294 371.912 28.6294Z" fill="#383A48"/>
<path d="M387.09 65.3136H356.762V61.6972C356.762 53.3138 363.556 46.5469 371.912 46.5469C380.295 46.5469 387.062 53.3412 387.062 61.6972L387.09 65.3136Z" fill="#F3F6E6"/>
<path d="M387.089 66.6831H356.76C355.993 66.6831 355.391 66.0804 355.391 65.3133V61.6969C355.391 52.5739 362.815 45.1768 371.911 45.1768C381.006 45.1768 388.431 52.6012 388.431 61.6969V65.3133C388.458 66.053 387.828 66.6831 387.089 66.6831ZM358.13 63.9434H385.719V61.6969C385.719 54.0807 379.527 47.9164 371.938 47.9164C364.322 47.9164 358.158 54.1081 358.158 61.6969L358.13 63.9434Z" fill="#383A48"/>
<path d="M51.0656 101.504C68.1633 101.504 82.0238 87.6438 82.0238 70.5461C82.0238 53.4483 68.1633 39.5879 51.0656 39.5879C33.9679 39.5879 20.1074 53.4483 20.1074 70.5461C20.1074 87.6438 33.9679 101.504 51.0656 101.504Z" fill="#AAC6FC"/>
<path d="M51.0663 102.847C33.2585 102.847 18.7383 88.3546 18.7383 70.5194C18.7383 52.6842 33.2311 38.1914 51.0663 38.1914C68.9015 38.1914 83.3943 52.6842 83.3943 70.5194C83.3943 88.3546 68.8741 102.847 51.0663 102.847ZM51.0663 40.9585C34.7653 40.9585 21.4779 54.2184 21.4779 70.5468C21.4779 86.8478 34.7379 100.135 51.0663 100.135C67.3673 100.135 80.6546 86.8752 80.6546 70.5468C80.6272 54.2184 67.3673 40.9585 51.0663 40.9585Z" fill="#383A48"/>
<path d="M51.0683 70.0262C55.5167 70.0262 59.1229 66.42 59.1229 61.9716C59.1229 57.5232 55.5167 53.917 51.0683 53.917C46.6198 53.917 43.0137 57.5232 43.0137 61.9716C43.0137 66.42 46.6198 70.0262 51.0683 70.0262Z" fill="#F3F6E6"/>
<path d="M51.067 71.3957C45.8617 71.3957 41.6426 67.1493 41.6426 61.9713C41.6426 56.7933 45.8891 52.5469 51.067 52.5469C56.245 52.5469 60.4914 56.7933 60.4914 61.9713C60.4914 67.1493 56.2724 71.3957 51.067 71.3957ZM51.067 55.2591C47.3685 55.2591 44.3822 58.2728 44.3822 61.9439C44.3822 65.6151 47.3959 68.6287 51.067 68.6287C54.7382 68.6287 57.7518 65.6151 57.7518 61.9439C57.7518 58.2728 54.7382 55.2591 51.067 55.2591Z" fill="#383A48"/>
<path d="M63.7521 85.7794H38.3555V82.7384C38.3555 75.7249 44.054 70.0264 51.0675 70.0264C58.081 70.0264 63.7795 75.7249 63.7795 82.7384L63.7521 85.7794Z" fill="#F3F6E6"/>
<path d="M63.7509 87.149H38.3542C37.5871 87.149 36.9844 86.5462 36.9844 85.7791V82.7381C36.9844 74.9849 43.2856 68.6562 51.0662 68.6562C58.8195 68.6562 65.1481 74.9575 65.1481 82.7381V85.7791C65.1207 86.5462 64.518 87.149 63.7509 87.149ZM39.724 84.4093H62.381V82.7381C62.381 76.4917 57.2853 71.3959 51.0388 71.3959C44.7924 71.3959 39.6966 76.4917 39.6966 82.7381L39.724 84.4093Z" fill="#383A48"/>
<path d="M396.264 193.474C409.353 193.474 419.963 182.864 419.963 169.776C419.963 156.688 409.353 146.078 396.264 146.078C383.176 146.078 372.566 156.688 372.566 169.776C372.566 182.864 383.176 193.474 396.264 193.474Z" fill="#F6E049"/>
<path d="M396.263 194.845C382.428 194.845 371.195 183.585 371.195 169.777C371.195 155.969 382.455 144.709 396.263 144.709C410.071 144.709 421.331 155.969 421.331 169.777C421.331 183.585 410.098 194.845 396.263 194.845ZM396.263 147.421C383.935 147.421 373.935 157.448 373.935 169.749C373.935 182.051 383.962 192.078 396.263 192.078C408.592 192.078 418.591 182.051 418.591 169.749C418.591 157.448 408.592 147.421 396.263 147.421Z" fill="#383A48"/>
<path d="M396.264 169.393C399.683 169.393 402.456 166.621 402.456 163.201C402.456 159.782 399.683 157.01 396.264 157.01C392.844 157.01 390.072 159.782 390.072 163.201C390.072 166.621 392.844 169.393 396.264 169.393Z" fill="#F3F6E6"/>
<path d="M396.265 170.763C392.1 170.763 388.703 167.365 388.703 163.201C388.703 159.037 392.1 155.64 396.265 155.64C400.429 155.64 403.826 159.037 403.826 163.201C403.826 167.365 400.429 170.763 396.265 170.763ZM396.265 158.407C393.607 158.407 391.443 160.571 391.443 163.229C391.443 165.886 393.607 168.05 396.265 168.05C398.922 168.05 401.086 165.886 401.086 163.229C401.086 160.544 398.922 158.407 396.265 158.407Z" fill="#383A48"/>
<path d="M406.02 181.447H386.568V179.118C386.568 173.749 390.924 169.393 396.294 169.393C401.664 169.393 406.02 173.749 406.02 179.118V181.447Z" fill="#F3F6E6"/>
<path d="M406.019 182.817H386.567C385.8 182.817 385.197 182.214 385.197 181.447V179.118C385.197 173.009 390.183 168.022 396.293 168.022C402.402 168.022 407.389 173.009 407.389 179.118V181.447C407.389 182.214 406.758 182.817 406.019 182.817ZM387.91 180.077H404.622V179.118C404.622 174.515 400.868 170.762 396.266 170.762C391.663 170.762 387.91 174.515 387.91 179.118V180.077Z" fill="#383A48"/>
<path d="M371.91 115.751H322.486V113.011H370.54V84.0527H373.28V114.408C373.28 115.148 372.677 115.751 371.91 115.751Z" fill="#383A48"/>
<path d="M397.634 146.051H394.894V115.75H371.908V113.011H396.264C397.031 113.011 397.634 113.613 397.634 114.381V146.051Z" fill="#383A48"/>
<path d="M371.908 117.477C373.618 117.477 375.004 116.091 375.004 114.381C375.004 112.671 373.618 111.285 371.908 111.285C370.199 111.285 368.812 112.671 368.812 114.381C368.812 116.091 370.199 117.477 371.908 117.477Z" fill="#383A48"/>
<path d="M371.909 118.846C369.443 118.846 367.443 116.846 367.443 114.381C367.443 111.915 369.443 109.915 371.909 109.915C374.375 109.915 376.375 111.915 376.375 114.381C376.375 116.846 374.375 118.846 371.909 118.846ZM371.909 112.655C370.95 112.655 370.183 113.422 370.183 114.381C370.183 115.34 370.95 116.107 371.909 116.107C372.868 116.107 373.635 115.34 373.635 114.381C373.635 113.422 372.868 112.655 371.909 112.655Z" fill="#383A48"/>
<path d="M396.266 117.477C397.975 117.477 399.361 116.091 399.361 114.381C399.361 112.671 397.975 111.285 396.266 111.285C394.556 111.285 393.17 112.671 393.17 114.381C393.17 116.091 394.556 117.477 396.266 117.477Z" fill="#383A48"/>
<path d="M396.264 118.846C393.799 118.846 391.799 116.846 391.799 114.381C391.799 111.915 393.799 109.915 396.264 109.915C398.73 109.915 400.73 111.915 400.73 114.381C400.73 116.846 398.73 118.846 396.264 118.846ZM396.264 112.655C395.306 112.655 394.538 113.422 394.538 114.381C394.538 115.34 395.306 116.107 396.264 116.107C397.223 116.107 397.99 115.34 397.99 114.381C397.99 113.422 397.223 112.655 396.264 112.655Z" fill="#383A48"/>
<path d="M51.0685 23.7805C52.7782 23.7805 54.1643 22.3945 54.1643 20.6847C54.1643 18.9749 52.7782 17.5889 51.0685 17.5889C49.3587 17.5889 47.9727 18.9749 47.9727 20.6847C47.9727 22.3945 49.3587 23.7805 51.0685 23.7805Z" fill="#383A48"/>
<path d="M51.0672 25.1501C48.6015 25.1501 46.6016 23.1501 46.6016 20.6844C46.6016 18.2187 48.6015 16.2188 51.0672 16.2188C53.5329 16.2188 55.5329 18.2187 55.5329 20.6844C55.5055 23.1227 53.5055 25.1501 51.0672 25.1501ZM51.0672 18.9584C50.1083 18.9584 49.3412 19.7255 49.3412 20.6844C49.3412 21.6433 50.1083 22.4104 51.0672 22.4104C52.0261 22.4104 52.7932 21.6433 52.7932 20.6844C52.7932 19.7255 51.9987 18.9584 51.0672 18.9584Z" fill="#383A48"/>
<path d="M52.4369 39.5879H49.6973V20.6843C49.6973 19.9172 50.3 19.3145 51.0671 19.3145H102.545V22.0541H52.4369V39.5879Z" fill="#383A48"/>
<path d="M23.2046 154.79L21.4512 152.681C29.9715 145.64 35.0673 139.695 36.7385 134.955C34.9029 134.298 33.2591 133.257 31.9715 131.887C30.3551 130.161 29.8071 128.188 30.4373 126.49C30.9578 125.092 32.218 124.106 33.7249 123.914C35.5056 123.722 37.3138 124.681 38.5193 126.517C39.7795 128.462 40.3 130.572 40.0261 132.928C40.437 132.983 40.848 133.01 41.2589 133.01C45.5876 133.092 52.7929 131.12 62.6283 121.284L64.5734 123.229C54.0531 133.75 46.0807 135.832 41.2041 135.75C40.6014 135.75 39.9987 135.695 39.396 135.613C37.6426 140.955 32.2454 147.311 23.2046 154.79ZM34.2454 126.599C34.1906 126.599 34.1358 126.599 34.081 126.599C33.5879 126.654 33.2043 126.955 33.0399 127.394C32.766 128.106 33.1221 129.065 33.9988 129.996C34.9029 130.955 36.0262 131.722 37.3412 132.215C37.4508 130.654 37.0946 129.229 36.2727 127.996C35.67 127.092 34.9577 126.599 34.2454 126.599Z" fill="#383A48"/>
<path d="M338.076 166.38H335.336V175.421H338.076V166.38Z" fill="#383A48"/>
<path d="M341.226 169.53H332.186V172.27H341.226V169.53Z" fill="#383A48"/>
<path d="M5.89005 16.1641H3.15039V25.2049H5.89005V16.1641Z" fill="#383A48"/>
<path d="M9.04088 19.3145H0V22.0541H9.04088V19.3145Z" fill="#383A48"/>
<path d="M122.601 170.9H119.861V179.941H122.601V170.9Z" fill="#383A48"/>
<path d="M125.779 174.051H116.738V176.79H125.779V174.051Z" fill="#383A48"/>
<path d="M170.878 18.1692L169.137 20.2842L176.962 26.7281L178.704 24.6131L170.878 18.1692Z" fill="#F3F6E6"/>
<path d="M210.725 10.2165L205.619 18.9736L207.986 20.3536L213.092 11.5965L210.725 10.2165Z" fill="#F3F6E6"/>
<path d="M191.41 9.85934L188.713 10.3418L190.353 19.5113L193.05 19.0289L191.41 9.85934Z" fill="#F3F6E6"/>
</svg>
