<svg width="373" height="205" viewBox="0 0 373 205" fill="none" xmlns="http://www.w3.org/2000/svg">
<path d="M52.9108 31.4984L51.0215 33.3877L57.2562 39.6224L59.1455 37.7331L52.9108 31.4984Z" fill="#383A48"/>
<path d="M57.2933 31.488L51.0586 37.7227L52.9479 39.612L59.1826 33.3773L57.2933 31.488Z" fill="#383A48"/>
<path d="M144.756 86.5088H1.7832V202.763H144.756V86.5088Z" fill="#F3F6E6"/>
<path d="M144.756 204.099H1.78321C1.03508 204.099 0.447266 203.511 0.447266 202.763V86.5088C0.447266 85.7607 1.03508 85.1729 1.78321 85.1729H144.756C145.504 85.1729 146.092 85.7607 146.092 86.5088V202.763C146.092 203.511 145.504 204.099 144.756 204.099ZM3.11916 201.427H143.42V87.8447H3.11916V201.427Z" fill="#383A48"/>
<path d="M19.7116 121.377H1.78321C1.03508 121.377 0.447266 120.789 0.447266 120.041V86.5088C0.447266 85.7607 1.03508 85.1729 1.78321 85.1729H19.7116C20.4598 85.1729 21.0476 85.7607 21.0476 86.5088V120.041C21.0476 120.789 20.4598 121.377 19.7116 121.377ZM3.11916 118.705H18.3757V87.8447H3.11916V118.705Z" fill="#383A48"/>
<path d="M14.0449 94.7393C14.7828 94.7393 15.3809 94.1411 15.3809 93.4033C15.3809 92.6655 14.7828 92.0674 14.0449 92.0674C13.3071 92.0674 12.709 92.6655 12.709 93.4033C12.709 94.1411 13.3071 94.7393 14.0449 94.7393Z" fill="#383A48"/>
<path d="M14.0449 101.312C14.7828 101.312 15.3809 100.713 15.3809 99.9756C15.3809 99.2378 14.7828 98.6396 14.0449 98.6396C13.3071 98.6396 12.709 99.2378 12.709 99.9756C12.709 100.713 13.3071 101.312 14.0449 101.312Z" fill="#383A48"/>
<path d="M14.0449 107.91C14.7828 107.91 15.3809 107.312 15.3809 106.574C15.3809 105.836 14.7828 105.238 14.0449 105.238C13.3071 105.238 12.709 105.836 12.709 106.574C12.709 107.312 13.3071 107.91 14.0449 107.91Z" fill="#383A48"/>
<path d="M14.0449 114.51C14.7828 114.51 15.3809 113.912 15.3809 113.174C15.3809 112.436 14.7828 111.838 14.0449 111.838C13.3071 111.838 12.709 112.436 12.709 113.174C12.709 113.912 13.3071 114.51 14.0449 114.51Z" fill="#383A48"/>
<path d="M14.0449 126.267C14.7828 126.267 15.3809 125.669 15.3809 124.931C15.3809 124.193 14.7828 123.595 14.0449 123.595C13.3071 123.595 12.709 124.193 12.709 124.931C12.709 125.669 13.3071 126.267 14.0449 126.267Z" fill="#383A48"/>
<path d="M14.0449 132.84C14.7828 132.84 15.3809 132.242 15.3809 131.504C15.3809 130.766 14.7828 130.168 14.0449 130.168C13.3071 130.168 12.709 130.766 12.709 131.504C12.709 132.242 13.3071 132.84 14.0449 132.84Z" fill="#383A48"/>
<path d="M14.0449 139.439C14.7828 139.439 15.3809 138.841 15.3809 138.104C15.3809 137.366 14.7828 136.768 14.0449 136.768C13.3071 136.768 12.709 137.366 12.709 138.104C12.709 138.841 13.3071 139.439 14.0449 139.439Z" fill="#383A48"/>
<path d="M14.0449 146.038C14.7828 146.038 15.3809 145.44 15.3809 144.702C15.3809 143.964 14.7828 143.366 14.0449 143.366C13.3071 143.366 12.709 143.964 12.709 144.702C12.709 145.44 13.3071 146.038 14.0449 146.038Z" fill="#383A48"/>
<path d="M14.0449 152.612C14.7828 152.612 15.3809 152.014 15.3809 151.276C15.3809 150.539 14.7828 149.94 14.0449 149.94C13.3071 149.94 12.709 150.539 12.709 151.276C12.709 152.014 13.3071 152.612 14.0449 152.612Z" fill="#383A48"/>
<path d="M14.0449 159.211C14.7828 159.211 15.3809 158.613 15.3809 157.875C15.3809 157.137 14.7828 156.539 14.0449 156.539C13.3071 156.539 12.709 157.137 12.709 157.875C12.709 158.613 13.3071 159.211 14.0449 159.211Z" fill="#383A48"/>
<path d="M14.0449 165.811C14.7828 165.811 15.3809 165.212 15.3809 164.475C15.3809 163.737 14.7828 163.139 14.0449 163.139C13.3071 163.139 12.709 163.737 12.709 164.475C12.709 165.212 13.3071 165.811 14.0449 165.811Z" fill="#383A48"/>
<path d="M14.0449 172.384C14.7828 172.384 15.3809 171.786 15.3809 171.048C15.3809 170.31 14.7828 169.712 14.0449 169.712C13.3071 169.712 12.709 170.31 12.709 171.048C12.709 171.786 13.3071 172.384 14.0449 172.384Z" fill="#383A48"/>
<path d="M14.0449 178.983C14.7828 178.983 15.3809 178.385 15.3809 177.647C15.3809 176.91 14.7828 176.312 14.0449 176.312C13.3071 176.312 12.709 176.91 12.709 177.647C12.709 178.385 13.3071 178.983 14.0449 178.983Z" fill="#383A48"/>
<path d="M14.0449 185.583C14.7828 185.583 15.3809 184.985 15.3809 184.247C15.3809 183.509 14.7828 182.911 14.0449 182.911C13.3071 182.911 12.709 183.509 12.709 184.247C12.709 184.985 13.3071 185.583 14.0449 185.583Z" fill="#383A48"/>
<path d="M14.0449 192.156C14.7828 192.156 15.3809 191.558 15.3809 190.82C15.3809 190.083 14.7828 189.484 14.0449 189.484C13.3071 189.484 12.709 190.083 12.709 190.82C12.709 191.558 13.3071 192.156 14.0449 192.156Z" fill="#383A48"/>
<path d="M14.0449 198.755C14.7828 198.755 15.3809 198.157 15.3809 197.419C15.3809 196.681 14.7828 196.083 14.0449 196.083C13.3071 196.083 12.709 196.681 12.709 197.419C12.709 198.157 13.3071 198.755 14.0449 198.755Z" fill="#383A48"/>
<path d="M7.47071 94.7393C8.20854 94.7393 8.80666 94.1411 8.80666 93.4033C8.80666 92.6655 8.20854 92.0674 7.47071 92.0674C6.73289 92.0674 6.13477 92.6655 6.13477 93.4033C6.13477 94.1411 6.73289 94.7393 7.47071 94.7393Z" fill="#383A48"/>
<path d="M7.47071 101.311C8.20854 101.311 8.80666 100.712 8.80666 99.9746C8.80666 99.2368 8.20854 98.6387 7.47071 98.6387C6.73289 98.6387 6.13477 99.2368 6.13477 99.9746C6.13477 100.712 6.73289 101.311 7.47071 101.311Z" fill="#383A48"/>
<path d="M7.47071 107.91C8.20854 107.91 8.80666 107.312 8.80666 106.574C8.80666 105.836 8.20854 105.238 7.47071 105.238C6.73289 105.238 6.13477 105.836 6.13477 106.574C6.13477 107.312 6.73289 107.91 7.47071 107.91Z" fill="#383A48"/>
<path d="M7.47071 114.509C8.20854 114.509 8.80666 113.911 8.80666 113.173C8.80666 112.435 8.20854 111.837 7.47071 111.837C6.73289 111.837 6.13477 112.435 6.13477 113.173C6.13477 113.911 6.73289 114.509 7.47071 114.509Z" fill="#383A48"/>
<path d="M7.47071 126.266C8.20854 126.266 8.80666 125.668 8.80666 124.93C8.80666 124.192 8.20854 123.594 7.47071 123.594C6.73289 123.594 6.13477 124.192 6.13477 124.93C6.13477 125.668 6.73289 126.266 7.47071 126.266Z" fill="#383A48"/>
<path d="M7.47071 132.84C8.20854 132.84 8.80666 132.242 8.80666 131.504C8.80666 130.766 8.20854 130.168 7.47071 130.168C6.73289 130.168 6.13477 130.766 6.13477 131.504C6.13477 132.242 6.73289 132.84 7.47071 132.84Z" fill="#383A48"/>
<path d="M7.47071 139.438C8.20854 139.438 8.80666 138.84 8.80666 138.103C8.80666 137.365 8.20854 136.767 7.47071 136.767C6.73289 136.767 6.13477 137.365 6.13477 138.103C6.13477 138.84 6.73289 139.438 7.47071 139.438Z" fill="#383A48"/>
<path d="M7.47071 146.038C8.20854 146.038 8.80666 145.44 8.80666 144.702C8.80666 143.964 8.20854 143.366 7.47071 143.366C6.73289 143.366 6.13477 143.964 6.13477 144.702C6.13477 145.44 6.73289 146.038 7.47071 146.038Z" fill="#383A48"/>
<path d="M7.47071 152.611C8.20854 152.611 8.80666 152.013 8.80666 151.275C8.80666 150.538 8.20854 149.939 7.47071 149.939C6.73289 149.939 6.13477 150.538 6.13477 151.275C6.13477 152.013 6.73289 152.611 7.47071 152.611Z" fill="#383A48"/>
<path d="M7.47071 159.211C8.20854 159.211 8.80666 158.613 8.80666 157.875C8.80666 157.137 8.20854 156.539 7.47071 156.539C6.73289 156.539 6.13477 157.137 6.13477 157.875C6.13477 158.613 6.73289 159.211 7.47071 159.211Z" fill="#383A48"/>
<path d="M7.47071 165.81C8.20854 165.81 8.80666 165.211 8.80666 164.474C8.80666 163.736 8.20854 163.138 7.47071 163.138C6.73289 163.138 6.13477 163.736 6.13477 164.474C6.13477 165.211 6.73289 165.81 7.47071 165.81Z" fill="#383A48"/>
<path d="M7.47071 172.384C8.20854 172.384 8.80666 171.786 8.80666 171.048C8.80666 170.31 8.20854 169.712 7.47071 169.712C6.73289 169.712 6.13477 170.31 6.13477 171.048C6.13477 171.786 6.73289 172.384 7.47071 172.384Z" fill="#383A48"/>
<path d="M7.47071 178.982C8.20854 178.982 8.80666 178.384 8.80666 177.646C8.80666 176.909 8.20854 176.311 7.47071 176.311C6.73289 176.311 6.13477 176.909 6.13477 177.646C6.13477 178.384 6.73289 178.982 7.47071 178.982Z" fill="#383A48"/>
<path d="M7.47071 185.583C8.20854 185.583 8.80666 184.985 8.80666 184.247C8.80666 183.509 8.20854 182.911 7.47071 182.911C6.73289 182.911 6.13477 183.509 6.13477 184.247C6.13477 184.985 6.73289 185.583 7.47071 185.583Z" fill="#383A48"/>
<path d="M7.47071 192.155C8.20854 192.155 8.80666 191.557 8.80666 190.819C8.80666 190.082 8.20854 189.483 7.47071 189.483C6.73289 189.483 6.13477 190.082 6.13477 190.819C6.13477 191.557 6.73289 192.155 7.47071 192.155Z" fill="#383A48"/>
<path d="M7.47071 198.755C8.20854 198.755 8.80666 198.157 8.80666 197.419C8.80666 196.681 8.20854 196.083 7.47071 196.083C6.73289 196.083 6.13477 196.681 6.13477 197.419C6.13477 198.157 6.73289 198.755 7.47071 198.755Z" fill="#383A48"/>
<path d="M162.684 86.5078H19.7109V202.762H162.684V86.5078Z" fill="#F3F6E6"/>
<path d="M162.682 204.099H19.709C18.9609 204.099 18.373 203.511 18.373 202.763V86.5088C18.373 85.7607 18.9609 85.1729 19.709 85.1729H162.682C163.43 85.1729 164.018 85.7607 164.018 86.5088V202.763C164.018 203.511 163.43 204.099 162.682 204.099ZM21.0449 201.427H161.346V87.8447H21.0449V201.427Z" fill="#383A48"/>
<path d="M162.735 121.377H19.709C18.9609 121.377 18.373 120.789 18.373 120.041V86.5088C18.373 85.7607 18.9609 85.1729 19.709 85.1729H162.709C163.457 85.1729 164.045 85.7607 164.045 86.5088V120.041C164.071 120.789 163.457 121.377 162.735 121.377ZM21.0449 118.705H161.373V87.8447H21.0449V118.705Z" fill="#383A48"/>
<path d="M141.885 99.2318L139.996 101.121L146.231 107.356L148.12 105.466L141.885 99.2318Z" fill="#383A48"/>
<path d="M146.26 99.2253L140.025 105.46L141.915 107.349L148.149 101.115L146.26 99.2253Z" fill="#383A48"/>
<path d="M135.673 108.016H126.188V98.5312H135.673V108.016ZM128.859 105.345H133.001V101.203H128.859V105.345Z" fill="#383A48"/>
<path d="M120.815 105.345H114.002V108.017H120.815V105.345Z" fill="#383A48"/>
<path d="M111.464 182.457H67.0568C63.3161 182.457 60.2969 179.411 60.2969 175.697V142.565C60.2969 138.531 63.5833 135.244 67.6179 135.244H82.7675C85.1722 135.244 87.4166 136.42 88.7793 138.37L91.9588 142.912C92.8405 144.168 94.2566 144.89 95.7796 144.89H111.49C115.231 144.89 118.25 147.936 118.25 151.65V175.67C118.224 179.411 115.204 182.457 111.464 182.457ZM67.6179 137.889C65.0528 137.889 62.9688 139.973 62.9688 142.538V175.67C62.9688 177.941 64.8124 179.758 67.0568 179.758H111.464C113.735 179.758 115.552 177.914 115.552 175.67V151.65C115.552 149.378 113.708 147.562 111.464 147.562H95.7529C93.3482 147.562 91.1038 146.386 89.7412 144.435L86.5616 139.893C85.6799 138.637 84.2638 137.916 82.7408 137.916L67.6179 137.889Z" fill="#383A48"/>
<path d="M192.702 9.91441L190.812 11.8037L197.047 18.0384L198.936 16.1491L192.702 9.91441Z" fill="#383A48"/>
<path d="M197.084 9.90594L190.85 16.1406L192.739 18.0299L198.974 11.7952L197.084 9.90594Z" fill="#383A48"/>
<path d="M343.868 42.8772C342.318 20.1661 323.401 2.21094 300.289 2.21094C285.513 2.21094 272.475 9.53193 264.566 20.7806C258.982 16.2117 251.821 13.4596 244.019 13.4596C227.133 13.4596 213.265 26.3649 211.716 42.8237H211.128C195.177 42.8237 182.271 55.7557 182.271 71.6802C182.271 87.6314 195.203 100.537 211.128 100.537H341.784C357.735 100.537 370.64 87.6047 370.64 71.6802C370.667 56.4237 358.857 43.9459 343.868 42.8772Z" fill="#F3F6E6"/>
<path d="M341.809 101.872H211.153C194.507 101.872 180.961 88.3257 180.961 71.6798C180.961 55.221 194.187 41.8081 210.539 41.4874C211.554 33.6054 215.321 26.3645 221.226 20.9673C227.452 15.2494 235.574 12.1233 244.018 12.1233C251.312 12.1233 258.473 14.5013 264.297 18.8832C272.794 7.5811 286.127 0.901367 300.288 0.901367C311.777 0.901367 322.705 5.22983 331.068 13.0852C339.11 20.6467 344.08 30.7464 345.095 41.6745C352.256 42.4493 358.882 45.7625 363.852 51.0528C369.089 56.6638 372.001 63.9848 372.001 71.6798C372.001 88.3257 358.455 101.872 341.809 101.872ZM211.153 44.1326C195.977 44.1326 183.633 56.4768 183.633 71.6531C183.633 86.8295 195.977 99.1736 211.153 99.1736H341.809C356.985 99.1736 369.329 86.8295 369.329 71.6531C369.329 64.6528 366.684 57.973 361.902 52.843C357.146 47.7397 350.706 44.667 343.759 44.186C343.091 44.1326 342.557 43.5982 342.53 42.957C341.809 32.2694 337.08 22.33 329.251 14.9822C321.369 7.60782 311.082 3.51982 300.288 3.51982C286.527 3.51982 273.596 10.253 265.66 21.5017C265.446 21.7956 265.126 22.0093 264.752 22.0628C264.377 22.1162 264.003 22.0093 263.736 21.7689C258.205 17.2266 251.205 14.7418 244.044 14.7418C236.242 14.7418 228.788 17.6274 223.043 22.8911C217.325 28.128 213.799 35.2085 213.077 42.9035C213.024 43.5982 212.436 44.1059 211.741 44.1059H211.153V44.1326Z" fill="#383A48"/>
<path d="M365.537 74.1651C366.378 74.1651 367.06 73.4832 367.06 72.6421C367.06 71.801 366.378 71.1191 365.537 71.1191C364.696 71.1191 364.014 71.801 364.014 72.6421C364.014 73.4832 364.696 74.1651 365.537 74.1651Z" fill="#383A48"/>
<path d="M365.537 81.6192C366.378 81.6192 367.06 80.9373 367.06 80.0962C367.06 79.2551 366.378 78.5732 365.537 78.5732C364.696 78.5732 364.014 79.2551 364.014 80.0962C364.014 80.9373 364.696 81.6192 365.537 81.6192Z" fill="#383A48"/>
<path d="M358.082 81.6192C358.923 81.6192 359.605 80.9373 359.605 80.0962C359.605 79.2551 358.923 78.5732 358.082 78.5732C357.24 78.5732 356.559 79.2551 356.559 80.0962C356.559 80.9373 357.24 81.6192 358.082 81.6192Z" fill="#383A48"/>
<path d="M358.082 89.0743C358.923 89.0743 359.605 88.3924 359.605 87.5513C359.605 86.7102 358.923 86.0283 358.082 86.0283C357.24 86.0283 356.559 86.7102 356.559 87.5513C356.559 88.3924 357.24 89.0743 358.082 89.0743Z" fill="#383A48"/>
<path d="M350.628 81.6192C351.47 81.6192 352.151 80.9373 352.151 80.0962C352.151 79.2551 351.47 78.5732 350.628 78.5732C349.787 78.5732 349.105 79.2551 349.105 80.0962C349.105 80.9373 349.787 81.6192 350.628 81.6192Z" fill="#383A48"/>
<path d="M350.628 89.0743C351.47 89.0743 352.151 88.3924 352.151 87.5513C352.151 86.7102 351.47 86.0283 350.628 86.0283C349.787 86.0283 349.105 86.7102 349.105 87.5513C349.105 88.3924 349.787 89.0743 350.628 89.0743Z" fill="#383A48"/>
<path d="M350.628 96.5274C351.47 96.5274 352.151 95.8455 352.151 95.0044C352.151 94.1633 351.47 93.4814 350.628 93.4814C349.787 93.4814 349.105 94.1633 349.105 95.0044C349.105 95.8455 349.787 96.5274 350.628 96.5274Z" fill="#383A48"/>
<path d="M343.171 81.6192C344.013 81.6192 344.694 80.9373 344.694 80.0962C344.694 79.2551 344.013 78.5732 343.171 78.5732C342.33 78.5732 341.648 79.2551 341.648 80.0962C341.648 80.9373 342.33 81.6192 343.171 81.6192Z" fill="#383A48"/>
<path d="M343.171 89.0743C344.013 89.0743 344.694 88.3924 344.694 87.5513C344.694 86.7102 344.013 86.0283 343.171 86.0283C342.33 86.0283 341.648 86.7102 341.648 87.5513C341.648 88.3924 342.33 89.0743 343.171 89.0743Z" fill="#383A48"/>
<path d="M343.171 96.5274C344.013 96.5274 344.694 95.8455 344.694 95.0044C344.694 94.1633 344.013 93.4814 343.171 93.4814C342.33 93.4814 341.648 94.1633 341.648 95.0044C341.648 95.8455 342.33 96.5274 343.171 96.5274Z" fill="#383A48"/>
<path d="M335.716 81.6192C336.557 81.6192 337.239 80.9373 337.239 80.0962C337.239 79.2551 336.557 78.5732 335.716 78.5732C334.875 78.5732 334.193 79.2551 334.193 80.0962C334.193 80.9373 334.875 81.6192 335.716 81.6192Z" fill="#383A48"/>
<path d="M335.716 89.0743C336.557 89.0743 337.239 88.3924 337.239 87.5513C337.239 86.7102 336.557 86.0283 335.716 86.0283C334.875 86.0283 334.193 86.7102 334.193 87.5513C334.193 88.3924 334.875 89.0743 335.716 89.0743Z" fill="#383A48"/>
<path d="M335.716 96.5274C336.557 96.5274 337.239 95.8455 337.239 95.0044C337.239 94.1633 336.557 93.4814 335.716 93.4814C334.875 93.4814 334.193 94.1633 334.193 95.0044C334.193 95.8455 334.875 96.5274 335.716 96.5274Z" fill="#383A48"/>
<path d="M328.261 81.6192C329.102 81.6192 329.784 80.9373 329.784 80.0962C329.784 79.2551 329.102 78.5732 328.261 78.5732C327.42 78.5732 326.738 79.2551 326.738 80.0962C326.738 80.9373 327.42 81.6192 328.261 81.6192Z" fill="#383A48"/>
<path d="M328.261 89.0743C329.102 89.0743 329.784 88.3924 329.784 87.5513C329.784 86.7102 329.102 86.0283 328.261 86.0283C327.42 86.0283 326.738 86.7102 326.738 87.5513C326.738 88.3924 327.42 89.0743 328.261 89.0743Z" fill="#383A48"/>
<path d="M328.261 96.5274C329.102 96.5274 329.784 95.8455 329.784 95.0044C329.784 94.1633 329.102 93.4814 328.261 93.4814C327.42 93.4814 326.738 94.1633 326.738 95.0044C326.738 95.8455 327.42 96.5274 328.261 96.5274Z" fill="#383A48"/>
<path d="M320.808 81.6192C321.649 81.6192 322.331 80.9373 322.331 80.0962C322.331 79.2551 321.649 78.5732 320.808 78.5732C319.967 78.5732 319.285 79.2551 319.285 80.0962C319.285 80.9373 319.967 81.6192 320.808 81.6192Z" fill="#383A48"/>
<path d="M320.808 89.0743C321.649 89.0743 322.331 88.3924 322.331 87.5513C322.331 86.7102 321.649 86.0283 320.808 86.0283C319.967 86.0283 319.285 86.7102 319.285 87.5513C319.285 88.3924 319.967 89.0743 320.808 89.0743Z" fill="#383A48"/>
<path d="M320.808 96.5274C321.649 96.5274 322.331 95.8455 322.331 95.0044C322.331 94.1633 321.649 93.4814 320.808 93.4814C319.967 93.4814 319.285 94.1633 319.285 95.0044C319.285 95.8455 319.967 96.5274 320.808 96.5274Z" fill="#383A48"/>
<path d="M313.353 81.6192C314.194 81.6192 314.876 80.9373 314.876 80.0962C314.876 79.2551 314.194 78.5732 313.353 78.5732C312.512 78.5732 311.83 79.2551 311.83 80.0962C311.83 80.9373 312.512 81.6192 313.353 81.6192Z" fill="#383A48"/>
<path d="M313.353 89.0743C314.194 89.0743 314.876 88.3924 314.876 87.5513C314.876 86.7102 314.194 86.0283 313.353 86.0283C312.512 86.0283 311.83 86.7102 311.83 87.5513C311.83 88.3924 312.512 89.0743 313.353 89.0743Z" fill="#383A48"/>
<path d="M313.353 96.5274C314.194 96.5274 314.876 95.8455 314.876 95.0044C314.876 94.1633 314.194 93.4814 313.353 93.4814C312.512 93.4814 311.83 94.1633 311.83 95.0044C311.83 95.8455 312.512 96.5274 313.353 96.5274Z" fill="#383A48"/>
<path d="M305.9 81.6192C306.741 81.6192 307.423 80.9373 307.423 80.0962C307.423 79.2551 306.741 78.5732 305.9 78.5732C305.059 78.5732 304.377 79.2551 304.377 80.0962C304.377 80.9373 305.059 81.6192 305.9 81.6192Z" fill="#383A48"/>
<path d="M305.9 89.0743C306.741 89.0743 307.423 88.3924 307.423 87.5513C307.423 86.7102 306.741 86.0283 305.9 86.0283C305.059 86.0283 304.377 86.7102 304.377 87.5513C304.377 88.3924 305.059 89.0743 305.9 89.0743Z" fill="#383A48"/>
<path d="M305.9 96.5274C306.741 96.5274 307.423 95.8455 307.423 95.0044C307.423 94.1633 306.741 93.4814 305.9 93.4814C305.059 93.4814 304.377 94.1633 304.377 95.0044C304.377 95.8455 305.059 96.5274 305.9 96.5274Z" fill="#383A48"/>
<path d="M298.443 81.6192C299.284 81.6192 299.966 80.9373 299.966 80.0962C299.966 79.2551 299.284 78.5732 298.443 78.5732C297.602 78.5732 296.92 79.2551 296.92 80.0962C296.92 80.9373 297.602 81.6192 298.443 81.6192Z" fill="#383A48"/>
<path d="M298.443 89.0743C299.284 89.0743 299.966 88.3924 299.966 87.5513C299.966 86.7102 299.284 86.0283 298.443 86.0283C297.602 86.0283 296.92 86.7102 296.92 87.5513C296.92 88.3924 297.602 89.0743 298.443 89.0743Z" fill="#383A48"/>
<path d="M298.443 96.5274C299.284 96.5274 299.966 95.8455 299.966 95.0044C299.966 94.1633 299.284 93.4814 298.443 93.4814C297.602 93.4814 296.92 94.1633 296.92 95.0044C296.92 95.8455 297.602 96.5274 298.443 96.5274Z" fill="#383A48"/>
<path d="M290.99 81.6192C291.831 81.6192 292.513 80.9373 292.513 80.0962C292.513 79.2551 291.831 78.5732 290.99 78.5732C290.149 78.5732 289.467 79.2551 289.467 80.0962C289.467 80.9373 290.149 81.6192 290.99 81.6192Z" fill="#383A48"/>
<path d="M290.99 89.0743C291.831 89.0743 292.513 88.3924 292.513 87.5513C292.513 86.7102 291.831 86.0283 290.99 86.0283C290.149 86.0283 289.467 86.7102 289.467 87.5513C289.467 88.3924 290.149 89.0743 290.99 89.0743Z" fill="#383A48"/>
<path d="M290.99 96.5274C291.831 96.5274 292.513 95.8455 292.513 95.0044C292.513 94.1633 291.831 93.4814 290.99 93.4814C290.149 93.4814 289.467 94.1633 289.467 95.0044C289.467 95.8455 290.149 96.5274 290.99 96.5274Z" fill="#383A48"/>
<path d="M283.537 81.6192C284.378 81.6192 285.06 80.9373 285.06 80.0962C285.06 79.2551 284.378 78.5732 283.537 78.5732C282.696 78.5732 282.014 79.2551 282.014 80.0962C282.014 80.9373 282.696 81.6192 283.537 81.6192Z" fill="#383A48"/>
<path d="M283.537 89.0743C284.378 89.0743 285.06 88.3924 285.06 87.5513C285.06 86.7102 284.378 86.0283 283.537 86.0283C282.696 86.0283 282.014 86.7102 282.014 87.5513C282.014 88.3924 282.696 89.0743 283.537 89.0743Z" fill="#383A48"/>
<path d="M283.537 96.5274C284.378 96.5274 285.06 95.8455 285.06 95.0044C285.06 94.1633 284.378 93.4814 283.537 93.4814C282.696 93.4814 282.014 94.1633 282.014 95.0044C282.014 95.8455 282.696 96.5274 283.537 96.5274Z" fill="#383A48"/>
<path d="M276.082 81.6192C276.923 81.6192 277.605 80.9373 277.605 80.0962C277.605 79.2551 276.923 78.5732 276.082 78.5732C275.24 78.5732 274.559 79.2551 274.559 80.0962C274.559 80.9373 275.24 81.6192 276.082 81.6192Z" fill="#383A48"/>
<path d="M276.082 89.0743C276.923 89.0743 277.605 88.3924 277.605 87.5513C277.605 86.7102 276.923 86.0283 276.082 86.0283C275.24 86.0283 274.559 86.7102 274.559 87.5513C274.559 88.3924 275.24 89.0743 276.082 89.0743Z" fill="#383A48"/>
<path d="M276.082 96.5274C276.923 96.5274 277.605 95.8455 277.605 95.0044C277.605 94.1633 276.923 93.4814 276.082 93.4814C275.24 93.4814 274.559 94.1633 274.559 95.0044C274.559 95.8455 275.24 96.5274 276.082 96.5274Z" fill="#383A48"/>
<path d="M268.625 81.6192C269.466 81.6192 270.148 80.9373 270.148 80.0962C270.148 79.2551 269.466 78.5732 268.625 78.5732C267.783 78.5732 267.102 79.2551 267.102 80.0962C267.102 80.9373 267.783 81.6192 268.625 81.6192Z" fill="#383A48"/>
<path d="M268.625 89.0743C269.466 89.0743 270.148 88.3924 270.148 87.5513C270.148 86.7102 269.466 86.0283 268.625 86.0283C267.783 86.0283 267.102 86.7102 267.102 87.5513C267.102 88.3924 267.783 89.0743 268.625 89.0743Z" fill="#383A48"/>
<path d="M268.625 96.5274C269.466 96.5274 270.148 95.8455 270.148 95.0044C270.148 94.1633 269.466 93.4814 268.625 93.4814C267.783 93.4814 267.102 94.1633 267.102 95.0044C267.102 95.8455 267.783 96.5274 268.625 96.5274Z" fill="#383A48"/>
<path d="M261.171 81.6192C262.013 81.6192 262.694 80.9373 262.694 80.0962C262.694 79.2551 262.013 78.5732 261.171 78.5732C260.33 78.5732 259.648 79.2551 259.648 80.0962C259.648 80.9373 260.33 81.6192 261.171 81.6192Z" fill="#383A48"/>
<path d="M261.171 89.0743C262.013 89.0743 262.694 88.3924 262.694 87.5513C262.694 86.7102 262.013 86.0283 261.171 86.0283C260.33 86.0283 259.648 86.7102 259.648 87.5513C259.648 88.3924 260.33 89.0743 261.171 89.0743Z" fill="#383A48"/>
<path d="M261.171 96.5274C262.013 96.5274 262.694 95.8455 262.694 95.0044C262.694 94.1633 262.013 93.4814 261.171 93.4814C260.33 93.4814 259.648 94.1633 259.648 95.0044C259.648 95.8455 260.33 96.5274 261.171 96.5274Z" fill="#383A48"/>
<path d="M253.716 81.6192C254.557 81.6192 255.239 80.9373 255.239 80.0962C255.239 79.2551 254.557 78.5732 253.716 78.5732C252.875 78.5732 252.193 79.2551 252.193 80.0962C252.193 80.9373 252.875 81.6192 253.716 81.6192Z" fill="#383A48"/>
<path d="M253.716 89.0743C254.557 89.0743 255.239 88.3924 255.239 87.5513C255.239 86.7102 254.557 86.0283 253.716 86.0283C252.875 86.0283 252.193 86.7102 252.193 87.5513C252.193 88.3924 252.875 89.0743 253.716 89.0743Z" fill="#383A48"/>
<path d="M253.716 96.5274C254.557 96.5274 255.239 95.8455 255.239 95.0044C255.239 94.1633 254.557 93.4814 253.716 93.4814C252.875 93.4814 252.193 94.1633 252.193 95.0044C252.193 95.8455 252.875 96.5274 253.716 96.5274Z" fill="#383A48"/>
<path d="M246.261 81.6192C247.102 81.6192 247.784 80.9373 247.784 80.0962C247.784 79.2551 247.102 78.5732 246.261 78.5732C245.42 78.5732 244.738 79.2551 244.738 80.0962C244.738 80.9373 245.42 81.6192 246.261 81.6192Z" fill="#383A48"/>
<path d="M246.261 89.0743C247.102 89.0743 247.784 88.3924 247.784 87.5513C247.784 86.7102 247.102 86.0283 246.261 86.0283C245.42 86.0283 244.738 86.7102 244.738 87.5513C244.738 88.3924 245.42 89.0743 246.261 89.0743Z" fill="#383A48"/>
<path d="M246.261 96.5274C247.102 96.5274 247.784 95.8455 247.784 95.0044C247.784 94.1633 247.102 93.4814 246.261 93.4814C245.42 93.4814 244.738 94.1633 244.738 95.0044C244.738 95.8455 245.42 96.5274 246.261 96.5274Z" fill="#383A48"/>
<path d="M238.808 81.6192C239.649 81.6192 240.331 80.9373 240.331 80.0962C240.331 79.2551 239.649 78.5732 238.808 78.5732C237.967 78.5732 237.285 79.2551 237.285 80.0962C237.285 80.9373 237.967 81.6192 238.808 81.6192Z" fill="#383A48"/>
<path d="M238.808 89.0743C239.649 89.0743 240.331 88.3924 240.331 87.5513C240.331 86.7102 239.649 86.0283 238.808 86.0283C237.967 86.0283 237.285 86.7102 237.285 87.5513C237.285 88.3924 237.967 89.0743 238.808 89.0743Z" fill="#383A48"/>
<path d="M238.808 96.5274C239.649 96.5274 240.331 95.8455 240.331 95.0044C240.331 94.1633 239.649 93.4814 238.808 93.4814C237.967 93.4814 237.285 94.1633 237.285 95.0044C237.285 95.8455 237.967 96.5274 238.808 96.5274Z" fill="#383A48"/>
<path d="M231.353 81.6192C232.194 81.6192 232.876 80.9373 232.876 80.0962C232.876 79.2551 232.194 78.5732 231.353 78.5732C230.512 78.5732 229.83 79.2551 229.83 80.0962C229.83 80.9373 230.512 81.6192 231.353 81.6192Z" fill="#383A48"/>
<path d="M231.353 89.0743C232.194 89.0743 232.876 88.3924 232.876 87.5513C232.876 86.7102 232.194 86.0283 231.353 86.0283C230.512 86.0283 229.83 86.7102 229.83 87.5513C229.83 88.3924 230.512 89.0743 231.353 89.0743Z" fill="#383A48"/>
<path d="M231.353 96.5274C232.194 96.5274 232.876 95.8455 232.876 95.0044C232.876 94.1633 232.194 93.4814 231.353 93.4814C230.512 93.4814 229.83 94.1633 229.83 95.0044C229.83 95.8455 230.512 96.5274 231.353 96.5274Z" fill="#383A48"/>
<path d="M223.9 81.6192C224.741 81.6192 225.423 80.9373 225.423 80.0962C225.423 79.2551 224.741 78.5732 223.9 78.5732C223.059 78.5732 222.377 79.2551 222.377 80.0962C222.377 80.9373 223.059 81.6192 223.9 81.6192Z" fill="#383A48"/>
<path d="M223.9 89.0743C224.741 89.0743 225.423 88.3924 225.423 87.5513C225.423 86.7102 224.741 86.0283 223.9 86.0283C223.059 86.0283 222.377 86.7102 222.377 87.5513C222.377 88.3924 223.059 89.0743 223.9 89.0743Z" fill="#383A48"/>
<path d="M223.9 96.5274C224.741 96.5274 225.423 95.8455 225.423 95.0044C225.423 94.1633 224.741 93.4814 223.9 93.4814C223.059 93.4814 222.377 94.1633 222.377 95.0044C222.377 95.8455 223.059 96.5274 223.9 96.5274Z" fill="#383A48"/>
<path d="M216.443 81.6192C217.284 81.6192 217.966 80.9373 217.966 80.0962C217.966 79.2551 217.284 78.5732 216.443 78.5732C215.602 78.5732 214.92 79.2551 214.92 80.0962C214.92 80.9373 215.602 81.6192 216.443 81.6192Z" fill="#383A48"/>
<path d="M216.443 89.0743C217.284 89.0743 217.966 88.3924 217.966 87.5513C217.966 86.7102 217.284 86.0283 216.443 86.0283C215.602 86.0283 214.92 86.7102 214.92 87.5513C214.92 88.3924 215.602 89.0743 216.443 89.0743Z" fill="#383A48"/>
<path d="M216.443 96.5274C217.284 96.5274 217.966 95.8455 217.966 95.0044C217.966 94.1633 217.284 93.4814 216.443 93.4814C215.602 93.4814 214.92 94.1633 214.92 95.0044C214.92 95.8455 215.602 96.5274 216.443 96.5274Z" fill="#383A48"/>
<path d="M208.99 81.6192C209.831 81.6192 210.513 80.9373 210.513 80.0962C210.513 79.2551 209.831 78.5732 208.99 78.5732C208.149 78.5732 207.467 79.2551 207.467 80.0962C207.467 80.9373 208.149 81.6192 208.99 81.6192Z" fill="#383A48"/>
<path d="M208.99 89.0743C209.831 89.0743 210.513 88.3924 210.513 87.5513C210.513 86.7102 209.831 86.0283 208.99 86.0283C208.149 86.0283 207.467 86.7102 207.467 87.5513C207.467 88.3924 208.149 89.0743 208.99 89.0743Z" fill="#383A48"/>
<path d="M208.99 96.5274C209.831 96.5274 210.513 95.8455 210.513 95.0044C210.513 94.1633 209.831 93.4814 208.99 93.4814C208.149 93.4814 207.467 94.1633 207.467 95.0044C207.467 95.8455 208.149 96.5274 208.99 96.5274Z" fill="#383A48"/>
<path d="M201.533 81.6192C202.374 81.6192 203.056 80.9373 203.056 80.0962C203.056 79.2551 202.374 78.5732 201.533 78.5732C200.692 78.5732 200.01 79.2551 200.01 80.0962C200.01 80.9373 200.692 81.6192 201.533 81.6192Z" fill="#383A48"/>
<path d="M201.533 89.0743C202.374 89.0743 203.056 88.3924 203.056 87.5513C203.056 86.7102 202.374 86.0283 201.533 86.0283C200.692 86.0283 200.01 86.7102 200.01 87.5513C200.01 88.3924 200.692 89.0743 201.533 89.0743Z" fill="#383A48"/>
<path d="M201.533 96.5274C202.374 96.5274 203.056 95.8455 203.056 95.0044C203.056 94.1633 202.374 93.4814 201.533 93.4814C200.692 93.4814 200.01 94.1633 200.01 95.0044C200.01 95.8455 200.692 96.5274 201.533 96.5274Z" fill="#383A48"/>
<path d="M194.08 74.1651C194.921 74.1651 195.603 73.4832 195.603 72.6421C195.603 71.801 194.921 71.1191 194.08 71.1191C193.239 71.1191 192.557 71.801 192.557 72.6421C192.557 73.4832 193.239 74.1651 194.08 74.1651Z" fill="#383A48"/>
<path d="M194.08 81.6192C194.921 81.6192 195.603 80.9373 195.603 80.0962C195.603 79.2551 194.921 78.5732 194.08 78.5732C193.239 78.5732 192.557 79.2551 192.557 80.0962C192.557 80.9373 193.239 81.6192 194.08 81.6192Z" fill="#383A48"/>
<path d="M194.08 89.0743C194.921 89.0743 195.603 88.3924 195.603 87.5513C195.603 86.7102 194.921 86.0283 194.08 86.0283C193.239 86.0283 192.557 86.7102 192.557 87.5513C192.557 88.3924 193.239 89.0743 194.08 89.0743Z" fill="#383A48"/>
<path d="M186.625 59.255C187.466 59.255 188.148 58.5731 188.148 57.732C188.148 56.8908 187.466 56.209 186.625 56.209C185.783 56.209 185.102 56.8908 185.102 57.732C185.102 58.5731 185.783 59.255 186.625 59.255Z" fill="#383A48"/>
<path d="M186.625 66.71C187.466 66.71 188.148 66.0282 188.148 65.187C188.148 64.3459 187.466 63.6641 186.625 63.6641C185.783 63.6641 185.102 64.3459 185.102 65.187C185.102 66.0282 185.783 66.71 186.625 66.71Z" fill="#383A48"/>
<path d="M186.625 74.1651C187.466 74.1651 188.148 73.4832 188.148 72.6421C188.148 71.801 187.466 71.1191 186.625 71.1191C185.783 71.1191 185.102 71.801 185.102 72.6421C185.102 73.4832 185.783 74.1651 186.625 74.1651Z" fill="#383A48"/>
<path d="M186.625 81.6192C187.466 81.6192 188.148 80.9373 188.148 80.0962C188.148 79.2551 187.466 78.5732 186.625 78.5732C185.783 78.5732 185.102 79.2551 185.102 80.0962C185.102 80.9373 185.783 81.6192 186.625 81.6192Z" fill="#383A48"/>
<path d="M216.258 44.1319H211.742C210.994 44.1319 210.406 43.544 210.406 42.7959C210.406 42.0478 210.994 41.46 211.742 41.46H216.258C217.006 41.46 217.594 42.0478 217.594 42.7959C217.594 43.544 217.006 44.1319 216.258 44.1319Z" fill="#383A48"/>
<path d="M343.865 48.1396C343.117 48.1396 342.529 47.5518 342.529 46.8037V42.876C342.529 42.1279 343.117 41.54 343.865 41.54C344.613 41.54 345.201 42.1279 345.201 42.876V46.8037C345.201 47.5518 344.613 48.1396 343.865 48.1396Z" fill="#383A48"/>
<path d="M267.344 24.4141C267.05 24.4141 266.73 24.3072 266.489 24.0935L263.71 21.7957C263.149 21.3147 263.069 20.4864 263.55 19.9253C264.031 19.3642 264.859 19.2841 265.42 19.765L268.173 22.0896C268.734 22.5705 268.814 23.3988 268.333 23.9599C268.092 24.2538 267.718 24.4141 267.344 24.4141Z" fill="#383A48"/>
<path d="M207.358 189.858H148.202C143.473 189.858 139.625 186.011 139.625 181.281V137.115C139.625 131.985 143.793 127.79 148.95 127.79H169.123C172.169 127.79 175.028 129.286 176.764 131.771L180.986 137.836C182.215 139.627 184.272 140.669 186.437 140.669H207.384C212.113 140.669 215.961 144.516 215.961 149.245V181.255C215.908 186.011 212.087 189.858 207.358 189.858ZM148.923 130.489C145.263 130.489 142.27 133.454 142.27 137.142V181.281C142.27 184.541 144.915 187.186 148.175 187.186H207.331C210.591 187.186 213.236 184.541 213.236 181.281V149.272C213.236 146.012 210.591 143.367 207.331 143.367H186.383C183.337 143.367 180.478 141.871 178.742 139.386L174.52 133.321C173.291 131.531 171.234 130.489 169.069 130.489H148.923Z" fill="#383A48"/>
<path d="M229.963 167.067C229.241 167.067 228.627 166.479 228.627 165.731C228.627 164.983 229.215 164.395 229.963 164.395C239.208 164.315 251.846 161.857 259.755 150.635C262.694 146.44 264.404 141.844 265.178 137.462C261.491 135.351 258.232 132.493 255.667 129.099C253.609 126.347 253.208 123.381 254.544 120.95C255.747 118.759 258.258 117.45 260.77 117.664C263.575 117.904 265.846 119.908 266.995 123.168C268.171 126.534 268.652 131.076 268.091 135.966C269.454 136.634 270.87 137.195 272.339 137.649C277.897 139.359 283.481 139.252 288.077 137.355C291.737 135.832 294.623 133.214 296.359 129.74C298.39 125.759 298.978 120.79 298.176 114.938C298.07 114.217 298.577 113.522 299.325 113.442C300.047 113.335 300.741 113.843 300.822 114.591C302.532 126.855 298.257 136.073 289.092 139.84C283.908 141.978 277.683 142.111 271.538 140.214C270.202 139.814 268.919 139.306 267.663 138.718C266.782 143.207 264.965 147.883 261.972 152.158C257.216 158.864 247.838 166.88 229.963 167.067ZM260.209 120.335C258.846 120.335 257.537 121.084 256.869 122.286C256.041 123.782 256.361 125.626 257.777 127.523C259.888 130.328 262.533 132.733 265.526 134.603C265.873 130.569 265.419 126.882 264.43 124.076C263.655 121.832 262.266 120.522 260.503 120.362C260.423 120.335 260.316 120.335 260.209 120.335Z" fill="#383A48"/>
<path d="M229.723 153.361C233.864 153.281 237.605 152.773 240.971 151.918Z" fill="#AAC6FC"/>
<path d="M229.723 154.696C229.001 154.696 228.413 154.108 228.387 153.387C228.387 152.639 228.948 152.051 229.696 152.024C233.597 151.944 237.284 151.49 240.651 150.635C241.372 150.448 242.094 150.875 242.281 151.597C242.468 152.318 242.04 153.039 241.319 153.226C237.738 154.108 233.864 154.616 229.723 154.696C229.723 154.696 229.749 154.696 229.723 154.696Z" fill="#383A48"/>
<path d="M330.986 134.74C339.745 134.74 347.893 139.837 351.728 147.721C343.608 153.967 334.557 157.622 324.788 158.682C319.37 159.256 314.08 160.805 308.613 163.408C308.166 161.581 307.932 159.711 307.932 157.795C307.932 145.077 318.268 134.74 330.986 134.74Z" stroke="#383A48" stroke-width="3"/>
<path d="M324.814 158.993L324.815 158.993C334.631 157.954 343.763 154.25 351.871 148.013C353.318 151.069 354.044 154.366 354.044 157.795C354.044 170.514 343.707 180.85 330.989 180.85C320.519 180.85 311.37 173.808 308.694 163.716C314.185 161.113 319.461 159.557 324.814 158.993Z" stroke="#383A48" stroke-width="3"/>
<mask id="path-133-inside-1" fill="white">
<path d="M158.838 46.0032L154.403 42.984L157.075 38.3349C157.342 37.8539 157.315 37.2661 156.968 36.8386C156.621 36.4111 156.059 36.2241 155.525 36.3844L150.395 37.9608L148.418 32.9644C148.204 32.4567 147.723 32.1094 147.162 32.1094C146.601 32.1094 146.12 32.4567 145.906 32.9644L143.929 37.9608L138.799 36.3844C138.265 36.2241 137.703 36.4111 137.356 36.8386C137.009 37.2661 136.982 37.8539 137.249 38.3349L139.921 42.984L135.486 46.0032C135.032 46.3239 134.818 46.8582 134.951 47.3926C135.085 47.927 135.513 48.3278 136.047 48.4079L141.337 49.2095L140.936 54.5533C140.91 55.0877 141.204 55.622 141.685 55.8625C141.872 55.9427 142.059 55.9961 142.272 55.9961C142.593 55.9961 142.94 55.8625 143.181 55.6488L147.109 52.015L151.036 55.6488C151.437 56.0228 152.025 56.103 152.533 55.8625C153.013 55.622 153.334 55.1144 153.281 54.5533L152.88 49.2095L158.17 48.4079C158.705 48.3278 159.159 47.927 159.266 47.3926C159.506 46.8582 159.292 46.2971 158.838 46.0032Z"/>
</mask>
<path d="M158.838 46.0032L157.713 47.6565L157.732 47.6697L157.752 47.6824L158.838 46.0032ZM154.403 42.984L152.669 41.9874L151.745 43.5943L153.277 44.6373L154.403 42.984ZM157.075 38.3349L158.809 39.3315L158.816 39.3189L158.823 39.3062L157.075 38.3349ZM155.525 36.3844L154.95 34.4687L154.938 34.4726L155.525 36.3844ZM150.395 37.9608L148.535 38.6967L149.215 40.4156L150.982 39.8726L150.395 37.9608ZM148.418 32.9644L150.277 32.2285L150.269 32.2083L150.261 32.1883L148.418 32.9644ZM145.906 32.9644L144.063 32.1883L144.055 32.2083L144.047 32.2285L145.906 32.9644ZM143.929 37.9608L143.342 39.8726L145.109 40.4156L145.789 38.6967L143.929 37.9608ZM138.799 36.3844L139.386 34.4726L139.374 34.4688L138.799 36.3844ZM137.249 38.3349L135.501 39.3062L135.508 39.3189L135.515 39.3315L137.249 38.3349ZM139.921 42.984L141.047 44.6373L142.579 43.5943L141.655 41.9874L139.921 42.984ZM135.486 46.0032L134.36 44.3499L134.346 44.3595L134.332 44.3693L135.486 46.0032ZM136.047 48.4079L136.347 46.4305L136.344 46.4301L136.047 48.4079ZM141.337 49.2095L143.332 49.3591L143.47 47.5099L141.637 47.2321L141.337 49.2095ZM140.936 54.5533L138.942 54.4037L138.94 54.4285L138.939 54.4534L140.936 54.5533ZM141.685 55.8625L140.79 57.6514L140.843 57.6776L140.897 57.7008L141.685 55.8625ZM143.181 55.6488L144.51 57.1436L144.524 57.1304L144.539 57.1168L143.181 55.6488ZM147.109 52.015L148.467 50.5469L147.109 49.2903L145.75 50.5469L147.109 52.015ZM151.036 55.6488L152.401 54.1866L152.394 54.1807L151.036 55.6488ZM152.533 55.8625L153.389 57.67L153.408 57.6609L153.427 57.6514L152.533 55.8625ZM153.281 54.5533L151.286 54.7029L151.288 54.7229L151.29 54.7429L153.281 54.5533ZM152.88 49.2095L152.58 47.2321L150.747 47.5099L150.885 49.3591L152.88 49.2095ZM158.17 48.4079L157.874 46.4301L157.871 46.4305L158.17 48.4079ZM159.266 47.3926L157.442 46.5719L157.349 46.7783L157.305 47.0004L159.266 47.3926ZM159.964 44.3499L155.528 41.3307L153.277 44.6373L157.713 47.6565L159.964 44.3499ZM156.137 43.9805L158.809 39.3315L155.341 37.3383L152.669 41.9874L156.137 43.9805ZM158.823 39.3062C159.45 38.1784 159.43 36.6971 158.52 35.5774L155.416 38.0998C155.201 37.8352 155.234 37.5295 155.326 37.3636L158.823 39.3062ZM158.52 35.5774C157.685 34.5492 156.295 34.0654 154.95 34.4688L156.1 38.3001C155.824 38.3828 155.556 38.2731 155.416 38.0998L158.52 35.5774ZM154.938 34.4726L149.808 36.049L150.982 39.8726L156.112 38.2962L154.938 34.4726ZM152.255 37.2249L150.277 32.2285L146.558 33.7003L148.535 38.6967L152.255 37.2249ZM150.261 32.1883C149.759 30.997 148.589 30.1094 147.162 30.1094V34.1094C146.857 34.1094 146.649 33.9164 146.575 33.7405L150.261 32.1883ZM147.162 30.1094C145.735 30.1094 144.564 30.997 144.063 32.1883L147.749 33.7405C147.675 33.9164 147.467 34.1094 147.162 34.1094V30.1094ZM144.047 32.2285L142.069 37.2249L145.789 38.6967L147.766 33.7003L144.047 32.2285ZM144.516 36.049L139.386 34.4726L138.212 38.2962L143.342 39.8726L144.516 36.049ZM139.374 34.4688C138.029 34.0654 136.639 34.5492 135.804 35.5774L138.908 38.0998C138.768 38.2731 138.5 38.3828 138.224 38.3001L139.374 34.4688ZM135.804 35.5774C134.894 36.6971 134.874 38.1785 135.501 39.3062L138.998 37.3636C139.09 37.5294 139.123 37.8352 138.908 38.0998L135.804 35.5774ZM135.515 39.3315L138.187 43.9805L141.655 41.9874L138.983 37.3383L135.515 39.3315ZM138.796 41.3307L134.36 44.3499L136.611 47.6565L141.047 44.6373L138.796 41.3307ZM134.332 44.3693C133.245 45.1372 132.665 46.4948 133.011 47.8777L136.892 46.9075C136.926 47.0447 136.918 47.2002 136.862 47.3427C136.808 47.4821 136.721 47.5794 136.639 47.6372L134.332 44.3693ZM133.011 47.8777C133.332 49.1593 134.38 50.1803 135.75 50.3858L136.344 46.4301C136.645 46.4753 136.839 46.6947 136.892 46.9075L133.011 47.8777ZM135.747 50.3854L141.038 51.1869L141.637 47.2321L136.347 46.4305L135.747 50.3854ZM139.343 49.0599L138.942 54.4037L142.931 54.7029L143.332 49.3591L139.343 49.0599ZM138.939 54.4534C138.875 55.735 139.56 57.036 140.79 57.6514L142.579 54.0737C142.724 54.1461 142.812 54.2476 142.861 54.334C142.909 54.419 142.94 54.5259 142.934 54.6532L138.939 54.4534ZM140.897 57.7008C141.239 57.8477 141.702 57.9961 142.272 57.9961V53.9961C142.337 53.9961 142.394 54.0046 142.438 54.0152C142.478 54.0248 142.493 54.033 142.472 54.0242L140.897 57.7008ZM142.272 57.9961C143.09 57.9961 143.908 57.6782 144.51 57.1436L141.852 54.1539C141.929 54.0858 141.995 54.0527 142.041 54.0349C142.088 54.0171 142.163 53.9961 142.272 53.9961V57.9961ZM144.539 57.1168L148.467 53.4831L145.75 50.5469L141.823 54.1807L144.539 57.1168ZM145.75 53.4831L149.678 57.1168L152.394 54.1807L148.467 50.5469L145.75 53.4831ZM149.672 57.1109C150.705 58.0753 152.182 58.2417 153.389 57.67L151.676 54.055C151.868 53.9642 152.169 53.9703 152.401 54.1867L149.672 57.1109ZM153.427 57.6514C154.572 57.079 155.411 55.8284 155.272 54.3637L151.29 54.7429C151.257 54.4004 151.455 54.165 151.638 54.0737L153.427 57.6514ZM155.275 54.4037L154.874 49.0599L150.885 49.3591L151.286 54.7029L155.275 54.4037ZM153.179 51.1869L158.47 50.3854L157.871 46.4305L152.58 47.2321L153.179 51.1869ZM158.467 50.3858C159.767 50.1908 160.942 49.211 161.227 47.7848L157.305 47.0004C157.376 46.643 157.642 46.4647 157.874 46.4301L158.467 50.3858ZM161.09 48.2133C161.779 46.6809 161.116 45.0949 159.925 44.3241L157.752 47.6824C157.613 47.5929 157.482 47.443 157.412 47.2324C157.339 47.0077 157.355 46.7657 157.442 46.5719L161.09 48.2133Z" fill="#383A48" mask="url(#path-133-inside-1)"/>
</svg>
