<svg width="400" height="225" viewBox="0 0 400 225" fill="none" xmlns="http://www.w3.org/2000/svg">
<path d="M400 0H0V225H400V0Z" fill="#80ABFF"/>
<path d="M166.146 34.1038C166.042 33.6247 165.626 33.2705 165.126 33.2705H97.6048C74.1881 33.2705 55.1465 52.3122 55.1465 75.7288V126.187C55.1465 126.666 55.4798 127.083 55.9381 127.187C56.0215 127.208 56.1048 127.229 56.1882 127.229C56.5632 127.229 56.9173 127.02 57.1048 126.687C57.2923 126.333 57.5006 125.979 57.709 125.583C63.1465 115.52 77.584 88.7705 94.0631 85.9788C105.459 84.0413 113.646 81.0205 119.855 76.4372C125.438 72.333 128.73 67.4788 132.23 62.3538C138.188 53.6038 144.959 43.6872 165.521 35.2705C165.98 35.083 166.251 34.6038 166.146 34.1038Z" fill="#F3F6E6"/>
<path d="M96.0532 57.148L94.5801 58.6211L99.4414 63.4824L100.915 62.0093L96.0532 57.148Z" fill="#383A48"/>
<path d="M99.4707 57.1406L94.6094 62.002L96.0825 63.4751L100.944 58.6138L99.4707 57.1406Z" fill="#383A48"/>
<path d="M77.0423 56.2083C76.7715 56.2083 76.5006 56.1042 76.3131 55.8958L55.459 35.0417C55.0423 34.625 55.0423 33.9792 55.459 33.5625C55.8757 33.1458 56.5215 33.1458 56.9381 33.5625L77.7923 54.4167C78.209 54.8333 78.209 55.4792 77.7923 55.8958C77.584 56.1042 77.3131 56.2083 77.0423 56.2083Z" fill="#4053FA"/>
<path d="M167.667 100.042H56.1875V190.688H167.667V100.042Z" fill="#F3F6E6"/>
<path d="M167.667 191.729H56.1882C55.6048 191.729 55.1465 191.271 55.1465 190.688V100.042C55.1465 99.4583 55.6048 99 56.1882 99H167.667C168.251 99 168.709 99.4583 168.709 100.042V190.688C168.709 191.271 168.251 191.729 167.667 191.729ZM57.2298 189.646H166.626V101.083H57.2298V189.646Z" fill="#383A48"/>
<path d="M70.1666 100.042H56.1875V126.188H70.1666V100.042Z" fill="#80ABFF"/>
<path d="M70.1673 127.229H56.1882C55.6048 127.229 55.1465 126.771 55.1465 126.187V100.042C55.1465 99.4583 55.6048 99 56.1882 99H70.1673C70.7506 99 71.209 99.4583 71.209 100.042V126.187C71.209 126.771 70.7506 127.229 70.1673 127.229ZM57.2298 125.146H69.1256V101.083H57.2298V125.146Z" fill="#383A48"/>
<path d="M65.7507 106.458C66.326 106.458 66.7923 105.992 66.7923 105.417C66.7923 104.841 66.326 104.375 65.7507 104.375C65.1754 104.375 64.709 104.841 64.709 105.417C64.709 105.992 65.1754 106.458 65.7507 106.458Z" fill="#383A48"/>
<path d="M65.7507 111.583C66.326 111.583 66.7923 111.117 66.7923 110.542C66.7923 109.966 66.326 109.5 65.7507 109.5C65.1754 109.5 64.709 109.966 64.709 110.542C64.709 111.117 65.1754 111.583 65.7507 111.583Z" fill="#383A48"/>
<path d="M65.7507 116.73C66.326 116.73 66.7923 116.263 66.7923 115.688C66.7923 115.113 66.326 114.646 65.7507 114.646C65.1754 114.646 64.709 115.113 64.709 115.688C64.709 116.263 65.1754 116.73 65.7507 116.73Z" fill="#383A48"/>
<path d="M65.7507 121.875C66.326 121.875 66.7923 121.409 66.7923 120.834C66.7923 120.258 66.326 119.792 65.7507 119.792C65.1754 119.792 64.709 120.258 64.709 120.834C64.709 121.409 65.1754 121.875 65.7507 121.875Z" fill="#383A48"/>
<path d="M65.7507 131.041C66.326 131.041 66.7923 130.575 66.7923 130C66.7923 129.424 66.326 128.958 65.7507 128.958C65.1754 128.958 64.709 129.424 64.709 130C64.709 130.575 65.1754 131.041 65.7507 131.041Z" fill="#383A48"/>
<path d="M65.7507 136.166C66.326 136.166 66.7923 135.7 66.7923 135.125C66.7923 134.549 66.326 134.083 65.7507 134.083C65.1754 134.083 64.709 134.549 64.709 135.125C64.709 135.7 65.1754 136.166 65.7507 136.166Z" fill="#383A48"/>
<path d="M65.7507 141.313C66.326 141.313 66.7923 140.846 66.7923 140.271C66.7923 139.696 66.326 139.229 65.7507 139.229C65.1754 139.229 64.709 139.696 64.709 140.271C64.709 140.846 65.1754 141.313 65.7507 141.313Z" fill="#383A48"/>
<path d="M65.7507 146.458C66.326 146.458 66.7923 145.992 66.7923 145.417C66.7923 144.841 66.326 144.375 65.7507 144.375C65.1754 144.375 64.709 144.841 64.709 145.417C64.709 145.992 65.1754 146.458 65.7507 146.458Z" fill="#383A48"/>
<path d="M65.7507 151.583C66.326 151.583 66.7923 151.117 66.7923 150.542C66.7923 149.966 66.326 149.5 65.7507 149.5C65.1754 149.5 64.709 149.966 64.709 150.542C64.709 151.117 65.1754 151.583 65.7507 151.583Z" fill="#383A48"/>
<path d="M65.7507 156.729C66.326 156.729 66.7923 156.262 66.7923 155.687C66.7923 155.112 66.326 154.646 65.7507 154.646C65.1754 154.646 64.709 155.112 64.709 155.687C64.709 156.262 65.1754 156.729 65.7507 156.729Z" fill="#383A48"/>
<path d="M65.7507 161.875C66.326 161.875 66.7923 161.409 66.7923 160.834C66.7923 160.258 66.326 159.792 65.7507 159.792C65.1754 159.792 64.709 160.258 64.709 160.834C64.709 161.409 65.1754 161.875 65.7507 161.875Z" fill="#383A48"/>
<path d="M65.7507 166.999C66.326 166.999 66.7923 166.533 66.7923 165.958C66.7923 165.382 66.326 164.916 65.7507 164.916C65.1754 164.916 64.709 165.382 64.709 165.958C64.709 166.533 65.1754 166.999 65.7507 166.999Z" fill="#383A48"/>
<path d="M65.7507 172.146C66.326 172.146 66.7923 171.679 66.7923 171.104C66.7923 170.529 66.326 170.062 65.7507 170.062C65.1754 170.062 64.709 170.529 64.709 171.104C64.709 171.679 65.1754 172.146 65.7507 172.146Z" fill="#383A48"/>
<path d="M65.7507 177.292C66.326 177.292 66.7923 176.826 66.7923 176.251C66.7923 175.675 66.326 175.209 65.7507 175.209C65.1754 175.209 64.709 175.675 64.709 176.251C64.709 176.826 65.1754 177.292 65.7507 177.292Z" fill="#383A48"/>
<path d="M65.7507 182.416C66.326 182.416 66.7923 181.95 66.7923 181.375C66.7923 180.799 66.326 180.333 65.7507 180.333C65.1754 180.333 64.709 180.799 64.709 181.375C64.709 181.95 65.1754 182.416 65.7507 182.416Z" fill="#383A48"/>
<path d="M65.7507 187.563C66.326 187.563 66.7923 187.096 66.7923 186.521C66.7923 185.946 66.326 185.479 65.7507 185.479C65.1754 185.479 64.709 185.946 64.709 186.521C64.709 187.096 65.1754 187.563 65.7507 187.563Z" fill="#383A48"/>
<path d="M60.6257 106.458C61.201 106.458 61.6673 105.992 61.6673 105.417C61.6673 104.841 61.201 104.375 60.6257 104.375C60.0504 104.375 59.584 104.841 59.584 105.417C59.584 105.992 60.0504 106.458 60.6257 106.458Z" fill="#383A48"/>
<path d="M60.6257 111.583C61.201 111.583 61.6673 111.117 61.6673 110.542C61.6673 109.966 61.201 109.5 60.6257 109.5C60.0504 109.5 59.584 109.966 59.584 110.542C59.584 111.117 60.0504 111.583 60.6257 111.583Z" fill="#383A48"/>
<path d="M60.6257 116.73C61.201 116.73 61.6673 116.263 61.6673 115.688C61.6673 115.113 61.201 114.646 60.6257 114.646C60.0504 114.646 59.584 115.113 59.584 115.688C59.584 116.263 60.0504 116.73 60.6257 116.73Z" fill="#383A48"/>
<path d="M60.6257 121.875C61.201 121.875 61.6673 121.409 61.6673 120.834C61.6673 120.258 61.201 119.792 60.6257 119.792C60.0504 119.792 59.584 120.258 59.584 120.834C59.584 121.409 60.0504 121.875 60.6257 121.875Z" fill="#383A48"/>
<path d="M60.6257 131.041C61.201 131.041 61.6673 130.575 61.6673 130C61.6673 129.424 61.201 128.958 60.6257 128.958C60.0504 128.958 59.584 129.424 59.584 130C59.584 130.575 60.0504 131.041 60.6257 131.041Z" fill="#383A48"/>
<path d="M60.6257 136.166C61.201 136.166 61.6673 135.7 61.6673 135.125C61.6673 134.549 61.201 134.083 60.6257 134.083C60.0504 134.083 59.584 134.549 59.584 135.125C59.584 135.7 60.0504 136.166 60.6257 136.166Z" fill="#383A48"/>
<path d="M60.6257 141.313C61.201 141.313 61.6673 140.846 61.6673 140.271C61.6673 139.696 61.201 139.229 60.6257 139.229C60.0504 139.229 59.584 139.696 59.584 140.271C59.584 140.846 60.0504 141.313 60.6257 141.313Z" fill="#383A48"/>
<path d="M60.6257 146.458C61.201 146.458 61.6673 145.992 61.6673 145.417C61.6673 144.841 61.201 144.375 60.6257 144.375C60.0504 144.375 59.584 144.841 59.584 145.417C59.584 145.992 60.0504 146.458 60.6257 146.458Z" fill="#383A48"/>
<path d="M60.6257 151.583C61.201 151.583 61.6673 151.117 61.6673 150.542C61.6673 149.966 61.201 149.5 60.6257 149.5C60.0504 149.5 59.584 149.966 59.584 150.542C59.584 151.117 60.0504 151.583 60.6257 151.583Z" fill="#383A48"/>
<path d="M60.6257 156.729C61.201 156.729 61.6673 156.262 61.6673 155.687C61.6673 155.112 61.201 154.646 60.6257 154.646C60.0504 154.646 59.584 155.112 59.584 155.687C59.584 156.262 60.0504 156.729 60.6257 156.729Z" fill="#383A48"/>
<path d="M60.6257 161.875C61.201 161.875 61.6673 161.409 61.6673 160.834C61.6673 160.258 61.201 159.792 60.6257 159.792C60.0504 159.792 59.584 160.258 59.584 160.834C59.584 161.409 60.0504 161.875 60.6257 161.875Z" fill="#383A48"/>
<path d="M60.6257 166.999C61.201 166.999 61.6673 166.533 61.6673 165.958C61.6673 165.382 61.201 164.916 60.6257 164.916C60.0504 164.916 59.584 165.382 59.584 165.958C59.584 166.533 60.0504 166.999 60.6257 166.999Z" fill="#383A48"/>
<path d="M60.6257 172.146C61.201 172.146 61.6673 171.679 61.6673 171.104C61.6673 170.529 61.201 170.062 60.6257 170.062C60.0504 170.062 59.584 170.529 59.584 171.104C59.584 171.679 60.0504 172.146 60.6257 172.146Z" fill="#383A48"/>
<path d="M60.6257 177.292C61.201 177.292 61.6673 176.826 61.6673 176.251C61.6673 175.675 61.201 175.209 60.6257 175.209C60.0504 175.209 59.584 175.675 59.584 176.251C59.584 176.826 60.0504 177.292 60.6257 177.292Z" fill="#383A48"/>
<path d="M60.6257 182.416C61.201 182.416 61.6673 181.95 61.6673 181.375C61.6673 180.799 61.201 180.333 60.6257 180.333C60.0504 180.333 59.584 180.799 59.584 181.375C59.584 181.95 60.0504 182.416 60.6257 182.416Z" fill="#383A48"/>
<path d="M60.6257 187.563C61.201 187.563 61.6673 187.096 61.6673 186.521C61.6673 185.946 61.201 185.479 60.6257 185.479C60.0504 185.479 59.584 185.946 59.584 186.521C59.584 187.096 60.0504 187.563 60.6257 187.563Z" fill="#383A48"/>
<path d="M181.645 100.042H70.166V190.688H181.645V100.042Z" fill="#F3F6E6"/>
<path d="M181.646 191.729H70.1667C69.5833 191.729 69.125 191.271 69.125 190.688V100.042C69.125 99.4583 69.5833 99 70.1667 99H181.646C182.229 99 182.687 99.4583 182.687 100.042V190.688C182.687 191.271 182.229 191.729 181.646 191.729ZM71.2083 189.646H180.604V101.083H71.2083V189.646Z" fill="#383A48"/>
<path d="M181.666 100.042H70.166V126.188H181.666V100.042Z" fill="#80ABFF"/>
<path d="M181.687 127.229H70.1667C69.5833 127.229 69.125 126.771 69.125 126.187V100.042C69.125 99.4583 69.5833 99 70.1667 99H181.667C182.25 99 182.708 99.4583 182.708 100.042V126.187C182.729 126.771 182.25 127.229 181.687 127.229ZM71.2083 125.146H180.625V101.083H71.2083V125.146Z" fill="#383A48"/>
<path d="M165.428 109.962L163.955 111.436L168.816 116.297L170.29 114.824L165.428 109.962Z" fill="#383A48"/>
<path d="M168.84 109.958L163.979 114.819L165.452 116.292L170.313 111.431L168.84 109.958Z" fill="#383A48"/>
<path d="M160.583 116.813H153.188V109.417H160.583V116.813ZM155.271 114.729H158.5V111.5H155.271V114.729Z" fill="#383A48"/>
<path d="M149 114.729H143.688V116.813H149V114.729Z" fill="#383A48"/>
<path d="M102.854 143.728V169.562C102.854 171.895 104.749 173.791 107.083 173.791H141.708C144.041 173.791 145.937 171.895 145.937 169.562V150.832C145.937 148.499 144.041 146.603 141.708 146.603H129.458C127.937 146.603 126.499 145.853 125.624 144.603L123.145 141.062C122.27 139.812 120.833 139.062 119.312 139.062H107.499C104.937 139.062 102.854 141.145 102.854 143.728Z" fill="#80ABFF"/>
<path d="M141.708 174.854H107.083C104.167 174.854 101.812 172.479 101.812 169.583V143.749C101.812 140.604 104.375 138.041 107.521 138.041H119.333C121.208 138.041 122.958 138.958 124.021 140.479L126.5 144.02C127.188 144.999 128.292 145.562 129.479 145.562H141.729C144.646 145.562 147 147.937 147 150.833V169.562C146.979 172.479 144.625 174.854 141.708 174.854ZM107.521 140.104C105.521 140.104 103.896 141.729 103.896 143.729V169.562C103.896 171.333 105.333 172.749 107.083 172.749H141.708C143.479 172.749 144.896 171.312 144.896 169.562V150.833C144.896 149.062 143.458 147.645 141.708 147.645H129.458C127.583 147.645 125.833 146.729 124.771 145.208L122.292 141.666C121.604 140.687 120.5 140.124 119.313 140.124L107.521 140.104Z" fill="#383A48"/>
<path d="M205.053 40.3189L203.58 41.792L208.441 46.6533L209.915 45.1802L205.053 40.3189Z" fill="#383A48"/>
<path d="M208.469 40.3125L203.607 45.1738L205.081 46.647L209.942 41.7856L208.469 40.3125Z" fill="#383A48"/>
<path d="M322.918 66.0208C321.71 48.3125 306.96 34.3125 288.939 34.3125C277.418 34.3125 267.251 40.0208 261.085 48.7917C256.73 45.2292 251.147 43.0833 245.064 43.0833C231.897 43.0833 221.085 53.1458 219.876 65.9792H219.418C206.98 65.9792 196.918 76.0625 196.918 88.4792C196.918 100.917 207.001 110.979 219.418 110.979H321.293C333.73 110.979 343.793 100.896 343.793 88.4792C343.814 76.5833 334.605 66.8542 322.918 66.0208Z" fill="#F3F6E6"/>
<path d="M321.313 112.021H219.438C206.459 112.021 195.896 101.459 195.896 88.4795C195.896 75.6462 206.209 65.1878 218.959 64.9378C219.751 58.792 222.688 53.1462 227.292 48.9378C232.146 44.4795 238.48 42.042 245.063 42.042C250.751 42.042 256.334 43.8962 260.876 47.3128C267.501 38.5003 277.896 33.292 288.938 33.292C297.896 33.292 306.417 36.667 312.938 42.792C319.209 48.6878 323.084 56.5628 323.876 65.0837C329.459 65.6878 334.626 68.2712 338.501 72.3962C342.584 76.7712 344.855 82.4795 344.855 88.4795C344.855 101.459 334.292 112.021 321.313 112.021ZM219.438 67.0003C207.605 67.0003 197.98 76.6253 197.98 88.4587C197.98 100.292 207.605 109.917 219.438 109.917H321.313C333.146 109.917 342.771 100.292 342.771 88.4587C342.771 83.0003 340.709 77.792 336.98 73.792C333.271 69.8128 328.251 67.417 322.834 67.042C322.313 67.0003 321.896 66.5837 321.876 66.0837C321.313 57.7503 317.626 50.0003 311.521 44.2712C305.376 38.5212 297.355 35.3337 288.938 35.3337C278.209 35.3337 268.126 40.5837 261.938 49.3545C261.771 49.5837 261.521 49.7503 261.23 49.792C260.938 49.8337 260.646 49.7503 260.438 49.5628C256.126 46.0212 250.667 44.0837 245.084 44.0837C239.001 44.0837 233.188 46.3337 228.709 50.4378C224.251 54.5212 221.501 60.042 220.938 66.042C220.896 66.5837 220.438 66.9795 219.896 66.9795H219.438V67.0003Z" fill="#383A48"/>
<path d="M339.814 90.417C340.47 90.417 341.002 89.8853 341.002 89.2295C341.002 88.5737 340.47 88.042 339.814 88.042C339.159 88.042 338.627 88.5737 338.627 89.2295C338.627 89.8853 339.159 90.417 339.814 90.417Z" fill="#383A48"/>
<path d="M339.814 96.2295C340.47 96.2295 341.002 95.6978 341.002 95.042C341.002 94.3862 340.47 93.8545 339.814 93.8545C339.159 93.8545 338.627 94.3862 338.627 95.042C338.627 95.6978 339.159 96.2295 339.814 96.2295Z" fill="#383A48"/>
<path d="M334 96.2295C334.656 96.2295 335.187 95.6978 335.187 95.042C335.187 94.3862 334.656 93.8545 334 93.8545C333.344 93.8545 332.812 94.3862 332.812 95.042C332.812 95.6978 333.344 96.2295 334 96.2295Z" fill="#383A48"/>
<path d="M334 102.042C334.656 102.042 335.187 101.51 335.187 100.854C335.187 100.199 334.656 99.667 334 99.667C333.344 99.667 332.812 100.199 332.812 100.854C332.812 101.51 333.344 102.042 334 102.042Z" fill="#383A48"/>
<path d="M328.188 96.2295C328.843 96.2295 329.375 95.6978 329.375 95.042C329.375 94.3862 328.843 93.8545 328.188 93.8545C327.532 93.8545 327 94.3862 327 95.042C327 95.6978 327.532 96.2295 328.188 96.2295Z" fill="#383A48"/>
<path d="M328.188 102.042C328.843 102.042 329.375 101.51 329.375 100.854C329.375 100.199 328.843 99.667 328.188 99.667C327.532 99.667 327 100.199 327 100.854C327 101.51 327.532 102.042 328.188 102.042Z" fill="#383A48"/>
<path d="M328.188 107.854C328.843 107.854 329.375 107.323 329.375 106.667C329.375 106.011 328.843 105.479 328.188 105.479C327.532 105.479 327 106.011 327 106.667C327 107.323 327.532 107.854 328.188 107.854Z" fill="#383A48"/>
<path d="M322.375 96.2295C323.031 96.2295 323.562 95.6978 323.562 95.042C323.562 94.3862 323.031 93.8545 322.375 93.8545C321.719 93.8545 321.188 94.3862 321.188 95.042C321.188 95.6978 321.719 96.2295 322.375 96.2295Z" fill="#383A48"/>
<path d="M322.375 102.042C323.031 102.042 323.562 101.51 323.562 100.854C323.562 100.199 323.031 99.667 322.375 99.667C321.719 99.667 321.188 100.199 321.188 100.854C321.188 101.51 321.719 102.042 322.375 102.042Z" fill="#383A48"/>
<path d="M322.375 107.854C323.031 107.854 323.562 107.323 323.562 106.667C323.562 106.011 323.031 105.479 322.375 105.479C321.719 105.479 321.188 106.011 321.188 106.667C321.188 107.323 321.719 107.854 322.375 107.854Z" fill="#383A48"/>
<path d="M316.562 96.2295C317.218 96.2295 317.75 95.6978 317.75 95.042C317.75 94.3862 317.218 93.8545 316.562 93.8545C315.907 93.8545 315.375 94.3862 315.375 95.042C315.375 95.6978 315.907 96.2295 316.562 96.2295Z" fill="#383A48"/>
<path d="M316.562 102.042C317.218 102.042 317.75 101.51 317.75 100.854C317.75 100.199 317.218 99.667 316.562 99.667C315.907 99.667 315.375 100.199 315.375 100.854C315.375 101.51 315.907 102.042 316.562 102.042Z" fill="#383A48"/>
<path d="M316.562 107.854C317.218 107.854 317.75 107.323 317.75 106.667C317.75 106.011 317.218 105.479 316.562 105.479C315.907 105.479 315.375 106.011 315.375 106.667C315.375 107.323 315.907 107.854 316.562 107.854Z" fill="#383A48"/>
<path d="M310.752 96.2295C311.408 96.2295 311.94 95.6978 311.94 95.042C311.94 94.3862 311.408 93.8545 310.752 93.8545C310.096 93.8545 309.564 94.3862 309.564 95.042C309.564 95.6978 310.096 96.2295 310.752 96.2295Z" fill="#383A48"/>
<path d="M310.752 102.042C311.408 102.042 311.94 101.51 311.94 100.854C311.94 100.199 311.408 99.667 310.752 99.667C310.096 99.667 309.564 100.199 309.564 100.854C309.564 101.51 310.096 102.042 310.752 102.042Z" fill="#383A48"/>
<path d="M310.752 107.854C311.408 107.854 311.94 107.323 311.94 106.667C311.94 106.011 311.408 105.479 310.752 105.479C310.096 105.479 309.564 106.011 309.564 106.667C309.564 107.323 310.096 107.854 310.752 107.854Z" fill="#383A48"/>
<path d="M304.937 96.2295C305.593 96.2295 306.125 95.6978 306.125 95.042C306.125 94.3862 305.593 93.8545 304.937 93.8545C304.282 93.8545 303.75 94.3862 303.75 95.042C303.75 95.6978 304.282 96.2295 304.937 96.2295Z" fill="#383A48"/>
<path d="M304.937 102.042C305.593 102.042 306.125 101.51 306.125 100.854C306.125 100.199 305.593 99.667 304.937 99.667C304.282 99.667 303.75 100.199 303.75 100.854C303.75 101.51 304.282 102.042 304.937 102.042Z" fill="#383A48"/>
<path d="M304.937 107.854C305.593 107.854 306.125 107.323 306.125 106.667C306.125 106.011 305.593 105.479 304.937 105.479C304.282 105.479 303.75 106.011 303.75 106.667C303.75 107.323 304.282 107.854 304.937 107.854Z" fill="#383A48"/>
<path d="M299.125 96.2295C299.781 96.2295 300.313 95.6978 300.313 95.042C300.313 94.3862 299.781 93.8545 299.125 93.8545C298.469 93.8545 297.938 94.3862 297.938 95.042C297.938 95.6978 298.469 96.2295 299.125 96.2295Z" fill="#383A48"/>
<path d="M299.125 102.042C299.781 102.042 300.313 101.51 300.313 100.854C300.313 100.199 299.781 99.667 299.125 99.667C298.469 99.667 297.938 100.199 297.938 100.854C297.938 101.51 298.469 102.042 299.125 102.042Z" fill="#383A48"/>
<path d="M299.125 107.854C299.781 107.854 300.313 107.323 300.313 106.667C300.313 106.011 299.781 105.479 299.125 105.479C298.469 105.479 297.938 106.011 297.938 106.667C297.938 107.323 298.469 107.854 299.125 107.854Z" fill="#383A48"/>
<path d="M293.313 96.2295C293.968 96.2295 294.5 95.6978 294.5 95.042C294.5 94.3862 293.968 93.8545 293.313 93.8545C292.657 93.8545 292.125 94.3862 292.125 95.042C292.125 95.6978 292.657 96.2295 293.313 96.2295Z" fill="#383A48"/>
<path d="M293.313 102.042C293.968 102.042 294.5 101.51 294.5 100.854C294.5 100.199 293.968 99.667 293.313 99.667C292.657 99.667 292.125 100.199 292.125 100.854C292.125 101.51 292.657 102.042 293.313 102.042Z" fill="#383A48"/>
<path d="M293.313 107.854C293.968 107.854 294.5 107.323 294.5 106.667C294.5 106.011 293.968 105.479 293.313 105.479C292.657 105.479 292.125 106.011 292.125 106.667C292.125 107.323 292.657 107.854 293.313 107.854Z" fill="#383A48"/>
<path d="M287.5 96.2295C288.156 96.2295 288.687 95.6978 288.687 95.042C288.687 94.3862 288.156 93.8545 287.5 93.8545C286.844 93.8545 286.312 94.3862 286.312 95.042C286.312 95.6978 286.844 96.2295 287.5 96.2295Z" fill="#383A48"/>
<path d="M287.5 102.042C288.156 102.042 288.687 101.51 288.687 100.854C288.687 100.199 288.156 99.667 287.5 99.667C286.844 99.667 286.312 100.199 286.312 100.854C286.312 101.51 286.844 102.042 287.5 102.042Z" fill="#383A48"/>
<path d="M287.5 107.854C288.156 107.854 288.687 107.323 288.687 106.667C288.687 106.011 288.156 105.479 287.5 105.479C286.844 105.479 286.312 106.011 286.312 106.667C286.312 107.323 286.844 107.854 287.5 107.854Z" fill="#383A48"/>
<path d="M281.689 96.2295C282.345 96.2295 282.877 95.6978 282.877 95.042C282.877 94.3862 282.345 93.8545 281.689 93.8545C281.034 93.8545 280.502 94.3862 280.502 95.042C280.502 95.6978 281.034 96.2295 281.689 96.2295Z" fill="#383A48"/>
<path d="M281.689 102.042C282.345 102.042 282.877 101.51 282.877 100.854C282.877 100.199 282.345 99.667 281.689 99.667C281.034 99.667 280.502 100.199 280.502 100.854C280.502 101.51 281.034 102.042 281.689 102.042Z" fill="#383A48"/>
<path d="M281.689 107.854C282.345 107.854 282.877 107.323 282.877 106.667C282.877 106.011 282.345 105.479 281.689 105.479C281.034 105.479 280.502 106.011 280.502 106.667C280.502 107.323 281.034 107.854 281.689 107.854Z" fill="#383A48"/>
<path d="M275.875 96.2295C276.531 96.2295 277.062 95.6978 277.062 95.042C277.062 94.3862 276.531 93.8545 275.875 93.8545C275.219 93.8545 274.688 94.3862 274.688 95.042C274.688 95.6978 275.219 96.2295 275.875 96.2295Z" fill="#383A48"/>
<path d="M275.875 102.042C276.531 102.042 277.062 101.51 277.062 100.854C277.062 100.199 276.531 99.667 275.875 99.667C275.219 99.667 274.688 100.199 274.688 100.854C274.688 101.51 275.219 102.042 275.875 102.042Z" fill="#383A48"/>
<path d="M275.875 107.854C276.531 107.854 277.062 107.323 277.062 106.667C277.062 106.011 276.531 105.479 275.875 105.479C275.219 105.479 274.688 106.011 274.688 106.667C274.688 107.323 275.219 107.854 275.875 107.854Z" fill="#383A48"/>
<path d="M270.063 96.2295C270.718 96.2295 271.25 95.6978 271.25 95.042C271.25 94.3862 270.718 93.8545 270.063 93.8545C269.407 93.8545 268.875 94.3862 268.875 95.042C268.875 95.6978 269.407 96.2295 270.063 96.2295Z" fill="#383A48"/>
<path d="M270.063 102.042C270.718 102.042 271.25 101.51 271.25 100.854C271.25 100.199 270.718 99.667 270.063 99.667C269.407 99.667 268.875 100.199 268.875 100.854C268.875 101.51 269.407 102.042 270.063 102.042Z" fill="#383A48"/>
<path d="M270.063 107.854C270.718 107.854 271.25 107.323 271.25 106.667C271.25 106.011 270.718 105.479 270.063 105.479C269.407 105.479 268.875 106.011 268.875 106.667C268.875 107.323 269.407 107.854 270.063 107.854Z" fill="#383A48"/>
<path d="M264.25 96.2295C264.906 96.2295 265.438 95.6978 265.438 95.042C265.438 94.3862 264.906 93.8545 264.25 93.8545C263.594 93.8545 263.062 94.3862 263.062 95.042C263.062 95.6978 263.594 96.2295 264.25 96.2295Z" fill="#383A48"/>
<path d="M264.25 102.042C264.906 102.042 265.438 101.51 265.438 100.854C265.438 100.199 264.906 99.667 264.25 99.667C263.594 99.667 263.062 100.199 263.062 100.854C263.062 101.51 263.594 102.042 264.25 102.042Z" fill="#383A48"/>
<path d="M264.25 107.854C264.906 107.854 265.438 107.323 265.438 106.667C265.438 106.011 264.906 105.479 264.25 105.479C263.594 105.479 263.062 106.011 263.062 106.667C263.062 107.323 263.594 107.854 264.25 107.854Z" fill="#383A48"/>
<path d="M258.438 96.2295C259.093 96.2295 259.625 95.6978 259.625 95.042C259.625 94.3862 259.093 93.8545 258.438 93.8545C257.782 93.8545 257.25 94.3862 257.25 95.042C257.25 95.6978 257.782 96.2295 258.438 96.2295Z" fill="#383A48"/>
<path d="M258.438 102.042C259.093 102.042 259.625 101.51 259.625 100.854C259.625 100.199 259.093 99.667 258.438 99.667C257.782 99.667 257.25 100.199 257.25 100.854C257.25 101.51 257.782 102.042 258.438 102.042Z" fill="#383A48"/>
<path d="M258.438 107.854C259.093 107.854 259.625 107.323 259.625 106.667C259.625 106.011 259.093 105.479 258.438 105.479C257.782 105.479 257.25 106.011 257.25 106.667C257.25 107.323 257.782 107.854 258.438 107.854Z" fill="#383A48"/>
<path d="M252.625 96.2295C253.281 96.2295 253.812 95.6978 253.812 95.042C253.812 94.3862 253.281 93.8545 252.625 93.8545C251.969 93.8545 251.438 94.3862 251.438 95.042C251.438 95.6978 251.969 96.2295 252.625 96.2295Z" fill="#383A48"/>
<path d="M252.625 102.042C253.281 102.042 253.812 101.51 253.812 100.854C253.812 100.199 253.281 99.667 252.625 99.667C251.969 99.667 251.438 100.199 251.438 100.854C251.438 101.51 251.969 102.042 252.625 102.042Z" fill="#383A48"/>
<path d="M252.625 107.854C253.281 107.854 253.812 107.323 253.812 106.667C253.812 106.011 253.281 105.479 252.625 105.479C251.969 105.479 251.438 106.011 251.438 106.667C251.438 107.323 251.969 107.854 252.625 107.854Z" fill="#383A48"/>
<path d="M246.814 96.2295C247.47 96.2295 248.002 95.6978 248.002 95.042C248.002 94.3862 247.47 93.8545 246.814 93.8545C246.159 93.8545 245.627 94.3862 245.627 95.042C245.627 95.6978 246.159 96.2295 246.814 96.2295Z" fill="#383A48"/>
<path d="M246.814 102.042C247.47 102.042 248.002 101.51 248.002 100.854C248.002 100.199 247.47 99.667 246.814 99.667C246.159 99.667 245.627 100.199 245.627 100.854C245.627 101.51 246.159 102.042 246.814 102.042Z" fill="#383A48"/>
<path d="M246.814 107.854C247.47 107.854 248.002 107.323 248.002 106.667C248.002 106.011 247.47 105.479 246.814 105.479C246.159 105.479 245.627 106.011 245.627 106.667C245.627 107.323 246.159 107.854 246.814 107.854Z" fill="#383A48"/>
<path d="M241 96.2295C241.656 96.2295 242.188 95.6978 242.188 95.042C242.188 94.3862 241.656 93.8545 241 93.8545C240.344 93.8545 239.812 94.3862 239.812 95.042C239.812 95.6978 240.344 96.2295 241 96.2295Z" fill="#383A48"/>
<path d="M241 102.042C241.656 102.042 242.188 101.51 242.188 100.854C242.188 100.199 241.656 99.667 241 99.667C240.344 99.667 239.812 100.199 239.812 100.854C239.812 101.51 240.344 102.042 241 102.042Z" fill="#383A48"/>
<path d="M241 107.854C241.656 107.854 242.188 107.323 242.188 106.667C242.188 106.011 241.656 105.479 241 105.479C240.344 105.479 239.812 106.011 239.812 106.667C239.812 107.323 240.344 107.854 241 107.854Z" fill="#383A48"/>
<path d="M235.188 96.2295C235.843 96.2295 236.375 95.6978 236.375 95.042C236.375 94.3862 235.843 93.8545 235.188 93.8545C234.532 93.8545 234 94.3862 234 95.042C234 95.6978 234.532 96.2295 235.188 96.2295Z" fill="#383A48"/>
<path d="M235.188 102.042C235.843 102.042 236.375 101.51 236.375 100.854C236.375 100.199 235.843 99.667 235.188 99.667C234.532 99.667 234 100.199 234 100.854C234 101.51 234.532 102.042 235.188 102.042Z" fill="#383A48"/>
<path d="M235.188 107.854C235.843 107.854 236.375 107.323 236.375 106.667C236.375 106.011 235.843 105.479 235.188 105.479C234.532 105.479 234 106.011 234 106.667C234 107.323 234.532 107.854 235.188 107.854Z" fill="#383A48"/>
<path d="M229.375 96.2295C230.031 96.2295 230.563 95.6978 230.563 95.042C230.563 94.3862 230.031 93.8545 229.375 93.8545C228.719 93.8545 228.188 94.3862 228.188 95.042C228.188 95.6978 228.719 96.2295 229.375 96.2295Z" fill="#383A48"/>
<path d="M229.375 102.042C230.031 102.042 230.563 101.51 230.563 100.854C230.563 100.199 230.031 99.667 229.375 99.667C228.719 99.667 228.188 100.199 228.188 100.854C228.188 101.51 228.719 102.042 229.375 102.042Z" fill="#383A48"/>
<path d="M229.375 107.854C230.031 107.854 230.563 107.323 230.563 106.667C230.563 106.011 230.031 105.479 229.375 105.479C228.719 105.479 228.188 106.011 228.188 106.667C228.188 107.323 228.719 107.854 229.375 107.854Z" fill="#383A48"/>
<path d="M223.562 96.2295C224.218 96.2295 224.75 95.6978 224.75 95.042C224.75 94.3862 224.218 93.8545 223.562 93.8545C222.907 93.8545 222.375 94.3862 222.375 95.042C222.375 95.6978 222.907 96.2295 223.562 96.2295Z" fill="#383A48"/>
<path d="M223.562 102.042C224.218 102.042 224.75 101.51 224.75 100.854C224.75 100.199 224.218 99.667 223.562 99.667C222.907 99.667 222.375 100.199 222.375 100.854C222.375 101.51 222.907 102.042 223.562 102.042Z" fill="#383A48"/>
<path d="M223.562 107.854C224.218 107.854 224.75 107.323 224.75 106.667C224.75 106.011 224.218 105.479 223.562 105.479C222.907 105.479 222.375 106.011 222.375 106.667C222.375 107.323 222.907 107.854 223.562 107.854Z" fill="#383A48"/>
<path d="M217.752 96.2295C218.408 96.2295 218.939 95.6978 218.939 95.042C218.939 94.3862 218.408 93.8545 217.752 93.8545C217.096 93.8545 216.564 94.3862 216.564 95.042C216.564 95.6978 217.096 96.2295 217.752 96.2295Z" fill="#383A48"/>
<path d="M217.752 102.042C218.408 102.042 218.939 101.51 218.939 100.854C218.939 100.199 218.408 99.667 217.752 99.667C217.096 99.667 216.564 100.199 216.564 100.854C216.564 101.51 217.096 102.042 217.752 102.042Z" fill="#383A48"/>
<path d="M217.752 107.854C218.408 107.854 218.939 107.323 218.939 106.667C218.939 106.011 218.408 105.479 217.752 105.479C217.096 105.479 216.564 106.011 216.564 106.667C216.564 107.323 217.096 107.854 217.752 107.854Z" fill="#383A48"/>
<path d="M211.938 96.2295C212.593 96.2295 213.125 95.6978 213.125 95.042C213.125 94.3862 212.593 93.8545 211.938 93.8545C211.282 93.8545 210.75 94.3862 210.75 95.042C210.75 95.6978 211.282 96.2295 211.938 96.2295Z" fill="#383A48"/>
<path d="M211.938 102.042C212.593 102.042 213.125 101.51 213.125 100.854C213.125 100.199 212.593 99.667 211.938 99.667C211.282 99.667 210.75 100.199 210.75 100.854C210.75 101.51 211.282 102.042 211.938 102.042Z" fill="#383A48"/>
<path d="M211.938 107.854C212.593 107.854 213.125 107.323 213.125 106.667C213.125 106.011 212.593 105.479 211.938 105.479C211.282 105.479 210.75 106.011 210.75 106.667C210.75 107.323 211.282 107.854 211.938 107.854Z" fill="#383A48"/>
<path d="M206.125 90.417C206.781 90.417 207.312 89.8853 207.312 89.2295C207.312 88.5737 206.781 88.042 206.125 88.042C205.469 88.042 204.938 88.5737 204.938 89.2295C204.938 89.8853 205.469 90.417 206.125 90.417Z" fill="#383A48"/>
<path d="M206.125 96.2295C206.781 96.2295 207.312 95.6978 207.312 95.042C207.312 94.3862 206.781 93.8545 206.125 93.8545C205.469 93.8545 204.938 94.3862 204.938 95.042C204.938 95.6978 205.469 96.2295 206.125 96.2295Z" fill="#383A48"/>
<path d="M206.125 102.042C206.781 102.042 207.312 101.51 207.312 100.854C207.312 100.199 206.781 99.667 206.125 99.667C205.469 99.667 204.938 100.199 204.938 100.854C204.938 101.51 205.469 102.042 206.125 102.042Z" fill="#383A48"/>
<path d="M200.313 78.792C200.968 78.792 201.5 78.2603 201.5 77.6045C201.5 76.9487 200.968 76.417 200.313 76.417C199.657 76.417 199.125 76.9487 199.125 77.6045C199.125 78.2603 199.657 78.792 200.313 78.792Z" fill="#383A48"/>
<path d="M200.313 84.6045C200.968 84.6045 201.5 84.0728 201.5 83.417C201.5 82.7612 200.968 82.2295 200.313 82.2295C199.657 82.2295 199.125 82.7612 199.125 83.417C199.125 84.0728 199.657 84.6045 200.313 84.6045Z" fill="#383A48"/>
<path d="M200.313 90.417C200.968 90.417 201.5 89.8853 201.5 89.2295C201.5 88.5737 200.968 88.042 200.313 88.042C199.657 88.042 199.125 88.5737 199.125 89.2295C199.125 89.8853 199.657 90.417 200.313 90.417Z" fill="#383A48"/>
<path d="M200.313 96.2295C200.968 96.2295 201.5 95.6978 201.5 95.042C201.5 94.3862 200.968 93.8545 200.313 93.8545C199.657 93.8545 199.125 94.3862 199.125 95.042C199.125 95.6978 199.657 96.2295 200.313 96.2295Z" fill="#383A48"/>
<path d="M223.418 67.0003H219.897C219.314 67.0003 218.855 66.542 218.855 65.9587C218.855 65.3753 219.314 64.917 219.897 64.917H223.418C224.001 64.917 224.46 65.3753 224.46 65.9587C224.46 66.542 224.001 67.0003 223.418 67.0003Z" fill="#383A48"/>
<path d="M322.917 70.1253C322.333 70.1253 321.875 69.667 321.875 69.0837V66.0212C321.875 65.4378 322.333 64.9795 322.917 64.9795C323.5 64.9795 323.958 65.4378 323.958 66.0212V69.0837C323.958 69.667 323.5 70.1253 322.917 70.1253Z" fill="#383A48"/>
<path d="M263.25 51.6261C263.02 51.6261 262.77 51.5428 262.583 51.3761L260.416 49.5844C259.979 49.2094 259.916 48.5636 260.291 48.1261C260.666 47.6886 261.312 47.6261 261.75 48.0011L263.895 49.8136C264.333 50.1886 264.395 50.8345 264.02 51.272C263.833 51.5011 263.541 51.6261 263.25 51.6261Z" fill="#383A48"/>
<path d="M182.501 147L182.126 146.479C180.772 144.542 178.543 143.375 176.168 143.375H160.439C156.439 143.375 153.168 146.625 153.168 150.646V185.062C153.168 188.75 156.168 191.75 159.855 191.75H181.626C182.21 191.75 182.668 191.292 182.668 190.708V147.583C182.689 147.375 182.626 147.167 182.501 147Z" fill="#383A48"/>
<path d="M164.709 139.501V173.917C164.709 177.042 167.23 179.563 170.355 179.563H216.48C219.605 179.563 222.126 177.042 222.126 173.917V148.98C222.126 145.855 219.605 143.334 216.48 143.334H200.147C198.105 143.334 196.209 142.334 195.042 140.667L191.751 135.938C190.584 134.271 188.688 133.271 186.647 133.271H170.917C167.501 133.292 164.709 136.084 164.709 139.501Z" fill="#F6E049"/>
<path d="M216.48 180.625H170.355C166.668 180.625 163.668 177.625 163.668 173.938V139.5C163.668 135.5 166.918 132.229 170.939 132.229H186.668C189.043 132.229 191.272 133.396 192.626 135.334L195.918 140.063C196.876 141.459 198.48 142.271 200.168 142.271H216.501C220.189 142.271 223.189 145.271 223.189 148.959V173.917C223.147 177.625 220.168 180.625 216.48 180.625ZM170.918 134.334C168.064 134.334 165.73 136.646 165.73 139.521V173.938C165.73 176.479 167.793 178.542 170.335 178.542H216.46C219.001 178.542 221.064 176.479 221.064 173.938V148.979C221.064 146.438 219.001 144.375 216.46 144.375H200.126C197.751 144.375 195.522 143.209 194.168 141.271L190.876 136.542C189.918 135.146 188.314 134.334 186.626 134.334H170.918Z" fill="#383A48"/>
<path d="M234.104 162.855C233.542 162.855 233.062 162.396 233.062 161.813C233.062 161.23 233.521 160.771 234.104 160.771C241.313 160.709 251.167 158.792 257.333 150.042C259.625 146.771 260.958 143.188 261.563 139.771C258.688 138.126 256.146 135.896 254.146 133.251C252.542 131.105 252.229 128.792 253.271 126.896C254.208 125.188 256.167 124.167 258.125 124.334C260.313 124.521 262.083 126.084 262.979 128.626C263.896 131.251 264.271 134.792 263.833 138.605C264.896 139.126 266 139.563 267.146 139.917C271.479 141.251 275.833 141.167 279.417 139.688C282.271 138.501 284.521 136.459 285.875 133.751C287.458 130.646 287.917 126.771 287.292 122.209C287.208 121.646 287.604 121.105 288.188 121.042C288.75 120.959 289.292 121.355 289.354 121.938C290.688 131.501 287.354 138.688 280.208 141.626C276.167 143.292 271.313 143.396 266.521 141.917C265.479 141.605 264.479 141.209 263.5 140.751C262.813 144.251 261.396 147.896 259.063 151.23C255.354 156.459 248.042 162.709 234.104 162.855ZM257.688 126.417C256.625 126.417 255.604 127.001 255.083 127.938C254.438 129.105 254.688 130.542 255.792 132.021C257.438 134.209 259.5 136.084 261.833 137.542C262.104 134.396 261.75 131.521 260.979 129.334C260.375 127.584 259.292 126.563 257.917 126.438C257.854 126.417 257.771 126.417 257.688 126.417Z" fill="#383A48"/>
<path d="M233.916 152.166C237.145 152.104 240.062 151.708 242.687 151.041Z" fill="#80ABFF"/>
<path d="M233.917 153.208C233.354 153.208 232.896 152.749 232.875 152.187C232.875 151.604 233.312 151.145 233.896 151.124C236.937 151.062 239.812 150.708 242.437 150.041C243 149.895 243.562 150.229 243.708 150.791C243.854 151.354 243.521 151.916 242.958 152.062C240.167 152.749 237.146 153.145 233.917 153.208C233.917 153.208 233.937 153.208 233.917 153.208Z" fill="#383A48"/>
<path d="M344.043 128.98C343.564 128.875 343.085 129.125 342.877 129.563C342.835 129.667 338.314 139.459 328.585 146.98C322.397 151.771 315.439 154.605 307.96 155.396C303.606 155.855 299.335 157.125 294.918 159.23C289.189 161.98 283.793 165.855 278.106 169.938C267.814 177.355 256.147 185.73 239.064 189.646C238.543 189.771 238.21 190.25 238.252 190.771C238.314 191.292 238.752 191.688 239.293 191.688H343.835C344.418 191.688 344.877 191.23 344.877 190.646V130C344.856 129.5 344.522 129.084 344.043 128.98Z" fill="#F3F6E6"/>
<path d="M330.147 147.354C326.98 140.75 320.189 136.479 312.876 136.479C302.314 136.479 293.73 145.063 293.73 155.625C293.73 157.271 293.939 158.875 294.335 160.438C294.418 160.729 294.626 160.979 294.897 161.125C295.043 161.188 295.189 161.229 295.335 161.229C295.48 161.229 295.647 161.188 295.793 161.125C300.001 159.104 304.043 157.917 308.168 157.479C316.043 156.625 323.335 153.667 329.855 148.625C330.23 148.334 330.355 147.792 330.147 147.354Z" fill="#4053FA"/>
<path d="M330.147 147.354C330.001 147.062 329.751 146.854 329.439 146.791C329.126 146.729 328.814 146.791 328.564 146.979C322.376 151.77 315.418 154.604 307.939 155.395C303.585 155.854 299.314 157.124 294.897 159.229C294.439 159.437 294.21 159.937 294.335 160.437C296.522 168.874 304.147 174.77 312.876 174.77C323.439 174.77 332.022 166.187 332.022 155.624C332.022 152.729 331.397 149.937 330.147 147.354Z" fill="#80ABFF"/>
<path d="M178.646 68.4583L175.188 66.1042L177.271 62.4792C177.479 62.1042 177.458 61.6458 177.188 61.3125C176.917 60.9792 176.479 60.8333 176.063 60.9583L172.063 62.1875L170.521 58.2917C170.354 57.8958 169.979 57.625 169.542 57.625C169.104 57.625 168.729 57.8958 168.563 58.2917L167.021 62.1875L163.021 60.9583C162.604 60.8333 162.167 60.9792 161.896 61.3125C161.625 61.6458 161.604 62.1042 161.813 62.4792L163.896 66.1042L160.438 68.4583C160.083 68.7083 159.917 69.125 160.021 69.5417C160.125 69.9583 160.458 70.2708 160.875 70.3333L165 70.9583L164.688 75.125C164.667 75.5417 164.896 75.9583 165.271 76.1458C165.417 76.2083 165.563 76.25 165.729 76.25C165.979 76.25 166.25 76.1458 166.438 75.9792L169.5 73.1458L172.563 75.9792C172.875 76.2708 173.333 76.3333 173.729 76.1458C174.104 75.9583 174.354 75.5625 174.313 75.125L174 70.9583L178.125 70.3333C178.542 70.2708 178.896 69.9583 178.979 69.5417C179.167 69.125 179 68.6875 178.646 68.4583Z" fill="#F6E049"/>
</svg>
