<svg width="400" height="225" viewBox="0 0 400 225" fill="none" xmlns="http://www.w3.org/2000/svg">
<g clip-path="url(#clip0)">
<path d="M400.938 -1.25H0V225H400.938V-1.25Z" fill="#EAD22B"/>
<path d="M126.54 31.7702C126.436 31.2914 126.019 30.9375 125.519 30.9375H42.9172C42.3336 30.9375 41.875 31.3955 41.875 31.9784V193.959C41.875 194.5 42.271 194.938 42.8129 195C42.8546 195 42.8963 195 42.9172 195C43.3966 195 43.8343 194.667 43.9385 194.167C52.505 153.698 60.7798 144.372 73.2857 130.237C77.0792 125.969 81.3521 121.119 86.1043 114.874C94.1498 104.277 94.921 92.2241 95.6714 80.5664C96.2758 71.2818 96.8386 62.5384 100.736 54.378C105.176 45.1767 113.159 38.3485 125.915 32.936C126.373 32.7486 126.644 32.249 126.54 31.7702Z" fill="#F3F6E6"/>
<path d="M231.631 39.6875H163.994C163.169 39.6875 162.5 40.3562 162.5 41.1811V108.819C162.5 109.644 163.169 110.312 163.994 110.312H231.631C232.456 110.312 233.125 109.644 233.125 108.819V41.1811C233.125 40.3562 232.456 39.6875 231.631 39.6875Z" fill="#383A48"/>
<path d="M223.961 31.666H128.852V100.52H223.961V31.666Z" fill="#F3F6E6"/>
<path d="M223.961 101.563H128.852C128.715 101.564 128.579 101.538 128.452 101.486C128.326 101.434 128.211 101.357 128.114 101.26C128.017 101.163 127.941 101.048 127.889 100.921C127.837 100.794 127.811 100.658 127.813 100.521V31.6667C127.811 31.5295 127.837 31.3935 127.889 31.2665C127.941 31.1395 128.017 31.0241 128.114 30.9271C128.211 30.8301 128.326 30.7534 128.452 30.7016C128.579 30.6497 128.715 30.6237 128.852 30.6251H223.961C224.098 30.6237 224.234 30.6497 224.36 30.7016C224.487 30.7534 224.602 30.8301 224.699 30.9271C224.796 31.0241 224.872 31.1395 224.924 31.2665C224.975 31.3935 225.001 31.5295 225 31.6667V100.521C225.001 100.658 224.975 100.794 224.924 100.921C224.872 101.048 224.796 101.163 224.699 101.26C224.602 101.357 224.487 101.434 224.36 101.486C224.234 101.538 224.098 101.564 223.961 101.563V101.563ZM129.891 99.4792H222.922V32.7084H129.891V99.4792Z" fill="#383A48"/>
<path d="M216.937 40.375H135.875V91.8125H216.937V40.375Z" fill="#F3F6E6"/>
<path d="M216.937 92.8539H135.875C135.738 92.8553 135.602 92.8293 135.476 92.7774C135.349 92.7255 135.234 92.6489 135.137 92.5519C135.041 92.4549 134.964 92.3395 134.912 92.2125C134.861 92.0855 134.835 91.9494 134.836 91.8122V40.3747C134.835 40.2376 134.861 40.1015 134.912 39.9745C134.964 39.8475 135.041 39.7321 135.137 39.6351C135.234 39.5381 135.349 39.4614 135.476 39.4096C135.602 39.3577 135.738 39.3317 135.875 39.3331H216.937C217.074 39.3317 217.21 39.3577 217.336 39.4096C217.463 39.4614 217.578 39.5381 217.675 39.6351C217.772 39.7321 217.848 39.8475 217.9 39.9745C217.952 40.1015 217.978 40.2376 217.976 40.3747V91.8122C217.978 91.9494 217.952 92.0855 217.9 92.2125C217.848 92.3395 217.772 92.4549 217.675 92.5519C217.578 92.6489 217.463 92.7255 217.336 92.7774C217.21 92.8293 217.074 92.8553 216.937 92.8539V92.8539ZM136.914 90.7706H215.898V41.4164H136.914V90.7706Z" fill="#383A48"/>
<path d="M210.489 64.2614L201.229 55.4489L191.969 64.2614V31.3613H210.489V64.2614Z" fill="#E0719E"/>
<path d="M210.489 65.3109C210.215 65.3087 209.952 65.2038 209.753 65.0171L201.229 56.897L192.705 65.0171C192.558 65.1609 192.372 65.2577 192.169 65.295C191.967 65.3324 191.758 65.3087 191.569 65.2269C191.382 65.1439 191.222 65.0086 191.11 64.8373C190.998 64.6661 190.938 64.4662 190.938 64.2618V31.3617C190.936 31.2235 190.962 31.0865 191.015 30.9586C191.067 30.8307 191.145 30.7145 191.243 30.6168C191.341 30.5191 191.457 30.4418 191.586 30.3896C191.714 30.3374 191.851 30.3112 191.99 30.3126H210.51C210.649 30.3112 210.786 30.3374 210.915 30.3896C211.043 30.4418 211.159 30.5191 211.257 30.6168C211.355 30.7145 211.433 30.8307 211.485 30.9586C211.538 31.0865 211.564 31.2235 211.563 31.3617V64.2618C211.562 64.4662 211.502 64.6661 211.39 64.8373C211.278 65.0086 211.119 65.1439 210.931 65.2269C210.79 65.2814 210.64 65.3099 210.489 65.3109ZM201.229 54.4001C201.502 54.4061 201.764 54.5105 201.966 54.6939L209.437 61.8068V32.4108H193.021V61.8068L200.492 54.6939C200.692 54.5072 200.955 54.4023 201.229 54.4001V54.4001Z" fill="#383A48"/>
<path d="M326.605 137.806C326.355 137.764 300.868 134.069 275.111 132.546C259.952 131.648 247.667 131.648 238.567 132.566C226.636 133.777 220.223 136.532 218.932 140.978C213.476 159.952 206.98 172.581 198.463 180.763C190.613 188.298 180.972 192.243 167.188 193.538C166.626 193.6 166.23 194.059 166.251 194.623C166.272 195.187 166.73 195.625 167.292 195.625H326.459C327.042 195.625 327.5 195.166 327.5 194.581V138.828C327.5 138.307 327.125 137.868 326.605 137.806Z" fill="#F3F6E6"/>
<path d="M325.202 148.025C325.78 148.025 326.249 147.558 326.249 146.981C326.249 146.405 325.78 145.938 325.202 145.938C324.625 145.938 324.156 146.405 324.156 146.981C324.156 147.558 324.625 148.025 325.202 148.025Z" fill="#383A48"/>
<path d="M325.202 153.183C325.78 153.183 326.249 152.715 326.249 152.139C326.249 151.562 325.78 151.095 325.202 151.095C324.625 151.095 324.156 151.562 324.156 152.139C324.156 152.715 324.625 153.183 325.202 153.183Z" fill="#383A48"/>
<path d="M325.202 158.34C325.78 158.34 326.249 157.872 326.249 157.296C326.249 156.719 325.78 156.252 325.202 156.252C324.625 156.252 324.156 156.719 324.156 157.296C324.156 157.872 324.625 158.34 325.202 158.34Z" fill="#383A48"/>
<path d="M325.202 163.476C325.78 163.476 326.249 163.008 326.249 162.432C326.249 161.855 325.78 161.388 325.202 161.388C324.625 161.388 324.156 161.855 324.156 162.432C324.156 163.008 324.625 163.476 325.202 163.476Z" fill="#383A48"/>
<path d="M325.202 168.633C325.78 168.633 326.249 168.165 326.249 167.589C326.249 167.012 325.78 166.545 325.202 166.545C324.625 166.545 324.156 167.012 324.156 167.589C324.156 168.165 324.625 168.633 325.202 168.633Z" fill="#383A48"/>
<path d="M325.202 173.789C325.78 173.789 326.249 173.322 326.249 172.745C326.249 172.169 325.78 171.701 325.202 171.701C324.625 171.701 324.156 172.169 324.156 172.745C324.156 173.322 324.625 173.789 325.202 173.789Z" fill="#383A48"/>
<path d="M325.202 178.926C325.78 178.926 326.249 178.458 326.249 177.882C326.249 177.305 325.78 176.838 325.202 176.838C324.625 176.838 324.156 177.305 324.156 177.882C324.156 178.458 324.625 178.926 325.202 178.926Z" fill="#383A48"/>
<path d="M325.202 184.082C325.78 184.082 326.249 183.615 326.249 183.038C326.249 182.462 325.78 181.994 325.202 181.994C324.625 181.994 324.156 182.462 324.156 183.038C324.156 183.615 324.625 184.082 325.202 184.082Z" fill="#383A48"/>
<path d="M325.202 189.239C325.78 189.239 326.249 188.772 326.249 188.195C326.249 187.619 325.78 187.151 325.202 187.151C324.625 187.151 324.156 187.619 324.156 188.195C324.156 188.772 324.625 189.239 325.202 189.239Z" fill="#383A48"/>
<path d="M325.202 194.375C325.78 194.375 326.249 193.908 326.249 193.331C326.249 192.754 325.78 192.287 325.202 192.287C324.625 192.287 324.156 192.754 324.156 193.331C324.156 193.908 324.625 194.375 325.202 194.375Z" fill="#383A48"/>
<path d="M320.035 148.025C320.612 148.025 321.081 147.558 321.081 146.981C321.081 146.405 320.612 145.938 320.035 145.938C319.457 145.938 318.988 146.405 318.988 146.981C318.988 147.558 319.457 148.025 320.035 148.025Z" fill="#383A48"/>
<path d="M320.035 153.183C320.612 153.183 321.081 152.715 321.081 152.139C321.081 151.562 320.612 151.095 320.035 151.095C319.457 151.095 318.988 151.562 318.988 152.139C318.988 152.715 319.457 153.183 320.035 153.183Z" fill="#383A48"/>
<path d="M320.035 158.34C320.612 158.34 321.081 157.872 321.081 157.296C321.081 156.719 320.612 156.252 320.035 156.252C319.457 156.252 318.988 156.719 318.988 157.296C318.988 157.872 319.457 158.34 320.035 158.34Z" fill="#383A48"/>
<path d="M320.035 163.476C320.612 163.476 321.081 163.008 321.081 162.432C321.081 161.855 320.612 161.388 320.035 161.388C319.457 161.388 318.988 161.855 318.988 162.432C318.988 163.008 319.457 163.476 320.035 163.476Z" fill="#383A48"/>
<path d="M320.035 168.633C320.612 168.633 321.081 168.165 321.081 167.589C321.081 167.012 320.612 166.545 320.035 166.545C319.457 166.545 318.988 167.012 318.988 167.589C318.988 168.165 319.457 168.633 320.035 168.633Z" fill="#383A48"/>
<path d="M320.035 173.789C320.612 173.789 321.081 173.322 321.081 172.745C321.081 172.169 320.612 171.701 320.035 171.701C319.457 171.701 318.988 172.169 318.988 172.745C318.988 173.322 319.457 173.789 320.035 173.789Z" fill="#383A48"/>
<path d="M320.035 178.926C320.612 178.926 321.081 178.458 321.081 177.882C321.081 177.305 320.612 176.838 320.035 176.838C319.457 176.838 318.988 177.305 318.988 177.882C318.988 178.458 319.457 178.926 320.035 178.926Z" fill="#383A48"/>
<path d="M320.035 184.082C320.612 184.082 321.081 183.615 321.081 183.038C321.081 182.462 320.612 181.994 320.035 181.994C319.457 181.994 318.988 182.462 318.988 183.038C318.988 183.615 319.457 184.082 320.035 184.082Z" fill="#383A48"/>
<path d="M320.035 189.239C320.612 189.239 321.081 188.772 321.081 188.195C321.081 187.619 320.612 187.151 320.035 187.151C319.457 187.151 318.988 187.619 318.988 188.195C318.988 188.772 319.457 189.239 320.035 189.239Z" fill="#383A48"/>
<path d="M320.035 194.375C320.612 194.375 321.081 193.908 321.081 193.331C321.081 192.754 320.612 192.287 320.035 192.287C319.457 192.287 318.988 192.754 318.988 193.331C318.988 193.908 319.457 194.375 320.035 194.375Z" fill="#383A48"/>
<path d="M314.867 148.025C315.444 148.025 315.913 147.558 315.913 146.981C315.913 146.405 315.444 145.938 314.867 145.938C314.289 145.938 313.82 146.405 313.82 146.981C313.82 147.558 314.289 148.025 314.867 148.025Z" fill="#383A48"/>
<path d="M314.867 153.183C315.444 153.183 315.913 152.715 315.913 152.139C315.913 151.562 315.444 151.095 314.867 151.095C314.289 151.095 313.82 151.562 313.82 152.139C313.82 152.715 314.289 153.183 314.867 153.183Z" fill="#383A48"/>
<path d="M314.867 158.34C315.444 158.34 315.913 157.872 315.913 157.296C315.913 156.719 315.444 156.252 314.867 156.252C314.289 156.252 313.82 156.719 313.82 157.296C313.82 157.872 314.289 158.34 314.867 158.34Z" fill="#383A48"/>
<path d="M314.867 163.476C315.444 163.476 315.913 163.008 315.913 162.432C315.913 161.855 315.444 161.388 314.867 161.388C314.289 161.388 313.82 161.855 313.82 162.432C313.82 163.008 314.289 163.476 314.867 163.476Z" fill="#383A48"/>
<path d="M314.867 168.633C315.444 168.633 315.913 168.165 315.913 167.589C315.913 167.012 315.444 166.545 314.867 166.545C314.289 166.545 313.82 167.012 313.82 167.589C313.82 168.165 314.289 168.633 314.867 168.633Z" fill="#383A48"/>
<path d="M314.867 173.789C315.444 173.789 315.913 173.322 315.913 172.745C315.913 172.169 315.444 171.701 314.867 171.701C314.289 171.701 313.82 172.169 313.82 172.745C313.82 173.322 314.289 173.789 314.867 173.789Z" fill="#383A48"/>
<path d="M314.867 178.926C315.444 178.926 315.913 178.458 315.913 177.882C315.913 177.305 315.444 176.838 314.867 176.838C314.289 176.838 313.82 177.305 313.82 177.882C313.82 178.458 314.289 178.926 314.867 178.926Z" fill="#383A48"/>
<path d="M314.867 184.082C315.444 184.082 315.913 183.615 315.913 183.038C315.913 182.462 315.444 181.994 314.867 181.994C314.289 181.994 313.82 182.462 313.82 183.038C313.82 183.615 314.289 184.082 314.867 184.082Z" fill="#383A48"/>
<path d="M314.867 189.239C315.444 189.239 315.913 188.772 315.913 188.195C315.913 187.619 315.444 187.151 314.867 187.151C314.289 187.151 313.82 187.619 313.82 188.195C313.82 188.772 314.289 189.239 314.867 189.239Z" fill="#383A48"/>
<path d="M314.867 194.375C315.444 194.375 315.913 193.908 315.913 193.331C315.913 192.754 315.444 192.287 314.867 192.287C314.289 192.287 313.82 192.754 313.82 193.331C313.82 193.908 314.289 194.375 314.867 194.375Z" fill="#383A48"/>
<path d="M309.718 148.025C310.296 148.025 310.764 147.558 310.764 146.981C310.764 146.405 310.296 145.938 309.718 145.938C309.14 145.938 308.672 146.405 308.672 146.981C308.672 147.558 309.14 148.025 309.718 148.025Z" fill="#383A48"/>
<path d="M309.718 153.183C310.296 153.183 310.764 152.715 310.764 152.139C310.764 151.562 310.296 151.095 309.718 151.095C309.14 151.095 308.672 151.562 308.672 152.139C308.672 152.715 309.14 153.183 309.718 153.183Z" fill="#383A48"/>
<path d="M309.718 158.34C310.296 158.34 310.764 157.872 310.764 157.296C310.764 156.719 310.296 156.252 309.718 156.252C309.14 156.252 308.672 156.719 308.672 157.296C308.672 157.872 309.14 158.34 309.718 158.34Z" fill="#383A48"/>
<path d="M309.718 163.476C310.296 163.476 310.764 163.008 310.764 162.432C310.764 161.855 310.296 161.388 309.718 161.388C309.14 161.388 308.672 161.855 308.672 162.432C308.672 163.008 309.14 163.476 309.718 163.476Z" fill="#383A48"/>
<path d="M309.718 168.633C310.296 168.633 310.764 168.165 310.764 167.589C310.764 167.012 310.296 166.545 309.718 166.545C309.14 166.545 308.672 167.012 308.672 167.589C308.672 168.165 309.14 168.633 309.718 168.633Z" fill="#383A48"/>
<path d="M309.718 173.789C310.296 173.789 310.764 173.322 310.764 172.745C310.764 172.169 310.296 171.701 309.718 171.701C309.14 171.701 308.672 172.169 308.672 172.745C308.672 173.322 309.14 173.789 309.718 173.789Z" fill="#383A48"/>
<path d="M309.718 178.926C310.296 178.926 310.764 178.458 310.764 177.882C310.764 177.305 310.296 176.838 309.718 176.838C309.14 176.838 308.672 177.305 308.672 177.882C308.672 178.458 309.14 178.926 309.718 178.926Z" fill="#383A48"/>
<path d="M309.718 184.082C310.296 184.082 310.764 183.615 310.764 183.038C310.764 182.462 310.296 181.994 309.718 181.994C309.14 181.994 308.672 182.462 308.672 183.038C308.672 183.615 309.14 184.082 309.718 184.082Z" fill="#383A48"/>
<path d="M309.718 189.239C310.296 189.239 310.764 188.772 310.764 188.195C310.764 187.619 310.296 187.151 309.718 187.151C309.14 187.151 308.672 187.619 308.672 188.195C308.672 188.772 309.14 189.239 309.718 189.239Z" fill="#383A48"/>
<path d="M309.718 194.375C310.296 194.375 310.764 193.908 310.764 193.331C310.764 192.754 310.296 192.287 309.718 192.287C309.14 192.287 308.672 192.754 308.672 193.331C308.672 193.908 309.14 194.375 309.718 194.375Z" fill="#383A48"/>
<path d="M304.55 148.025C305.128 148.025 305.596 147.558 305.596 146.981C305.596 146.405 305.128 145.938 304.55 145.938C303.972 145.938 303.504 146.405 303.504 146.981C303.504 147.558 303.972 148.025 304.55 148.025Z" fill="#383A48"/>
<path d="M304.55 153.183C305.128 153.183 305.596 152.715 305.596 152.139C305.596 151.562 305.128 151.095 304.55 151.095C303.972 151.095 303.504 151.562 303.504 152.139C303.504 152.715 303.972 153.183 304.55 153.183Z" fill="#383A48"/>
<path d="M304.55 158.34C305.128 158.34 305.596 157.872 305.596 157.296C305.596 156.719 305.128 156.252 304.55 156.252C303.972 156.252 303.504 156.719 303.504 157.296C303.504 157.872 303.972 158.34 304.55 158.34Z" fill="#383A48"/>
<path d="M304.55 163.476C305.128 163.476 305.596 163.008 305.596 162.432C305.596 161.855 305.128 161.388 304.55 161.388C303.972 161.388 303.504 161.855 303.504 162.432C303.504 163.008 303.972 163.476 304.55 163.476Z" fill="#383A48"/>
<path d="M304.55 168.633C305.128 168.633 305.596 168.165 305.596 167.589C305.596 167.012 305.128 166.545 304.55 166.545C303.972 166.545 303.504 167.012 303.504 167.589C303.504 168.165 303.972 168.633 304.55 168.633Z" fill="#383A48"/>
<path d="M304.55 173.789C305.128 173.789 305.596 173.322 305.596 172.745C305.596 172.169 305.128 171.701 304.55 171.701C303.972 171.701 303.504 172.169 303.504 172.745C303.504 173.322 303.972 173.789 304.55 173.789Z" fill="#383A48"/>
<path d="M304.55 178.926C305.128 178.926 305.596 178.458 305.596 177.882C305.596 177.305 305.128 176.838 304.55 176.838C303.972 176.838 303.504 177.305 303.504 177.882C303.504 178.458 303.972 178.926 304.55 178.926Z" fill="#383A48"/>
<path d="M304.55 184.082C305.128 184.082 305.596 183.615 305.596 183.038C305.596 182.462 305.128 181.994 304.55 181.994C303.972 181.994 303.504 182.462 303.504 183.038C303.504 183.615 303.972 184.082 304.55 184.082Z" fill="#383A48"/>
<path d="M304.55 189.239C305.128 189.239 305.596 188.772 305.596 188.195C305.596 187.619 305.128 187.151 304.55 187.151C303.972 187.151 303.504 187.619 303.504 188.195C303.504 188.772 303.972 189.239 304.55 189.239Z" fill="#383A48"/>
<path d="M304.55 194.375C305.128 194.375 305.596 193.908 305.596 193.331C305.596 192.754 305.128 192.287 304.55 192.287C303.972 192.287 303.504 192.754 303.504 193.331C303.504 193.908 303.972 194.375 304.55 194.375Z" fill="#383A48"/>
<path d="M299.382 148.025C299.96 148.025 300.428 147.558 300.428 146.981C300.428 146.405 299.96 145.938 299.382 145.938C298.804 145.938 298.336 146.405 298.336 146.981C298.336 147.558 298.804 148.025 299.382 148.025Z" fill="#383A48"/>
<path d="M299.382 153.183C299.96 153.183 300.428 152.715 300.428 152.139C300.428 151.562 299.96 151.095 299.382 151.095C298.804 151.095 298.336 151.562 298.336 152.139C298.336 152.715 298.804 153.183 299.382 153.183Z" fill="#383A48"/>
<path d="M299.382 158.34C299.96 158.34 300.428 157.872 300.428 157.296C300.428 156.719 299.96 156.252 299.382 156.252C298.804 156.252 298.336 156.719 298.336 157.296C298.336 157.872 298.804 158.34 299.382 158.34Z" fill="#383A48"/>
<path d="M299.382 163.476C299.96 163.476 300.428 163.008 300.428 162.432C300.428 161.855 299.96 161.388 299.382 161.388C298.804 161.388 298.336 161.855 298.336 162.432C298.336 163.008 298.804 163.476 299.382 163.476Z" fill="#383A48"/>
<path d="M299.382 168.633C299.96 168.633 300.428 168.165 300.428 167.589C300.428 167.012 299.96 166.545 299.382 166.545C298.804 166.545 298.336 167.012 298.336 167.589C298.336 168.165 298.804 168.633 299.382 168.633Z" fill="#383A48"/>
<path d="M299.382 173.789C299.96 173.789 300.428 173.322 300.428 172.745C300.428 172.169 299.96 171.701 299.382 171.701C298.804 171.701 298.336 172.169 298.336 172.745C298.336 173.322 298.804 173.789 299.382 173.789Z" fill="#383A48"/>
<path d="M299.382 178.926C299.96 178.926 300.428 178.458 300.428 177.882C300.428 177.305 299.96 176.838 299.382 176.838C298.804 176.838 298.336 177.305 298.336 177.882C298.336 178.458 298.804 178.926 299.382 178.926Z" fill="#383A48"/>
<path d="M299.382 184.082C299.96 184.082 300.428 183.615 300.428 183.038C300.428 182.462 299.96 181.994 299.382 181.994C298.804 181.994 298.336 182.462 298.336 183.038C298.336 183.615 298.804 184.082 299.382 184.082Z" fill="#383A48"/>
<path d="M299.382 189.239C299.96 189.239 300.428 188.772 300.428 188.195C300.428 187.619 299.96 187.151 299.382 187.151C298.804 187.151 298.336 187.619 298.336 188.195C298.336 188.772 298.804 189.239 299.382 189.239Z" fill="#383A48"/>
<path d="M299.382 194.375C299.96 194.375 300.428 193.908 300.428 193.331C300.428 192.754 299.96 192.287 299.382 192.287C298.804 192.287 298.336 192.754 298.336 193.331C298.336 193.908 298.804 194.375 299.382 194.375Z" fill="#383A48"/>
<path d="M294.234 148.025C294.812 148.025 295.28 147.558 295.28 146.981C295.28 146.405 294.812 145.938 294.234 145.938C293.656 145.938 293.188 146.405 293.188 146.981C293.188 147.558 293.656 148.025 294.234 148.025Z" fill="#383A48"/>
<path d="M294.234 153.183C294.812 153.183 295.28 152.715 295.28 152.139C295.28 151.562 294.812 151.095 294.234 151.095C293.656 151.095 293.188 151.562 293.188 152.139C293.188 152.715 293.656 153.183 294.234 153.183Z" fill="#383A48"/>
<path d="M294.234 158.34C294.812 158.34 295.28 157.872 295.28 157.296C295.28 156.719 294.812 156.252 294.234 156.252C293.656 156.252 293.188 156.719 293.188 157.296C293.188 157.872 293.656 158.34 294.234 158.34Z" fill="#383A48"/>
<path d="M294.234 163.476C294.812 163.476 295.28 163.008 295.28 162.432C295.28 161.855 294.812 161.388 294.234 161.388C293.656 161.388 293.188 161.855 293.188 162.432C293.188 163.008 293.656 163.476 294.234 163.476Z" fill="#383A48"/>
<path d="M294.234 168.633C294.812 168.633 295.28 168.165 295.28 167.589C295.28 167.012 294.812 166.545 294.234 166.545C293.656 166.545 293.188 167.012 293.188 167.589C293.188 168.165 293.656 168.633 294.234 168.633Z" fill="#383A48"/>
<path d="M294.234 173.789C294.812 173.789 295.28 173.322 295.28 172.745C295.28 172.169 294.812 171.701 294.234 171.701C293.656 171.701 293.188 172.169 293.188 172.745C293.188 173.322 293.656 173.789 294.234 173.789Z" fill="#383A48"/>
<path d="M294.234 178.926C294.812 178.926 295.28 178.458 295.28 177.882C295.28 177.305 294.812 176.838 294.234 176.838C293.656 176.838 293.188 177.305 293.188 177.882C293.188 178.458 293.656 178.926 294.234 178.926Z" fill="#383A48"/>
<path d="M294.234 184.082C294.812 184.082 295.28 183.615 295.28 183.038C295.28 182.462 294.812 181.994 294.234 181.994C293.656 181.994 293.188 182.462 293.188 183.038C293.188 183.615 293.656 184.082 294.234 184.082Z" fill="#383A48"/>
<path d="M294.234 189.239C294.812 189.239 295.28 188.772 295.28 188.195C295.28 187.619 294.812 187.151 294.234 187.151C293.656 187.151 293.188 187.619 293.188 188.195C293.188 188.772 293.656 189.239 294.234 189.239Z" fill="#383A48"/>
<path d="M294.234 194.375C294.812 194.375 295.28 193.908 295.28 193.331C295.28 192.754 294.812 192.287 294.234 192.287C293.656 192.287 293.188 192.754 293.188 193.331C293.188 193.908 293.656 194.375 294.234 194.375Z" fill="#383A48"/>
<path d="M289.066 148.025C289.644 148.025 290.112 147.558 290.112 146.981C290.112 146.405 289.644 145.938 289.066 145.938C288.488 145.938 288.02 146.405 288.02 146.981C288.02 147.558 288.488 148.025 289.066 148.025Z" fill="#383A48"/>
<path d="M289.066 153.183C289.644 153.183 290.112 152.715 290.112 152.139C290.112 151.562 289.644 151.095 289.066 151.095C288.488 151.095 288.02 151.562 288.02 152.139C288.02 152.715 288.488 153.183 289.066 153.183Z" fill="#383A48"/>
<path d="M289.066 158.34C289.644 158.34 290.112 157.872 290.112 157.296C290.112 156.719 289.644 156.252 289.066 156.252C288.488 156.252 288.02 156.719 288.02 157.296C288.02 157.872 288.488 158.34 289.066 158.34Z" fill="#383A48"/>
<path d="M289.066 163.476C289.644 163.476 290.112 163.008 290.112 162.432C290.112 161.855 289.644 161.388 289.066 161.388C288.488 161.388 288.02 161.855 288.02 162.432C288.02 163.008 288.488 163.476 289.066 163.476Z" fill="#383A48"/>
<path d="M289.066 168.633C289.644 168.633 290.112 168.165 290.112 167.589C290.112 167.012 289.644 166.545 289.066 166.545C288.488 166.545 288.02 167.012 288.02 167.589C288.02 168.165 288.488 168.633 289.066 168.633Z" fill="#383A48"/>
<path d="M289.066 173.789C289.644 173.789 290.112 173.322 290.112 172.745C290.112 172.169 289.644 171.701 289.066 171.701C288.488 171.701 288.02 172.169 288.02 172.745C288.02 173.322 288.488 173.789 289.066 173.789Z" fill="#383A48"/>
<path d="M289.066 178.926C289.644 178.926 290.112 178.458 290.112 177.882C290.112 177.305 289.644 176.838 289.066 176.838C288.488 176.838 288.02 177.305 288.02 177.882C288.02 178.458 288.488 178.926 289.066 178.926Z" fill="#383A48"/>
<path d="M289.066 184.082C289.644 184.082 290.112 183.615 290.112 183.038C290.112 182.462 289.644 181.994 289.066 181.994C288.488 181.994 288.02 182.462 288.02 183.038C288.02 183.615 288.488 184.082 289.066 184.082Z" fill="#383A48"/>
<path d="M289.066 189.239C289.644 189.239 290.112 188.772 290.112 188.195C290.112 187.619 289.644 187.151 289.066 187.151C288.488 187.151 288.02 187.619 288.02 188.195C288.02 188.772 288.488 189.239 289.066 189.239Z" fill="#383A48"/>
<path d="M289.066 194.375C289.644 194.375 290.112 193.908 290.112 193.331C290.112 192.754 289.644 192.287 289.066 192.287C288.488 192.287 288.02 192.754 288.02 193.331C288.02 193.908 288.488 194.375 289.066 194.375Z" fill="#383A48"/>
<path d="M283.898 148.025C284.476 148.025 284.944 147.558 284.944 146.981C284.944 146.405 284.476 145.938 283.898 145.938C283.32 145.938 282.852 146.405 282.852 146.981C282.852 147.558 283.32 148.025 283.898 148.025Z" fill="#383A48"/>
<path d="M283.898 153.183C284.476 153.183 284.944 152.715 284.944 152.139C284.944 151.562 284.476 151.095 283.898 151.095C283.32 151.095 282.852 151.562 282.852 152.139C282.852 152.715 283.32 153.183 283.898 153.183Z" fill="#383A48"/>
<path d="M283.898 158.34C284.476 158.34 284.944 157.872 284.944 157.296C284.944 156.719 284.476 156.252 283.898 156.252C283.32 156.252 282.852 156.719 282.852 157.296C282.852 157.872 283.32 158.34 283.898 158.34Z" fill="#383A48"/>
<path d="M283.898 163.476C284.476 163.476 284.944 163.008 284.944 162.432C284.944 161.855 284.476 161.388 283.898 161.388C283.32 161.388 282.852 161.855 282.852 162.432C282.852 163.008 283.32 163.476 283.898 163.476Z" fill="#383A48"/>
<path d="M283.898 168.633C284.476 168.633 284.944 168.165 284.944 167.589C284.944 167.012 284.476 166.545 283.898 166.545C283.32 166.545 282.852 167.012 282.852 167.589C282.852 168.165 283.32 168.633 283.898 168.633Z" fill="#383A48"/>
<path d="M283.898 173.789C284.476 173.789 284.944 173.322 284.944 172.745C284.944 172.169 284.476 171.701 283.898 171.701C283.32 171.701 282.852 172.169 282.852 172.745C282.852 173.322 283.32 173.789 283.898 173.789Z" fill="#383A48"/>
<path d="M283.898 178.926C284.476 178.926 284.944 178.458 284.944 177.882C284.944 177.305 284.476 176.838 283.898 176.838C283.32 176.838 282.852 177.305 282.852 177.882C282.852 178.458 283.32 178.926 283.898 178.926Z" fill="#383A48"/>
<path d="M283.898 184.082C284.476 184.082 284.944 183.615 284.944 183.038C284.944 182.462 284.476 181.994 283.898 181.994C283.32 181.994 282.852 182.462 282.852 183.038C282.852 183.615 283.32 184.082 283.898 184.082Z" fill="#383A48"/>
<path d="M283.898 189.239C284.476 189.239 284.944 188.772 284.944 188.195C284.944 187.619 284.476 187.151 283.898 187.151C283.32 187.151 282.852 187.619 282.852 188.195C282.852 188.772 283.32 189.239 283.898 189.239Z" fill="#383A48"/>
<path d="M283.898 194.375C284.476 194.375 284.944 193.908 284.944 193.331C284.944 192.754 284.476 192.287 283.898 192.287C283.32 192.287 282.852 192.754 282.852 193.331C282.852 193.908 283.32 194.375 283.898 194.375Z" fill="#383A48"/>
<path d="M278.749 148.025C279.327 148.025 279.796 147.558 279.796 146.981C279.796 146.405 279.327 145.938 278.749 145.938C278.172 145.938 277.703 146.405 277.703 146.981C277.703 147.558 278.172 148.025 278.749 148.025Z" fill="#383A48"/>
<path d="M278.749 153.183C279.327 153.183 279.796 152.715 279.796 152.139C279.796 151.562 279.327 151.095 278.749 151.095C278.172 151.095 277.703 151.562 277.703 152.139C277.703 152.715 278.172 153.183 278.749 153.183Z" fill="#383A48"/>
<path d="M278.749 158.34C279.327 158.34 279.796 157.872 279.796 157.296C279.796 156.719 279.327 156.252 278.749 156.252C278.172 156.252 277.703 156.719 277.703 157.296C277.703 157.872 278.172 158.34 278.749 158.34Z" fill="#383A48"/>
<path d="M278.749 163.476C279.327 163.476 279.796 163.008 279.796 162.432C279.796 161.855 279.327 161.388 278.749 161.388C278.172 161.388 277.703 161.855 277.703 162.432C277.703 163.008 278.172 163.476 278.749 163.476Z" fill="#383A48"/>
<path d="M278.749 168.633C279.327 168.633 279.796 168.165 279.796 167.589C279.796 167.012 279.327 166.545 278.749 166.545C278.172 166.545 277.703 167.012 277.703 167.589C277.703 168.165 278.172 168.633 278.749 168.633Z" fill="#383A48"/>
<path d="M278.749 173.789C279.327 173.789 279.796 173.322 279.796 172.745C279.796 172.169 279.327 171.701 278.749 171.701C278.172 171.701 277.703 172.169 277.703 172.745C277.703 173.322 278.172 173.789 278.749 173.789Z" fill="#383A48"/>
<path d="M278.749 178.926C279.327 178.926 279.796 178.458 279.796 177.882C279.796 177.305 279.327 176.838 278.749 176.838C278.172 176.838 277.703 177.305 277.703 177.882C277.703 178.458 278.172 178.926 278.749 178.926Z" fill="#383A48"/>
<path d="M278.749 184.082C279.327 184.082 279.796 183.615 279.796 183.038C279.796 182.462 279.327 181.994 278.749 181.994C278.172 181.994 277.703 182.462 277.703 183.038C277.703 183.615 278.172 184.082 278.749 184.082Z" fill="#383A48"/>
<path d="M278.749 189.239C279.327 189.239 279.796 188.772 279.796 188.195C279.796 187.619 279.327 187.151 278.749 187.151C278.172 187.151 277.703 187.619 277.703 188.195C277.703 188.772 278.172 189.239 278.749 189.239Z" fill="#383A48"/>
<path d="M278.749 194.375C279.327 194.375 279.796 193.908 279.796 193.331C279.796 192.754 279.327 192.287 278.749 192.287C278.172 192.287 277.703 192.754 277.703 193.331C277.703 193.908 278.172 194.375 278.749 194.375Z" fill="#383A48"/>
<path d="M273.581 148.025C274.159 148.025 274.628 147.558 274.628 146.981C274.628 146.405 274.159 145.938 273.581 145.938C273.004 145.938 272.535 146.405 272.535 146.981C272.535 147.558 273.004 148.025 273.581 148.025Z" fill="#383A48"/>
<path d="M273.581 153.183C274.159 153.183 274.628 152.715 274.628 152.139C274.628 151.562 274.159 151.095 273.581 151.095C273.004 151.095 272.535 151.562 272.535 152.139C272.535 152.715 273.004 153.183 273.581 153.183Z" fill="#383A48"/>
<path d="M273.581 158.34C274.159 158.34 274.628 157.872 274.628 157.296C274.628 156.719 274.159 156.252 273.581 156.252C273.004 156.252 272.535 156.719 272.535 157.296C272.535 157.872 273.004 158.34 273.581 158.34Z" fill="#383A48"/>
<path d="M273.581 163.476C274.159 163.476 274.628 163.008 274.628 162.432C274.628 161.855 274.159 161.388 273.581 161.388C273.004 161.388 272.535 161.855 272.535 162.432C272.535 163.008 273.004 163.476 273.581 163.476Z" fill="#383A48"/>
<path d="M273.581 168.633C274.159 168.633 274.628 168.165 274.628 167.589C274.628 167.012 274.159 166.545 273.581 166.545C273.004 166.545 272.535 167.012 272.535 167.589C272.535 168.165 273.004 168.633 273.581 168.633Z" fill="#383A48"/>
<path d="M273.581 173.789C274.159 173.789 274.628 173.322 274.628 172.745C274.628 172.169 274.159 171.701 273.581 171.701C273.004 171.701 272.535 172.169 272.535 172.745C272.535 173.322 273.004 173.789 273.581 173.789Z" fill="#383A48"/>
<path d="M273.581 178.926C274.159 178.926 274.628 178.458 274.628 177.882C274.628 177.305 274.159 176.838 273.581 176.838C273.004 176.838 272.535 177.305 272.535 177.882C272.535 178.458 273.004 178.926 273.581 178.926Z" fill="#383A48"/>
<path d="M273.581 184.082C274.159 184.082 274.628 183.615 274.628 183.038C274.628 182.462 274.159 181.994 273.581 181.994C273.004 181.994 272.535 182.462 272.535 183.038C272.535 183.615 273.004 184.082 273.581 184.082Z" fill="#383A48"/>
<path d="M273.581 189.239C274.159 189.239 274.628 188.772 274.628 188.195C274.628 187.619 274.159 187.151 273.581 187.151C273.004 187.151 272.535 187.619 272.535 188.195C272.535 188.772 273.004 189.239 273.581 189.239Z" fill="#383A48"/>
<path d="M273.581 194.375C274.159 194.375 274.628 193.908 274.628 193.331C274.628 192.754 274.159 192.287 273.581 192.287C273.004 192.287 272.535 192.754 272.535 193.331C272.535 193.908 273.004 194.375 273.581 194.375Z" fill="#383A48"/>
<path d="M268.413 148.025C268.991 148.025 269.46 147.558 269.46 146.981C269.46 146.405 268.991 145.938 268.413 145.938C267.836 145.938 267.367 146.405 267.367 146.981C267.367 147.558 267.836 148.025 268.413 148.025Z" fill="#383A48"/>
<path d="M268.413 153.183C268.991 153.183 269.46 152.715 269.46 152.139C269.46 151.562 268.991 151.095 268.413 151.095C267.836 151.095 267.367 151.562 267.367 152.139C267.367 152.715 267.836 153.183 268.413 153.183Z" fill="#383A48"/>
<path d="M268.413 158.34C268.991 158.34 269.46 157.872 269.46 157.296C269.46 156.719 268.991 156.252 268.413 156.252C267.836 156.252 267.367 156.719 267.367 157.296C267.367 157.872 267.836 158.34 268.413 158.34Z" fill="#383A48"/>
<path d="M268.413 163.476C268.991 163.476 269.46 163.008 269.46 162.432C269.46 161.855 268.991 161.388 268.413 161.388C267.836 161.388 267.367 161.855 267.367 162.432C267.367 163.008 267.836 163.476 268.413 163.476Z" fill="#383A48"/>
<path d="M268.413 168.633C268.991 168.633 269.46 168.165 269.46 167.589C269.46 167.012 268.991 166.545 268.413 166.545C267.836 166.545 267.367 167.012 267.367 167.589C267.367 168.165 267.836 168.633 268.413 168.633Z" fill="#383A48"/>
<path d="M268.413 173.789C268.991 173.789 269.46 173.322 269.46 172.745C269.46 172.169 268.991 171.701 268.413 171.701C267.836 171.701 267.367 172.169 267.367 172.745C267.367 173.322 267.836 173.789 268.413 173.789Z" fill="#383A48"/>
<path d="M268.413 178.926C268.991 178.926 269.46 178.458 269.46 177.882C269.46 177.305 268.991 176.838 268.413 176.838C267.836 176.838 267.367 177.305 267.367 177.882C267.367 178.458 267.836 178.926 268.413 178.926Z" fill="#383A48"/>
<path d="M268.413 184.082C268.991 184.082 269.46 183.615 269.46 183.038C269.46 182.462 268.991 181.994 268.413 181.994C267.836 181.994 267.367 182.462 267.367 183.038C267.367 183.615 267.836 184.082 268.413 184.082Z" fill="#383A48"/>
<path d="M268.413 189.239C268.991 189.239 269.46 188.772 269.46 188.195C269.46 187.619 268.991 187.151 268.413 187.151C267.836 187.151 267.367 187.619 267.367 188.195C267.367 188.772 267.836 189.239 268.413 189.239Z" fill="#383A48"/>
<path d="M268.413 194.375C268.991 194.375 269.46 193.908 269.46 193.331C269.46 192.754 268.991 192.287 268.413 192.287C267.836 192.287 267.367 192.754 267.367 193.331C267.367 193.908 267.836 194.375 268.413 194.375Z" fill="#383A48"/>
<path d="M263.265 148.025C263.843 148.025 264.311 147.558 264.311 146.981C264.311 146.405 263.843 145.938 263.265 145.938C262.687 145.938 262.219 146.405 262.219 146.981C262.219 147.558 262.687 148.025 263.265 148.025Z" fill="#383A48"/>
<path d="M263.265 153.183C263.843 153.183 264.311 152.715 264.311 152.139C264.311 151.562 263.843 151.095 263.265 151.095C262.687 151.095 262.219 151.562 262.219 152.139C262.219 152.715 262.687 153.183 263.265 153.183Z" fill="#383A48"/>
<path d="M263.265 158.34C263.843 158.34 264.311 157.872 264.311 157.296C264.311 156.719 263.843 156.252 263.265 156.252C262.687 156.252 262.219 156.719 262.219 157.296C262.219 157.872 262.687 158.34 263.265 158.34Z" fill="#383A48"/>
<path d="M263.265 163.476C263.843 163.476 264.311 163.008 264.311 162.432C264.311 161.855 263.843 161.388 263.265 161.388C262.687 161.388 262.219 161.855 262.219 162.432C262.219 163.008 262.687 163.476 263.265 163.476Z" fill="#383A48"/>
<path d="M263.265 168.633C263.843 168.633 264.311 168.165 264.311 167.589C264.311 167.012 263.843 166.545 263.265 166.545C262.687 166.545 262.219 167.012 262.219 167.589C262.219 168.165 262.687 168.633 263.265 168.633Z" fill="#383A48"/>
<path d="M263.265 173.789C263.843 173.789 264.311 173.322 264.311 172.745C264.311 172.169 263.843 171.701 263.265 171.701C262.687 171.701 262.219 172.169 262.219 172.745C262.219 173.322 262.687 173.789 263.265 173.789Z" fill="#383A48"/>
<path d="M263.265 178.926C263.843 178.926 264.311 178.458 264.311 177.882C264.311 177.305 263.843 176.838 263.265 176.838C262.687 176.838 262.219 177.305 262.219 177.882C262.219 178.458 262.687 178.926 263.265 178.926Z" fill="#383A48"/>
<path d="M263.265 184.082C263.843 184.082 264.311 183.615 264.311 183.038C264.311 182.462 263.843 181.994 263.265 181.994C262.687 181.994 262.219 182.462 262.219 183.038C262.219 183.615 262.687 184.082 263.265 184.082Z" fill="#383A48"/>
<path d="M263.265 189.239C263.843 189.239 264.311 188.772 264.311 188.195C264.311 187.619 263.843 187.151 263.265 187.151C262.687 187.151 262.219 187.619 262.219 188.195C262.219 188.772 262.687 189.239 263.265 189.239Z" fill="#383A48"/>
<path d="M263.265 194.375C263.843 194.375 264.311 193.908 264.311 193.331C264.311 192.754 263.843 192.287 263.265 192.287C262.687 192.287 262.219 192.754 262.219 193.331C262.219 193.908 262.687 194.375 263.265 194.375Z" fill="#383A48"/>
<path d="M258.097 148.025C258.675 148.025 259.143 147.558 259.143 146.981C259.143 146.405 258.675 145.938 258.097 145.938C257.519 145.938 257.051 146.405 257.051 146.981C257.051 147.558 257.519 148.025 258.097 148.025Z" fill="#383A48"/>
<path d="M258.097 153.183C258.675 153.183 259.143 152.715 259.143 152.139C259.143 151.562 258.675 151.095 258.097 151.095C257.519 151.095 257.051 151.562 257.051 152.139C257.051 152.715 257.519 153.183 258.097 153.183Z" fill="#383A48"/>
<path d="M258.097 158.34C258.675 158.34 259.143 157.872 259.143 157.296C259.143 156.719 258.675 156.252 258.097 156.252C257.519 156.252 257.051 156.719 257.051 157.296C257.051 157.872 257.519 158.34 258.097 158.34Z" fill="#383A48"/>
<path d="M258.097 163.476C258.675 163.476 259.143 163.008 259.143 162.432C259.143 161.855 258.675 161.388 258.097 161.388C257.519 161.388 257.051 161.855 257.051 162.432C257.051 163.008 257.519 163.476 258.097 163.476Z" fill="#383A48"/>
<path d="M258.097 168.633C258.675 168.633 259.143 168.165 259.143 167.589C259.143 167.012 258.675 166.545 258.097 166.545C257.519 166.545 257.051 167.012 257.051 167.589C257.051 168.165 257.519 168.633 258.097 168.633Z" fill="#383A48"/>
<path d="M258.097 173.789C258.675 173.789 259.143 173.322 259.143 172.745C259.143 172.169 258.675 171.701 258.097 171.701C257.519 171.701 257.051 172.169 257.051 172.745C257.051 173.322 257.519 173.789 258.097 173.789Z" fill="#383A48"/>
<path d="M258.097 178.926C258.675 178.926 259.143 178.458 259.143 177.882C259.143 177.305 258.675 176.838 258.097 176.838C257.519 176.838 257.051 177.305 257.051 177.882C257.051 178.458 257.519 178.926 258.097 178.926Z" fill="#383A48"/>
<path d="M258.097 184.082C258.675 184.082 259.143 183.615 259.143 183.038C259.143 182.462 258.675 181.994 258.097 181.994C257.519 181.994 257.051 182.462 257.051 183.038C257.051 183.615 257.519 184.082 258.097 184.082Z" fill="#383A48"/>
<path d="M258.097 189.239C258.675 189.239 259.143 188.772 259.143 188.195C259.143 187.619 258.675 187.151 258.097 187.151C257.519 187.151 257.051 187.619 257.051 188.195C257.051 188.772 257.519 189.239 258.097 189.239Z" fill="#383A48"/>
<path d="M258.097 194.375C258.675 194.375 259.143 193.908 259.143 193.331C259.143 192.754 258.675 192.287 258.097 192.287C257.519 192.287 257.051 192.754 257.051 193.331C257.051 193.908 257.519 194.375 258.097 194.375Z" fill="#383A48"/>
<path d="M252.927 148.025C253.505 148.025 253.973 147.558 253.973 146.981C253.973 146.405 253.505 145.938 252.927 145.938C252.349 145.938 251.881 146.405 251.881 146.981C251.881 147.558 252.349 148.025 252.927 148.025Z" fill="#383A48"/>
<path d="M252.927 153.183C253.505 153.183 253.973 152.715 253.973 152.139C253.973 151.562 253.505 151.095 252.927 151.095C252.349 151.095 251.881 151.562 251.881 152.139C251.881 152.715 252.349 153.183 252.927 153.183Z" fill="#383A48"/>
<path d="M252.927 158.34C253.505 158.34 253.973 157.872 253.973 157.296C253.973 156.719 253.505 156.252 252.927 156.252C252.349 156.252 251.881 156.719 251.881 157.296C251.881 157.872 252.349 158.34 252.927 158.34Z" fill="#383A48"/>
<path d="M252.927 163.476C253.505 163.476 253.973 163.008 253.973 162.432C253.973 161.855 253.505 161.388 252.927 161.388C252.349 161.388 251.881 161.855 251.881 162.432C251.881 163.008 252.349 163.476 252.927 163.476Z" fill="#383A48"/>
<path d="M252.927 168.633C253.505 168.633 253.973 168.165 253.973 167.589C253.973 167.012 253.505 166.545 252.927 166.545C252.349 166.545 251.881 167.012 251.881 167.589C251.881 168.165 252.349 168.633 252.927 168.633Z" fill="#383A48"/>
<path d="M252.927 173.789C253.505 173.789 253.973 173.322 253.973 172.745C253.973 172.169 253.505 171.701 252.927 171.701C252.349 171.701 251.881 172.169 251.881 172.745C251.881 173.322 252.349 173.789 252.927 173.789Z" fill="#383A48"/>
<path d="M252.927 178.926C253.505 178.926 253.973 178.458 253.973 177.882C253.973 177.305 253.505 176.838 252.927 176.838C252.349 176.838 251.881 177.305 251.881 177.882C251.881 178.458 252.349 178.926 252.927 178.926Z" fill="#383A48"/>
<path d="M252.927 184.082C253.505 184.082 253.973 183.615 253.973 183.038C253.973 182.462 253.505 181.994 252.927 181.994C252.349 181.994 251.881 182.462 251.881 183.038C251.881 183.615 252.349 184.082 252.927 184.082Z" fill="#383A48"/>
<path d="M252.927 189.239C253.505 189.239 253.973 188.772 253.973 188.195C253.973 187.619 253.505 187.151 252.927 187.151C252.349 187.151 251.881 187.619 251.881 188.195C251.881 188.772 252.349 189.239 252.927 189.239Z" fill="#383A48"/>
<path d="M252.927 194.375C253.505 194.375 253.973 193.908 253.973 193.331C253.973 192.754 253.505 192.287 252.927 192.287C252.349 192.287 251.881 192.754 251.881 193.331C251.881 193.908 252.349 194.375 252.927 194.375Z" fill="#383A48"/>
<path d="M247.781 148.025C248.358 148.025 248.827 147.558 248.827 146.981C248.827 146.405 248.358 145.938 247.781 145.938C247.203 145.938 246.734 146.405 246.734 146.981C246.734 147.558 247.203 148.025 247.781 148.025Z" fill="#383A48"/>
<path d="M247.781 153.183C248.358 153.183 248.827 152.715 248.827 152.139C248.827 151.562 248.358 151.095 247.781 151.095C247.203 151.095 246.734 151.562 246.734 152.139C246.734 152.715 247.203 153.183 247.781 153.183Z" fill="#383A48"/>
<path d="M247.781 158.34C248.358 158.34 248.827 157.872 248.827 157.296C248.827 156.719 248.358 156.252 247.781 156.252C247.203 156.252 246.734 156.719 246.734 157.296C246.734 157.872 247.203 158.34 247.781 158.34Z" fill="#383A48"/>
<path d="M247.781 163.476C248.358 163.476 248.827 163.008 248.827 162.432C248.827 161.855 248.358 161.388 247.781 161.388C247.203 161.388 246.734 161.855 246.734 162.432C246.734 163.008 247.203 163.476 247.781 163.476Z" fill="#383A48"/>
<path d="M247.781 168.633C248.358 168.633 248.827 168.165 248.827 167.589C248.827 167.012 248.358 166.545 247.781 166.545C247.203 166.545 246.734 167.012 246.734 167.589C246.734 168.165 247.203 168.633 247.781 168.633Z" fill="#383A48"/>
<path d="M247.781 173.789C248.358 173.789 248.827 173.322 248.827 172.745C248.827 172.169 248.358 171.701 247.781 171.701C247.203 171.701 246.734 172.169 246.734 172.745C246.734 173.322 247.203 173.789 247.781 173.789Z" fill="#383A48"/>
<path d="M247.781 178.926C248.358 178.926 248.827 178.458 248.827 177.882C248.827 177.305 248.358 176.838 247.781 176.838C247.203 176.838 246.734 177.305 246.734 177.882C246.734 178.458 247.203 178.926 247.781 178.926Z" fill="#383A48"/>
<path d="M247.781 184.082C248.358 184.082 248.827 183.615 248.827 183.038C248.827 182.462 248.358 181.994 247.781 181.994C247.203 181.994 246.734 182.462 246.734 183.038C246.734 183.615 247.203 184.082 247.781 184.082Z" fill="#383A48"/>
<path d="M247.781 189.239C248.358 189.239 248.827 188.772 248.827 188.195C248.827 187.619 248.358 187.151 247.781 187.151C247.203 187.151 246.734 187.619 246.734 188.195C246.734 188.772 247.203 189.239 247.781 189.239Z" fill="#383A48"/>
<path d="M247.781 194.375C248.358 194.375 248.827 193.908 248.827 193.331C248.827 192.754 248.358 192.287 247.781 192.287C247.203 192.287 246.734 192.754 246.734 193.331C246.734 193.908 247.203 194.375 247.781 194.375Z" fill="#383A48"/>
<path d="M242.613 148.025C243.191 148.025 243.659 147.558 243.659 146.981C243.659 146.405 243.191 145.938 242.613 145.938C242.035 145.938 241.566 146.405 241.566 146.981C241.566 147.558 242.035 148.025 242.613 148.025Z" fill="#383A48"/>
<path d="M242.613 153.183C243.191 153.183 243.659 152.715 243.659 152.139C243.659 151.562 243.191 151.095 242.613 151.095C242.035 151.095 241.566 151.562 241.566 152.139C241.566 152.715 242.035 153.183 242.613 153.183Z" fill="#383A48"/>
<path d="M242.613 158.34C243.191 158.34 243.659 157.872 243.659 157.296C243.659 156.719 243.191 156.252 242.613 156.252C242.035 156.252 241.566 156.719 241.566 157.296C241.566 157.872 242.035 158.34 242.613 158.34Z" fill="#383A48"/>
<path d="M242.613 163.476C243.191 163.476 243.659 163.008 243.659 162.432C243.659 161.855 243.191 161.388 242.613 161.388C242.035 161.388 241.566 161.855 241.566 162.432C241.566 163.008 242.035 163.476 242.613 163.476Z" fill="#383A48"/>
<path d="M242.613 168.633C243.191 168.633 243.659 168.165 243.659 167.589C243.659 167.012 243.191 166.545 242.613 166.545C242.035 166.545 241.566 167.012 241.566 167.589C241.566 168.165 242.035 168.633 242.613 168.633Z" fill="#383A48"/>
<path d="M242.613 173.789C243.191 173.789 243.659 173.322 243.659 172.745C243.659 172.169 243.191 171.701 242.613 171.701C242.035 171.701 241.566 172.169 241.566 172.745C241.566 173.322 242.035 173.789 242.613 173.789Z" fill="#383A48"/>
<path d="M242.613 178.926C243.191 178.926 243.659 178.458 243.659 177.882C243.659 177.305 243.191 176.838 242.613 176.838C242.035 176.838 241.566 177.305 241.566 177.882C241.566 178.458 242.035 178.926 242.613 178.926Z" fill="#383A48"/>
<path d="M242.613 184.082C243.191 184.082 243.659 183.615 243.659 183.038C243.659 182.462 243.191 181.994 242.613 181.994C242.035 181.994 241.566 182.462 241.566 183.038C241.566 183.615 242.035 184.082 242.613 184.082Z" fill="#383A48"/>
<path d="M242.613 189.239C243.191 189.239 243.659 188.772 243.659 188.195C243.659 187.619 243.191 187.151 242.613 187.151C242.035 187.151 241.566 187.619 241.566 188.195C241.566 188.772 242.035 189.239 242.613 189.239Z" fill="#383A48"/>
<path d="M242.613 194.375C243.191 194.375 243.659 193.908 243.659 193.331C243.659 192.754 243.191 192.287 242.613 192.287C242.035 192.287 241.566 192.754 241.566 193.331C241.566 193.908 242.035 194.375 242.613 194.375Z" fill="#383A48"/>
<path d="M237.443 148.025C238.021 148.025 238.489 147.558 238.489 146.981C238.489 146.405 238.021 145.938 237.443 145.938C236.865 145.938 236.396 146.405 236.396 146.981C236.396 147.558 236.865 148.025 237.443 148.025Z" fill="#383A48"/>
<path d="M237.443 153.183C238.021 153.183 238.489 152.715 238.489 152.139C238.489 151.562 238.021 151.095 237.443 151.095C236.865 151.095 236.396 151.562 236.396 152.139C236.396 152.715 236.865 153.183 237.443 153.183Z" fill="#383A48"/>
<path d="M237.443 158.34C238.021 158.34 238.489 157.872 238.489 157.296C238.489 156.719 238.021 156.252 237.443 156.252C236.865 156.252 236.396 156.719 236.396 157.296C236.396 157.872 236.865 158.34 237.443 158.34Z" fill="#383A48"/>
<path d="M237.443 163.476C238.021 163.476 238.489 163.008 238.489 162.432C238.489 161.855 238.021 161.388 237.443 161.388C236.865 161.388 236.396 161.855 236.396 162.432C236.396 163.008 236.865 163.476 237.443 163.476Z" fill="#383A48"/>
<path d="M237.443 168.633C238.021 168.633 238.489 168.165 238.489 167.589C238.489 167.012 238.021 166.545 237.443 166.545C236.865 166.545 236.396 167.012 236.396 167.589C236.396 168.165 236.865 168.633 237.443 168.633Z" fill="#383A48"/>
<path d="M237.443 173.789C238.021 173.789 238.489 173.322 238.489 172.745C238.489 172.169 238.021 171.701 237.443 171.701C236.865 171.701 236.396 172.169 236.396 172.745C236.396 173.322 236.865 173.789 237.443 173.789Z" fill="#383A48"/>
<path d="M237.443 178.926C238.021 178.926 238.489 178.458 238.489 177.882C238.489 177.305 238.021 176.838 237.443 176.838C236.865 176.838 236.396 177.305 236.396 177.882C236.396 178.458 236.865 178.926 237.443 178.926Z" fill="#383A48"/>
<path d="M237.443 184.082C238.021 184.082 238.489 183.615 238.489 183.038C238.489 182.462 238.021 181.994 237.443 181.994C236.865 181.994 236.396 182.462 236.396 183.038C236.396 183.615 236.865 184.082 237.443 184.082Z" fill="#383A48"/>
<path d="M237.443 189.239C238.021 189.239 238.489 188.772 238.489 188.195C238.489 187.619 238.021 187.151 237.443 187.151C236.865 187.151 236.396 187.619 236.396 188.195C236.396 188.772 236.865 189.239 237.443 189.239Z" fill="#383A48"/>
<path d="M237.443 194.375C238.021 194.375 238.489 193.908 238.489 193.331C238.489 192.754 238.021 192.287 237.443 192.287C236.865 192.287 236.396 192.754 236.396 193.331C236.396 193.908 236.865 194.375 237.443 194.375Z" fill="#383A48"/>
<path d="M232.296 148.025C232.874 148.025 233.342 147.558 233.342 146.981C233.342 146.405 232.874 145.938 232.296 145.938C231.718 145.938 231.25 146.405 231.25 146.981C231.25 147.558 231.718 148.025 232.296 148.025Z" fill="#383A48"/>
<path d="M232.296 153.183C232.874 153.183 233.342 152.715 233.342 152.139C233.342 151.562 232.874 151.095 232.296 151.095C231.718 151.095 231.25 151.562 231.25 152.139C231.25 152.715 231.718 153.183 232.296 153.183Z" fill="#383A48"/>
<path d="M232.296 158.34C232.874 158.34 233.342 157.872 233.342 157.296C233.342 156.719 232.874 156.252 232.296 156.252C231.718 156.252 231.25 156.719 231.25 157.296C231.25 157.872 231.718 158.34 232.296 158.34Z" fill="#383A48"/>
<path d="M232.296 163.476C232.874 163.476 233.342 163.008 233.342 162.432C233.342 161.855 232.874 161.388 232.296 161.388C231.718 161.388 231.25 161.855 231.25 162.432C231.25 163.008 231.718 163.476 232.296 163.476Z" fill="#383A48"/>
<path d="M232.296 168.633C232.874 168.633 233.342 168.165 233.342 167.589C233.342 167.012 232.874 166.545 232.296 166.545C231.718 166.545 231.25 167.012 231.25 167.589C231.25 168.165 231.718 168.633 232.296 168.633Z" fill="#383A48"/>
<path d="M232.296 173.789C232.874 173.789 233.342 173.322 233.342 172.745C233.342 172.169 232.874 171.701 232.296 171.701C231.718 171.701 231.25 172.169 231.25 172.745C231.25 173.322 231.718 173.789 232.296 173.789Z" fill="#383A48"/>
<path d="M232.296 178.926C232.874 178.926 233.342 178.458 233.342 177.882C233.342 177.305 232.874 176.838 232.296 176.838C231.718 176.838 231.25 177.305 231.25 177.882C231.25 178.458 231.718 178.926 232.296 178.926Z" fill="#383A48"/>
<path d="M232.296 184.082C232.874 184.082 233.342 183.615 233.342 183.038C233.342 182.462 232.874 181.994 232.296 181.994C231.718 181.994 231.25 182.462 231.25 183.038C231.25 183.615 231.718 184.082 232.296 184.082Z" fill="#383A48"/>
<path d="M232.296 189.239C232.874 189.239 233.342 188.772 233.342 188.195C233.342 187.619 232.874 187.151 232.296 187.151C231.718 187.151 231.25 187.619 231.25 188.195C231.25 188.772 231.718 189.239 232.296 189.239Z" fill="#383A48"/>
<path d="M232.296 194.375C232.874 194.375 233.342 193.908 233.342 193.331C233.342 192.754 232.874 192.287 232.296 192.287C231.718 192.287 231.25 192.754 231.25 193.331C231.25 193.908 231.718 194.375 232.296 194.375Z" fill="#383A48"/>
<path d="M319.688 104.586C339.997 104.586 356.461 88.1223 356.461 67.8128C356.461 47.5032 339.997 31.0391 319.688 31.0391C299.378 31.0391 282.914 47.5032 282.914 67.8128C282.914 88.1223 299.378 104.586 319.688 104.586Z" fill="#E0719E"/>
<path d="M319.688 105.625C298.828 105.625 281.875 88.6717 281.875 67.8125C281.875 46.9533 298.828 30 319.688 30C340.547 30 357.5 46.9533 357.5 67.8125C357.5 88.6717 340.547 105.625 319.688 105.625ZM319.688 32.0776C299.992 32.0776 283.953 48.1168 283.953 67.8125C283.953 87.5082 299.992 103.547 319.688 103.547C339.383 103.547 355.422 87.5082 355.422 67.8125C355.422 48.1168 339.383 32.0776 319.688 32.0776Z" fill="#383A48"/>
<path d="M310.601 160.44H290.564L289.141 140.004L296.259 138.876L310.601 160.44Z" fill="#F3F6E6"/>
<path d="M310.601 161.485H290.565C290.298 161.485 290.041 161.383 289.847 161.201C289.653 161.018 289.535 160.769 289.518 160.503L288.094 140.068C288.077 139.807 288.157 139.549 288.32 139.344C288.482 139.14 288.715 139.003 288.974 138.96L296.092 137.853C296.29 137.818 296.493 137.844 296.676 137.926C296.858 138.008 297.012 138.142 297.118 138.312L311.46 159.876C311.564 160.033 311.623 160.216 311.63 160.403C311.637 160.591 311.593 160.778 311.502 160.942C311.421 161.11 311.292 161.251 311.133 161.347C310.973 161.444 310.788 161.492 310.601 161.485V161.485ZM291.549 159.396H308.654L295.757 140.026L290.251 140.882L291.549 159.396Z" fill="#383A48"/>
<path d="M327.057 68.375V144.037C327.057 148.393 325.323 152.571 322.237 155.651C319.151 158.731 314.965 160.461 310.6 160.461C306.236 160.461 302.05 158.731 298.964 155.651C295.878 152.571 294.144 148.393 294.144 144.037V142.742C294.144 142.265 293.954 141.808 293.617 141.471C293.279 141.134 292.821 140.945 292.343 140.945C291.866 140.945 291.408 141.134 291.07 141.471C290.732 141.808 290.543 142.265 290.543 142.742V172.413H226.057V161.151L275.887 142.721C275.887 138.365 277.621 134.188 280.707 131.108C283.793 128.027 287.979 126.297 292.343 126.297C296.708 126.297 300.894 128.027 303.98 131.108C307.066 134.188 308.8 138.365 308.8 142.721V144.016C308.8 144.493 308.99 144.95 309.327 145.287C309.665 145.624 310.123 145.813 310.6 145.813C311.078 145.813 311.536 145.624 311.874 145.287C312.211 144.95 312.401 144.493 312.401 144.016V68.375H327.057Z" fill="#F3F6E6"/>
<path d="M290.564 173.437H226.078C225.94 173.439 225.804 173.413 225.676 173.361C225.548 173.309 225.432 173.232 225.335 173.134C225.237 173.037 225.16 172.921 225.108 172.794C225.056 172.667 225.03 172.53 225.031 172.393V161.13C225.03 160.915 225.096 160.705 225.22 160.529C225.344 160.353 225.519 160.22 225.722 160.148L274.882 141.969C275.072 137.403 277.048 133.093 280.385 129.964C283.723 126.835 288.156 125.136 292.734 125.232C297.312 125.328 301.67 127.21 304.874 130.476C308.077 133.742 309.87 138.13 309.868 142.7V143.996C309.868 144.195 309.947 144.387 310.089 144.528C310.23 144.669 310.422 144.748 310.622 144.748C310.822 144.748 311.013 144.669 311.155 144.528C311.296 144.387 311.376 144.195 311.376 143.996V68.3544C311.374 68.2168 311.4 68.0803 311.452 67.953C311.505 67.8256 311.582 67.7099 311.679 67.6126C311.777 67.5153 311.893 67.4384 312.02 67.3864C312.148 67.3343 312.285 67.3083 312.422 67.3096H327.078C327.216 67.3083 327.353 67.3343 327.481 67.3864C327.608 67.4384 327.724 67.5153 327.822 67.6126C327.919 67.7099 327.996 67.8256 328.048 67.953C328.1 68.0803 328.127 68.2168 328.125 68.3544V143.996C328.127 146.29 327.675 148.562 326.797 150.682C325.918 152.801 324.63 154.728 323.006 156.351C321.382 157.974 319.453 159.262 317.33 160.141C315.207 161.02 312.931 161.473 310.632 161.475C305.99 161.478 301.537 159.64 298.252 156.366C294.968 153.092 293.121 148.65 293.118 144.017V142.721C293.118 142.522 293.039 142.33 292.898 142.189C292.756 142.048 292.565 141.969 292.365 141.969C292.165 141.969 291.973 142.048 291.832 142.189C291.69 142.33 291.611 142.522 291.611 142.721V172.414C291.61 172.55 291.582 172.684 291.529 172.809C291.476 172.934 291.399 173.048 291.301 173.143C291.204 173.238 291.089 173.313 290.962 173.364C290.836 173.414 290.7 173.439 290.564 173.437ZM227.125 171.348H289.517V142.721C289.517 141.967 289.817 141.245 290.351 140.712C290.885 140.179 291.61 139.879 292.365 139.879C293.12 139.879 293.844 140.179 294.378 140.712C294.912 141.245 295.212 141.967 295.212 142.721V144.017C295.212 148.095 296.836 152.007 299.726 154.891C302.615 157.775 306.535 159.396 310.622 159.396C314.709 159.396 318.628 157.775 321.518 154.891C324.408 152.007 326.031 148.095 326.031 144.017V69.4201H313.469V144.017C313.469 144.77 313.169 145.493 312.635 146.026C312.101 146.559 311.377 146.858 310.622 146.858C309.867 146.858 309.142 146.559 308.608 146.026C308.074 145.493 307.774 144.77 307.774 144.017V142.721C307.774 138.642 306.151 134.731 303.261 131.847C300.371 128.962 296.452 127.342 292.365 127.342C288.278 127.342 284.358 128.962 281.468 131.847C278.579 134.731 276.955 138.642 276.955 142.721C276.956 142.936 276.89 143.146 276.766 143.322C276.643 143.498 276.467 143.631 276.264 143.703L227.125 161.882V171.348Z" fill="#383A48"/>
<path d="M292.365 139.044H283.404L282.064 139.65L286.042 129.829H301.117L310.602 153.127H296.93" fill="#383A48"/>
<path d="M310.6 154.172H296.907C296.63 154.172 296.364 154.062 296.167 153.866C295.971 153.67 295.861 153.405 295.861 153.127C295.861 152.85 295.971 152.585 296.167 152.389C296.364 152.193 296.63 152.083 296.907 152.083H309.03L300.383 130.874H286.732L283.843 137.999H292.343C292.621 137.999 292.887 138.109 293.083 138.305C293.28 138.501 293.39 138.767 293.39 139.044C293.39 139.321 293.28 139.587 293.083 139.783C292.887 139.979 292.621 140.089 292.343 140.089H283.612L282.461 140.611C282.269 140.693 282.057 140.717 281.851 140.679C281.646 140.642 281.456 140.544 281.306 140.399C281.156 140.253 281.052 140.067 281.008 139.863C280.964 139.659 280.982 139.447 281.058 139.253L285.036 129.432C285.114 129.241 285.248 129.077 285.419 128.962C285.591 128.847 285.793 128.785 285.999 128.784H301.074C301.281 128.782 301.485 128.843 301.657 128.959C301.829 129.074 301.961 129.239 302.037 129.432L311.542 152.73C311.603 152.891 311.626 153.063 311.607 153.234C311.589 153.404 311.531 153.568 311.438 153.712C311.35 153.855 311.227 153.972 311.08 154.053C310.933 154.134 310.768 154.175 310.6 154.172V154.172Z" fill="#383A48"/>
<path d="M256.29 133.653V62.2949H319.729V144.017C319.729 145.213 319.494 146.398 319.035 147.504C318.577 148.61 317.904 149.614 317.057 150.46C316.209 151.307 315.202 151.978 314.094 152.435C312.987 152.893 311.799 153.128 310.6 153.127V153.127C309.401 153.128 308.214 152.893 307.106 152.435C305.998 151.978 304.992 151.307 304.144 150.46C303.296 149.614 302.624 148.61 302.165 147.504C301.707 146.398 301.471 145.213 301.472 144.017V142.721C301.472 141.525 301.237 140.34 300.778 139.234C300.32 138.128 299.647 137.124 298.8 136.278C297.952 135.432 296.945 134.761 295.837 134.303C294.729 133.845 293.542 133.61 292.343 133.611V133.611C291.144 133.61 289.957 133.845 288.849 134.303C287.741 134.761 286.734 135.432 285.887 136.278C285.039 137.124 284.366 138.128 283.908 139.234C283.449 140.34 283.214 141.525 283.215 142.721V166.333H219.775V142.721C219.775 141.525 220.01 140.34 220.469 139.234C220.927 138.128 221.6 137.124 222.447 136.278C223.295 135.432 224.302 134.761 225.41 134.303C226.518 133.845 227.705 133.61 228.904 133.611V133.611L256.29 133.653Z" fill="#F3F6E6"/>
<path d="M283.236 167.378H219.797C219.659 167.379 219.522 167.353 219.395 167.301C219.267 167.249 219.151 167.172 219.054 167.075C218.956 166.978 218.879 166.862 218.827 166.735C218.775 166.607 218.749 166.471 218.75 166.333V142.721C218.753 140.029 219.826 137.448 221.734 135.544C223.641 133.64 226.228 132.569 228.925 132.566L255.243 132.608V62.2948C255.242 62.1572 255.268 62.0208 255.32 61.8934C255.372 61.766 255.449 61.6503 255.547 61.553C255.644 61.4557 255.76 61.3788 255.888 61.3268C256.016 61.2748 256.152 61.2487 256.29 61.2501H319.729C319.867 61.2487 320.004 61.2748 320.132 61.3268C320.259 61.3788 320.375 61.4557 320.473 61.553C320.57 61.6503 320.647 61.766 320.699 61.8934C320.751 62.0208 320.778 62.1572 320.776 62.2948V144.017C320.776 146.71 319.704 149.293 317.796 151.198C315.888 153.102 313.299 154.172 310.601 154.172C307.902 154.172 305.314 153.102 303.406 151.198C301.497 149.293 300.425 146.71 300.425 144.017V142.721C300.425 140.582 299.574 138.531 298.058 137.018C296.543 135.505 294.487 134.656 292.344 134.656C290.2 134.656 288.145 135.505 286.629 137.018C285.113 138.531 284.262 140.582 284.262 142.721V166.333C284.266 166.47 284.242 166.605 284.192 166.732C284.142 166.86 284.067 166.975 283.971 167.073C283.875 167.17 283.761 167.247 283.635 167.3C283.508 167.352 283.373 167.379 283.236 167.378V167.378ZM220.844 165.288H282.189V142.721C282.189 140.028 283.261 137.445 285.17 135.54C287.078 133.636 289.666 132.566 292.365 132.566C295.063 132.566 297.651 133.636 299.56 135.54C301.468 137.445 302.54 140.028 302.54 142.721V144.017C302.54 145.076 302.749 146.125 303.155 147.103C303.561 148.082 304.157 148.971 304.907 149.72C305.658 150.469 306.548 151.063 307.529 151.468C308.509 151.874 309.56 152.082 310.622 152.082C311.683 152.082 312.734 151.874 313.714 151.468C314.695 151.063 315.586 150.469 316.336 149.72C317.087 148.971 317.682 148.082 318.088 147.103C318.494 146.125 318.703 145.076 318.703 144.017V63.3396H257.358V133.653C257.36 133.79 257.333 133.926 257.279 134.052C257.224 134.178 257.145 134.291 257.044 134.384C256.849 134.579 256.587 134.691 256.311 134.697V134.697L228.946 134.656C226.803 134.657 224.749 135.507 223.233 137.019C221.718 138.532 220.866 140.583 220.865 142.721L220.844 165.288V165.288Z" fill="#383A48"/>
<path d="M292.363 134.697H256.289C256.011 134.697 255.745 134.587 255.549 134.391C255.352 134.195 255.242 133.929 255.242 133.652C255.242 133.375 255.352 133.109 255.549 132.913C255.745 132.718 256.011 132.607 256.289 132.607H292.363C292.501 132.606 292.638 132.632 292.766 132.684C292.893 132.736 293.009 132.813 293.107 132.91C293.204 133.008 293.281 133.123 293.333 133.251C293.386 133.378 293.412 133.515 293.41 133.652C293.409 133.929 293.299 134.194 293.103 134.39C292.907 134.586 292.641 134.696 292.363 134.697V134.697Z" fill="#383A48"/>
<path d="M307.564 82.6055H267.596V102.498H307.564V82.6055Z" fill="#AAC6FC"/>
<path d="M307.564 103.543H267.596C267.458 103.544 267.321 103.518 267.194 103.466C267.066 103.414 266.95 103.337 266.852 103.24C266.755 103.142 266.678 103.027 266.626 102.899C266.574 102.772 266.548 102.635 266.549 102.498V82.6054C266.548 82.4678 266.574 82.3313 266.626 82.2039C266.678 82.0766 266.755 81.9608 266.852 81.8636C266.95 81.7663 267.066 81.6894 267.194 81.6373C267.321 81.5853 267.458 81.5592 267.596 81.5606H307.564C307.702 81.5592 307.839 81.5853 307.967 81.6373C308.094 81.6894 308.21 81.7663 308.308 81.8636C308.405 81.9608 308.482 82.0766 308.534 82.2039C308.587 82.3313 308.613 82.4678 308.611 82.6054V102.498C308.613 102.635 308.587 102.772 308.534 102.899C308.482 103.027 308.405 103.142 308.308 103.24C308.21 103.337 308.094 103.414 307.967 103.466C307.839 103.518 307.702 103.544 307.564 103.543V103.543ZM268.643 101.453H306.518V83.6501H268.643V101.453Z" fill="#383A48"/>
<path d="M307.566 113.634H267.598C267.32 113.634 267.054 113.524 266.857 113.328C266.661 113.133 266.551 112.867 266.551 112.59C266.551 112.313 266.661 112.047 266.857 111.851C267.054 111.655 267.32 111.545 267.598 111.545H307.566C307.844 111.545 308.11 111.655 308.307 111.851C308.503 112.047 308.613 112.313 308.613 112.59C308.613 112.867 308.503 113.133 308.307 113.328C308.11 113.524 307.844 113.634 307.566 113.634V113.634Z" fill="#383A48"/>
<path d="M307.566 122.724H267.598C267.32 122.724 267.054 122.614 266.857 122.418C266.661 122.222 266.551 121.957 266.551 121.68C266.551 121.402 266.661 121.137 266.857 120.941C267.054 120.745 267.32 120.635 267.598 120.635H307.566C307.844 120.635 308.11 120.745 308.307 120.941C308.503 121.137 308.613 121.402 308.613 121.68C308.613 121.957 308.503 122.222 308.307 122.418C308.11 122.614 307.844 122.724 307.566 122.724V122.724Z" fill="#383A48"/>
<path d="M271.281 142.011H231.312C231.035 142.011 230.769 141.901 230.572 141.705C230.376 141.509 230.266 141.244 230.266 140.967C230.266 140.69 230.376 140.424 230.572 140.228C230.769 140.032 231.035 139.922 231.312 139.922H271.281C271.559 139.922 271.825 140.032 272.021 140.228C272.218 140.424 272.328 140.69 272.328 140.967C272.328 141.244 272.218 141.509 272.021 141.705C271.825 141.901 271.559 142.011 271.281 142.011V142.011Z" fill="#383A48"/>
<path d="M271.281 151.1H231.312C231.035 151.1 230.769 150.99 230.572 150.794C230.376 150.598 230.266 150.333 230.266 150.056C230.266 149.778 230.376 149.513 230.572 149.317C230.769 149.121 231.035 149.011 231.312 149.011H271.281C271.559 149.011 271.825 149.121 272.021 149.317C272.218 149.513 272.328 149.778 272.328 150.056C272.328 150.333 272.218 150.598 272.021 150.794C271.825 150.99 271.559 151.1 271.281 151.1V151.1Z" fill="#383A48"/>
<path d="M91.9122 38.1212L86.875 43.1592L88.4016 44.6856L93.4389 39.6477L91.9122 38.1212Z" fill="#383A48"/>
<path d="M88.4014 38.121L86.875 39.6475L91.9122 44.6847L93.4386 43.1582L88.4014 38.121Z" fill="#383A48"/>
<path d="M245.35 113.746L240.312 118.784L241.839 120.311L246.876 115.273L245.35 113.746Z" fill="#383A48"/>
<path d="M241.839 113.746L240.312 115.272L245.35 120.31L246.876 118.783L241.839 113.746Z" fill="#383A48"/>
<path d="M142.959 145.775C142.367 145.775 141.902 145.31 141.902 144.718V140.744C141.902 140.153 142.367 139.688 142.959 139.688C143.551 139.688 144.016 140.153 144.016 140.744V144.718C144.016 145.31 143.551 145.775 142.959 145.775Z" fill="#383A48"/>
<path d="M142.959 160C142.367 160 141.902 159.535 141.902 158.943V154.99C141.902 154.399 142.367 153.934 142.959 153.934C143.551 153.934 144.016 154.399 144.016 154.99V158.943C144.016 159.535 143.551 160 142.959 160Z" fill="#383A48"/>
<path d="M137.822 150.911H133.869C133.278 150.911 132.812 150.446 132.812 149.854C132.812 149.262 133.278 148.797 133.869 148.797H137.822C138.414 148.797 138.879 149.262 138.879 149.854C138.879 150.446 138.414 150.911 137.822 150.911Z" fill="#383A48"/>
<path d="M152.07 150.911H148.096C147.504 150.911 147.039 150.446 147.039 149.854C147.039 149.262 147.504 148.797 148.096 148.797H152.07C152.661 148.797 153.126 149.262 153.126 149.854C153.126 150.446 152.661 150.911 152.07 150.911Z" fill="#383A48"/>
<path d="M139.323 147.275C139.048 147.275 138.774 147.169 138.583 146.958L135.793 144.147C135.392 143.724 135.392 143.069 135.793 142.646C136.216 142.244 136.871 142.244 137.294 142.646L140.084 145.457C140.486 145.88 140.486 146.535 140.084 146.958C139.852 147.169 139.598 147.275 139.323 147.275Z" fill="#383A48"/>
<path d="M149.405 157.337C149.13 157.337 148.877 157.231 148.665 157.02L145.854 154.23C145.431 153.828 145.431 153.152 145.854 152.729C146.256 152.306 146.932 152.306 147.355 152.729L150.145 155.54C150.568 155.942 150.568 156.618 150.145 157.041C149.955 157.231 149.68 157.337 149.405 157.337Z" fill="#383A48"/>
<path d="M136.533 157.337C136.259 157.337 135.984 157.231 135.794 157.02C135.371 156.597 135.371 155.942 135.794 155.519L138.584 152.729C139.006 152.306 139.662 152.306 140.084 152.729C140.507 153.152 140.507 153.807 140.084 154.23L137.273 157.02C137.083 157.231 136.808 157.337 136.533 157.337Z" fill="#383A48"/>
<path d="M146.594 147.275C146.319 147.275 146.044 147.17 145.854 146.958C145.431 146.536 145.431 145.88 145.854 145.458L148.665 142.668C149.088 142.245 149.743 142.245 150.166 142.668C150.589 143.09 150.589 143.746 150.166 144.168L147.334 146.958C147.144 147.17 146.869 147.275 146.594 147.275Z" fill="#383A48"/>
<path d="M178.333 53.2275H70.1055V131.149H178.333V53.2275Z" fill="#F3F6E6"/>
<path d="M178.333 132.188H70.105C69.9677 132.189 69.8316 132.163 69.7045 132.111C69.5774 132.059 69.4619 131.983 69.3648 131.886C69.2678 131.789 69.191 131.674 69.1391 131.547C69.0872 131.421 69.0612 131.285 69.0626 131.148V53.2271C69.0612 53.0902 69.0872 52.9544 69.1391 52.8276C69.191 52.7009 69.2678 52.5858 69.3648 52.489C69.4619 52.3922 69.5774 52.3157 69.7045 52.2639C69.8316 52.2121 69.9677 52.1862 70.105 52.1876H178.333C178.47 52.1862 178.606 52.2121 178.733 52.2639C178.86 52.3157 178.976 52.3922 179.073 52.489C179.17 52.5858 179.247 52.7009 179.298 52.8276C179.35 52.9544 179.376 53.0902 179.375 53.2271V131.148C179.376 131.285 179.35 131.421 179.298 131.547C179.247 131.674 179.17 131.789 179.073 131.886C178.976 131.983 178.86 132.059 178.733 132.111C178.606 132.163 178.47 132.189 178.333 132.188V132.188ZM71.1475 130.109H177.29V54.2666H71.1475V130.109Z" fill="#383A48"/>
<path d="M168.95 62.083H79.5078V122.27H168.95V62.083Z" fill="#F3F6E6"/>
<path d="M168.95 123.31H79.5073C79.3701 123.311 79.2339 123.286 79.1068 123.234C78.9797 123.182 78.8643 123.105 78.7672 123.009C78.6701 122.912 78.5934 122.797 78.5415 122.67C78.4896 122.543 78.4635 122.407 78.4649 122.271V62.0835C78.4635 61.9466 78.4896 61.8108 78.5415 61.6841C78.5934 61.5574 78.6701 61.4422 78.7672 61.3454C78.8643 61.2486 78.9797 61.1721 79.1068 61.1204C79.2339 61.0686 79.3701 61.0426 79.5073 61.044H168.95C169.087 61.0426 169.223 61.0686 169.35 61.1204C169.478 61.1721 169.593 61.2486 169.69 61.3454C169.787 61.4422 169.864 61.5574 169.916 61.6841C169.968 61.8108 169.994 61.9466 169.992 62.0835V122.271C169.994 122.407 169.968 122.543 169.916 122.67C169.864 122.797 169.787 122.912 169.69 123.009C169.593 123.105 169.478 123.182 169.35 123.234C169.223 123.286 169.087 123.311 168.95 123.31V123.31ZM80.5498 121.231H167.907V63.123H80.5498V121.231Z" fill="#AAC6FC"/>
<path d="M108.156 107.115L107.718 100.109H98.4196L95.0629 107.115H87.7031L104.528 73.3105H113.452L116.579 107.115H108.156ZM105.467 84.8698L100.942 94.059H107.822L107.28 84.8698L107.322 80.8781H106.947L105.467 84.8698Z" fill="#383A48"/>
<path d="M157.609 74.162H128.003C127.727 74.162 127.462 74.0525 127.266 73.8575C127.071 73.6626 126.961 73.3982 126.961 73.1225C126.961 72.8468 127.071 72.5824 127.266 72.3875C127.462 72.1925 127.727 72.083 128.003 72.083H157.609C157.886 72.083 158.151 72.1925 158.346 72.3875C158.542 72.5824 158.652 72.8468 158.652 73.1225C158.652 73.3982 158.542 73.6626 158.346 73.8575C158.151 74.0525 157.886 74.162 157.609 74.162Z" fill="#383A48"/>
<path d="M157.609 82.2714H128.003C127.727 82.2714 127.462 82.1619 127.266 81.9669C127.071 81.772 126.961 81.5076 126.961 81.2319C126.961 80.9562 127.071 80.6918 127.266 80.4968C127.462 80.3019 127.727 80.1924 128.003 80.1924H157.609C157.886 80.1924 158.151 80.3019 158.346 80.4968C158.542 80.6918 158.652 80.9562 158.652 81.2319C158.652 81.5076 158.542 81.772 158.346 81.9669C158.151 82.1619 157.886 82.2714 157.609 82.2714V82.2714Z" fill="#383A48"/>
<path d="M157.609 90.3788H128.003C127.727 90.3788 127.462 90.2693 127.266 90.0744C127.071 89.8794 126.961 89.615 126.961 89.3393C126.961 89.0636 127.071 88.7992 127.266 88.6043C127.462 88.4093 127.727 88.2998 128.003 88.2998H157.609C157.886 88.2998 158.151 88.4093 158.346 88.6043C158.542 88.7992 158.652 89.0636 158.652 89.3393C158.652 89.615 158.542 89.8794 158.346 90.0744C158.151 90.2693 157.886 90.3788 157.609 90.3788V90.3788Z" fill="#383A48"/>
<path d="M149.749 113.685C153.733 113.685 156.963 110.464 156.963 106.491C156.963 102.518 153.733 99.2979 149.749 99.2979C145.765 99.2979 142.535 102.518 142.535 106.491C142.535 110.464 145.765 113.685 149.749 113.685Z" fill="#EAD22B"/>
<path d="M147.802 178.125C144.967 178.125 142.006 177.894 139.003 177.389C138.436 177.305 138.037 176.758 138.142 176.19C138.226 175.622 138.772 175.222 139.339 175.328C147.34 176.611 154.817 176.127 160.949 173.897C167.753 171.436 172.773 166.977 175.902 160.646C176.91 158.585 177.561 156.208 177.75 154.147C177.267 154.231 176.763 154.273 176.259 154.294C174.789 154.357 173.571 153.789 172.899 152.716C172.248 151.686 172.227 150.361 172.836 149.267C173.487 148.11 174.705 147.437 176.217 147.437C177.414 147.437 178.38 147.984 179.031 149.036C179.43 149.688 179.682 150.508 179.829 151.433C182.328 150.508 184.617 148.762 186.382 146.385C189.364 142.347 190.477 137.194 189.343 132.545C189.196 131.977 189.553 131.409 190.12 131.283C190.687 131.136 191.254 131.494 191.38 132.061C192.661 137.299 191.422 143.125 188.062 147.647C185.899 150.55 183.042 152.632 179.913 153.642C179.787 156.271 178.968 159.237 177.792 161.593C174.411 168.429 168.993 173.224 161.663 175.874C157.526 177.368 152.822 178.125 147.802 178.125ZM176.217 149.54C175.482 149.54 174.936 149.814 174.684 150.277C174.453 150.697 174.453 151.202 174.705 151.581C174.978 152.001 175.482 152.212 176.175 152.17C176.721 152.149 177.246 152.085 177.792 151.98C177.708 151.223 177.54 150.571 177.267 150.129C176.994 149.73 176.658 149.54 176.217 149.54Z" fill="#383A48"/>
<path d="M267.403 49.0626C267.023 49.0626 266.664 48.852 266.473 48.515C262.226 40.6387 257.853 41.3969 254.345 42.0076C252.085 42.4077 249.274 42.8921 248.514 39.3541C247.753 35.7739 246.295 33.3521 244.055 31.9621C241.309 30.2563 237.231 30.0878 231.949 31.4567C231.378 31.6041 230.808 31.2672 230.66 30.6986C230.512 30.13 230.85 29.5613 231.42 29.4139C237.273 27.8976 241.9 28.1503 245.154 30.151C247.922 31.8568 249.676 34.721 250.563 38.8908C250.859 40.2807 251.239 40.386 253.944 39.9016C257.684 39.2488 263.325 38.259 268.312 47.4831C268.586 47.9886 268.396 48.6414 267.889 48.9152C267.741 49.0205 267.572 49.0626 267.403 49.0626Z" fill="#383A48"/>
<path d="M68.543 170.646V154.112C68.543 150.004 71.8775 146.668 75.9831 146.668H86.6328C89.1546 146.668 91.5304 147.961 92.8851 150.088L101.534 163.557L68.543 170.646Z" fill="#EAD22B"/>
<path d="M68.542 171.689C68.3128 171.689 68.0835 171.605 67.896 171.459C67.6459 171.251 67.5 170.959 67.5 170.646V154.111C67.5 149.441 71.293 145.625 75.9822 145.625H86.6319C89.5288 145.625 92.1964 147.085 93.7595 149.524L102.408 162.994C102.596 163.286 102.617 163.64 102.492 163.953C102.367 164.266 102.075 164.495 101.742 164.578L68.7713 171.668C68.6879 171.689 68.6046 171.689 68.542 171.689ZM75.9822 147.71C72.4601 147.71 69.5841 150.587 69.5841 154.111V169.353L99.8242 162.848L91.988 150.65C90.8001 148.815 88.7993 147.71 86.6111 147.71H75.9822Z" fill="#383A48"/>
<path d="M112.455 194.27H80.3806C73.8365 194.27 68.543 188.974 68.543 182.427V166.976C68.543 160.429 73.8365 155.133 80.3806 155.133H112.434C118.978 155.133 124.271 160.429 124.271 166.976V182.406C124.292 188.953 118.978 194.27 112.455 194.27Z" fill="#EAD22B"/>
<path d="M112.454 195.312H80.3796C73.2729 195.312 67.5 189.536 67.5 182.426V166.976C67.5 159.866 73.2729 154.09 80.3796 154.09H112.433C119.54 154.09 125.312 159.866 125.312 166.976V182.405C125.333 189.515 119.54 195.312 112.454 195.312ZM80.3796 156.154C74.4192 156.154 69.5841 161.012 69.5841 166.955V182.405C69.5841 188.369 74.44 193.206 80.3796 193.206H112.433C118.393 193.206 123.228 188.348 123.228 182.405V166.955C123.228 160.991 118.372 156.154 112.433 156.154H80.3796Z" fill="#383A48"/>
<path d="M91.5303 185.367C90.9676 185.367 90.3841 185.18 89.9048 184.825C89.0503 184.2 88.6126 183.157 88.8002 182.114L89.4254 178.466C89.4671 178.236 89.3837 178.007 89.217 177.861L86.5702 175.275C85.7991 174.525 85.549 173.441 85.8616 172.44C86.1742 171.439 87.0496 170.709 88.0916 170.542L91.7596 170C91.9888 169.958 92.1764 169.833 92.2806 169.625L93.927 166.31C94.4064 165.35 95.3442 164.767 96.4071 164.767C97.47 164.767 98.4287 165.35 98.8872 166.31L100.534 169.625C100.638 169.833 100.825 169.979 101.055 170L104.723 170.542C105.765 170.688 106.64 171.418 106.953 172.44C107.286 173.461 107.015 174.546 106.244 175.275L103.597 177.861C103.43 178.028 103.368 178.257 103.389 178.466L104.014 182.114C104.202 183.157 103.764 184.2 102.909 184.825C102.055 185.451 100.93 185.534 99.9917 185.034L96.7197 183.303C96.5113 183.199 96.2821 183.199 96.0737 183.303L92.8016 185.034C92.4057 185.263 91.968 185.367 91.5303 185.367ZM96.4071 166.852C96.2821 166.852 95.9694 166.893 95.7819 167.227L94.1355 170.542C93.7395 171.355 92.9475 171.918 92.0514 172.064L88.4042 172.607C88.0291 172.669 87.8832 172.961 87.8415 173.065C87.7998 173.169 87.7373 173.503 88.0082 173.774L90.655 176.36C91.3011 177.006 91.6137 177.923 91.447 178.82L90.8218 182.469C90.7592 182.844 90.9885 183.074 91.0927 183.136C91.1969 183.22 91.4678 183.366 91.8221 183.199L95.0941 181.468C95.9069 181.051 96.8656 181.051 97.6784 181.468L100.95 183.199C101.284 183.386 101.576 183.22 101.68 183.136C101.784 183.053 102.013 182.844 101.951 182.469L101.326 178.82C101.18 177.923 101.471 177.006 102.118 176.36L104.764 173.774C105.035 173.503 104.973 173.19 104.931 173.065C104.889 172.94 104.764 172.648 104.368 172.607L100.7 172.064C99.8042 171.939 99.0122 171.355 98.6162 170.542L96.9698 167.227C96.8656 166.893 96.553 166.852 96.4071 166.852Z" fill="#383A48"/>
</g>
<defs>
<clipPath id="clip0">
<rect width="400" height="225" fill="white"/>
</clipPath>
</defs>
</svg>
