<svg width="372" height="204" viewBox="0 0 372 204" fill="none" xmlns="http://www.w3.org/2000/svg">
<path d="M142.298 1.09467C142.164 0.480396 141.63 0.0263672 140.989 0.0263672H54.43C24.4107 0.0263672 0 24.4371 0 54.4564V119.142C0 119.756 0.427318 120.291 1.01488 120.424C1.12171 120.451 1.22855 120.477 1.33538 120.477C1.81611 120.477 2.27014 120.21 2.51051 119.783C2.75088 119.329 3.01795 118.875 3.28503 118.368C10.2557 105.468 28.764 71.1753 49.8897 67.5965C64.4988 65.1127 74.9948 61.2401 82.9537 55.3644C90.1113 50.103 94.3311 43.8802 98.818 37.3101C106.456 26.0929 115.136 13.3801 141.497 2.59029C142.084 2.34993 142.431 1.73565 142.298 1.09467Z" fill="#F3F6E6"/>
<path d="M52.4432 30.6389L50.5547 32.5273L56.7867 38.7594L58.6752 36.8709L52.4432 30.6389Z" fill="#383A48"/>
<path d="M56.8238 30.6293L50.5918 36.8613L52.4803 38.7498L58.7123 32.5178L56.8238 30.6293Z" fill="#383A48"/>
<path d="M28.0696 29.4317C27.7224 29.4317 27.3752 29.2982 27.1349 29.0311L0.400613 2.29685C-0.133538 1.7627 -0.133538 0.934765 0.400613 0.400613C0.934765 -0.133538 1.76269 -0.133538 2.29684 0.400613L29.0311 27.1349C29.5653 27.669 29.5653 28.497 29.0311 29.0311C28.764 29.2982 28.4168 29.4317 28.0696 29.4317Z" fill="#4053FA"/>
<path d="M144.246 85.624H1.33398V201.829H144.246V85.624Z" fill="#F3F6E6"/>
<path d="M144.248 203.164H1.33538C0.587566 203.164 0 202.577 0 201.829V85.6244C0 84.8766 0.587566 84.2891 1.33538 84.2891H144.248C144.995 84.2891 145.583 84.8766 145.583 85.6244V201.829C145.583 202.577 144.995 203.164 144.248 203.164ZM2.67076 200.494H142.912V86.9598H2.67076V200.494Z" fill="#383A48"/>
<path d="M19.2548 85.624H1.33398V119.142H19.2548V85.624Z" fill="#80ABFF"/>
<path d="M19.2562 120.478H1.33538C0.587567 120.478 0 119.89 0 119.142V85.6244C0 84.8766 0.587567 84.2891 1.33538 84.2891H19.2562C20.004 84.2891 20.5915 84.8766 20.5915 85.6244V119.142C20.5915 119.89 20.004 120.478 19.2562 120.478ZM2.67076 117.807H17.9208V86.9598H2.67076V117.807Z" fill="#383A48"/>
<path d="M13.5951 93.8495C14.3327 93.8495 14.9305 93.2516 14.9305 92.5141C14.9305 91.7766 14.3327 91.1787 13.5951 91.1787C12.8576 91.1787 12.2598 91.7766 12.2598 92.5141C12.2598 93.2516 12.8576 93.8495 13.5951 93.8495Z" fill="#383A48"/>
<path d="M13.5951 100.419C14.3327 100.419 14.9305 99.8209 14.9305 99.0834C14.9305 98.3459 14.3327 97.748 13.5951 97.748C12.8576 97.748 12.2598 98.3459 12.2598 99.0834C12.2598 99.8209 12.8576 100.419 13.5951 100.419Z" fill="#383A48"/>
<path d="M13.5951 107.016C14.3327 107.016 14.9305 106.419 14.9305 105.681C14.9305 104.944 14.3327 104.346 13.5951 104.346C12.8576 104.346 12.2598 104.944 12.2598 105.681C12.2598 106.419 12.8576 107.016 13.5951 107.016Z" fill="#383A48"/>
<path d="M13.5951 113.613C14.3327 113.613 14.9305 113.015 14.9305 112.278C14.9305 111.54 14.3327 110.942 13.5951 110.942C12.8576 110.942 12.2598 111.54 12.2598 112.278C12.2598 113.015 12.8576 113.613 13.5951 113.613Z" fill="#383A48"/>
<path d="M13.5951 125.364C14.3327 125.364 14.9305 124.766 14.9305 124.029C14.9305 123.291 14.3327 122.693 13.5951 122.693C12.8576 122.693 12.2598 123.291 12.2598 124.029C12.2598 124.766 12.8576 125.364 13.5951 125.364Z" fill="#383A48"/>
<path d="M13.5951 131.934C14.3327 131.934 14.9305 131.337 14.9305 130.599C14.9305 129.862 14.3327 129.264 13.5951 129.264C12.8576 129.264 12.2598 129.862 12.2598 130.599C12.2598 131.337 12.8576 131.934 13.5951 131.934Z" fill="#383A48"/>
<path d="M13.5951 138.531C14.3327 138.531 14.9305 137.933 14.9305 137.196C14.9305 136.458 14.3327 135.86 13.5951 135.86C12.8576 135.86 12.2598 136.458 12.2598 137.196C12.2598 137.933 12.8576 138.531 13.5951 138.531Z" fill="#383A48"/>
<path d="M13.5951 145.128C14.3327 145.128 14.9305 144.53 14.9305 143.792C14.9305 143.055 14.3327 142.457 13.5951 142.457C12.8576 142.457 12.2598 143.055 12.2598 143.792C12.2598 144.53 12.8576 145.128 13.5951 145.128Z" fill="#383A48"/>
<path d="M13.5951 151.697C14.3327 151.697 14.9305 151.099 14.9305 150.362C14.9305 149.624 14.3327 149.026 13.5951 149.026C12.8576 149.026 12.2598 149.624 12.2598 150.362C12.2598 151.099 12.8576 151.697 13.5951 151.697Z" fill="#383A48"/>
<path d="M13.5951 158.295C14.3327 158.295 14.9305 157.697 14.9305 156.959C14.9305 156.222 14.3327 155.624 13.5951 155.624C12.8576 155.624 12.2598 156.222 12.2598 156.959C12.2598 157.697 12.8576 158.295 13.5951 158.295Z" fill="#383A48"/>
<path d="M13.5951 164.891C14.3327 164.891 14.9305 164.294 14.9305 163.556C14.9305 162.819 14.3327 162.221 13.5951 162.221C12.8576 162.221 12.2598 162.819 12.2598 163.556C12.2598 164.294 12.8576 164.891 13.5951 164.891Z" fill="#383A48"/>
<path d="M13.5951 171.462C14.3327 171.462 14.9305 170.864 14.9305 170.126C14.9305 169.389 14.3327 168.791 13.5951 168.791C12.8576 168.791 12.2598 169.389 12.2598 170.126C12.2598 170.864 12.8576 171.462 13.5951 171.462Z" fill="#383A48"/>
<path d="M13.5951 178.058C14.3327 178.058 14.9305 177.461 14.9305 176.723C14.9305 175.986 14.3327 175.388 13.5951 175.388C12.8576 175.388 12.2598 175.986 12.2598 176.723C12.2598 177.461 12.8576 178.058 13.5951 178.058Z" fill="#383A48"/>
<path d="M13.5951 184.655C14.3327 184.655 14.9305 184.057 14.9305 183.32C14.9305 182.582 14.3327 181.984 13.5951 181.984C12.8576 181.984 12.2598 182.582 12.2598 183.32C12.2598 184.057 12.8576 184.655 13.5951 184.655Z" fill="#383A48"/>
<path d="M13.5951 191.224C14.3327 191.224 14.9305 190.627 14.9305 189.889C14.9305 189.152 14.3327 188.554 13.5951 188.554C12.8576 188.554 12.2598 189.152 12.2598 189.889C12.2598 190.627 12.8576 191.224 13.5951 191.224Z" fill="#383A48"/>
<path d="M13.5951 197.822C14.3327 197.822 14.9305 197.224 14.9305 196.487C14.9305 195.749 14.3327 195.151 13.5951 195.151C12.8576 195.151 12.2598 195.749 12.2598 196.487C12.2598 197.224 12.8576 197.822 13.5951 197.822Z" fill="#383A48"/>
<path d="M7.02483 93.8495C7.76234 93.8495 8.36021 93.2516 8.36021 92.5141C8.36021 91.7766 7.76234 91.1787 7.02483 91.1787C6.28732 91.1787 5.68945 91.7766 5.68945 92.5141C5.68945 93.2516 6.28732 93.8495 7.02483 93.8495Z" fill="#383A48"/>
<path d="M7.02483 100.419C7.76234 100.419 8.36021 99.8209 8.36021 99.0834C8.36021 98.3459 7.76234 97.748 7.02483 97.748C6.28732 97.748 5.68945 98.3459 5.68945 99.0834C5.68945 99.8209 6.28732 100.419 7.02483 100.419Z" fill="#383A48"/>
<path d="M7.02483 107.016C7.76234 107.016 8.36021 106.419 8.36021 105.681C8.36021 104.944 7.76234 104.346 7.02483 104.346C6.28732 104.346 5.68945 104.944 5.68945 105.681C5.68945 106.419 6.28732 107.016 7.02483 107.016Z" fill="#383A48"/>
<path d="M7.02483 113.613C7.76234 113.613 8.36021 113.015 8.36021 112.278C8.36021 111.54 7.76234 110.942 7.02483 110.942C6.28732 110.942 5.68945 111.54 5.68945 112.278C5.68945 113.015 6.28732 113.613 7.02483 113.613Z" fill="#383A48"/>
<path d="M7.02483 125.364C7.76234 125.364 8.36021 124.766 8.36021 124.029C8.36021 123.291 7.76234 122.693 7.02483 122.693C6.28732 122.693 5.68945 123.291 5.68945 124.029C5.68945 124.766 6.28732 125.364 7.02483 125.364Z" fill="#383A48"/>
<path d="M7.02483 131.934C7.76234 131.934 8.36021 131.337 8.36021 130.599C8.36021 129.862 7.76234 129.264 7.02483 129.264C6.28732 129.264 5.68945 129.862 5.68945 130.599C5.68945 131.337 6.28732 131.934 7.02483 131.934Z" fill="#383A48"/>
<path d="M7.02483 138.531C7.76234 138.531 8.36021 137.933 8.36021 137.196C8.36021 136.458 7.76234 135.86 7.02483 135.86C6.28732 135.86 5.68945 136.458 5.68945 137.196C5.68945 137.933 6.28732 138.531 7.02483 138.531Z" fill="#383A48"/>
<path d="M7.02483 145.128C7.76234 145.128 8.36021 144.53 8.36021 143.792C8.36021 143.055 7.76234 142.457 7.02483 142.457C6.28732 142.457 5.68945 143.055 5.68945 143.792C5.68945 144.53 6.28732 145.128 7.02483 145.128Z" fill="#383A48"/>
<path d="M7.02483 151.697C7.76234 151.697 8.36021 151.099 8.36021 150.362C8.36021 149.624 7.76234 149.026 7.02483 149.026C6.28732 149.026 5.68945 149.624 5.68945 150.362C5.68945 151.099 6.28732 151.697 7.02483 151.697Z" fill="#383A48"/>
<path d="M7.02483 158.295C7.76234 158.295 8.36021 157.697 8.36021 156.959C8.36021 156.222 7.76234 155.624 7.02483 155.624C6.28732 155.624 5.68945 156.222 5.68945 156.959C5.68945 157.697 6.28732 158.295 7.02483 158.295Z" fill="#383A48"/>
<path d="M7.02483 164.891C7.76234 164.891 8.36021 164.294 8.36021 163.556C8.36021 162.819 7.76234 162.221 7.02483 162.221C6.28732 162.221 5.68945 162.819 5.68945 163.556C5.68945 164.294 6.28732 164.891 7.02483 164.891Z" fill="#383A48"/>
<path d="M7.02483 171.462C7.76234 171.462 8.36021 170.864 8.36021 170.126C8.36021 169.389 7.76234 168.791 7.02483 168.791C6.28732 168.791 5.68945 169.389 5.68945 170.126C5.68945 170.864 6.28732 171.462 7.02483 171.462Z" fill="#383A48"/>
<path d="M7.02483 178.058C7.76234 178.058 8.36021 177.461 8.36021 176.723C8.36021 175.986 7.76234 175.388 7.02483 175.388C6.28732 175.388 5.68945 175.986 5.68945 176.723C5.68945 177.461 6.28732 178.058 7.02483 178.058Z" fill="#383A48"/>
<path d="M7.02483 184.655C7.76234 184.655 8.36021 184.057 8.36021 183.32C8.36021 182.582 7.76234 181.984 7.02483 181.984C6.28732 181.984 5.68945 182.582 5.68945 183.32C5.68945 184.057 6.28732 184.655 7.02483 184.655Z" fill="#383A48"/>
<path d="M7.02483 191.224C7.76234 191.224 8.36021 190.627 8.36021 189.889C8.36021 189.152 7.76234 188.554 7.02483 188.554C6.28732 188.554 5.68945 189.152 5.68945 189.889C5.68945 190.627 6.28732 191.224 7.02483 191.224Z" fill="#383A48"/>
<path d="M7.02483 197.822C7.76234 197.822 8.36021 197.224 8.36021 196.487C8.36021 195.749 7.76234 195.151 7.02483 195.151C6.28732 195.151 5.68945 195.749 5.68945 196.487C5.68945 197.224 6.28732 197.822 7.02483 197.822Z" fill="#383A48"/>
<path d="M162.168 85.623H19.2559V201.828H162.168V85.623Z" fill="#F3F6E6"/>
<path d="M162.169 203.163H19.2573C18.5094 203.163 17.9219 202.576 17.9219 201.828V85.6235C17.9219 84.8757 18.5094 84.2881 19.2573 84.2881H162.169C162.917 84.2881 163.505 84.8757 163.505 85.6235V201.828C163.505 202.576 162.917 203.163 162.169 203.163ZM20.5926 200.493H160.834V86.9588H20.5926V200.493Z" fill="#383A48"/>
<path d="M162.195 85.623H19.2559V119.141H162.195V85.623Z" fill="#80ABFF"/>
<path d="M162.223 120.477H19.2573C18.5094 120.477 17.9219 119.889 17.9219 119.141V85.6235C17.9219 84.8757 18.5094 84.2881 19.2573 84.2881H162.196C162.944 84.2881 163.532 84.8757 163.532 85.6235V119.141C163.558 119.889 162.944 120.477 162.223 120.477ZM20.5926 117.806H160.861V86.9588H20.5926V117.806Z" fill="#383A48"/>
<path d="M141.379 98.342L139.49 100.23L145.722 106.462L147.611 104.574L141.379 98.342Z" fill="#383A48"/>
<path d="M145.752 98.3354L139.52 104.567L141.408 106.456L147.64 100.224L145.752 98.3354Z" fill="#383A48"/>
<path d="M135.167 107.123H125.686V97.6416H135.167V107.123ZM128.356 104.452H132.496V100.312H128.356V104.452Z" fill="#383A48"/>
<path d="M120.316 104.451H113.506V107.122H120.316V104.451Z" fill="#383A48"/>
<path d="M61.1602 141.63V174.747C61.1602 177.739 63.5905 180.169 66.5818 180.169H110.97C113.961 180.169 116.391 177.739 116.391 174.747V150.737C116.391 147.746 113.961 145.316 110.97 145.316H95.2657C93.3161 145.316 91.4732 144.354 90.3515 142.752L87.1733 138.211C86.0516 136.609 84.2088 135.647 82.2591 135.647H67.1159C63.8309 135.647 61.1602 138.318 61.1602 141.63Z" fill="#80ABFF"/>
<path d="M110.971 181.53H66.5832C62.8441 181.53 59.8262 178.485 59.8262 174.773V141.656C59.8262 137.623 63.1112 134.338 67.144 134.338H82.2872C84.6909 134.338 86.9343 135.513 88.2964 137.463L91.4746 142.003C92.356 143.258 93.7715 143.979 95.2938 143.979H110.998C114.737 143.979 117.755 147.024 117.755 150.736V174.746C117.728 178.486 114.71 181.53 110.971 181.53ZM67.144 136.982C64.5801 136.982 62.4969 139.065 62.4969 141.629V174.746C62.4969 177.017 64.3397 178.833 66.5832 178.833H110.971C113.241 178.833 115.057 176.99 115.057 174.746V150.736C115.057 148.466 113.215 146.65 110.971 146.65H95.2671C92.8634 146.65 90.62 145.475 89.2579 143.525L86.0797 138.985C85.1984 137.73 83.7829 137.009 82.2605 137.009L67.144 136.982Z" fill="#383A48"/>
<path d="M192.174 9.06268L190.285 10.9512L196.517 17.1832L198.406 15.2947L192.174 9.06268Z" fill="#383A48"/>
<path d="M196.554 9.05508L190.322 15.2871L192.211 17.1756L198.443 10.9436L196.554 9.05508Z" fill="#383A48"/>
<path d="M343.273 42.0112C341.724 19.3098 322.815 1.3623 299.713 1.3623C284.944 1.3623 271.911 8.68018 264.005 19.9241C258.423 15.3571 251.266 12.6062 243.467 12.6062C226.588 12.6062 212.727 25.5059 211.178 41.9578H210.59C194.646 41.9578 181.746 54.8843 181.746 70.802C181.746 86.7464 194.673 99.6461 210.59 99.6461H341.19C357.135 99.6461 370.034 86.7197 370.034 70.802C370.061 55.552 358.256 43.0795 343.273 42.0112Z" fill="#F3F6E6"/>
<path d="M341.217 100.982H210.617C193.978 100.982 180.438 87.4409 180.438 70.8021C180.438 54.3502 193.658 40.943 210.003 40.6225C211.018 32.7438 214.783 25.506 220.686 20.1111C226.909 14.3957 235.028 11.2709 243.467 11.2709C250.759 11.2709 257.916 13.6479 263.738 18.0279C272.231 6.7306 285.558 0.0537109 299.713 0.0537109C311.198 0.0537109 322.121 4.38033 330.481 12.2324C338.52 19.7906 343.487 29.8861 344.502 40.8094C351.66 41.584 358.283 44.8957 363.251 50.1838C368.485 55.7924 371.397 63.1103 371.397 70.8021C371.397 87.4409 357.856 100.982 341.217 100.982ZM210.617 43.2665C195.447 43.2665 183.108 55.6054 183.108 70.7753C183.108 85.9452 195.447 98.2841 210.617 98.2841H341.217C356.387 98.2841 368.726 85.9452 368.726 70.7753C368.726 63.778 366.082 57.1011 361.301 51.9732C356.547 46.8721 350.111 43.8007 343.167 43.32C342.499 43.2665 341.965 42.7324 341.938 42.0914C341.217 31.4084 336.49 21.4732 328.664 14.1286C320.786 6.75731 310.503 2.67105 299.713 2.67105C285.959 2.67105 273.033 9.40136 265.1 20.6452C264.887 20.939 264.566 21.1527 264.192 21.2061C263.819 21.2595 263.445 21.1527 263.178 20.9123C257.649 16.372 250.652 13.8882 243.494 13.8882C235.695 13.8882 228.244 16.7726 222.502 22.034C216.787 27.2687 213.261 34.3462 212.54 42.038C212.487 42.7324 211.899 43.2398 211.205 43.2398H210.617V43.2665Z" fill="#383A48"/>
<path d="M364.932 73.2859C365.773 73.2859 366.455 72.6043 366.455 71.7635C366.455 70.9228 365.773 70.2412 364.932 70.2412C364.092 70.2412 363.41 70.9228 363.41 71.7635C363.41 72.6043 364.092 73.2859 364.932 73.2859Z" fill="#383A48"/>
<path d="M364.932 80.737C365.773 80.737 366.455 80.0555 366.455 79.2147C366.455 78.374 365.773 77.6924 364.932 77.6924C364.092 77.6924 363.41 78.374 363.41 79.2147C363.41 80.0555 364.092 80.737 364.932 80.737Z" fill="#383A48"/>
<path d="M357.481 80.737C358.322 80.737 359.004 80.0555 359.004 79.2147C359.004 78.374 358.322 77.6924 357.481 77.6924C356.641 77.6924 355.959 78.374 355.959 79.2147C355.959 80.0555 356.641 80.737 357.481 80.737Z" fill="#383A48"/>
<path d="M357.481 88.1892C358.322 88.1892 359.004 87.5076 359.004 86.6669C359.004 85.8261 358.322 85.1445 357.481 85.1445C356.641 85.1445 355.959 85.8261 355.959 86.6669C355.959 87.5076 356.641 88.1892 357.481 88.1892Z" fill="#383A48"/>
<path d="M350.028 80.737C350.869 80.737 351.551 80.0555 351.551 79.2147C351.551 78.374 350.869 77.6924 350.028 77.6924C349.187 77.6924 348.506 78.374 348.506 79.2147C348.506 80.0555 349.187 80.737 350.028 80.737Z" fill="#383A48"/>
<path d="M350.028 88.1892C350.869 88.1892 351.551 87.5076 351.551 86.6669C351.551 85.8261 350.869 85.1445 350.028 85.1445C349.187 85.1445 348.506 85.8261 348.506 86.6669C348.506 87.5076 349.187 88.1892 350.028 88.1892Z" fill="#383A48"/>
<path d="M350.028 95.6404C350.869 95.6404 351.551 94.9588 351.551 94.118C351.551 93.2773 350.869 92.5957 350.028 92.5957C349.187 92.5957 348.506 93.2773 348.506 94.118C348.506 94.9588 349.187 95.6404 350.028 95.6404Z" fill="#383A48"/>
<path d="M342.579 80.737C343.42 80.737 344.101 80.0555 344.101 79.2147C344.101 78.374 343.42 77.6924 342.579 77.6924C341.738 77.6924 341.057 78.374 341.057 79.2147C341.057 80.0555 341.738 80.737 342.579 80.737Z" fill="#383A48"/>
<path d="M342.579 88.1892C343.42 88.1892 344.101 87.5076 344.101 86.6669C344.101 85.8261 343.42 85.1445 342.579 85.1445C341.738 85.1445 341.057 85.8261 341.057 86.6669C341.057 87.5076 341.738 88.1892 342.579 88.1892Z" fill="#383A48"/>
<path d="M342.579 95.6404C343.42 95.6404 344.101 94.9588 344.101 94.118C344.101 93.2773 343.42 92.5957 342.579 92.5957C341.738 92.5957 341.057 93.2773 341.057 94.118C341.057 94.9588 341.738 95.6404 342.579 95.6404Z" fill="#383A48"/>
<path d="M335.128 80.737C335.969 80.737 336.65 80.0555 336.65 79.2147C336.65 78.374 335.969 77.6924 335.128 77.6924C334.287 77.6924 333.605 78.374 333.605 79.2147C333.605 80.0555 334.287 80.737 335.128 80.737Z" fill="#383A48"/>
<path d="M335.128 88.1892C335.969 88.1892 336.65 87.5076 336.65 86.6669C336.65 85.8261 335.969 85.1445 335.128 85.1445C334.287 85.1445 333.605 85.8261 333.605 86.6669C333.605 87.5076 334.287 88.1892 335.128 88.1892Z" fill="#383A48"/>
<path d="M335.128 95.6404C335.969 95.6404 336.65 94.9588 336.65 94.118C336.65 93.2773 335.969 92.5957 335.128 92.5957C334.287 92.5957 333.605 93.2773 333.605 94.118C333.605 94.9588 334.287 95.6404 335.128 95.6404Z" fill="#383A48"/>
<path d="M327.675 80.737C328.515 80.737 329.197 80.0555 329.197 79.2147C329.197 78.374 328.515 77.6924 327.675 77.6924C326.834 77.6924 326.152 78.374 326.152 79.2147C326.152 80.0555 326.834 80.737 327.675 80.737Z" fill="#383A48"/>
<path d="M327.675 88.1892C328.515 88.1892 329.197 87.5076 329.197 86.6669C329.197 85.8261 328.515 85.1445 327.675 85.1445C326.834 85.1445 326.152 85.8261 326.152 86.6669C326.152 87.5076 326.834 88.1892 327.675 88.1892Z" fill="#383A48"/>
<path d="M327.675 95.6404C328.515 95.6404 329.197 94.9588 329.197 94.118C329.197 93.2773 328.515 92.5957 327.675 92.5957C326.834 92.5957 326.152 93.2773 326.152 94.118C326.152 94.9588 326.834 95.6404 327.675 95.6404Z" fill="#383A48"/>
<path d="M320.223 80.737C321.064 80.737 321.746 80.0555 321.746 79.2147C321.746 78.374 321.064 77.6924 320.223 77.6924C319.383 77.6924 318.701 78.374 318.701 79.2147C318.701 80.0555 319.383 80.737 320.223 80.737Z" fill="#383A48"/>
<path d="M320.223 88.1892C321.064 88.1892 321.746 87.5076 321.746 86.6669C321.746 85.8261 321.064 85.1445 320.223 85.1445C319.383 85.1445 318.701 85.8261 318.701 86.6669C318.701 87.5076 319.383 88.1892 320.223 88.1892Z" fill="#383A48"/>
<path d="M320.223 95.6404C321.064 95.6404 321.746 94.9588 321.746 94.118C321.746 93.2773 321.064 92.5957 320.223 92.5957C319.383 92.5957 318.701 93.2773 318.701 94.118C318.701 94.9588 319.383 95.6404 320.223 95.6404Z" fill="#383A48"/>
<path d="M312.772 80.737C313.613 80.737 314.295 80.0555 314.295 79.2147C314.295 78.374 313.613 77.6924 312.772 77.6924C311.932 77.6924 311.25 78.374 311.25 79.2147C311.25 80.0555 311.932 80.737 312.772 80.737Z" fill="#383A48"/>
<path d="M312.772 88.1892C313.613 88.1892 314.295 87.5076 314.295 86.6669C314.295 85.8261 313.613 85.1445 312.772 85.1445C311.932 85.1445 311.25 85.8261 311.25 86.6669C311.25 87.5076 311.932 88.1892 312.772 88.1892Z" fill="#383A48"/>
<path d="M312.772 95.6404C313.613 95.6404 314.295 94.9588 314.295 94.118C314.295 93.2773 313.613 92.5957 312.772 92.5957C311.932 92.5957 311.25 93.2773 311.25 94.118C311.25 94.9588 311.932 95.6404 312.772 95.6404Z" fill="#383A48"/>
<path d="M305.321 80.737C306.162 80.737 306.844 80.0555 306.844 79.2147C306.844 78.374 306.162 77.6924 305.321 77.6924C304.48 77.6924 303.799 78.374 303.799 79.2147C303.799 80.0555 304.48 80.737 305.321 80.737Z" fill="#383A48"/>
<path d="M305.321 88.1892C306.162 88.1892 306.844 87.5076 306.844 86.6669C306.844 85.8261 306.162 85.1445 305.321 85.1445C304.48 85.1445 303.799 85.8261 303.799 86.6669C303.799 87.5076 304.48 88.1892 305.321 88.1892Z" fill="#383A48"/>
<path d="M305.321 95.6404C306.162 95.6404 306.844 94.9588 306.844 94.118C306.844 93.2773 306.162 92.5957 305.321 92.5957C304.48 92.5957 303.799 93.2773 303.799 94.118C303.799 94.9588 304.48 95.6404 305.321 95.6404Z" fill="#383A48"/>
<path d="M297.87 80.737C298.711 80.737 299.392 80.0555 299.392 79.2147C299.392 78.374 298.711 77.6924 297.87 77.6924C297.029 77.6924 296.348 78.374 296.348 79.2147C296.348 80.0555 297.029 80.737 297.87 80.737Z" fill="#383A48"/>
<path d="M297.87 88.1892C298.711 88.1892 299.392 87.5076 299.392 86.6669C299.392 85.8261 298.711 85.1445 297.87 85.1445C297.029 85.1445 296.348 85.8261 296.348 86.6669C296.348 87.5076 297.029 88.1892 297.87 88.1892Z" fill="#383A48"/>
<path d="M297.87 95.6404C298.711 95.6404 299.392 94.9588 299.392 94.118C299.392 93.2773 298.711 92.5957 297.87 92.5957C297.029 92.5957 296.348 93.2773 296.348 94.118C296.348 94.9588 297.029 95.6404 297.87 95.6404Z" fill="#383A48"/>
<path d="M290.419 80.737C291.26 80.737 291.941 80.0555 291.941 79.2147C291.941 78.374 291.26 77.6924 290.419 77.6924C289.578 77.6924 288.896 78.374 288.896 79.2147C288.896 80.0555 289.578 80.737 290.419 80.737Z" fill="#383A48"/>
<path d="M290.419 88.1892C291.26 88.1892 291.941 87.5076 291.941 86.6669C291.941 85.8261 291.26 85.1445 290.419 85.1445C289.578 85.1445 288.896 85.8261 288.896 86.6669C288.896 87.5076 289.578 88.1892 290.419 88.1892Z" fill="#383A48"/>
<path d="M290.419 95.6404C291.26 95.6404 291.941 94.9588 291.941 94.118C291.941 93.2773 291.26 92.5957 290.419 92.5957C289.578 92.5957 288.896 93.2773 288.896 94.118C288.896 94.9588 289.578 95.6404 290.419 95.6404Z" fill="#383A48"/>
<path d="M282.968 80.737C283.808 80.737 284.49 80.0555 284.49 79.2147C284.49 78.374 283.808 77.6924 282.968 77.6924C282.127 77.6924 281.445 78.374 281.445 79.2147C281.445 80.0555 282.127 80.737 282.968 80.737Z" fill="#383A48"/>
<path d="M282.968 88.1892C283.808 88.1892 284.49 87.5076 284.49 86.6669C284.49 85.8261 283.808 85.1445 282.968 85.1445C282.127 85.1445 281.445 85.8261 281.445 86.6669C281.445 87.5076 282.127 88.1892 282.968 88.1892Z" fill="#383A48"/>
<path d="M282.968 95.6404C283.808 95.6404 284.49 94.9588 284.49 94.118C284.49 93.2773 283.808 92.5957 282.968 92.5957C282.127 92.5957 281.445 93.2773 281.445 94.118C281.445 94.9588 282.127 95.6404 282.968 95.6404Z" fill="#383A48"/>
<path d="M275.515 80.737C276.355 80.737 277.037 80.0555 277.037 79.2147C277.037 78.374 276.355 77.6924 275.515 77.6924C274.674 77.6924 273.992 78.374 273.992 79.2147C273.992 80.0555 274.674 80.737 275.515 80.737Z" fill="#383A48"/>
<path d="M275.515 88.1892C276.355 88.1892 277.037 87.5076 277.037 86.6669C277.037 85.8261 276.355 85.1445 275.515 85.1445C274.674 85.1445 273.992 85.8261 273.992 86.6669C273.992 87.5076 274.674 88.1892 275.515 88.1892Z" fill="#383A48"/>
<path d="M275.515 95.6404C276.355 95.6404 277.037 94.9588 277.037 94.118C277.037 93.2773 276.355 92.5957 275.515 92.5957C274.674 92.5957 273.992 93.2773 273.992 94.118C273.992 94.9588 274.674 95.6404 275.515 95.6404Z" fill="#383A48"/>
<path d="M268.063 80.737C268.904 80.737 269.586 80.0555 269.586 79.2147C269.586 78.374 268.904 77.6924 268.063 77.6924C267.223 77.6924 266.541 78.374 266.541 79.2147C266.541 80.0555 267.223 80.737 268.063 80.737Z" fill="#383A48"/>
<path d="M268.063 88.1892C268.904 88.1892 269.586 87.5076 269.586 86.6669C269.586 85.8261 268.904 85.1445 268.063 85.1445C267.223 85.1445 266.541 85.8261 266.541 86.6669C266.541 87.5076 267.223 88.1892 268.063 88.1892Z" fill="#383A48"/>
<path d="M268.063 95.6404C268.904 95.6404 269.586 94.9588 269.586 94.118C269.586 93.2773 268.904 92.5957 268.063 92.5957C267.223 92.5957 266.541 93.2773 266.541 94.118C266.541 94.9588 267.223 95.6404 268.063 95.6404Z" fill="#383A48"/>
<path d="M260.614 80.737C261.455 80.737 262.136 80.0555 262.136 79.2147C262.136 78.374 261.455 77.6924 260.614 77.6924C259.773 77.6924 259.092 78.374 259.092 79.2147C259.092 80.0555 259.773 80.737 260.614 80.737Z" fill="#383A48"/>
<path d="M260.614 88.1892C261.455 88.1892 262.136 87.5076 262.136 86.6669C262.136 85.8261 261.455 85.1445 260.614 85.1445C259.773 85.1445 259.092 85.8261 259.092 86.6669C259.092 87.5076 259.773 88.1892 260.614 88.1892Z" fill="#383A48"/>
<path d="M260.614 95.6404C261.455 95.6404 262.136 94.9588 262.136 94.118C262.136 93.2773 261.455 92.5957 260.614 92.5957C259.773 92.5957 259.092 93.2773 259.092 94.118C259.092 94.9588 259.773 95.6404 260.614 95.6404Z" fill="#383A48"/>
<path d="M253.161 80.737C254.002 80.737 254.683 80.0555 254.683 79.2147C254.683 78.374 254.002 77.6924 253.161 77.6924C252.32 77.6924 251.639 78.374 251.639 79.2147C251.639 80.0555 252.32 80.737 253.161 80.737Z" fill="#383A48"/>
<path d="M253.161 88.1892C254.002 88.1892 254.683 87.5076 254.683 86.6669C254.683 85.8261 254.002 85.1445 253.161 85.1445C252.32 85.1445 251.639 85.8261 251.639 86.6669C251.639 87.5076 252.32 88.1892 253.161 88.1892Z" fill="#383A48"/>
<path d="M253.161 95.6404C254.002 95.6404 254.683 94.9588 254.683 94.118C254.683 93.2773 254.002 92.5957 253.161 92.5957C252.32 92.5957 251.639 93.2773 251.639 94.118C251.639 94.9588 252.32 95.6404 253.161 95.6404Z" fill="#383A48"/>
<path d="M245.71 80.737C246.551 80.737 247.232 80.0555 247.232 79.2147C247.232 78.374 246.551 77.6924 245.71 77.6924C244.869 77.6924 244.188 78.374 244.188 79.2147C244.188 80.0555 244.869 80.737 245.71 80.737Z" fill="#383A48"/>
<path d="M245.71 88.1892C246.551 88.1892 247.232 87.5076 247.232 86.6669C247.232 85.8261 246.551 85.1445 245.71 85.1445C244.869 85.1445 244.188 85.8261 244.188 86.6669C244.188 87.5076 244.869 88.1892 245.71 88.1892Z" fill="#383A48"/>
<path d="M245.71 95.6404C246.551 95.6404 247.232 94.9588 247.232 94.118C247.232 93.2773 246.551 92.5957 245.71 92.5957C244.869 92.5957 244.188 93.2773 244.188 94.118C244.188 94.9588 244.869 95.6404 245.71 95.6404Z" fill="#383A48"/>
<path d="M238.259 80.737C239.099 80.737 239.781 80.0555 239.781 79.2147C239.781 78.374 239.099 77.6924 238.259 77.6924C237.418 77.6924 236.736 78.374 236.736 79.2147C236.736 80.0555 237.418 80.737 238.259 80.737Z" fill="#383A48"/>
<path d="M238.259 88.1892C239.099 88.1892 239.781 87.5076 239.781 86.6669C239.781 85.8261 239.099 85.1445 238.259 85.1445C237.418 85.1445 236.736 85.8261 236.736 86.6669C236.736 87.5076 237.418 88.1892 238.259 88.1892Z" fill="#383A48"/>
<path d="M238.259 95.6404C239.099 95.6404 239.781 94.9588 239.781 94.118C239.781 93.2773 239.099 92.5957 238.259 92.5957C237.418 92.5957 236.736 93.2773 236.736 94.118C236.736 94.9588 237.418 95.6404 238.259 95.6404Z" fill="#383A48"/>
<path d="M230.808 80.737C231.648 80.737 232.33 80.0555 232.33 79.2147C232.33 78.374 231.648 77.6924 230.808 77.6924C229.967 77.6924 229.285 78.374 229.285 79.2147C229.285 80.0555 229.967 80.737 230.808 80.737Z" fill="#383A48"/>
<path d="M230.808 88.1892C231.648 88.1892 232.33 87.5076 232.33 86.6669C232.33 85.8261 231.648 85.1445 230.808 85.1445C229.967 85.1445 229.285 85.8261 229.285 86.6669C229.285 87.5076 229.967 88.1892 230.808 88.1892Z" fill="#383A48"/>
<path d="M230.808 95.6404C231.648 95.6404 232.33 94.9588 232.33 94.118C232.33 93.2773 231.648 92.5957 230.808 92.5957C229.967 92.5957 229.285 93.2773 229.285 94.118C229.285 94.9588 229.967 95.6404 230.808 95.6404Z" fill="#383A48"/>
<path d="M223.356 80.737C224.197 80.737 224.879 80.0555 224.879 79.2147C224.879 78.374 224.197 77.6924 223.356 77.6924C222.516 77.6924 221.834 78.374 221.834 79.2147C221.834 80.0555 222.516 80.737 223.356 80.737Z" fill="#383A48"/>
<path d="M223.356 88.1892C224.197 88.1892 224.879 87.5076 224.879 86.6669C224.879 85.8261 224.197 85.1445 223.356 85.1445C222.516 85.1445 221.834 85.8261 221.834 86.6669C221.834 87.5076 222.516 88.1892 223.356 88.1892Z" fill="#383A48"/>
<path d="M223.356 95.6404C224.197 95.6404 224.879 94.9588 224.879 94.118C224.879 93.2773 224.197 92.5957 223.356 92.5957C222.516 92.5957 221.834 93.2773 221.834 94.118C221.834 94.9588 222.516 95.6404 223.356 95.6404Z" fill="#383A48"/>
<path d="M215.903 80.737C216.744 80.737 217.426 80.0555 217.426 79.2147C217.426 78.374 216.744 77.6924 215.903 77.6924C215.062 77.6924 214.381 78.374 214.381 79.2147C214.381 80.0555 215.062 80.737 215.903 80.737Z" fill="#383A48"/>
<path d="M215.903 88.1892C216.744 88.1892 217.426 87.5076 217.426 86.6669C217.426 85.8261 216.744 85.1445 215.903 85.1445C215.062 85.1445 214.381 85.8261 214.381 86.6669C214.381 87.5076 215.062 88.1892 215.903 88.1892Z" fill="#383A48"/>
<path d="M215.903 95.6404C216.744 95.6404 217.426 94.9588 217.426 94.118C217.426 93.2773 216.744 92.5957 215.903 92.5957C215.062 92.5957 214.381 93.2773 214.381 94.118C214.381 94.9588 215.062 95.6404 215.903 95.6404Z" fill="#383A48"/>
<path d="M208.454 80.737C209.295 80.737 209.976 80.0555 209.976 79.2147C209.976 78.374 209.295 77.6924 208.454 77.6924C207.613 77.6924 206.932 78.374 206.932 79.2147C206.932 80.0555 207.613 80.737 208.454 80.737Z" fill="#383A48"/>
<path d="M208.454 88.1892C209.295 88.1892 209.976 87.5076 209.976 86.6669C209.976 85.8261 209.295 85.1445 208.454 85.1445C207.613 85.1445 206.932 85.8261 206.932 86.6669C206.932 87.5076 207.613 88.1892 208.454 88.1892Z" fill="#383A48"/>
<path d="M208.454 95.6404C209.295 95.6404 209.976 94.9588 209.976 94.118C209.976 93.2773 209.295 92.5957 208.454 92.5957C207.613 92.5957 206.932 93.2773 206.932 94.118C206.932 94.9588 207.613 95.6404 208.454 95.6404Z" fill="#383A48"/>
<path d="M201.001 80.737C201.842 80.737 202.523 80.0555 202.523 79.2147C202.523 78.374 201.842 77.6924 201.001 77.6924C200.16 77.6924 199.479 78.374 199.479 79.2147C199.479 80.0555 200.16 80.737 201.001 80.737Z" fill="#383A48"/>
<path d="M201.001 88.1892C201.842 88.1892 202.523 87.5076 202.523 86.6669C202.523 85.8261 201.842 85.1445 201.001 85.1445C200.16 85.1445 199.479 85.8261 199.479 86.6669C199.479 87.5076 200.16 88.1892 201.001 88.1892Z" fill="#383A48"/>
<path d="M201.001 95.6404C201.842 95.6404 202.523 94.9588 202.523 94.118C202.523 93.2773 201.842 92.5957 201.001 92.5957C200.16 92.5957 199.479 93.2773 199.479 94.118C199.479 94.9588 200.16 95.6404 201.001 95.6404Z" fill="#383A48"/>
<path d="M193.55 73.2859C194.39 73.2859 195.072 72.6043 195.072 71.7635C195.072 70.9228 194.39 70.2412 193.55 70.2412C192.709 70.2412 192.027 70.9228 192.027 71.7635C192.027 72.6043 192.709 73.2859 193.55 73.2859Z" fill="#383A48"/>
<path d="M193.55 80.737C194.39 80.737 195.072 80.0555 195.072 79.2147C195.072 78.374 194.39 77.6924 193.55 77.6924C192.709 77.6924 192.027 78.374 192.027 79.2147C192.027 80.0555 192.709 80.737 193.55 80.737Z" fill="#383A48"/>
<path d="M193.55 88.1892C194.39 88.1892 195.072 87.5076 195.072 86.6669C195.072 85.8261 194.39 85.1445 193.55 85.1445C192.709 85.1445 192.027 85.8261 192.027 86.6669C192.027 87.5076 192.709 88.1892 193.55 88.1892Z" fill="#383A48"/>
<path d="M186.099 58.3835C186.939 58.3835 187.621 57.702 187.621 56.8612C187.621 56.0204 186.939 55.3389 186.099 55.3389C185.258 55.3389 184.576 56.0204 184.576 56.8612C184.576 57.702 185.258 58.3835 186.099 58.3835Z" fill="#383A48"/>
<path d="M186.099 65.8337C186.939 65.8337 187.621 65.1522 187.621 64.3114C187.621 63.4706 186.939 62.7891 186.099 62.7891C185.258 62.7891 184.576 63.4706 184.576 64.3114C184.576 65.1522 185.258 65.8337 186.099 65.8337Z" fill="#383A48"/>
<path d="M186.099 73.2859C186.939 73.2859 187.621 72.6043 187.621 71.7635C187.621 70.9228 186.939 70.2412 186.099 70.2412C185.258 70.2412 184.576 70.9228 184.576 71.7635C184.576 72.6043 185.258 73.2859 186.099 73.2859Z" fill="#383A48"/>
<path d="M186.099 80.737C186.939 80.737 187.621 80.0555 187.621 79.2147C187.621 78.374 186.939 77.6924 186.099 77.6924C185.258 77.6924 184.576 78.374 184.576 79.2147C184.576 80.0555 185.258 80.737 186.099 80.737Z" fill="#383A48"/>
<path d="M215.718 43.2665H211.205C210.457 43.2665 209.869 42.6789 209.869 41.9311C209.869 41.1833 210.457 40.5957 211.205 40.5957H215.718C216.466 40.5957 217.053 41.1833 217.053 41.9311C217.053 42.6789 216.466 43.2665 215.718 43.2665Z" fill="#383A48"/>
<path d="M343.273 47.2726C342.525 47.2726 341.938 46.685 341.938 45.9372V42.0112C341.938 41.2633 342.525 40.6758 343.273 40.6758C344.021 40.6758 344.608 41.2633 344.608 42.0112V45.9372C344.608 46.685 344.021 47.2726 343.273 47.2726Z" fill="#383A48"/>
<path d="M266.782 23.5565C266.488 23.5565 266.168 23.4497 265.927 23.236L263.15 20.9392C262.589 20.4585 262.509 19.6305 262.989 19.0697C263.47 18.5088 264.298 18.4287 264.859 18.9094L267.61 21.233C268.171 21.7137 268.251 22.5416 267.77 23.1025C267.53 23.3963 267.156 23.5565 266.782 23.5565Z" fill="#383A48"/>
<path d="M163.264 145.824L162.784 145.156C161.048 142.672 158.19 141.177 155.145 141.177H134.981C129.853 141.177 125.66 145.343 125.66 150.498V194.619C125.66 199.346 129.506 203.192 134.233 203.192H162.143C162.89 203.192 163.478 202.604 163.478 201.856V146.572C163.505 146.305 163.425 146.038 163.264 145.824Z" fill="#383A48"/>
<path d="M140.455 136.208V180.329C140.455 184.335 143.687 187.567 147.693 187.567H206.823C210.83 187.567 214.061 184.335 214.061 180.329V148.36C214.061 144.354 210.83 141.122 206.823 141.122H185.885C183.267 141.122 180.837 139.84 179.341 137.704L175.122 131.641C173.626 129.505 171.195 128.223 168.578 128.223H148.414C144.034 128.249 140.455 131.828 140.455 136.208Z" fill="#F6E049"/>
<path d="M206.823 188.929H147.692C142.965 188.929 139.119 185.083 139.119 180.356V136.209C139.119 131.081 143.286 126.888 148.44 126.888H168.604C171.649 126.888 174.507 128.383 176.243 130.867L180.462 136.93C181.691 138.719 183.747 139.761 185.911 139.761H206.85C211.577 139.761 215.423 143.607 215.423 148.334V180.33C215.369 185.083 211.55 188.929 206.823 188.929ZM148.413 129.585C144.754 129.585 141.763 132.55 141.763 136.235V180.356C141.763 183.615 144.407 186.259 147.666 186.259H206.796C210.054 186.259 212.698 183.615 212.698 180.356V148.361C212.698 145.102 210.054 142.458 206.796 142.458H185.857C182.813 142.458 179.955 140.963 178.219 138.479L173.999 132.416C172.771 130.627 170.714 129.585 168.551 129.585H148.413Z" fill="#383A48"/>
<path d="M229.417 166.148C228.696 166.148 228.082 165.56 228.082 164.812C228.082 164.064 228.67 163.477 229.417 163.477C238.658 163.397 251.291 160.94 259.196 149.722C262.134 145.529 263.843 140.936 264.618 136.556C260.932 134.446 257.674 131.588 255.11 128.196C253.054 125.445 252.653 122.481 253.988 120.05C255.19 117.86 257.701 116.552 260.211 116.765C263.016 117.006 265.286 119.009 266.434 122.267C267.609 125.632 268.09 130.172 267.529 135.06C268.891 135.728 270.307 136.288 271.776 136.742C277.331 138.452 282.913 138.345 287.506 136.449C291.165 134.926 294.05 132.309 295.786 128.837C297.815 124.858 298.403 119.89 297.602 114.041C297.495 113.32 298.002 112.626 298.75 112.545C299.471 112.439 300.166 112.946 300.246 113.694C301.955 125.953 297.682 135.167 288.521 138.933C283.34 141.069 277.117 141.203 270.974 139.306C269.639 138.906 268.357 138.398 267.102 137.811C266.22 142.298 264.404 146.971 261.413 151.245C256.659 157.948 247.285 165.961 229.417 166.148ZM259.65 119.436C258.288 119.436 256.98 120.184 256.312 121.386C255.484 122.881 255.805 124.724 257.22 126.62C259.33 129.425 261.974 131.828 264.965 133.698C265.312 129.665 264.858 125.979 263.87 123.175C263.096 120.932 261.707 119.623 259.944 119.463C259.864 119.436 259.757 119.436 259.65 119.436Z" fill="#383A48"/>
<path d="M229.178 152.446C233.317 152.366 237.056 151.859 240.422 151.004Z" fill="#80ABFF"/>
<path d="M229.179 153.782C228.458 153.782 227.87 153.195 227.844 152.473C227.844 151.726 228.405 151.138 229.152 151.111C233.052 151.031 236.737 150.577 240.102 149.723C240.824 149.536 241.545 149.963 241.732 150.684C241.919 151.405 241.491 152.126 240.77 152.313C237.191 153.195 233.319 153.702 229.179 153.782C229.179 153.782 229.206 153.782 229.179 153.782Z" fill="#383A48"/>
<path d="M370.354 122.721C369.74 122.587 369.126 122.908 368.858 123.468C368.805 123.602 363.009 136.155 350.537 145.796C342.605 151.939 333.685 155.571 324.097 156.586C318.515 157.173 313.04 158.803 307.378 161.5C300.033 165.025 293.116 169.993 285.825 175.228C272.631 184.736 257.675 195.472 235.775 200.493C235.107 200.653 234.68 201.268 234.733 201.935C234.813 202.603 235.374 203.11 236.068 203.11H370.087C370.835 203.11 371.422 202.523 371.422 201.775V124.029C371.396 123.388 370.968 122.854 370.354 122.721Z" fill="#F3F6E6"/>
<path d="M352.54 146.277C348.481 137.811 339.774 132.336 330.4 132.336C316.859 132.336 305.855 143.339 305.855 156.88C305.855 158.99 306.123 161.047 306.63 163.05C306.737 163.424 307.004 163.744 307.351 163.931C307.538 164.011 307.725 164.065 307.912 164.065C308.099 164.065 308.313 164.011 308.5 163.931C313.894 161.34 319.076 159.818 324.364 159.257C334.459 158.162 343.807 154.37 352.166 147.906C352.647 147.533 352.807 146.838 352.54 146.277Z" fill="#4053FA"/>
<path d="M352.54 146.278C352.353 145.904 352.032 145.637 351.632 145.556C351.231 145.476 350.83 145.556 350.51 145.797C342.578 151.94 333.657 155.572 324.069 156.587C318.487 157.174 313.012 158.803 307.35 161.501C306.763 161.768 306.469 162.409 306.629 163.05C309.434 173.866 319.209 181.425 330.399 181.425C343.94 181.425 354.943 170.421 354.943 156.88C354.943 153.168 354.142 149.589 352.54 146.278Z" fill="#80ABFF"/>
<path d="M158.322 45.136L153.889 42.118L156.559 37.4709C156.827 36.9902 156.8 36.4026 156.453 35.9753C156.105 35.548 155.545 35.361 155.01 35.5213L149.883 37.097L147.906 32.1027C147.693 31.5952 147.212 31.248 146.651 31.248C146.09 31.248 145.609 31.5952 145.396 32.1027L143.419 37.097L138.291 35.5213C137.757 35.361 137.196 35.548 136.849 35.9753C136.502 36.4026 136.475 36.9902 136.742 37.4709L139.413 42.118L134.98 45.136C134.526 45.4565 134.312 45.9906 134.446 46.5248C134.579 47.0589 135.006 47.4595 135.541 47.5397L140.829 48.3409L140.428 53.6824C140.401 54.2165 140.695 54.7507 141.176 54.9911C141.363 55.0712 141.55 55.1246 141.763 55.1246C142.084 55.1246 142.431 54.9911 142.672 54.7774L146.598 51.1452L150.524 54.7774C150.924 55.1513 151.512 55.2314 152.019 54.9911C152.5 54.7507 152.82 54.2433 152.767 53.6824L152.366 48.3409L157.654 47.5397C158.189 47.4595 158.643 47.0589 158.749 46.5248C158.99 45.9906 158.776 45.4298 158.322 45.136Z" fill="#F6E049"/>
</svg>
