<svg width="422" height="223" viewBox="0 0 422 223" fill="none" xmlns="http://www.w3.org/2000/svg">
<path d="M113.028 4.44425C112.889 3.80585 112.332 3.33398 111.665 3.33398H1.39129C0.612166 3.33398 0 3.94463 0 4.72182V220.696C0 221.418 0.528688 222.001 1.25216 222.084C1.30781 222.084 1.36346 222.084 1.39129 222.084C2.03128 222.084 2.61562 221.64 2.75474 220.974C14.1911 167.015 25.2379 154.58 41.9333 135.733C46.9976 130.043 52.7019 123.576 59.0461 115.249C69.7869 101.121 70.8164 85.0495 71.8182 69.5058C72.6251 57.1263 73.3764 45.4686 78.5798 34.588C84.5067 22.3195 95.1639 13.2153 112.193 5.99862C112.805 5.74881 113.167 5.08265 113.028 4.44425Z" fill="#F3F6E6"/>
<path d="M253.325 15.001H163.028C161.927 15.001 161.034 15.8926 161.034 16.9924V107.176C161.034 108.276 161.927 109.168 163.028 109.168H253.325C254.426 109.168 255.319 108.276 255.319 107.176V16.9924C255.319 15.8926 254.426 15.001 253.325 15.001Z" fill="#383A48"/>
<path d="M243.084 4.30566H116.113V96.1113H243.084V4.30566Z" fill="#F3F6E6"/>
<path d="M243.085 97.5004H116.114C115.931 97.5022 115.75 97.4675 115.581 97.3984C115.412 97.3292 115.258 97.227 115.129 97.0976C115 96.9683 114.898 96.8145 114.829 96.6451C114.759 96.4758 114.725 96.2944 114.727 96.1115V4.30595C114.725 4.12305 114.759 3.94163 114.829 3.7723C114.898 3.60297 115 3.44914 115.129 3.3198C115.258 3.19047 115.412 3.08823 115.581 3.01908C115.75 2.94992 115.931 2.91524 116.114 2.91706H243.085C243.268 2.91524 243.449 2.94992 243.618 3.01908C243.787 3.08823 243.941 3.19047 244.07 3.3198C244.199 3.44914 244.301 3.60297 244.37 3.7723C244.439 3.94163 244.474 4.12305 244.472 4.30595V96.1115C244.474 96.2944 244.439 96.4758 244.37 96.6451C244.301 96.8145 244.199 96.9683 244.07 97.0976C243.941 97.227 243.787 97.3292 243.618 97.3984C243.449 97.4675 243.268 97.5022 243.085 97.5004V97.5004ZM117.501 94.7226H241.698V5.69484H117.501V94.7226Z" fill="#383A48"/>
<path d="M233.708 15.917H125.49V84.5003H233.708V15.917Z" fill="#F3F6E6"/>
<path d="M233.709 85.8895H125.491C125.308 85.8913 125.127 85.8566 124.958 85.7875C124.789 85.7183 124.635 85.6161 124.506 85.4868C124.377 85.3574 124.275 85.2036 124.205 85.0343C124.136 84.8649 124.102 84.6835 124.104 84.5006V15.9173C124.102 15.7344 124.136 15.553 124.205 15.3836C124.275 15.2143 124.377 15.0605 124.506 14.9311C124.635 14.8018 124.789 14.6996 124.958 14.6304C125.127 14.5613 125.308 14.5266 125.491 14.5284H233.709C233.891 14.5266 234.073 14.5613 234.242 14.6304C234.411 14.6996 234.564 14.8018 234.694 14.9311C234.823 15.0605 234.925 15.2143 234.994 15.3836C235.063 15.553 235.098 15.7344 235.096 15.9173V84.5006C235.098 84.6835 235.063 84.8649 234.994 85.0343C234.925 85.2036 234.823 85.3574 234.694 85.4868C234.564 85.6161 234.411 85.7183 234.242 85.7875C234.073 85.8566 233.891 85.8913 233.709 85.8895V85.8895ZM126.878 83.1117H232.322V17.3062H126.878V83.1117Z" fill="#383A48"/>
<path d="M225.1 47.7652L212.737 36.0152L200.375 47.7652V3.89844H225.1V47.7652Z" fill="#E0719E"/>
<path d="M225.1 49.1645C224.734 49.1616 224.383 49.0218 224.116 48.7728L212.737 37.946L201.358 48.7728C201.162 48.9645 200.913 49.0936 200.643 49.1434C200.372 49.1932 200.093 49.1616 199.841 49.0526C199.591 48.9418 199.378 48.7614 199.229 48.5331C199.079 48.3048 198.999 48.0383 198.998 47.7657V3.89888C198.996 3.71468 199.031 3.53196 199.101 3.36142C199.171 3.19088 199.275 3.03595 199.405 2.90569C199.536 2.77543 199.692 2.67246 199.863 2.60281C200.034 2.53317 200.218 2.49824 200.403 2.50007H225.128C225.313 2.49824 225.496 2.53317 225.667 2.60281C225.839 2.67246 225.994 2.77543 226.125 2.90569C226.256 3.03595 226.359 3.19088 226.429 3.36142C226.499 3.53196 226.534 3.71468 226.532 3.89888V47.7657C226.532 48.0383 226.451 48.3048 226.302 48.5331C226.152 48.7614 225.94 48.9418 225.69 49.0526C225.501 49.1252 225.301 49.1631 225.1 49.1645ZM212.737 34.6168C213.102 34.6248 213.451 34.764 213.721 35.0085L223.695 44.4925V5.2977H201.78V44.4925L211.754 35.0085C212.021 34.7596 212.372 34.6198 212.737 34.6168V34.6168Z" fill="#383A48"/>
<path d="M380.114 145.826C379.781 145.77 345.756 140.844 311.37 138.812C291.133 137.615 274.732 137.615 262.584 138.84C246.656 140.454 238.094 144.128 236.371 150.056C229.088 175.354 220.415 192.192 209.046 203.102C198.566 213.149 185.695 218.409 167.293 220.135C166.542 220.218 166.014 220.831 166.042 221.582C166.07 222.333 166.681 222.918 167.432 222.918H379.92C380.698 222.918 381.31 222.306 381.31 221.526V147.189C381.31 146.493 380.809 145.909 380.114 145.826Z" fill="#F3F6E6"/>
<path d="M378.244 159.451C379.016 159.451 379.641 158.828 379.641 158.059C379.641 157.29 379.016 156.667 378.244 156.667C377.473 156.667 376.848 157.29 376.848 158.059C376.848 158.828 377.473 159.451 378.244 159.451Z" fill="#383A48"/>
<path d="M378.244 166.327C379.016 166.327 379.641 165.704 379.641 164.935C379.641 164.166 379.016 163.543 378.244 163.543C377.473 163.543 376.848 164.166 376.848 164.935C376.848 165.704 377.473 166.327 378.244 166.327Z" fill="#383A48"/>
<path d="M378.244 173.203C379.016 173.203 379.641 172.58 379.641 171.811C379.641 171.042 379.016 170.419 378.244 170.419C377.473 170.419 376.848 171.042 376.848 171.811C376.848 172.58 377.473 173.203 378.244 173.203Z" fill="#383A48"/>
<path d="M378.244 180.05C379.016 180.05 379.641 179.427 379.641 178.659C379.641 177.89 379.016 177.267 378.244 177.267C377.473 177.267 376.848 177.89 376.848 178.659C376.848 179.427 377.473 180.05 378.244 180.05Z" fill="#383A48"/>
<path d="M378.244 186.926C379.016 186.926 379.641 186.303 379.641 185.534C379.641 184.766 379.016 184.143 378.244 184.143C377.473 184.143 376.848 184.766 376.848 185.534C376.848 186.303 377.473 186.926 378.244 186.926Z" fill="#383A48"/>
<path d="M378.244 193.802C379.016 193.802 379.641 193.179 379.641 192.41C379.641 191.642 379.016 191.019 378.244 191.019C377.473 191.019 376.848 191.642 376.848 192.41C376.848 193.179 377.473 193.802 378.244 193.802Z" fill="#383A48"/>
<path d="M378.244 200.651C379.016 200.651 379.641 200.028 379.641 199.259C379.641 198.49 379.016 197.867 378.244 197.867C377.473 197.867 376.848 198.49 376.848 199.259C376.848 200.028 377.473 200.651 378.244 200.651Z" fill="#383A48"/>
<path d="M378.244 207.526C379.016 207.526 379.641 206.903 379.641 206.134C379.641 205.365 379.016 204.742 378.244 204.742C377.473 204.742 376.848 205.365 376.848 206.134C376.848 206.903 377.473 207.526 378.244 207.526Z" fill="#383A48"/>
<path d="M378.244 214.402C379.016 214.402 379.641 213.779 379.641 213.01C379.641 212.241 379.016 211.618 378.244 211.618C377.473 211.618 376.848 212.241 376.848 213.01C376.848 213.779 377.473 214.402 378.244 214.402Z" fill="#383A48"/>
<path d="M378.244 221.251C379.016 221.251 379.641 220.627 379.641 219.859C379.641 219.09 379.016 218.467 378.244 218.467C377.473 218.467 376.848 219.09 376.848 219.859C376.848 220.627 377.473 221.251 378.244 221.251Z" fill="#383A48"/>
<path d="M371.344 159.451C372.115 159.451 372.741 158.828 372.741 158.059C372.741 157.29 372.115 156.667 371.344 156.667C370.573 156.667 369.947 157.29 369.947 158.059C369.947 158.828 370.573 159.451 371.344 159.451Z" fill="#383A48"/>
<path d="M371.344 166.327C372.115 166.327 372.741 165.704 372.741 164.935C372.741 164.166 372.115 163.543 371.344 163.543C370.573 163.543 369.947 164.166 369.947 164.935C369.947 165.704 370.573 166.327 371.344 166.327Z" fill="#383A48"/>
<path d="M371.344 173.203C372.115 173.203 372.741 172.58 372.741 171.811C372.741 171.042 372.115 170.419 371.344 170.419C370.573 170.419 369.947 171.042 369.947 171.811C369.947 172.58 370.573 173.203 371.344 173.203Z" fill="#383A48"/>
<path d="M371.344 180.05C372.115 180.05 372.741 179.427 372.741 178.659C372.741 177.89 372.115 177.267 371.344 177.267C370.573 177.267 369.947 177.89 369.947 178.659C369.947 179.427 370.573 180.05 371.344 180.05Z" fill="#383A48"/>
<path d="M371.344 186.926C372.115 186.926 372.741 186.303 372.741 185.534C372.741 184.766 372.115 184.143 371.344 184.143C370.573 184.143 369.947 184.766 369.947 185.534C369.947 186.303 370.573 186.926 371.344 186.926Z" fill="#383A48"/>
<path d="M371.344 193.802C372.115 193.802 372.741 193.179 372.741 192.41C372.741 191.642 372.115 191.019 371.344 191.019C370.573 191.019 369.947 191.642 369.947 192.41C369.947 193.179 370.573 193.802 371.344 193.802Z" fill="#383A48"/>
<path d="M371.344 200.651C372.115 200.651 372.741 200.028 372.741 199.259C372.741 198.49 372.115 197.867 371.344 197.867C370.573 197.867 369.947 198.49 369.947 199.259C369.947 200.028 370.573 200.651 371.344 200.651Z" fill="#383A48"/>
<path d="M371.344 207.526C372.115 207.526 372.741 206.903 372.741 206.134C372.741 205.365 372.115 204.742 371.344 204.742C370.573 204.742 369.947 205.365 369.947 206.134C369.947 206.903 370.573 207.526 371.344 207.526Z" fill="#383A48"/>
<path d="M371.344 214.402C372.115 214.402 372.741 213.779 372.741 213.01C372.741 212.241 372.115 211.618 371.344 211.618C370.573 211.618 369.947 212.241 369.947 213.01C369.947 213.779 370.573 214.402 371.344 214.402Z" fill="#383A48"/>
<path d="M371.344 221.251C372.115 221.251 372.741 220.627 372.741 219.859C372.741 219.09 372.115 218.467 371.344 218.467C370.573 218.467 369.947 219.09 369.947 219.859C369.947 220.627 370.573 221.251 371.344 221.251Z" fill="#383A48"/>
<path d="M364.444 159.451C365.215 159.451 365.84 158.828 365.84 158.059C365.84 157.29 365.215 156.667 364.444 156.667C363.672 156.667 363.047 157.29 363.047 158.059C363.047 158.828 363.672 159.451 364.444 159.451Z" fill="#383A48"/>
<path d="M364.444 166.327C365.215 166.327 365.84 165.704 365.84 164.935C365.84 164.166 365.215 163.543 364.444 163.543C363.672 163.543 363.047 164.166 363.047 164.935C363.047 165.704 363.672 166.327 364.444 166.327Z" fill="#383A48"/>
<path d="M364.444 173.203C365.215 173.203 365.84 172.58 365.84 171.811C365.84 171.042 365.215 170.419 364.444 170.419C363.672 170.419 363.047 171.042 363.047 171.811C363.047 172.58 363.672 173.203 364.444 173.203Z" fill="#383A48"/>
<path d="M364.444 180.05C365.215 180.05 365.84 179.427 365.84 178.659C365.84 177.89 365.215 177.267 364.444 177.267C363.672 177.267 363.047 177.89 363.047 178.659C363.047 179.427 363.672 180.05 364.444 180.05Z" fill="#383A48"/>
<path d="M364.444 186.926C365.215 186.926 365.84 186.303 365.84 185.534C365.84 184.766 365.215 184.143 364.444 184.143C363.672 184.143 363.047 184.766 363.047 185.534C363.047 186.303 363.672 186.926 364.444 186.926Z" fill="#383A48"/>
<path d="M364.444 193.802C365.215 193.802 365.84 193.179 365.84 192.41C365.84 191.642 365.215 191.019 364.444 191.019C363.672 191.019 363.047 191.642 363.047 192.41C363.047 193.179 363.672 193.802 364.444 193.802Z" fill="#383A48"/>
<path d="M364.444 200.651C365.215 200.651 365.84 200.028 365.84 199.259C365.84 198.49 365.215 197.867 364.444 197.867C363.672 197.867 363.047 198.49 363.047 199.259C363.047 200.028 363.672 200.651 364.444 200.651Z" fill="#383A48"/>
<path d="M364.444 207.526C365.215 207.526 365.84 206.903 365.84 206.134C365.84 205.365 365.215 204.742 364.444 204.742C363.672 204.742 363.047 205.365 363.047 206.134C363.047 206.903 363.672 207.526 364.444 207.526Z" fill="#383A48"/>
<path d="M364.444 214.402C365.215 214.402 365.84 213.779 365.84 213.01C365.84 212.241 365.215 211.618 364.444 211.618C363.672 211.618 363.047 212.241 363.047 213.01C363.047 213.779 363.672 214.402 364.444 214.402Z" fill="#383A48"/>
<path d="M364.444 221.251C365.215 221.251 365.84 220.627 365.84 219.859C365.84 219.09 365.215 218.467 364.444 218.467C363.672 218.467 363.047 219.09 363.047 219.859C363.047 220.627 363.672 221.251 364.444 221.251Z" fill="#383A48"/>
<path d="M357.573 159.451C358.344 159.451 358.969 158.828 358.969 158.059C358.969 157.29 358.344 156.667 357.573 156.667C356.801 156.667 356.176 157.29 356.176 158.059C356.176 158.828 356.801 159.451 357.573 159.451Z" fill="#383A48"/>
<path d="M357.573 166.327C358.344 166.327 358.969 165.704 358.969 164.935C358.969 164.166 358.344 163.543 357.573 163.543C356.801 163.543 356.176 164.166 356.176 164.935C356.176 165.704 356.801 166.327 357.573 166.327Z" fill="#383A48"/>
<path d="M357.573 173.203C358.344 173.203 358.969 172.58 358.969 171.811C358.969 171.042 358.344 170.419 357.573 170.419C356.801 170.419 356.176 171.042 356.176 171.811C356.176 172.58 356.801 173.203 357.573 173.203Z" fill="#383A48"/>
<path d="M357.573 180.05C358.344 180.05 358.969 179.427 358.969 178.659C358.969 177.89 358.344 177.267 357.573 177.267C356.801 177.267 356.176 177.89 356.176 178.659C356.176 179.427 356.801 180.05 357.573 180.05Z" fill="#383A48"/>
<path d="M357.573 186.926C358.344 186.926 358.969 186.303 358.969 185.534C358.969 184.766 358.344 184.143 357.573 184.143C356.801 184.143 356.176 184.766 356.176 185.534C356.176 186.303 356.801 186.926 357.573 186.926Z" fill="#383A48"/>
<path d="M357.573 193.802C358.344 193.802 358.969 193.179 358.969 192.41C358.969 191.642 358.344 191.019 357.573 191.019C356.801 191.019 356.176 191.642 356.176 192.41C356.176 193.179 356.801 193.802 357.573 193.802Z" fill="#383A48"/>
<path d="M357.573 200.651C358.344 200.651 358.969 200.028 358.969 199.259C358.969 198.49 358.344 197.867 357.573 197.867C356.801 197.867 356.176 198.49 356.176 199.259C356.176 200.028 356.801 200.651 357.573 200.651Z" fill="#383A48"/>
<path d="M357.573 207.526C358.344 207.526 358.969 206.903 358.969 206.134C358.969 205.365 358.344 204.742 357.573 204.742C356.801 204.742 356.176 205.365 356.176 206.134C356.176 206.903 356.801 207.526 357.573 207.526Z" fill="#383A48"/>
<path d="M357.573 214.402C358.344 214.402 358.969 213.779 358.969 213.01C358.969 212.241 358.344 211.618 357.573 211.618C356.801 211.618 356.176 212.241 356.176 213.01C356.176 213.779 356.801 214.402 357.573 214.402Z" fill="#383A48"/>
<path d="M357.573 221.251C358.344 221.251 358.969 220.627 358.969 219.859C358.969 219.09 358.344 218.467 357.573 218.467C356.801 218.467 356.176 219.09 356.176 219.859C356.176 220.627 356.801 221.251 357.573 221.251Z" fill="#383A48"/>
<path d="M350.672 159.451C351.444 159.451 352.069 158.828 352.069 158.059C352.069 157.29 351.444 156.667 350.672 156.667C349.901 156.667 349.275 157.29 349.275 158.059C349.275 158.828 349.901 159.451 350.672 159.451Z" fill="#383A48"/>
<path d="M350.672 166.327C351.444 166.327 352.069 165.704 352.069 164.935C352.069 164.166 351.444 163.543 350.672 163.543C349.901 163.543 349.275 164.166 349.275 164.935C349.275 165.704 349.901 166.327 350.672 166.327Z" fill="#383A48"/>
<path d="M350.672 173.203C351.444 173.203 352.069 172.58 352.069 171.811C352.069 171.042 351.444 170.419 350.672 170.419C349.901 170.419 349.275 171.042 349.275 171.811C349.275 172.58 349.901 173.203 350.672 173.203Z" fill="#383A48"/>
<path d="M350.672 180.05C351.444 180.05 352.069 179.427 352.069 178.659C352.069 177.89 351.444 177.267 350.672 177.267C349.901 177.267 349.275 177.89 349.275 178.659C349.275 179.427 349.901 180.05 350.672 180.05Z" fill="#383A48"/>
<path d="M350.672 186.926C351.444 186.926 352.069 186.303 352.069 185.534C352.069 184.766 351.444 184.143 350.672 184.143C349.901 184.143 349.275 184.766 349.275 185.534C349.275 186.303 349.901 186.926 350.672 186.926Z" fill="#383A48"/>
<path d="M350.672 193.802C351.444 193.802 352.069 193.179 352.069 192.41C352.069 191.642 351.444 191.019 350.672 191.019C349.901 191.019 349.275 191.642 349.275 192.41C349.275 193.179 349.901 193.802 350.672 193.802Z" fill="#383A48"/>
<path d="M350.672 200.651C351.444 200.651 352.069 200.028 352.069 199.259C352.069 198.49 351.444 197.867 350.672 197.867C349.901 197.867 349.275 198.49 349.275 199.259C349.275 200.028 349.901 200.651 350.672 200.651Z" fill="#383A48"/>
<path d="M350.672 207.526C351.444 207.526 352.069 206.903 352.069 206.134C352.069 205.365 351.444 204.742 350.672 204.742C349.901 204.742 349.275 205.365 349.275 206.134C349.275 206.903 349.901 207.526 350.672 207.526Z" fill="#383A48"/>
<path d="M350.672 214.402C351.444 214.402 352.069 213.779 352.069 213.01C352.069 212.241 351.444 211.618 350.672 211.618C349.901 211.618 349.275 212.241 349.275 213.01C349.275 213.779 349.901 214.402 350.672 214.402Z" fill="#383A48"/>
<path d="M350.672 221.251C351.444 221.251 352.069 220.627 352.069 219.859C352.069 219.09 351.444 218.467 350.672 218.467C349.901 218.467 349.275 219.09 349.275 219.859C349.275 220.627 349.901 221.251 350.672 221.251Z" fill="#383A48"/>
<path d="M343.772 159.451C344.543 159.451 345.168 158.828 345.168 158.059C345.168 157.29 344.543 156.667 343.772 156.667C343 156.667 342.375 157.29 342.375 158.059C342.375 158.828 343 159.451 343.772 159.451Z" fill="#383A48"/>
<path d="M343.772 166.327C344.543 166.327 345.168 165.704 345.168 164.935C345.168 164.166 344.543 163.543 343.772 163.543C343 163.543 342.375 164.166 342.375 164.935C342.375 165.704 343 166.327 343.772 166.327Z" fill="#383A48"/>
<path d="M343.772 173.203C344.543 173.203 345.168 172.58 345.168 171.811C345.168 171.042 344.543 170.419 343.772 170.419C343 170.419 342.375 171.042 342.375 171.811C342.375 172.58 343 173.203 343.772 173.203Z" fill="#383A48"/>
<path d="M343.772 180.05C344.543 180.05 345.168 179.427 345.168 178.659C345.168 177.89 344.543 177.267 343.772 177.267C343 177.267 342.375 177.89 342.375 178.659C342.375 179.427 343 180.05 343.772 180.05Z" fill="#383A48"/>
<path d="M343.772 186.926C344.543 186.926 345.168 186.303 345.168 185.534C345.168 184.766 344.543 184.143 343.772 184.143C343 184.143 342.375 184.766 342.375 185.534C342.375 186.303 343 186.926 343.772 186.926Z" fill="#383A48"/>
<path d="M343.772 193.802C344.543 193.802 345.168 193.179 345.168 192.41C345.168 191.642 344.543 191.019 343.772 191.019C343 191.019 342.375 191.642 342.375 192.41C342.375 193.179 343 193.802 343.772 193.802Z" fill="#383A48"/>
<path d="M343.772 200.651C344.543 200.651 345.168 200.028 345.168 199.259C345.168 198.49 344.543 197.867 343.772 197.867C343 197.867 342.375 198.49 342.375 199.259C342.375 200.028 343 200.651 343.772 200.651Z" fill="#383A48"/>
<path d="M343.772 207.526C344.543 207.526 345.168 206.903 345.168 206.134C345.168 205.365 344.543 204.742 343.772 204.742C343 204.742 342.375 205.365 342.375 206.134C342.375 206.903 343 207.526 343.772 207.526Z" fill="#383A48"/>
<path d="M343.772 214.402C344.543 214.402 345.168 213.779 345.168 213.01C345.168 212.241 344.543 211.618 343.772 211.618C343 211.618 342.375 212.241 342.375 213.01C342.375 213.779 343 214.402 343.772 214.402Z" fill="#383A48"/>
<path d="M343.772 221.251C344.543 221.251 345.168 220.627 345.168 219.859C345.168 219.09 344.543 218.467 343.772 218.467C343 218.467 342.375 219.09 342.375 219.859C342.375 220.627 343 221.251 343.772 221.251Z" fill="#383A48"/>
<path d="M336.899 159.451C337.67 159.451 338.295 158.828 338.295 158.059C338.295 157.29 337.67 156.667 336.899 156.667C336.127 156.667 335.502 157.29 335.502 158.059C335.502 158.828 336.127 159.451 336.899 159.451Z" fill="#383A48"/>
<path d="M336.899 166.327C337.67 166.327 338.295 165.704 338.295 164.935C338.295 164.166 337.67 163.543 336.899 163.543C336.127 163.543 335.502 164.166 335.502 164.935C335.502 165.704 336.127 166.327 336.899 166.327Z" fill="#383A48"/>
<path d="M336.899 173.203C337.67 173.203 338.295 172.58 338.295 171.811C338.295 171.042 337.67 170.419 336.899 170.419C336.127 170.419 335.502 171.042 335.502 171.811C335.502 172.58 336.127 173.203 336.899 173.203Z" fill="#383A48"/>
<path d="M336.899 180.05C337.67 180.05 338.295 179.427 338.295 178.659C338.295 177.89 337.67 177.267 336.899 177.267C336.127 177.267 335.502 177.89 335.502 178.659C335.502 179.427 336.127 180.05 336.899 180.05Z" fill="#383A48"/>
<path d="M336.899 186.926C337.67 186.926 338.295 186.303 338.295 185.534C338.295 184.766 337.67 184.143 336.899 184.143C336.127 184.143 335.502 184.766 335.502 185.534C335.502 186.303 336.127 186.926 336.899 186.926Z" fill="#383A48"/>
<path d="M336.899 193.802C337.67 193.802 338.295 193.179 338.295 192.41C338.295 191.642 337.67 191.019 336.899 191.019C336.127 191.019 335.502 191.642 335.502 192.41C335.502 193.179 336.127 193.802 336.899 193.802Z" fill="#383A48"/>
<path d="M336.899 200.651C337.67 200.651 338.295 200.028 338.295 199.259C338.295 198.49 337.67 197.867 336.899 197.867C336.127 197.867 335.502 198.49 335.502 199.259C335.502 200.028 336.127 200.651 336.899 200.651Z" fill="#383A48"/>
<path d="M336.899 207.526C337.67 207.526 338.295 206.903 338.295 206.134C338.295 205.365 337.67 204.742 336.899 204.742C336.127 204.742 335.502 205.365 335.502 206.134C335.502 206.903 336.127 207.526 336.899 207.526Z" fill="#383A48"/>
<path d="M336.899 214.402C337.67 214.402 338.295 213.779 338.295 213.01C338.295 212.241 337.67 211.618 336.899 211.618C336.127 211.618 335.502 212.241 335.502 213.01C335.502 213.779 336.127 214.402 336.899 214.402Z" fill="#383A48"/>
<path d="M336.899 221.251C337.67 221.251 338.295 220.627 338.295 219.859C338.295 219.09 337.67 218.467 336.899 218.467C336.127 218.467 335.502 219.09 335.502 219.859C335.502 220.627 336.127 221.251 336.899 221.251Z" fill="#383A48"/>
<path d="M330 159.451C330.772 159.451 331.397 158.828 331.397 158.059C331.397 157.29 330.772 156.667 330 156.667C329.229 156.667 328.604 157.29 328.604 158.059C328.604 158.828 329.229 159.451 330 159.451Z" fill="#383A48"/>
<path d="M330 166.327C330.772 166.327 331.397 165.704 331.397 164.935C331.397 164.166 330.772 163.543 330 163.543C329.229 163.543 328.604 164.166 328.604 164.935C328.604 165.704 329.229 166.327 330 166.327Z" fill="#383A48"/>
<path d="M330 173.203C330.772 173.203 331.397 172.58 331.397 171.811C331.397 171.042 330.772 170.419 330 170.419C329.229 170.419 328.604 171.042 328.604 171.811C328.604 172.58 329.229 173.203 330 173.203Z" fill="#383A48"/>
<path d="M330 180.05C330.772 180.05 331.397 179.427 331.397 178.659C331.397 177.89 330.772 177.267 330 177.267C329.229 177.267 328.604 177.89 328.604 178.659C328.604 179.427 329.229 180.05 330 180.05Z" fill="#383A48"/>
<path d="M330 186.926C330.772 186.926 331.397 186.303 331.397 185.534C331.397 184.766 330.772 184.143 330 184.143C329.229 184.143 328.604 184.766 328.604 185.534C328.604 186.303 329.229 186.926 330 186.926Z" fill="#383A48"/>
<path d="M330 193.802C330.772 193.802 331.397 193.179 331.397 192.41C331.397 191.642 330.772 191.019 330 191.019C329.229 191.019 328.604 191.642 328.604 192.41C328.604 193.179 329.229 193.802 330 193.802Z" fill="#383A48"/>
<path d="M330 200.651C330.772 200.651 331.397 200.028 331.397 199.259C331.397 198.49 330.772 197.867 330 197.867C329.229 197.867 328.604 198.49 328.604 199.259C328.604 200.028 329.229 200.651 330 200.651Z" fill="#383A48"/>
<path d="M330 207.526C330.772 207.526 331.397 206.903 331.397 206.134C331.397 205.365 330.772 204.742 330 204.742C329.229 204.742 328.604 205.365 328.604 206.134C328.604 206.903 329.229 207.526 330 207.526Z" fill="#383A48"/>
<path d="M330 214.402C330.772 214.402 331.397 213.779 331.397 213.01C331.397 212.241 330.772 211.618 330 211.618C329.229 211.618 328.604 212.241 328.604 213.01C328.604 213.779 329.229 214.402 330 214.402Z" fill="#383A48"/>
<path d="M330 221.251C330.772 221.251 331.397 220.627 331.397 219.859C331.397 219.09 330.772 218.467 330 218.467C329.229 218.467 328.604 219.09 328.604 219.859C328.604 220.627 329.229 221.251 330 221.251Z" fill="#383A48"/>
<path d="M323.1 159.451C323.871 159.451 324.497 158.828 324.497 158.059C324.497 157.29 323.871 156.667 323.1 156.667C322.328 156.667 321.703 157.29 321.703 158.059C321.703 158.828 322.328 159.451 323.1 159.451Z" fill="#383A48"/>
<path d="M323.1 166.327C323.871 166.327 324.497 165.704 324.497 164.935C324.497 164.166 323.871 163.543 323.1 163.543C322.328 163.543 321.703 164.166 321.703 164.935C321.703 165.704 322.328 166.327 323.1 166.327Z" fill="#383A48"/>
<path d="M323.1 173.203C323.871 173.203 324.497 172.58 324.497 171.811C324.497 171.042 323.871 170.419 323.1 170.419C322.328 170.419 321.703 171.042 321.703 171.811C321.703 172.58 322.328 173.203 323.1 173.203Z" fill="#383A48"/>
<path d="M323.1 180.05C323.871 180.05 324.497 179.427 324.497 178.659C324.497 177.89 323.871 177.267 323.1 177.267C322.328 177.267 321.703 177.89 321.703 178.659C321.703 179.427 322.328 180.05 323.1 180.05Z" fill="#383A48"/>
<path d="M323.1 186.926C323.871 186.926 324.497 186.303 324.497 185.534C324.497 184.766 323.871 184.143 323.1 184.143C322.328 184.143 321.703 184.766 321.703 185.534C321.703 186.303 322.328 186.926 323.1 186.926Z" fill="#383A48"/>
<path d="M323.1 193.802C323.871 193.802 324.497 193.179 324.497 192.41C324.497 191.642 323.871 191.019 323.1 191.019C322.328 191.019 321.703 191.642 321.703 192.41C321.703 193.179 322.328 193.802 323.1 193.802Z" fill="#383A48"/>
<path d="M323.1 200.651C323.871 200.651 324.497 200.028 324.497 199.259C324.497 198.49 323.871 197.867 323.1 197.867C322.328 197.867 321.703 198.49 321.703 199.259C321.703 200.028 322.328 200.651 323.1 200.651Z" fill="#383A48"/>
<path d="M323.1 207.526C323.871 207.526 324.497 206.903 324.497 206.134C324.497 205.365 323.871 204.742 323.1 204.742C322.328 204.742 321.703 205.365 321.703 206.134C321.703 206.903 322.328 207.526 323.1 207.526Z" fill="#383A48"/>
<path d="M323.1 214.402C323.871 214.402 324.497 213.779 324.497 213.01C324.497 212.241 323.871 211.618 323.1 211.618C322.328 211.618 321.703 212.241 321.703 213.01C321.703 213.779 322.328 214.402 323.1 214.402Z" fill="#383A48"/>
<path d="M323.1 221.251C323.871 221.251 324.497 220.627 324.497 219.859C324.497 219.09 323.871 218.467 323.1 218.467C322.328 218.467 321.703 219.09 321.703 219.859C321.703 220.627 322.328 221.251 323.1 221.251Z" fill="#383A48"/>
<path d="M316.228 159.451C316.999 159.451 317.625 158.828 317.625 158.059C317.625 157.29 316.999 156.667 316.228 156.667C315.456 156.667 314.831 157.29 314.831 158.059C314.831 158.828 315.456 159.451 316.228 159.451Z" fill="#383A48"/>
<path d="M316.228 166.327C316.999 166.327 317.625 165.704 317.625 164.935C317.625 164.166 316.999 163.543 316.228 163.543C315.456 163.543 314.831 164.166 314.831 164.935C314.831 165.704 315.456 166.327 316.228 166.327Z" fill="#383A48"/>
<path d="M316.228 173.203C316.999 173.203 317.625 172.58 317.625 171.811C317.625 171.042 316.999 170.419 316.228 170.419C315.456 170.419 314.831 171.042 314.831 171.811C314.831 172.58 315.456 173.203 316.228 173.203Z" fill="#383A48"/>
<path d="M316.228 180.05C316.999 180.05 317.625 179.427 317.625 178.659C317.625 177.89 316.999 177.267 316.228 177.267C315.456 177.267 314.831 177.89 314.831 178.659C314.831 179.427 315.456 180.05 316.228 180.05Z" fill="#383A48"/>
<path d="M316.228 186.926C316.999 186.926 317.625 186.303 317.625 185.534C317.625 184.766 316.999 184.143 316.228 184.143C315.456 184.143 314.831 184.766 314.831 185.534C314.831 186.303 315.456 186.926 316.228 186.926Z" fill="#383A48"/>
<path d="M316.228 193.802C316.999 193.802 317.625 193.179 317.625 192.41C317.625 191.642 316.999 191.019 316.228 191.019C315.456 191.019 314.831 191.642 314.831 192.41C314.831 193.179 315.456 193.802 316.228 193.802Z" fill="#383A48"/>
<path d="M316.228 200.651C316.999 200.651 317.625 200.028 317.625 199.259C317.625 198.49 316.999 197.867 316.228 197.867C315.456 197.867 314.831 198.49 314.831 199.259C314.831 200.028 315.456 200.651 316.228 200.651Z" fill="#383A48"/>
<path d="M316.228 207.526C316.999 207.526 317.625 206.903 317.625 206.134C317.625 205.365 316.999 204.742 316.228 204.742C315.456 204.742 314.831 205.365 314.831 206.134C314.831 206.903 315.456 207.526 316.228 207.526Z" fill="#383A48"/>
<path d="M316.228 214.402C316.999 214.402 317.625 213.779 317.625 213.01C317.625 212.241 316.999 211.618 316.228 211.618C315.456 211.618 314.831 212.241 314.831 213.01C314.831 213.779 315.456 214.402 316.228 214.402Z" fill="#383A48"/>
<path d="M316.228 221.251C316.999 221.251 317.625 220.627 317.625 219.859C317.625 219.09 316.999 218.467 316.228 218.467C315.456 218.467 314.831 219.09 314.831 219.859C314.831 220.627 315.456 221.251 316.228 221.251Z" fill="#383A48"/>
<path d="M309.328 159.451C310.1 159.451 310.725 158.828 310.725 158.059C310.725 157.29 310.1 156.667 309.328 156.667C308.557 156.667 307.932 157.29 307.932 158.059C307.932 158.828 308.557 159.451 309.328 159.451Z" fill="#383A48"/>
<path d="M309.328 166.327C310.1 166.327 310.725 165.704 310.725 164.935C310.725 164.166 310.1 163.543 309.328 163.543C308.557 163.543 307.932 164.166 307.932 164.935C307.932 165.704 308.557 166.327 309.328 166.327Z" fill="#383A48"/>
<path d="M309.328 173.203C310.1 173.203 310.725 172.58 310.725 171.811C310.725 171.042 310.1 170.419 309.328 170.419C308.557 170.419 307.932 171.042 307.932 171.811C307.932 172.58 308.557 173.203 309.328 173.203Z" fill="#383A48"/>
<path d="M309.328 180.05C310.1 180.05 310.725 179.427 310.725 178.659C310.725 177.89 310.1 177.267 309.328 177.267C308.557 177.267 307.932 177.89 307.932 178.659C307.932 179.427 308.557 180.05 309.328 180.05Z" fill="#383A48"/>
<path d="M309.328 186.926C310.1 186.926 310.725 186.303 310.725 185.534C310.725 184.766 310.1 184.143 309.328 184.143C308.557 184.143 307.932 184.766 307.932 185.534C307.932 186.303 308.557 186.926 309.328 186.926Z" fill="#383A48"/>
<path d="M309.328 193.802C310.1 193.802 310.725 193.179 310.725 192.41C310.725 191.642 310.1 191.019 309.328 191.019C308.557 191.019 307.932 191.642 307.932 192.41C307.932 193.179 308.557 193.802 309.328 193.802Z" fill="#383A48"/>
<path d="M309.328 200.651C310.1 200.651 310.725 200.028 310.725 199.259C310.725 198.49 310.1 197.867 309.328 197.867C308.557 197.867 307.932 198.49 307.932 199.259C307.932 200.028 308.557 200.651 309.328 200.651Z" fill="#383A48"/>
<path d="M309.328 207.526C310.1 207.526 310.725 206.903 310.725 206.134C310.725 205.365 310.1 204.742 309.328 204.742C308.557 204.742 307.932 205.365 307.932 206.134C307.932 206.903 308.557 207.526 309.328 207.526Z" fill="#383A48"/>
<path d="M309.328 214.402C310.1 214.402 310.725 213.779 310.725 213.01C310.725 212.241 310.1 211.618 309.328 211.618C308.557 211.618 307.932 212.241 307.932 213.01C307.932 213.779 308.557 214.402 309.328 214.402Z" fill="#383A48"/>
<path d="M309.328 221.251C310.1 221.251 310.725 220.627 310.725 219.859C310.725 219.09 310.1 218.467 309.328 218.467C308.557 218.467 307.932 219.09 307.932 219.859C307.932 220.627 308.557 221.251 309.328 221.251Z" fill="#383A48"/>
<path d="M302.428 159.451C303.199 159.451 303.825 158.828 303.825 158.059C303.825 157.29 303.199 156.667 302.428 156.667C301.657 156.667 301.031 157.29 301.031 158.059C301.031 158.828 301.657 159.451 302.428 159.451Z" fill="#383A48"/>
<path d="M302.428 166.327C303.199 166.327 303.825 165.704 303.825 164.935C303.825 164.166 303.199 163.543 302.428 163.543C301.657 163.543 301.031 164.166 301.031 164.935C301.031 165.704 301.657 166.327 302.428 166.327Z" fill="#383A48"/>
<path d="M302.428 173.203C303.199 173.203 303.825 172.58 303.825 171.811C303.825 171.042 303.199 170.419 302.428 170.419C301.657 170.419 301.031 171.042 301.031 171.811C301.031 172.58 301.657 173.203 302.428 173.203Z" fill="#383A48"/>
<path d="M302.428 180.05C303.199 180.05 303.825 179.427 303.825 178.659C303.825 177.89 303.199 177.267 302.428 177.267C301.657 177.267 301.031 177.89 301.031 178.659C301.031 179.427 301.657 180.05 302.428 180.05Z" fill="#383A48"/>
<path d="M302.428 186.926C303.199 186.926 303.825 186.303 303.825 185.534C303.825 184.766 303.199 184.143 302.428 184.143C301.657 184.143 301.031 184.766 301.031 185.534C301.031 186.303 301.657 186.926 302.428 186.926Z" fill="#383A48"/>
<path d="M302.428 193.802C303.199 193.802 303.825 193.179 303.825 192.41C303.825 191.642 303.199 191.019 302.428 191.019C301.657 191.019 301.031 191.642 301.031 192.41C301.031 193.179 301.657 193.802 302.428 193.802Z" fill="#383A48"/>
<path d="M302.428 200.651C303.199 200.651 303.825 200.028 303.825 199.259C303.825 198.49 303.199 197.867 302.428 197.867C301.657 197.867 301.031 198.49 301.031 199.259C301.031 200.028 301.657 200.651 302.428 200.651Z" fill="#383A48"/>
<path d="M302.428 207.526C303.199 207.526 303.825 206.903 303.825 206.134C303.825 205.365 303.199 204.742 302.428 204.742C301.657 204.742 301.031 205.365 301.031 206.134C301.031 206.903 301.657 207.526 302.428 207.526Z" fill="#383A48"/>
<path d="M302.428 214.402C303.199 214.402 303.825 213.779 303.825 213.01C303.825 212.241 303.199 211.618 302.428 211.618C301.657 211.618 301.031 212.241 301.031 213.01C301.031 213.779 301.657 214.402 302.428 214.402Z" fill="#383A48"/>
<path d="M302.428 221.251C303.199 221.251 303.825 220.627 303.825 219.859C303.825 219.09 303.199 218.467 302.428 218.467C301.657 218.467 301.031 219.09 301.031 219.859C301.031 220.627 301.657 221.251 302.428 221.251Z" fill="#383A48"/>
<path d="M295.556 159.451C296.327 159.451 296.953 158.828 296.953 158.059C296.953 157.29 296.327 156.667 295.556 156.667C294.785 156.667 294.159 157.29 294.159 158.059C294.159 158.828 294.785 159.451 295.556 159.451Z" fill="#383A48"/>
<path d="M295.556 166.327C296.327 166.327 296.953 165.704 296.953 164.935C296.953 164.166 296.327 163.543 295.556 163.543C294.785 163.543 294.159 164.166 294.159 164.935C294.159 165.704 294.785 166.327 295.556 166.327Z" fill="#383A48"/>
<path d="M295.556 173.203C296.327 173.203 296.953 172.58 296.953 171.811C296.953 171.042 296.327 170.419 295.556 170.419C294.785 170.419 294.159 171.042 294.159 171.811C294.159 172.58 294.785 173.203 295.556 173.203Z" fill="#383A48"/>
<path d="M295.556 180.05C296.327 180.05 296.953 179.427 296.953 178.659C296.953 177.89 296.327 177.267 295.556 177.267C294.785 177.267 294.159 177.89 294.159 178.659C294.159 179.427 294.785 180.05 295.556 180.05Z" fill="#383A48"/>
<path d="M295.556 186.926C296.327 186.926 296.953 186.303 296.953 185.534C296.953 184.766 296.327 184.143 295.556 184.143C294.785 184.143 294.159 184.766 294.159 185.534C294.159 186.303 294.785 186.926 295.556 186.926Z" fill="#383A48"/>
<path d="M295.556 193.802C296.327 193.802 296.953 193.179 296.953 192.41C296.953 191.642 296.327 191.019 295.556 191.019C294.785 191.019 294.159 191.642 294.159 192.41C294.159 193.179 294.785 193.802 295.556 193.802Z" fill="#383A48"/>
<path d="M295.556 200.651C296.327 200.651 296.953 200.028 296.953 199.259C296.953 198.49 296.327 197.867 295.556 197.867C294.785 197.867 294.159 198.49 294.159 199.259C294.159 200.028 294.785 200.651 295.556 200.651Z" fill="#383A48"/>
<path d="M295.556 207.526C296.327 207.526 296.953 206.903 296.953 206.134C296.953 205.365 296.327 204.742 295.556 204.742C294.785 204.742 294.159 205.365 294.159 206.134C294.159 206.903 294.785 207.526 295.556 207.526Z" fill="#383A48"/>
<path d="M295.556 214.402C296.327 214.402 296.953 213.779 296.953 213.01C296.953 212.241 296.327 211.618 295.556 211.618C294.785 211.618 294.159 212.241 294.159 213.01C294.159 213.779 294.785 214.402 295.556 214.402Z" fill="#383A48"/>
<path d="M295.556 221.251C296.327 221.251 296.953 220.627 296.953 219.859C296.953 219.09 296.327 218.467 295.556 218.467C294.785 218.467 294.159 219.09 294.159 219.859C294.159 220.627 294.785 221.251 295.556 221.251Z" fill="#383A48"/>
<path d="M288.656 159.451C289.427 159.451 290.052 158.828 290.052 158.059C290.052 157.29 289.427 156.667 288.656 156.667C287.884 156.667 287.259 157.29 287.259 158.059C287.259 158.828 287.884 159.451 288.656 159.451Z" fill="#383A48"/>
<path d="M288.656 166.327C289.427 166.327 290.052 165.704 290.052 164.935C290.052 164.166 289.427 163.543 288.656 163.543C287.884 163.543 287.259 164.166 287.259 164.935C287.259 165.704 287.884 166.327 288.656 166.327Z" fill="#383A48"/>
<path d="M288.656 173.203C289.427 173.203 290.052 172.58 290.052 171.811C290.052 171.042 289.427 170.419 288.656 170.419C287.884 170.419 287.259 171.042 287.259 171.811C287.259 172.58 287.884 173.203 288.656 173.203Z" fill="#383A48"/>
<path d="M288.656 180.05C289.427 180.05 290.052 179.427 290.052 178.659C290.052 177.89 289.427 177.267 288.656 177.267C287.884 177.267 287.259 177.89 287.259 178.659C287.259 179.427 287.884 180.05 288.656 180.05Z" fill="#383A48"/>
<path d="M288.656 186.926C289.427 186.926 290.052 186.303 290.052 185.534C290.052 184.766 289.427 184.143 288.656 184.143C287.884 184.143 287.259 184.766 287.259 185.534C287.259 186.303 287.884 186.926 288.656 186.926Z" fill="#383A48"/>
<path d="M288.656 193.802C289.427 193.802 290.052 193.179 290.052 192.41C290.052 191.642 289.427 191.019 288.656 191.019C287.884 191.019 287.259 191.642 287.259 192.41C287.259 193.179 287.884 193.802 288.656 193.802Z" fill="#383A48"/>
<path d="M288.656 200.651C289.427 200.651 290.052 200.028 290.052 199.259C290.052 198.49 289.427 197.867 288.656 197.867C287.884 197.867 287.259 198.49 287.259 199.259C287.259 200.028 287.884 200.651 288.656 200.651Z" fill="#383A48"/>
<path d="M288.656 207.526C289.427 207.526 290.052 206.903 290.052 206.134C290.052 205.365 289.427 204.742 288.656 204.742C287.884 204.742 287.259 205.365 287.259 206.134C287.259 206.903 287.884 207.526 288.656 207.526Z" fill="#383A48"/>
<path d="M288.656 214.402C289.427 214.402 290.052 213.779 290.052 213.01C290.052 212.241 289.427 211.618 288.656 211.618C287.884 211.618 287.259 212.241 287.259 213.01C287.259 213.779 287.884 214.402 288.656 214.402Z" fill="#383A48"/>
<path d="M288.656 221.251C289.427 221.251 290.052 220.627 290.052 219.859C290.052 219.09 289.427 218.467 288.656 218.467C287.884 218.467 287.259 219.09 287.259 219.859C287.259 220.627 287.884 221.251 288.656 221.251Z" fill="#383A48"/>
<path d="M281.756 159.451C282.527 159.451 283.153 158.828 283.153 158.059C283.153 157.29 282.527 156.667 281.756 156.667C280.985 156.667 280.359 157.29 280.359 158.059C280.359 158.828 280.985 159.451 281.756 159.451Z" fill="#383A48"/>
<path d="M281.756 166.327C282.527 166.327 283.153 165.704 283.153 164.935C283.153 164.166 282.527 163.543 281.756 163.543C280.985 163.543 280.359 164.166 280.359 164.935C280.359 165.704 280.985 166.327 281.756 166.327Z" fill="#383A48"/>
<path d="M281.756 173.203C282.527 173.203 283.153 172.58 283.153 171.811C283.153 171.042 282.527 170.419 281.756 170.419C280.985 170.419 280.359 171.042 280.359 171.811C280.359 172.58 280.985 173.203 281.756 173.203Z" fill="#383A48"/>
<path d="M281.756 180.05C282.527 180.05 283.153 179.427 283.153 178.659C283.153 177.89 282.527 177.267 281.756 177.267C280.985 177.267 280.359 177.89 280.359 178.659C280.359 179.427 280.985 180.05 281.756 180.05Z" fill="#383A48"/>
<path d="M281.756 186.926C282.527 186.926 283.153 186.303 283.153 185.534C283.153 184.766 282.527 184.143 281.756 184.143C280.985 184.143 280.359 184.766 280.359 185.534C280.359 186.303 280.985 186.926 281.756 186.926Z" fill="#383A48"/>
<path d="M281.756 193.802C282.527 193.802 283.153 193.179 283.153 192.41C283.153 191.642 282.527 191.019 281.756 191.019C280.985 191.019 280.359 191.642 280.359 192.41C280.359 193.179 280.985 193.802 281.756 193.802Z" fill="#383A48"/>
<path d="M281.756 200.651C282.527 200.651 283.153 200.028 283.153 199.259C283.153 198.49 282.527 197.867 281.756 197.867C280.985 197.867 280.359 198.49 280.359 199.259C280.359 200.028 280.985 200.651 281.756 200.651Z" fill="#383A48"/>
<path d="M281.756 207.526C282.527 207.526 283.153 206.903 283.153 206.134C283.153 205.365 282.527 204.742 281.756 204.742C280.985 204.742 280.359 205.365 280.359 206.134C280.359 206.903 280.985 207.526 281.756 207.526Z" fill="#383A48"/>
<path d="M281.756 214.402C282.527 214.402 283.153 213.779 283.153 213.01C283.153 212.241 282.527 211.618 281.756 211.618C280.985 211.618 280.359 212.241 280.359 213.01C280.359 213.779 280.985 214.402 281.756 214.402Z" fill="#383A48"/>
<path d="M281.756 221.251C282.527 221.251 283.153 220.627 283.153 219.859C283.153 219.09 282.527 218.467 281.756 218.467C280.985 218.467 280.359 219.09 280.359 219.859C280.359 220.627 280.985 221.251 281.756 221.251Z" fill="#383A48"/>
<path d="M274.884 159.451C275.655 159.451 276.281 158.828 276.281 158.059C276.281 157.29 275.655 156.667 274.884 156.667C274.113 156.667 273.487 157.29 273.487 158.059C273.487 158.828 274.113 159.451 274.884 159.451Z" fill="#383A48"/>
<path d="M274.884 166.327C275.655 166.327 276.281 165.704 276.281 164.935C276.281 164.166 275.655 163.543 274.884 163.543C274.113 163.543 273.487 164.166 273.487 164.935C273.487 165.704 274.113 166.327 274.884 166.327Z" fill="#383A48"/>
<path d="M274.884 173.203C275.655 173.203 276.281 172.58 276.281 171.811C276.281 171.042 275.655 170.419 274.884 170.419C274.113 170.419 273.487 171.042 273.487 171.811C273.487 172.58 274.113 173.203 274.884 173.203Z" fill="#383A48"/>
<path d="M274.884 180.05C275.655 180.05 276.281 179.427 276.281 178.659C276.281 177.89 275.655 177.267 274.884 177.267C274.113 177.267 273.487 177.89 273.487 178.659C273.487 179.427 274.113 180.05 274.884 180.05Z" fill="#383A48"/>
<path d="M274.884 186.926C275.655 186.926 276.281 186.303 276.281 185.534C276.281 184.766 275.655 184.143 274.884 184.143C274.113 184.143 273.487 184.766 273.487 185.534C273.487 186.303 274.113 186.926 274.884 186.926Z" fill="#383A48"/>
<path d="M274.884 193.802C275.655 193.802 276.281 193.179 276.281 192.41C276.281 191.642 275.655 191.019 274.884 191.019C274.113 191.019 273.487 191.642 273.487 192.41C273.487 193.179 274.113 193.802 274.884 193.802Z" fill="#383A48"/>
<path d="M274.884 200.651C275.655 200.651 276.281 200.028 276.281 199.259C276.281 198.49 275.655 197.867 274.884 197.867C274.113 197.867 273.487 198.49 273.487 199.259C273.487 200.028 274.113 200.651 274.884 200.651Z" fill="#383A48"/>
<path d="M274.884 207.526C275.655 207.526 276.281 206.903 276.281 206.134C276.281 205.365 275.655 204.742 274.884 204.742C274.113 204.742 273.487 205.365 273.487 206.134C273.487 206.903 274.113 207.526 274.884 207.526Z" fill="#383A48"/>
<path d="M274.884 214.402C275.655 214.402 276.281 213.779 276.281 213.01C276.281 212.241 275.655 211.618 274.884 211.618C274.113 211.618 273.487 212.241 273.487 213.01C273.487 213.779 274.113 214.402 274.884 214.402Z" fill="#383A48"/>
<path d="M274.884 221.251C275.655 221.251 276.281 220.627 276.281 219.859C276.281 219.09 275.655 218.467 274.884 218.467C274.113 218.467 273.487 219.09 273.487 219.859C273.487 220.627 274.113 221.251 274.884 221.251Z" fill="#383A48"/>
<path d="M267.984 159.451C268.755 159.451 269.38 158.828 269.38 158.059C269.38 157.29 268.755 156.667 267.984 156.667C267.212 156.667 266.587 157.29 266.587 158.059C266.587 158.828 267.212 159.451 267.984 159.451Z" fill="#383A48"/>
<path d="M267.984 166.327C268.755 166.327 269.38 165.704 269.38 164.935C269.38 164.166 268.755 163.543 267.984 163.543C267.212 163.543 266.587 164.166 266.587 164.935C266.587 165.704 267.212 166.327 267.984 166.327Z" fill="#383A48"/>
<path d="M267.984 173.203C268.755 173.203 269.38 172.58 269.38 171.811C269.38 171.042 268.755 170.419 267.984 170.419C267.212 170.419 266.587 171.042 266.587 171.811C266.587 172.58 267.212 173.203 267.984 173.203Z" fill="#383A48"/>
<path d="M267.984 180.05C268.755 180.05 269.38 179.427 269.38 178.659C269.38 177.89 268.755 177.267 267.984 177.267C267.212 177.267 266.587 177.89 266.587 178.659C266.587 179.427 267.212 180.05 267.984 180.05Z" fill="#383A48"/>
<path d="M267.984 186.926C268.755 186.926 269.38 186.303 269.38 185.534C269.38 184.766 268.755 184.143 267.984 184.143C267.212 184.143 266.587 184.766 266.587 185.534C266.587 186.303 267.212 186.926 267.984 186.926Z" fill="#383A48"/>
<path d="M267.984 193.802C268.755 193.802 269.38 193.179 269.38 192.41C269.38 191.642 268.755 191.019 267.984 191.019C267.212 191.019 266.587 191.642 266.587 192.41C266.587 193.179 267.212 193.802 267.984 193.802Z" fill="#383A48"/>
<path d="M267.984 200.651C268.755 200.651 269.38 200.028 269.38 199.259C269.38 198.49 268.755 197.867 267.984 197.867C267.212 197.867 266.587 198.49 266.587 199.259C266.587 200.028 267.212 200.651 267.984 200.651Z" fill="#383A48"/>
<path d="M267.984 207.526C268.755 207.526 269.38 206.903 269.38 206.134C269.38 205.365 268.755 204.742 267.984 204.742C267.212 204.742 266.587 205.365 266.587 206.134C266.587 206.903 267.212 207.526 267.984 207.526Z" fill="#383A48"/>
<path d="M267.984 214.402C268.755 214.402 269.38 213.779 269.38 213.01C269.38 212.241 268.755 211.618 267.984 211.618C267.212 211.618 266.587 212.241 266.587 213.01C266.587 213.779 267.212 214.402 267.984 214.402Z" fill="#383A48"/>
<path d="M267.984 221.251C268.755 221.251 269.38 220.627 269.38 219.859C269.38 219.09 268.755 218.467 267.984 218.467C267.212 218.467 266.587 219.09 266.587 219.859C266.587 220.627 267.212 221.251 267.984 221.251Z" fill="#383A48"/>
<path d="M261.084 159.451C261.856 159.451 262.481 158.828 262.481 158.059C262.481 157.29 261.856 156.667 261.084 156.667C260.313 156.667 259.688 157.29 259.688 158.059C259.688 158.828 260.313 159.451 261.084 159.451Z" fill="#383A48"/>
<path d="M261.084 166.327C261.856 166.327 262.481 165.704 262.481 164.935C262.481 164.166 261.856 163.543 261.084 163.543C260.313 163.543 259.688 164.166 259.688 164.935C259.688 165.704 260.313 166.327 261.084 166.327Z" fill="#383A48"/>
<path d="M261.084 173.203C261.856 173.203 262.481 172.58 262.481 171.811C262.481 171.042 261.856 170.419 261.084 170.419C260.313 170.419 259.688 171.042 259.688 171.811C259.688 172.58 260.313 173.203 261.084 173.203Z" fill="#383A48"/>
<path d="M261.084 180.05C261.856 180.05 262.481 179.427 262.481 178.659C262.481 177.89 261.856 177.267 261.084 177.267C260.313 177.267 259.688 177.89 259.688 178.659C259.688 179.427 260.313 180.05 261.084 180.05Z" fill="#383A48"/>
<path d="M261.084 186.926C261.856 186.926 262.481 186.303 262.481 185.534C262.481 184.766 261.856 184.143 261.084 184.143C260.313 184.143 259.688 184.766 259.688 185.534C259.688 186.303 260.313 186.926 261.084 186.926Z" fill="#383A48"/>
<path d="M261.084 193.802C261.856 193.802 262.481 193.179 262.481 192.41C262.481 191.642 261.856 191.019 261.084 191.019C260.313 191.019 259.688 191.642 259.688 192.41C259.688 193.179 260.313 193.802 261.084 193.802Z" fill="#383A48"/>
<path d="M261.084 200.651C261.856 200.651 262.481 200.028 262.481 199.259C262.481 198.49 261.856 197.867 261.084 197.867C260.313 197.867 259.688 198.49 259.688 199.259C259.688 200.028 260.313 200.651 261.084 200.651Z" fill="#383A48"/>
<path d="M261.084 207.526C261.856 207.526 262.481 206.903 262.481 206.134C262.481 205.365 261.856 204.742 261.084 204.742C260.313 204.742 259.688 205.365 259.688 206.134C259.688 206.903 260.313 207.526 261.084 207.526Z" fill="#383A48"/>
<path d="M261.084 214.402C261.856 214.402 262.481 213.779 262.481 213.01C262.481 212.241 261.856 211.618 261.084 211.618C260.313 211.618 259.688 212.241 259.688 213.01C259.688 213.779 260.313 214.402 261.084 214.402Z" fill="#383A48"/>
<path d="M261.084 221.251C261.856 221.251 262.481 220.627 262.481 219.859C262.481 219.09 261.856 218.467 261.084 218.467C260.313 218.467 259.688 219.09 259.688 219.859C259.688 220.627 260.313 221.251 261.084 221.251Z" fill="#383A48"/>
<path d="M254.212 159.451C254.984 159.451 255.609 158.828 255.609 158.059C255.609 157.29 254.984 156.667 254.212 156.667C253.441 156.667 252.815 157.29 252.815 158.059C252.815 158.828 253.441 159.451 254.212 159.451Z" fill="#383A48"/>
<path d="M254.212 166.327C254.984 166.327 255.609 165.704 255.609 164.935C255.609 164.166 254.984 163.543 254.212 163.543C253.441 163.543 252.815 164.166 252.815 164.935C252.815 165.704 253.441 166.327 254.212 166.327Z" fill="#383A48"/>
<path d="M254.212 173.203C254.984 173.203 255.609 172.58 255.609 171.811C255.609 171.042 254.984 170.419 254.212 170.419C253.441 170.419 252.815 171.042 252.815 171.811C252.815 172.58 253.441 173.203 254.212 173.203Z" fill="#383A48"/>
<path d="M254.212 180.05C254.984 180.05 255.609 179.427 255.609 178.659C255.609 177.89 254.984 177.267 254.212 177.267C253.441 177.267 252.815 177.89 252.815 178.659C252.815 179.427 253.441 180.05 254.212 180.05Z" fill="#383A48"/>
<path d="M254.212 186.926C254.984 186.926 255.609 186.303 255.609 185.534C255.609 184.766 254.984 184.143 254.212 184.143C253.441 184.143 252.815 184.766 252.815 185.534C252.815 186.303 253.441 186.926 254.212 186.926Z" fill="#383A48"/>
<path d="M254.212 193.802C254.984 193.802 255.609 193.179 255.609 192.41C255.609 191.642 254.984 191.019 254.212 191.019C253.441 191.019 252.815 191.642 252.815 192.41C252.815 193.179 253.441 193.802 254.212 193.802Z" fill="#383A48"/>
<path d="M254.212 200.651C254.984 200.651 255.609 200.028 255.609 199.259C255.609 198.49 254.984 197.867 254.212 197.867C253.441 197.867 252.815 198.49 252.815 199.259C252.815 200.028 253.441 200.651 254.212 200.651Z" fill="#383A48"/>
<path d="M254.212 207.526C254.984 207.526 255.609 206.903 255.609 206.134C255.609 205.365 254.984 204.742 254.212 204.742C253.441 204.742 252.815 205.365 252.815 206.134C252.815 206.903 253.441 207.526 254.212 207.526Z" fill="#383A48"/>
<path d="M254.212 214.402C254.984 214.402 255.609 213.779 255.609 213.01C255.609 212.241 254.984 211.618 254.212 211.618C253.441 211.618 252.815 212.241 252.815 213.01C252.815 213.779 253.441 214.402 254.212 214.402Z" fill="#383A48"/>
<path d="M254.212 221.251C254.984 221.251 255.609 220.627 255.609 219.859C255.609 219.09 254.984 218.467 254.212 218.467C253.441 218.467 252.815 219.09 252.815 219.859C252.815 220.627 253.441 221.251 254.212 221.251Z" fill="#383A48"/>
<path d="M370.879 101.532C397.992 101.532 419.972 79.5797 419.972 52.5003C419.972 25.4209 397.992 3.46875 370.879 3.46875C343.766 3.46875 321.786 25.4209 321.786 52.5003C321.786 79.5797 343.766 101.532 370.879 101.532Z" fill="#E0719E"/>
<path d="M370.879 102.917C343.032 102.917 320.399 80.3129 320.399 52.5007C320.399 24.6884 343.032 2.08398 370.879 2.08398C398.726 2.08398 421.359 24.6884 421.359 52.5007C421.359 80.3129 398.726 102.917 370.879 102.917ZM370.879 4.85413C344.585 4.85413 323.173 26.2397 323.173 52.5007C323.173 78.7616 344.585 100.147 370.879 100.147C397.173 100.147 418.585 78.7616 418.585 52.5007C418.585 26.2397 397.173 4.85413 370.879 4.85413Z" fill="#383A48"/>
<path d="M358.749 176.004H332L330.1 148.756L339.603 147.252L358.749 176.004Z" fill="#F3F6E6"/>
<path d="M358.75 177.397H332.001C331.644 177.396 331.302 177.26 331.043 177.017C330.783 176.774 330.626 176.442 330.603 176.088L328.702 148.84C328.679 148.493 328.786 148.149 329.003 147.876C329.22 147.603 329.532 147.42 329.876 147.363L339.38 145.887C339.643 145.841 339.914 145.875 340.158 145.985C340.403 146.094 340.608 146.273 340.749 146.5L359.896 175.252C360.034 175.461 360.113 175.704 360.123 175.955C360.133 176.205 360.073 176.454 359.951 176.673C359.843 176.897 359.672 177.084 359.459 177.213C359.245 177.342 358.999 177.406 358.75 177.397V177.397ZM333.314 174.611H356.15L338.932 148.784L331.581 149.927L333.314 174.611Z" fill="#383A48"/>
<path d="M380.718 53.25V154.133C380.718 159.941 378.404 165.511 374.283 169.618C370.163 173.724 364.575 176.032 358.749 176.032C352.922 176.032 347.334 173.724 343.214 169.618C339.094 165.511 336.779 159.941 336.779 154.133V152.406C336.779 151.77 336.526 151.161 336.075 150.712C335.624 150.262 335.013 150.01 334.375 150.01C333.738 150.01 333.127 150.262 332.676 150.712C332.225 151.161 331.972 151.77 331.972 152.406V191.968H245.883V176.951L312.406 152.378C312.406 146.57 314.721 141 318.841 136.893C322.961 132.787 328.549 130.479 334.375 130.479C340.202 130.479 345.79 132.787 349.91 136.893C354.03 141 356.345 146.57 356.345 152.378V154.105C356.345 154.741 356.598 155.35 357.049 155.799C357.5 156.249 358.111 156.501 358.749 156.501C359.386 156.501 359.998 156.249 360.448 155.799C360.899 155.35 361.152 154.741 361.152 154.105V53.25H380.718Z" fill="#F3F6E6"/>
<path d="M332 193.334H245.911C245.727 193.336 245.545 193.301 245.374 193.232C245.204 193.162 245.049 193.06 244.919 192.93C244.789 192.8 244.686 192.646 244.616 192.476C244.547 192.306 244.512 192.124 244.514 191.941V176.924C244.512 176.637 244.6 176.357 244.766 176.123C244.931 175.888 245.165 175.711 245.436 175.615L311.065 151.376C311.319 145.288 313.956 139.541 318.411 135.369C322.867 131.197 328.785 128.932 334.897 129.06C341.009 129.187 346.827 131.698 351.103 136.052C355.379 140.406 357.773 146.258 357.771 152.351V154.078C357.771 154.344 357.877 154.6 358.066 154.788C358.254 154.976 358.51 155.081 358.777 155.081C359.044 155.081 359.3 154.976 359.489 154.788C359.677 154.6 359.783 154.344 359.783 154.078V53.2232C359.781 53.0397 359.816 52.8578 359.886 52.6879C359.956 52.5181 360.058 52.3638 360.189 52.2341C360.319 52.1044 360.473 52.0018 360.644 51.9325C360.814 51.8631 360.997 51.8283 361.181 51.8301H380.746C380.931 51.8283 381.113 51.8631 381.283 51.9325C381.454 52.0018 381.609 52.1044 381.739 52.2341C381.869 52.3638 381.972 52.5181 382.041 52.6879C382.111 52.8578 382.146 53.0397 382.144 53.2232V154.078C382.146 157.137 381.543 160.166 380.371 162.993C379.198 165.819 377.478 168.388 375.31 170.552C373.141 172.716 370.566 174.433 367.732 175.605C364.898 176.778 361.86 177.382 358.791 177.384C352.594 177.387 346.649 174.937 342.264 170.572C337.879 166.206 335.414 160.284 335.41 154.106V152.379C335.41 152.113 335.304 151.858 335.115 151.67C334.927 151.482 334.671 151.376 334.404 151.376C334.137 151.376 333.881 151.482 333.692 151.67C333.504 151.858 333.398 152.113 333.398 152.379V191.969C333.397 192.15 333.359 192.329 333.288 192.496C333.218 192.663 333.114 192.815 332.984 192.942C332.854 193.068 332.7 193.168 332.531 193.236C332.363 193.303 332.182 193.337 332 193.334ZM247.309 190.548H330.603V152.379C330.603 151.374 331.003 150.41 331.716 149.7C332.429 148.989 333.396 148.59 334.404 148.59C335.412 148.59 336.379 148.989 337.092 149.7C337.805 150.41 338.205 151.374 338.205 152.379V154.106C338.205 159.545 340.373 164.76 344.231 168.606C348.089 172.451 353.321 174.612 358.777 174.612C364.233 174.612 369.466 172.451 373.324 168.606C377.182 164.76 379.349 159.545 379.349 154.106V54.6441H362.578V154.106C362.578 155.111 362.178 156.075 361.465 156.786C360.752 157.496 359.785 157.895 358.777 157.895C357.769 157.895 356.802 157.496 356.089 156.786C355.376 156.075 354.976 155.111 354.976 154.106V152.379C354.976 146.941 352.808 141.725 348.95 137.879C345.092 134.034 339.86 131.874 334.404 131.874C328.948 131.874 323.715 134.034 319.857 137.879C315.999 141.725 313.832 146.941 313.832 152.379C313.833 152.666 313.745 152.946 313.58 153.18C313.415 153.415 313.181 153.592 312.91 153.688L247.309 177.927V190.548Z" fill="#383A48"/>
<path d="M334.403 147.475H322.44L320.651 148.283L325.962 135.188H346.087L358.748 166.253H340.497" fill="#383A48"/>
<path d="M358.749 167.647H340.469C340.099 167.647 339.743 167.5 339.481 167.239C339.219 166.977 339.072 166.623 339.072 166.254C339.072 165.884 339.219 165.53 339.481 165.269C339.743 165.007 340.099 164.861 340.469 164.861H356.653L345.109 136.582H326.885L323.028 146.082H334.376C334.747 146.082 335.102 146.229 335.364 146.49C335.626 146.752 335.774 147.106 335.774 147.476C335.774 147.845 335.626 148.199 335.364 148.461C335.102 148.722 334.747 148.869 334.376 148.869H322.72L321.183 149.565C320.927 149.675 320.644 149.707 320.369 149.656C320.095 149.606 319.841 149.476 319.641 149.282C319.441 149.088 319.303 148.84 319.244 148.568C319.185 148.296 319.208 148.013 319.31 147.754L324.621 134.66C324.726 134.405 324.904 134.187 325.132 134.033C325.361 133.879 325.631 133.797 325.907 133.796H346.032C346.308 133.793 346.58 133.874 346.809 134.028C347.039 134.183 347.216 134.403 347.317 134.66L360.007 165.724C360.088 165.938 360.118 166.168 360.094 166.396C360.069 166.623 359.992 166.842 359.867 167.034C359.75 167.224 359.586 167.38 359.39 167.488C359.194 167.595 358.973 167.65 358.749 167.647V167.647Z" fill="#383A48"/>
<path d="M286.244 140.286V45.1426H370.936V154.105C370.937 155.701 370.622 157.281 370.01 158.755C369.398 160.229 368.5 161.569 367.369 162.697C366.237 163.825 364.893 164.72 363.414 165.33C361.935 165.94 360.35 166.253 358.749 166.252V166.252C357.149 166.253 355.563 165.94 354.084 165.33C352.605 164.72 351.262 163.825 350.13 162.697C348.998 161.569 348.1 160.229 347.488 158.755C346.876 157.281 346.562 155.701 346.563 154.105V152.378C346.564 150.782 346.249 149.202 345.637 147.728C345.025 146.254 344.127 144.915 342.995 143.786C341.863 142.658 340.52 141.763 339.041 141.153C337.562 140.543 335.977 140.23 334.376 140.231V140.231C332.775 140.23 331.19 140.543 329.711 141.153C328.232 141.763 326.888 142.658 325.757 143.786C324.625 144.915 323.727 146.254 323.115 147.728C322.503 149.202 322.188 150.782 322.189 152.378V183.86H237.498V152.378C237.497 150.782 237.812 149.202 238.424 147.728C239.036 146.254 239.933 144.915 241.065 143.786C242.197 142.658 243.541 141.763 245.02 141.153C246.499 140.543 248.084 140.23 249.685 140.231V140.231L286.244 140.286Z" fill="#F3F6E6"/>
<path d="M322.217 185.254H237.526C237.342 185.256 237.159 185.221 236.989 185.152C236.818 185.082 236.663 184.98 236.533 184.85C236.403 184.72 236.3 184.566 236.231 184.396C236.161 184.226 236.126 184.044 236.128 183.861V152.378C236.132 148.788 237.564 145.347 240.111 142.808C242.658 140.27 246.111 138.842 249.712 138.838L284.846 138.894V45.1431C284.845 44.9597 284.88 44.7777 284.949 44.6079C285.019 44.438 285.122 44.2837 285.252 44.154C285.382 44.0243 285.537 43.9217 285.707 43.8524C285.877 43.783 286.06 43.7482 286.244 43.7501H370.935C371.119 43.7482 371.302 43.783 371.472 43.8524C371.643 43.9217 371.797 44.0243 371.928 44.154C372.058 44.2837 372.161 44.438 372.23 44.6079C372.3 44.7777 372.335 44.9597 372.333 45.1431V154.106C372.333 157.697 370.902 161.141 368.354 163.68C365.807 166.219 362.351 167.646 358.749 167.646C355.146 167.646 351.691 166.219 349.143 163.68C346.596 161.141 345.165 157.697 345.165 154.106V152.378C345.165 149.526 344.028 146.791 342.004 144.774C339.981 142.757 337.237 141.624 334.375 141.624C331.514 141.624 328.77 142.757 326.746 144.774C324.723 146.791 323.586 149.526 323.586 152.378V183.861C323.591 184.043 323.56 184.224 323.493 184.393C323.426 184.563 323.326 184.717 323.198 184.847C323.07 184.977 322.918 185.08 322.749 185.15C322.58 185.22 322.399 185.255 322.217 185.254V185.254ZM238.923 182.468H320.819V152.378C320.819 148.787 322.25 145.343 324.798 142.804C327.346 140.265 330.801 138.838 334.403 138.838C338.006 138.838 341.461 140.265 344.009 142.804C346.556 145.343 347.988 148.787 347.988 152.378V154.106C347.988 155.518 348.267 156.916 348.809 158.221C349.351 159.526 350.146 160.711 351.148 161.71C352.149 162.709 353.339 163.501 354.648 164.041C355.957 164.582 357.36 164.86 358.777 164.86C360.193 164.86 361.596 164.582 362.905 164.041C364.214 163.501 365.404 162.709 366.406 161.71C367.408 160.711 368.202 159.526 368.744 158.221C369.287 156.916 369.566 155.518 369.566 154.106V46.5361H287.669V140.287C287.672 140.47 287.636 140.651 287.564 140.819C287.491 140.987 287.385 141.138 287.25 141.262C286.991 141.522 286.64 141.672 286.272 141.68V141.68L249.74 141.624C246.879 141.626 244.136 142.759 242.113 144.776C240.09 146.792 238.953 149.527 238.951 152.378L238.923 182.468V182.468Z" fill="#383A48"/>
<path d="M334.404 141.68H286.244C285.874 141.68 285.518 141.533 285.256 141.272C284.994 141.01 284.847 140.656 284.847 140.287C284.847 139.917 284.994 139.563 285.256 139.302C285.518 139.04 285.874 138.894 286.244 138.894H334.404C334.588 138.892 334.77 138.927 334.941 138.996C335.111 139.065 335.266 139.168 335.396 139.298C335.526 139.427 335.629 139.582 335.699 139.751C335.768 139.921 335.803 140.103 335.801 140.287C335.8 140.656 335.653 141.009 335.391 141.27C335.129 141.531 334.774 141.679 334.404 141.68V141.68Z" fill="#383A48"/>
<path d="M354.696 72.2236H301.338V98.7469H354.696V72.2236Z" fill="#AAC6FC"/>
<path d="M354.695 100.139H301.337C301.153 100.141 300.97 100.106 300.8 100.037C300.63 99.9678 300.475 99.8652 300.345 99.7355C300.215 99.6058 300.112 99.4515 300.042 99.2817C299.973 99.1118 299.938 98.9299 299.94 98.7464V72.2232C299.938 72.0397 299.973 71.8578 300.042 71.6879C300.112 71.5181 300.215 71.3638 300.345 71.2341C300.475 71.1044 300.63 71.0018 300.8 70.9325C300.97 70.8631 301.153 70.8283 301.337 70.8301H354.695C354.879 70.8283 355.062 70.8631 355.232 70.9325C355.403 71.0018 355.557 71.1044 355.688 71.2341C355.818 71.3638 355.921 71.5181 355.99 71.6879C356.06 71.8578 356.095 72.0397 356.093 72.2232V98.7464C356.095 98.9299 356.06 99.1118 355.99 99.2817C355.921 99.4515 355.818 99.6058 355.688 99.7355C355.557 99.8652 355.403 99.9678 355.232 100.037C355.062 100.106 354.879 100.141 354.695 100.139V100.139ZM302.735 97.3534H353.298V73.6162H302.735V97.3534Z" fill="#383A48"/>
<path d="M354.695 113.597H301.337C300.966 113.597 300.611 113.45 300.349 113.189C300.087 112.927 299.939 112.573 299.939 112.204C299.939 111.834 300.087 111.48 300.349 111.219C300.611 110.957 300.966 110.811 301.337 110.811H354.695C355.066 110.811 355.421 110.957 355.684 111.219C355.946 111.48 356.093 111.834 356.093 112.204C356.093 112.573 355.946 112.927 355.684 113.189C355.421 113.45 355.066 113.597 354.695 113.597V113.597Z" fill="#383A48"/>
<path d="M354.695 125.716H301.337C300.966 125.716 300.611 125.569 300.349 125.308C300.087 125.046 299.939 124.692 299.939 124.323C299.939 123.953 300.087 123.599 300.349 123.338C300.611 123.076 300.966 122.93 301.337 122.93H354.695C355.066 122.93 355.421 123.076 355.684 123.338C355.946 123.599 356.093 123.953 356.093 124.323C356.093 124.692 355.946 125.046 355.684 125.308C355.421 125.569 355.066 125.716 354.695 125.716V125.716Z" fill="#383A48"/>
<path d="M306.257 151.432H252.899C252.528 151.432 252.172 151.285 251.91 151.024C251.648 150.762 251.501 150.408 251.501 150.039C251.501 149.669 251.648 149.315 251.91 149.054C252.172 148.792 252.528 148.646 252.899 148.646H306.257C306.628 148.646 306.983 148.792 307.245 149.054C307.507 149.315 307.654 149.669 307.654 150.039C307.654 150.408 307.507 150.762 307.245 151.024C306.983 151.285 306.628 151.432 306.257 151.432V151.432Z" fill="#383A48"/>
<path d="M306.257 163.551H252.899C252.528 163.551 252.172 163.404 251.91 163.143C251.648 162.881 251.501 162.527 251.501 162.158C251.501 161.788 251.648 161.434 251.91 161.173C252.172 160.911 252.528 160.765 252.899 160.765H306.257C306.628 160.765 306.983 160.911 307.245 161.173C307.507 161.434 307.654 161.788 307.654 162.158C307.654 162.527 307.507 162.881 307.245 163.143C306.983 163.404 306.628 163.551 306.257 163.551V163.551Z" fill="#383A48"/>
<path d="M66.7999 12.9117L60.0752 19.6289L62.1133 21.6641L68.8379 14.9469L66.7999 12.9117Z" fill="#383A48"/>
<path d="M62.113 12.912L60.0752 14.9473L66.7999 21.6635L68.8377 19.6283L62.113 12.912Z" fill="#383A48"/>
<path d="M271.64 133.745L264.915 140.462L266.953 142.497L273.678 135.78L271.64 133.745Z" fill="#383A48"/>
<path d="M266.953 133.745L264.915 135.78L271.64 142.497L273.678 140.461L266.953 133.745Z" fill="#383A48"/>
<path d="M134.946 156.451C134.156 156.451 133.535 155.831 133.535 155.041V149.743C133.535 148.954 134.156 148.334 134.946 148.334C135.736 148.334 136.357 148.954 136.357 149.743V155.041C136.357 155.831 135.736 156.451 134.946 156.451Z" fill="#383A48"/>
<path d="M134.946 175.417C134.156 175.417 133.535 174.797 133.535 174.008V168.738C133.535 167.949 134.156 167.329 134.946 167.329C135.736 167.329 136.357 167.949 136.357 168.738V174.008C136.357 174.797 135.736 175.417 134.946 175.417Z" fill="#383A48"/>
<path d="M128.089 163.299H122.812C122.022 163.299 121.401 162.679 121.401 161.89C121.401 161.1 122.022 160.48 122.812 160.48H128.089C128.879 160.48 129.5 161.1 129.5 161.89C129.5 162.679 128.879 163.299 128.089 163.299Z" fill="#383A48"/>
<path d="M147.107 163.299H141.802C141.012 163.299 140.392 162.679 140.392 161.89C140.392 161.1 141.012 160.48 141.802 160.48H147.107C147.897 160.48 148.518 161.1 148.518 161.89C148.518 162.679 147.897 163.299 147.107 163.299Z" fill="#383A48"/>
<path d="M130.092 158.451C129.725 158.451 129.358 158.311 129.104 158.029L125.38 154.28C124.844 153.717 124.844 152.843 125.38 152.28C125.944 151.744 126.819 151.744 127.383 152.28L131.108 156.028C131.644 156.591 131.644 157.465 131.108 158.029C130.797 158.311 130.459 158.451 130.092 158.451Z" fill="#383A48"/>
<path d="M143.553 171.866C143.186 171.866 142.847 171.725 142.565 171.444L138.812 167.723C138.248 167.188 138.248 166.286 138.812 165.723C139.348 165.159 140.251 165.159 140.815 165.723L144.54 169.471C145.104 170.006 145.104 170.908 144.54 171.472C144.286 171.725 143.919 171.866 143.553 171.866Z" fill="#383A48"/>
<path d="M126.368 171.866C126.001 171.866 125.634 171.725 125.38 171.444C124.816 170.88 124.816 170.006 125.38 169.443L129.105 165.723C129.669 165.159 130.544 165.159 131.109 165.723C131.673 166.286 131.673 167.16 131.109 167.723L127.356 171.444C127.102 171.725 126.735 171.866 126.368 171.866Z" fill="#383A48"/>
<path d="M139.8 158.451C139.433 158.451 139.066 158.31 138.812 158.029C138.248 157.465 138.248 156.591 138.812 156.028L142.565 152.308C143.129 151.744 144.004 151.744 144.568 152.308C145.133 152.871 145.133 153.745 144.568 154.308L140.787 158.029C140.533 158.31 140.166 158.451 139.8 158.451Z" fill="#383A48"/>
<path d="M182.17 33.0537H37.6865V136.948H182.17V33.0537Z" fill="#F3F6E6"/>
<path d="M182.17 138.334H37.6867C37.5034 138.335 37.3216 138.301 37.1519 138.232C36.9823 138.163 36.8281 138.061 36.6985 137.932C36.5689 137.803 36.4665 137.649 36.3972 137.48C36.3279 137.311 36.2932 137.13 36.295 136.948V33.0531C36.2932 32.8705 36.3279 32.6895 36.3972 32.5205C36.4665 32.3515 36.5689 32.198 36.6985 32.069C36.8281 31.9399 36.9823 31.8379 37.1519 31.7689C37.3216 31.6999 37.5034 31.6652 37.6867 31.6671H182.17C182.354 31.6652 182.536 31.6999 182.705 31.7689C182.875 31.8379 183.029 31.9399 183.159 32.069C183.288 32.198 183.391 32.3515 183.46 32.5205C183.529 32.6895 183.564 32.8705 183.562 33.0531V136.948C183.564 137.13 183.529 137.311 183.46 137.48C183.391 137.649 183.288 137.803 183.159 137.932C183.029 138.061 182.875 138.163 182.705 138.232C182.536 138.301 182.354 138.335 182.17 138.334V138.334ZM39.0783 135.562H180.779V34.4391H39.0783V135.562Z" fill="#383A48"/>
<path d="M169.645 44.8613H50.2393V125.111H169.645V44.8613Z" fill="#F3F6E6"/>
<path d="M169.645 126.497H50.2394C50.0561 126.499 49.8743 126.464 49.7047 126.395C49.535 126.326 49.3809 126.224 49.2513 126.095C49.1217 125.966 49.0192 125.813 48.9499 125.644C48.8807 125.475 48.8459 125.294 48.8477 125.111V44.8617C48.8459 44.6791 48.8807 44.4981 48.9499 44.3291C49.0192 44.1601 49.1217 44.0066 49.2513 43.8776C49.3809 43.7485 49.535 43.6465 49.7047 43.5775C49.8743 43.5084 50.0561 43.4738 50.2394 43.4757H169.645C169.828 43.4738 170.01 43.5084 170.18 43.5775C170.35 43.6465 170.504 43.7485 170.633 43.8776C170.763 44.0066 170.865 44.1601 170.935 44.3291C171.004 44.4981 171.039 44.6791 171.037 44.8617V125.111C171.039 125.294 171.004 125.475 170.935 125.644C170.865 125.813 170.763 125.966 170.633 126.095C170.504 126.224 170.35 126.326 170.18 126.395C170.01 126.464 169.828 126.499 169.645 126.497V126.497ZM51.6311 123.725H168.254V46.2477H51.6311V123.725Z" fill="#AAC6FC"/>
<path d="M88.4824 104.904L87.8979 95.5622H75.4842L71.003 104.904H61.1777L83.6394 59.8311H95.5521L99.7272 104.904H88.4824ZM84.8919 75.2434L78.852 87.4957H88.0371L87.3134 75.2434L87.3691 69.9211H86.8681L84.8919 75.2434Z" fill="#383A48"/>
<path d="M154.504 60.9673H114.981C114.611 60.9673 114.257 60.8213 113.996 60.5614C113.735 60.3014 113.589 59.9489 113.589 59.5813C113.589 59.2137 113.735 58.8612 113.996 58.6013C114.257 58.3413 114.611 58.1953 114.981 58.1953H154.504C154.873 58.1953 155.227 58.3413 155.488 58.6013C155.749 58.8612 155.896 59.2137 155.896 59.5813C155.896 59.9489 155.749 60.3014 155.488 60.5614C155.227 60.8213 154.873 60.9673 154.504 60.9673Z" fill="#383A48"/>
<path d="M154.504 71.7779H114.981C114.611 71.7779 114.257 71.6318 113.996 71.3719C113.735 71.112 113.589 70.7595 113.589 70.3919C113.589 70.0243 113.735 69.6717 113.996 69.4118C114.257 69.1519 114.611 69.0059 114.981 69.0059H154.504C154.873 69.0059 155.227 69.1519 155.488 69.4118C155.749 69.6717 155.896 70.0243 155.896 70.3919C155.896 70.7595 155.749 71.112 155.488 71.3719C155.227 71.6318 154.873 71.7779 154.504 71.7779V71.7779Z" fill="#383A48"/>
<path d="M154.504 82.5884H114.981C114.611 82.5884 114.257 82.4424 113.996 82.1825C113.735 81.9226 113.589 81.57 113.589 81.2024C113.589 80.8348 113.735 80.4823 113.996 80.2224C114.257 79.9624 114.611 79.8164 114.981 79.8164H154.504C154.873 79.8164 155.227 79.9624 155.488 80.2224C155.749 80.4823 155.896 80.8348 155.896 81.2024C155.896 81.57 155.749 81.9226 155.488 82.1825C155.227 82.4424 154.873 82.5884 154.504 82.5884V82.5884Z" fill="#383A48"/>
<path d="M144.01 113.663C149.329 113.663 153.641 109.369 153.641 104.072C153.641 98.7746 149.329 94.4805 144.01 94.4805C138.692 94.4805 134.38 98.7746 134.38 104.072C134.38 109.369 138.692 113.663 144.01 113.663Z" fill="#EAD22B"/>
<path d="M141.412 199.584C137.627 199.584 133.674 199.275 129.665 198.602C128.908 198.49 128.375 197.761 128.516 197.004C128.628 196.247 129.357 195.714 130.114 195.854C140.796 197.565 150.777 196.92 158.963 193.947C168.047 190.666 174.748 184.72 178.925 176.279C180.271 173.53 181.14 170.361 181.393 167.613C180.748 167.725 180.075 167.781 179.402 167.809C177.439 167.893 175.813 167.136 174.916 165.706C174.047 164.332 174.019 162.565 174.832 161.107C175.701 159.564 177.327 158.667 179.346 158.667C180.944 158.667 182.234 159.396 183.103 160.798C183.636 161.667 183.972 162.761 184.168 163.995C187.505 162.761 190.561 160.433 192.916 157.264C196.897 151.88 198.383 145.009 196.869 138.811C196.673 138.054 197.149 137.296 197.906 137.128C198.663 136.932 199.42 137.409 199.588 138.166C201.299 145.149 199.644 152.917 195.159 158.947C192.271 162.817 188.458 165.594 184.28 166.94C184.112 170.445 183.019 174.4 181.449 177.541C176.935 186.655 169.701 193.05 159.917 196.583C154.393 198.574 148.113 199.584 141.412 199.584ZM179.346 161.471C178.365 161.471 177.636 161.836 177.299 162.453C176.991 163.014 176.991 163.687 177.327 164.191C177.692 164.752 178.365 165.033 179.29 164.977C180.019 164.949 180.72 164.865 181.449 164.724C181.337 163.715 181.112 162.845 180.748 162.256C180.383 161.724 179.935 161.471 179.346 161.471Z" fill="#383A48"/>
<path d="M301.079 27.5001C300.571 27.5001 300.092 27.2193 299.838 26.7701C294.168 16.2683 288.33 17.2792 283.647 18.0935C280.629 18.627 276.877 19.2728 275.862 14.5555C274.846 9.78193 272.9 6.55278 269.91 4.69953C266.243 2.42508 260.799 2.20045 253.747 4.02562C252.986 4.22218 252.224 3.7729 252.027 3.01475C251.829 2.25661 252.281 1.49846 253.042 1.3019C260.856 -0.719827 267.033 -0.382872 271.377 2.28469C275.072 4.55913 277.413 8.37795 278.598 13.9377C278.993 15.791 279.501 15.9314 283.111 15.2855C288.104 14.4151 295.635 13.0953 302.292 25.3942C302.659 26.0681 302.405 26.9385 301.728 27.3036C301.53 27.444 301.305 27.5001 301.079 27.5001Z" fill="#383A48"/>
<path d="M35.5996 189.613V167.567C35.5996 162.09 40.0512 157.642 45.5322 157.642H59.7496C63.1161 157.642 66.2879 159.365 68.0963 162.201L79.6427 180.16L35.5996 189.613Z" fill="#EAD22B"/>
<path d="M35.6001 191.002C35.2941 191.002 34.988 190.891 34.7376 190.697C34.4037 190.419 34.209 190.029 34.209 189.612V167.566C34.209 161.339 39.2727 156.251 45.5328 156.251H59.7501C63.6174 156.251 67.1787 158.197 69.2654 161.45L80.8117 179.409C81.0621 179.799 81.0899 180.271 80.923 180.688C80.7561 181.105 80.3666 181.411 79.9214 181.522L35.9062 190.975C35.7949 191.002 35.6836 191.002 35.6001 191.002ZM45.5328 159.031C40.8307 159.031 36.9912 162.868 36.9912 167.566V187.889L77.3617 179.215L66.9005 162.951C65.3146 160.505 62.6436 159.031 59.7222 159.031H45.5328Z" fill="#383A48"/>
<path d="M94.2217 221.111H51.4028C42.6665 221.111 35.5996 214.05 35.5996 205.32V184.72C35.5996 175.99 42.6665 168.929 51.4028 168.929H94.1939C102.93 168.929 109.997 175.99 109.997 184.72V205.293C110.025 214.022 102.93 221.111 94.2217 221.111Z" fill="#EAD22B"/>
<path d="M94.2222 222.501H51.4033C41.9158 222.501 34.209 214.8 34.209 205.32V184.719C34.209 175.239 41.9158 167.538 51.4033 167.538H94.1943C103.682 167.538 111.389 175.239 111.389 184.719V205.292C111.416 214.772 103.682 222.501 94.2222 222.501ZM51.4033 170.29C43.4461 170.29 36.9912 176.768 36.9912 184.691V205.292C36.9912 213.243 43.4739 219.693 51.4033 219.693H94.1943C102.152 219.693 108.606 213.215 108.606 205.292V184.691C108.606 176.74 102.124 170.29 94.1943 170.29H51.4033Z" fill="#383A48"/>
<path d="M66.2878 209.24C65.5365 209.24 64.7575 208.99 64.1176 208.517C62.9769 207.683 62.3926 206.293 62.643 204.903L63.4777 200.038C63.5333 199.732 63.422 199.426 63.1995 199.232L59.666 195.784C58.6366 194.783 58.3027 193.338 58.72 192.003C59.1374 190.669 60.3059 189.696 61.697 189.473L66.5938 188.751C66.8999 188.695 67.1503 188.528 67.2894 188.25L69.4873 183.83C70.1273 182.551 71.3793 181.772 72.7982 181.772C74.2172 181.772 75.497 182.551 76.1091 183.83L78.3071 188.25C78.4462 188.528 78.6966 188.723 79.0027 188.751L83.8994 189.473C85.2905 189.668 86.4591 190.641 86.8764 192.003C87.3216 193.366 86.9599 194.811 85.9305 195.784L82.397 199.232C82.1744 199.454 82.091 199.76 82.1188 200.038L82.9535 204.903C83.2039 206.293 82.6196 207.683 81.4789 208.517C80.3381 209.351 78.8357 209.462 77.5837 208.795L73.2156 206.488C72.9373 206.349 72.6313 206.349 72.3531 206.488L67.9849 208.795C67.4563 209.101 66.872 209.24 66.2878 209.24ZM72.7982 184.553C72.6313 184.553 72.214 184.608 71.9636 185.053L69.7656 189.473C69.2369 190.558 68.1797 191.308 66.9833 191.503L62.1144 192.226C61.6136 192.309 61.4188 192.698 61.3632 192.837C61.3075 192.976 61.2241 193.421 61.5857 193.783L65.1192 197.23C65.9817 198.092 66.399 199.315 66.1765 200.51L65.3418 205.376C65.2583 205.876 65.5644 206.182 65.7035 206.265C65.8426 206.376 66.2043 206.571 66.6773 206.349L71.0454 204.041C72.1305 203.485 73.4103 203.485 74.4954 204.041L78.8635 206.349C79.3087 206.599 79.6982 206.376 79.8373 206.265C79.9764 206.154 80.2825 205.876 80.199 205.376L79.3643 200.51C79.1696 199.315 79.5591 198.092 80.4216 197.23L83.9551 193.783C84.3168 193.421 84.2333 193.004 84.1776 192.837C84.122 192.67 83.9551 192.281 83.4264 192.226L78.5297 191.503C77.3333 191.336 76.276 190.558 75.7474 189.473L73.5494 185.053C73.4103 184.608 72.993 184.553 72.7982 184.553Z" fill="#383A48"/>
</svg>
