<svg width="383" height="221" viewBox="0 0 383 221" fill="none" xmlns="http://www.w3.org/2000/svg">
<path d="M206.547 96.5337H80.9908C80.8102 96.5355 80.631 96.5012 80.4638 96.4327C80.2966 96.3643 80.1447 96.263 80.0169 96.135C79.8892 96.0069 79.7882 95.8546 79.72 95.687C79.6517 95.5193 79.6174 95.3397 79.6192 95.1586V4.26289C79.6174 4.0818 79.6517 3.90218 79.72 3.73453C79.7882 3.56687 79.8892 3.41457 80.0169 3.28651C80.1447 3.15846 80.2966 3.05724 80.4638 2.98877C80.631 2.9203 80.8102 2.88596 80.9908 2.88776H206.547C206.727 2.88596 206.907 2.9203 207.074 2.98877C207.241 3.05724 207.393 3.15846 207.521 3.28651C207.648 3.41457 207.749 3.56687 207.818 3.73453C207.886 3.90218 207.92 4.0818 207.918 4.26289V95.1586C207.92 95.3397 207.886 95.5193 207.818 95.687C207.749 95.8546 207.648 96.0069 207.521 96.135C207.393 96.263 207.241 96.3643 207.074 96.4327C206.907 96.5012 206.727 96.5355 206.547 96.5337V96.5337ZM82.3624 93.7835H205.175V5.63801H82.3624V93.7835Z" fill="#383A48"/>
<path d="M197.275 85.0368H90.2633C90.0826 85.0386 89.9035 85.0042 89.7363 84.9358C89.569 84.8673 89.4171 84.7661 89.2894 84.638C89.1617 84.51 89.0607 84.3577 88.9924 84.19C88.9241 84.0224 88.8899 83.8427 88.8917 83.6617V15.758C88.8899 15.5769 88.9241 15.3973 88.9924 15.2296C89.0607 15.062 89.1617 14.9097 89.2894 14.7816C89.4171 14.6536 89.569 14.5524 89.7363 14.4839C89.9035 14.4154 90.0826 14.3811 90.2633 14.3829H197.275C197.456 14.3811 197.635 14.4154 197.802 14.4839C197.969 14.5524 198.121 14.6536 198.249 14.7816C198.377 14.9097 198.478 15.062 198.546 15.2296C198.614 15.3973 198.649 15.5769 198.647 15.758V83.6617C198.649 83.8427 198.614 84.0224 198.546 84.19C198.478 84.3577 198.377 84.51 198.249 84.638C198.121 84.7661 197.969 84.8673 197.802 84.9358C197.635 85.0042 197.456 85.0386 197.275 85.0368V85.0368ZM91.6349 82.2865H195.904V17.1331H91.6349V82.2865Z" fill="#383A48"/>
<path d="M188.763 48.6786C188.401 48.6757 188.054 48.5373 187.79 48.2908L176.538 37.5713L165.286 48.2908C165.092 48.4806 164.846 48.6084 164.578 48.6577C164.311 48.7071 164.035 48.6757 163.786 48.5678C163.538 48.4582 163.328 48.2795 163.18 48.0535C163.032 47.8274 162.953 47.5635 162.952 47.2937V3.86158C162.95 3.6792 162.985 3.49829 163.054 3.32944C163.123 3.1606 163.226 3.0072 163.355 2.87823C163.484 2.74926 163.638 2.64732 163.808 2.57836C163.977 2.5094 164.158 2.47482 164.341 2.47663H188.791C188.973 2.47482 189.155 2.5094 189.324 2.57836C189.494 2.64732 189.648 2.74926 189.777 2.87823C189.906 3.0072 190.008 3.1606 190.078 3.32944C190.147 3.49829 190.182 3.6792 190.18 3.86158V47.2937C190.179 47.5635 190.1 47.8274 189.952 48.0535C189.804 48.2795 189.594 48.4582 189.346 48.5678C189.16 48.6397 188.962 48.6773 188.763 48.6786ZM176.538 34.2751C176.899 34.283 177.244 34.4208 177.511 34.6629L187.374 44.0529V5.24653H165.703V44.0529L175.566 34.6629C175.83 34.4164 176.177 34.278 176.538 34.2751V34.2751Z" fill="#383A48"/>
<path d="M332.918 101.898C305.381 101.898 283.001 79.5171 283.001 51.9805C283.001 24.4439 305.381 2.06348 332.918 2.06348C360.455 2.06348 382.835 24.4439 382.835 51.9805C382.835 79.5171 360.455 101.898 332.918 101.898ZM332.918 4.80617C306.917 4.80617 285.744 25.9798 285.744 51.9805C285.744 77.9812 306.917 99.1548 332.918 99.1548C358.919 99.1548 380.092 77.9812 380.092 51.9805C380.092 25.9798 358.919 4.80617 332.918 4.80617Z" fill="#383A48"/>
<path d="M284.797 183.419H201.05C200.868 183.421 200.688 183.386 200.519 183.318C200.351 183.249 200.197 183.147 200.069 183.019C199.94 182.891 199.838 182.738 199.77 182.57C199.701 182.401 199.666 182.221 199.668 182.04V150.869C199.672 147.315 201.088 143.907 203.607 141.394C206.125 138.881 209.539 137.467 213.101 137.463L247.843 137.518V44.6967C247.842 44.515 247.876 44.3349 247.945 44.1667C248.014 43.9986 248.116 43.8458 248.244 43.7174C248.373 43.589 248.526 43.4874 248.694 43.4188C248.863 43.3501 249.043 43.3156 249.225 43.3175H332.973C333.155 43.3156 333.335 43.3501 333.504 43.4188C333.672 43.4874 333.825 43.589 333.954 43.7174C334.083 43.8458 334.184 43.9986 334.253 44.1667C334.322 44.3349 334.356 44.515 334.355 44.6967V152.579C334.355 156.135 332.939 159.545 330.42 162.059C327.901 164.573 324.485 165.986 320.922 165.986C317.359 165.986 313.943 164.573 311.424 162.059C308.904 159.545 307.489 156.135 307.489 152.579V150.869C307.489 148.045 306.365 145.337 304.364 143.34C302.364 141.343 299.65 140.222 296.82 140.222C293.991 140.222 291.277 141.343 289.276 143.34C287.276 145.337 286.152 148.045 286.152 150.869V182.04C286.157 182.22 286.125 182.399 286.059 182.567C285.993 182.735 285.894 182.887 285.768 183.016C285.641 183.145 285.49 183.247 285.324 183.316C285.157 183.385 284.978 183.42 284.797 183.419V183.419ZM202.432 180.66H283.415V150.869C283.415 147.314 284.831 143.904 287.35 141.39C289.869 138.876 293.285 137.463 296.848 137.463C300.411 137.463 303.827 138.876 306.346 141.39C308.866 143.904 310.281 147.314 310.281 150.869V152.579C310.281 153.978 310.557 155.362 311.093 156.654C311.629 157.946 312.415 159.12 313.406 160.108C314.396 161.097 315.572 161.881 316.867 162.417C318.161 162.952 319.549 163.227 320.95 163.227C322.351 163.227 323.738 162.952 325.032 162.417C326.327 161.881 327.503 161.097 328.494 160.108C329.484 159.12 330.27 157.946 330.806 156.654C331.342 155.362 331.618 153.978 331.618 152.579V46.0759H250.635V138.898C250.637 139.078 250.602 139.258 250.53 139.424C250.459 139.59 250.353 139.74 250.22 139.863C249.964 140.121 249.617 140.269 249.253 140.277V140.277L213.128 140.222C210.299 140.223 207.587 141.346 205.586 143.342C203.586 145.339 202.461 148.046 202.46 150.869L202.432 180.66V180.66Z" fill="#383A48"/>
<path d="M296.847 140.277H249.225C248.858 140.277 248.507 140.132 248.248 139.873C247.988 139.614 247.843 139.264 247.843 138.898C247.843 138.532 247.988 138.181 248.248 137.923C248.507 137.664 248.858 137.519 249.225 137.519H296.847C297.029 137.517 297.21 137.551 297.378 137.62C297.547 137.689 297.7 137.79 297.829 137.919C297.957 138.047 298.059 138.2 298.128 138.368C298.197 138.536 298.231 138.716 298.229 138.898C298.228 139.263 298.082 139.613 297.823 139.872C297.564 140.13 297.214 140.276 296.847 140.277V140.277Z" fill="#383A48"/>
<path d="M316.914 99.1478H264.151C263.969 99.1496 263.788 99.1152 263.62 99.0465C263.451 98.9778 263.298 98.8763 263.169 98.7479C263.041 98.6194 262.939 98.4667 262.87 98.2985C262.801 98.1304 262.767 97.9502 262.769 97.7686V71.5082C262.767 71.3266 262.801 71.1464 262.87 70.9783C262.939 70.8101 263.041 70.6573 263.169 70.5289C263.298 70.4005 263.451 70.299 263.62 70.2303C263.788 70.1616 263.969 70.1272 264.151 70.129H316.914C317.096 70.1272 317.277 70.1616 317.445 70.2303C317.614 70.299 317.767 70.4005 317.895 70.5289C318.024 70.6573 318.126 70.8101 318.195 70.9783C318.263 71.1464 318.298 71.3266 318.296 71.5082V97.7686C318.298 97.9502 318.263 98.1304 318.195 98.2985C318.126 98.4667 318.024 98.6194 317.895 98.7479C317.767 98.8763 317.614 98.9778 317.445 99.0465C317.277 99.1152 317.096 99.1496 316.914 99.1478V99.1478ZM265.533 96.3894H315.532V72.8874H265.533V96.3894Z" fill="#383A48"/>
<path d="M316.914 112.471H264.151C263.784 112.471 263.432 112.326 263.173 112.067C262.914 111.809 262.769 111.458 262.769 111.092C262.769 110.726 262.914 110.376 263.173 110.117C263.432 109.858 263.784 109.713 264.151 109.713H316.914C317.281 109.713 317.632 109.858 317.891 110.117C318.15 110.376 318.296 110.726 318.296 111.092C318.296 111.458 318.15 111.809 317.891 112.067C317.632 112.326 317.281 112.471 316.914 112.471V112.471Z" fill="#383A48"/>
<path d="M316.914 124.469H264.151C263.784 124.469 263.432 124.324 263.173 124.065C262.914 123.807 262.769 123.456 262.769 123.09C262.769 122.724 262.914 122.374 263.173 122.115C263.432 121.856 263.784 121.711 264.151 121.711H316.914C317.281 121.711 317.632 121.856 317.891 122.115C318.15 122.374 318.296 122.724 318.296 123.09C318.296 123.456 318.15 123.807 317.891 124.065C317.632 124.324 317.281 124.469 316.914 124.469V124.469Z" fill="#383A48"/>
<path d="M269.016 149.931H216.252C215.886 149.931 215.534 149.786 215.275 149.527C215.016 149.269 214.87 148.918 214.87 148.552C214.87 148.186 215.016 147.835 215.275 147.577C215.534 147.318 215.886 147.173 216.252 147.173H269.016C269.382 147.173 269.734 147.318 269.993 147.577C270.252 147.835 270.398 148.186 270.398 148.552C270.398 148.918 270.252 149.269 269.993 149.527C269.734 149.786 269.382 149.931 269.016 149.931V149.931Z" fill="#383A48"/>
<path d="M269.016 161.93H216.252C215.886 161.93 215.534 161.785 215.275 161.526C215.016 161.268 214.87 160.917 214.87 160.551C214.87 160.185 215.016 159.834 215.275 159.576C215.534 159.317 215.886 159.172 216.252 159.172H269.016C269.382 159.172 269.734 159.317 269.993 159.576C270.252 159.834 270.398 160.185 270.398 160.551C270.398 160.917 270.252 161.268 269.993 161.526C269.734 161.785 269.382 161.93 269.016 161.93V161.93Z" fill="#383A48"/>
<path d="M32.2279 12.7829L25.5781 19.4336L27.5935 21.4487L34.2432 14.798L32.2279 12.7829Z" fill="#383A48"/>
<path d="M27.5932 12.7838L25.5781 14.7988L32.2279 21.4486L34.2429 19.4335L27.5932 12.7838Z" fill="#383A48"/>
<path d="M234.784 112.617L228.134 119.268L230.149 121.283L236.799 114.632L234.784 112.617Z" fill="#383A48"/>
<path d="M230.15 112.617L228.135 114.632L234.784 121.282L236.8 119.266L230.15 112.617Z" fill="#383A48"/>
<path d="M99.6149 154.9C98.8336 154.9 98.2197 154.286 98.2197 153.505V148.259C98.2197 147.478 98.8336 146.864 99.6149 146.864C100.396 146.864 101.01 147.478 101.01 148.259V153.505C101.01 154.286 100.396 154.9 99.6149 154.9Z" fill="#383A48"/>
<path d="M99.6149 173.68C98.8336 173.68 98.2197 173.066 98.2197 172.285V167.067C98.2197 166.286 98.8336 165.672 99.6149 165.672C100.396 165.672 101.01 166.286 101.01 167.067V172.285C101.01 173.066 100.396 173.68 99.6149 173.68Z" fill="#383A48"/>
<path d="M92.8347 161.68H87.6168C86.8355 161.68 86.2217 161.066 86.2217 160.285C86.2217 159.504 86.8355 158.89 87.6168 158.89H92.8347C93.616 158.89 94.2299 159.504 94.2299 160.285C94.2299 161.066 93.616 161.68 92.8347 161.68Z" fill="#383A48"/>
<path d="M111.642 161.68H106.396C105.615 161.68 105.001 161.066 105.001 160.285C105.001 159.504 105.615 158.89 106.396 158.89H111.642C112.423 158.89 113.037 159.504 113.037 160.285C113.037 161.066 112.423 161.68 111.642 161.68Z" fill="#383A48"/>
<path d="M94.8162 156.881C94.4535 156.881 94.0908 156.742 93.8396 156.463L90.1564 152.752C89.6262 152.194 89.6262 151.329 90.1564 150.771C90.7145 150.241 91.5795 150.241 92.1375 150.771L95.8207 154.482C96.3509 155.04 96.3509 155.905 95.8207 156.463C95.5138 156.742 95.179 156.881 94.8162 156.881Z" fill="#383A48"/>
<path d="M108.125 170.163C107.762 170.163 107.427 170.023 107.148 169.744L103.437 166.061C102.879 165.531 102.879 164.638 103.437 164.08C103.967 163.522 104.86 163.522 105.418 164.08L109.101 167.791C109.66 168.321 109.66 169.214 109.101 169.772C108.85 170.023 108.488 170.163 108.125 170.163Z" fill="#383A48"/>
<path d="M91.1325 170.163C90.7697 170.163 90.407 170.023 90.1559 169.744C89.5978 169.186 89.5978 168.321 90.1559 167.763L93.8391 164.08C94.3971 163.522 95.2621 163.522 95.8202 164.08C96.3783 164.638 96.3783 165.503 95.8202 166.061L92.1091 169.744C91.8579 170.023 91.4952 170.163 91.1325 170.163Z" fill="#383A48"/>
<path d="M104.414 156.881C104.051 156.881 103.688 156.742 103.437 156.463C102.879 155.905 102.879 155.04 103.437 154.482L107.148 150.798C107.706 150.24 108.571 150.24 109.129 150.798C109.687 151.356 109.687 152.221 109.129 152.78L105.39 156.463C105.139 156.742 104.776 156.881 104.414 156.881Z" fill="#383A48"/>
<path d="M146.313 136.962H3.43971C3.25849 136.964 3.07873 136.93 2.91095 136.861C2.74317 136.793 2.59075 136.692 2.4626 136.564C2.33445 136.436 2.23315 136.284 2.16463 136.117C2.09611 135.95 2.06174 135.771 2.06354 135.59V32.7249C2.06174 32.5442 2.09611 32.3649 2.16463 32.1976C2.23315 32.0303 2.33445 31.8783 2.4626 31.7505C2.59075 31.6227 2.74317 31.5217 2.91095 31.4534C3.07873 31.3851 3.25849 31.3508 3.43971 31.3526H146.313C146.494 31.3508 146.674 31.3851 146.842 31.4534C147.01 31.5217 147.162 31.6227 147.29 31.7505C147.418 31.8783 147.52 32.0303 147.588 32.1976C147.657 32.3649 147.691 32.5442 147.689 32.7249V135.59C147.691 135.771 147.657 135.95 147.588 136.117C147.52 136.284 147.418 136.436 147.29 136.564C147.162 136.692 147.01 136.793 146.842 136.861C146.674 136.93 146.494 136.964 146.313 136.962V136.962ZM4.81587 134.218H144.937V34.0971H4.81587V134.218Z" fill="#383A48"/>
<path d="M133.929 125.244H15.8538C15.6725 125.245 15.4928 125.211 15.325 125.143C15.1572 125.075 15.0048 124.974 14.8767 124.846C14.7485 124.718 14.6472 124.566 14.5787 124.399C14.5102 124.231 14.4758 124.052 14.4776 123.871V44.4173C14.4758 44.2365 14.5102 44.0573 14.5787 43.89C14.6472 43.7227 14.7485 43.5707 14.8767 43.4429C15.0048 43.3151 15.1572 43.2141 15.325 43.1458C15.4928 43.0775 15.6725 43.0432 15.8538 43.045H133.929C134.11 43.0432 134.29 43.0775 134.457 43.1458C134.625 43.2141 134.778 43.3151 134.906 43.4429C135.034 43.5707 135.135 43.7227 135.204 43.89C135.272 44.0573 135.307 44.2365 135.305 44.4173V123.871C135.307 124.052 135.272 124.231 135.204 124.399C135.135 124.566 135.034 124.718 134.906 124.846C134.778 124.974 134.625 125.075 134.457 125.143C134.29 125.211 134.11 125.245 133.929 125.244V125.244ZM17.2299 122.499H132.552V45.7895H17.2299V122.499Z" fill="#5A5D75"/>
<path d="M53.6712 103.863L53.0932 94.6143H40.8179L36.3866 103.863H26.6709L48.8822 59.2373H60.6621L64.7906 103.863H53.6712ZM50.1207 74.4969L44.1482 86.6277H53.2309L52.5153 74.4969L52.5703 69.2274H52.0749L50.1207 74.4969Z" fill="#383A48"/>
<path d="M118.955 60.3627H79.8723C79.5073 60.3627 79.1572 60.2181 78.8992 59.9608C78.6411 59.7034 78.4961 59.3544 78.4961 58.9904C78.4961 58.6265 78.6411 58.2774 78.8992 58.0201C79.1572 57.7627 79.5073 57.6182 79.8723 57.6182H118.955C119.32 57.6182 119.67 57.7627 119.928 58.0201C120.186 58.2774 120.331 58.6265 120.331 58.9904C120.331 59.3544 120.186 59.7034 119.928 59.9608C119.67 60.2181 119.32 60.3627 118.955 60.3627Z" fill="#383A48"/>
<path d="M118.955 71.0668H79.8723C79.5073 71.0668 79.1572 70.9222 78.8992 70.6649C78.6411 70.4075 78.4961 70.0585 78.4961 69.6945C78.4961 69.3306 78.6411 68.9815 78.8992 68.7242C79.1572 68.4668 79.5073 68.3223 79.8723 68.3223H118.955C119.32 68.3223 119.67 68.4668 119.928 68.7242C120.186 68.9815 120.331 69.3306 120.331 69.6945C120.331 70.0585 120.186 70.4075 119.928 70.6649C119.67 70.9222 119.32 71.0668 118.955 71.0668V71.0668Z" fill="#383A48"/>
<path d="M118.955 81.7699H79.8723C79.5073 81.7699 79.1572 81.6253 78.8992 81.368C78.6411 81.1106 78.4961 80.7616 78.4961 80.3977C78.4961 80.0337 78.6411 79.6847 78.8992 79.4273C79.1572 79.17 79.5073 79.0254 79.8723 79.0254H118.955C119.32 79.0254 119.67 79.17 119.928 79.4273C120.186 79.6847 120.331 80.0337 120.331 80.3977C120.331 80.7616 120.186 81.1106 119.928 81.368C119.67 81.6253 119.32 81.7699 118.955 81.7699V81.7699Z" fill="#383A48"/>
<path d="M115.603 103.041C115.603 106.898 112.465 110.037 108.58 110.037C104.694 110.037 101.557 106.898 101.557 103.041C101.557 99.1839 104.694 96.0449 108.58 96.0449C112.465 96.0449 115.603 99.1839 115.603 103.041Z" stroke="#383A48" stroke-width="5"/>
<path d="M106.009 197.605C102.266 197.605 98.3568 197.3 94.3923 196.633C93.6437 196.522 93.117 195.8 93.2556 195.051C93.3665 194.301 94.0873 193.773 94.8359 193.912C105.399 195.606 115.268 194.967 123.364 192.024C132.347 188.775 138.973 182.889 143.103 174.531C144.434 171.81 145.294 168.672 145.543 165.951C144.906 166.062 144.24 166.118 143.575 166.145C141.634 166.229 140.026 165.479 139.139 164.063C138.279 162.702 138.252 160.953 139.056 159.509C139.915 157.982 141.523 157.093 143.519 157.093C145.1 157.093 146.375 157.815 147.234 159.204C147.761 160.064 148.094 161.147 148.288 162.369C151.587 161.147 154.609 158.843 156.938 155.705C160.875 150.374 162.344 143.571 160.847 137.434C160.653 136.685 161.124 135.935 161.873 135.768C162.621 135.574 163.37 136.046 163.536 136.796C165.227 143.71 163.592 151.401 159.156 157.371C156.3 161.203 152.53 163.952 148.399 165.285C148.232 168.755 147.151 172.671 145.599 175.78C141.135 184.805 133.982 191.135 124.307 194.634C118.845 196.606 112.635 197.605 106.009 197.605ZM143.519 159.87C142.549 159.87 141.828 160.231 141.495 160.842C141.191 161.397 141.191 162.064 141.523 162.563C141.884 163.119 142.549 163.396 143.464 163.341C144.185 163.313 144.878 163.23 145.599 163.091C145.488 162.091 145.266 161.231 144.906 160.648C144.545 160.12 144.102 159.87 143.519 159.87Z" fill="#383A48"/>
<path d="M263.895 27.2276C263.393 27.2276 262.919 26.9496 262.668 26.5048C257.061 16.1071 251.288 17.1079 246.657 17.9142C243.673 18.4424 239.963 19.0818 238.959 14.4112C237.955 9.68499 236.03 6.48784 233.074 4.65295C229.448 2.40105 224.064 2.17864 217.091 3.98572C216.338 4.18033 215.585 3.73551 215.39 2.98488C215.194 2.23424 215.641 1.48361 216.394 1.289C224.12 -0.712693 230.229 -0.379078 234.524 2.26204C238.178 4.51395 240.493 8.29492 241.665 13.7996C242.055 15.6345 242.557 15.7735 246.127 15.134C251.065 14.2722 258.512 12.9655 265.095 25.1425C265.457 25.8097 265.206 26.6716 264.537 27.033C264.342 27.172 264.118 27.2276 263.895 27.2276Z" fill="#383A48"/>
<path d="M59.3443 220.295H17.0027C7.62094 220.295 0 212.67 0 203.284V182.888C0 173.502 7.62094 165.877 17.0027 165.877H59.3168C68.6985 165.877 76.3194 173.502 76.3194 182.888V203.257C76.3469 212.643 68.6985 220.295 59.3443 220.295ZM17.0027 168.602C9.13412 168.602 2.75124 175.015 2.75124 182.86V203.257C2.75124 211.129 9.16163 217.515 17.0027 217.515H59.3168C67.1853 217.515 73.5682 211.101 73.5682 203.257V182.86C73.5682 174.988 67.1578 168.602 59.3168 168.602H17.0027Z" fill="#383A48"/>
<path d="M31.7229 207.166C30.9801 207.166 30.2097 206.918 29.577 206.45C28.449 205.625 27.8712 204.248 28.1188 202.872L28.9442 198.055C28.9992 197.752 28.8892 197.449 28.6691 197.257L25.175 193.844C24.157 192.853 23.8269 191.421 24.2396 190.1C24.6522 188.779 25.8078 187.815 27.1834 187.595L32.0256 186.88C32.3282 186.825 32.5758 186.659 32.7134 186.384L34.8869 182.008C35.5196 180.741 36.7577 179.971 38.1608 179.971C39.564 179.971 40.8295 180.741 41.4348 182.008L43.6083 186.384C43.7459 186.659 43.9935 186.852 44.2961 186.88L49.1383 187.595C50.5139 187.788 51.6694 188.751 52.0821 190.1C52.5223 191.449 52.1646 192.88 51.1467 193.844L47.6526 197.257C47.4325 197.477 47.35 197.78 47.3775 198.055L48.2029 202.872C48.4505 204.248 47.8727 205.625 46.7447 206.45C45.6167 207.276 44.131 207.386 42.893 206.726L38.5735 204.441C38.2984 204.303 37.9958 204.303 37.7206 204.441L33.4012 206.726C32.8785 207.028 32.3007 207.166 31.7229 207.166ZM38.1608 182.723C37.9958 182.723 37.5831 182.778 37.3355 183.219L35.162 187.595C34.6392 188.669 33.5938 189.412 32.4107 189.605L27.5961 190.32C27.1008 190.403 26.9083 190.788 26.8532 190.926C26.7982 191.064 26.7157 191.504 27.0733 191.862L30.5674 195.275C31.4203 196.128 31.833 197.339 31.6129 198.523L30.7875 203.34C30.705 203.835 31.0076 204.138 31.1452 204.221C31.2827 204.331 31.6404 204.524 32.1081 204.303L36.4276 202.019C37.5005 201.468 38.7661 201.468 39.8391 202.019L44.1585 204.303C44.5987 204.551 44.9839 204.331 45.1215 204.221C45.259 204.111 45.5617 203.835 45.4791 203.34L44.6538 198.523C44.4612 197.339 44.8464 196.128 45.6992 195.275L49.1933 191.862C49.551 191.504 49.4684 191.091 49.4134 190.926C49.3584 190.761 49.1933 190.375 48.6706 190.32L43.8284 189.605C42.6454 189.44 41.5999 188.669 41.0771 187.595L38.9037 183.219C38.7661 182.778 38.3534 182.723 38.1608 182.723Z" fill="#383A48"/>
</svg>
