<svg width="415" height="192" viewBox="0 0 415 192" fill="none" xmlns="http://www.w3.org/2000/svg">
<path d="M233.729 191.837H184.745C183.99 191.837 183.396 191.244 183.396 190.489V135.84C183.396 135.085 183.99 134.491 184.745 134.491H233.729C234.485 134.491 235.078 135.085 235.078 135.84V190.489C235.078 191.244 234.485 191.837 233.729 191.837ZM186.094 189.14H232.381V137.189H186.094V189.14Z" fill="#383A48"/>
<path d="M306.962 139.319H111.511C104.956 139.319 99.6152 133.978 99.6152 127.424V11.8954C99.6152 5.34079 104.956 0 111.511 0H306.989C313.544 0 318.884 5.34079 318.884 11.8954V127.397C318.857 133.978 313.517 139.319 306.962 139.319ZM111.511 2.69737C106.44 2.69737 102.313 6.82435 102.313 11.8954V127.397C102.313 132.468 106.44 136.595 111.511 136.595H306.989C312.06 136.595 316.187 132.468 316.187 127.397V11.8954C316.187 6.82435 312.06 2.69737 306.989 2.69737H111.511Z" fill="#383A48"/>
<path d="M255.227 189.14H40.0039V191.837H255.227V189.14Z" fill="#383A48"/>
<path d="M317.508 113.964H196.019C195.263 113.964 194.67 113.37 194.67 112.615V31.9366C194.67 31.1813 195.263 30.5879 196.019 30.5879H317.508C318.263 30.5879 318.857 31.1813 318.857 31.9366V112.615C318.857 113.37 318.263 113.964 317.508 113.964ZM197.367 111.266H316.159V33.2853H197.367V111.266Z" fill="#383A48"/>
<path d="M317.508 56.9682H196.019C195.263 56.9682 194.67 56.3748 194.67 55.6195V31.9366C194.67 31.1813 195.263 30.5879 196.019 30.5879H317.508C318.263 30.5879 318.857 31.1813 318.857 31.9366V55.6195C318.857 56.3748 318.263 56.9682 317.508 56.9682ZM197.367 54.2708H316.159V33.2853H197.367V54.2708Z" fill="#383A48"/>
<path d="M297.198 92.8714H216.331C215.576 92.8714 214.982 92.2779 214.982 91.5227V72.1016C214.982 71.3464 215.576 70.7529 216.331 70.7529H297.198C297.954 70.7529 298.547 71.3464 298.547 72.1016V91.5227C298.547 92.2779 297.954 92.8714 297.198 92.8714ZM217.68 90.174H295.85V73.4503H217.68V90.174Z" fill="#383A48"/>
<path d="M366.17 84.104C345.373 84.104 328.461 67.1915 328.461 46.3948C328.461 25.5981 345.373 8.68555 366.17 8.68555C386.967 8.68555 403.879 25.5981 403.879 46.3948C403.906 67.1645 386.967 84.104 366.17 84.104ZM366.17 11.3559C346.857 11.3559 331.158 27.0546 331.158 46.3678C331.158 65.681 346.857 81.3797 366.17 81.3797C385.483 81.3797 401.182 65.681 401.182 46.3678C401.182 27.0546 385.483 11.3559 366.17 11.3559Z" fill="#383A48"/>
<path d="M366.172 47.1488C360.21 47.1488 355.328 42.2935 355.328 36.3053C355.328 30.3442 360.183 25.4619 366.172 25.4619C372.133 25.4619 377.015 30.3172 377.015 36.3053C377.015 42.2935 372.16 47.1488 366.172 47.1488ZM366.172 28.1863C361.694 28.1863 358.025 31.8277 358.025 36.3323C358.025 40.8369 361.667 44.4784 366.172 44.4784C370.649 44.4784 374.318 40.8369 374.318 36.3323C374.318 31.8277 370.676 28.1863 366.172 28.1863Z" fill="#383A48"/>
<path d="M381.115 65.6529H351.255C350.5 65.6529 349.906 65.0595 349.906 64.3042V60.7437C349.906 51.7614 357.216 44.4785 366.171 44.4785C375.127 44.4785 382.437 51.7884 382.437 60.7437V64.3042C382.464 65.0325 381.843 65.6529 381.115 65.6529ZM352.604 62.9555H379.766V60.7437C379.766 53.245 373.67 47.1759 366.198 47.1759C358.7 47.1759 352.631 53.272 352.631 60.7437L352.604 62.9555Z" fill="#383A48"/>
<path d="M50.2801 101.259C32.7472 101.259 18.4512 86.9904 18.4512 69.4305C18.4512 51.8706 32.7203 37.6016 50.2801 37.6016C67.84 37.6016 82.1091 51.8706 82.1091 69.4305C82.1091 86.9904 67.813 101.259 50.2801 101.259ZM50.2801 40.3259C34.2308 40.3259 21.1485 53.3812 21.1485 69.4575C21.1485 85.5068 34.2038 98.5891 50.2801 98.5891C66.3295 98.5891 79.4117 85.5338 79.4117 69.4575C79.3848 53.3812 66.3295 40.3259 50.2801 40.3259Z" fill="#383A48"/>
<path d="M50.2809 70.2933C45.1559 70.2933 41.002 66.1123 41.002 61.0143C41.002 55.9163 45.1829 51.7354 50.2809 51.7354C55.3789 51.7354 59.5599 55.9163 59.5599 61.0143C59.5599 66.1123 55.4059 70.2933 50.2809 70.2933ZM50.2809 54.4057C46.6395 54.4057 43.6993 57.3729 43.6993 60.9873C43.6993 64.6018 46.6664 67.5689 50.2809 67.5689C53.8954 67.5689 56.8625 64.6018 56.8625 60.9873C56.8625 57.3729 53.8954 54.4057 50.2809 54.4057Z" fill="#383A48"/>
<path d="M62.7674 85.802H37.7627C37.0075 85.802 36.4141 85.2086 36.4141 84.4533V81.4592C36.4141 73.8256 42.618 67.5947 50.2785 67.5947C57.9121 67.5947 64.143 73.7987 64.143 81.4592V84.4533C64.116 85.2086 63.5226 85.802 62.7674 85.802ZM39.1114 83.1046H61.4187V81.4592C61.4187 75.3092 56.4016 70.2921 50.2516 70.2921C44.1016 70.2921 39.0845 75.3092 39.0845 81.4592L39.1114 83.1046Z" fill="#383A48"/>
<path d="M390.148 191.835C376.526 191.835 365.467 180.749 365.467 167.155C365.467 153.56 376.553 142.474 390.148 142.474C403.742 142.474 414.829 153.56 414.829 167.155C414.829 180.749 403.769 191.835 390.148 191.835ZM390.148 145.144C378.01 145.144 368.164 155.016 368.164 167.128C368.164 179.239 378.037 189.111 390.148 189.111C402.286 189.111 412.131 179.239 412.131 167.128C412.131 155.016 402.286 145.144 390.148 145.144Z" fill="#383A48"/>
<path d="M390.148 168.125C386.048 168.125 382.703 164.78 382.703 160.68C382.703 156.58 386.048 153.235 390.148 153.235C394.248 153.235 397.593 156.58 397.593 160.68C397.593 164.78 394.248 168.125 390.148 168.125ZM390.148 155.96C387.531 155.96 385.401 158.091 385.401 160.707C385.401 163.324 387.531 165.454 390.148 165.454C392.764 165.454 394.895 163.324 394.895 160.707C394.895 158.064 392.764 155.96 390.148 155.96Z" fill="#383A48"/>
<path d="M399.752 179.993H380.601C379.845 179.993 379.252 179.399 379.252 178.644V176.351C379.252 170.336 384.161 165.427 390.176 165.427C396.191 165.427 401.101 170.336 401.101 176.351V178.644C401.101 179.399 400.48 179.993 399.752 179.993ZM381.922 177.295H398.376V176.351C398.376 171.82 394.681 168.124 390.149 168.124C385.618 168.124 381.922 171.82 381.922 176.351V177.295Z" fill="#383A48"/>
<path d="M366.17 113.964H317.51V111.267H364.822V82.7559H367.519V112.643C367.519 113.371 366.926 113.964 366.17 113.964Z" fill="#383A48"/>
<path d="M391.498 143.796H388.801V113.963H366.17V111.266H390.15C390.905 111.266 391.498 111.859 391.498 112.614V143.796Z" fill="#383A48"/>
<path d="M366.171 115.661C367.854 115.661 369.219 114.297 369.219 112.613C369.219 110.93 367.854 109.565 366.171 109.565C364.488 109.565 363.123 110.93 363.123 112.613C363.123 114.297 364.488 115.661 366.171 115.661Z" fill="#383A48"/>
<path d="M366.17 117.011C363.743 117.011 361.773 115.042 361.773 112.615C361.773 110.187 363.743 108.218 366.17 108.218C368.598 108.218 370.567 110.187 370.567 112.615C370.567 115.042 368.598 117.011 366.17 117.011ZM366.17 110.915C365.226 110.915 364.471 111.67 364.471 112.615C364.471 113.559 365.226 114.314 366.17 114.314C367.114 114.314 367.87 113.559 367.87 112.615C367.87 111.67 367.114 110.915 366.17 110.915Z" fill="#383A48"/>
<path d="M390.152 115.661C391.835 115.661 393.2 114.297 393.2 112.613C393.2 110.93 391.835 109.565 390.152 109.565C388.468 109.565 387.104 110.93 387.104 112.613C387.104 114.297 388.468 115.661 390.152 115.661Z" fill="#383A48"/>
<path d="M390.151 117.011C387.723 117.011 385.754 115.042 385.754 112.615C385.754 110.187 387.723 108.218 390.151 108.218C392.578 108.218 394.547 110.187 394.547 112.615C394.547 115.042 392.578 117.011 390.151 117.011ZM390.151 110.915C389.207 110.915 388.451 111.67 388.451 112.615C388.451 113.559 389.207 114.314 390.151 114.314C391.095 114.314 391.85 113.559 391.85 112.615C391.85 111.67 391.095 110.915 390.151 110.915Z" fill="#383A48"/>
<path d="M50.2824 23.4125C51.9658 23.4125 53.3304 22.0478 53.3304 20.3644C53.3304 18.6811 51.9658 17.3164 50.2824 17.3164C48.599 17.3164 47.2344 18.6811 47.2344 20.3644C47.2344 22.0478 48.599 23.4125 50.2824 23.4125Z" fill="#383A48"/>
<path d="M50.2815 24.7612C47.8538 24.7612 45.8848 22.7921 45.8848 20.3645C45.8848 17.9369 47.8538 15.9678 50.2815 15.9678C52.7091 15.9678 54.6782 17.9369 54.6782 20.3645C54.6512 22.7651 52.6821 24.7612 50.2815 24.7612ZM50.2815 18.6651C49.3374 18.6651 48.5821 19.4204 48.5821 20.3645C48.5821 21.3086 49.3374 22.0638 50.2815 22.0638C51.2256 22.0638 51.9808 21.3086 51.9808 20.3645C51.9808 19.4204 51.1986 18.6651 50.2815 18.6651Z" fill="#383A48"/>
<path d="M51.629 38.9771H48.9316V20.3653C48.9316 19.61 49.5251 19.0166 50.2803 19.0166H100.964V21.714H51.629V38.9771Z" fill="#383A48"/>
<path d="M22.8474 152.401L21.1211 150.324C29.5099 143.392 34.527 137.538 36.1724 132.872C34.3652 132.225 32.7468 131.2 31.479 129.851C29.8876 128.152 29.3481 126.209 29.9685 124.537C30.481 123.161 31.7218 122.19 33.2053 122.002C34.9586 121.813 36.7389 122.757 37.9257 124.564C39.1665 126.479 39.679 128.556 39.4093 130.876C39.8139 130.93 40.2185 130.957 40.6231 130.957C44.8849 131.038 51.979 129.096 61.6626 119.412L63.5777 121.327C53.2198 131.685 45.3704 133.735 40.5691 133.654C39.9757 133.654 39.3823 133.6 38.7889 133.519C37.0625 138.779 31.7487 145.037 22.8474 152.401ZM33.7178 124.645C33.6639 124.645 33.6099 124.645 33.556 124.645C33.0704 124.699 32.6928 124.996 32.531 125.427C32.2612 126.129 32.6119 127.073 33.4751 127.99C34.3652 128.934 35.4711 129.689 36.7658 130.175C36.8737 128.637 36.5231 127.234 35.7139 126.021C35.1204 125.131 34.4191 124.645 33.7178 124.645Z" fill="#383A48"/>
<path d="M332.858 163.812H330.16V172.713H332.858V163.812Z" fill="#383A48"/>
<path d="M335.96 166.913H327.059V169.61H335.96V166.913Z" fill="#383A48"/>
<path d="M5.80088 15.915H3.10352V24.8164H5.80088V15.915Z" fill="#383A48"/>
<path d="M8.90132 19.0176H0V21.7149H8.90132V19.0176Z" fill="#383A48"/>
<path d="M120.709 168.263H118.012V177.164H120.709V168.263Z" fill="#383A48"/>
<path d="M123.837 171.365H114.936V174.063H123.837V171.365Z" fill="#383A48"/>
<path d="M168.24 17.8883L166.525 19.9707L174.23 26.3152L175.945 24.2328L168.24 17.8883Z" fill="#F3F6E6"/>
<path d="M207.47 10.0587L202.443 18.6807L204.774 20.0393L209.801 11.4174L207.47 10.0587Z" fill="#F3F6E6"/>
<path d="M188.454 9.70663L185.799 10.1816L187.414 19.2096L190.069 18.7346L188.454 9.70663Z" fill="#F3F6E6"/>
<path d="M77.3371 191.217C77.0134 191.217 76.6897 191.109 76.447 190.866L53.87 170.717C53.3035 170.232 53.2766 169.368 53.7621 168.802L97.3786 119.791L58.9141 101.206C58.4555 100.99 58.1588 100.504 58.1588 99.992C58.1588 99.4795 58.4555 98.994 58.9141 98.7782L195.428 30.7235C195.913 30.4808 196.507 30.5617 196.938 30.9123C197.343 31.29 197.505 31.8564 197.316 32.3689L145.284 175.842C145.095 176.328 144.663 176.678 144.151 176.732C143.638 176.786 143.126 176.543 142.856 176.085L122.113 141.585L78.3351 190.785C78.0924 191.055 77.7687 191.217 77.418 191.244C77.391 191.217 77.3641 191.217 77.3371 191.217ZM56.6483 169.638L77.2292 187.98L121.304 138.43C121.601 138.106 122.006 137.944 122.437 137.971C122.869 137.998 123.246 138.241 123.462 138.618L143.692 172.255L193.594 34.6347L62.5285 99.992L100.13 118.172C100.508 118.361 100.777 118.712 100.858 119.116C100.939 119.521 100.831 119.953 100.534 120.276L56.6483 169.638Z" fill="#383A48"/>
</svg>
