<?xml version="1.0" encoding="UTF-8"?><svg version="1.1" xmlns="http://www.w3.org/2000/svg" xmlns:xlink="http://www.w3.org/1999/xlink" viewBox="0 0 800 800" width="800" height="800" x="0px" y="0px">
    
    
    <!-- ITEM 0 -->
    <g>
        <defs>
            <clipPath id="clip-path-id-viewbox-item-0">
                <rect x="0.0" y="0.0" width="533.993" height="267.164"/>
            </clipPath>
        </defs>
        <g transform="translate(75.0 101.0) rotate(0.0 249.0 124.5) scale(0.9325964947106047 0.9320117979967362)">
            <g clip-path="url(#clip-path-id-viewbox-item-0)" transform="translate(-0.0 -0.0)">
                

<g>
	<g>
		<path d="M87.943,267.164c-0.973,0-1.953-0.314-2.777-0.961C0.667,199.825-3.59,136.123,1.393,104.059    C7.5,64.758,33.967,30.949,68.821,17.929c57.136-21.35,115.679-1.147,177.657,20.244c90.477,31.224,184.033,63.513,279.76-36.779    c1.715-1.797,4.562-1.865,6.362-0.148c1.798,1.716,1.863,4.564,0.147,6.362c-44.625,46.754-93.016,69.826-147.939,70.533    c-48.292,0.641-95.565-15.687-141.267-31.46c-60.405-20.847-117.463-40.538-171.57-20.32    C40.115,38.26,15.902,69.302,10.286,105.442c-4.681,30.12-0.454,90.137,80.44,153.684c1.954,1.535,2.294,4.364,0.759,6.318    C90.597,266.575,89.277,267.164,87.943,267.164z" style="fill:#142664;"/>
	</g>
</g>

            </g>
        </g>
    </g>
    
    <!-- ITEM 1 -->
    <g>
        <defs>
            <clipPath id="clip-path-id-viewbox-item-1">
                <rect x="0.0" y="0.0" width="732.848" height="349.771"/>
            </clipPath>
        </defs>
        <g transform="translate(86.0 307.0) rotate(0.0 341.5 162.5) scale(0.9319804379625789 0.9291793773640468)">
            <g clip-path="url(#clip-path-id-viewbox-item-1)" transform="translate(-0.0 -0.0)">
                

<g>
	<path d="M367.792,154.802c141.858,9.792,264.483-186.673,254.691-44.816   C612.69,251.843,489.711,358.942,347.766,349.15S98.809,216.379,108.602,74.433S225.846,144.921,367.792,154.802z" style="fill:#00E6B3;"/>
	<path d="M367.792,189.825c202.376-2.999,365.848-47.815,365.054-100.13c-0.265-17.468-18.791-33.524-50.903-47.198   c-0.176-0.088-0.265-0.088-0.441-0.176C617.366,15.326,499.592-1.701,365.057,0.24C231.492,2.269,114.953,22.472,51.347,50.967   c-0.441,0.176-0.882,0.441-1.412,0.617C18,66.141-0.262,82.902,0.003,100.458C0.709,152.772,165.415,192.736,367.792,189.825z" style="fill:#142664;"/>
	<path d="M168.326,140.245c55.402,10.145,124.478,15.615,199.465,14.468c86.367-1.323,164.795-11.027,223.196-26.025   C655.036,112.28,694.911,89.607,694.47,65.17c-0.088-7.94-4.499-15.615-12.527-22.761c-0.088-0.088-0.176-0.176-0.353-0.353   c0,0,0,0.088-0.088,0.176c-23.466-9.881-54.255-18.438-90.337-25.231C528.793,5.269,450.277-1.083,365.057,0.152   C290.776,1.299,221.788,8.004,164.18,18.678c-45.963,8.557-84.691,19.497-112.921,32.2c-0.353,0.265-0.706,0.617-0.97,0.97   c-7.763,7.322-11.91,15.086-11.733,23.025C38.996,102.311,89.811,125.954,168.326,140.245z" style="fill:#00E6B3;"/>
	<g>
		<path d="M163.02,211.811c0,0,4.664,1.041,11.002,2.324c3.349,0.484,7.186,1.252,11.044,1.717    c2.183,0.224,4.536,0.441,6.74,0.362c8.605,0.295,15.705,0.341,15.705,0.341c1.505,0.248,2.837-1.916,3.174-4.347    c0.357-2.733-0.684-4.812-2.02-5.066c0,0-6.996-1.562-15.348-3.074c-2.162-0.527-4.345-0.75-6.698-0.968    c-3.858-0.465-7.736-0.628-11.106-0.809c-6.401-0.374-11.318-0.196-11.318-0.196c-1.505-0.248-2.838,1.916-3.174,4.347    C160.644,209.478,161.664,211.86,163.02,211.811z" style="fill:#142664;"/>
	</g>
	<g>
		<path d="M224.278,253.137c0,0,1.162,0.369,3.127,0.953c1.967,0.577,4.744,1.357,7.987,2.13    c3.428,0.629,7.391,1.478,11.414,1.86c2.273,0.177,4.733,0.3,7.014,0.082c4.475-0.125,8.541-0.486,11.475-0.859    c2.935-0.366,4.744-0.678,4.744-0.678c1.589-0.037,2.513-2.411,2.359-4.859c-0.195-2.749-1.578-4.603-2.877-4.611    c0,0-1.727-0.073-4.463-0.246c-2.736-0.165-6.482-0.497-10.529-0.968c-2.104-0.379-4.202-0.501-6.472-0.646    c-3.72-0.356-7.463-0.56-10.727-0.854c-3.097-0.286-5.847-0.514-7.825-0.66c-1.978-0.155-3.183-0.215-3.183-0.215    c-1.441-0.382-2.965,1.649-3.549,4.033C222.085,250.581,222.891,253.051,224.278,253.137z" style="fill:#142664;"/>
	</g>
	<g>
		<path d="M372.991,313.52c0,0,2.615,0.442,6.157,0.911c1.855,0.055,3.999,0.331,6.128,0.303    c1.202-0.055,2.495-0.137,3.682-0.495c4.687-0.798,8.537-1.653,8.537-1.653c0.836,0.055,1.375-2.26,1.352-4.713    c-0.038-2.756-0.778-4.686-1.523-4.768c0,0-3.922-0.662-8.575-1.104c-1.216-0.248-2.418-0.193-3.711-0.111    c-2.129,0.027-4.244,0.358-6.085,0.606c-3.5,0.441-6.148,1.24-6.148,1.24c-0.836-0.056-1.375,2.26-1.352,4.713    C371.506,311.508,372.26,313.74,372.991,313.52z" style="fill:#142664;"/>
	</g>
	<g>
		<path d="M469.676,220.116c0,0,2.651,0.109,6.228,0.127c1.849-0.179,4.012-0.176,6.122-0.471    c1.186-0.206,2.459-0.451,3.593-0.955c4.552-1.383,8.267-2.716,8.267-2.716c0.837-0.051,1.08-2.415,0.748-4.846    c-0.385-2.729-1.362-4.55-2.112-4.538c0,0-3.977-0.163-8.652-0.015c-1.239-0.093-2.425,0.113-3.698,0.358    c-2.11,0.296-4.168,0.89-5.965,1.368c-3.418,0.878-5.947,2.005-5.947,2.005c-0.837,0.05-1.081,2.416-0.748,4.846    C467.949,218.307,468.979,220.427,469.676,220.116z" style="fill:#142664;"/>
	</g>
	<g>
		<path d="M353.274,278.902c0,0,8.587,1.115,20.34,2.034c6.175,0.271,13.314,0.675,20.451,0.565    c2.013-0.04,4.106-0.116,6.194-0.255c2.087-0.116,4.171-0.32,6.164-0.589c7.865-0.754,15.005-1.825,20.158-2.761    c2.578-0.453,4.66-0.884,6.098-1.194c1.438-0.305,2.234-0.474,2.234-0.474c2.794-0.416,4.325-3.023,3.958-5.449    c-0.449-2.719-3.021-4.243-5.378-3.929c0,0-0.784,0.075-2.192,0.21c-1.407,0.139-3.437,0.336-5.943,0.51    c-5.005,0.381-11.894,0.735-19.396,0.854c-3.918-0.068-7.798,0.111-11.99,0.23c-6.893,0.107-13.785,0.32-19.797,0.355    c-11.421,0.014-20.167,0.134-20.167,0.134c-2.715-0.26-4.804,1.906-5.086,4.345C348.648,276.537,350.821,278.939,353.274,278.902z    " style="fill:#142664;"/>
	</g>
	<g>
		<path d="M479.388,252.394c0,0,0.446,0.015,1.257,0.007c0.813-0.005,1.998-0.012,3.483-0.02    c2.961-0.065,7.12-0.193,11.877-0.559c4.972-0.551,10.716-1.119,16.362-2.172c3.181-0.625,6.593-1.38,9.667-2.399    c6.115-1.707,11.619-3.542,15.583-4.994c1.983-0.717,3.582-1.342,4.685-1.796c1.102-0.444,1.713-0.69,1.713-0.69    c2.193-0.69,2.916-3.392,2.126-5.713c-0.916-2.599-3.264-3.834-5.06-3.304c0,0-0.608,0.149-1.701,0.416    c-1.086,0.278-2.664,0.66-4.622,1.091c-3.906,0.88-9.314,1.978-15.227,3.009c-3.112,0.405-6.146,1.061-9.425,1.735    c-5.41,1.012-10.786,2.133-15.486,2.96c-4.467,0.766-8.397,1.439-11.211,1.921c-2.814,0.458-4.511,0.734-4.511,0.734    c-2.129,0.027-3.555,2.402-3.56,4.858C475.389,250.538,477.389,252.695,479.388,252.394z" style="fill:#142664;"/>
	</g>
	<g>
		<path d="M252.955,224.546c0,0,4.066,0.496,10.888,1.327c6.829,0.786,16.426,1.862,27.512,2.831    c11.646,0.848,25.094,1.825,38.533,2.151c7.589,0.131,15.767,0.168,23.308-0.22c14.844-0.445,28.351-1.311,38.127-2.207    c4.891-0.396,8.846-0.861,11.585-1.118c2.739-0.264,4.252-0.467,4.252-0.467c5.259-0.388,8.742-3.006,8.688-5.463    c-0.132-2.755-4.64-4.312-9.244-4.007c0,0-0.379,0.022-1.098,0.063c-0.719,0.048-1.78,0.094-3.144,0.149    c-2.729,0.096-6.659,0.326-11.498,0.456c-9.672,0.354-22.958,0.523-37.38,0.351c-7.52-0.218-14.99-0.265-23.037-0.375    c-13.232-0.317-26.431-0.67-37.919-1.198c-10.914-0.495-20.526-1.033-27.413-1.392c-6.889-0.376-11.044-0.603-11.044-0.603    c-5.177-0.588-9.073,1.341-9.513,3.762C244.15,221.619,248.334,224.294,252.955,224.546z" style="fill:#142664;"/>
	</g>
</g>

            </g>
        </g>
    </g>
    
    <!-- ITEM 2 -->
    <g>
        <defs>
            <clipPath id="clip-path-id-viewbox-item-2">
                <rect x="0.0" y="0.0" width="500.277" height="169.459"/>
            </clipPath>
        </defs>
        <g transform="translate(204.0 513.0) rotate(0.0 236.5 80.0) scale(0.9454762061817753 0.9441811883700482)">
            <g clip-path="url(#clip-path-id-viewbox-item-2)" transform="translate(-0.0 -0.0)">
                

<g>
	<g>
		<path d="M416.475,169.459c-32.227,0.003-68.646-14.237-108.304-29.74c-42.658-16.675-91.008-35.575-141.59-38.937    c-57.711-3.836-109.821,13.18-159.303,52.02c-1.954,1.535-4.784,1.194-6.318-0.761c-1.534-1.955-1.193-4.784,0.762-6.318    c51.307-40.273,105.431-57.907,165.456-53.921c51.968,3.455,101.005,22.623,144.27,39.535    c32.143,12.565,62.503,24.433,89.245,27.987c28.861,3.836,50.685-2.439,68.695-19.747c12.183-11.717,19.358-25.596,21.326-41.25    c4.288-34.172-17.516-71.3-41.27-90.314c-1.939-1.553-2.254-4.385-0.7-6.325c1.554-1.94,4.386-2.253,6.325-0.701    c24.916,19.945,49.493,59.264,44.574,98.462c-2.23,17.75-10.312,33.434-24.019,46.617    C458.019,162.984,438.197,169.457,416.475,169.459z" style="fill:#142664;"/>
	</g>
</g>

            </g>
        </g>
    </g>
    
    <!-- ITEM 3 -->
    <g>
        <defs>
            <clipPath id="clip-path-id-viewbox-item-3">
                <rect x="0.0" y="0.0" width="240.697" height="370.227"/>
            </clipPath>
        </defs>
        <g transform="translate(77.0 510.0) rotate(-33.55439845150983 91.5 141.0) scale(0.7602919853591861 0.7616948520772392)">
            <g clip-path="url(#clip-path-id-viewbox-item-3)" transform="translate(-0.0 -0.0)">
                

<g>
	<g>
		<path d="M204.547,300.761c-0.433,0-0.798-0.334-0.829-0.773c-0.868-12.054-4.254-20.643-4.288-20.729    c-0.036-0.082-4.332-10.143-9.472-21.41c-5.122-11.222-17.493-30.576-17.617-30.771c-0.248-0.387-0.135-0.902,0.252-1.15    c0.386-0.249,0.901-0.135,1.15,0.252c0.125,0.195,12.56,19.648,17.73,30.977c5.15,11.286,9.454,21.365,9.497,21.465    c0.15,0.375,3.522,8.917,4.41,21.245c0.033,0.459-0.312,0.857-0.771,0.89C204.588,300.761,204.567,300.761,204.547,300.761z" style="fill:#142664;"/>
	</g>
	<g>
		<path d="M193.749,251.306c-0.265,0-0.526-0.126-0.687-0.362c-0.105-0.152-10.571-15.35-20.888-26.065    c-0.319-0.331-0.309-0.858,0.022-1.177c0.331-0.318,0.859-0.309,1.177,0.022c10.415,10.815,20.957,26.124,21.062,26.278    c0.26,0.379,0.164,0.897-0.215,1.157C194.076,251.259,193.912,251.306,193.749,251.306z" style="fill:#142664;"/>
	</g>
	<g>
		<path d="M201.294,280.246l-0.748,0.331c-1.638,0.725-3.553-0.016-4.277-1.653l-5.547-12.539    c-0.725-1.638,0.016-3.553,1.653-4.277l0.748-0.331c1.638-0.725,3.553,0.016,4.277,1.653l5.547,12.539    C203.672,277.607,202.932,279.522,201.294,280.246z" style="fill-rule:evenodd;clip-rule:evenodd;fill:#00E6B3;"/>
		<path d="M198.534,282.127c-1.035,0-2.023-0.598-2.468-1.604l-6.664-15.065c-0.291-0.658-0.308-1.39-0.049-2.061    c0.26-0.672,0.765-1.202,1.423-1.493l3.274-1.448c0.659-0.29,1.39-0.309,2.061-0.049c0.672,0.26,1.202,0.765,1.493,1.423    l6.664,15.065c0.291,0.657,0.309,1.39,0.049,2.061c-0.26,0.672-0.765,1.202-1.423,1.493h-0.001l-3.274,1.448    C199.267,282.053,198.898,282.127,198.534,282.127z M195.14,261.891c-0.141,0-0.283,0.03-0.416,0.089l-3.274,1.448    c-0.251,0.111-0.444,0.313-0.544,0.57c-0.099,0.257-0.092,0.537,0.019,0.788l6.664,15.064c0.229,0.518,0.837,0.754,1.358,0.525    l3.274-1.448c0.251-0.111,0.445-0.314,0.544-0.57c0.099-0.256,0.093-0.536-0.018-0.787l-6.665-15.065    c-0.111-0.251-0.313-0.444-0.57-0.543C195.391,261.914,195.265,261.891,195.14,261.891z M202.557,279.688h0.005H202.557z" style="fill:#142664;"/>
	</g>
	<g>
		<circle cx="193.749" cy="250.474" r="2.26" style="fill-rule:evenodd;clip-rule:evenodd;fill:#142664;"/>
	</g>
	<g>
		<circle cx="204.548" cy="300.435" r="2.26" style="fill-rule:evenodd;clip-rule:evenodd;fill:#142664;"/>
	</g>
	<g>
		<path d="M215.535,72.388c-0.292,0.182-0.667,0.197-0.96,0.015c-4.984-3.099-6.341-10.604-6.598-14.666    c-0.253-3.998-0.705-11.754,2.315-12.919c2.211-0.853,3.957,2.045,4.834,5.919c0.207,0.915,1.471,1.005,1.777,0.119    c2.293-6.651,6.597-21.259,12.964-20.97c4.529,0.206,9.916,10.069,10.774,15.541c0.882,5.624-8.963,21.452-15.6,25.459    C224.94,70.947,215.535,72.388,215.535,72.388z" style="fill:#142664;"/>
	</g>
	<g>
		<path d="M24.247,204.882c0.322-0.122,0.693-0.065,0.945,0.17c4.295,3.999,4.183,11.626,3.655,15.661    c-0.52,3.972-0.895,11.515-4.756,12.232c-2.33,0.433-3.49-2.768-3.605-6.738c-0.027-0.937-1.062-1.126-1.721-0.458    c-4.722,4.79-1.046,12.801-4.868,15.79c-4.371,3.419-14.553-12.478-13.862-18.507c0.699-6.097,5.544-11.217,7.329-13.11    c2.854-3.026,6.932-4.883,10.859-5.666L24.247,204.882z" style="fill:#142664;"/>
	</g>
	<g>
		<path d="M99.72,306.83c0,0-10.494,10.193-14.024,19.336c-2.628,6.796,0.089,13.668,2.899,18.206    c0.847,1.315,2.253,2.134,3.89,2.221c1.572,0.04,3.083-0.665,3.986-1.91c4.564-6.292,12.17-16.779,16.258-22.416    c1.521-2.097,1.101-5.103-1.062-6.672C106.995,312.106,99.72,306.83,99.72,306.83L99.72,306.83z" style="fill:#142664;"/>
	</g>
	<g>
		<path d="M116.677,334.882c0,0,13.311,6.069,19.711,13.491c4.761,5.515,4.514,12.901,3.395,18.12    c-0.355,1.523-1.404,2.768-2.916,3.401c-1.467,0.566-3.127,0.411-4.396-0.458c-6.415-4.39-17.105-11.707-22.852-15.64    c-2.138-1.463-2.753-4.435-1.244-6.64C111.601,342.298,116.677,334.882,116.677,334.882L116.677,334.882z" style="fill:#142664;"/>
	</g>
	<g>
		<path d="M178.493,299.757c-5.944,23.132-25.191,43.573-33.455,49.75c-2.192,1.637-7.026,2.137-8.43,1.027    l-19.608-15.024c-1.493-1.182-1.149-7.154,1.005-10.445c4.523-6.91,18.426-17.749,22.056-38.439    c2.081-11.899-0.622-23.426-3.197-32.512c-0.511-1.798-2.115-3.064-3.985-3.147l-12.509-1.626l-4.19-0.544    c-1.443-0.067-2.886,0.189-4.207,0.755c-0.227,0.094-0.455,0.194-0.672,0.311c-9.468,4.917-24.714,14.807-25.102,26.779    c-0.438,13.42,9.807,20.468,13.709,25.935c1.565,2.192,2.281,5.561,1.132,7.021l-15.701,18.554    c-1.066,1.36-7.287,1.266-11.794-1.293c-8.858-5.028-28.521-32.107-26.734-58.519c1.399-20.696,17.654-33.094,29.587-41.047    c29.598-19.736,49.356-15.151,49.356-15.151l39.233,1.82c2.603,7.198,5.361,3.335,8.392,12.149    C179.431,243.736,184.687,275.643,178.493,299.757z" style="fill:#142664;"/>
	</g>
	<g>
		<path d="M124.253,247.072c0,0-1.66,0.871-3.885,2.27l-4.19-0.544c-1.443-0.067-2.886,0.189-4.207,0.755    c0.194-0.139,0.389-0.277,0.583-0.411c0.932-0.627,1.965-1.271,2.98-1.759c3.868-2.137,7.343-3.341,7.343-3.341    c0.721-0.339,1.537,0.194,1.881,0.982C125.136,245.912,124.83,246.789,124.253,247.072z" style="fill:#00E6B3;"/>
	</g>
	<g>
		<g>
			<g>
				<path d="M100.604,248.544c-0.839,0.451-1.672,0.916-2.489,1.406c-0.682,0.4-1.559,0.197-1.994-0.491      c-0.43-0.681-0.216-1.592,0.504-2.014c0.855-0.513,1.726-0.999,2.604-1.471c0.735-0.396,1.624-0.113,1.984,0.609      C101.576,247.31,101.3,248.169,100.604,248.544z" style="fill:#00E6B3;"/>
			</g>
		</g>
		<g>
			<g>
				<path d="M93.35,253.094c-0.765,0.563-1.519,1.141-2.25,1.743c-0.61,0.496-1.509,0.421-2.041-0.185      c-0.536-0.611-0.457-1.541,0.195-2.07c0.774-0.637,1.569-1.247,2.374-1.839c0.675-0.494,1.594-0.339,2.051,0.326      C94.14,251.737,93.986,252.628,93.35,253.094z" style="fill:#00E6B3;"/>
			</g>
		</g>
		<g>
			<g>
				<path d="M86.949,258.683c-0.647,0.682-1.264,1.389-1.853,2.115c-0.483,0.603-1.381,0.712-2.029,0.24      c-0.661-0.482-0.771-1.407-0.238-2.072c0.639-0.789,1.306-1.552,2.001-2.284c0.575-0.622,1.522-0.619,2.082-0.044      C87.483,257.221,87.476,258.111,86.949,258.683z" style="fill:#00E6B3;"/>
			</g>
		</g>
		<g>
			<g>
				<path d="M81.996,265.422l-0.621,1.235l-0.547,1.265c-0.26,0.709-1.079,1.081-1.852,0.835      c-0.77-0.245-1.158-1.099-0.856-1.915l0.614-1.42l0.692-1.378c0.419-0.754,1.323-1.006,2.01-0.582      C82.128,263.89,82.368,264.756,81.996,265.422z" style="fill:#00E6B3;"/>
			</g>
		</g>
		<g>
			<g>
				<path d="M79.414,273.256c-0.169,0.913-0.197,1.845-0.306,2.766c-0.051,0.384-0.213,0.724-0.469,0.972      c-0.262,0.247-0.626,0.402-1.031,0.397c-0.405-0.006-0.77-0.175-1.033-0.456c-0.269-0.28-0.429-0.672-0.376-1.095      c0.114-1.014,0.153-2.041,0.336-3.045c0.165-0.842,0.932-1.377,1.724-1.204C79.05,271.764,79.565,272.504,79.414,273.256z" style="fill:#00E6B3;"/>
			</g>
		</g>
		<g>
			<g>
				<path d="M79.293,281.582c0.087,0.926,0.327,1.832,0.48,2.75c0.136,0.758-0.267,1.513-1.064,1.733      c-0.764,0.211-1.627-0.259-1.782-1.1c-0.172-1.004-0.427-1.994-0.526-3.01c-0.085-0.853,0.495-1.583,1.303-1.641      S79.219,280.818,79.293,281.582z" style="fill:#00E6B3;"/>
			</g>
		</g>
		<g>
			<g>
				<path d="M81.444,289.675c0.353,0.867,0.774,1.709,1.155,2.565c0.351,0.693,0.101,1.544-0.614,1.938      c-0.704,0.388-1.613,0.116-1.996-0.639c-0.415-0.923-0.865-1.83-1.246-2.767c-0.297-0.797,0.078-1.651,0.842-1.92      C80.349,288.584,81.176,288.949,81.444,289.675z" style="fill:#00E6B3;"/>
			</g>
		</g>
		<g>
			<g>
				<path d="M85.46,297.107c0.56,0.76,1.104,1.532,1.676,2.283c0.498,0.604,0.401,1.506-0.219,2.027      c-0.62,0.521-1.544,0.418-2.078-0.232c-0.609-0.8-1.19-1.622-1.785-2.432c-0.458-0.709-0.27-1.625,0.415-2.055      C84.156,296.266,85.038,296.45,85.46,297.107z" style="fill:#00E6B3;"/>
			</g>
		</g>
		<g>
			<g>
				<path d="M90.898,303.634c0.689,0.648,1.333,1.345,2.064,1.948c0.591,0.515,0.65,1.426,0.132,2.049      c-0.517,0.623-1.438,0.679-2.072,0.127c-0.774-0.642-1.459-1.378-2.189-2.067c-0.613-0.576-0.564-1.541,0.02-2.083      C89.455,303.048,90.324,303.098,90.898,303.634z" style="fill:#00E6B3;"/>
			</g>
		</g>
	</g>
	<g>
		<path d="M11.081,194.999c6.948-20.546,21.026-36.875,39.201-49.061c7.667-5.14,23.326-14.494,33.444-16.308    c0,0,52.151-14.025,68.177-11.883c14.21,1.899,30.09-12.8,37.676-24.397c6.05-9.248,9.643-15.948,11.88-20.818    c4.979-10.836,8.74-10.941,13.276-9.288c2.754,1.004,6.227,2.034,9.015,3.386c6.194,3.005,7.764,5.715,7.788,11.702    c0.027,6.791-3.951,25.411-19.666,46.62c-7.397,9.983-20.895,22.9-34.19,31.766c-1.737,1.159-2.697,3.173-2.462,5.248    c1.127,9.957,2.619,26.753,3.121,42.278c0.466,14.396-5.019,24.289-8.635,25.114c-3.222,0.1-46.318,8.585-83.952-2.068    c-2.21-0.626-6.454-5.339-7.011-19.913c-0.358-9.358,0.663-22.502,1.184-30.393c0.093-1.412-1.145-2.561-2.542-2.342    c-6.479,1.018-12.003,4.094-19.318,9.935c-14.13,11.283-14.913,18.778-21.86,25.778c-1.945,1.96-8.084,4.431-13.166,2.554    c-4.417-1.631-4.607-1.726-8.113-3.725C8.77,205.674,9.683,199.131,11.081,194.999z" style="fill:#142664;"/>
	</g>
	<g>
		<g>
			<path d="M74.137,167.002c0,0,0.527,0.877,1.241,2.065c0.399,0.608,0.818,1.335,1.268,2.034     c0.261,0.391,0.538,0.812,0.836,1.175c0.535,0.746,1.007,1.432,1.338,1.934c0.322,0.505,0.522,0.819,0.522,0.819     c0.123,0.289,0.608,0.314,1.027,0.14c0.469-0.201,0.672-0.611,0.554-0.9c0,0-0.147-0.378-0.406-0.965     c-0.263-0.583-0.645-1.368-1.095-2.196c-0.216-0.443-0.479-0.853-0.773-1.286c-0.466-0.723-0.986-1.403-1.441-1.991     c-0.858-1.121-1.614-1.903-1.614-1.903c-0.192-0.281-0.685-0.218-1.045,0.058C74.106,166.338,73.937,166.796,74.137,167.002z" style="fill:#00E6B3;"/>
		</g>
	</g>
	<g>
		<g>
			<circle cx="105.468" cy="70.851" r="68.618" style="fill:#FFFFFF;"/>
		</g>
		<g>
			<path d="M95.567,138.75c-5.941-0.866-11.59-2.468-16.87-4.707C58.129,119.641,46.25,94.439,50.12,67.9     C55.589,30.403,90.422,4.431,127.919,9.9c5.941,0.866,11.6,2.465,16.88,4.704c20.568,14.402,32.437,39.607,28.567,66.146     C167.903,118.25,133.07,144.222,95.567,138.75z" style="fill:#00E6B3;"/>
		</g>
		<g>
			<path d="M105.394,141.693c-3.523,0-7.034-0.262-10.498-0.786c-31.828-4.773-56.449-30.494-59.87-62.548     c-2.004-18.815,3.438-37.284,15.324-52.006C62.238,11.629,79.145,2.417,97.958,0.412c11.109-1.188,22.019,0.194,32.422,4.108     c25.226,9.493,42.67,32.033,45.524,58.823c2.008,18.815-3.432,37.285-15.318,52.008c-11.887,14.723-28.796,23.935-47.612,25.938     l0,0C110.449,141.559,107.918,141.693,105.394,141.693z M105.629,4.441c-2.387,0-4.788,0.128-7.2,0.386     C80.795,6.706,64.947,15.341,53.806,29.141C42.664,42.942,37.563,60.253,39.442,77.888c3.207,30.045,26.282,54.154,56.116,58.629     c5.572,0.843,11.272,0.963,16.946,0.358l0,0c17.637-1.877,33.486-10.512,44.628-24.313c11.141-13.8,16.24-31.113,14.358-48.748     c-2.676-25.112-19.027-46.24-42.673-55.138C121.326,5.858,113.552,4.441,105.629,4.441z" style="fill:#142664;"/>
		</g>
		<g>
			<g>
				<path d="M156.239,116.153c0,0-1.776-0.035-4.182-0.082c-1.267,0.022-2.735,0.019-4.199,0.106      c-0.827,0.057-1.718,0.133-2.535,0.272c-1.613,0.215-3.079,0.477-4.135,0.72c-1.057,0.238-1.708,0.421-1.708,0.421      c-0.574,0.12-0.871,0.627-0.776,1.071c0.113,0.497,0.651,0.741,1.131,0.648c0,0,0.638-0.108,1.664-0.241      c1.025-0.138,2.446-0.264,3.996-0.36c0.811-0.026,1.613-0.092,2.481-0.156c1.433-0.095,2.862-0.189,4.105-0.271      c2.372-0.136,4.19-0.316,4.19-0.316c0.572-0.004,0.96-0.442,0.965-0.896C157.226,116.501,156.735,116.1,156.239,116.153z" style="fill:#142664;"/>
			</g>
		</g>
		<g>
			<g>
				<path d="M75.784,132.827c0,0,1.281-0.463,3.062-0.958c0.923-0.295,2.011-0.56,3.086-0.841      c0.605-0.167,1.259-0.337,1.854-0.528c1.184-0.327,2.272-0.574,3.062-0.724c0.79-0.146,1.278-0.204,1.278-0.204      c0.417-0.006,0.709-0.434,0.731-0.89c0.018-0.508-0.382-0.864-0.808-0.863c0,0-0.554-0.01-1.42,0.046      c-0.864,0.059-2.039,0.191-3.295,0.416c-0.661,0.091-1.302,0.251-1.986,0.443c-1.13,0.296-2.228,0.68-3.173,1.041      c-1.802,0.675-3.089,1.392-3.089,1.392c-0.427,0.173-0.547,0.691-0.372,1.109C74.943,132.784,75.451,133.015,75.784,132.827z" style="fill:#142664;"/>
			</g>
		</g>
		<g>
			<g>
				<path d="M138.189,120.732c0,0,0.325,1.708,0.789,4.018c0.278,1.204,0.56,2.602,0.896,3.981      c0.196,0.777,0.412,1.613,0.662,2.372c0.874,3.014,1.628,5.484,1.628,5.484c0.12,0.544,0.627,0.823,1.073,0.734      c0.499-0.107,0.737-0.645,0.637-1.13c0,0-0.488-2.562-1.129-5.591c-0.143-0.796-0.34-1.573-0.556-2.409      c-0.336-1.379-0.724-2.74-1.056-3.926c-0.624-2.255-1.181-3.948-1.181-3.948c-0.12-0.544-0.627-0.824-1.073-0.735      C138.327,119.709,138.035,120.265,138.189,120.732z" style="fill:#142664;"/>
			</g>
		</g>
		<g>
			<g>
				<path d="M89.886,129.847c0,0,1.365,0.244,3.579,0.283c2.217,0.05,5.298-0.067,8.817-0.384      c3.691-0.364,7.927-0.9,12.116-1.638c2.364-0.421,4.901-0.929,7.22-1.502c4.577-1.067,8.703-2.268,11.647-3.376      c1.472-0.554,2.65-1.082,3.454-1.503c0.803-0.425,1.237-0.721,1.237-0.721c0.758-0.473,1.361-1.127,1.546-1.82      c0.031-0.188,0.058-0.342,0.038-0.492c-0.026-0.153-0.053-0.273-0.111-0.364c-0.127-0.185-0.252-0.243-0.362-0.225      c-0.122,0.025-0.231,0.133-0.321,0.227c-0.097,0.099-0.217,0.182-0.341,0.282c-0.282,0.206-0.77,0.526-1.338,0.877      c0,0-0.363,0.238-1.104,0.6c-0.742,0.36-1.87,0.824-3.302,1.312c-2.865,0.98-6.942,2.037-11.418,2.968      c-2.339,0.463-4.664,0.929-7.176,1.384c-4.135,0.73-8.274,1.368-11.884,1.783c-3.43,0.397-6.455,0.614-8.6,0.648      c-1.073,0.019-1.923-0.009-2.501-0.043c-0.577-0.037-0.882-0.078-0.882-0.078c-0.766-0.115-1.39-0.172-1.803-0.205      c-0.092-0.012-0.198-0.013-0.28-0.017c-0.074-0.006-0.157-0.006-0.234-0.006c-0.124-0.004-0.272-0.008-0.38,0.032      c-0.129,0.058-0.202,0.191-0.165,0.437c0.022,0.116,0.078,0.228,0.16,0.366c0.083,0.127,0.189,0.235,0.321,0.362      C88.337,129.479,89.115,129.754,89.886,129.847z" style="fill:#142664;"/>
			</g>
		</g>
	</g>
	<g>
		<circle cx="115.596" cy="164.053" r="8.787" style="fill-rule:evenodd;clip-rule:evenodd;fill:#FFFFFF;"/>
	</g>
	<g>
		<circle cx="115.596" cy="164.053" r="5.086" style="fill-rule:evenodd;clip-rule:evenodd;fill:#FF2E93;"/>
	</g>
	<g>
		<g>
			<g>
				<path d="M175.61,154.75c0,0-0.338-1.718-1.169-4.507c-0.414-1.395-0.961-3.053-1.641-4.902      c-0.346-0.922-0.715-1.895-1.135-2.904c-0.21-0.505-0.43-1.02-0.668-1.547l-0.189-0.402c-0.035-0.071-0.058-0.127-0.102-0.21      l-0.142-0.254c-0.205-0.33-0.447-0.648-0.746-0.912c-1.226-1.145-3.257-1.444-4.831-0.508c-1.122,0.654-2.275,1.325-3.447,2.007      c-2.341,1.371-4.759,2.787-7.174,4.201c-2.718,1.613-5.641,3.353-8.312,5.003c-10.562,6.418-19.25,11.696-19.25,11.696      c-1.895,1.105-3.011,2.26-2.848,2.69c0.209,0.469,1.97-0.154,3.66-1.132c0,0,8.893-5.131,19.459-11.227      c2.763-1.575,5.481-3.187,8.404-4.927c2.403-1.432,4.803-2.861,7.122-4.243c1.157-0.695,2.294-1.379,3.402-2.045l0.207-0.125      l0.052-0.032l0.041-0.017c0.091-0.046,0.188-0.073,0.283-0.106c0.194-0.05,0.393-0.071,0.591-0.063      c0.395,0.018,0.782,0.162,1.082,0.4c0.141,0.114,0.273,0.24,0.373,0.39c0.059,0.069,0.094,0.154,0.145,0.229l0.177,0.356      c0.234,0.479,0.456,0.97,0.671,1.451c0.425,0.967,0.815,1.906,1.173,2.803c0.715,1.793,1.295,3.413,1.743,4.773      c0.45,1.36,0.772,2.46,0.98,3.219c0.201,0.76,0.31,1.176,0.31,1.176c0.472,2.09,1.031,3.526,1.503,3.566      c0.284-0.011,0.468-0.49,0.54-1.229C175.93,156.684,175.847,155.708,175.61,154.75z" style="fill:#00E6B3;"/>
			</g>
		</g>
		<g>
			<g>
				<path d="M81.103,174.718c0,0,0.149-0.089,0.422-0.253c0.277-0.16,0.661-0.413,1.182-0.687      c1.021-0.57,2.485-1.333,4.214-2.131c1.801-0.866,3.926-1.769,6.06-2.611c1.207-0.468,2.505-0.971,3.706-1.436      c2.377-0.865,4.587-1.485,6.197-1.821c0.805-0.144,1.461-0.28,1.908-0.303c0.45-0.046,0.7-0.072,0.7-0.072      c0.431-0.023,0.778-0.073,1.057-0.234c0.274-0.15,0.466-0.361,0.509-0.586c0.101-0.494-0.693-0.926-1.577-0.937      c0,0-0.282,0.01-0.789,0.029c-0.515-0.002-1.226,0.094-2.106,0.202c-1.745,0.256-4.088,0.781-6.555,1.552      c-0.643,0.198-1.286,0.397-1.928,0.629c-0.637,0.244-1.284,0.492-1.955,0.749c-2.199,0.87-4.321,1.891-6.142,2.827      c-1.729,0.895-3.21,1.767-4.245,2.442c-0.524,0.322-0.927,0.622-1.208,0.815c-0.279,0.198-0.433,0.305-0.433,0.305      c-0.791,0.527-1.069,1.274-0.814,1.643C79.649,175.295,80.492,175.185,81.103,174.718z" style="fill:#00E6B3;"/>
			</g>
		</g>
		<g>
			<path d="M115.602,173.673c-4.055,0-7.835-2.586-9.155-6.646c-1.64-5.044,1.13-10.482,6.174-12.122     c5.044-1.641,10.483,1.13,12.122,6.174c0.794,2.443,0.589,5.05-0.577,7.339c-1.166,2.29-3.154,3.988-5.598,4.783     C117.585,173.521,116.585,173.673,115.602,173.673z M115.59,156.099c-0.814,0-1.64,0.125-2.454,0.39     c-2.021,0.657-3.664,2.061-4.629,3.954c-0.965,1.893-1.134,4.048-0.477,6.069c0.657,2.021,2.061,3.664,3.954,4.629     c1.894,0.965,4.049,1.135,6.069,0.477c2.021-0.657,3.664-2.061,4.629-3.954c0.965-1.893,1.134-4.049,0.477-6.069     C122.069,158.237,118.943,156.099,115.59,156.099z" style="fill:#00E6B3;"/>
		</g>
		<g>
			<g>
				<path d="M123.13,156.414c0,0,2.754-2.468,6.487-5.815c1.937-1.781,4.169-3.835,6.394-5.882      c1.242-1.171,2.576-2.435,3.771-3.639c0.597-0.583,1.182-1.153,1.747-1.703l0.214-0.21l0.25-0.261      c0.159-0.18,0.306-0.366,0.439-0.559c0.265-0.387,0.474-0.8,0.627-1.219c0.308-0.841,0.381-1.707,0.289-2.49      c-0.02-0.196-0.06-0.388-0.097-0.572c-0.035-0.152-0.07-0.302-0.104-0.448c-0.068-0.293-0.134-0.575-0.196-0.843      c-0.502-2.15-0.814-3.487-0.814-3.487c-0.228-1.163-0.815-1.895-1.268-1.844c-0.506,0.073-0.656,1.115-0.46,2.152      c0,0,0.251,1.364,0.652,3.538c0.051,0.272,0.104,0.556,0.159,0.852c0.028,0.148,0.056,0.299,0.084,0.452      c0.021,0.137,0.042,0.245,0.049,0.373c0.042,0.494-0.025,1.031-0.233,1.541c-0.102,0.255-0.238,0.502-0.406,0.732      c-0.084,0.115-0.176,0.225-0.276,0.33c-0.1,0.105-0.197,0.193-0.357,0.338c-0.579,0.526-1.177,1.068-1.787,1.622      c-1.288,1.138-2.53,2.309-3.864,3.573c-2.208,2.064-4.369,4.162-6.255,5.982c-3.587,3.454-6.254,6.142-6.254,6.142      c-0.874,0.801-1.193,1.683-0.914,2.044C121.379,157.536,122.394,157.155,123.13,156.414z" style="fill:#00E6B3;"/>
			</g>
		</g>
	</g>
	<g>
		<g>
			<path d="M46.198,154.149c0,0,0.107,0.824,0.177,2.193c0.029,0.681,0.048,1.505-0.026,2.382     c-0.039,0.433-0.105,0.889-0.229,1.266c-0.057,0.193-0.139,0.345-0.202,0.443c-0.05,0.063-0.048,0.04-0.076,0.049l-0.007,0.001     c-0.051,0.015-0.327-0.027-0.67-0.334c-0.344-0.295-0.71-0.737-1.084-1.226c-0.383-0.493-0.76-1.035-1.289-1.608     c-0.137-0.144-0.283-0.289-0.456-0.435c-0.144-0.123-0.458-0.358-0.75-0.479c-0.591-0.279-1.287-0.279-1.868-0.001     c-0.111,0.075-0.254,0.137-0.369,0.24c-0.312,0.215-0.542,0.543-0.716,0.892c-0.187,0.401-0.226,0.631-0.284,0.9     c-0.096,0.517-0.11,0.977-0.11,1.421c0.007,0.882,0.089,1.695,0.156,2.453c0.078,1.017,0.094,1.98-0.022,2.455     c-0.048,0.235-0.119,0.349-0.112,0.361c-0.01,0.027-0.015,0.044,0,0.046c-0.035,0.018-0.017,0.031-0.096,0.052     c-0.069,0.029-0.178,0.055-0.286,0.076c-0.219,0.045-0.476,0.063-0.718,0.076c-0.495,0.021-0.977,0.005-1.418-0.021     c-0.885-0.054-1.616-0.143-2.19-0.215c-1.149-0.151-1.674-0.242-1.674-0.242c-1.045-0.208-1.867,0.043-2.007,0.476     c-0.143,0.492,0.68,1.044,1.64,1.24c0,0,0.548,0.126,1.75,0.336c0.602,0.102,1.366,0.225,2.331,0.318     c0.484,0.044,1.016,0.083,1.625,0.077c0.309-0.008,0.628-0.017,1-0.078c0.187-0.031,0.379-0.067,0.606-0.144     c0.221-0.072,0.522-0.223,0.747-0.402c-0.072,0.069,0.052-0.015,0.294-0.264c0.239-0.278,0.451-0.679,0.581-1.143     c0.261-0.925,0.245-1.997,0.215-3.041c-0.013-0.802-0.06-1.576-0.056-2.305c0.002-0.361,0.018-0.714,0.065-1.007     c0.011-0.075,0.028-0.135,0.04-0.202c0.016-0.044,0.039-0.137,0.032-0.112l-0.001-0.004l0.001-0.001l0.006-0.002     c-0.066-0.053,0.167,0.115,0.343,0.306c0.375,0.388,0.765,0.905,1.18,1.415c0.42,0.514,0.864,1.048,1.466,1.538     c0.302,0.242,0.661,0.477,1.104,0.636c0.223,0.078,0.463,0.133,0.713,0.156c0.125,0.009,0.251,0.007,0.376,0.004     c0.133-0.008,0.276-0.031,0.41-0.055c0.009-0.003,0.017-0.005,0.024-0.007c0.531-0.124,0.995-0.467,1.287-0.883     c0.268-0.376,0.401-0.73,0.495-1.051c0.187-0.648,0.238-1.214,0.268-1.741c0.049-1.051-0.021-1.94-0.091-2.68     c-0.152-1.474-0.324-2.338-0.324-2.338c-0.137-1.101-0.706-1.796-1.159-1.746C46.281,152.286,46.036,153.233,46.198,154.149z" style="fill:#00E6B3;"/>
		</g>
	</g>
	<g>
		<g>
			<path d="M189.342,105.834c0,0-0.151-0.04-0.398-0.154c-0.124-0.049-0.271-0.113-0.432-0.205     c-0.164-0.079-0.341-0.183-0.527-0.304c-0.407-0.214-0.84-0.543-1.26-0.876c-0.245-0.177-0.502-0.381-0.756-0.548     c-0.472-0.363-0.854-0.744-1.072-1.014c-0.05-0.066-0.096-0.126-0.136-0.179c-0.029-0.046-0.054-0.085-0.074-0.117     c-0.051-0.072-0.05-0.08-0.05-0.08c0.002-0.017-0.026-0.027-0.077-0.04c-0.053-0.017-0.103,0.011-0.187-0.008     c-0.162-0.021-0.375-0.122-0.589-0.198c-0.24-0.085-0.463-0.09-0.639,0.05c-0.083,0.06-0.165,0.185-0.195,0.266     c-0.033,0.086-0.045,0.183-0.032,0.278c0,0,0.009,0.145,0.062,0.308c0.025,0.087,0.055,0.199,0.097,0.319     c0.046,0.106,0.098,0.227,0.155,0.361c0.243,0.51,0.64,1.106,1.151,1.67c0.247,0.315,0.55,0.567,0.89,0.814     c0.544,0.43,1.17,0.744,1.732,0.974c0.266,0.112,0.522,0.203,0.765,0.263c0.235,0.071,0.453,0.115,0.639,0.139     c0.364,0.065,0.593,0.061,0.593,0.061c0.281,0.061,0.525-0.332,0.576-0.782C189.633,106.267,189.515,105.824,189.342,105.834z" style="fill:#00E6B3;"/>
		</g>
	</g>
	<g>
		<g>
			<path d="M196.552,102.46c0,0-1.087-0.407-2.568-0.935c-0.787-0.244-1.684-0.562-2.593-0.825     c-0.515-0.142-1.071-0.29-1.598-0.377c-2.045-0.451-3.737-0.786-3.737-0.786c-0.353-0.115-0.722,0.223-0.859,0.655     c-0.15,0.488,0.05,0.919,0.362,1.027c0,0,1.631,0.61,3.587,1.274c0.503,0.197,1.018,0.338,1.574,0.487     c0.909,0.263,1.83,0.472,2.629,0.661c1.518,0.364,2.694,0.557,2.694,0.557c0.353,0.115,0.722-0.222,0.859-0.655     C197.064,102.999,196.877,102.513,196.552,102.46z" style="fill:#00E6B3;"/>
		</g>
	</g>
	<g>
		<g>
			<path d="M60.086,271.264c0,0-0.257-0.046-0.731-0.131c-0.472-0.089-1.159-0.221-2.004-0.42     c-0.837-0.203-1.862-0.46-2.874-0.877c-0.121-0.055-0.253-0.105-0.367-0.166l-0.177-0.087l-0.046-0.03     c-0.049-0.034-0.058-0.049-0.076-0.079c-0.043-0.067,0.057-0.112,0.105-0.109l0.28-0.08c0.167-0.046,0.341-0.088,0.52-0.128     c0.357-0.081,0.732-0.153,1.117-0.22c0.769-0.133,1.578-0.246,2.405-0.354c1.656-0.215,3.389-0.406,5.133-0.659     c0.986-0.149,2.012-0.313,3.066-0.567c0.531-0.133,1.058-0.272,1.645-0.532c0.298-0.151,0.606-0.264,1.012-0.693     c0.187-0.189,0.443-0.623,0.427-1.1c-0.009-0.465-0.221-0.821-0.368-0.999c-0.16-0.207-0.309-0.332-0.426-0.424     c-0.125-0.102-0.253-0.206-0.375-0.279c-0.249-0.171-0.492-0.297-0.734-0.425c-0.48-0.229-0.951-0.423-1.41-0.575     c-0.919-0.314-1.8-0.535-2.641-0.721c-1.68-0.364-3.195-0.592-4.47-0.761c-1.274-0.169-2.309-0.274-3.024-0.343     c-0.716-0.065-1.112-0.101-1.112-0.101c-1.367-0.16-2.375,0.191-2.456,0.64c-0.073,0.504,1.019,0.951,2.212,1.098     c0,0,1.574,0.182,4.051,0.601c1.237,0.212,2.7,0.489,4.268,0.885c0.781,0.201,1.591,0.433,2.375,0.727     c0.392,0.146,0.775,0.311,1.128,0.493c0.166,0.095,0.348,0.186,0.482,0.289c0.073,0.05,0.15,0.099,0.199,0.149     c0.052,0.046,0.135,0.112,0.127,0.113c0.011-0.006-0.017,0.021,0.027-0.012c0.028-0.028,0.058-0.055,0.089-0.081     c0.062-0.051,0.131-0.096,0.205-0.135c0.079-0.068,0.227-0.11,0.258-0.122c0.127-0.024,0.052,0.027-0.121-0.104     c-0.125-0.075-0.187-0.156-0.334-0.302c-0.021-0.023-0.08-0.094-0.066-0.08c0,0,0.005-0.002-0.001,0l-0.02,0.011     c-0.03,0.019-0.095,0.052-0.167,0.084c-0.309,0.136-0.754,0.262-1.2,0.367c-0.908,0.212-1.895,0.378-2.923,0.536     c-1.719,0.242-3.435,0.484-5.094,0.718c-0.838,0.126-1.665,0.26-2.478,0.417c-0.407,0.079-0.81,0.163-1.212,0.261     c-0.201,0.049-0.402,0.102-0.604,0.158l-0.303,0.09l-0.164,0.053c-0.086,0.027-0.172,0.057-0.255,0.09     c-0.64,0.235-1.23,0.562-1.522,1.012c-0.158,0.219-0.244,0.482-0.273,0.76c0.019,0.275,0.026,0.548,0.139,0.792     c0.204,0.493,0.616,0.913,1.118,1.234c0.121,0.075,0.244,0.138,0.365,0.207l0.181,0.101l0.123,0.056     c0.164,0.075,0.325,0.145,0.482,0.204c1.254,0.474,2.341,0.695,3.255,0.879c0.911,0.177,1.64,0.281,2.142,0.351     c0.502,0.065,0.776,0.1,0.776,0.1c1.37,0.22,2.394-0.104,2.486-0.551C62.335,271.936,61.258,271.403,60.086,271.264z" style="fill:#00E6B3;"/>
		</g>
	</g>
	<g>
		<g>
			<path d="M170.604,289.197c0,0-0.254-0.069-0.722-0.197c-0.469-0.124-1.153-0.301-2.026-0.489     c-0.877-0.182-1.928-0.398-3.204-0.486c-0.322-0.017-0.657-0.03-1.02-0.012c-0.073,0.005-0.216,0.008-0.368,0.027l-0.436,0.075     c-0.151,0.018-0.287,0.063-0.423,0.11c-0.135,0.047-0.283,0.083-0.396,0.157c-0.504,0.241-0.88,0.635-1.059,1.158     c-0.137,0.543,0.011,1.063,0.381,1.58c0.197,0.264,0.452,0.532,0.711,0.76l0.187,0.167l0.121,0.101l0.242,0.197     c0.324,0.257,0.652,0.496,0.985,0.732c0.665,0.469,1.347,0.92,2.037,1.373c1.376,0.905,2.795,1.812,4.101,2.779     c0.727,0.539,1.477,1.142,1.977,1.739c0.25,0.28,0.369,0.612,0.352,0.557c0.001,0.008,0.011,0.02,0.004,0.032     c-0.007,0.004-0.001,0.006-0.01,0.018c-0.017,0.015-0.032,0.031-0.047,0.05c-0.047,0.036-0.083,0.075-0.178,0.131     c-1.253,0.843-2.868,0.959-4.331,0.722c-1.472-0.235-2.797-0.74-3.878-1.218c-1.083-0.488-1.936-0.964-2.518-1.304     c-0.581-0.343-0.896-0.546-0.896-0.546c-1.066-0.726-2.028-0.957-2.355-0.638c-0.356,0.373,0.327,1.377,1.334,2.066     c0,0,0.326,0.232,0.929,0.626c0.605,0.39,1.492,0.937,2.647,1.518c1.16,0.566,2.586,1.194,4.327,1.543     c0.869,0.167,1.821,0.268,2.833,0.171c1.007-0.093,2.074-0.398,3.028-0.971c0.233-0.125,0.553-0.327,0.85-0.655     c0.312-0.346,0.534-0.8,0.584-1.274c0.061-0.472-0.069-0.995-0.215-1.313c-0.15-0.345-0.331-0.618-0.516-0.866     c-0.751-0.963-1.583-1.599-2.446-2.253c-1.419-1.055-2.875-1.949-4.257-2.817c-0.69-0.432-1.364-0.854-1.994-1.275     c-0.314-0.21-0.618-0.421-0.9-0.631c-0.135-0.1-0.289-0.222-0.389-0.302l-0.05-0.036c-0.022-0.018-0.051-0.04-0.06-0.072     c-0.005-0.033,0.021-0.057,0.046-0.072c0.029-0.017,0.054-0.027,0.099-0.035c0.227-0.028,0.517-0.03,0.777-0.029     c1.078,0.021,2.101,0.174,2.941,0.31c0.844,0.139,1.523,0.281,1.989,0.378c0.466,0.101,0.721,0.156,0.721,0.156     c1.261,0.338,2.262,0.201,2.443-0.218C172.746,290.187,171.768,289.456,170.604,289.197z" style="fill:#00E6B3;"/>
		</g>
	</g>
	<g>
		<g>
			<path d="M86.733,225.625c0,0,0.131,0.033,0.384,0.098c0.254,0.056,0.63,0.138,1.117,0.245     c0.975,0.211,2.394,0.519,4.173,0.904c3.576,0.661,8.606,1.593,14.452,2.208c6.134,0.656,13.233,1.143,20.314,1.25     c1.999,0.012,4.075,0.057,6.147,0.002c2.071-0.035,4.14-0.063,6.123-0.176c7.808-0.302,14.904-0.884,20.034-1.449     c2.568-0.255,4.642-0.543,6.08-0.705c1.438-0.166,2.231-0.289,2.231-0.289c2.751-0.34,4.633-1.011,4.668-1.473     c0.002-0.514-2.331-0.577-4.764-0.283c0,0-0.2,0.024-0.58,0.068c-0.379,0.049-0.94,0.106-1.661,0.176     c-1.442,0.133-3.519,0.376-6.079,0.584c-5.116,0.464-12.156,0.915-19.806,1.101c-1.994,0.056-3.982,0.062-6.005,0.078     c-2.023,0.038-4.08,0.006-6.212-0.01c-7.014-0.102-13.997-0.465-20.046-1.047c-1.436-0.149-2.828-0.293-4.166-0.433     c-1.333-0.175-2.612-0.344-3.824-0.503c-0.606-0.082-1.197-0.15-1.767-0.237c-0.569-0.092-1.12-0.182-1.651-0.268     c-1.064-0.172-2.05-0.331-2.947-0.475c-1.788-0.322-3.213-0.62-4.199-0.804c-0.492-0.095-0.873-0.169-1.131-0.218     c-0.258-0.049-0.39-0.085-0.39-0.085c-2.658-0.672-4.648-0.725-4.865-0.311C82.166,224.106,84.341,225.073,86.733,225.625z" style="fill:#00E6B3;"/>
		</g>
	</g>
	<g>
		<g>
			<g>
				<path d="M101.372,232.514c-0.044,0-0.089-0.002-0.134-0.007l-17.645-1.679c-0.761-0.073-1.322-0.751-1.25-1.513      l0.634-6.668c0.068-0.716,0.661-1.256,1.379-1.256c0.044,0,0.089,0.002,0.134,0.007l17.645,1.679      c0.761,0.073,1.322,0.751,1.25,1.513l-0.634,6.668C102.683,231.973,102.09,232.514,101.372,232.514z" style="fill:#142664;"/>
			</g>
			<g>
				<path d="M84.357,222.224c0.018,0,0.037,0.001,0.055,0.002l17.646,1.679c0.199,0.019,0.32,0.133,0.375,0.199      c0.055,0.066,0.144,0.207,0.125,0.406l-0.634,6.668c-0.027,0.282-0.268,0.503-0.55,0.503c-0.018,0-0.037-0.001-0.055-0.002      L83.672,230c-0.305-0.029-0.529-0.301-0.5-0.605l0.634-6.668C83.833,222.445,84.075,222.224,84.357,222.224 M84.356,220.559      c-1.131,0-2.098,0.861-2.208,2.01l-0.634,6.668c-0.116,1.221,0.779,2.304,2,2.42l17.646,1.678      c0.072,0.007,0.143,0.01,0.213,0.01c1.131,0,2.098-0.861,2.207-2.01l0.634-6.668c0.116-1.221-0.779-2.304-2-2.42l-17.646-1.679      C84.498,220.563,84.427,220.559,84.356,220.559L84.356,220.559z" style="fill:#00E6B3;"/>
			</g>
		</g>
		<g>
			<path d="M99.933,227.441l-14.101-1.341c-2.199-0.209-3.812-2.162-3.603-4.361l0.18-1.887     c0.209-2.199,2.162-3.812,4.361-3.603l14.101,1.341c2.199,0.209,3.812,2.162,3.603,4.361l-0.18,1.887     C104.084,226.037,102.132,227.65,99.933,227.441z" style="fill:#00E6B3;"/>
		</g>
		<g>
			<g>
				<path d="M110.604,232.827c-0.371-0.004-0.717-0.153-0.976-0.418c-0.259-0.265-0.399-0.615-0.394-0.986l0.081-6.697      c0.009-0.756,0.631-1.371,1.386-1.371l17.742,0.215c0.765,0.009,1.38,0.64,1.371,1.405l-0.082,6.697      c-0.009,0.756-0.631,1.371-1.386,1.371L110.604,232.827z" style="fill:#142664;"/>
			</g>
			<g>
				<path d="M110.702,222.521l0.007,1.665l17.724,0.216c0.2,0.002,0.33,0.106,0.39,0.167      c0.06,0.061,0.16,0.194,0.158,0.394l-0.081,6.698c-0.004,0.302-0.252,0.548-0.562,0.548l-17.724-0.216      c-0.2-0.002-0.331-0.106-0.391-0.167c-0.06-0.062-0.16-0.194-0.158-0.394l0.082-6.698c0.004-0.302,0.252-0.548,0.554-0.548      V222.521 M110.702,222.521c-1.213,0-2.204,0.976-2.219,2.193l-0.082,6.698c-0.015,1.226,0.967,2.232,2.193,2.247l17.724,0.216      c0.009,0,0.018,0,0.028,0c1.213,0,2.204-0.976,2.219-2.193l0.081-6.698c0.015-1.226-0.967-2.232-2.193-2.247l-17.724-0.216      C110.72,222.521,110.711,222.521,110.702,222.521L110.702,222.521z" style="fill:#00E6B3;"/>
			</g>
		</g>
		<g>
			<path d="M126.605,228.284l-14.164-0.172c-2.209-0.027-3.978-1.839-3.951-4.048l0.025-2.079     c0.027-2.209,1.839-3.978,4.048-3.951l14.164,0.172c2.209,0.027,3.978,1.839,3.951,4.048l-0.025,2.079     C130.627,226.542,128.814,228.311,126.605,228.284z" style="fill:#00E6B3;"/>
		</g>
	</g>
	<g>
		<g>
			<g>
				<path d="M126.139,331.489c-0.334,0-0.669-0.12-0.935-0.363c-0.566-0.517-0.606-1.395-0.089-1.96      c0.761-0.834,1.507-1.666,2.236-2.496c0.506-0.576,1.383-0.633,1.958-0.127c0.576,0.506,0.633,1.382,0.127,1.958      c-0.741,0.844-1.499,1.689-2.272,2.537C126.891,331.336,126.516,331.489,126.139,331.489z M132.027,324.672      c-0.307,0-0.616-0.101-0.873-0.309c-0.595-0.483-0.687-1.357-0.204-1.952c0.72-0.888,1.417-1.771,2.07-2.623      c0.466-0.609,1.337-0.724,1.945-0.256c0.608,0.466,0.723,1.337,0.256,1.945c-0.668,0.872-1.38,1.773-2.116,2.681      C132.832,324.496,132.431,324.672,132.027,324.672z M137.43,317.465c-0.27,0-0.544-0.079-0.783-0.243      c-0.632-0.434-0.793-1.297-0.36-1.929c0.634-0.925,1.25-1.859,1.83-2.778c0.409-0.648,1.267-0.841,1.914-0.431      c0.648,0.41,0.841,1.267,0.431,1.914c-0.599,0.947-1.234,1.911-1.887,2.863C138.307,317.254,137.872,317.465,137.43,317.465z       M142.129,309.785c-0.222,0-0.447-0.053-0.655-0.165c-0.675-0.363-0.928-1.204-0.566-1.879c0.526-0.98,1.029-1.973,1.495-2.953      c0.329-0.692,1.156-0.988,1.849-0.657c0.692,0.33,0.986,1.157,0.657,1.849c-0.486,1.02-1.009,2.054-1.557,3.074      C143.102,309.52,142.623,309.785,142.129,309.785z M145.85,301.59c-0.16,0-0.324-0.028-0.483-0.087      c-0.718-0.267-1.085-1.065-0.818-1.784c0.382-1.03,0.738-2.08,1.057-3.122c0.225-0.733,1-1.143,1.733-0.92      c0.733,0.225,1.145,1,0.92,1.733c-0.335,1.093-0.708,2.195-1.109,3.275C146.943,301.244,146.413,301.59,145.85,301.59z       M148.308,292.935c-0.09,0-0.18-0.009-0.272-0.027c-0.752-0.149-1.24-0.879-1.091-1.631c0.212-1.069,0.393-2.16,0.539-3.246      c0.101-0.759,0.793-1.296,1.559-1.191c0.759,0.101,1.293,0.8,1.191,1.559c-0.153,1.143-0.344,2.292-0.567,3.417      C149.536,292.478,148.957,292.935,148.308,292.935z M149.319,283.996c-0.014,0-0.029,0-0.043-0.001      c-0.766-0.024-1.368-0.664-1.344-1.43c0.017-0.564,0.026-1.13,0.026-1.699c0.001-0.53-0.007-1.061-0.022-1.596      c-0.022-0.766,0.581-1.404,1.347-1.427c0.78-0.018,1.405,0.582,1.427,1.347c0.016,0.561,0.024,1.12,0.023,1.676      c0,0.597-0.009,1.191-0.027,1.783C150.682,283.403,150.066,283.996,149.319,283.996z M148.898,275.006      c-0.692,0-1.291-0.517-1.376-1.222c-0.13-1.076-0.291-2.177-0.48-3.273c-0.13-0.755,0.377-1.473,1.132-1.603      c0.759-0.125,1.473,0.377,1.603,1.132c0.197,1.141,0.365,2.289,0.5,3.412c0.092,0.76-0.451,1.451-1.212,1.544      C149.009,275.003,148.953,275.006,148.898,275.006z M147.239,266.157c-0.621,0-1.186-0.42-1.345-1.05      c-0.264-1.05-0.558-2.128-0.876-3.205c-0.217-0.735,0.203-1.506,0.938-1.723c0.733-0.218,1.507,0.203,1.723,0.938      c0.328,1.112,0.633,2.227,0.906,3.313c0.186,0.743-0.264,1.497-1.008,1.684C147.465,266.143,147.352,266.157,147.239,266.157z       M144.59,257.55c-0.568,0-1.101-0.351-1.305-0.916c-0.371-1.026-0.77-2.075-1.185-3.117c-0.283-0.712,0.063-1.519,0.776-1.802      c0.711-0.285,1.519,0.064,1.802,0.776c0.426,1.069,0.835,2.146,1.216,3.199c0.261,0.721-0.112,1.516-0.833,1.777      C144.906,257.523,144.747,257.55,144.59,257.55z" style="fill:#00E6B3;"/>
			</g>
		</g>
	</g>
</g>

            </g>
        </g>
    </g>
    
    <!-- ITEM 4 -->
    <g>
        <defs>
            <clipPath id="clip-path-id-viewbox-item-4">
                <rect x="0.0" y="0.0" width="128.263" height="150.0"/>
            </clipPath>
        </defs>
        <g transform="translate(155.0 212.0) rotate(0.0 79.5 93.5) scale(1.239640426311563 1.2466666666666666)">
            <g clip-path="url(#clip-path-id-viewbox-item-4)" transform="translate(-0.0 -0.0)">
                

<g>
	<path d="M78.021,17.757L92.263,61c0,1.105-0.895,2-2,2H61.998c-0.53,0-1.039-0.211-1.414-0.586l-7.998-7.998   C52.211,54.042,52,53.533,52,53.002V6c0-3.314-2.686-6-6-6H20C16.686,0,6.582,9.793,1.845,17.671L16,66.545   c0,1.591,0.632,3.117,1.757,4.243l26.455,26.455C45.338,98.368,46.864,99,48.455,99h41.808c1.105,0,2,0.895,2,2v27   c0,3.314,2.686,6,6,6l12.479,14.213c7.369-4.257,17.521-11.174,17.521-14.61l0-122.604c0-8.314-2.686-11-6-11h-26   C92.949,0,83.146,9.228,78.021,17.757z" style="fill:#ff2e93;"/>
	<path d="M112.746,17.636c0,0,1.488-1.253,3.474-2.981c0.998-0.953,2.198-2.001,3.323-3.116   c0.626-0.639,1.294-1.333,1.844-2.04c2.31-2.638,4.163-4.854,4.163-4.854c0.456-0.422,0.224-1.275-0.339-1.869   c-0.638-0.661-1.463-0.753-1.878-0.385c0,0-2.231,1.879-4.801,4.193c-0.701,0.572-1.327,1.211-1.995,1.905   c-1.125,1.116-2.174,2.299-3.096,3.319c-1.76,1.931-2.987,3.508-2.987,3.508c-0.457,0.422-0.224,1.275,0.339,1.869   C111.506,17.912,112.407,18.071,112.746,17.636z" style="fill:#142664;"/>
	<path d="M40.056,70.782c0,0,1.488-1.253,3.474-2.981c0.998-0.953,2.198-2.001,3.323-3.116   c0.626-0.639,1.294-1.333,1.844-2.04c2.31-2.638,4.163-4.854,4.163-4.854c0.456-0.422,0.224-1.275-0.339-1.869   c-0.638-0.661-1.463-0.753-1.878-0.385c0,0-2.231,1.879-4.801,4.193c-0.701,0.572-1.327,1.211-1.995,1.905   c-1.125,1.116-2.174,2.299-3.096,3.319c-1.76,1.931-2.987,3.508-2.987,3.508c-0.457,0.422-0.224,1.275,0.339,1.869   C38.817,71.058,39.718,71.217,40.056,70.782z" style="fill:#142664;"/>
	<path d="M36.768,17.636c0,0,1.488-1.253,3.474-2.981c0.998-0.953,2.198-2.001,3.323-3.116   c0.626-0.639,1.294-1.333,1.844-2.04c2.31-2.638,4.163-4.854,4.163-4.854c0.456-0.422,0.224-1.275-0.339-1.869   c-0.638-0.661-1.463-0.753-1.877-0.385c0,0-2.231,1.879-4.801,4.193c-0.701,0.572-1.327,1.211-1.995,1.905   c-1.125,1.116-2.174,2.299-3.096,3.319c-1.76,1.931-2.987,3.508-2.987,3.508c-0.457,0.422-0.224,1.275,0.339,1.869   C35.529,17.912,36.43,18.071,36.768,17.636z" style="fill:#142664;"/>
	<path d="M76.263,22v55c0,1.105-0.895,2-2,2H45.998c-0.53,0-1.039-0.211-1.414-0.586l-7.998-7.998   C36.211,70.041,36,69.533,36,69.002V22c0-3.314-2.686-6-6-6H6c-3.314,0-6,2.686-6,6l0,60.545c0,1.591,0.632,3.117,1.757,4.243   l26.455,26.455c1.125,1.125,2.651,1.757,4.243,1.757h41.808c1.105,0,2,0.895,2,2v27c0,3.314,2.686,6,6,6h24   c3.659,0.029,6-2.702,6-5.396V27c0-8.314-2.686-11-6-11h-24C78.949,16,76.263,18.686,76.263,22z" style="fill:#142664;"/>
</g>

            </g>
        </g>
    </g>
    
    <!-- ITEM 5 -->
    <g>
        <defs>
            <clipPath id="clip-path-id-viewbox-item-5">
                <rect x="0.0" y="0.0" width="128.263" height="150.0"/>
            </clipPath>
        </defs>
        <g transform="translate(525.0 213.0) rotate(0.0 79.5 93.5) scale(1.239640426311563 1.2466666666666666)">
            <g clip-path="url(#clip-path-id-viewbox-item-5)" transform="translate(-0.0 -0.0)">
                

<g>
	<path d="M78.021,17.757L92.263,61c0,1.105-0.895,2-2,2H61.998c-0.53,0-1.039-0.211-1.414-0.586l-7.998-7.998   C52.211,54.042,52,53.533,52,53.002V6c0-3.314-2.686-6-6-6H20C16.686,0,6.582,9.793,1.845,17.671L16,66.545   c0,1.591,0.632,3.117,1.757,4.243l26.455,26.455C45.338,98.368,46.864,99,48.455,99h41.808c1.105,0,2,0.895,2,2v27   c0,3.314,2.686,6,6,6l12.479,14.213c7.369-4.257,17.521-11.174,17.521-14.61l0-122.604c0-8.314-2.686-11-6-11h-26   C92.949,0,83.146,9.228,78.021,17.757z" style="fill:#ff2e93;"/>
	<path d="M112.746,17.636c0,0,1.488-1.253,3.474-2.981c0.998-0.953,2.198-2.001,3.323-3.116   c0.626-0.639,1.294-1.333,1.844-2.04c2.31-2.638,4.163-4.854,4.163-4.854c0.456-0.422,0.224-1.275-0.339-1.869   c-0.638-0.661-1.463-0.753-1.878-0.385c0,0-2.231,1.879-4.801,4.193c-0.701,0.572-1.327,1.211-1.995,1.905   c-1.125,1.116-2.174,2.299-3.096,3.319c-1.76,1.931-2.987,3.508-2.987,3.508c-0.457,0.422-0.224,1.275,0.339,1.869   C111.506,17.912,112.407,18.071,112.746,17.636z" style="fill:#142664;"/>
	<path d="M40.056,70.782c0,0,1.488-1.253,3.474-2.981c0.998-0.953,2.198-2.001,3.323-3.116   c0.626-0.639,1.294-1.333,1.844-2.04c2.31-2.638,4.163-4.854,4.163-4.854c0.456-0.422,0.224-1.275-0.339-1.869   c-0.638-0.661-1.463-0.753-1.878-0.385c0,0-2.231,1.879-4.801,4.193c-0.701,0.572-1.327,1.211-1.995,1.905   c-1.125,1.116-2.174,2.299-3.096,3.319c-1.76,1.931-2.987,3.508-2.987,3.508c-0.457,0.422-0.224,1.275,0.339,1.869   C38.817,71.058,39.718,71.217,40.056,70.782z" style="fill:#142664;"/>
	<path d="M36.768,17.636c0,0,1.488-1.253,3.474-2.981c0.998-0.953,2.198-2.001,3.323-3.116   c0.626-0.639,1.294-1.333,1.844-2.04c2.31-2.638,4.163-4.854,4.163-4.854c0.456-0.422,0.224-1.275-0.339-1.869   c-0.638-0.661-1.463-0.753-1.877-0.385c0,0-2.231,1.879-4.801,4.193c-0.701,0.572-1.327,1.211-1.995,1.905   c-1.125,1.116-2.174,2.299-3.096,3.319c-1.76,1.931-2.987,3.508-2.987,3.508c-0.457,0.422-0.224,1.275,0.339,1.869   C35.529,17.912,36.43,18.071,36.768,17.636z" style="fill:#142664;"/>
	<path d="M76.263,22v55c0,1.105-0.895,2-2,2H45.998c-0.53,0-1.039-0.211-1.414-0.586l-7.998-7.998   C36.211,70.041,36,69.533,36,69.002V22c0-3.314-2.686-6-6-6H6c-3.314,0-6,2.686-6,6l0,60.545c0,1.591,0.632,3.117,1.757,4.243   l26.455,26.455c1.125,1.125,2.651,1.757,4.243,1.757h41.808c1.105,0,2,0.895,2,2v27c0,3.314,2.686,6,6,6h24   c3.659,0.029,6-2.702,6-5.396V27c0-8.314-2.686-11-6-11h-24C78.949,16,76.263,18.686,76.263,22z" style="fill:#142664;"/>
</g>

            </g>
        </g>
    </g>
    
    <!-- ITEM 6 -->
    <g>
        <defs>
            <clipPath id="clip-path-id-viewbox-item-6">
                <rect x="0.0" y="0.0" width="128.256" height="175.663"/>
            </clipPath>
        </defs>
        <g transform="translate(533.0 0.0) rotate(45.82607162439857 60.5 82.5) scale(0.9434256487025948 0.9392985432333502)">
            <g clip-path="url(#clip-path-id-viewbox-item-6)" transform="translate(-0.0 -0.0)">
                

<g>
	<path d="M66.451,0.001c-8.223-0.178-14.012,17.147-15.727,38.543c-0.597,7.761-1.063,12.879-1.194,15.522l-0.124,0.011   c-1.77,22.153-18.82,26.112-32.442,33.262C8.24,91.907,0.953,97.782,0.003,110.524c-0.044,0.881,0.454,1.524,1.234,1.828   c0.079,0.181,0.159,0.361,0.227,0.418l11.323,3.212l-3.299,13.086c-0.063,2.7,10.624,3.778,16.023,3.904s16.073-0.298,16.193-3.065   l-2.141-10.264l8.348,0.167l-0.177,8.912c-0.022,0.441,0.329,0.847,0.826,0.801l7.41,0.191c0.441,0.022,0.847-0.329,0.801-0.826   l0.139-4.586c0.825,0.112,1.649,0.223,2.531,0.267l-0.157,7.783c-0.03,2.383,1.848,4.402,4.3,4.488   c1.254,0.009,2.337-0.467,3.082-1.225c0.801-0.826,1.33-1.877,1.407-3.075l0.157-7.783c0.813-0.013,1.683-0.093,2.428-0.162   l-0.139,4.586c-0.022,0.441,0.329,0.847,0.826,0.801l7.41,0.191c0.441,0.022,0.847-0.329,0.801-0.826l0.16-5.716l0.062-3.389   l8.54,0.212l-2.603,10.453c-0.063,2.7,10.624,3.778,16.023,3.904c5.399,0.127,16.073-0.298,16.193-3.065l-2.744-13.403   l11.584-2.764c0.124-0.011,0.169-0.204,0.27-0.464c0.666-0.25,1.162-0.985,1.217-1.742c-0.371-12.808-7.396-18.987-15.932-23.897   c-13.308-7.727-30.157-12.431-30.962-34.659c0,0-0.068-0.056-0.124,0.012c-0.061-2.688-0.284-7.805-0.568-15.609   C79.673,17.634,74.674,0.18,66.451,0.001z" style="fill:#142664;"/>
	<path d="M66.262,90.67c-0.383,0.599-1.105,0.917-1.794,0.918c-1.254-0.009-2.159-0.99-2.15-2.244l0.284-12.493   c0.077-1.197,0.99-2.159,2.244-2.15c1.254,0.009,2.159,0.99,2.15,2.244l-0.284,12.493C66.634,89.946,66.544,90.331,66.262,90.67z" style="fill:#FF2E93;"/>
	<path d="M66.849,63.176c-0.383,0.599-1.105,0.917-1.794,0.918c-1.254-0.009-2.159-0.99-2.15-2.244l0.804-39.355   c0.077-1.197,0.99-2.159,2.244-2.15c1.254,0.009,2.159,0.99,2.15,2.244l-0.804,39.355C67.221,62.452,67.131,62.837,66.849,63.176z" style="fill:#FF2E93;"/>
	<path d="M24.685,174.745c-0.383,0.599-1.105,0.917-1.794,0.918c-1.254-0.009-2.159-0.99-2.15-2.244l1.55-73.253   c0.077-1.197,0.99-2.159,2.244-2.15c1.254,0.009,2.159,0.99,2.15,2.244l-1.55,73.253C25.113,173.953,24.966,174.405,24.685,174.745   z" style="fill:#142664;"/>
	<path d="M103.777,173.776c-0.383,0.599-1.105,0.917-1.794,0.918c-1.254-0.009-2.159-0.99-2.15-2.244l0.125-6.088   c0.077-1.197,0.99-2.159,2.244-2.15c1.254,0.009,2.159,0.99,2.15,2.244l-0.125,6.088   C104.205,172.984,104.059,173.437,103.777,173.776z" style="fill:#142664;"/>
	<path d="M113.04,147.295c-0.383,0.599-1.105,0.917-1.794,0.918c-1.254-0.009-2.159-0.99-2.15-2.244l0.125-6.088   c0.077-1.197,0.99-2.159,2.244-2.15c1.254,0.009,2.159,0.99,2.15,2.244l-0.125,6.088   C113.412,146.572,113.266,147.024,113.04,147.295z" style="fill:#142664;"/>
	<path d="M16.031,144.937c-0.383,0.599-1.105,0.917-1.794,0.918c-1.254-0.009-2.159-0.99-2.15-2.244l0.125-6.088   c0.077-1.197,0.99-2.159,2.244-2.15c1.254,0.009,2.159,0.99,2.15,2.244l-0.125,6.088C16.403,144.214,16.313,144.598,16.031,144.937   z" style="fill:#142664;"/>
	<path d="M104.113,158.459c-0.383,0.599-1.105,0.917-1.794,0.918c-1.254-0.009-2.159-0.99-2.15-2.244l1.282-57.88   c0.077-1.197,0.99-2.159,2.244-2.15c1.254,0.009,2.159,0.99,2.15,2.244l-1.282,57.88   C104.541,157.667,104.327,158.063,104.113,158.459z" style="fill:#142664;"/>
	<path d="M95.685,150.656c-0.383,0.599-1.105,0.917-1.794,0.918c-1.254-0.009-2.159-0.99-2.15-2.244l0.976-44.946   c0.077-1.197,0.99-2.159,2.244-2.15c1.254,0.009,2.159,0.99,2.15,2.244l-0.976,44.946   C96.113,149.865,95.899,150.261,95.685,150.656z" style="fill:#142664;"/>
	<path d="M33.552,165.195c-0.383,0.599-1.105,0.917-1.794,0.918c-1.254-0.009-2.159-0.99-2.15-2.244l0.252-11.488   c0.077-1.197,0.99-2.159,2.244-2.15c1.254,0.009,2.159,0.99,2.15,2.244l-0.252,11.488   C33.924,164.471,33.778,164.923,33.552,165.195z" style="fill:#142664;"/>
	<path d="M34.001,142.976c-0.383,0.599-1.105,0.917-1.794,0.918c-1.254-0.009-2.159-0.99-2.15-2.244l0.839-38.982   c0.077-1.197,0.99-2.159,2.244-2.15c1.254,0.009,2.159,0.99,2.15,2.244l-0.839,38.982   C34.373,142.252,34.283,142.636,34.001,142.976z" style="fill:#142664;"/>
</g>

            </g>
        </g>
    </g>
    
    <!-- ITEM 7 -->
    <g>
        <defs>
            <clipPath id="clip-path-id-viewbox-item-7">
                <rect x="0.0" y="0.0" width="131.496" height="150.0"/>
            </clipPath>
        </defs>
        <g transform="translate(337.0 210.0) rotate(0.0 81.5 93.5) scale(1.2395814321348178 1.2466666666666666)">
            <g clip-path="url(#clip-path-id-viewbox-item-7)" transform="translate(-0.0 -0.0)">
                

<g>
	<path d="M1.938,20.096L16,124c0,5.523,4.477,10,10,10l86.738,12.888c8.658-5.771,18.758-14.604,18.758-21.888V10   c0-5.523-4.477-10-10-10H25C18.63,0,7.496,10.229,1.938,20.096z M91.496,104H56c-2.209,0-4-1.791-4-4V34c0-2.209,1.791-4,4-4   h35.496c2.209,0,4,1.791,4,4v66C95.496,102.209,93.705,104,91.496,104z" style="fill:#ff2e93;"/>
	<path d="M115.817,18.645c0,0,1.452-1.217,3.39-2.897c0.972-0.927,2.143-1.946,3.238-3.032   c0.609-0.623,1.26-1.299,1.794-1.989c2.245-2.573,4.046-4.736,4.046-4.736c0.445-0.41,0.204-1.255-0.359-1.849   c-0.638-0.661-1.454-0.762-1.858-0.405c0,0-2.178,1.825-4.684,4.075c-0.685,0.555-1.294,1.178-1.945,1.854   c-1.095,1.086-2.115,2.24-3.012,3.235c-1.711,1.883-2.902,3.423-2.902,3.423c-0.445,0.41-0.204,1.255,0.359,1.849   C114.597,18.901,115.489,19.07,115.817,18.645z" style="fill:#142664;"/>
	<path d="M39.862,118.475c0,0,1.452-1.217,3.39-2.897c0.972-0.927,2.143-1.946,3.238-3.032   c0.609-0.623,1.26-1.299,1.794-1.989c2.245-2.573,4.046-4.736,4.046-4.736c0.445-0.41,0.204-1.255-0.359-1.849   c-0.638-0.661-1.454-0.762-1.858-0.405c0,0-2.178,1.825-4.684,4.075c-0.685,0.555-1.294,1.178-1.945,1.854   c-1.095,1.086-2.115,2.24-3.012,3.235c-1.711,1.883-2.902,3.423-2.902,3.423c-0.445,0.41-0.204,1.255,0.359,1.849   C38.642,118.731,39.534,118.9,39.862,118.475z" style="fill:#142664;"/>
	<path d="M0,26v114c0,5.523,4.477,10,10,10h95.496c5.523,0,10-4.477,10-10V26c0-5.523-4.477-10-10-10H10   C4.477,16,0,20.477,0,26z M75.496,120H40c-2.209,0-4-1.791-4-4V50c0-2.209,1.791-4,4-4h35.496c2.209,0,4,1.791,4,4v66   C79.496,118.209,77.705,120,75.496,120z" style="fill:#142664;"/>
</g>

            </g>
        </g>
    </g>
    
    <!-- ITEM 8 -->
    <g>
        <defs>
            <clipPath id="clip-path-id-viewbox-item-8">
                <rect x="0.0" y="0.0" width="81.384" height="111.249"/>
            </clipPath>
        </defs>
        <g transform="translate(85.0 546.0) rotate(-44.10152781350944 29.0 39.5) scale(0.712670795242308 0.7101187426403833)">
            <g clip-path="url(#clip-path-id-viewbox-item-8)" transform="translate(-0.0 -0.0)">
                
<g>
	<path style="fill:#142664;" d="M61.374,99.948c0,0-0.9-0.1-2.6-0.1c-1.1,0-2.4,0-3.9,0.1c-1.2,0.1-2.5,0.3-3.9,0.5   c-0.9,0.1-1.7,0.3-2.7,0.5c-1.1-0.1-2.2,0.8-2.3,1.9s0.8,2.2,1.9,2.3c1,0.3,1.9,0.6,2.9,0.8c1.6,0.3,3.1,0.4,4.4,0.3   c1.7-0.1,3.2-0.5,4.4-0.8c1.9-0.6,2.8-1.2,2.8-1.2c1.1-0.3,1.8-1.4,1.5-2.6C63.574,100.348,62.474,99.648,61.374,99.948   L61.374,99.948z"/>
	<path style="fill:#FF2E93;" d="M9.519,98.001c-1.6-0.5-5.7-7.2-6.6-12.1C-1.034,65.46-0.322,45.533,1.27,34.955   C4.203,15.484,21.088,0.447,40.775,0.012c0.657-0.015-0.658-0.015,0-0.003c21.991,0.425,40.659,14.502,40.609,36.496   c-0.022,9.687-0.903,31.246-3.964,47.296c-2.4,12.3-10.9,15.9-13.1,16.5c0,0,0.1,3.9,0.1,6.2c0,1.6-1.1,3-2.7,3.3   c-6.7,0.9-25,2.8-49.3-0.1c-1.7-0.2-2.9-1.6-2.9-3.3C9.519,103.401,9.519,98.001,9.519,98.001L9.519,98.001z"/>
	<path style="fill:#142664;" d="M61.374,99.948c0,0-0.9-0.1-2.6-0.1c-1.1,0-2.4,0-3.9,0.1c-1.2,0.1-2.5,0.3-3.9,0.5   c-0.9,0.1-1.7,0.3-2.7,0.5c-1.1-0.1-2.2,0.8-2.3,1.9s0.8,2.2,1.9,2.3c1,0.3,1.9,0.6,2.9,0.8c1.6,0.3,3.1,0.4,4.4,0.3   c1.7-0.1,3.2-0.5,4.4-0.8c1.9-0.6,2.8-1.2,2.8-1.2c1.1-0.3,1.8-1.4,1.5-2.6C63.574,100.348,62.474,99.648,61.374,99.948   L61.374,99.948z"/>
</g>

            </g>
        </g>
    </g>
    
    <!-- ITEM 9 -->
    <g>
        <defs>
            <clipPath id="clip-path-id-viewbox-item-9">
                <rect x="0.0" y="0.0" width="91.185" height="78.395"/>
            </clipPath>
        </defs>
        <g transform="translate(72.0 549.0) rotate(-44.10152781350944 32.5 28.0) scale(0.7128365410977683 0.7143312711269851)">
            <g clip-path="url(#clip-path-id-viewbox-item-9)" transform="translate(-0.0 -0.0)">
                
<g>
	<path style="fill:#142664;" d="M10.021,77.784c-1.116,1.006-2.893,0.738-3.626-0.573C-4.803,57.174-3.248,16.237,26.929,4.801   c44.067-16.574,75.032,12.84,60.726,41.374c-0.323,0.645-1.302,0.443-1.346-0.277l-0.337-7.965   c-0.165-3.906-3.913-6.631-7.691-5.625c-19.638,5.228-21.107-8.016-34.053-6.308c-14.4,1.9-16.1,17.9-13,31.7   c1.6,7.5-9.5,7.7-8.1,0.6c1-5.1-0.1-10.8-5-10c-6.6,1.1-2.1,10.9-2.4,19.3C15.535,72.056,12.294,75.736,10.021,77.784z"/>
</g>

            </g>
        </g>
    </g>
    
    <!-- ITEM 10 -->
    <g>
        <defs>
            <clipPath id="clip-path-id-viewbox-item-10">
                <rect x="0.0" y="0.0" width="42.823" height="41.898"/>
            </clipPath>
        </defs>
        <g transform="translate(110.0 568.0) rotate(-44.10152781350944 16.0 15.5) scale(0.7472619853816874 0.7398921189555587)">
            <g clip-path="url(#clip-path-id-viewbox-item-10)" transform="translate(-0.0 -0.0)">
                
<g>
	<g>
		<g>
			<path style="fill:#142664;" d="M34.675,15.986c0,0-0.5,1.3-0.5,2.7c-0.1,1.4,0.3,2.8,0.3,2.8c-0.1,1.6,1.2,3,2.8,3.1     s3-1.2,3.1-2.8c0,0,0.5-1.3,0.5-2.7c0.1-1.4-0.3-2.8-0.3-2.8c0.1-1.6-1.2-3-2.8-3.1S34.775,14.386,34.675,15.986L34.675,15.986z"/>
		</g>
		<g>
			<path style="fill:#142664;" d="M3.975,15.386c0,0-0.5,1.3-0.5,2.7c-0.1,1.4,0.3,2.8,0.3,2.8c-0.1,1.6,1.2,3,2.8,3.1     s3-1.2,3.1-2.8c0,0,0.5-1.3,0.5-2.7c0.1-1.4-0.3-2.8-0.3-2.8c0.1-1.6-1.2-3-2.8-3.1S4.075,13.786,3.975,15.386L3.975,15.386z"/>
		</g>
	</g>
	<g>
		<path style="fill:#142664;" d="M42.773,4.274c0,0-0.118-0.345-0.399-0.874c-0.293-0.503-0.774-1.16-1.431-1.722    c-0.719-0.542-1.582-1.085-2.538-1.386c-0.541-0.157-1.145-0.269-1.717-0.223c-1.11-0.016-2.137,0.19-2.857,0.491    c-0.718,0.29-1.122,0.575-1.122,0.575c-0.403,0.193-0.234,0.988,0.23,1.659c0.526,0.753,1.028,1.224,1.161,1.179    c0,0,0.882-0.206,2.093,0.145c0.301,0.125,0.61,0.18,0.945,0.263c0.537,0.17,1.08,0.334,1.501,0.537    c0.394,0.2,0.682,0.387,0.881,0.518c0.178,0.132,0.297,0.213,0.297,0.213c-0.001,0.113,0.79-0.005,1.591-0.173    C42.406,5.263,43.005,4.671,42.773,4.274z"/>
	</g>
	<g>
		<path style="fill:#142664;" d="M2.989,5.674c0,0,0.097-0.083,0.26-0.221C3.439,5.32,3.713,5.123,4.13,4.949    c0.397-0.236,0.954-0.394,1.492-0.552c0.303-0.103,0.631-0.193,0.93-0.338C7.154,3.87,7.724,3.791,8.101,3.81    c0.381,0.009,0.613,0.053,0.613,0.053c0.13,0.108,0.677-0.474,1.16-1.135c0.54-0.744,0.597-1.467,0.255-1.691    c0,0-0.419-0.293-1.153-0.58C8.24,0.157,7.201-0.032,6.1,0.005C5.519-0.022,4.959,0.104,4.386,0.298    c-0.958,0.285-1.827,0.815-2.522,1.38C1.197,2.213,0.705,2.864,0.42,3.382C0.273,3.634,0.192,3.885,0.129,4.035    C0.072,4.191,0.041,4.277,0.041,4.277C-0.17,4.74,0.473,5.264,1.266,5.453C2.26,5.678,3.037,5.784,2.989,5.674z"/>
	</g>
	<g>
		<ellipse style="fill:#142664;" cx="22.245" cy="35.825" rx="6.7" ry="6.073"/>
	</g>
</g>

            </g>
        </g>
    </g>
    
    <!-- ITEM 11 -->
    <g>
        <defs>
            <clipPath id="clip-path-id-viewbox-item-11">
                <rect x="0.0" y="0.0" width="10.2" height="10.2"/>
            </clipPath>
        </defs>
        <g transform="translate(21.0 306.0) rotate(0.0 10.5 10.5) scale(2.058823529411765 2.058823529411765)">
            <g clip-path="url(#clip-path-id-viewbox-item-11)" transform="translate(-0.0 -0.0)">
                

<path d="M3.4,3.4c0.2-1.1,0.3-2,0.3-2C3.7,0.6,4.3,0,5.1,0s1.4,0.6,1.4,1.4c0,0,0.2,0.8,0.3,2h0.1  C8,3.5,8.8,3.7,8.8,3.7c0.8,0,1.4,0.6,1.4,1.4S9.6,6.5,8.8,6.5c0,0-0.8,0.2-1.9,0.3H6.8v0.1C6.7,8,6.5,8.8,6.5,8.8  c0,0.8-0.6,1.4-1.4,1.4S3.7,9.6,3.7,8.8c0,0-0.2-0.8-0.3-1.9V6.8c-1.1-0.2-2-0.3-2-0.3C0.6,6.5,0,5.9,0,5.1s0.6-1.4,1.4-1.4  C1.4,3.8,2.2,3.6,3.4,3.4L3.4,3.4z" style="fill:#FF2E93;"/>

            </g>
        </g>
    </g>
    
    <!-- ITEM 12 -->
    <g>
        <defs>
            <clipPath id="clip-path-id-viewbox-item-12">
                <rect x="0.0" y="0.0" width="7.0" height="7.0"/>
            </clipPath>
        </defs>
        <g transform="translate(76.0 339.0) rotate(0.0 7.0 7.0) scale(2.0 2.0)">
            <g clip-path="url(#clip-path-id-viewbox-item-12)" transform="translate(-0.0 -0.0)">
                

<path d="M1.9,1.9C2,1.6,2.1,1.4,2.1,1.4C2.1,0.6,2.7,0,3.5,0s1.4,0.6,1.4,1.4c0,0,0.1,0.2,0.2,0.5  C5.4,2,5.6,2.1,5.6,2.1C6.4,2.1,7,2.7,7,3.5S6.4,4.9,5.6,4.9c0,0-0.2,0.1-0.5,0.2C5,5.4,4.9,5.6,4.9,5.6C4.9,6.4,4.3,7,3.5,7  S2.1,6.4,2.1,5.6c0,0-0.1-0.2-0.2-0.5C1.6,5,1.4,4.9,1.4,4.9C0.6,4.9,0,4.3,0,3.5s0.6-1.4,1.4-1.4C1.4,2.1,1.6,2,1.9,1.9z" style="fill:#FF2E93;"/>

            </g>
        </g>
    </g>
    
    <!-- ITEM 13 -->
    <g>
        <defs>
            <clipPath id="clip-path-id-viewbox-item-13">
                <rect x="0.0" y="0.0" width="7.0" height="7.0"/>
            </clipPath>
        </defs>
        <g transform="translate(145.0 484.0) rotate(0.0 7.0 7.0) scale(2.0 2.0)">
            <g clip-path="url(#clip-path-id-viewbox-item-13)" transform="translate(-0.0 -0.0)">
                

<path d="M1.9,1.9C2,1.6,2.1,1.4,2.1,1.4C2.1,0.6,2.7,0,3.5,0s1.4,0.6,1.4,1.4c0,0,0.1,0.2,0.2,0.5  C5.4,2,5.6,2.1,5.6,2.1C6.4,2.1,7,2.7,7,3.5S6.4,4.9,5.6,4.9c0,0-0.2,0.1-0.5,0.2C5,5.4,4.9,5.6,4.9,5.6C4.9,6.4,4.3,7,3.5,7  S2.1,6.4,2.1,5.6c0,0-0.1-0.2-0.2-0.5C1.6,5,1.4,4.9,1.4,4.9C0.6,4.9,0,4.3,0,3.5s0.6-1.4,1.4-1.4C1.4,2.1,1.6,2,1.9,1.9z" style="fill:#FF2E93;"/>

            </g>
        </g>
    </g>
    
    <!-- ITEM 14 -->
    <g>
        <defs>
            <clipPath id="clip-path-id-viewbox-item-14">
                <rect x="0.0" y="0.0" width="15.2" height="15.2"/>
            </clipPath>
        </defs>
        <g transform="translate(52.0 472.0) rotate(0.0 14.0 14.0) scale(1.842105263157895 1.842105263157895)">
            <g clip-path="url(#clip-path-id-viewbox-item-14)" transform="translate(-0.0 -0.0)">
                

<path d="M5.8,5.8L5.8,5.8C6,3.3,6.2,1.4,6.2,1.4C6.2,0.6,6.8,0,7.6,0S9,0.6,9,1.4c0,0,0.3,2,0.4,4.4l0,0  c0.5,0,0.9,0.1,1.3,0.1c1.8,0.1,3.1,0.3,3.1,0.3c0.8,0,1.4,0.6,1.4,1.4S14.6,9,13.8,9c0,0-1.3,0.2-3.1,0.3c-0.4,0-0.8,0.1-1.3,0.1  c0,0.5-0.1,0.9-0.1,1.3C9.2,12.5,9,13.8,9,13.8c0,0.8-0.6,1.4-1.4,1.4s-1.4-0.6-1.4-1.4c0,0-0.2-1.3-0.3-3.1c0-0.4-0.1-0.9-0.1-1.3  l0,0C3.4,9.2,1.4,9,1.4,9C0.6,9,0,8.4,0,7.6s0.6-1.4,1.4-1.4C1.4,6.2,3.3,5.9,5.8,5.8L5.8,5.8L5.8,5.8z" style="fill:#FF2E93;"/>

            </g>
        </g>
    </g>
    
    <!-- ITEM 15 -->
    <g>
        <defs>
            <clipPath id="clip-path-id-viewbox-item-15">
                <rect x="0.0" y="0.0" width="15.2" height="15.2"/>
            </clipPath>
        </defs>
        <g transform="translate(271.0 646.0) rotate(0.0 14.0 14.0) scale(1.842105263157895 1.842105263157895)">
            <g clip-path="url(#clip-path-id-viewbox-item-15)" transform="translate(-0.0 -0.0)">
                

<path d="M5.8,5.8L5.8,5.8C6,3.3,6.2,1.4,6.2,1.4C6.2,0.6,6.8,0,7.6,0S9,0.6,9,1.4c0,0,0.3,2,0.4,4.4l0,0  c0.5,0,0.9,0.1,1.3,0.1c1.8,0.1,3.1,0.3,3.1,0.3c0.8,0,1.4,0.6,1.4,1.4S14.6,9,13.8,9c0,0-1.3,0.2-3.1,0.3c-0.4,0-0.8,0.1-1.3,0.1  c0,0.5-0.1,0.9-0.1,1.3C9.2,12.5,9,13.8,9,13.8c0,0.8-0.6,1.4-1.4,1.4s-1.4-0.6-1.4-1.4c0,0-0.2-1.3-0.3-3.1c0-0.4-0.1-0.9-0.1-1.3  l0,0C3.4,9.2,1.4,9,1.4,9C0.6,9,0,8.4,0,7.6s0.6-1.4,1.4-1.4C1.4,6.2,3.3,5.9,5.8,5.8L5.8,5.8L5.8,5.8z" style="fill:#FF2E93;"/>

            </g>
        </g>
    </g>
    
    <!-- ITEM 16 -->
    <g>
        <defs>
            <clipPath id="clip-path-id-viewbox-item-16">
                <rect x="0.0" y="0.0" width="7.0" height="7.0"/>
            </clipPath>
        </defs>
        <g transform="translate(344.0 641.0) rotate(0.0 7.5 7.5) scale(2.142857142857143 2.142857142857143)">
            <g clip-path="url(#clip-path-id-viewbox-item-16)" transform="translate(-0.0 -0.0)">
                

<path d="M1.9,1.9C2,1.6,2.1,1.4,2.1,1.4C2.1,0.6,2.7,0,3.5,0s1.4,0.6,1.4,1.4c0,0,0.1,0.2,0.2,0.5  C5.4,2,5.6,2.1,5.6,2.1C6.4,2.1,7,2.7,7,3.5S6.4,4.9,5.6,4.9c0,0-0.2,0.1-0.5,0.2C5,5.4,4.9,5.6,4.9,5.6C4.9,6.4,4.3,7,3.5,7  S2.1,6.4,2.1,5.6c0,0-0.1-0.2-0.2-0.5C1.6,5,1.4,4.9,1.4,4.9C0.6,4.9,0,4.3,0,3.5s0.6-1.4,1.4-1.4C1.4,2.1,1.6,2,1.9,1.9z" style="fill:#FF2E93;"/>

            </g>
        </g>
    </g>
    
    <!-- ITEM 17 -->
    <g>
        <defs>
            <clipPath id="clip-path-id-viewbox-item-17">
                <rect x="0.0" y="0.0" width="7.0" height="7.0"/>
            </clipPath>
        </defs>
        <g transform="translate(621.0 569.0) rotate(0.0 8.0 8.0) scale(2.2857142857142856 2.2857142857142856)">
            <g clip-path="url(#clip-path-id-viewbox-item-17)" transform="translate(-0.0 -0.0)">
                

<path d="M1.9,1.9C2,1.6,2.1,1.4,2.1,1.4C2.1,0.6,2.7,0,3.5,0s1.4,0.6,1.4,1.4c0,0,0.1,0.2,0.2,0.5  C5.4,2,5.6,2.1,5.6,2.1C6.4,2.1,7,2.7,7,3.5S6.4,4.9,5.6,4.9c0,0-0.2,0.1-0.5,0.2C5,5.4,4.9,5.6,4.9,5.6C4.9,6.4,4.3,7,3.5,7  S2.1,6.4,2.1,5.6c0,0-0.1-0.2-0.2-0.5C1.6,5,1.4,4.9,1.4,4.9C0.6,4.9,0,4.3,0,3.5s0.6-1.4,1.4-1.4C1.4,2.1,1.6,2,1.9,1.9z" style="fill:#FF2E93;"/>

            </g>
        </g>
    </g>
    
    <!-- ITEM 18 -->
    <g>
        <defs>
            <clipPath id="clip-path-id-viewbox-item-18">
                <rect x="0.0" y="0.0" width="7.0" height="7.0"/>
            </clipPath>
        </defs>
        <g transform="translate(677.0 491.0) rotate(0.0 6.5 6.5) scale(1.8571428571428572 1.8571428571428572)">
            <g clip-path="url(#clip-path-id-viewbox-item-18)" transform="translate(-0.0 -0.0)">
                

<path d="M1.9,1.9C2,1.6,2.1,1.4,2.1,1.4C2.1,0.6,2.7,0,3.5,0s1.4,0.6,1.4,1.4c0,0,0.1,0.2,0.2,0.5  C5.4,2,5.6,2.1,5.6,2.1C6.4,2.1,7,2.7,7,3.5S6.4,4.9,5.6,4.9c0,0-0.2,0.1-0.5,0.2C5,5.4,4.9,5.6,4.9,5.6C4.9,6.4,4.3,7,3.5,7  S2.1,6.4,2.1,5.6c0,0-0.1-0.2-0.2-0.5C1.6,5,1.4,4.9,1.4,4.9C0.6,4.9,0,4.3,0,3.5s0.6-1.4,1.4-1.4C1.4,2.1,1.6,2,1.9,1.9z" style="fill:#FF2E93;"/>

            </g>
        </g>
    </g>
    
    <!-- ITEM 19 -->
    <g>
        <defs>
            <clipPath id="clip-path-id-viewbox-item-19">
                <rect x="0.0" y="0.0" width="15.2" height="15.2"/>
            </clipPath>
        </defs>
        <g transform="translate(667.0 672.0) rotate(0.0 23.5 23.5) scale(3.0921052631578947 3.0921052631578947)">
            <g clip-path="url(#clip-path-id-viewbox-item-19)" transform="translate(-0.0 -0.0)">
                

<path d="M5.8,5.8L5.8,5.8C6,3.3,6.2,1.4,6.2,1.4C6.2,0.6,6.8,0,7.6,0S9,0.6,9,1.4c0,0,0.3,2,0.4,4.4l0,0  c0.5,0,0.9,0.1,1.3,0.1c1.8,0.1,3.1,0.3,3.1,0.3c0.8,0,1.4,0.6,1.4,1.4S14.6,9,13.8,9c0,0-1.3,0.2-3.1,0.3c-0.4,0-0.8,0.1-1.3,0.1  c0,0.5-0.1,0.9-0.1,1.3C9.2,12.5,9,13.8,9,13.8c0,0.8-0.6,1.4-1.4,1.4s-1.4-0.6-1.4-1.4c0,0-0.2-1.3-0.3-3.1c0-0.4-0.1-0.9-0.1-1.3  l0,0C3.4,9.2,1.4,9,1.4,9C0.6,9,0,8.4,0,7.6s0.6-1.4,1.4-1.4C1.4,6.2,3.3,5.9,5.8,5.8L5.8,5.8L5.8,5.8z" style="fill:#FF2E93;"/>

            </g>
        </g>
    </g>
    
    <!-- ITEM 20 -->
    <g>
        <defs>
            <clipPath id="clip-path-id-viewbox-item-20">
                <rect x="0.0" y="0.0" width="15.2" height="15.2"/>
            </clipPath>
        </defs>
        <g transform="translate(718.0 515.0) rotate(0.0 14.5 14.5) scale(1.9078947368421053 1.9078947368421053)">
            <g clip-path="url(#clip-path-id-viewbox-item-20)" transform="translate(-0.0 -0.0)">
                

<path d="M5.8,5.8L5.8,5.8C6,3.3,6.2,1.4,6.2,1.4C6.2,0.6,6.8,0,7.6,0S9,0.6,9,1.4c0,0,0.3,2,0.4,4.4l0,0  c0.5,0,0.9,0.1,1.3,0.1c1.8,0.1,3.1,0.3,3.1,0.3c0.8,0,1.4,0.6,1.4,1.4S14.6,9,13.8,9c0,0-1.3,0.2-3.1,0.3c-0.4,0-0.8,0.1-1.3,0.1  c0,0.5-0.1,0.9-0.1,1.3C9.2,12.5,9,13.8,9,13.8c0,0.8-0.6,1.4-1.4,1.4s-1.4-0.6-1.4-1.4c0,0-0.2-1.3-0.3-3.1c0-0.4-0.1-0.9-0.1-1.3  l0,0C3.4,9.2,1.4,9,1.4,9C0.6,9,0,8.4,0,7.6s0.6-1.4,1.4-1.4C1.4,6.2,3.3,5.9,5.8,5.8L5.8,5.8L5.8,5.8z" style="fill:#FF2E93;"/>

            </g>
        </g>
    </g>
    
    <!-- ITEM 21 -->
    <g>
        <defs>
            <clipPath id="clip-path-id-viewbox-item-21">
                <rect x="0.0" y="0.0" width="10.2" height="10.2"/>
            </clipPath>
        </defs>
        <g transform="translate(501.0 672.0) rotate(0.0 10.5 10.5) scale(2.058823529411765 2.058823529411765)">
            <g clip-path="url(#clip-path-id-viewbox-item-21)" transform="translate(-0.0 -0.0)">
                

<path d="M3.4,3.4c0.2-1.1,0.3-2,0.3-2C3.7,0.6,4.3,0,5.1,0s1.4,0.6,1.4,1.4c0,0,0.2,0.8,0.3,2h0.1  C8,3.5,8.8,3.7,8.8,3.7c0.8,0,1.4,0.6,1.4,1.4S9.6,6.5,8.8,6.5c0,0-0.8,0.2-1.9,0.3H6.8v0.1C6.7,8,6.5,8.8,6.5,8.8  c0,0.8-0.6,1.4-1.4,1.4S3.7,9.6,3.7,8.8c0,0-0.2-0.8-0.3-1.9V6.8c-1.1-0.2-2-0.3-2-0.3C0.6,6.5,0,5.9,0,5.1s0.6-1.4,1.4-1.4  C1.4,3.8,2.2,3.6,3.4,3.4L3.4,3.4z" style="fill:#FF2E93;"/>

            </g>
        </g>
    </g>
    
    <!-- ITEM 22 -->
    <g>
        <defs>
            <clipPath id="clip-path-id-viewbox-item-22">
                <rect x="0.0" y="0.0" width="15.2" height="15.2"/>
            </clipPath>
        </defs>
        <g transform="translate(710.0 270.0) rotate(0.0 21.0 21.0) scale(2.763157894736842 2.763157894736842)">
            <g clip-path="url(#clip-path-id-viewbox-item-22)" transform="translate(-0.0 -0.0)">
                

<path d="M5.8,5.8L5.8,5.8C6,3.3,6.2,1.4,6.2,1.4C6.2,0.6,6.8,0,7.6,0S9,0.6,9,1.4c0,0,0.3,2,0.4,4.4l0,0  c0.5,0,0.9,0.1,1.3,0.1c1.8,0.1,3.1,0.3,3.1,0.3c0.8,0,1.4,0.6,1.4,1.4S14.6,9,13.8,9c0,0-1.3,0.2-3.1,0.3c-0.4,0-0.8,0.1-1.3,0.1  c0,0.5-0.1,0.9-0.1,1.3C9.2,12.5,9,13.8,9,13.8c0,0.8-0.6,1.4-1.4,1.4s-1.4-0.6-1.4-1.4c0,0-0.2-1.3-0.3-3.1c0-0.4-0.1-0.9-0.1-1.3  l0,0C3.4,9.2,1.4,9,1.4,9C0.6,9,0,8.4,0,7.6s0.6-1.4,1.4-1.4C1.4,6.2,3.3,5.9,5.8,5.8L5.8,5.8L5.8,5.8z" style="fill:#FF2E93;"/>

            </g>
        </g>
    </g>
    
    <!-- ITEM 23 -->
    <g>
        <defs>
            <clipPath id="clip-path-id-viewbox-item-23">
                <rect x="0.0" y="0.0" width="7.0" height="7.0"/>
            </clipPath>
        </defs>
        <g transform="translate(673.0 99.0) rotate(0.0 7.5 7.5) scale(2.142857142857143 2.142857142857143)">
            <g clip-path="url(#clip-path-id-viewbox-item-23)" transform="translate(-0.0 -0.0)">
                

<path d="M1.9,1.9C2,1.6,2.1,1.4,2.1,1.4C2.1,0.6,2.7,0,3.5,0s1.4,0.6,1.4,1.4c0,0,0.1,0.2,0.2,0.5  C5.4,2,5.6,2.1,5.6,2.1C6.4,2.1,7,2.7,7,3.5S6.4,4.9,5.6,4.9c0,0-0.2,0.1-0.5,0.2C5,5.4,4.9,5.6,4.9,5.6C4.9,6.4,4.3,7,3.5,7  S2.1,6.4,2.1,5.6c0,0-0.1-0.2-0.2-0.5C1.6,5,1.4,4.9,1.4,4.9C0.6,4.9,0,4.3,0,3.5s0.6-1.4,1.4-1.4C1.4,2.1,1.6,2,1.9,1.9z" style="fill:#FF2E93;"/>

            </g>
        </g>
    </g>
    
    <!-- ITEM 24 -->
    <g>
        <defs>
            <clipPath id="clip-path-id-viewbox-item-24">
                <rect x="0.0" y="0.0" width="10.2" height="10.2"/>
            </clipPath>
        </defs>
        <g transform="translate(699.0 152.0) rotate(0.0 10.5 10.5) scale(2.058823529411765 2.058823529411765)">
            <g clip-path="url(#clip-path-id-viewbox-item-24)" transform="translate(-0.0 -0.0)">
                

<path d="M3.4,3.4c0.2-1.1,0.3-2,0.3-2C3.7,0.6,4.3,0,5.1,0s1.4,0.6,1.4,1.4c0,0,0.2,0.8,0.3,2h0.1  C8,3.5,8.8,3.7,8.8,3.7c0.8,0,1.4,0.6,1.4,1.4S9.6,6.5,8.8,6.5c0,0-0.8,0.2-1.9,0.3H6.8v0.1C6.7,8,6.5,8.8,6.5,8.8  c0,0.8-0.6,1.4-1.4,1.4S3.7,9.6,3.7,8.8c0,0-0.2-0.8-0.3-1.9V6.8c-1.1-0.2-2-0.3-2-0.3C0.6,6.5,0,5.9,0,5.1s0.6-1.4,1.4-1.4  C1.4,3.8,2.2,3.6,3.4,3.4L3.4,3.4z" style="fill:#FF2E93;"/>

            </g>
        </g>
    </g>
    
    <!-- ITEM 25 -->
    <g>
        <defs>
            <clipPath id="clip-path-id-viewbox-item-25">
                <rect x="0.0" y="0.0" width="15.2" height="15.2"/>
            </clipPath>
        </defs>
        <g transform="translate(639.0 124.0) rotate(0.0 14.0 14.0) scale(1.842105263157895 1.842105263157895)">
            <g clip-path="url(#clip-path-id-viewbox-item-25)" transform="translate(-0.0 -0.0)">
                

<path d="M5.8,5.8L5.8,5.8C6,3.3,6.2,1.4,6.2,1.4C6.2,0.6,6.8,0,7.6,0S9,0.6,9,1.4c0,0,0.3,2,0.4,4.4l0,0  c0.5,0,0.9,0.1,1.3,0.1c1.8,0.1,3.1,0.3,3.1,0.3c0.8,0,1.4,0.6,1.4,1.4S14.6,9,13.8,9c0,0-1.3,0.2-3.1,0.3c-0.4,0-0.8,0.1-1.3,0.1  c0,0.5-0.1,0.9-0.1,1.3C9.2,12.5,9,13.8,9,13.8c0,0.8-0.6,1.4-1.4,1.4s-1.4-0.6-1.4-1.4c0,0-0.2-1.3-0.3-3.1c0-0.4-0.1-0.9-0.1-1.3  l0,0C3.4,9.2,1.4,9,1.4,9C0.6,9,0,8.4,0,7.6s0.6-1.4,1.4-1.4C1.4,6.2,3.3,5.9,5.8,5.8L5.8,5.8L5.8,5.8z" style="fill:#FF2E93;"/>

            </g>
        </g>
    </g>
    
    <!-- ITEM 26 -->
    <g>
        <defs>
            <clipPath id="clip-path-id-viewbox-item-26">
                <rect x="0.0" y="0.0" width="7.0" height="7.0"/>
            </clipPath>
        </defs>
        <g transform="translate(516.0 189.0) rotate(0.0 7.5 7.5) scale(2.142857142857143 2.142857142857143)">
            <g clip-path="url(#clip-path-id-viewbox-item-26)" transform="translate(-0.0 -0.0)">
                

<path d="M1.9,1.9C2,1.6,2.1,1.4,2.1,1.4C2.1,0.6,2.7,0,3.5,0s1.4,0.6,1.4,1.4c0,0,0.1,0.2,0.2,0.5  C5.4,2,5.6,2.1,5.6,2.1C6.4,2.1,7,2.7,7,3.5S6.4,4.9,5.6,4.9c0,0-0.2,0.1-0.5,0.2C5,5.4,4.9,5.6,4.9,5.6C4.9,6.4,4.3,7,3.5,7  S2.1,6.4,2.1,5.6c0,0-0.1-0.2-0.2-0.5C1.6,5,1.4,4.9,1.4,4.9C0.6,4.9,0,4.3,0,3.5s0.6-1.4,1.4-1.4C1.4,2.1,1.6,2,1.9,1.9z" style="fill:#FF2E93;"/>

            </g>
        </g>
    </g>
    
    <!-- ITEM 27 -->
    <g>
        <defs>
            <clipPath id="clip-path-id-viewbox-item-27">
                <rect x="0.0" y="0.0" width="7.0" height="7.0"/>
            </clipPath>
        </defs>
        <g transform="translate(421.0 97.0) rotate(0.0 7.0 7.0) scale(2.0 2.0)">
            <g clip-path="url(#clip-path-id-viewbox-item-27)" transform="translate(-0.0 -0.0)">
                

<path d="M1.9,1.9C2,1.6,2.1,1.4,2.1,1.4C2.1,0.6,2.7,0,3.5,0s1.4,0.6,1.4,1.4c0,0,0.1,0.2,0.2,0.5  C5.4,2,5.6,2.1,5.6,2.1C6.4,2.1,7,2.7,7,3.5S6.4,4.9,5.6,4.9c0,0-0.2,0.1-0.5,0.2C5,5.4,4.9,5.6,4.9,5.6C4.9,6.4,4.3,7,3.5,7  S2.1,6.4,2.1,5.6c0,0-0.1-0.2-0.2-0.5C1.6,5,1.4,4.9,1.4,4.9C0.6,4.9,0,4.3,0,3.5s0.6-1.4,1.4-1.4C1.4,2.1,1.6,2,1.9,1.9z" style="fill:#FF2E93;"/>

            </g>
        </g>
    </g>
    
    <!-- ITEM 28 -->
    <g>
        <defs>
            <clipPath id="clip-path-id-viewbox-item-28">
                <rect x="0.0" y="0.0" width="15.2" height="15.2"/>
            </clipPath>
        </defs>
        <g transform="translate(365.0 107.0) rotate(0.0 14.0 14.0) scale(1.842105263157895 1.842105263157895)">
            <g clip-path="url(#clip-path-id-viewbox-item-28)" transform="translate(-0.0 -0.0)">
                

<path d="M5.8,5.8L5.8,5.8C6,3.3,6.2,1.4,6.2,1.4C6.2,0.6,6.8,0,7.6,0S9,0.6,9,1.4c0,0,0.3,2,0.4,4.4l0,0  c0.5,0,0.9,0.1,1.3,0.1c1.8,0.1,3.1,0.3,3.1,0.3c0.8,0,1.4,0.6,1.4,1.4S14.6,9,13.8,9c0,0-1.3,0.2-3.1,0.3c-0.4,0-0.8,0.1-1.3,0.1  c0,0.5-0.1,0.9-0.1,1.3C9.2,12.5,9,13.8,9,13.8c0,0.8-0.6,1.4-1.4,1.4s-1.4-0.6-1.4-1.4c0,0-0.2-1.3-0.3-3.1c0-0.4-0.1-0.9-0.1-1.3  l0,0C3.4,9.2,1.4,9,1.4,9C0.6,9,0,8.4,0,7.6s0.6-1.4,1.4-1.4C1.4,6.2,3.3,5.9,5.8,5.8L5.8,5.8L5.8,5.8z" style="fill:#FF2E93;"/>

            </g>
        </g>
    </g>
    
    <!-- ITEM 29 -->
    <g>
        <defs>
            <clipPath id="clip-path-id-viewbox-item-29">
                <rect x="0.0" y="0.0" width="7.0" height="7.0"/>
            </clipPath>
        </defs>
        <g transform="translate(303.0 88.0) rotate(0.0 7.0 7.0) scale(2.0 2.0)">
            <g clip-path="url(#clip-path-id-viewbox-item-29)" transform="translate(-0.0 -0.0)">
                

<path d="M1.9,1.9C2,1.6,2.1,1.4,2.1,1.4C2.1,0.6,2.7,0,3.5,0s1.4,0.6,1.4,1.4c0,0,0.1,0.2,0.2,0.5  C5.4,2,5.6,2.1,5.6,2.1C6.4,2.1,7,2.7,7,3.5S6.4,4.9,5.6,4.9c0,0-0.2,0.1-0.5,0.2C5,5.4,4.9,5.6,4.9,5.6C4.9,6.4,4.3,7,3.5,7  S2.1,6.4,2.1,5.6c0,0-0.1-0.2-0.2-0.5C1.6,5,1.4,4.9,1.4,4.9C0.6,4.9,0,4.3,0,3.5s0.6-1.4,1.4-1.4C1.4,2.1,1.6,2,1.9,1.9z" style="fill:#FF2E93;"/>

            </g>
        </g>
    </g>
    
    <!-- ITEM 30 -->
    <g>
        <defs>
            <clipPath id="clip-path-id-viewbox-item-30">
                <rect x="0.0" y="0.0" width="7.0" height="7.0"/>
            </clipPath>
        </defs>
        <g transform="translate(203.0 171.0) rotate(0.0 12.0 12.0) scale(3.4285714285714284 3.4285714285714284)">
            <g clip-path="url(#clip-path-id-viewbox-item-30)" transform="translate(-0.0 -0.0)">
                

<path d="M1.9,1.9C2,1.6,2.1,1.4,2.1,1.4C2.1,0.6,2.7,0,3.5,0s1.4,0.6,1.4,1.4c0,0,0.1,0.2,0.2,0.5  C5.4,2,5.6,2.1,5.6,2.1C6.4,2.1,7,2.7,7,3.5S6.4,4.9,5.6,4.9c0,0-0.2,0.1-0.5,0.2C5,5.4,4.9,5.6,4.9,5.6C4.9,6.4,4.3,7,3.5,7  S2.1,6.4,2.1,5.6c0,0-0.1-0.2-0.2-0.5C1.6,5,1.4,4.9,1.4,4.9C0.6,4.9,0,4.3,0,3.5s0.6-1.4,1.4-1.4C1.4,2.1,1.6,2,1.9,1.9z" style="fill:#FF2E93;"/>

            </g>
        </g>
    </g>
    
    <!-- ITEM 31 -->
    <g>
        <defs>
            <clipPath id="clip-path-id-viewbox-item-31">
                <rect x="0.0" y="0.0" width="15.2" height="15.2"/>
            </clipPath>
        </defs>
        <g transform="translate(143.0 81.0) rotate(0.0 14.0 14.0) scale(1.842105263157895 1.842105263157895)">
            <g clip-path="url(#clip-path-id-viewbox-item-31)" transform="translate(-0.0 -0.0)">
                

<path d="M5.8,5.8L5.8,5.8C6,3.3,6.2,1.4,6.2,1.4C6.2,0.6,6.8,0,7.6,0S9,0.6,9,1.4c0,0,0.3,2,0.4,4.4l0,0  c0.5,0,0.9,0.1,1.3,0.1c1.8,0.1,3.1,0.3,3.1,0.3c0.8,0,1.4,0.6,1.4,1.4S14.6,9,13.8,9c0,0-1.3,0.2-3.1,0.3c-0.4,0-0.8,0.1-1.3,0.1  c0,0.5-0.1,0.9-0.1,1.3C9.2,12.5,9,13.8,9,13.8c0,0.8-0.6,1.4-1.4,1.4s-1.4-0.6-1.4-1.4c0,0-0.2-1.3-0.3-3.1c0-0.4-0.1-0.9-0.1-1.3  l0,0C3.4,9.2,1.4,9,1.4,9C0.6,9,0,8.4,0,7.6s0.6-1.4,1.4-1.4C1.4,6.2,3.3,5.9,5.8,5.8L5.8,5.8L5.8,5.8z" style="fill:#FF2E93;"/>

            </g>
        </g>
    </g>
    
    <!-- ITEM 32 -->
    <g>
        <defs>
            <clipPath id="clip-path-id-viewbox-item-32">
                <rect x="0.0" y="0.0" width="15.2" height="15.2"/>
            </clipPath>
        </defs>
        <g transform="translate(40.0 151.0) rotate(0.0 17.0 17.0) scale(2.236842105263158 2.236842105263158)">
            <g clip-path="url(#clip-path-id-viewbox-item-32)" transform="translate(-0.0 -0.0)">
                

<path d="M5.8,5.8L5.8,5.8C6,3.3,6.2,1.4,6.2,1.4C6.2,0.6,6.8,0,7.6,0S9,0.6,9,1.4c0,0,0.3,2,0.4,4.4l0,0  c0.5,0,0.9,0.1,1.3,0.1c1.8,0.1,3.1,0.3,3.1,0.3c0.8,0,1.4,0.6,1.4,1.4S14.6,9,13.8,9c0,0-1.3,0.2-3.1,0.3c-0.4,0-0.8,0.1-1.3,0.1  c0,0.5-0.1,0.9-0.1,1.3C9.2,12.5,9,13.8,9,13.8c0,0.8-0.6,1.4-1.4,1.4s-1.4-0.6-1.4-1.4c0,0-0.2-1.3-0.3-3.1c0-0.4-0.1-0.9-0.1-1.3  l0,0C3.4,9.2,1.4,9,1.4,9C0.6,9,0,8.4,0,7.6s0.6-1.4,1.4-1.4C1.4,6.2,3.3,5.9,5.8,5.8L5.8,5.8L5.8,5.8z" style="fill:#FF2E93;"/>

            </g>
        </g>
    </g>
    
    <!-- ITEM 33 -->
    <g>
        <defs>
            <clipPath id="clip-path-id-viewbox-item-33">
                <rect x="0.0" y="0.0" width="49.237" height="49.238"/>
            </clipPath>
        </defs>
        <g transform="translate(587.0 481.0) rotate(0.0 24.5 24.5) scale(0.9951865467026829 0.995166334944555)">
            <g clip-path="url(#clip-path-id-viewbox-item-33)" transform="translate(-0.0 -0.0)">
                

<circle cx="24.619" cy="24.619" r="24.619" style="fill:#00E6B3;"/>

            </g>
        </g>
    </g>
    
    <!-- ITEM 34 -->
    <g>
        <defs>
            <clipPath id="clip-path-id-viewbox-item-34">
                <rect x="0.0" y="0.0" width="7.0" height="7.0"/>
            </clipPath>
        </defs>
        <g transform="translate(77.0 84.0) rotate(0.0 6.5 6.5) scale(1.8571428571428572 1.8571428571428572)">
            <g clip-path="url(#clip-path-id-viewbox-item-34)" transform="translate(-0.0 -0.0)">
                

<path d="M1.9,1.9C2,1.6,2.1,1.4,2.1,1.4C2.1,0.6,2.7,0,3.5,0s1.4,0.6,1.4,1.4c0,0,0.1,0.2,0.2,0.5  C5.4,2,5.6,2.1,5.6,2.1C6.4,2.1,7,2.7,7,3.5S6.4,4.9,5.6,4.9c0,0-0.2,0.1-0.5,0.2C5,5.4,4.9,5.6,4.9,5.6C4.9,6.4,4.3,7,3.5,7  S2.1,6.4,2.1,5.6c0,0-0.1-0.2-0.2-0.5C1.6,5,1.4,4.9,1.4,4.9C0.6,4.9,0,4.3,0,3.5s0.6-1.4,1.4-1.4C1.4,2.1,1.6,2,1.9,1.9z" style="fill:#FF2E93;"/>

            </g>
        </g>
    </g>
    
</svg>