<?xml version="1.0" encoding="UTF-8"?><svg version="1.1" xmlns="http://www.w3.org/2000/svg" xmlns:xlink="http://www.w3.org/1999/xlink" viewBox="0 0 1200 800" width="1200" height="800" x="0px" y="0px">
              
              <!-- ITEM 0 -->
<g transform="translate(193.0 48.0) scale(1.0307896879799614 1.031132885287775) rotate(0.0 291.039 191.05200000000002)">
<g transform="translate(-0.0 -0.0)">

<g>
	<rect x="28.052" y="26.052" fill="#D6D7D8" width="4" height="326"/>
</g>
<g>
	<rect x="29.053" y="351.052" fill="#D6D7D8" width="528" height="4"/>
</g>
<rect x="20.052" y="344.052" fill="#D6D7D8" width="20" height="20"/>
<polygon fill="#D6D7D8" points="0,30.052 30.052,0 60.104,30.052 "/>
<polygon fill="#D6D7D8" points="552.026,322 582.078,352.052 552.026,382.104 "/>
<g>
	<rect x="119.052" y="54.052" fill="#EEEEEE" width="4" height="258"/>
</g>
<g>
	<rect x="235.052" y="54.052" fill="#EEEEEE" width="4" height="258"/>
</g>
<g>
	<rect x="351.052" y="54.052" fill="#EEEEEE" width="4" height="258"/>
</g>
<g>
	<rect x="467.052" y="54.052" fill="#EEEEEE" width="4" height="258"/>
</g>
<g>
	<rect x="76.053" y="123.052" fill="#EEEEEE" width="464" height="4"/>
</g>
<g>
	<rect x="76.053" y="239.052" fill="#EEEEEE" width="464" height="4"/>
</g>

</g>
</g>

<!-- ITEM 1 -->
<g transform="translate(341.0 61.0) scale(0.5383333333333333 0.5383333333333333) rotate(0.0 300.0 300.0)">
<g transform="translate(-0.0 -0.0)">

<path fill="#E7F0FE" d="M432.134,300.847c-81.836,0-148.177-66.341-148.177-148.177c0-61.525,37.5-114.282,90.887-136.685  C348.05,7.792,319.608,3.369,290.131,3.369C130.358,3.369,0.835,132.891,0.835,292.664s129.522,289.299,289.296,289.299  s289.296-129.522,289.296-289.296c0-28.046-4.006-55.153-11.451-80.796C545.125,264.233,492.918,300.847,432.134,300.847z"/>
<path opacity="0.44" fill="#B0CDFC" enable-background="new    " d="M567.977,211.87c7.915-18.135,12.332-38.148,12.332-59.2  c0-81.836-66.341-148.177-148.177-148.177c-20.311,0-39.664,4.095-57.288,11.492C467.791,44.409,540.835,118.372,567.977,211.87z"/>
<path fill="#B0CDFC" d="M283.958,152.672c0,81.836,66.341,148.177,148.177,148.177c60.783,0,112.991-36.614,135.843-88.977  c-27.143-93.5-100.187-167.463-193.133-195.886C321.458,38.388,283.958,91.147,283.958,152.672z"/>
<path opacity="0.44" fill="#BBD4FD" enable-background="new    " d="M283.958,152.672c0,81.836,66.341,148.177,148.177,148.177  c60.783,0,112.991-36.614,135.843-88.977c-27.143-93.5-100.187-167.463-193.133-195.886  C321.458,38.388,283.958,91.147,283.958,152.672z"/>
<rect x="207.221" y="170.133" fill="#1D72D8" width="135.625" height="135.625"/>
<g opacity="0.47">
	<path fill="#428DFC" d="M461.08,299.746h38.098c-2.213,0.699-4.426,1.282-6.757,1.632h-24.466   C465.623,300.911,463.41,300.327,461.08,299.746z M452.458,296.365h55.341c1.165-0.466,2.213-1.048,3.261-1.632h-61.748   C450.245,295.317,451.41,295.901,452.458,296.365z M444.419,291.357h72.117c0.816-0.582,1.515-1.048,2.33-1.632h-76.194   C443.254,290.307,443.837,290.891,444.419,291.357z M440.109,286.463h82.836c0.582-0.582,1.282-1.048,1.864-1.632h-85.515   C439.526,285.298,439.758,285.881,440.109,286.463z M437.779,281.453h90.293c0.466-0.582,0.933-1.048,1.515-1.632h-92.274   C437.43,280.405,437.662,280.871,437.779,281.453z M436.497,276.443h95.769c0.466-0.582,0.816-1.048,1.165-1.632h-97.167   C436.38,275.395,436.497,275.978,436.497,276.443z M435.914,271.55h99.729c0.349-0.582,0.699-1.048,0.933-1.632H435.681   C435.798,270.385,435.798,270.968,435.914,271.55z M435.681,266.54H538.44c0.232-0.582,0.582-1.048,0.816-1.632H435.681   C435.681,265.492,435.681,265.959,435.681,266.54z M436.614,260.949c-0.117,0.232-0.117,0.349-0.232,0.582h104.273   c0.232-0.582,0.466-1.048,0.582-1.632H437.313C437.079,260.25,436.846,260.599,436.614,260.949z M443.371,256.054   c-0.349,0.232-0.699,0.349-1.048,0.466h99.963c0.117-0.582,0.232-1.048,0.466-1.632h-97.399   C444.768,255.355,444.069,255.705,443.371,256.054z M449.778,251.628h93.671c0.117-0.582,0.232-1.048,0.232-1.632h-92.274   C450.943,250.58,450.362,251.161,449.778,251.628z M454.323,246.735h89.944c0-0.582,0.117-1.048,0.117-1.632H455.49   C455.137,245.57,454.788,246.151,454.323,246.735z M457.468,241.725h87.03c0-0.582,0-1.048,0-1.632h-86.214   C458.051,240.56,457.702,241.142,457.468,241.725z M459.565,236.715h84.7c0-0.582-0.117-1.048-0.232-1.632h-84.001   C459.915,235.667,459.683,236.249,459.565,236.715z M460.846,231.822h82.603c-0.117-0.582-0.232-1.165-0.349-1.632h-82.02   C460.963,230.657,460.846,231.239,460.846,231.822z M461.312,226.812h80.74c-0.232-0.582-0.349-1.165-0.582-1.632h-80.156   C461.312,225.647,461.312,226.229,461.312,226.812z M539.023,220.171h-78.292c0.117,0.582,0.232,1.048,0.232,1.632h78.876   C539.605,221.336,539.255,220.753,539.023,220.171z M535.76,215.278h-76.311c0.117,0.582,0.349,1.048,0.466,1.632h77.01   C536.576,216.326,536.226,215.745,535.76,215.278z M531.333,210.268h-72.701c0,0.582,0,1.048,0.117,1.632h74.331   C532.382,211.316,531.8,210.735,531.333,210.268z M525.158,205.608c-0.232-0.117-0.349-0.232-0.582-0.349h-64.428   c-0.349,0.466-0.699,1.048-0.933,1.632h67.923C526.441,206.539,525.857,205.957,525.158,205.608z M510.478,200.366h-41.593   c-1.632,0.349-3.146,0.933-4.66,1.632h52.661C514.789,201.297,512.691,200.715,510.478,200.366z"/>
</g>
<path fill="#D6D7D8" d="M548.961,439.325l-21.57-28.085c-4.254,1.107-8.243,2.861-11.825,5.457l23.32,30.366  c1.309,1.702,0.988,4.144-0.715,5.451c-1.702,1.309-4.144,0.988-5.451-0.715l-22.886-29.8c-3.001,3.511-5.248,7.606-6.734,12.086  l19.309,25.143c1.309,1.702,0.988,4.144-0.715,5.451c-1.702,1.309-4.144,0.988-5.451-0.715l-15.166-19.747  c-1.053,13.091,3.283,27.894,13.111,40.691c0.229,0.3,0.463,0.592,0.697,0.887c-2.231,2.422-4.355,4.953-6.319,7.626  c-5.508,7.496-11.937,19.304-11.286,32.977l3.884-0.184c-0.598-12.534,5.4-23.499,10.536-30.49c1.772-2.41,3.69-4.71,5.71-6.925  c9.411,10.566,21.297,17.355,32.898,19.525L535.9,489.56c-1.309-1.702-0.988-4.144,0.715-5.451c1.702-1.309,4.144-0.988,5.451,0.715  l18.569,24.18c4.707-0.287,9.213-1.436,13.318-3.511l-21.577-28.096c-1.309-1.702-0.988-4.144,0.715-5.451  c1.702-1.309,4.144-0.988,5.451,0.715l21.873,28.481c3.277-2.875,5.875-6.453,7.948-10.502l-19.749-25.714  c-1.309-1.702-0.988-4.144,0.715-5.451c1.702-1.309,4.144-0.988,5.451,0.716l16.975,22.102c1.64-5.127,2.742-10.66,3.518-16.271  l-10.656-13.877c-1.309-1.702-0.988-4.144,0.715-5.451c1.702-1.309,4.144-0.988,5.451,0.715l5.675,7.39  c1.254-15.812,1.059-30.472,4.375-36.435c-8.525,0.823-22.309-3.263-37.054-6.116l7.345,9.566c1.309,1.702,0.988,4.144-0.715,5.451  c-1.702,1.309-4.144,0.988-5.451-0.715l-12.378-16.117c-5.581-0.69-11.146-0.995-16.47-0.592l19.011,24.755  c1.309,1.702,0.988,4.144-0.715,5.451C552.71,441.348,550.27,441.029,548.961,439.325z"/>
<rect x="309.675" y="75.767" transform="matrix(-0.975 0.2224 -0.2224 -0.975 641.1821 90.9273)" fill="#79AEFD" width="11.593" height="11.594"/>
<rect x="247.564" y="240.316" transform="matrix(-0.981 -0.1942 0.1942 -0.981 454.1836 536.835)" fill="#A1C3FC" width="11.68" height="11.68"/>
<polygon fill="#FFFFFF" points="163.563,39.105 211.505,50.446 161.142,73.388 177.172,54.32 "/>
<g>
	<path fill="#FFFFFF" d="M146.221,63.069c-0.36,0-0.697-0.22-0.83-0.576c-0.172-0.459,0.06-0.97,0.52-1.142   c16.395-6.138,24.757-8.702,41.712-9.341c0.528-0.048,0.901,0.364,0.92,0.851c0.02,0.489-0.364,0.901-0.851,0.92   c-16.697,0.63-24.955,3.164-41.159,9.231C146.428,63.051,146.324,63.069,146.221,63.069z"/>
</g>
<polygon fill="#FFFFFF" points="74.944,443.828 83.21,382.805 117.891,442.663 92.213,425.044 "/>
<g>
	<path fill="#FFFFFF" d="M106.686,463.479c-0.328,0-0.644-0.183-0.796-0.497c-9.624-19.625-13.827-29.705-16.682-50.687   c-0.066-0.484,0.275-0.931,0.759-0.998c0.488-0.08,0.933,0.273,0.998,0.759c2.82,20.726,6.984,30.703,16.516,50.147   c0.216,0.438,0.035,0.97-0.406,1.186C106.95,463.45,106.817,463.479,106.686,463.479z"/>
</g>
<polygon fill="#FFFFFF" points="354.865,102.491 348.733,126.347 337.75,100.95 347.128,109.147 "/>
<g>
	<path fill="#FFFFFF" d="M346.779,115.529c-0.482,0-0.878-0.387-0.887-0.871c-0.011-0.562-0.012-1.302-0.016-2.19   c-0.137-36.819-7.973-57.23-23.292-60.67c-0.479-0.108-0.779-0.582-0.672-1.059c0.11-0.479,0.58-0.775,1.061-0.67   c16.234,3.644,24.537,24.636,24.677,62.394c0.004,0.88,0.005,1.608,0.016,2.165c0.009,0.489-0.381,0.894-0.871,0.903   C346.788,115.529,346.782,115.529,346.779,115.529z"/>
</g>
<g>
	<rect x="430.212" y="216.364" fill="#1D72D8" width="16.807" height="16.807"/>
</g>
<path fill="#FFFFFF" d="M467.461,165.77h-57.207c0-16.533,13.403-29.935,29.935-29.935c16.533,0,29.935,13.403,29.935,29.935  H467.461z"/>
<path fill="#D62929" d="M476.333,165.77h-12.414c0-13.084-10.646-23.728-23.73-23.728s-23.728,10.644-23.728,23.728h-12.414  c0-19.93,16.214-36.142,36.142-36.142C460.121,129.628,476.333,145.841,476.333,165.77z"/>
<g>
	<polygon fill="#D62929" points="443.772,207.259 431.358,207.259 431.358,176.895 470.126,176.895 470.126,189.308    443.772,189.308  "/>
</g>
<g>
	<polygon fill="#1D72D8" points="5.691,78.788 5.691,89.615 20.827,78.788  "/>
	<polygon fill="#1D72D8" points="37.798,78.788 5.691,101.754 5.691,116.59 58.54,78.788  "/>
	<polygon fill="#1D72D8" points="86.319,78.788 75.512,78.788 5.691,128.729 5.691,143.565 86.319,85.894  "/>
	<polygon fill="#1D72D8" points="86.319,98.033 5.691,155.704 5.691,159.416 21.242,159.416 86.319,112.869  "/>
	<polygon fill="#1D72D8" points="86.319,125.008 38.213,159.416 58.955,159.416 86.319,139.845  "/>
	<polygon fill="#1D72D8" points="86.319,151.984 75.925,159.416 86.319,159.416  "/>
</g>
<circle fill="#FFFFFF" cx="527.072" cy="263.932" r="11.907"/>
<circle fill="#FFFFFF" cx="527.072" cy="307.357" r="11.907"/>
<g>
	<path fill="#A1C3FC" d="M377.405,182.428l-91.657,17.064c-0.573,3.029-0.885,6.15-0.885,9.346c0,2.713,0.223,5.373,0.638,7.97   l98.367-18.312C382.653,192.706,380.433,187.29,377.405,182.428z"/>
	<path fill="#A1C3FC" d="M335.592,158.813l-19.394,3.611c-10.585,4.27-19.373,12.052-24.92,21.909l75.517-14.058   C358.301,163.241,347.444,158.973,335.592,158.813z"/>
	<path fill="#A1C3FC" d="M367.082,247.148l-48.428,9.016c5.097,1.75,10.559,2.713,16.25,2.713   C347.16,258.876,358.382,254.463,367.082,247.148z"/>
	<path fill="#A1C3FC" d="M384.801,212.45l-95.168,17.716c2.717,5.756,6.501,10.906,11.094,15.203l79.238-14.751   C382.656,225.06,384.338,218.924,384.801,212.45z"/>
</g>
<polygon fill="#FFFFFF" points="443.167,460.077 401.96,477.758 426.362,433.693 424.97,456.323 "/>
<g>
	<path fill="#FFFFFF" d="M417.389,464.734l-0.763-1.603c5.76-2.735,10.394-7.537,14.877-12.18   c4.944-5.123,10.055-10.421,16.769-13.116c4.471-1.795,9.303-2.281,13.98-2.752c2.231-0.223,4.538-0.456,6.758-0.828   c3.873-0.649,13.191-2.956,16.087-10.327c1.371-3.492,1.037-7.328,0.685-11.391c-0.385-4.426-0.782-9.004,1.252-13.066   c4.091-8.165,13.99-8.589,23.565-8.998c9.438-0.404,18.355-0.784,22.162-7.858c1.765-3.275,1.74-7.076,1.717-11.102   c-0.023-3.808-0.046-7.746,1.559-11.282c3.659-8.062,13.852-10.16,19.602-10.69c1.632-0.151,3.286-0.25,4.941-0.348   c5.756-0.34,11.708-0.697,16.682-3.417l0.851,1.555c-5.326,2.914-11.479,3.279-17.429,3.632c-1.637,0.099-3.272,0.195-4.884,0.344   c-5.365,0.497-14.859,2.41-18.149,9.658c-1.444,3.181-1.422,6.755-1.399,10.538c0.027,4.07,0.051,8.278-1.928,11.953   c-4.286,7.961-14.13,8.381-23.65,8.787c-9.479,0.406-18.433,0.787-22.054,8.019c-1.811,3.616-1.451,7.746-1.071,12.119   c0.356,4.089,0.724,8.314-0.798,12.192c-2.274,5.785-8.631,9.949-17.445,11.428c-2.279,0.381-4.616,0.617-6.876,0.844   c-4.551,0.459-9.259,0.931-13.494,2.632c-6.363,2.554-11.119,7.484-16.154,12.701C428.187,456.938,423.438,461.86,417.389,464.734z   "/>
</g>
<rect x="554.816" y="27.818" transform="matrix(0.7596 0.6503 -0.6503 0.7596 156.6064 -356.5076)" fill="#FFFFFF" width="11.591" height="11.591"/>
<g>
	<polygon fill="#78A9EF" points="59.599,315.062 52.505,315.062 52.505,255.565 227.294,255.565 227.294,262.658 59.599,262.658     "/>
</g>
<line fill="none" stroke="#78A9EF" stroke-width="4" stroke-miterlimit="10" x1="88.266" y1="259.111" x2="88.266" y2="260.807"/>
<g>
	
		<rect x="69.535" y="257.065" transform="matrix(0.8194 0.5733 -0.5733 0.8194 172.1153 9.2947)" fill="#78A9EF" width="3.547" height="41.395"/>
</g>
<g>
	
		<rect x="88.184" y="257.066" transform="matrix(0.8194 0.5733 -0.5733 0.8194 175.4839 -1.396)" fill="#78A9EF" width="3.547" height="41.395"/>
</g>
<g>
	
		<rect x="99.204" y="254.959" transform="matrix(0.8194 0.5733 -0.5733 0.8194 182.9412 -5.991)" fill="#78A9EF" width="3.547" height="64.68"/>
</g>
<g>
	
		<rect x="117.007" y="254.726" transform="matrix(0.8194 0.5733 -0.5733 0.8194 186.7649 -16.0059)" fill="#78A9EF" width="3.547" height="67.266"/>
</g>
<g>
	
		<rect x="144.133" y="257.065" transform="matrix(0.8194 0.5733 -0.5733 0.8194 185.5901 -33.4705)" fill="#78A9EF" width="3.547" height="41.395"/>
</g>
<g>
	
		<rect x="162.783" y="257.065" transform="matrix(0.8194 0.5733 -0.5733 0.8194 188.9592 -44.1622)" fill="#78A9EF" width="3.547" height="41.395"/>
</g>
<g>
	
		<rect x="181.433" y="257.065" transform="matrix(0.8194 0.5733 -0.5733 0.8194 192.3281 -54.8534)" fill="#78A9EF" width="3.547" height="41.395"/>
</g>
<g>
	
		<rect x="250.669" y="91.773" transform="matrix(0.8067 0.5909 -0.5909 0.8067 108.3836 -129.6824)" fill="#78A9EF" width="3.547" height="18.151"/>
</g>
<g>
	
		<rect x="257.165" y="97.389" transform="matrix(0.8194 0.5733 -0.5733 0.8194 113.9043 -127.2903)" fill="#78A9EF" width="3.547" height="39.423"/>
</g>
<g>
	
		<rect x="265.17" y="115.485" transform="matrix(0.8194 0.5733 -0.5733 0.8194 124.0669 -129.1329)" fill="#78A9EF" width="3.547" height="33.639"/>
</g>
<g>
	
		<rect x="201.557" y="257.534" transform="matrix(0.8193 0.5734 -0.5734 0.8193 194.8535 -66.9045)" fill="#78A9EF" width="4" height="36.218"/>
</g>
<g>
	
		<rect x="238.916" y="412.272" transform="matrix(0.8192 0.5735 -0.5735 0.8192 283.1479 -70.0812)" fill="#78A9EF" width="27.621" height="3.547"/>
</g>
<g>
	
		<rect x="238.914" y="424.717" transform="matrix(0.8192 0.5735 -0.5735 0.8192 290.2853 -67.8304)" fill="#78A9EF" width="27.621" height="3.547"/>
</g>
<g>
	
		<rect x="224.777" y="432.071" transform="matrix(0.8192 0.5735 -0.5735 0.8192 293.351 -62.8478)" fill="#78A9EF" width="43.156" height="3.547"/>
</g>
<g>
	
		<rect x="223.214" y="443.949" transform="matrix(0.8192 0.5735 -0.5735 0.8192 300.0368 -60.2988)" fill="#78A9EF" width="44.883" height="3.547"/>
</g>
<g>
	
		<rect x="238.913" y="462.049" transform="matrix(0.8192 0.5735 -0.5735 0.8192 311.695 -61.0802)" fill="#78A9EF" width="27.621" height="3.547"/>
</g>
<g>
	
		<rect x="238.913" y="474.494" transform="matrix(0.8192 0.5735 -0.5735 0.8192 318.832 -58.83)" fill="#78A9EF" width="27.621" height="3.547"/>
</g>
<g>
	
		<rect x="238.913" y="486.939" transform="matrix(0.8192 0.5735 -0.5735 0.8192 325.9692 -56.58)" fill="#78A9EF" width="27.621" height="3.547"/>
</g>
<g>
	
		<rect x="242.058" y="500.466" transform="matrix(0.8193 0.5734 -0.5734 0.8193 333.9059 -54.9584)" fill="#78A9EF" width="24.165" height="3.547"/>
</g>
<g>
	<path fill="#78A9EF" d="M93.98,240.29l-2.304-2.697c19.362-16.541,40.198-31.217,62.234-43.855l-5.928-10.475l2.735-0.25   c12.556-1.149,25.088-3.408,37.252-6.718l1.202,3.325c-10.367,4.728-20.518,9.885-30.426,15.453l4.38,7.739   c3.203-6.022,7.753-11.258,13.302-15.273l2.078,2.873c-5.971,4.32-10.685,10.172-13.632,16.925l-1.421,3.254l-7.794-13.769   C133.818,209.353,113.168,223.899,93.98,240.29z M153.763,186.281l3.231,5.709c5.308-2.983,10.683-5.849,16.126-8.596   C166.711,184.641,160.243,185.607,153.763,186.281z"/>
</g>
<g>
	<path fill="#78A9EF" d="M152.396,432.542c-2.54-10.383-6.363-21.394-15.468-24.32l-12.095-3.885l12.696,0.426   c4.136,0.137,8.276,0.074,12.407-0.19c-1.649-26.479-1.429-53.117,0.665-79.514l3.536,0.28c-2.08,26.209-2.298,52.665-0.665,78.957   c5.224-0.481,10.422-1.282,15.555-2.401l4.024-0.88l-11.642,19.305l-3.038-1.832l7.432-12.323c-4.004,0.745-8.046,1.303-12.1,1.672   c0.552,8.049,1.277,16.083,2.178,24.088L152.396,432.542z M144.323,408.354c2.717,2.289,4.831,5.308,6.53,8.706   c-0.252-2.981-0.481-5.962-0.686-8.949C148.221,408.235,146.272,408.317,144.323,408.354z"/>
</g>
<g>
	<path fill="#78A9EF" d="M278.284,162.62l-31.49-24.008l-29.939,21.933l1.071-55.144l30.231-18.133l29.935,16.895L278.284,162.62z    M246.837,134.182l27.878,21.254l-0.161-49.198l-26.342-14.866l-26.777,16.062l-0.894,46.015L246.837,134.182z"/>
</g>
<g>
	<polygon fill="#78A9EF" points="247.204,181.484 216.751,160.299 218.776,157.389 247.31,177.239 276.132,159.263 278.01,162.273     "/>
</g>
<g>
	
		<rect x="245.289" y="89.468" transform="matrix(1 0.0044 -0.0044 1 0.4991 -1.086)" fill="#78A9EF" width="3.547" height="46.831"/>
</g>
<g>
	<path fill="#78A9EF" d="M261.038,343.57c-8.965,0-17.933-0.52-26.819-1.557c-1.945-0.227-3.339-1.988-3.111-3.933   c0.227-1.947,1.995-3.348,3.933-3.112c14.627,1.706,29.483,1.965,44.16,0.773c1.94-0.17,3.664,1.293,3.822,3.247   c0.16,1.953-1.295,3.662-3.247,3.822C273.555,343.318,267.296,343.57,261.038,343.57z"/>
</g>
<g>
	<path fill="#78A9EF" d="M316.774,479.592c-8.97,0-17.94-0.52-26.826-1.557c-1.945-0.227-3.339-1.988-3.111-3.933   c0.227-1.947,2.006-3.355,3.933-3.112c14.622,1.708,29.479,1.965,44.16,0.775c1.958-0.174,3.664,1.295,3.822,3.247   c0.16,1.953-1.295,3.664-3.247,3.822C329.282,479.34,323.027,479.592,316.774,479.592z"/>
</g>
<g>
	<path fill="#78A9EF" d="M316.774,497.395c-8.97,0-17.94-0.52-26.826-1.557c-1.945-0.227-3.339-1.988-3.111-3.933   c0.227-1.947,2.006-3.352,3.933-3.112c14.622,1.708,29.479,1.967,44.16,0.775c1.958-0.184,3.664,1.295,3.822,3.247   c0.16,1.953-1.295,3.664-3.247,3.822C329.282,497.142,323.027,497.395,316.774,497.395z"/>
</g>
<g>
	<path fill="#78A9EF" d="M257.195,365.126c-1.821,0-3.369-1.394-3.529-3.242c-1.344-15.59-1.098-31.377,0.732-46.923   c0.229-1.945,1.984-3.346,3.937-3.109c1.945,0.229,3.336,1.992,3.107,3.937c-1.773,15.07-2.013,30.373-0.709,45.484   c0.168,1.953-1.277,3.669-3.229,3.838C257.401,365.122,257.298,365.126,257.195,365.126z"/>
</g>
<g>
	<path fill="#78A9EF" d="M226.072,407.906c-22.584,0-46.589-5.976-46.589-17.051c0-11.075,24.005-17.051,46.589-17.051   s46.589,5.976,46.589,17.051C272.661,401.929,248.656,407.906,226.072,407.906z M226.072,377.348   c-25.365,0-43.042,7.118-43.042,13.504s17.677,13.505,43.042,13.505s43.042-7.118,43.042-13.505   C269.114,384.466,251.437,377.348,226.072,377.348z"/>
</g>
<g>
	<path fill="#78A9EF" d="M226.072,525.706c-22.584,0-46.589-5.976-46.589-17.051h3.547c0,6.388,17.677,13.504,43.042,13.504   s43.042-7.118,43.042-13.504h3.547C272.661,519.729,248.656,525.706,226.072,525.706z"/>
</g>
<g>
	<rect x="269.114" y="394.867" fill="#78A9EF" width="3.547" height="118.557"/>
</g>
<g>
	<rect x="178.463" y="391.202" fill="#78A9EF" width="3.547" height="118.557"/>
</g>
<path id="texture_6_-i1" fill="#D62929" d="M488.694,361.104c-0.36,0.117-0.58,0.426-0.463,0.786l0,0  c0.117,0.36,0.426,0.58,0.786,0.463l0,0c0.36-0.117,0.58-0.426,0.463-0.786l0,0C489.364,361.205,489.054,360.987,488.694,361.104  L488.694,361.104z M431.409,388.355c-0.309-0.218-0.67-0.103-0.888,0.207c-0.218,0.309-0.103,0.67,0.207,0.888l0,0  c0.309,0.218,0.67,0.103,0.888-0.207C432.003,388.96,431.719,388.574,431.409,388.355L431.409,388.355L431.409,388.355z   M445.666,396.015c-0.309-0.218-0.67-0.103-0.888,0.207c-0.218,0.309-0.103,0.67,0.207,0.888l0,0  c0.309,0.218,0.67,0.103,0.888-0.207l0,0C446.066,396.761,445.974,396.233,445.666,396.015L445.666,396.015z M458.663,366.977  c-0.218,0.309-0.27,0.644-0.153,1.006c0.309,0.218,0.644,0.27,1.005,0.152c0.218-0.309,0.27-0.644,0.128-0.837  C459.385,366.745,459.049,366.693,458.663,366.977z M468.894,379.676c-0.218,0.309-0.27,0.644-0.153,1.006  c0.309,0.218,0.644,0.27,1.005,0.153c0.218-0.309,0.27-0.644,0.128-0.837C469.615,379.444,469.114,379.368,468.894,379.676  L468.894,379.676z M429.017,420.896c-0.335-0.051-0.722,0.232-0.771,0.568c-0.051,0.335,0.232,0.722,0.568,0.771l0,0  c0.335,0.051,0.722-0.232,0.771-0.568l0,0C429.636,421.334,429.352,420.947,429.017,420.896z M445.197,422.678  c-0.335-0.051-0.722,0.232-0.771,0.568c-0.051,0.335,0.232,0.722,0.568,0.771c0.335,0.051,0.722-0.232,0.771-0.568l0,0  C445.816,423.116,445.533,422.729,445.197,422.678L445.197,422.678L445.197,422.678z M471.261,357.417  c-0.193,0.142-0.438,0.619-0.128,0.837c0.142,0.193,0.619,0.438,0.837,0.128c0.193-0.142,0.436-0.619,0.128-0.837l0,0  C471.983,357.183,471.648,357.131,471.261,357.417L471.261,357.417z M479.366,369.449c-0.193,0.142-0.436,0.619-0.128,0.837  c0.142,0.193,0.452,0.411,0.837,0.128c0.193-0.142,0.411-0.452,0.128-0.837l0,0C479.894,369.359,479.559,369.307,479.366,369.449  L479.366,369.449L479.366,369.449z M437.721,407.655c-0.335-0.051-0.695,0.066-0.747,0.401s0.09,0.528,0.401,0.747l0,0  c0.335,0.051,0.695-0.066,0.747-0.401l0,0C438.171,408.067,438.056,407.707,437.721,407.655L437.721,407.655z M451.855,410.496  c-0.335-0.051-0.695,0.066-0.747,0.401c-0.051,0.335,0.09,0.528,0.401,0.747l0,0c0.335,0.051,0.695-0.066,0.747-0.401l0,0  C452.305,410.91,452.19,410.548,451.855,410.496L451.855,410.496z M456.506,382.244c-0.309-0.218-0.67-0.103-0.888,0.207  s-0.103,0.67,0.208,0.888c0.309,0.218,0.67,0.103,0.888-0.207S456.815,382.462,456.506,382.244L456.506,382.244z M457.547,350.697  c-0.309-0.218-0.67-0.103-0.888,0.207c-0.218,0.309-0.103,0.67,0.207,0.888c0.309,0.218,0.67,0.103,0.888-0.207  C457.973,351.275,457.858,350.915,457.547,350.697L457.547,350.697z M471.38,360.004c-0.309-0.218-0.67-0.103-0.888,0.207  c-0.218,0.309-0.103,0.67,0.207,0.888c0.309,0.218,0.67,0.103,0.888-0.207C471.806,360.582,471.69,360.224,471.38,360.004  L471.38,360.004z M485.408,369.171c-0.309-0.218-0.67-0.103-0.888,0.207s-0.103,0.67,0.208,0.888  c0.309,0.218,0.67,0.103,0.888-0.207C485.665,369.724,485.549,369.364,485.408,369.171z M443.454,419.498  c-0.36,0.117-0.58,0.426-0.463,0.786c0.117,0.36,0.426,0.58,0.786,0.463s0.58-0.426,0.463-0.786  C444.293,419.626,443.816,419.383,443.454,419.498L443.454,419.498z M506.467,359.187c-0.284-0.387-0.619-0.438-1.005-0.152   M451.601,384.066c-0.335-0.051-0.722,0.232-0.771,0.568c-0.051,0.335,0.232,0.722,0.568,0.771s0.722-0.232,0.771-0.568l0,0  C452.22,384.504,451.936,384.117,451.601,384.066L451.601,384.066L451.601,384.066z M450.941,372.654  c-0.335-0.051-0.722,0.232-0.771,0.568c-0.051,0.335,0.232,0.722,0.568,0.771s0.695-0.066,0.771-0.568  C451.56,373.092,451.277,372.705,450.941,372.654L450.941,372.654z M467.152,376.499c-0.335-0.051-0.722,0.232-0.771,0.568  c-0.051,0.335,0.066,0.695,0.568,0.771c0.335,0.051,0.722-0.232,0.94-0.543C467.771,376.935,467.486,376.548,467.152,376.499  L467.152,376.499z M487.243,354.884c-0.309-0.218-0.67-0.103-0.888,0.207l0,0c-0.218,0.309-0.103,0.67,0.181,1.055  c0.309,0.218,0.67,0.103,1.055-0.181C487.669,355.462,487.553,355.102,487.243,354.884L487.243,354.884z M489.171,361.347  c-0.335-0.051-0.529,0.09-0.722,0.232c-0.051,0.335,0.09,0.528,0.232,0.722c0.335,0.051,0.528-0.09,0.722-0.232l0,0  C489.454,361.733,489.339,361.373,489.171,361.347L489.171,361.347L489.171,361.347z"/>
<path fill="#FFFFFF" d="M319.911,363.136h86.511l-41.044,41.044C365.378,404.18,319.911,361.93,319.911,363.136z"/>
<path fill="#FFFFFF" d="M369.574,401.646c0,0-40.818,37.93-40.818,36.848h77.666"/>
<polygon fill="#D62929" points="408.965,445.903 330.132,445.903 325.743,435.308 391.437,369.612 317.416,369.612 317.416,357.199   406.422,357.199 410.811,367.793 345.117,433.489 408.965,433.489 "/>

</g>
</g>

<!-- ITEM 2 -->
<g transform="translate(694.0 180.0) scale(1.226865671641791 1.2244444444444444) rotate(0.0 167.50000000000003 225.0)">
<g transform="translate(-0.0 -0.0)">

<path fill="#F2A19C" d="M23.293,113.429c-0.456,0.259-1.065-0.038-1.328-0.491c-0.264-0.453-0.275-1.005-0.278-1.53  c-0.029-4.264,0.695-7.937,0.666-12.201c-0.005-0.776,0.558-2.61,1.32-2.467c0.762,5.813,0.605,10.183,1.672,15.948  c-0.583-5.431-1.084-9.372-0.048-14.735c0.148-0.77,0.362-1.587,0.955-2.099c1.991,2.485,2.144,5.931,2.125,9.116  s-0.061,6.586,1.662,9.264c-2.494,1.681-6.243,1.09-8.101-1.276C21.694,114.792,23.536,111.596,23.293,113.429z"/>
<path fill="#F2A19C" d="M55.568,77.369c-0.973-1.57-2.785-2.385-4.528-2.995c-3.756-1.312-7.693-2.079-11.656-2.423  c-0.541-0.047-1.162-0.058-1.538,0.334c-0.364,0.378-0.338,1.015-0.064,1.462c0.274,0.448,0.739,0.741,1.21,0.975  c2.155,1.068,4.64,1.173,7.043,1.259c2.196,0.078,4.393,0.157,6.589,0.235c-3.945-0.014-7.89,0.26-11.796,0.818  c-1.653,0.237-3.523,0.679-4.308,2.155c1.622,1.28,3.935,0.999,5.972,0.653c3.732-0.634,7.465-1.39,11.215-1.905  c1.165-0.161,2.658-0.518,3.807-0.521c0.861-0.003,3.535,2.329,3.773,2.218c1.161-0.538-0.841,1.059,0.32,0.521  c-1.258-1.207-3.315-0.552-4.901,0.17c-4.253,1.936-8.507,3.871-12.758,5.806c-0.633,0.288-1.298,0.583-1.993,0.548  s-1.42-0.516-1.482-1.21c1.046-0.496,2.091-0.992,3.138-1.488c4.071-1.931,8.142-3.863,12.212-5.793"/>
<path fill="#FFBEB6" d="M20.945,101.235c-1.056-6.079-1.108-6.754-6.336-8.81c1.999,4.828,2.443,9.705,2.001,14.913  c-0.103,1.224-0.273,2.485,0.096,3.655c0.278,0.881,1.84,2.102,2.391,2.842c1.516,2.034,4.213,5.467,4.752,5.287  c2.376-0.793,17.613-1.111,19.008-1.057c11.054,0.416,7.979,1.528,18.961,2.858c-0.874-2.069-0.967-4.457-0.258-6.589  c-7.869-0.742-15.645-2.474-23.086-5.14c-4.212,2.22-8.861,3.608-13.6,4.06c-0.226-2.08-3.412-2.816-3.752-4.881  C20.994,107.601,21.078,102.002,20.945,101.235z"/>
<polygon fill="#E94A47" points="14.52,76.828 8.888,79.824 0,75.066 25.697,113.305 31.066,110.486 34.937,107.843 61.866,93.744   30.537,56.563 "/>
<polygon fill="#EEEEEE" points="32.824,106.432 12.936,80.176 33.285,58.309 56.849,91.101 "/>
<polygon fill="#D6D7D8" points="14.012,78.857 33.9,105.112 25.96,108.811 0.811,73.57 "/>
<path fill="#FFBEB6" d="M38.51,106.76c-6.353-3.607-8.709-8.841-15.717-10.901c-1.087-0.32-2.483-0.412-3.017,0.76  c-0.435,0.951-0.003,2.087,0.859,2.677c4.149,2.844,4.078,2.681,7.703,5.551c3.333,2.639,8.438,6.439,7.249,10.524l19.543,7.002  c-1.252-1.576-1.087-3.803-0.976-5.813s-0.031-4.326-1.613-5.568c-0.952-0.747-2.215-0.921-3.412-1.093  C45.451,109.37,41.738,108.594,38.51,106.76z"/>
<path fill="#FFBEB6" d="M55.706,77.71c3.515,1.416,5.917,2.661,6.336,6.431c-3.608,1.322-9.114,1.36-12.991,3.71  c-0.559,0.339-1.134,0.744-1.364,1.356c-0.435,1.162,0.553,1.926,1.77,2.158c1.217,0.233,2.569,0.27,3.74-0.142  c2.423-0.853,4.919-1.497,7.451-1.928c1.589-0.27,3.367-0.415,4.675,0.529c0.67,0.483,1.281,1.181,1.822,1.803  c0.798,0.917,1.791,1.648,2.904,2.115c1.544,0.649,10.012,12.323,11.616,14.274c1.14,1.388,2.982-6.444,3.96-7.136  C84.244,99.682,75.009,88.723,73.744,87.4c-3.383-3.541-5.911-5.713-8.321-9.98c-0.515-0.913-1.05-1.886-1.956-2.412  c-0.812-0.471-1.794-0.509-2.731-0.557c-7.841-0.406-11.766-2.251-19.113-5.026c-3.395-1.282,0.413,4.478,3.716,5.286  C48.645,75.52,52.551,76.438,55.706,77.71z"/>
<path fill="#1D72D8" d="M76.386,90.309c12.487,12.7,24.936,21.016,33.528,28.415c3.837-18.041,6.3-33.094,6.676-51.536  c0.119-5.855,0.076-12.118,3.319-16.991c3.243-4.873,11.249-6.943,14.851-2.33c2.301,2.947,1.853,7.119,1.289,10.816  c-1.075,7.063-2.151,14.125-3.226,21.189c-2.566,16.853-5.154,33.796-10.453,49.996c-0.528,1.614-1.177,3.344-2.611,4.252  c-0.805,0.51-1.768,0.695-2.709,0.833c-5.879,0.861-9.227-1.323-14.791-3.408c-12.437-4.66-15.208-8.322-22.705-19.295  c-4.09-5.986-12.433-10.259-13.332-13.745C67.141,98.185,73.161,90.992,76.386,90.309z"/>
<path fill="#F2A19C" d="M122.445,60.126c-1.828-3.783-4.382-5.271-6.722-8.761c-0.925-1.381-2.461-3.036-3.814-4  c-2.96-2.106-6.834-1.345-10.442-0.935c3.847-3.523,8.787-12.853,11.264-17.446c1.407,3.524,4.054,6.225,6.074,8.484  c3.27,3.656,7.621,6.131,11.889,8.543c-2.713,0.88-4.681,3.3-5.842,5.909C123.693,54.526,123.197,57.372,122.445,60.126z"/>
<path fill="#E94A47" d="M232.413,95.595c-3.696,0-26.401-12.688-26.401-12.688l-15.048,27.226l20.329,14.009L232.413,95.595z"/>
<path fill="#F7931E" d="M286.758,403.668c5.932-5.898,30.868-20.835,30.868-20.835s11.59,11.379,17.374,20.118  c-10.146,6.866-20.292,13.733-30.439,20.598c-17.053,11.539-20.981,14.424-39.25,26.216c-3.113-3.797-0.047-16.698,12.344-30.117  C280.392,416.683,283.896,406.514,286.758,403.668z"/>
<path fill="#151A4F" d="M245.736,257.066c-3.382-8.319-1.593-17.735,0.241-26.527c2.881-13.795,5.762-27.591,8.643-41.386  c3.307-15.839,6.63-32.103,4.106-48.087c-2.522-15.983-12.199-31.875-27.514-37.048c-6.068,8.159-12.361,16.886-13.27,27.018  c-0.427,4.772,0.382,9.556,0.671,14.339c0.711,11.811-1.77,23.554-4.237,35.126c-3.422,16.055-6.845,32.111-10.266,48.166  c-1.235,5.798-2.479,11.708-1.905,17.608c0.62,6.369,2.735,15.838,5.392,21.658c7.634,16.712,12.9,30.458,22.705,45.993  c6.281,9.951,13.045,26.133,19.537,35.948c12.747,19.276,31.066,33.636,38.545,55.508c6.249-6.753,30.097-20.617,30.097-20.617  s-2.64-15.331-13.195-29.548c-5.658-7.621-15.129-12.796-19.542-21.203c-2.969-5.656-2.623-11.217-2.927-17.599  c-0.658-13.781-6.629-27.242-16.4-36.969C259.153,272.213,249.599,266.565,245.736,257.066z"/>
<path fill="#23286B" d="M288.384,314.983c1.123,6.873-3.133,26.886-2.64,33.834c0.338,4.762,1.03,19.668,2.112,24.318  c4.593,19.754,1.974,34.417-8.448,51.808c-13.728,0-23.76,1.057-37.489-0.529c11.384-37.747-3.11-114.095-12.144-160.711  c-6.864-35.42,1.981-58.954-5.528-112.062c-0.544-1.333,17.672-17.722,13.381-15.95c-6.118,2.526-8.783,6.832-14.191,10.651  c-2.376-5.816-14.257-23.789-14.257-23.789l17.953-28.548c0,0,7.65,2.192,11.88,3.968c24.552,10.309,32.496,26.215,35.642,48.897  c8.025,57.87-2.918,97.682-1.056,112.604C277.296,289.079,283.632,285.907,288.384,314.983z"/>
<path fill="#FFBEB6" d="M94.018,50.032c4.058-0.319,10.705-1.5,13.248-4.684c3.434-4.299,6.274-10.643,7.098-16.084  c0.824-5.442-3.732-10.986-7.822-14.663c-3-2.697-7.012-3.903-10.884-5.031c-2.214,0.075-4.378,1.126-5.808,2.821  c-1.267,1.501-4.298,5.004-4.441,6.964c-0.748,10.287-6.725,15.709-6.274,17.413c2.793,2.938,2.547,2.28,5.341,5.217  C86.319,43.924,86.905,50.589,94.018,50.032z"/>
<path fill="#E94A47" d="M81.861,24.406c22.416-3.554,17.186,21.694,32.503,9.16c6.911-17.016-4.41-24.044-13.636-25.622  c-1.38-0.236-3.97-0.94-7.471,0c-2.802,0.751-5.737,2.903-6.725,3.931C83.948,14.563,82.235,21.04,81.861,24.406z"/>
<g>
	<path fill="#E94A47" d="M91.989,97.291c-0.217,0-0.424-0.127-0.515-0.341c-0.122-0.284,0.009-0.614,0.295-0.736   c0.137-0.06,0.184-0.464,0.024-1.041l-1.924-6.917c-0.251-0.902-0.534-1.924-0.432-2.974c0.132-1.349,0.878-2.516,1.565-3.503   c0.468-0.672,0.957-1.343,1.45-2.019c2.505-3.433,5.094-6.984,5.039-11.056c-0.032-2.358-0.945-4.557-1.911-6.885   c-0.99-2.385-2.014-4.852-1.992-7.499c0.02-2.54,0.999-4.892,1.947-7.168c0.484-1.164,0.984-2.367,1.343-3.566   c2.446-8.214-2.422-18.103-10.417-21.164c-0.289-0.111-0.433-0.435-0.323-0.724c0.111-0.289,0.433-0.433,0.723-0.324   c8.661,3.316,13.74,13.635,11.091,22.533c-0.374,1.256-0.886,2.487-1.381,3.677c-0.948,2.276-1.841,4.425-1.86,6.745   c-0.019,2.418,0.915,4.674,1.906,7.06c0.964,2.324,1.961,4.726,1.996,7.299c0.062,4.446-2.64,8.15-5.254,11.732   c-0.488,0.67-0.973,1.333-1.435,1.999c-0.606,0.871-1.263,1.891-1.369,2.971c-0.083,0.84,0.161,1.716,0.396,2.563l1.924,6.916   c0.325,1.168,0.077,2.055-0.664,2.373C92.137,97.276,92.063,97.291,91.989,97.291z"/>
</g>
<path fill="#E94A47" d="M166.65,21.299c-4.599-0.007-9.159-2.051-12.228-5.481c-1.183-1.322-2.197-2.873-3.747-3.736  c-4.042-2.249-8.667,1.262-12.746,3.441c-10.416,5.561-24.436,2.769-31.249-6.268c1.811-7.035,10.621-11.271,17.238-8.287  c4.994,2.252,8.36,7.688,13.727,8.781c7.318,1.492,13.769-5.81,21.234-6.001c10.196-0.259,17.493,12.523,27.648,11.569  c2.336-0.218,4.55-1.183,6.881-1.444c5.438-0.609,11.033,3.195,12.474,8.48c3.971-1.887,20-5.246,20-5.246s0.107,8.521-0.561,10.661  c-1.453,4.658-2.825,4.811-0.742,9.223c-3.302,2.306-7.675-0.9-9.986-4.201c-2.31-3.301-4.935-7.402-8.959-7.284  c-2.311,0.068-4.377,1.617-6.687,1.721c-4.572,0.204-7.369-4.928-11.417-7.064C181.249,16.848,173.751,21.31,166.65,21.299z"/>
<g>
	<path fill="#E94A47" d="M221.336,41.384c-3.113-0.374-6.606-0.795-10.279-6.407c-0.821-1.256-1.232-2.922-1.63-4.533   c-0.438-1.775-0.891-3.612-1.878-4.766c-0.17-0.199-0.335-0.534-0.529-0.922c-0.084-0.168-0.205-0.413-0.303-0.583   c-0.048-0.005-0.098-0.017-0.145-0.036c-0.271-0.11-0.4-0.419-0.29-0.69c0.102-0.252,0.311-0.409,0.559-0.418   c0.482-0.01,0.73,0.46,1.124,1.254c0.127,0.256,0.301,0.606,0.387,0.705c1.15,1.344,1.633,3.304,2.1,5.199   c0.394,1.594,0.766,3.101,1.489,4.207c3.402,5.199,6.497,5.572,9.491,5.933L221.336,41.384z"/>
</g>
<g>
	<path fill="#E94A47" d="M104.899,79.182c-0.085,0-0.17-0.019-0.251-0.06c-0.277-0.14-0.389-0.475-0.251-0.753   c2.061-4.116,4.101-8.846,2.231-12.861c-0.362-0.774-0.852-1.477-1.371-2.221c-0.619-0.886-1.258-1.802-1.665-2.856   c-1.116-2.888-0.236-5.882,0.614-8.778c0.644-2.192,1.309-4.458,1.085-6.63c-0.245-2.367-1.551-4.562-2.864-6.61   c-3.172-4.94-3.839-9.197-4.545-13.704c-0.442-2.824-0.9-5.747-1.984-9.108c-0.095-0.295,0.067-0.611,0.362-0.706   c0.297-0.095,0.61,0.067,0.705,0.362c1.112,3.446,1.576,6.411,2.025,9.279c0.717,4.579,1.336,8.531,4.38,13.272   c1.389,2.161,2.766,4.491,3.038,7.101c0.249,2.392-0.45,4.767-1.123,7.063c-0.834,2.841-1.623,5.524-0.644,8.056   c0.358,0.927,0.931,1.749,1.537,2.618c0.524,0.75,1.066,1.528,1.467,2.39c2.081,4.47-0.067,9.486-2.244,13.838   C105.301,79.068,105.103,79.182,104.899,79.182z"/>
</g>
<path fill="none" stroke="#23286B" stroke-linecap="round" stroke-miterlimit="10" d="M87.991,26.777  c-1.297,2.654-4.844,3.928-7.53,2.704"/>
<polygon fill="#23286B" points="142.759,6.801 149.314,10.391 145.728,16.953 139.174,13.363 "/>
<polygon fill="#23286B" points="105.68,3.599 112.235,7.189 108.65,13.751 102.095,10.162 "/>
<polygon fill="#23286B" points="182.324,12.341 188.878,15.93 185.293,22.493 178.738,18.903 "/>
<polygon fill="#23286B" points="204.957,18.72 211.512,22.31 207.926,28.873 201.372,25.283 "/>
<linearGradient id="SVGID_1_-i2" gradientUnits="userSpaceOnUse" x1="2784.2656" y1="-1038.889" x2="2736.9138" y2="-1359.8086" gradientTransform="matrix(0.1761 0 0 -0.1761 -320.3585 -133.9156)">
	<stop offset="0" style="stop-color:#428DFC"/>
	<stop offset="1" style="stop-color:#1D72D8"/>
</linearGradient>
<path fill="url(#SVGID_1_-i2)" d="M119.64,42.445c2.509-1.278,0.205-3.784,21.955,0.284c35.007,6.548,34.455,19.865,43.297,26.433  c8.184,6.079,8.453,6.943,13.993,8.987c10.032,3.701,11.881,5.023,21.649,8.458c-11.329,20.493-9.631,23.222-14.706,46.086  c-12.094-8.325-17.28-13.07-24.944-19.677c-5.834-5.028-0.229-1.605-22.743-13.899c-7.985-4.36-33.662-22.036-38.722-29.605  C111.734,58.018,110.963,46.867,119.64,42.445z"/>
<path fill="#FBB03B" d="M242.666,423.485c8.212-1.574,37.227-0.005,37.227-0.005s3.26,15.921,3.178,26.404  c-12.246,0.017-24.493,0.032-36.739,0.05c-20.582,0.027-25.45,0.223-47.182-0.223c-0.463-4.891,9.281-13.873,27.048-18.069  C230.12,430.715,238.702,424.243,242.666,423.485z"/>
<rect x="158.961" y="95.175" transform="matrix(-0.8771 -0.4804 0.4804 -0.8771 254.9888 258.9375)" fill="#FFFFFF" width="3.331" height="3.334"/>
<rect x="176.085" y="103.976" transform="matrix(-0.8771 -0.4804 0.4804 -0.8771 282.9052 283.683)" fill="#FFFFFF" width="3.331" height="3.334"/>
<linearGradient id="SVGID_2_-i2" gradientUnits="userSpaceOnUse" x1="2552.6431" y1="-1273.1936" x2="2065.2744" y2="-1269.3668" gradientTransform="matrix(0.1761 0 0 -0.1761 -320.3585 -133.9156)">
	<stop offset="0" style="stop-color:#428DFC"/>
	<stop offset="1" style="stop-color:#1D72D8"/>
</linearGradient>
<path fill="url(#SVGID_2_-i2)" d="M45.58,121.673c9.468,3.744,17.971,7.715,27.44,11.458c2.967,1.172,6.965,2.133,10.151,2.302  c7.862,0.416,12.079-0.551,16.977-2.303c2.678-4,16.504-21.369,23.478-44.329c1.917-6.314,11.269-22.928,6.236-36.515  c-3.91-10.556-11.338-7.947-14.551-5.109c-2.973,2.627-6.187,22.404-8.315,29.326c-6.047,19.677-14.881,36.683-16.252,38.029  c-2.232-0.223-9.641-2.036-11.44-2.219c-9.828-1.004-19.657-2.009-29.485-3.014C48.406,113.422,46.992,117.547,45.58,121.673z"/>
<path id="texture_5_-i2" fill="#FFFFFF" d="M258.272,166.837c0.096-0.225,0.039-0.461-0.185-0.557l0,0  c-0.224-0.096-0.461-0.039-0.557,0.185l0,0c-0.096,0.225-0.039,0.461,0.185,0.557l0,0  C257.938,167.118,258.176,167.06,258.272,166.837L258.272,166.837z M269.3,127.523c0.236-0.057,0.332-0.281,0.276-0.518  c-0.057-0.237-0.281-0.333-0.517-0.276l0,0c-0.236,0.057-0.332,0.281-0.276,0.518C268.755,127.554,269.063,127.58,269.3,127.523  L269.3,127.523L269.3,127.523z M259.562,131.192c0.236-0.057,0.332-0.281,0.276-0.518s-0.281-0.333-0.517-0.276l0,0  c-0.236,0.057-0.332,0.281-0.276,0.518l0,0C259.03,131.07,259.325,131.25,259.562,131.192L259.562,131.192z M268.126,149.79  c-0.057-0.237-0.199-0.404-0.421-0.5c-0.236,0.057-0.403,0.199-0.499,0.422c0.057,0.237,0.199,0.404,0.352,0.417  C267.934,150.237,268.101,150.096,268.126,149.79z M257.649,149.372c-0.057-0.237-0.197-0.404-0.421-0.5  c-0.236,0.057-0.403,0.199-0.499,0.422c0.057,0.237,0.199,0.404,0.352,0.417C257.457,149.82,257.707,149.609,257.649,149.372  L257.649,149.372z M254.554,112.584c0.167-0.141,0.192-0.448,0.052-0.614c-0.14-0.167-0.447-0.192-0.613-0.052l0,0  c-0.167,0.141-0.192,0.448-0.051,0.614l0,0C254.08,112.7,254.388,112.725,254.554,112.584z M246.848,119.675  c0.167-0.141,0.192-0.448,0.052-0.614c-0.14-0.167-0.447-0.192-0.613-0.052c-0.166,0.141-0.192,0.448-0.052,0.614l0,0  C246.374,119.791,246.682,119.816,246.848,119.675L246.848,119.675L246.848,119.675z M267.429,159.945  c0.013-0.154-0.115-0.473-0.352-0.417c-0.154-0.013-0.473,0.115-0.416,0.352c-0.013,0.154,0.115,0.473,0.352,0.417l0,0  C267.237,160.393,267.403,160.253,267.429,159.945L267.429,159.945z M258.175,158.78c0.013-0.154-0.115-0.473-0.352-0.417  c-0.154-0.013-0.391,0.045-0.416,0.352c-0.013,0.154,0.044,0.39,0.352,0.417l0,0C257.995,159.074,258.162,158.933,258.175,158.78  L258.175,158.78L258.175,158.78z M257.285,122.41c0.167-0.141,0.263-0.365,0.121-0.532c-0.14-0.167-0.294-0.18-0.531-0.121l0,0  c-0.167,0.141-0.263,0.365-0.121,0.532l0,0C256.895,122.455,257.118,122.551,257.285,122.41L257.285,122.41z M249.931,128.061  c0.167-0.141,0.263-0.365,0.121-0.532c-0.14-0.167-0.294-0.18-0.531-0.121l0,0c-0.167,0.141-0.263,0.365-0.121,0.532l0,0  C249.541,128.105,249.765,128.201,249.931,128.061L249.931,128.061z M261.647,142.279c0.236-0.057,0.332-0.281,0.276-0.518  c-0.057-0.237-0.281-0.333-0.517-0.276c-0.236,0.057-0.332,0.281-0.276,0.518C261.185,142.24,261.409,142.337,261.647,142.279  L261.647,142.279z M276.483,156.14c0.236-0.057,0.332-0.281,0.276-0.518c-0.057-0.237-0.281-0.333-0.517-0.276  c-0.236,0.057-0.332,0.281-0.276,0.518C276.022,156.103,276.245,156.199,276.483,156.14L276.483,156.14z M266.125,158.906  c0.236-0.057,0.332-0.281,0.276-0.518c-0.057-0.237-0.281-0.333-0.517-0.276c-0.236,0.057-0.332,0.281-0.276,0.518  C265.665,158.868,265.888,158.965,266.125,158.906L266.125,158.906z M255.755,161.826c0.236-0.057,0.332-0.281,0.276-0.518  c-0.057-0.237-0.281-0.333-0.517-0.276c-0.236,0.057-0.332,0.281-0.276,0.518C255.377,161.717,255.601,161.813,255.755,161.826z   M249.124,120.176c0.096-0.225,0.039-0.461-0.185-0.557c-0.224-0.096-0.461-0.039-0.557,0.185c-0.096,0.225-0.039,0.461,0.185,0.557  C248.708,120.528,249.028,120.401,249.124,120.176L249.124,120.176z M251.682,176.264c0.307,0.025,0.473-0.115,0.499-0.422   M262.838,139.129c0.167-0.141,0.192-0.448,0.052-0.614c-0.14-0.167-0.448-0.192-0.613-0.052c-0.167,0.141-0.192,0.448-0.052,0.614  l0,0C262.365,139.244,262.672,139.27,262.838,139.129L262.838,139.129L262.838,139.129z M268.643,143.641  c0.167-0.141,0.192-0.448,0.052-0.614c-0.14-0.167-0.447-0.192-0.613-0.052c-0.167,0.141-0.263,0.365-0.052,0.614  C268.169,143.757,268.475,143.782,268.643,143.641L268.643,143.641z M259.926,149.873c0.167-0.141,0.192-0.448,0.052-0.614  c-0.14-0.167-0.365-0.263-0.613-0.052c-0.167,0.141-0.192,0.448-0.135,0.685C259.454,149.988,259.761,150.013,259.926,149.873  L259.926,149.873z M261.897,168.765c0.236-0.057,0.332-0.281,0.276-0.518l0,0c-0.057-0.237-0.281-0.333-0.588-0.359  c-0.236,0.057-0.332,0.281-0.359,0.589C261.437,168.727,261.66,168.823,261.897,168.765L261.897,168.765z M257.951,166.964  c0.167-0.141,0.18-0.295,0.192-0.448c-0.14-0.167-0.294-0.18-0.447-0.192c-0.167,0.141-0.18,0.295-0.192,0.448l0,0  C257.644,166.938,257.868,167.034,257.951,166.964L257.951,166.964L257.951,166.964z"/>

</g>
</g>

<!-- ITEM 3 -->
<g transform="translate(369.0 152.0) scale(-1.1862745098039216 1.186) rotate(-0.0 102.0 250.00000000000003)">
<g transform="translate(-0.0 -0.0)">

<path fill="#FFBEB6" d="M25.377,56.755C35.908,71.692,49.54,84.43,65.155,93.924c2.137-12.879-6.221-25.209-15.856-34.017  S24.25,40.801,20.753,33.924c-4.75-9.341-9.39-21.596-15.652-31.183C3.415,0.16-1.079-1.267,0.238,1.519  C2.98,7.315,5.865,11.125,7.712,17.65c-0.7-0.815-2.154-0.096-2.473,0.93c-0.32,1.026-0.33,2.735-0.221,3.804  c0.546,5.382-2.916,8.56-1.049,13.639c1.622,4.412,6.743,6.078,10.957,8.16C20.016,46.698,22.105,52.113,25.377,56.755z"/>
<path fill="#E94A47" d="M86.069,196.836c1.209-4.873,3.28-9.482,5.34-14.06c1.011-2.247,2.022-4.493,3.033-6.74  c0.357-0.794,0.739-1.621,1.427-2.153c0.601-0.466,1.368-0.653,2.115-0.801c8.385-1.669,17.406,0.125,24.516,4.873  c-2.397,13.223-1.146,27.088,3.578,39.668c-12.689,5.391-26.335,8.52-40.107,9.194C84.803,216.835,83.648,206.593,86.069,196.836z"/>
<path fill="#D62929" d="M114.131,476.141c7.653-1.465,32.321-0.828,32.321-0.828s6.562,14.821,6.485,24.58  c-11.414,0.015-22.827,0.031-34.242,0.046c-19.182,0.026-23.72,0.206-43.974-0.206c-0.431-4.553,8.65-12.915,25.208-16.821  C103.587,482.049,110.437,476.846,114.131,476.141z"/>
<path fill="#151A4F" stroke="#000000" stroke-width="1.1158" stroke-miterlimit="10" d="M116.785,289.32  c-3.337-14.414-6.841-29.208-15.441-41.447c-0.897-1.276-2.014-2.621-3.599-2.849c-3.068-0.441-4.748,3.286-5.274,6.222  c-13.771,76.891,17.81,146.858,21.656,224.792c10.019,0.621,22.623,0.931,32.643,0.621c-2.731-16.146,4.315-20.288,3.556-36.63  c-0.692-14.888-6.278-20.215-7.434-35.077c-1.225-15.787,4.225-20.557,0.645-36.009C139.271,350.507,121.053,307.755,116.785,289.32  z"/>
<path fill="#FFBEB6" d="M169.071,195.633c-10.508,9.877-22.702,13.354-35.121,20.686c-6.384-0.219-5.534-0.681-8.188-2.586  c-3.303-2.37-2.688-6.612-3.318-10.63c-1.086-6.921-2.129-14.247,0.5-20.741c1.451,8.217,4.911,18.539,10.172,25.016  c12.332-10.817,25.498-23.307,39.149-32.404c0.188,6.478,0.376,12.957,0.563,19.435  C171.952,193.886,169.949,196.156,169.071,195.633z"/>
<path fill="#E94A47" d="M165.194,476.141c7.653-1.465,32.321-0.828,32.321-0.828s6.562,14.821,6.485,24.58  c-11.414,0.015-22.827,0.031-34.242,0.046c-19.182,0.026-23.72,0.206-43.974-0.206c-0.431-4.553,8.65-12.915,25.208-16.821  C154.65,482.049,161.5,476.846,165.194,476.141z"/>
<path fill="#428DFC" d="M163.668,177.518c-5.091-5.022-9.331-12.697-12.557-19.079c-5.656-11.187-11.449-23.954-7.344-35.798  c2.429-7.008,8.379-12.695,15.49-14.803c-0.531,11.033,3.253,21.771,7.108,32.124c5.477,14.707,10.442,26.18,16.425,40.687  c0.756,1.833,2,5.93,1.465,6.929c-2.318,4.347-4.559,7.644-8.38,8.471c-3.821,0.826-8.24,1.691-10.12,5.121  c-5.732-6.409-8.751-9.741-7.152-18.189C161.674,180.019,162.677,179.546,163.668,177.518z"/>
<linearGradient id="SVGID_1_-i3" gradientUnits="userSpaceOnUse" x1="1455.2886" y1="1616.8302" x2="1905.5323" y2="1616.8302" gradientTransform="matrix(0.1705 0 0 0.1705 -163.2512 -129.3091)">
	<stop offset="0" style="stop-color:#A1C3FC"/>
	<stop offset="1" style="stop-color:#81AEF2"/>
</linearGradient>
<path fill="url(#SVGID_1_-i3)" d="M157.207,124.226c-5.037,10.835-16.307,22.038-22.379,32.328  c-10.19,17.267-10.574,21.083-13.564,40.908c-12.141-0.852-25.787-2.678-36.388,2.269c6.361-28.979,13.148-47.643,20.36-65.561  s19.861-35.46,38.523-40.436c6.638-1.77,15.554-0.612,17.672,5.925C162.575,103.191,158.772,120.859,157.207,124.226z"/>
<path fill="#F2A19C" d="M143.862,95.165c2.908,4.04,11.473,3.879,13.251,1.293c-1.339-8.999,0.168-16.136,3.413-24.636  c-5.181,2.151-10.704,3.471-16.297,3.894C146.278,82.36,146.379,88.683,143.862,95.165z"/>
<path fill="#FFBEB6" d="M142.157,51.414c0.691,2.504-2.407,6.626-3.346,9.05c-2.153,5.552-1.421,12.961,3.709,15.985  c4.785,2.821,10.958,0.597,15.601-2.453c3.921-2.577,7.524-5.787,9.895-9.837c2.371-4.049,3.411-9.014,2.142-13.532  c-0.691-2.461-2.981-5.1-5.358-4.158c0.125-0.606-1.994-0.798-1.871-1.403c-4.738-0.846-7.572,0.025-11.339,3.021  c-2.31,1.836-3.139,2.882-5.953,1.989c-1.316-0.419-3.252-1.302-3.652,0.02C141.857,50.527,142.039,50.981,142.157,51.414z"/>
<path fill="#23286B" d="M174.603,49.393c-4.741-4.241-8.241-4.351-14.573-4.963c-0.191,6.441-4.576,11.853-7.964,17.335  s-5.856,12.752-2.306,18.13c1.944,2.945,5.463,4.853,6.548,8.211c0.926,2.867-0.201,5.943-0.459,8.946  c-0.847,9.894,3.556,19.969,11.225,26.277c0.497-5.196,6.852-7.582,12.071-7.496c5.218,0.086,10.818,1.368,15.401-1.128  c4.852-2.641-0.77-7.387,3.113-11.316c3.134-3.17-2.952-13.291-12.682-17.679c-4.774-2.153-5.232-12.771-4.035-17.871  C182.847,59.729,178.253,52.659,174.603,49.393z"/>
<linearGradient id="SVGID_2_-i3" gradientUnits="userSpaceOnUse" x1="1452.1256" y1="2744.5173" x2="2133.9141" y2="2744.5173" gradientTransform="matrix(0.1705 0 0 0.1705 -163.2512 -129.3091)">
	<stop offset="0" style="stop-color:#23286B"/>
	<stop offset="1" style="stop-color:#151A4F"/>
</linearGradient>
<path fill="url(#SVGID_2_-i3)" d="M138.59,273.088c-1.303-3.881-2.657-12.699-2.215-16.754c0.278-2.557,1.462-4.943,1.947-7.472  c1.003-5.226-1.033-10.501-3.034-15.455c-4.381-10.85-8.762-21.701-13.143-32.551c-12.747,0.825-25.408,2.879-37.731,6.121  c-1.955,96.552,33.192,184.203,80.708,269.309c7.846,0.597,24.281-1.248,32.127-0.651c1.001,0.076,6.526-16.617,0.707-35.298  c-1.992-6.396-11.898-19.473-14.135-25.795c-3.09-8.73-5.399-25.445-6.361-34.62c-2.362-22.504-17.655-25.479-22.553-47.601  C152.726,322.465,142.956,286.091,138.59,273.088z"/>
<g>
	<path fill="#23286B" d="M158.967,124.002c-0.093,0-0.189-0.023-0.276-0.075c-2.118-1.237-3.969-2.834-5.504-4.748   c-2.101-2.619-3.324-5.527-3.539-8.414c-0.205-2.771,0.514-5.477,1.211-8.095c0.621-2.334,1.263-4.747,1.212-7.137   c-0.075-3.576-1.907-8.008-3.679-12.294c-0.681-1.646-1.324-3.202-1.872-4.711c-2.199-6.063-0.611-9.816,2.064-14.848   c1.05-1.977,2.627-3.979,4.295-6.1c2.792-3.548,5.681-7.219,6.059-10.836c0.031-0.301,0.295-0.526,0.604-0.489   c0.302,0.031,0.521,0.301,0.489,0.604c-0.411,3.934-3.399,7.73-6.288,11.402c-1.638,2.081-3.184,4.047-4.188,5.936   c-2.962,5.57-3.893,8.742-2.001,13.957c0.539,1.487,1.177,3.032,1.855,4.667c1.811,4.379,3.684,8.91,3.762,12.691   c0.054,2.546-0.609,5.036-1.25,7.442c-0.704,2.646-1.368,5.146-1.177,7.731c0.25,3.366,1.932,6.105,3.3,7.809   c1.45,1.808,3.201,3.318,5.201,4.487c0.262,0.153,0.35,0.489,0.198,0.752C159.34,123.905,159.156,124.002,158.967,124.002z"/>
</g>
<g>
	<path fill="#23286B" d="M149.078,53.365c-0.039,0-0.078-0.004-0.117-0.013c-2.052-0.446-3.141-2.911-3.02-4.483   c0.023-0.301,0.28-0.553,0.59-0.505c0.302,0.023,0.528,0.288,0.506,0.59c-0.074,0.953,0.621,2.99,2.159,3.324   c0.296,0.064,0.484,0.357,0.42,0.654C149.558,53.19,149.33,53.365,149.078,53.365z"/>
</g>
<path fill="#FFBEB6" d="M124.318,200.218c-1.149-0.99-1.992-2.281-3.034-3.383c-1.409-1.492-3.158-2.612-4.887-3.716  c-0.728-0.465-1.48-0.941-2.327-1.101c-0.431-0.082-0.92-0.063-1.247,0.23c-0.734,0.662-0.012,1.843,0.699,2.53  c2.008,1.937,4.015,3.877,6.024,5.814c1.256,1.214,2.53,2.446,3.418,3.951c0.637,1.08,1.06,2.272,1.672,3.368  c0.464,0.828,1.07,1.627,1.929,2.03c0.859,0.404,2.013,0.297,2.597-0.451c-1.22-2.126-0.685-5.006-2.157-6.968  C126.292,201.574,125.215,200.989,124.318,200.218z"/>
<linearGradient id="SVGID_3_-i3" gradientUnits="userSpaceOnUse" x1="1225.4458" y1="1295.4288" x2="1706.2035" y2="1295.4288" gradientTransform="matrix(0.1705 0 0 0.1705 -163.2512 -129.3091)">
	<stop offset="0" style="stop-color:#A1C3FC"/>
	<stop offset="1" style="stop-color:#81AEF2"/>
</linearGradient>
<path fill="url(#SVGID_3_-i3)" d="M138.514,94.669c-18.123-3.563-46.946-7.915-53.929-9.826c-2.692-0.737-5.064-1.386-7.198-1.924  c-0.774-1.225-8.078-5.272-8.704-5.852c-3.858-3.963-6.898-6.017-10.632-10.037c-4.663,3.264-8.859,9.325-16.318,16.786  c3.852,3.83,13.645,5.289,17.869,8.704c1.966,1.589,4.118,3.172,6.529,3.764c1.26,0.689,2.643,1.36,4.18,1.994  c5.442,2.243,40.324,12.844,47.002,14.576c6.678,1.732,17.795,4.963,26.404,2.101c1.835-0.611,5.187-2.617,5.303-4.181  C149.353,106.329,146.393,96.219,138.514,94.669z"/>
<path id="texture-2_3_-i3" fill="#FFFFFF" d="M88.445,238.082c0.078-0.147,0.043-0.259-0.104-0.337  c-0.147-0.078-0.259-0.043-0.337,0.104c-0.078,0.147-0.043,0.259,0.104,0.337l0,0C88.256,238.264,88.333,238.116,88.445,238.082  L88.445,238.082z M87.86,213.165c0.112-0.035,0.19-0.183,0.155-0.294l0,0c-0.035-0.112-0.183-0.19-0.294-0.155l0,0  c-0.112,0.035-0.19,0.183-0.155,0.294C87.523,213.269,87.783,213.312,87.86,213.165L87.86,213.165L87.86,213.165z M87.333,225.755  c0.112-0.035,0.224-0.069,0.302-0.217c-0.035-0.112-0.069-0.224-0.216-0.302c-0.112,0.035-0.224,0.069-0.302,0.217  C87.073,225.712,87.22,225.79,87.333,225.755z M118.04,235.922c0.259,0.043,0.449-0.14,0.492-0.398  c0.043-0.259-0.14-0.449-0.398-0.492l0,0c-0.259-0.043-0.449,0.14-0.492,0.398C117.486,235.725,117.816,235.993,118.04,235.922  L118.04,235.922z M106.825,235.461c0.259,0.043,0.449-0.14,0.492-0.398c0.043-0.259-0.14-0.449-0.398-0.492  c-0.259-0.043-0.449,0.14-0.492,0.398l0,0C106.383,235.23,106.566,235.42,106.825,235.461z M95.575,234.887  c0.259,0.043,0.449-0.14,0.492-0.398l0,0c0.043-0.259-0.14-0.449-0.398-0.492l0,0c-0.259-0.043-0.449,0.14-0.492,0.398  C95.135,234.656,95.315,234.845,95.575,234.887z M107.508,257.518c0.043-0.259-0.027-0.483-0.208-0.673  c-0.259-0.043-0.483,0.027-0.673,0.208c-0.043,0.259,0.027,0.483,0.174,0.562C107.129,257.882,107.354,257.812,107.508,257.518  L107.508,257.518z M97.313,252.804c0.043-0.259-0.027-0.483-0.208-0.673c-0.259-0.043-0.483,0.027-0.673,0.208  c-0.043,0.259,0.027,0.483,0.174,0.562C96.898,253.056,97.235,252.951,97.313,252.804L97.313,252.804z M109.678,214.893  c0.224-0.069,0.379-0.364,0.309-0.587c-0.069-0.224-0.364-0.379-0.587-0.309l0,0c-0.224,0.069-0.379,0.364-0.309,0.587l0,0  C109.159,214.807,109.453,214.962,109.678,214.893z M99.042,218.682c0.224-0.069,0.379-0.364,0.309-0.587  c-0.069-0.224-0.364-0.379-0.587-0.309c-0.224,0.069-0.379,0.364-0.309,0.587l0,0C98.523,218.596,98.817,218.751,99.042,218.682  L99.042,218.682z M88.517,222.435c0.224-0.069,0.379-0.364,0.309-0.587l0,0c-0.069-0.224-0.364-0.379-0.587-0.309l0,0  c-0.224,0.069-0.379,0.364-0.309,0.587C88.034,222.461,88.294,222.504,88.517,222.435L88.517,222.435z M102.544,267.3  c0.078-0.147,0.086-0.519-0.174-0.562c-0.147-0.078-0.519-0.086-0.562,0.174c-0.078,0.147-0.086,0.519,0.174,0.562l0,0  C102.164,267.664,102.388,267.594,102.544,267.3z M108.257,225.791c0.224-0.069,0.415-0.251,0.345-0.476s-0.217-0.302-0.476-0.345  l0,0c-0.224,0.069-0.415,0.251-0.345,0.476l0,0C107.851,225.67,108.032,225.86,108.257,225.791L108.257,225.791z M98.577,228.298  c0.224-0.069,0.415-0.251,0.345-0.476c-0.069-0.224-0.216-0.302-0.476-0.345l0,0c-0.224,0.069-0.415,0.251-0.345,0.476l0,0  C98.171,228.178,98.353,228.368,98.577,228.298L98.577,228.298z M88.862,230.694c0.224-0.069,0.415-0.251,0.345-0.476l0,0  c-0.069-0.224-0.216-0.302-0.476-0.345l0,0c-0.224,0.069-0.415,0.251-0.345,0.476l0,0C88.491,230.686,88.639,230.763,88.862,230.694  L88.862,230.694z M104.231,247.338c0.259,0.043,0.449-0.14,0.492-0.398c0.043-0.259-0.14-0.449-0.398-0.492  c-0.259-0.043-0.449,0.14-0.492,0.398C103.79,247.106,104.006,247.408,104.231,247.338L104.231,247.338z M94.336,245.976  c0.259,0.043,0.449-0.14,0.526-0.287l0,0c0.043-0.259-0.14-0.449-0.398-0.492c-0.259-0.043-0.449,0.14-0.492,0.398  C93.895,245.743,94.077,245.933,94.336,245.976L94.336,245.976z M95.396,210.091c0.19-0.183,0.267-0.329,0.086-0.519l0,0  c-0.183-0.19-0.441-0.233-0.519-0.086l0,0c-0.19,0.183-0.233,0.441-0.05,0.63C94.911,210.118,95.17,210.161,95.396,210.091  L95.396,210.091L95.396,210.091z M87.391,216.017c0.19-0.183,0.233-0.441,0.05-0.63c-0.183-0.189-0.441-0.233-0.63-0.05  c-0.19,0.183-0.233,0.441-0.086,0.519C86.941,216.156,87.201,216.199,87.391,216.017C87.277,216.052,87.391,216.017,87.391,216.017  L87.391,216.017z M113.136,267.34c0.259,0.043,0.449-0.14,0.492-0.398c0.043-0.259-0.14-0.449-0.398-0.492  c-0.259-0.043-0.449,0.14-0.492,0.398C112.694,267.107,112.876,267.297,113.136,267.34L113.136,267.34z M101.72,265.834  c0.259,0.043,0.449-0.14,0.492-0.398c0.043-0.259-0.14-0.449-0.398-0.492c-0.259-0.043-0.449,0.14-0.492,0.398  C101.244,265.488,101.46,265.791,101.72,265.834L101.72,265.834z M101.093,220.137c0.19-0.183,0.233-0.441,0.05-0.63  c-0.183-0.19-0.441-0.233-0.63-0.05c-0.19,0.183-0.233,0.441-0.05,0.63C100.531,220.311,100.903,220.319,101.093,220.137  L101.093,220.137z M91.836,227.188c0.19-0.183,0.233-0.441,0.05-0.63c-0.183-0.19-0.441-0.233-0.63-0.05  c-0.19,0.183-0.233,0.441-0.05,0.63C91.352,227.216,91.646,227.371,91.836,227.188L91.836,227.188z M106.739,244.715  c0.224-0.069,0.379-0.364,0.309-0.587c-0.069-0.224-0.364-0.379-0.587-0.309c-0.224,0.069-0.379,0.364-0.309,0.587l0,0  C106.221,244.631,106.515,244.785,106.739,244.715L106.739,244.715L106.739,244.715z M95.601,247.675  c0.224-0.069,0.379-0.364,0.309-0.587l0,0c-0.069-0.224-0.364-0.379-0.587-0.309l0,0c-0.224,0.069-0.379,0.364-0.309,0.587  C95.082,247.589,95.264,247.78,95.601,247.675L95.601,247.675z M110.607,251.637c0.224-0.069,0.379-0.364,0.309-0.587  c-0.069-0.224-0.364-0.379-0.587-0.309c-0.224,0.069-0.415,0.251-0.309,0.587C110.089,251.552,110.383,251.707,110.607,251.637  L110.607,251.637z M99.328,254.148c0.224-0.069,0.379-0.364,0.309-0.587c-0.069-0.224-0.251-0.415-0.587-0.309  c-0.224,0.069-0.379,0.364-0.422,0.623C98.81,254.062,99.104,254.217,99.328,254.148L99.328,254.148z M95.959,232.555  c0.19-0.183,0.233-0.441,0.162-0.666c-0.183-0.19-0.441-0.233-0.666-0.162c-0.19,0.183-0.233,0.441-0.162,0.666l0,0  C95.362,232.616,95.734,232.623,95.959,232.555L95.959,232.555L95.959,232.555z"/>
<g>
	<path fill="#23286B" d="M138.459,108.788c-0.131,0-0.261-0.046-0.366-0.14c-0.227-0.203-0.245-0.549-0.043-0.775   c3.313-3.705,5.607-7.214,7.013-10.726c1.695-4.233,2.092-8.66,1.121-12.465c-0.324-1.267-0.812-2.532-1.284-3.754   c-0.707-1.828-1.436-3.72-1.671-5.727c-0.728-6.234,3.396-11.887,7.07-16.115l0.974-1.115c3.558-4.058,7.237-8.255,8.086-13.434   c0.048-0.299,0.329-0.51,0.631-0.452c0.299,0.048,0.502,0.332,0.453,0.63c-0.9,5.489-4.684,9.806-8.344,13.98l-0.971,1.112   c-3.525,4.057-7.486,9.459-6.807,15.267c0.219,1.869,0.892,3.613,1.603,5.459c0.483,1.253,0.983,2.547,1.324,3.878   c1.029,4.029,0.616,8.698-1.165,13.145c-1.454,3.634-3.815,7.248-7.215,11.05C138.759,108.726,138.609,108.788,138.459,108.788z"/>
</g>

</g>
</g>

<!-- ITEM 4 -->
<g transform="translate(670.0 345.0) scale(1.2789473684210526 1.28) rotate(0.0 95.0 150.0)">
<g transform="translate(-0.0 -0.0)">

<g id="chair-i4">
	
		<linearGradient id="back_leg_1_-i4" gradientUnits="userSpaceOnUse" x1="5918.2808" y1="3688.6494" x2="5884.1396" y2="3269.1897" gradientTransform="matrix(0.0741 0 0 0.0741 -276.8441 -187.4563)">
		<stop offset="0" style="stop-color:#e94a47"/>
		<stop offset="1" style="stop-color:#d73f43"/>
	</linearGradient>
	<polygon id="back_leg-i4" fill="url(#back_leg_1_-i4)" points="190,300 183.542,300 144.908,13.116 159.663,13.116 159.663,12.29  "/>
	
		<linearGradient id="front_leg_1_-i4" gradientUnits="userSpaceOnUse" x1="4106.5586" y1="3608.1577" x2="4145.5791" y2="2998.4758" gradientTransform="matrix(0.0741 0 0 0.0741 -276.8441 -187.4563)">
		<stop offset="0" style="stop-color:#e94a47"/>
		<stop offset="1" style="stop-color:#d73f43"/>
	</linearGradient>
	<polygon id="front_leg-i4" fill="url(#front_leg_1_-i4)" points="45.092,13.116 6.458,300 0,300 30.294,12.536 30.294,13.116  "/>
	
		<linearGradient id="top_1_-i4" gradientUnits="userSpaceOnUse" x1="4144.9434" y1="2618.2563" x2="5890.8486" y2="2618.2563" gradientTransform="matrix(0.0741 0 0 0.0741 -276.8441 -187.4563)">
		<stop offset="0" style="stop-color:#e94a47"/>
		<stop offset="1" style="stop-color:#d73f43"/>
	</linearGradient>
	<rect id="top-i4" x="30.296" y="0" fill="url(#top_1_-i4)" width="129.372" height="13.113"/>
</g>

</g>
</g>

              </svg>