<?xml version="1.0" encoding="UTF-8"?><svg version="1.1" xmlns="http://www.w3.org/2000/svg" xmlns:xlink="http://www.w3.org/1999/xlink" viewBox="0 0 1500 1500" width="1500" height="1500" x="0px" y="0px">
              
              <!-- ITEM 0 -->
<g transform="translate(214.0 160.0) rotate(39.26918111149207 268.0 298.0) scale(3.4097993562095246 3.4052667363717912)">
<g transform="translate(1570.315 -703.991)">
<g clip-path="url(#clipPathId-collage-item-0)">
		<defs>
			<clipPath id="clipPathId-collage-item-0">
				<rect x="-1570.315" y="703.991" width="157.194" height="175.023"/>
			</clipPath>
		</defs>

<g>
	<path fill="#151A4F" d="M-1565.164,760.843l0.029,0.058c0.011-0.03,0.024-0.059,0.036-0.089L-1565.164,760.843z"/>
	<path fill="#151A4F" d="M-1531.471,718.593c-0.356,0.236-0.71,0.474-1.062,0.715l1.137-0.562L-1531.471,718.593z"/>
	<path fill="#151A4F" d="M-1512.817,709.538l-0.146-0.296c-2.364,0.859-4.672,1.83-6.936,2.881l0.368,0.743L-1512.817,709.538z"/>
	<path fill="#151A4F" d="M-1555.601,742.462c-1.404,2.067-2.708,4.206-3.936,6.394l5.705-2.827L-1555.601,742.462z"/>
	<polygon fill="#151A4F" points="-1541.963,740.151 -1545.294,733.439 -1538.578,730.111 -1535.248,736.822  "/>
	<polygon fill="#151A4F" points="-1523.388,730.943 -1526.719,724.232 -1520.003,720.904 -1516.673,727.615  "/>
	<polygon fill="#151A4F" points="-1504.81,721.737 -1508.14,715.025 -1501.425,711.697 -1498.094,718.408  "/>
	<path fill="#151A4F" d="M-1486.236,712.527l6.715-3.328l-2.572-5.184c-0.311-0.003-0.617-0.024-0.93-0.024   c-1.01,0-2.013,0.042-3.015,0.077l-3.528,1.748L-1486.236,712.527z"/>
	<path fill="#151A4F" d="M-1555.118,764.225l-3.33-6.711l-6.651,3.297c-0.011,0.03-0.024,0.059-0.036,0.089l3.301,6.653   L-1555.118,764.225z"/>
	<polygon fill="#151A4F" points="-1543.253,758.349 -1546.583,751.638 -1539.868,748.309 -1536.538,755.021  "/>
	<polygon fill="#151A4F" points="-1524.674,749.142 -1528.004,742.431 -1521.289,739.102 -1517.958,745.814  "/>
	<polygon fill="#151A4F" points="-1506.095,739.934 -1509.426,733.223 -1502.71,729.894 -1499.38,736.606  "/>
	<polygon fill="#151A4F" points="-1487.521,730.727 -1490.851,724.016 -1484.136,720.687 -1480.805,727.399  "/>
	<polygon fill="#151A4F" points="-1562.31,775.59 -1558.98,782.301 -1565.695,785.629 -1569.025,778.918  "/>
	<polygon fill="#151A4F" points="-1547.109,776.426 -1550.439,769.715 -1543.724,766.387 -1540.394,773.098  "/>
	<polygon fill="#151A4F" points="-1528.534,767.217 -1531.864,760.506 -1525.149,757.177 -1521.818,763.889  "/>
	<polygon fill="#151A4F" points="-1509.953,758.011 -1513.284,751.3 -1506.568,747.972 -1503.238,754.683  "/>
	<polygon fill="#151A4F" points="-1491.378,748.803 -1494.709,742.091 -1487.993,738.763 -1484.663,745.474  "/>
	<polygon fill="#151A4F" points="-1472.799,739.596 -1476.13,732.884 -1469.414,729.556 -1466.084,736.267  "/>
	<polygon fill="#151A4F" points="-1563.6,793.786 -1560.27,800.497 -1566.985,803.826 -1570.315,797.114  "/>
	<polygon fill="#151A4F" points="-1541.687,791.289 -1548.402,794.618 -1551.732,787.906 -1545.017,784.578  "/>
	<polygon fill="#151A4F" points="-1529.818,785.416 -1533.148,778.705 -1526.433,775.377 -1523.103,782.088  "/>
	<polygon fill="#151A4F" points="-1511.244,776.209 -1514.575,769.498 -1507.859,766.169 -1504.529,772.881  "/>
	<polygon fill="#151A4F" points="-1492.667,767 -1495.997,760.288 -1489.282,756.96 -1485.951,763.671  "/>
	<polygon fill="#151A4F" points="-1474.09,757.793 -1477.421,751.081 -1470.705,747.753 -1467.375,754.464  "/>
	<path fill="#151A4F" d="M-1567.454,811.866l-0.757,0.375c0.6,2.482,1.308,4.918,2.114,7.312l1.972-0.978L-1567.454,811.866z"/>
	<polygon fill="#151A4F" points="-1548.88,802.655 -1545.549,809.366 -1552.265,812.694 -1555.595,805.983  "/>
	<polygon fill="#151A4F" points="-1530.303,793.448 -1526.972,800.159 -1533.688,803.488 -1537.018,796.776  "/>
	<polygon fill="#151A4F" points="-1511.725,784.242 -1508.394,790.953 -1515.11,794.281 -1518.44,787.57  "/>
	<polygon fill="#151A4F" points="-1489.812,781.745 -1496.527,785.073 -1499.857,778.362 -1493.142,775.033  "/>
	<polygon fill="#151A4F" points="-1481.284,769.162 -1474.569,765.834 -1471.238,772.545 -1477.954,775.874  "/>
	<polygon fill="#151A4F" points="-1459.37,766.663 -1462.7,759.952 -1455.985,756.624 -1452.655,763.335  "/>
	<polygon fill="#151A4F" points="-1550.171,820.85 -1546.841,827.562 -1553.556,830.89 -1556.886,824.179  "/>
	<polygon fill="#151A4F" points="-1531.591,811.645 -1528.261,818.357 -1534.976,821.685 -1538.307,814.974  "/>
	<polygon fill="#151A4F" points="-1509.677,809.148 -1516.393,812.476 -1519.723,805.765 -1513.008,802.437  "/>
	<polygon fill="#151A4F" points="-1501.152,796.569 -1494.436,793.241 -1491.106,799.952 -1497.821,803.28  "/>
	<polygon fill="#151A4F" points="-1472.521,790.73 -1479.237,794.059 -1482.567,787.347 -1475.852,784.019  "/>
	<polygon fill="#151A4F" points="-1460.655,784.862 -1463.985,778.15 -1457.27,774.822 -1453.94,781.533  "/>
	<path fill="#151A4F" d="M-1554.801,841.859c1.378,1.963,2.821,3.876,4.353,5.715l-3.135-6.319L-1554.801,841.859z"/>
	<polygon fill="#151A4F" points="-1535.01,832.047 -1531.68,838.758 -1538.395,842.087 -1541.725,835.375  "/>
	<polygon fill="#151A4F" points="-1516.435,822.838 -1513.105,829.549 -1519.82,832.877 -1523.15,826.166  "/>
	<polygon fill="#151A4F" points="-1497.855,813.633 -1494.525,820.344 -1501.24,823.673 -1504.57,816.961  "/>
	<polygon fill="#151A4F" points="-1475.94,811.132 -1482.656,814.46 -1485.986,807.749 -1479.271,804.42  "/>
	<polygon fill="#151A4F" points="-1457.363,801.928 -1464.079,805.256 -1467.409,798.545 -1460.694,795.216  "/>
	<polygon fill="#151A4F" points="-1445.502,796.054 -1448.832,789.343 -1442.117,786.014 -1438.786,792.726  "/>
	<path fill="#151A4F" d="M-1536.294,850.247l-6.715,3.328l1.711,3.448c0.986,0.877,1.989,1.736,3.015,2.57l5.318-2.635   L-1536.294,850.247z"/>
	<polygon fill="#151A4F" points="-1517.723,841.035 -1514.393,847.746 -1521.108,851.075 -1524.439,844.363  "/>
	<polygon fill="#151A4F" points="-1499.144,831.83 -1495.814,838.541 -1502.529,841.869 -1505.859,835.158  "/>
	<polygon fill="#151A4F" points="-1487.281,825.96 -1480.566,822.631 -1477.236,829.343 -1483.951,832.671  "/>
	<polygon fill="#151A4F" points="-1468.702,816.75 -1461.986,813.422 -1458.656,820.133 -1465.371,823.461  "/>
	<polygon fill="#151A4F" points="-1446.784,814.253 -1450.115,807.542 -1443.399,804.213 -1440.069,810.925  "/>
	<path fill="#151A4F" d="M-1521.576,859.116l-6.715,3.328l2.907,5.856c0.34,0.187,0.678,0.375,1.021,0.558l6.119-3.032   L-1521.576,859.116z"/>
	<polygon fill="#151A4F" points="-1503.002,849.906 -1499.671,856.617 -1506.387,859.945 -1509.717,853.234  "/>
	<polygon fill="#151A4F" points="-1484.428,840.696 -1481.097,847.407 -1487.813,850.736 -1491.143,844.024  "/>
	<polygon fill="#151A4F" points="-1465.846,831.492 -1462.515,838.203 -1469.231,841.532 -1472.561,834.82  "/>
	<polygon fill="#151A4F" points="-1447.273,822.284 -1443.943,828.995 -1450.658,832.324 -1453.988,825.612  "/>
	<polygon fill="#151A4F" points="-1428.696,813.076 -1425.366,819.788 -1432.081,823.116 -1435.411,816.404  "/>
	<path fill="#151A4F" d="M-1504.287,868.106l-6.715,3.328l1.901,3.83c1.526,0.475,3.075,0.9,4.635,1.291l3.508-1.739   L-1504.287,868.106z"/>
	<polygon fill="#151A4F" points="-1485.713,858.895 -1482.383,865.607 -1489.098,868.935 -1492.429,862.224  "/>
	<polygon fill="#151A4F" points="-1467.136,849.688 -1463.806,856.4 -1470.521,859.728 -1473.851,853.017  "/>
	<polygon fill="#151A4F" points="-1448.563,840.479 -1445.232,847.191 -1451.948,850.519 -1455.278,843.808  "/>
	<polygon fill="#151A4F" points="-1429.982,831.276 -1426.651,837.987 -1433.367,841.315 -1436.697,834.604  "/>
	<path fill="#151A4F" d="M-1492.918,878.635c1.444,0.162,2.898,0.288,4.363,0.379l-1.012-2.04L-1492.918,878.635z"/>
	<polygon fill="#151A4F" points="-1470.995,867.765 -1467.665,874.477 -1474.38,877.805 -1477.71,871.094  "/>
	<polygon fill="#151A4F" points="-1452.417,858.558 -1449.087,865.27 -1455.802,868.598 -1459.133,861.887  "/>
	<polygon fill="#151A4F" points="-1433.839,849.351 -1430.509,856.062 -1437.225,859.391 -1440.555,852.679  "/>
	<path fill="#151A4F" d="M-1415.258,840.147l-6.715,3.328l3.33,6.712l1.374-0.681c1.44-1.633,2.829-3.314,4.148-5.053   L-1415.258,840.147z"/>
</g>

</g>
</g>
</g>

<!-- ITEM 1 -->
<g transform="translate(138.0 194.0) rotate(0.0 617.0 462.5) scale(1.5425 1.5416666666666667)">
<g transform="translate(-0.0 -0.0)">
<g clip-path="url(#clipPathId-collage-item-1)">
		<defs>
			<clipPath id="clipPathId-collage-item-1">
				<rect x="0.0" y="0.0" width="800.0" height="600.0"/>
			</clipPath>
		</defs>

<path style="fill:#E6E6E6;" d="M672.876,476.948l12.227-3.821c0.983-0.655,2.074-1.092,3.057-1.965l-18.996,6.114  C670.474,477.166,671.675,477.166,672.876,476.948z M664.251,476.948l27.62-8.952c0.546-0.437,0.873-0.983,1.419-1.419  l-30.895,9.825C663.05,476.729,663.705,476.838,664.251,476.948z M659.448,475.747l36.135-11.572  c0.437-0.327,0.546-0.764,0.983-1.201l-38.101,12.118C658.793,475.528,659.12,475.528,659.448,475.747z M656.609,473.891  l41.485-13.319c0.218-0.327,0.437-0.764,0.655-1.092l-42.795,13.756C656.063,473.563,656.391,473.782,656.609,473.891z   M654.535,471.816l45.197-14.411c0.218-0.328,0.218-0.655,0.437-1.092l-46.179,14.847  C654.317,471.38,654.426,471.707,654.535,471.816z M653.225,469.633l48.035-15.284c0-0.327,0.218-0.655,0.218-1.092l-48.69,15.611  C652.898,469.087,653.007,469.415,653.225,469.633z M652.024,467.231l49.891-16.048c0-0.328,0.109-0.655,0.218-1.092l-50.437,16.048  C651.806,466.685,651.915,466.904,652.024,467.231z M651.151,464.83l51.419-16.485c0-0.327,0.109-0.655,0.109-0.983l-51.856,16.703  C650.932,464.175,651.042,464.502,651.151,464.83z M650.714,461.882c0.109,0.109-0.109,0.218,0,0.327l52.293-16.703  c0-0.327,0.109-0.655,0.109-0.983l-52.075,16.594C650.932,461.336,650.823,461.554,650.714,461.882z M653.443,458.17  c-0.109,0.109-0.218,0.328-0.437,0.328l50.109-16.048c0-0.328-0.109-0.546,0-0.873l-48.799,15.721  C653.88,457.624,653.662,457.952,653.443,458.17z M655.845,455.004l46.834-14.956c0-0.328-0.109-0.546-0.218-0.873l-46.179,14.847  C656.282,454.349,656.063,454.568,655.845,455.004z M657.374,451.729l45.088-14.411c-0.109-0.327-0.109-0.546-0.218-0.873  l-44.433,14.301C657.483,451.183,657.483,451.511,657.374,451.729z M658.138,448.781l43.668-13.865  c-0.109-0.328-0.218-0.437-0.218-0.873l-43.122,13.865C658.247,448.236,658.138,448.454,658.138,448.781z M658.356,445.943  l42.467-13.537c-0.109-0.327-0.218-0.437-0.327-0.764l-42.249,13.428C658.356,445.397,658.356,445.725,658.356,445.943z   M658.138,443.214l41.267-13.21c-0.109-0.327-0.218-0.437-0.328-0.764l-41.048,13.1  C658.138,442.668,658.138,443.105,658.138,443.214z M657.592,440.703l40.284-12.991c-0.109-0.327-0.437-0.546-0.546-0.655  l-40.175,12.882C657.374,440.266,657.483,440.484,657.592,440.703z M695.365,424.982l-39.192,12.445  c0.109,0.327,0.218,0.437,0.328,0.764l39.52-12.664C696.02,425.419,695.693,425.201,695.365,424.982z M693.072,423.017  l-38.21,12.227c0.109,0.328,0.437,0.546,0.546,0.655l38.537-12.336C693.618,423.563,693.291,423.236,693.072,423.017z   M690.016,421.27l-36.463,11.572c0.109,0.328,0.218,0.437,0.328,0.764l37.227-12.009C690.671,421.598,690.452,421.38,690.016,421.27  z M686.195,419.851c-0.109,0.109-0.218-0.109-0.327,0l-32.205,10.262c-0.109,0.218-0.109,0.655-0.109,0.983l34.061-10.917  C687.068,420.179,686.631,419.96,686.195,419.851z M678.007,419.524l-20.852,6.659c-0.655,0.546-1.419,0.983-2.074,1.528  l26.419-8.406C680.409,419.415,679.099,419.415,678.007,419.524z"/>
<g>
	
		<linearGradient id="SVGID_1_-i1" gradientUnits="userSpaceOnUse" x1="5958.4717" y1="-2529.595" x2="7354.1338" y2="-2529.595" gradientTransform="matrix(0.1 0 0 -0.1 0 18)">
		<stop offset="0" style="stop-color:#B9D3FD"/>
		<stop offset="1" style="stop-color:#89B3F4"/>
	</linearGradient>
	<path style="fill:url(#SVGID_1_-i1);" d="M734.666,291.794c1.528,4.585-0.218,9.498-2.511,13.756   c-6.223,11.681-16.266,21.288-28.275,26.856c-6.659,3.166-13.865,5.022-20.742,7.86c-19.978,8.297-36.245,24.891-43.996,45.088   c2.293-13.974-5.022-27.839-13.974-38.865c-8.843-11.026-19.542-20.961-25.873-33.625c-5.459-10.917-5.568-27.074,5.459-32.315   c8.079-3.821,18.232,0.437,26.529-3.057c2.948-1.31,5.568-3.93,5.458-7.096c-0.437-8.079-16.376-7.533-16.812-15.611   c-0.437-9.28,24.018-6.55,20.852-15.393c-1.31-3.712-6.55-4.804-8.297-8.297c-1.856-3.493-1.747-8.406,1.419-10.917   c4.039-3.275,10.153-0.655,15.284-1.856c5.786-1.31,9.498-7.205,10.699-13.1c1.201-5.895,0.546-11.9,1.419-17.795   c2.074-14.52,13.974-27.074,28.275-30.131c14.301-3.057,30.24,3.712,37.991,16.157c3.166,5.131,4.913,12.009,1.528,16.921   c-2.948,4.148-9.279,6.878-8.734,11.9c0.655,6.878,13.428,7.533,13.646,14.411c0.218,8.079-16.376,8.079-15.939,16.157   c0.218,3.603,4.039,5.677,6.332,8.515c4.367,5.24,2.62,14.301-3.384,17.576c-2.402,1.31-5.24,1.856-7.096,3.712   c-4.804,4.694-0.109,12.991,5.568,16.485C725.169,282.624,732.592,285.353,734.666,291.794z"/>
	
		<linearGradient id="SVGID_2_-i1" gradientUnits="userSpaceOnUse" x1="6414.0796" y1="-2855.1492" x2="7869.9307" y2="-2855.1492" gradientTransform="matrix(0.1 0 0 -0.1 0 18)">
		<stop offset="0" style="stop-color:#DEEAFE"/>
		<stop offset="1" style="stop-color:#E9F1FE"/>
	</linearGradient>
	<path style="fill:url(#SVGID_2_-i1);" d="M692.745,292.34c3.384-1.856,6.987-3.603,9.716-6.441c5.568-6.114,5.24-15.284,5.677-23.581   c0.437-8.297,3.384-18.013,11.354-20.197c6.659-1.856,15.066,2.183,19.978-2.62c1.856-1.747,2.62-4.367,3.93-6.55   c5.677-9.498,20.633-8.734,28.93-1.419c8.188,7.314,11.354,18.668,14.083,29.367c0.983,3.93,1.092,9.389-2.729,10.48   c-3.712,0.983-7.424-3.603-10.917-2.183c-2.838,1.092-3.057,5.131-1.965,8.079c0.983,2.838,2.729,5.786,2.074,8.843   c-1.31,5.677-9.279,6.004-14.956,4.476c-5.677-1.528-12.991-3.057-16.266,1.856c3.603,11.463,6.659,25.437-1.419,34.498   c-9.279,10.371-26.419,9.28-40.284,10.59c-25.764,2.402-43.996,22.052-58.516,43.559   C640.561,345.069,661.195,309.48,692.745,292.34z"/>
</g>
<g>
	<path style="fill:#FFFFFF;" d="M660.43,364.72c-0.109,0-0.109,0-0.218,0c-0.328-0.109-0.437-0.437-0.328-0.655   c13.101-40.066,33.952-67.904,72.053-95.961c7.096-5.24,28.494-14.083,37.773-14.847c0.218,0,0.546,0.218,0.546,0.546   s-0.218,0.546-0.546,0.546c-8.843,0.764-30.349,9.607-37.118,14.629c-37.991,27.948-58.734,55.568-71.725,95.415   C660.867,364.502,660.649,364.72,660.43,364.72z"/>
</g>
<path style="fill:#FFFFFF;" d="M680.627,247.252l-4.367-12.009c-1.528-0.109-3.166,0.109-4.694,0.655l4.694,12.882  c0.218,0.764-0.109,1.528-0.873,1.747c-0.764,0.218-1.528-0.109-1.747-0.873l-4.694-12.664c-1.419,0.873-2.62,2.074-3.603,3.384  l3.93,10.699c0.218,0.764-0.109,1.528-0.873,1.747c-0.764,0.218-1.528-0.109-1.747-0.873l-3.057-8.406  c-1.747,4.367-1.856,9.935,0.109,15.393c0,0.109,0.109,0.218,0.109,0.328c-0.983,0.546-2.074,1.201-2.948,1.965  c-2.729,1.965-6.223,5.349-7.424,10.153l1.31,0.328c1.092-4.367,4.367-7.533,6.878-9.28c0.873-0.655,1.747-1.201,2.729-1.747  c2.074,4.585,5.458,8.297,9.17,10.262l-2.948-7.969c-0.218-0.764,0.109-1.528,0.873-1.747s1.528,0.109,1.747,0.873l3.821,10.262  c1.638,0.437,3.275,0.546,4.913,0.218l-4.367-12.009c-0.218-0.764,0.109-1.528,0.873-1.747c0.764-0.218,1.528,0.109,1.747,0.873  l4.476,12.118c1.419-0.655,2.729-1.638,3.821-2.729l-4.039-10.917c-0.218-0.764,0.109-1.528,0.873-1.747  c0.764-0.218,1.528,0.109,1.747,0.873l3.493,9.389c1.092-1.638,2.074-3.384,2.948-5.24l-2.183-5.895  c-0.218-0.764,0.109-1.528,0.873-1.747c0.764-0.218,1.528,0.109,1.747,0.873l1.201,3.166c2.183-5.24,3.603-10.371,5.459-12.009  c-3.057-0.655-7.314-3.493-12.009-6.114l1.528,4.039c0.218,0.764-0.109,1.528-0.873,1.747c-0.764,0.218-1.528-0.109-1.747-0.873  l-2.511-6.878c-1.856-0.873-3.712-1.528-5.568-1.965l3.821,10.59c0.218,0.764-0.109,1.528-0.873,1.747  C681.719,248.344,680.954,248.016,680.627,247.252z"/>
<rect x="342.853" y="380.986" style="fill:#D6D7D8;" width="121.835" height="135.481"/>
<rect x="267.415" y="512.101" style="fill:#428DFC;" width="272.709" height="10.48"/>
<linearGradient id="SVGID_3_-i1" gradientUnits="userSpaceOnUse" x1="1361.9219" y1="-2771.7815" x2="6713.4741" y2="-2771.7815" gradientTransform="matrix(0.1 0 0 -0.1 0 18)">
	<stop offset="0" style="stop-color:#EEEEEE"/>
	<stop offset="1" style="stop-color:#D6D7D8"/>
</linearGradient>
<rect x="136.192" y="121.924" style="fill:url(#SVGID_3_-i1);" width="535.155" height="346.508"/>
<rect x="145.581" y="130.549" style="fill:#FFFFFF;" width="516.378" height="285.372"/>
<g>
	
		<rect x="379.613" y="437.736" transform="matrix(-0.7071 -0.7071 0.7071 -0.7071 343.4806 1027.6814)" style="fill:#A1C3FC;" width="9.934" height="9.934"/>
	
		<rect x="398.775" y="437.721" transform="matrix(-0.7071 -0.7071 0.7071 -0.7071 376.2033 1041.2053)" style="fill:#FFFFFF;" width="9.934" height="9.934"/>
	
		<rect x="417.938" y="437.751" transform="matrix(-0.7071 -0.7071 0.7071 -0.7071 408.8945 1054.8064)" style="fill:#1D72D8;" width="9.934" height="9.934"/>
</g>
<path style="fill:#D3E3FE;" d="M660.539,81.422c0,0.218,0,0.437,0,0.655c0,9.061,7.314,16.376,16.376,16.376  s16.376-7.314,16.376-16.376c0-0.218,0-0.437,0-0.655H660.539z"/>
<path style="fill:#A1C3FC;" d="M719.164,41.574c0,0.328,0,0.764,0,1.092c0,14.956,12.118,27.074,27.074,27.074  s27.074-12.118,27.074-27.074c0-0.328,0-0.764,0-1.092C773.313,41.574,719.164,41.574,719.164,41.574z"/>
<path style="fill:#F4F4F4;" d="M32.698,13.19c0,0.655,0,1.201,0,1.856c0,25.218,20.524,45.743,45.743,45.743  s45.743-20.524,45.743-45.743c0-0.655,0-1.201,0-1.856C124.183,13.19,32.698,13.19,32.698,13.19z"/>
<path style="fill:#E7EFFE;" d="M80.624,13.19c0,0.437,0,0.873,0,1.31c0,18.341,14.847,33.188,33.188,33.188S147,32.841,147,14.5  c0-0.437,0-0.873,0-1.31C147,13.19,80.624,13.19,80.624,13.19z"/>
<g>
	
		<linearGradient id="SVGID_4_-i1" gradientUnits="userSpaceOnUse" x1="4547.144" y1="-2848.5498" x2="5952.8911" y2="-2848.5498" gradientTransform="matrix(-0.0964 0.0265 -0.0265 -0.0964 553.6074 -2.2324)">
		<stop offset="0" style="stop-color:#B9D3FD"/>
		<stop offset="1" style="stop-color:#89B3F4"/>
	</linearGradient>
	<path style="fill:url(#SVGID_4_-i1);" d="M61.41,450.31c-0.218,4.803,2.729,9.17,6.114,12.664c9.17,9.716,21.507,16.376,34.607,18.559   c7.314,1.201,14.847,1.201,22.271,2.074c21.616,2.729,41.812,14.52,54.804,31.987c-6.004-12.991-2.511-28.384,3.166-41.485   c5.677-13.1,13.428-25.546,16.157-39.52c2.402-12.009-1.856-27.839-13.974-29.913c-8.952-1.528-17.686,5.349-26.638,4.039   c-3.166-0.437-6.55-2.293-7.205-5.459c-1.747-7.969,13.974-11.681,12.118-19.651c-2.074-9.17-25.109,0-24.345-9.28   c0.328-3.93,5.022-6.332,5.895-10.262s-0.546-8.624-4.258-10.153c-4.804-2.074-10.044,2.074-15.284,2.293   c-6.004,0.328-11.135-4.476-13.865-9.825s-3.712-11.463-6.114-16.921c-5.895-13.537-20.742-22.598-35.481-21.725   c-14.738,0.873-28.384,11.681-32.642,25.873c-1.747,5.786-1.638,12.991,3.057,16.921c3.93,3.275,10.808,4.148,11.681,9.17   c1.201,6.878-11.026,10.917-9.389,17.686c1.856,7.969,18.122,3.493,19.76,11.463c0.764,3.603-2.402,6.659-3.821,9.935   c-2.838,6.223,1.31,14.52,7.969,16.157c2.62,0.655,5.568,0.327,7.969,1.638c5.895,3.275,3.603,12.555-0.983,17.467   C68.179,439.065,61.847,443.541,61.41,450.31z"/>
	
		<linearGradient id="SVGID_5_-i1" gradientUnits="userSpaceOnUse" x1="5005.2349" y1="-3177.0505" x2="6471.7524" y2="-3177.0505" gradientTransform="matrix(-0.0964 0.0265 -0.0265 -0.0964 553.6074 -2.2324)">
		<stop offset="0" style="stop-color:#DEEAFE"/>
		<stop offset="1" style="stop-color:#E9F1FE"/>
	</linearGradient>
	<path style="fill:url(#SVGID_5_-i1);" d="M102.458,439.72c-3.821-0.873-7.751-1.638-11.135-3.712   c-7.096-4.476-9.17-13.537-11.79-21.397c-2.62-7.86-8.079-16.594-16.376-16.594c-6.987,0-14.083,6.223-20.087,2.838   c-2.293-1.31-3.712-3.603-5.568-5.349c-7.969-7.642-22.38-2.948-28.384,6.332s-6.004,21.179-5.895,32.315   c0.109,4.039,1.419,9.389,5.459,9.389c3.821,0,6.223-5.459,10.044-5.022c3.057,0.327,4.367,4.258,4.148,7.314   c-0.218,3.057-1.092,6.332,0.328,9.061c2.729,5.24,10.699,3.384,15.721,0.327c5.022-3.057,11.79-6.441,16.266-2.511   c-0.437,12.118,0.328,26.528,10.59,33.079c11.79,7.533,28.166,1.965,41.922-0.437c25.655-4.585,48.69,9.716,68.45,26.747   C167.088,476.948,137.611,447.908,102.458,439.72z"/>
	<path style="fill:none;stroke:#428DFC;stroke-width:2;stroke-linecap:round;stroke-miterlimit:10;" d="M178.878,517.232   c-8.734-22.817-15.721-46.288-21.07-70.088"/>
	
		<ellipse transform="matrix(-0.2235 -0.9747 0.9747 -0.2235 -240.659 697.7426)" style="fill:#23286B;" cx="157.599" cy="444.732" rx="4.694" ry="12.445"/>
	<path style="fill:none;stroke:#428DFC;stroke-width:2;stroke-linecap:round;stroke-miterlimit:10;" d="M157.153,444.305   c-2.948-13.537-5.349-27.074-7.205-40.83"/>
	
		<ellipse transform="matrix(-0.3174 -0.9483 0.9483 -0.3174 -182.6591 669.1458)" style="fill:#23286B;" cx="149.504" cy="400.314" rx="5.568" ry="14.957"/>
	<path style="fill:none;stroke:#428DFC;stroke-width:2;stroke-linecap:round;stroke-miterlimit:10;" d="M149.402,399.873   c-1.419-11.354-2.511-22.708-3.275-34.061"/>
	
		<ellipse transform="matrix(-0.0106 -0.9999 0.9999 -0.0106 -213.3985 512.5897)" style="fill:#23286B;" cx="146.883" cy="361.865" rx="5.567" ry="14.956"/>
	<path style="fill:none;stroke:#428DFC;stroke-width:2;stroke-linecap:round;stroke-miterlimit:10;" d="M145.908,361.008   c-0.437-8.624-0.655-17.358-0.764-26.092"/>
	
		<ellipse transform="matrix(-0.0106 -0.9999 0.9999 -0.0106 -183.616 479.1787)" style="fill:#23286B;" cx="145.246" cy="330.426" rx="7.532" ry="20.087"/>
	<path style="fill:none;stroke:#428DFC;stroke-width:2;stroke-linecap:round;stroke-miterlimit:10;" d="M145.144,329.021   c0.109-5.786,0.218-11.572,0.437-17.358"/>
</g>
<path style="fill:#FFFFFF;" d="M132.808,484.917l4.367-12.009c1.528-0.109,3.166,0.109,4.694,0.655l-4.694,12.882  c-0.218,0.764,0.109,1.528,0.873,1.747s1.528-0.109,1.747-0.873l4.694-12.664c1.419,0.873,2.62,2.074,3.603,3.384l-3.93,10.699  c-0.218,0.764,0.109,1.528,0.873,1.747s1.528-0.109,1.747-0.873l3.057-8.406c1.747,4.367,1.856,9.935-0.109,15.393  c0,0.109-0.109,0.218-0.109,0.328c0.983,0.546,2.074,1.201,2.948,1.965c2.729,1.965,6.223,5.349,7.424,10.153l-1.31,0.328  c-1.092-4.367-4.367-7.533-6.878-9.28c-0.873-0.655-1.747-1.201-2.729-1.747c-2.074,4.585-5.459,8.297-9.17,10.262l2.948-7.969  c0.218-0.764-0.109-1.528-0.873-1.747c-0.764-0.218-1.528,0.109-1.747,0.873l-3.821,10.262c-1.638,0.437-3.275,0.546-4.913,0.218  l4.367-12.009c0.218-0.764-0.109-1.528-0.873-1.747s-1.528,0.109-1.747,0.873l-4.476,12.118c-1.419-0.655-2.729-1.638-3.821-2.729  l4.039-10.917c0.218-0.764-0.109-1.528-0.873-1.747c-0.764-0.218-1.528,0.109-1.747,0.873l-3.493,9.389  c-1.092-1.638-2.074-3.384-2.948-5.24l2.183-5.895c0.218-0.764-0.109-1.528-0.873-1.747s-1.528,0.109-1.747,0.873l-1.201,3.166  c-2.183-5.24-3.603-10.371-5.459-12.009c3.057-0.655,7.314-3.493,12.009-6.114l-1.528,4.039c-0.218,0.764,0.109,1.528,0.873,1.747  s1.528-0.109,1.747-0.873l2.511-6.878c1.856-0.873,3.712-1.528,5.568-1.965l-3.821,10.59c-0.218,0.764,0.109,1.528,0.873,1.747  C131.716,486.009,132.48,485.681,132.808,484.917z"/>
<path style="fill:#B3C9EE;" d="M109.555,136.007l-8.188-0.983c-0.764,0.109-1.528,0.109-2.293,0.328l12.773,1.419  C110.974,136.553,110.319,136.225,109.555,136.007z M114.576,138.3l-18.559-2.074c-0.437,0.109-0.764,0.328-1.201,0.437  l20.742,2.402C115.231,138.736,114.904,138.518,114.576,138.3z M117.087,140.265l-24.236-2.729  c-0.328,0.109-0.546,0.328-0.873,0.437l25.546,2.948C117.415,140.592,117.196,140.483,117.087,140.265z M118.288,142.121  l-27.839-3.166c-0.218,0.109-0.437,0.328-0.655,0.437l28.712,3.275C118.507,142.448,118.397,142.23,118.288,142.121z   M118.943,143.867l-30.349-3.493c-0.218,0.109-0.328,0.328-0.546,0.546l31.005,3.493  C118.943,144.195,118.943,143.977,118.943,143.867z M119.162,145.505l-32.205-3.712c-0.109,0.218-0.328,0.328-0.437,0.546  l32.642,3.712C119.162,145.942,119.162,145.723,119.162,145.505z M119.162,147.252l-33.515-3.821  c-0.109,0.218-0.218,0.328-0.437,0.546l33.843,3.93C119.162,147.579,119.162,147.47,119.162,147.252z M119.052,148.889l-34.498-3.93  c-0.109,0.218-0.218,0.328-0.328,0.546l34.825,3.93C119.052,149.326,119.052,149.108,119.052,148.889z M118.507,150.745  c0-0.109,0.109-0.109,0.109-0.218l-35.044-4.039c-0.109,0.218-0.218,0.328-0.328,0.546l34.935,4.039  C118.288,150.964,118.397,150.854,118.507,150.745z M115.996,152.164c0.109,0,0.218-0.109,0.328-0.109l-33.625-3.821  c-0.109,0.218-0.109,0.328-0.218,0.546l32.751,3.712C115.559,152.383,115.777,152.274,115.996,152.164z M113.703,153.365  l-31.441-3.603c-0.109,0.218-0.109,0.328-0.109,0.546l31.005,3.493C113.266,153.693,113.485,153.584,113.703,153.365z   M111.956,154.894l-30.24-3.493c0,0.218-0.109,0.328-0.109,0.546l29.804,3.384C111.738,155.221,111.847,155.003,111.956,154.894z   M110.755,156.422l-29.258-3.384c0,0.218,0,0.328-0.109,0.546l28.93,3.275C110.537,156.75,110.646,156.64,110.755,156.422z   M109.882,158.06l-28.494-3.275c0,0.218,0,0.328,0,0.546l28.275,3.275C109.664,158.387,109.773,158.169,109.882,158.06z   M109.227,159.697l-27.729-3.166c0,0.218,0,0.328,0,0.546l27.511,3.166C109.118,160.025,109.227,159.806,109.227,159.697z   M108.899,161.335l-27.074-3.057c0,0.218,0.109,0.437,0.109,0.546l26.965,3.057C108.899,161.662,108.899,161.444,108.899,161.335z   M82.589,160.571l26.31,3.057c0-0.218,0-0.328,0-0.546l-26.529-3.057C82.371,160.134,82.48,160.352,82.589,160.571z M83.463,162.317  l25.655,2.948c0-0.218-0.109-0.437-0.109-0.546l-25.873-2.948C83.244,161.881,83.354,162.099,83.463,162.317z M84.773,164.173  l24.454,2.838c0-0.218,0-0.328,0-0.546l-25-2.838C84.445,163.737,84.554,163.955,84.773,164.173z M86.629,166.029  c0.109,0,0.109,0.109,0.218,0.109l21.616,2.511c0.109-0.109,0.218-0.328,0.328-0.546l-22.817-2.62  C86.192,165.592,86.41,165.811,86.629,166.029z M91.323,168.322l13.974,1.638c0.546-0.109,1.092-0.218,1.638-0.328l-17.686-2.074  C89.904,167.776,90.668,168.103,91.323,168.322z"/>
<path style="fill:#B3C9EE;" d="M687.068,497.253l12.773,0.546c1.201-0.218,2.402-0.328,3.493-0.764l-19.978-0.655  C684.775,496.598,685.867,497.035,687.068,497.253z M678.989,494.306l29.039,0.983c0.655-0.218,1.092-0.546,1.856-0.873  l-32.424-1.201C678.007,493.76,678.443,494.087,678.989,494.306z M674.95,491.576l37.882,1.31c0.546-0.218,0.764-0.546,1.31-0.764  l-39.956-1.528C674.404,491.14,674.732,491.249,674.95,491.576z M672.767,488.847l43.559,1.528c0.327-0.218,0.655-0.546,0.983-0.764  l-44.869-1.638C672.439,488.41,672.657,488.738,672.767,488.847z M671.566,486.227l47.489,1.747  c0.328-0.218,0.437-0.546,0.764-0.873l-48.472-1.747C671.566,485.681,671.566,486.009,671.566,486.227z M671.02,483.716  l50.328,1.856c0.109-0.328,0.437-0.546,0.655-0.873l-51.092-1.856C671.02,483.061,671.02,483.389,671.02,483.716z M670.802,480.987  l52.402,1.965c0.109-0.328,0.327-0.546,0.655-0.873l-52.948-2.074C670.802,480.55,670.802,480.659,670.802,480.987z   M670.802,478.476l53.93,1.965c0.109-0.328,0.328-0.546,0.437-0.873l-54.476-1.965C670.802,477.821,670.802,478.148,670.802,478.476  z M671.457,475.528c0,0.218-0.109,0.218-0.109,0.328l54.804,2.074c0.109-0.327,0.328-0.546,0.437-0.873l-54.585-2.074  C671.784,475.201,671.566,475.31,671.457,475.528z M675.168,473.017c-0.218,0-0.328,0.218-0.546,0.218l52.62,1.856  c0.109-0.327,0.109-0.546,0.328-0.873l-51.201-1.856C675.823,472.581,675.496,472.799,675.168,473.017z M678.553,470.834  l49.127,1.856c0.109-0.328,0.109-0.546,0.109-0.873l-48.472-1.747C679.208,470.288,678.88,470.506,678.553,470.834z   M681.064,468.323l47.271,1.747c0-0.328,0.109-0.546,0.109-0.873l-46.616-1.638C681.391,467.777,681.282,468.105,681.064,468.323z   M682.81,465.812l45.743,1.747c0-0.327,0-0.546,0.109-0.873l-45.197-1.638C683.029,465.266,682.919,465.485,682.81,465.812z   M683.902,463.192l44.542,1.638c0-0.327,0-0.546-0.109-0.873l-44.214-1.747C684.23,462.646,684.12,462.974,683.902,463.192z   M684.775,460.572l43.341,1.638c0-0.327,0-0.546-0.109-0.873l-43.013-1.638C684.885,460.026,684.775,460.354,684.775,460.572z   M685.103,457.952l42.358,1.528c0-0.327-0.218-0.655-0.218-0.873l-42.14-1.528C684.994,457.406,685.103,457.733,685.103,457.952z   M725.933,455.987l-41.157-1.638c0,0.328,0,0.546,0.109,0.873l41.485,1.528C726.37,456.642,726.151,456.314,725.933,455.987z   M724.404,453.367l-40.066-1.528c0,0.327,0.218,0.655,0.218,0.873l40.502,1.528C724.732,454.022,724.623,453.694,724.404,453.367z   M722.112,450.637l-38.21-1.528c0,0.328,0,0.546,0.109,0.873l39.083,1.419C722.658,451.292,722.439,450.965,722.112,450.637z   M719.055,448.017c-0.218,0-0.218-0.109-0.328-0.109l-33.843-1.31c-0.109,0.218-0.327,0.546-0.437,0.873l35.699,1.31  C719.71,448.672,719.383,448.345,719.055,448.017z M711.522,445.07l-21.834-0.873c-0.873,0.218-1.638,0.437-2.511,0.655l27.62,1.092  C713.706,445.725,712.505,445.288,711.522,445.07z"/>

</g>
</g>
</g>

<!-- ITEM 2 -->
<g transform="translate(522.0 281.0) rotate(0.0 296.0 179.0) scale(1.8048780487804879 1.8080808080808082)">
<g transform="translate(-0.0 -0.0)">
<g clip-path="url(#clipPathId-collage-item-2)">
		<defs>
			<clipPath id="clipPathId-collage-item-2">
				<rect x="0.0" y="0.0" width="328.0" height="198.0"/>
			</clipPath>
		</defs>

<rect x="0" y="0" fill="#EEEEEE" width="328" height="198"/>
<linearGradient id="SVGID_1_-i2" gradientUnits="userSpaceOnUse" x1="2.804" y1="17.9785" x2="323.629" y2="17.9785">
	<stop offset="0" style="stop-color:#B0CDFC"/>
	<stop offset="1" style="stop-color:#81AEF2"/>
</linearGradient>
<path fill="url(#SVGID_1_-i2)" d="M323.629,34.49H2.804V14.275c0-7.073,5.734-12.807,12.807-12.807h308.018V34.49z"/>
<path fill="#78A9EF" d="M40.639,38.084H5.712V17.771c0-7.019,5.69-12.709,12.709-12.709h22.218V38.084z"/>
<rect x="14.175" y="12.573" fill="#89B3F4" width="18" height="18"/>
<linearGradient id="SVGID_2_-i2" gradientUnits="userSpaceOnUse" x1="5.3333" y1="59" x2="64.8333" y2="59">
	<stop offset="0" style="stop-color:#EEEEEE"/>
	<stop offset="1" style="stop-color:#D6D7D8"/>
</linearGradient>
<rect x="5.333" y="52" fill="url(#SVGID_2_-i2)" width="59.5" height="14"/>
<rect x="59.167" y="52" fill="#F2F2F2" width="59.5" height="14"/>
<linearGradient id="SVGID_3_-i2" gradientUnits="userSpaceOnUse" x1="113" y1="59" x2="172.5" y2="59">
	<stop offset="0" style="stop-color:#EEEEEE"/>
	<stop offset="1" style="stop-color:#D6D7D8"/>
</linearGradient>
<rect x="113" y="52" fill="url(#SVGID_3_-i2)" width="59.5" height="14"/>
<rect x="166.833" y="52" fill="#F2F2F2" width="59.5" height="14"/>
<linearGradient id="SVGID_4_-i2" gradientUnits="userSpaceOnUse" x1="220.6667" y1="59" x2="280.1667" y2="59">
	<stop offset="0" style="stop-color:#EEEEEE"/>
	<stop offset="1" style="stop-color:#D6D7D8"/>
</linearGradient>
<rect x="220.667" y="52" fill="url(#SVGID_4_-i2)" width="59.5" height="14"/>
<rect x="263.5" y="52" fill="#F2F2F2" width="59.5" height="14"/>
<path fill="#F7F7F7" d="M296,45.333H63.333c-3.3,0-6-2.7-6-6v-2.667c0-3.3,2.7-6,6-6H296c3.3,0,6,2.7,6,6v2.667  C302,42.633,299.3,45.333,296,45.333z"/>
<circle fill="#23286B" cx="74.459" cy="41.238" r="1.5"/>
<circle fill="#23286B" cx="82.458" cy="41.238" r="1.5"/>
<circle fill="#23286B" cx="90.457" cy="41.238" r="1.5"/>

</g>
</g>
</g>

<!-- ITEM 3 -->
<g transform="translate(1341.0 491.0) rotate(0.0 -235.5 398.5) scale(-1.7563289369175867 1.7581748512610549)">
<g transform="translate(-0.0 -0.0)">
<g clip-path="url(#clipPathId-collage-item-3)">
		<defs>
			<clipPath id="clipPathId-collage-item-3">
				<rect x="0.0" y="0.0" width="268.173" height="453.311"/>
			</clipPath>
		</defs>

<path fill="#F2A19C" d="M68.911,171.378c2.337-0.833,8.519,4.12,11.05,5.131c3.693,1.475,8.382,2.87,10.762,6.145  c3.082,4.241,1.064,8.216-0.613,12.628c-1.54,4.052-1.381,5.624-2.798,9.692c-0.858,2.463-2.632,4.912-5.322,4.931  c-1.904,0.014-13.703,0.64-15.365,0.086c-2.928-0.976-6.05-7.552-7.905-10.198c-3.665-5.226,2.857-5.337,6.332-3.327  c2.242,1.297,4.232,4.112,6.529,4.898c2.246,0.769,3.483,0.094,5.859-0.027c0.592-2.367,1.212-5.623,0.941-8.084  c-0.291-2.641-3.441-4.322-5.863-4.962c-5.163-1.364-10.683-1.852-15.937-2.565c0.984-2.618,5.301-5.39,7.142-7.576  c2.015-2.392,3.68-5.133,5.824-7.47C69.237,171.277,69.175,170.758,68.911,171.378z"/>
<linearGradient id="SVGID_1_-i3" gradientUnits="userSpaceOnUse" x1="82.749" y1="125.9711" x2="91.3186" y2="124.167" gradientTransform="matrix(0.9842 -0.177 0.177 0.9842 -27.3312 88.3556)">
	<stop offset="0" style="stop-color:#FFBEB6"/>
	<stop offset="1" style="stop-color:#F2A19C"/>
</linearGradient>
<path fill="url(#SVGID_1_-i3)" d="M83.438,189.58c-1.416,3.994-6.028,4.193-9.269,5.792c-3.397,1.676-8.94,2.525-9.713,5.872  c-1.461,6.327,5.725,3.6,8.265,2.638c3.488-1.321,6.647-3.45,10.294-3.914c3.128-0.398,5.397-2.344,5.416-5.557  C88.445,192.041,86.185,189.92,83.438,189.58z"/>
<linearGradient id="SVGID_2_-i3" gradientUnits="userSpaceOnUse" x1="-56.8873" y1="439.9737" x2="22.417" y2="439.9737" gradientTransform="matrix(1 0 -0.16 1 161.8314 0)">
	<stop offset="0" style="stop-color:#428DFC"/>
	<stop offset="1" style="stop-color:#1D72D8"/>
</linearGradient>
<path fill="url(#SVGID_2_-i3)" d="M37.702,427.714c-2.017,8.163-6.465,24.62-3.556,25.378c6.769,0.245,64.527,0.245,77.132,0.191  c1.187-1.904,0.914-3.562,0.251-5.427c-1.802-5.064-7.935-9.231-13.044-11.05c-5.109-1.819-8.354-2.124-13.346-4.166  c-5.702-2.333-9.169-4.8-15.457-5.746c-2.543-0.382-8.758-0.26-11.407-0.137C51.417,427.076,44.56,427.395,37.702,427.714z"/>
<g>
	<path fill="#23286B" d="M217.977,61.64c-0.688,0-1.378-0.235-1.942-0.715c-1.262-1.074-1.415-2.967-0.341-4.229l38-44.667   c1.074-1.263,2.968-1.414,4.229-0.341c1.262,1.074,1.415,2.967,0.341,4.229l-38,44.667C219.67,61.282,218.826,61.64,217.977,61.64z   "/>
</g>
<path fill="#FFBEB6" d="M206.645,59.307c2.107-1.656,6.621-2.929,7.951-5.316c1.372-2.463,0.594-5.061,1.716-7.351  c1.105-2.256,13.456-11.744,14.765-10.424c1.619,1.633-0.757,6.367-1.774,7.757c-2.01,2.747-5.204,4.287-6.324,7.333  c-1.192,3.243-0.018,4.873-2.651,7.64c-2.806,2.949-7.237,6.174-10.682,8.352c-0.488,0.309-1.16,1.247-1.594,1.641  C207.431,66.822,205.07,60.545,206.645,59.307z"/>
<path fill="#FFBEB6" d="M229.1,47.37c1.979-1.231,8.927-6.918,11.368-6.394c4.3,0.923,0.886,7.196,0.355,9.236  c-1.491,5.727,0.718,10.753-1.509,16.331c-2.73,6.838-6.946,5.059-13.411,6.404c-3.406,0.709-8.722,2.734-11.723,4.618  c-3.439,2.16-6.053,4.927-9.901,6.624c0.962-6.174-1.942-11.774-4.174-17.556c2.56-1.689,5.916-2.488,8.747-3.899  c1.834-0.914,3.813-2.578,5.624-2.955C214.496,60.142,223.029,51.144,229.1,47.37z"/>
<path fill="#F2A19C" d="M48.92,68.047c1.586,7.877,10.607,14.314,12.918,22.019c5.029,0.456,19.503-0.794,21.327-5.657  c1.072-2.857-0.528-7.653-1.163-10.31c-1.356-5.677-5.516-11.3-6.517-16.678c-3.135,2.042-8.206,2.258-11.836,3.33  c-2.148,0.634-2.727,1.272-4.605,2.351C56.409,64.615,51.622,67.185,48.92,68.047z"/>
<linearGradient id="SVGID_3_-i3" gradientUnits="userSpaceOnUse" x1="76.9322" y1="58.2001" x2="48.4336" y2="47.7006">
	<stop offset="0" style="stop-color:#FFBEB6"/>
	<stop offset="1" style="stop-color:#F2A19C"/>
</linearGradient>
<path fill="url(#SVGID_3_-i3)" d="M16.867,42.083C21.011,34.868,37.8,8.881,50.863,18.017c10.752,7.521,31.331,16.597,29.507,19.011  c-4.691,5.765-4.235,5.758-0.925,11.919c2.655,4.94,5.216,8.856,2.262,13.958c-4.183,7.223-17.236,11.67-24.981,13.287  C36.716,80.37,17.558,66.226,16.71,45.527C17.214,44.776,15.868,41.764,16.867,42.083z"/>
<path fill="#23286B" d="M77.796,45.346c-3.778,1.958-9.676,3.939-9.233,10.059c0.378,5.229,6.347,8.731,10.421,8.16  C95.604,61.236,86.905,52.674,77.796,45.346z"/>
<path fill="#23286B" d="M25.958,19.705C32.83,5.616,63.122,8.427,69.242,23.01c-10.43,11.552-19.562,18.782-32.811,31.588  C34.017,49.665,24.486,20.498,25.958,19.705z"/>
<g>
	<path fill="#23286B" d="M0.759,79.628c-0.273,0-0.497-0.22-0.5-0.494c-0.012-1.061-0.058-2.228-0.106-3.492   c-0.377-9.768-0.946-24.529,10.364-41.345c2.672-3.972,8.624-8.604,12.589-8.857c0.273-0.013,0.513,0.191,0.531,0.467   c0.018,0.275-0.191,0.513-0.467,0.531c-3.309,0.211-9.055,4.302-11.823,8.417C0.218,51.4,0.78,65.965,1.152,75.603   c0.049,1.274,0.094,2.45,0.107,3.519c0.003,0.276-0.218,0.502-0.494,0.506C0.763,79.628,0.761,79.628,0.759,79.628z"/>
</g>
<g>
	<path fill="#23286B" d="M1.61,44.678c-0.02,0-0.04-0.001-0.061-0.003c-0.274-0.033-0.469-0.282-0.437-0.557   c0.6-4.975,6.255-11.069,9.162-13.596c4.117-3.579,8.9-4.073,13.457-4.073c0.276,0,0.5,0.224,0.5,0.5s-0.224,0.5-0.5,0.5   c-4.362,0-8.932,0.464-12.8,3.828c-2.806,2.44-8.262,8.289-8.825,12.961C2.076,44.491,1.86,44.678,1.61,44.678z"/>
</g>
<linearGradient id="SVGID_4_-i3" gradientUnits="userSpaceOnUse" x1="5.7793" y1="439.9737" x2="85.0836" y2="439.9737" gradientTransform="matrix(1 0 -0.16 1 161.8314 0)">
	<stop offset="0" style="stop-color:#428DFC"/>
	<stop offset="1" style="stop-color:#1D72D8"/>
</linearGradient>
<path fill="url(#SVGID_4_-i3)" d="M100.369,427.714c-2.017,8.163-6.465,24.62-3.556,25.378c6.769,0.245,64.527,0.245,77.132,0.191  c1.187-1.904,0.914-3.562,0.251-5.427c-1.802-5.064-7.935-9.231-13.044-11.05c-5.109-1.819-8.354-2.124-13.346-4.166  c-5.702-2.333-9.169-4.8-15.457-5.746c-2.543-0.382-8.758-0.26-11.407-0.137C114.084,427.076,107.226,427.395,100.369,427.714z"/>
<rect x="125.552" y="221.503" fill="#428DFC" width="40.559" height="104.888"/>
<path fill="#151A4F" d="M105.678,239.286c-2.328-0.856-24.622,77-29.562,87.444c-5.994,12.673-17.078,19.375-19.425,34.043  c-2.181,13.636-8.364,22.139-14.123,34.457c-4.937,10.56-2.375,21.988-5.524,32.917c11.535,3.966,29.92,1.189,42.654,0.544  c-0.555-10.694,7.777-24.737,12.52-34.16c6.346-12.607,14.776-23.978,22.515-35.801c4.227-6.458,10.886-12.771,14.04-19.443  c3.53-7.47,3.492-18.446,4.142-26.59c0.865-10.843-0.455-21.684,0.192-32.657c0.568-9.637,2.644-19.474,4.002-29.04  c1.187-8.361,7.183-24.059-1.049-28.375c-8.098-4.246-23.925-2.587-32.917-2.114c1.587,6.192,2.688,11.872,2.642,18.285  C106.664,238.981,105.696,240.543,105.678,239.286z"/>
<linearGradient id="SVGID_5_-i3" gradientUnits="userSpaceOnUse" x1="88.2592" y1="308.7354" x2="155.6604" y2="308.7354">
	<stop offset="0" style="stop-color:#23286B"/>
	<stop offset="1" style="stop-color:#151A4F"/>
</linearGradient>
<path fill="url(#SVGID_5_-i3)" d="M150.433,185.44c7.31,9.198,5.331,30.213,3.652,41.412c-2.736,18.248-4.767,37.27-6.485,55.791  c-2.089,22.515-2.761,45.811-2.761,68.515c0,20.42-2.233,40.784-2.132,60.874c0.027,5.453,0.09,14.894,1.343,20.057  c-7.753-0.102-37.591-0.307-45.262,0.098c-3.181-13.133-4.62-24.013-0.611-36.957c3.929-12.683,5.068-21.075,1.886-34.266  c-3.676-15.244,1.704-22.741,7.013-36.328c2.392-6.121,0.59-9.976-0.016-16.104c-0.775-7.838,0.437-15.92,0.016-23.792  c-0.637-11.921-3.098-38.434-7.765-44.434c-4.427-5.692-10.44-12.216-11-24.667c-0.171-3.806-0.054-19.584,2.333-23  c3.298-4.719,17.318,4.418,22.22,4.024c11.002-0.884,26.552-14.287,37.005-10.695C150.682,186.351,150.712,184.802,150.433,185.44z"/>
<path fill="#89B3F4" d="M61.312,94.64c-4.454-1.803-23.302,38.552-27.402,43.872c-5.264,6.831-18.829,22.165-20.846,30.234  c-1.076,4.305,7.104,8.61,14.397,11.708c5.89,2.501,13.659,3.609,19.483,6.392c3.785,1.809,18.193,6.188,18.193,6.188  s8.658-16.993,9.842-20.06c-4.33-2.827-8.956-3.814-14.613-7.324c-6.134-3.806-6.237-4.893-13.112-3.467  c2.5-3.339,5.641-2.219,8.216-4.21c2.613-2.02,4.807-6.381,6.976-8.985c4.589-5.51,10.49-9.272,15.366-14.688  c14.265-15.844-0.349-30.128-8.832-36.993C69.607,96.09,64.979,95.64,61.312,94.64z"/>
<linearGradient id="SVGID_6_-i3" gradientUnits="userSpaceOnUse" x1="72.1141" y1="87.8804" x2="108.1141" y2="157.3804">
	<stop offset="0" style="stop-color:#A1C3FC"/>
	<stop offset="1" style="stop-color:#81AEF2"/>
</linearGradient>
<path fill="url(#SVGID_6_-i3)" d="M47.017,76.418c9.196-1.471,24.081-4.365,39.842-7.993c0.841-0.194,1.649,0.437,1.667,1.3  c0.072,3.495,0.126,5.438,0.37,8.402c0.144,1.752,2.659,2.698,4.922,3.618c7.131,2.899,13.637,5.53,19.406,11.796  c10.541,11.45,18.156,17.822,23.766,32.459c4.645,12.12,6.949,24.791,10.628,37.063c2.045,6.823,3.707,13.58,5.438,20.438  c1.04,4.12,5.149,14.252,3.846,18.076c-0.049,0.142,0.424,3.849,0.437,3.909c-23.36,0.822-48.027,1.489-69.12,1.564  c-0.011-5.826-0.073-18.67,0.093-21.742c0.277-5.153-2.673-7.418-1.587-11.528c-2.351-0.591-6.582,0.014-6.868-2.378  c-0.158-1.327-0.226-2.297,1.025-3.228c-9.144-8.948-14.267-26.796-20.464-38c-3.275-5.92-5.366-11.936-5.786-18.823  c-0.406-6.641,0.757-15.146,3.014-20.376C54.979,87.64,46.169,75.453,47.017,76.418z"/>
<path fill="none" stroke="#000000" stroke-miterlimit="10" d="M210.178,59.851c2.423,5.379,4.075,11.492,5.901,17.2  c1.229,0.231,1.51-0.631,0.844-2.585"/>
<path fill="none" stroke="#000000" stroke-miterlimit="10" d="M134.854,103.696c3.069-6.003,6.606-13.995,12.603-17.31  c6.839,4.606,23.179,3.091,26.745,8.316"/>
<g>
	<path fill="#D6D7D8" d="M112.895,94.302l-0.557-0.313c-2.937-1.652-5.744-3.869-8.458-6.012   c-5.603-4.425-11.396-8.996-18.556-8.748c-5.866,0.208-24.73,9.955-27.868,13.296c-0.378,0.403-1.011,0.422-1.414,0.044   c-0.403-0.378-0.422-1.011-0.044-1.414c3.375-3.593,22.895-13.7,29.255-13.926c7.902-0.275,13.981,4.528,19.867,9.177   c2.096,1.656,4.104,3.242,6.168,4.598c0.285-0.269,0.716-0.354,1.094-0.183c0.755,0.339,1.633,0.842,1.724,1.732   c0.031,0.305-0.018,0.888-0.692,1.375L112.895,94.302z"/>
</g>
<path fill="#23286B" d="M27.495,17.423c-4.159,2.574-7.327,9.506-7.327,9.506s-4.743,3.302-5.941,4.159  c-6.387,4.568-8.159,15.497-10.045,23.02c-1.425,5.684-1.998,15.633-0.095,21.539c2.184,6.779,3.421,6.428,9.984,6.842  c7.861,0.496,27.204-0.034,36.67-0.342c2.995-0.097,5.355-2.568,5.319-5.564c-0.088-7.267-0.199-20.146,0.005-27.388  c0.269-9.57,2.205-20.67-7.029-25.991c-3.572-2.058-7.152-4.532-11.242-4.989C35.084,17.913,27.168,17.238,27.495,17.423z"/>
<linearGradient id="SVGID_7_-i3" gradientUnits="userSpaceOnUse" x1="11.924" y1="165.453" x2="29.8672" y2="165.453">
	<stop offset="0" style="stop-color:#428DFC"/>
	<stop offset="1" style="stop-color:#1D72D8"/>
</linearGradient>
<path fill="url(#SVGID_7_-i3)" d="M23.827,150.664c6.233-1.201,0.367,12.6,0.81,15.309c0.541,3.301,8.936,15.904,3.279,14.182  c-6.958-2.119-12.938-4.795-14.853-7.965c-3.295-5.454,1.319-8.535,4.165-12.958C19.067,156.378,21.641,153.896,23.827,150.664z"/>
<g>
	<path fill="#D6D7D8" d="M111.979,175.973H84.645c-0.552,0-1-0.448-1-1s0.448-1,1-1h27.333c0.552,0,1,0.448,1,1   S112.531,175.973,111.979,175.973z"/>
</g>
<linearGradient id="SVGID_8_-i3" gradientUnits="userSpaceOnUse" x1="252.4865" y1="8.5428" x2="268.173" y2="8.5428">
	<stop offset="0" style="stop-color:#EEEEEE"/>
	<stop offset="1" style="stop-color:#D6D7D8"/>
</linearGradient>
<path fill="url(#SVGID_8_-i3)" d="M264.419,12.661c3.051-3.963,6.235-17.599,0.836-10.784c-2.029,2.561-7.161-0.397-10.212,3.566  c-3.051,3.963-3.425,8.791-0.836,10.784S261.369,16.624,264.419,12.661z"/>
<path id="texure_4_-i3" opacity="0.51" fill="#FFFFFF" enable-background="new    " d="M121.474,213.874  c0.086,0.034,0.183-0.01,0.216-0.096c0.033-0.086-0.01-0.183-0.095-0.217c-0.086-0.034-0.183,0.01-0.217,0.096l0,0  C121.346,213.744,121.388,213.84,121.474,213.874L121.474,213.874z M122.923,210.046c0.09,0.031,0.188-0.012,0.228-0.098  c0.029-0.089-0.018-0.184-0.106-0.214c-0.079-0.036-0.173-0.003-0.21,0.077c-0.003,0.005-0.005,0.011-0.007,0.019  C122.795,209.916,122.838,210.013,122.923,210.046L122.923,210.046L122.923,210.046z M138.591,213.268  c0.037,0.087,0.138,0.127,0.225,0.089l0,0c0.08-0.032,0.12-0.123,0.088-0.203c-0.002-0.007-0.005-0.014-0.01-0.02  c-0.035-0.084-0.129-0.125-0.214-0.092C138.593,213.08,138.553,213.181,138.591,213.268L138.591,213.268L138.591,213.268z   M115.379,207.441c0.065,0.062,0.169,0.06,0.232-0.005c0.062-0.066,0.06-0.169-0.005-0.232c-0.065-0.064-0.169-0.06-0.232,0.005  c-0.063,0.058-0.066,0.158-0.007,0.221C115.372,207.435,115.375,207.438,115.379,207.441z M129.903,213.016  c0.01,0.093,0.087,0.165,0.18,0.167c0.096-0.003,0.17-0.084,0.167-0.181c-0.003-0.096-0.084-0.171-0.18-0.167  C129.977,212.846,129.906,212.924,129.903,213.016z M129.782,208.923c0.005,0.092,0.086,0.162,0.178,0.156l0,0  c0.089,0.004,0.165-0.065,0.169-0.155c0-0.005,0-0.009,0-0.014c-0.006-0.095-0.085-0.168-0.18-0.167  C129.856,208.752,129.784,208.83,129.782,208.923z M99.238,215.619c0.117,0.129,0.318,0.14,0.448,0.022  c0.003-0.002,0.005-0.005,0.008-0.008c0.127-0.117,0.136-0.317,0.019-0.444c0,0-0.001-0.001-0.002-0.001  c-0.117-0.129-0.318-0.14-0.448-0.022c-0.003,0.002-0.005,0.005-0.008,0.008c-0.127,0.117-0.136,0.317-0.019,0.444  c0,0.001,0,0.001,0,0.001L99.238,215.619z M104.916,210.339c0.121,0.131,0.324,0.14,0.457,0.019c0.132-0.121,0.14-0.325,0.019-0.458  c0,0-0.002-0.003-0.004-0.004c-0.117-0.127-0.316-0.136-0.443-0.019c0,0-0.001,0.001-0.001,0.001  C104.813,210.003,104.802,210.204,104.916,210.339L104.916,210.339z M123.128,234.299c-0.003,0.177,0.136,0.324,0.312,0.331  c0.171,0.012,0.318-0.115,0.331-0.285c0-0.007,0.001-0.012,0.001-0.017c0.003-0.177-0.136-0.324-0.313-0.331  C123.285,233.989,123.137,234.124,123.128,234.299L123.128,234.299L123.128,234.299z M123.712,218.78  c-0.007,0.176,0.127,0.322,0.302,0.33c0,0,0.007,0,0.011,0c0.171,0.012,0.318-0.115,0.331-0.285c0-0.007,0.001-0.012,0.001-0.017  c0-0.179-0.136-0.328-0.314-0.343C123.866,218.464,123.718,218.603,123.712,218.78L123.712,218.78z M124,211.026  c-0.006,0.177,0.135,0.326,0.312,0.331c0.178,0.006,0.325-0.135,0.33-0.313c0.009-0.175-0.126-0.324-0.301-0.333l0,0  c-0.177-0.01-0.33,0.124-0.341,0.302C124,211.018,124,211.022,124,211.026L124,211.026z M108.157,227.194  c0.162,0.069,0.348-0.008,0.416-0.17c0.069-0.162-0.008-0.349-0.17-0.417c-0.159-0.067-0.342,0.005-0.412,0.163  C107.922,226.932,107.995,227.121,108.157,227.194L108.157,227.194z M111.39,220.134c0.162,0.069,0.348-0.008,0.416-0.17  c0.069-0.162-0.008-0.349-0.17-0.417c-0.159-0.067-0.342,0.005-0.412,0.163C111.155,219.872,111.229,220.06,111.39,220.134  L111.39,220.134z M114.626,213.084c0.166,0.07,0.357-0.008,0.427-0.174c0.068-0.159-0.001-0.345-0.157-0.421  c-0.162-0.079-0.356-0.012-0.436,0.15c-0.079,0.162-0.012,0.357,0.15,0.437C114.616,213.08,114.621,213.082,114.626,213.084z   M137.621,228.377c0.065,0.165,0.25,0.248,0.416,0.184c0.163-0.058,0.246-0.239,0.188-0.401c0,0,0-0.002-0.001-0.003  c-0.049-0.163-0.22-0.254-0.383-0.206c-0.008,0.002-0.015,0.005-0.024,0.008C137.654,228.026,137.57,228.208,137.621,228.377z   M132.239,213.814c0.055,0.16,0.229,0.247,0.39,0.192c0.004-0.001,0.009-0.003,0.014-0.006c0.167-0.055,0.256-0.236,0.202-0.403  c-0.002-0.006-0.003-0.01-0.005-0.015c-0.064-0.167-0.249-0.25-0.415-0.187c-0.166,0.064-0.25,0.25-0.187,0.415  C132.238,213.812,132.239,213.813,132.239,213.814z M101.334,223.837c0.136,0.078,0.31,0.033,0.39-0.102  c0.079-0.135,0.034-0.31-0.101-0.391c-0.136-0.081-0.31-0.034-0.39,0.102l0,0C101.154,223.581,101.199,223.755,101.334,223.837  L101.334,223.837z M104.807,217.842c0.136,0.078,0.31,0.033,0.39-0.102c0.084-0.133,0.044-0.31-0.089-0.394  c-0.133-0.084-0.309-0.044-0.393,0.09c-0.003,0.005-0.006,0.01-0.009,0.015c-0.081,0.131-0.039,0.303,0.091,0.385  C104.8,217.838,104.804,217.839,104.807,217.842L104.807,217.842z M108.16,211.68c0.013,0.07,0.058,0.131,0.122,0.166  c0.136,0.078,0.31,0.033,0.39-0.102c0.082-0.139,0.038-0.317-0.101-0.401l-0.003-0.001c-0.082-0.048-0.183-0.053-0.27-0.012  l-0.012,0.002c-0.05,0.021-0.089,0.061-0.108,0.112C108.132,211.515,108.125,211.605,108.16,211.68L108.16,211.68z M130.064,227.522  c0.047,0.154,0.205,0.243,0.361,0.206c0.148-0.038,0.236-0.189,0.199-0.337c-0.001-0.004-0.002-0.008-0.004-0.012  c-0.037-0.154-0.191-0.247-0.344-0.209c-0.002,0-0.003,0.001-0.003,0.001C130.121,227.216,130.03,227.37,130.064,227.522z   M126.52,214.123c0.037,0.154,0.191,0.247,0.345,0.21c0,0,0.003-0.001,0.006-0.002c0.145-0.032,0.236-0.178,0.203-0.322  c-0.001-0.009-0.004-0.018-0.008-0.026c-0.037-0.154-0.191-0.247-0.345-0.21c-0.002,0.001-0.003,0.001-0.006,0.002  C126.569,213.821,126.483,213.974,126.52,214.123L126.52,214.123z M124.745,207.437c0.046,0.153,0.206,0.24,0.359,0.194  c0.148-0.044,0.235-0.198,0.196-0.349c-0.045-0.149-0.196-0.24-0.349-0.208C124.797,207.121,124.707,207.28,124.745,207.437  L124.745,207.437z M115.132,224.85c-0.016,0.157,0.096,0.298,0.252,0.318c0.155,0.021,0.297-0.087,0.318-0.242  c0.018-0.157-0.088-0.302-0.242-0.331C115.3,224.577,115.153,224.689,115.132,224.85z M116.058,217.977  c-0.026,0.149,0.075,0.292,0.224,0.318c0.005,0.001,0.012,0.001,0.016,0.003c0.155,0.021,0.297-0.087,0.318-0.242  c0.018-0.157-0.088-0.302-0.242-0.331C116.218,217.709,116.077,217.821,116.058,217.977z M116.974,211.107  c-0.02,0.155,0.089,0.296,0.244,0.317c0.153,0.019,0.294-0.086,0.316-0.239c0.022-0.154-0.083-0.299-0.239-0.323  c-0.155-0.023-0.298,0.083-0.322,0.239C116.974,211.103,116.974,211.104,116.974,211.107z M136.639,212.951  c0.097,0.125,0.276,0.152,0.406,0.058c0.124-0.101,0.144-0.283,0.043-0.408c-0.096-0.118-0.267-0.143-0.391-0.056  c-0.127,0.09-0.158,0.266-0.069,0.393C136.633,212.942,136.636,212.948,136.639,212.951z M117.448,212.039  c0.005,0.092,0.086,0.162,0.178,0.156c0.092-0.005,0.162-0.086,0.156-0.178s-0.086-0.162-0.178-0.156l0,0  C117.511,211.866,117.442,211.947,117.448,212.039L117.448,212.039L117.448,212.039z M117.167,207.961  c0.012,0.094,0.095,0.161,0.19,0.154c0.092-0.005,0.162-0.086,0.156-0.178l0,0c-0.002-0.088-0.076-0.159-0.166-0.156  c-0.005,0-0.008,0-0.013,0.001c-0.094,0.003-0.169,0.081-0.168,0.176C117.167,207.958,117.167,207.959,117.167,207.961z   M109.419,208.911c0.088,0.023,0.179-0.022,0.214-0.106c0.031-0.085-0.013-0.181-0.099-0.212c-0.003-0.002-0.006-0.002-0.009-0.003  c-0.083-0.032-0.176,0.008-0.209,0.091c-0.002,0.006-0.004,0.01-0.005,0.015C109.284,208.785,109.331,208.881,109.419,208.911  L109.419,208.911z M124.917,207.896c0.04,0.084,0.139,0.118,0.222,0.078c0.084-0.041,0.118-0.14,0.077-0.224  c-0.032-0.081-0.123-0.12-0.202-0.088c-0.006,0.002-0.014,0.006-0.02,0.01c-0.082,0.037-0.118,0.136-0.08,0.218  C124.915,207.893,124.916,207.894,124.917,207.896L124.917,207.896z M98.445,210.803c0.087,0.052,0.201,0.024,0.253-0.063  c0.001-0.001,0.002-0.003,0.003-0.005c0.056-0.088,0.031-0.204-0.056-0.26c-0.004-0.002-0.009-0.005-0.013-0.008  c-0.087-0.052-0.201-0.024-0.253,0.063c-0.001,0.001-0.002,0.003-0.003,0.005C98.323,210.628,98.354,210.746,98.445,210.803  L98.445,210.803z M117.768,213.5c0.019,0.097,0.114,0.16,0.21,0.14c0.007-0.001,0.015-0.004,0.022-0.007  c0.101-0.027,0.161-0.131,0.135-0.232c-0.031-0.1-0.131-0.163-0.235-0.146C117.797,213.285,117.737,213.394,117.768,213.5  C117.767,213.498,117.767,213.498,117.768,213.5L117.768,213.5z M116.609,208.979c0.03,0.105,0.138,0.164,0.243,0.133l0,0  c0.101-0.027,0.161-0.131,0.135-0.232c-0.031-0.1-0.131-0.163-0.235-0.146C116.648,208.765,116.587,208.872,116.609,208.979  L116.609,208.979z M108.16,211.68c0.023,0.015,0.049,0.027,0.075,0.033c0.103,0.016,0.2-0.055,0.215-0.159  c0-0.002,0.001-0.003,0.002-0.006c0.013-0.103-0.054-0.197-0.153-0.218l-0.012,0.002c-0.103-0.016-0.2,0.055-0.215,0.159  c0,0.002-0.001,0.005-0.002,0.006C108.059,211.572,108.095,211.645,108.16,211.68L108.16,211.68z M125.422,207.378  c0.063,0.085,0.183,0.102,0.268,0.039c0.001-0.002,0.004-0.003,0.004-0.004c0.082-0.063,0.099-0.18,0.036-0.263  c-0.055-0.085-0.168-0.11-0.254-0.055c-0.004,0.003-0.006,0.004-0.011,0.007C125.379,207.167,125.359,207.289,125.422,207.378  L125.422,207.378z M101.432,231.197c-0.015,0.182,0.114,0.344,0.297,0.37c0.18,0.022,0.346-0.104,0.37-0.284  c0.017-0.183-0.114-0.347-0.297-0.37C101.621,230.889,101.456,231.016,101.432,231.197L101.432,231.197z M102.419,223.253  c-0.023,0.181,0.104,0.346,0.284,0.371s0.346-0.104,0.37-0.285c0.023-0.181-0.104-0.346-0.284-0.371  C102.609,222.945,102.444,223.072,102.419,223.253L102.419,223.253z M103.395,215.311c-0.017,0.183,0.114,0.347,0.296,0.37  c0.181,0.016,0.341-0.117,0.357-0.298c0.017-0.18-0.117-0.341-0.297-0.358C103.576,215.007,103.417,215.134,103.395,215.311z   M129.009,216.154c0.114,0.141,0.318,0.168,0.464,0.059c0.145-0.112,0.172-0.319,0.06-0.464c-0.112-0.145-0.319-0.172-0.464-0.059  l0,0C128.927,215.803,128.9,216.008,129.009,216.154L129.009,216.154z M124.099,209.844c0.113,0.142,0.318,0.17,0.464,0.059  c0.143-0.118,0.168-0.327,0.057-0.476c-0.119-0.142-0.33-0.159-0.47-0.042C124.015,209.501,123.993,209.702,124.099,209.844z   M114.874,218.869c0.05,0.178,0.234,0.282,0.411,0.233l0,0c0.171-0.049,0.271-0.228,0.222-0.399l0,0  c-0.044-0.176-0.223-0.281-0.398-0.237c-0.176,0.044-0.281,0.223-0.236,0.399L114.874,218.869L114.874,218.869z M112.748,211.158  c0.044,0.174,0.22,0.279,0.394,0.236c0.002,0,0.004-0.001,0.006-0.002c0.179-0.044,0.289-0.225,0.245-0.405  c-0.044-0.179-0.224-0.289-0.404-0.245c-0.179,0.044-0.289,0.225-0.245,0.405C112.745,211.152,112.746,211.156,112.748,211.158z   M110.447,221.555c0.044,0.179,0.224,0.288,0.403,0.245c0.173-0.044,0.281-0.218,0.247-0.392c-0.047-0.179-0.224-0.291-0.405-0.257  C110.516,221.2,110.408,221.376,110.447,221.555L110.447,221.555z M108.649,213.788c0.044,0.179,0.224,0.288,0.403,0.245  c0.176-0.04,0.287-0.216,0.247-0.392c-0.04-0.176-0.216-0.288-0.392-0.248l0,0C108.731,213.435,108.616,213.609,108.649,213.788  L108.649,213.788z M96.858,217.556c-0.027,0.178,0.094,0.344,0.27,0.373c0,0,0.001,0.001,0.002,0  c0.18,0.033,0.351-0.085,0.385-0.264c0.027-0.182-0.095-0.351-0.275-0.385C97.06,217.256,96.892,217.377,96.858,217.556  L96.858,217.556z M98.171,209.684c-0.034,0.179,0.086,0.35,0.264,0.383c0.178,0.034,0.349-0.086,0.382-0.264  c0-0.002,0.001-0.005,0.001-0.009c0.025-0.18-0.096-0.35-0.275-0.385c-0.177-0.028-0.343,0.094-0.372,0.271  C98.172,209.682,98.172,209.682,98.171,209.684L98.171,209.684z M125.337,219.025c0.11,0.146,0.318,0.179,0.466,0.071  c0.145-0.106,0.179-0.31,0.073-0.456c-0.097-0.149-0.297-0.19-0.445-0.093c-0.004,0.003-0.008,0.004-0.012,0.009  c-0.152,0.102-0.192,0.308-0.088,0.46C125.332,219.02,125.334,219.022,125.337,219.025z M120.71,212.537  c0.11,0.146,0.318,0.179,0.466,0.071c0.145-0.106,0.179-0.31,0.073-0.456c-0.097-0.149-0.297-0.19-0.445-0.093  c-0.004,0.003-0.008,0.004-0.012,0.009c-0.152,0.102-0.191,0.309-0.088,0.46C120.706,212.531,120.708,212.534,120.71,212.537z   M111.967,215.558c0.059,0.124,0.207,0.177,0.332,0.118c0.121-0.058,0.174-0.201,0.121-0.324c-0.051-0.121-0.19-0.179-0.311-0.129  c-0.008,0.003-0.016,0.007-0.023,0.011C111.966,215.293,111.913,215.437,111.967,215.558z M109.428,210.122  c0.059,0.125,0.21,0.177,0.334,0.118c0.124-0.059,0.177-0.211,0.117-0.335c-0.057-0.124-0.203-0.178-0.326-0.122  c-0.003,0.001-0.005,0.003-0.008,0.004C109.423,209.849,109.371,209.997,109.428,210.122L109.428,210.122z M99.23,215.375  c0.009,0.136,0.126,0.24,0.261,0.234c0.135-0.015,0.235-0.127,0.234-0.262c-0.006-0.136-0.122-0.242-0.259-0.235l0,0  c-0.133,0.003-0.239,0.111-0.237,0.243C99.229,215.364,99.229,215.369,99.23,215.375z M98.955,209.363  c0.009,0.139,0.125,0.246,0.264,0.245c0.136-0.006,0.241-0.122,0.235-0.259c0,0,0,0,0-0.002c-0.002-0.133-0.109-0.238-0.242-0.237  c0,0-0.006,0.001-0.009,0.001c-0.137,0.001-0.247,0.111-0.248,0.248C98.954,209.359,98.955,209.361,98.955,209.363L98.955,209.363z"/>
<linearGradient id="SVGID_9_-i3" gradientUnits="userSpaceOnUse" x1="105.234" y1="212.4874" x2="175.4869" y2="212.4874">
	<stop offset="0" style="stop-color:#EEEEEE"/>
	<stop offset="1" style="stop-color:#D6D7D8"/>
</linearGradient>
<path fill="url(#SVGID_9_-i3)" d="M123.16,111.314c8.039,7.546,8.108,25.038,5.769,34.967c-2.94,12.482-11.326,23.637-23.695,28.306  c14.877,4.27,23.836,7.519,32.068,22.041c6.299,11.112,11.781,22.963,16.453,34.984c9.008,23.177,7.421,52.873,6.468,77.642  c-0.247,6.426-0.839,11.438-0.61,17.213c2.461-0.377,8.697,0.2,11.458,0.231c6.472,0.072,3.841-1.965,4.102-8.608  c0.215-5.476-0.099-8.709-0.265-14.469c-0.409-14.192,0.044-28.983-1.399-43.201c-2.852-28.11-7.771-57.926-15.385-84.771  c-3.748-13.216-10.489-27.015-16.259-39.881c-5.642-12.579-10.377-27.388-24.212-37.494  C119.312,102.776,119.77,108.131,123.16,111.314z"/>
<linearGradient id="SVGID_10_-i3" gradientUnits="userSpaceOnUse" x1="94.7915" y1="59.1547" x2="135.5132" y2="77.756">
	<stop offset="0" style="stop-color:#A1C3FC"/>
	<stop offset="1" style="stop-color:#81AEF2"/>
</linearGradient>
<path fill="url(#SVGID_10_-i3)" d="M85.391,78.436c-14.671,4.96-13.18,18.014-3.35,28.646c9.344,10.106,22.731,8.211,34.826,5.612  c11.648-2.503,23.322-4.759,34.965-7.13c14.296-2.911,25.731-8.521,39.177-15.056c9.293-4.516,19.276-9.299,29.109-11.31  c-4.342-7.07-6.971-15.478-9.495-22.884c-9.723,4.156-21.915,7.95-32.218,9.581c-5.183,0.821-42.197,6.146-43.357,6.258  c-5.459,0.527-10.529,1.062-16.084,1.399c-11.082,0.672-21.645,1.497-32.272,4.508C86.422,78.23,85.906,78.436,85.391,78.436z"/>
<circle fill="#F7931E" cx="139.944" cy="160.265" r="9.091"/>
<circle fill="#22B573" cx="148.685" cy="173.901" r="5.944"/>
<linearGradient id="SVGID_11_-i3" gradientUnits="userSpaceOnUse" x1="138.9229" y1="98.2314" x2="180.2281" y2="98.2314">
	<stop offset="0" style="stop-color:#428DFC"/>
	<stop offset="1" style="stop-color:#1D72D8"/>
</linearGradient>
<path fill="url(#SVGID_11_-i3)" d="M142.312,106.307c-8.379-1.438,1.007-11.213,4.333-13c4.601-2.472,11.869-3.587,17.017-3.701  c2.827-0.063,17.36-0.186,16.531,5.033c-0.5,3.147-13.573,6.392-16.215,7.253c-6.393,2.083-14.682,4.759-21.282,4.982  C143.118,106.702,141.878,106.069,142.312,106.307z"/>
<path fill="#22B573" d="M142.053,136.182c-2.958,0.342-5.256,2.851-5.256,5.901c0,3.283,2.661,5.944,5.944,5.944  c1.536,0,2.931-0.588,3.986-1.544C145.152,143.004,143.571,139.562,142.053,136.182z"/>
<path fill="#ED1E79" d="M157.104,172.28c-1.815-5.712-4.114-11.507-6.595-17.267c-2.735,1.641-4.572,4.627-4.572,8.049  c0,5.186,4.204,9.391,9.391,9.391C155.936,172.453,156.529,172.39,157.104,172.28z"/>
<path fill="#ED1E79" d="M159.283,179.851c-4.052,1.041-7.052,4.708-7.052,9.085c0,5.186,4.204,9.391,9.391,9.391  c0.728,0,1.434-0.091,2.114-0.248C162.375,191.904,160.895,185.812,159.283,179.851z"/>

</g>
</g>
</g>

<!-- ITEM 4 -->
<g transform="translate(275.0 522.0) rotate(0.0 167.0 416.0) scale(2.0000119761196173 1.99504595559584)">
<g transform="translate(-0.0 -0.0)">
<g clip-path="url(#clipPathId-collage-item-4)">
		<defs>
			<clipPath id="clipPathId-collage-item-4">
				<rect x="0.0" y="0.0" width="166.999" height="417.033"/>
			</clipPath>
		</defs>

<path fill="#151A4F" d="M26.103,399.159c2.971,0.703,5.942,1.405,8.913,2.108c13.477,3.187,27.575,6.378,41.02,3.057  c1.646-0.406,3.462-1.074,4.131-2.632c0.912-2.125-1.029-4.556-3.252-5.193s-4.585-0.095-6.888,0.114  c-7.893,0.717-15.837-2.693-21.559-8.177s-9.369-12.867-11.382-20.532c-4.471,1.969-6.521,7.056-8.143,11.665  c-1.698,4.822-3.395,9.643-5.093,14.465c-0.478,1.358-0.902,3.031,0.058,4.105C24.454,398.752,25.305,398.971,26.103,399.159z"/>
<path fill="#1D72D8" d="M115.399,184.45c7.493,19.947-18.943,89.374-25.535,109.819c-8.572,26.585-25.203,50.288-33.234,77.338  c-1.884,6.346-1.808,13.562-2.712,19.891c-0.452,3.164-7.843,2.757-15.157-0.139c-10.815-4.281-6.255-16.525-5.794-27.557  c1.079-25.852,11.622-51.864,5.874-76.861c-3.838-16.695-10.078-33.667-11.744-50.583c-1.624-16.492-2.901-49.235,8.411-62.357  C61.83,143.465,103.969,126.554,115.399,184.45z"/>
<path fill="#F2A19C" d="M132.846,31.216c2.403-3.712,6.507-12.278,3.65-15.744c-3.557-0.103-8.606-0.348-12.199,0.201  c-4.359,0.384,2.881,11.472-0.441,15.581c-2.927,3.62-6.219,6.987-7.948,11.43C122.553,39.648,126.462,33.972,132.846,31.216z"/>
<g>
	<path fill="#23286B" d="M116.193,32.365c-0.747,0-1.475-0.386-1.878-1.077c-0.605-1.037-0.256-2.367,0.78-2.973L158.348,3.05   c1.038-0.604,2.368-0.255,2.972,0.78c0.605,1.037,0.256,2.367-0.78,2.973l-43.253,25.265   C116.942,32.269,116.565,32.365,116.193,32.365z"/>
</g>
<path fill="#FFBEB6" d="M120.559,55.638c-0.828-4.787-0.891-10.099,2.77-13.136c4.242-3.519,7.14-4.436,10.606-8.919  c1.427-1.554-0.157-11.503-2.036-16.455c-0.932-1.407-2.286-1.939-4.198-0.536c-1.229,0.902-4.945,4.207-5.844,5.475  c-2.787,3.929,0.061,5.087,0.931,8.137c2.439,0.322,4.085-0.59,3.439-4.655c-0.211-1.331,0.601-2.67,2.25-2.666  c0.141,1.23,0.984,3.386-0.11,4.732c-3.927,4.828-14.233,10.187-17.129,13.673c-6.077,7.312,0.273,13.194,0.928,21.541  c2.585-1.545,5.871-1.993,8.344-3.907C120.108,57.716,120.922,57.153,120.559,55.638z"/>
<path fill="#23286B" d="M20.679,410.461c2.971,0.703,5.942,1.405,8.913,2.108c13.477,3.187,27.575,6.378,41.02,3.057  c1.646-0.406,3.462-1.074,4.131-2.632c0.912-2.125-1.029-4.556-3.252-5.193c-2.223-0.637-4.585-0.095-6.888,0.114  c-7.893,0.717-15.837-2.693-21.559-8.177s-9.369-12.867-11.382-20.532c-4.471,1.969-6.521,7.056-8.143,11.665  c-1.698,4.822-3.395,9.643-5.093,14.465c-0.478,1.358-0.902,3.031,0.058,4.105C19.029,410.053,19.88,410.272,20.679,410.461z"/>
<path fill="#151A4F" d="M116.882,150.159c-5.205-1.746-7.689-7.525-9.565-12.684c-3.498-9.622-7.047-19.546-6.65-29.777  c0.454-11.715,6.034-22.617,7.898-34.192c1.233-7.66,0.805-15.584-1.247-23.066c4.606,0.498,9.307,0.104,13.766-1.152  c1.789,13.943,10.954,25.69,16.076,38.78c3.299,8.431,4.92,17.515,4.74,26.567c-0.212,10.677-3.135,21.666-10.207,29.669  C127.964,148.523,122.221,151.95,116.882,150.159z"/>
<linearGradient id="SVGID_1_-i4" gradientUnits="userSpaceOnUse" x1="-5.8349" y1="317.8582" x2="103.5031" y2="202.6101">
	<stop offset="0" style="stop-color:#428DFC"/>
	<stop offset="1" style="stop-color:#1D72D8"/>
</linearGradient>
<path fill="url(#SVGID_1_-i4)" d="M38.526,395.31c-4.674-23.919,0.692-51.826,17.724-70.199c4.527-4.884,13.231-16.704,17.558-21.766  c6.595-7.715,10.542-18.312,13.11-24.412c8.738-20.752,19.439-40.686,30.067-93.31c0.295-1.462,7.557-29.395,6.068-29.498  c-13.312-0.923-27.22-3.701-29.246-3.82c-28.826-1.693-34.032,4.35-62.619,8.419c-3.864,0.55-8.288,1.473-10.128,4.915  c-4.761,17.731-7.954,35.882-9.53,54.173c-1.235,14.338-1.453,28.982,2.21,42.899c2.657,10.092,7.297,19.577,9.954,29.669  s-1.147,16.343-4.969,31.088c-1.808,6.973-14.199,27.852-2.731,72.087C20.14,398.718,34.677,397.784,38.526,395.31z"/>
<linearGradient id="SVGID_2_-i4" gradientUnits="userSpaceOnUse" x1="71.2884" y1="196.2175" x2="71.2884" y2="85.4041">
	<stop offset="0" style="stop-color:#23286B"/>
	<stop offset="1" style="stop-color:#151A4F"/>
</linearGradient>
<path fill="url(#SVGID_2_-i4)" d="M42.094,64.858C21.272,92.346,7.198,124.907,1.442,158.907c-1.378,8.141-2.276,16.575-0.28,24.587  c44.57,16.842,95.857,15.052,139.143-4.858c7.933-37.213-5.315-78.207-33.526-103.74C93.755,63.107,76.22,54.262,58.994,57.71  C48.049,59.901,48.834,55.96,42.094,64.858z"/>
<rect x="106.513" y="72.745" transform="matrix(-0.9336 0.3584 -0.3584 -0.9336 287.7643 153.8906)" fill="#A1C3FC" width="46.213" height="61.741"/>
<path fill="#E94A47" d="M37.137,12.872c3.006-1.387,3.508-5.945,1.376-8.477c-2.132-2.533-5.969-3.097-9.126-2.101  s-5.742,3.272-7.997,5.695c-2.133,2.292-4.108,4.854-4.975,7.862c-0.866,3.008-0.43,6.55,1.764,8.783  c3.125,3.179,8.683,2.564,12.234-0.13s5.58-6.887,7.481-10.918C39.287,16.769,35.746,9.689,37.137,12.872z"/>
<path fill="#F2A19C" d="M64.579,56.718c-0.023,0.591-0.05,1.202-0.305,1.735c-0.614,1.283-2.249,1.645-3.667,1.759  c-7.323,0.589-14.827-1.391-20.906-5.516c1.05-6.156,0.902-12.514-0.433-18.615c2.666,1.562,5.988,1.237,9.055,0.863  c5.7-0.695,11.401-1.391,17.101-2.086C65.142,42.145,64.86,49.431,64.579,56.718z"/>
<path fill="#FFBEB6" d="M31.527,27.362c0.154-1.43,0.473-2.835,0.791-4.238c0.333-1.468,0.666-2.936,0.999-4.405  c0.368-1.62,0.754-3.284,1.695-4.653c1.188-1.727,3.13-2.788,5.107-3.487c6.693-2.368,14.569-1.035,20.11,3.404  s8.561,11.834,7.711,18.883c-0.185,1.533-0.541,3.05-1.126,4.479c-0.989,2.417-2.625,4.547-4.613,6.24  c-5.649,4.81-14.28,5.758-20.839,2.289S30.73,34.739,31.527,27.362z"/>
<g>
	<path fill="#23286B" d="M46.154,36.139c-4.918,0-8.919-4.001-8.919-8.919s4.001-8.919,8.919-8.919c4.919,0,8.92,4.001,8.92,8.919   S51.073,36.139,46.154,36.139z M46.154,19.8c-4.091,0-7.419,3.328-7.419,7.419s3.328,7.419,7.419,7.419   c4.092,0,7.42-3.328,7.42-7.419S50.246,19.8,46.154,19.8z"/>
</g>
<g>
	<path fill="#23286B" d="M63.174,27.97c-4.918,0-8.919-4.001-8.919-8.919s4.001-8.919,8.919-8.919c4.919,0,8.92,4.001,8.92,8.919   S68.093,27.97,63.174,27.97z M63.174,11.631c-4.091,0-7.419,3.328-7.419,7.419s3.328,7.419,7.419,7.419   c4.092,0,7.42-3.328,7.42-7.419S67.265,11.631,63.174,11.631z"/>
</g>
<g>
	<path fill="#E94A47" d="M25.827,45.808c-1.678,0-3.323-0.271-4.86-0.82c-0.26-0.093-0.396-0.379-0.303-0.639   c0.094-0.26,0.379-0.396,0.639-0.303c3.482,1.242,7.581,0.955,11.244-0.787c3.664-1.743,6.473-4.743,7.705-8.229   c0.891-2.521,1.089-5.277,1.28-7.943c0.105-1.471,0.214-2.991,0.438-4.475c0.422-2.819,1.257-5.554,2.482-8.13   c0.793-1.668,2.058-3.815,3.571-4.572c0.249-0.123,0.546-0.023,0.671,0.224c0.123,0.247,0.023,0.547-0.224,0.671   c-0.982,0.491-2.089,1.95-3.116,4.107c-1.183,2.487-1.988,5.127-2.396,7.849c-0.217,1.445-0.324,2.947-0.429,4.398   c-0.196,2.732-0.398,5.557-1.334,8.205c-1.32,3.736-4.316,6.943-8.219,8.799C30.682,45.254,28.223,45.808,25.827,45.808z"/>
</g>
<path fill="#E94A47" d="M28.966,12.983c2.927-2.998,8.792-4.915,12.982-4.894c4.19,0.022,9.321,1.101,12.111,2.439  c-7.564,1.034-14.321,4.233-16.898,11.419c-1.432,3.994-1.337,10.416-2.898,14.362c-1.561,3.945-6.537,7.407-10.752,6.919  c2.435-4.645,1.887-10.205,1.655-15.444C24.935,22.544,25.302,16.736,28.966,12.983z"/>
<path fill="#FFBEB6" d="M139.549,91.257c6.414-3.836,1.548-13.334,3.034-14.63c3.498-3.051,4.259,2.222,5.093,6.327  c0.211,1.041,0.729,3.248,1.006,3.406c3.406,1.935,13.889,3.724,12.075,7.353c-0.451,0.903-2.072,1.606-2.322,2.554  c-1.036,3.93,0.448,8.372-2.399,11.997c-4.995-6.2-14.604-0.41-21.671-2.77c0.789-3.165,1.005-8.066,2.088-11.627  c0.166-0.545,1.252-2.567,1.084-2.012L139.549,91.257z"/>
<linearGradient id="SVGID_3_-i4" gradientUnits="userSpaceOnUse" x1="34.0417" y1="108.7875" x2="120.9542" y2="67.504">
	<stop offset="0" style="stop-color:#23286B"/>
	<stop offset="1" style="stop-color:#151A4F"/>
</linearGradient>
<path fill="url(#SVGID_3_-i4)" d="M70,129.19c-15.308-3.687-31.698-8.021-41.822-20.081c-3.975-4.735-6.709-10.395-8.853-16.194  c-2.895-7.834-4.76-16.613-1.882-24.453c4.766-12.986,21.374-18.418,34.753-14.905s23.952,13.617,33.032,24.053  c4.062,4.669,8.201,10.887,5.783,16.584c15.786-8.183,34.45-7.059,48.847-3.034c2.322,5.96,1.545,13.832,0.405,15.411  c-0.293,0.406-3.177,2.524-5.035,3.399c-11.489,5.418-19.72,16.67-31.728,20.811C92.779,134.476,81.026,131.846,70,129.19z"/>
<g>
	<path fill="#23286B" d="M51.247,21.283c-0.126,0-0.253-0.032-0.37-0.098c-0.36-0.205-0.485-0.663-0.28-1.023   c0.127-0.224,0.245-0.467,0.364-0.713c0.622-1.28,1.567-3.212,4.276-2.511c0.401,0.104,0.643,0.513,0.539,0.914   c-0.104,0.401-0.518,0.639-0.914,0.538c-1.464-0.377-1.879,0.328-2.552,1.714c-0.135,0.276-0.268,0.549-0.411,0.8   C51.762,21.147,51.508,21.283,51.247,21.283z"/>
</g>
<path fill="#E94A47" d="M156.624,4.081c0.485,0.906,1.066,2.066,1.699,2.9c0.573,0.755,0.702,0.724,0.702,0.724  s1.951-1.104,2.268-1.334c2.024-1.468,2.885-2.499,4.559-4.114c0.785-0.758,1.626-2.487-0.031-2.257  c-0.881,0.122-1.842,0.282-2.664,0.587c-2.072,0.768-3.944,1.961-5.905,3.003C156.913,3.769,156.624,3.947,156.624,4.081z"/>
<path id="texture-2_9_-i4" fill="#FFFFFF" d="M18.222,225.035c0.069-0.117,0.028-0.269-0.09-0.337c-0.117-0.069-0.269-0.028-0.337,0.09  c-0.069,0.117-0.028,0.269,0.09,0.337l0,0C18.002,225.193,18.153,225.155,18.222,225.035L18.222,225.035z M21.243,199.908  c0.135-0.034,0.216-0.174,0.18-0.309l0,0c-0.028-0.125-0.153-0.202-0.276-0.174c-0.01,0.001-0.021,0.005-0.031,0.009  c-0.131,0.03-0.211,0.16-0.182,0.292C20.971,199.86,21.109,199.942,21.243,199.908L21.243,199.908L21.243,199.908z M18.895,212.535  c0.138,0.008,0.261-0.09,0.286-0.225c0.017-0.14-0.083-0.269-0.225-0.286c-0.14-0.017-0.269,0.083-0.286,0.225  C18.664,212.388,18.758,212.51,18.895,212.535z M48.372,227.269c0.257,0.045,0.503-0.124,0.554-0.381  c0.057-0.245-0.095-0.49-0.339-0.549c-0.009-0.001-0.016-0.004-0.025-0.005c-0.257-0.045-0.503,0.124-0.554,0.381  C47.956,226.968,48.119,227.217,48.372,227.269L48.372,227.269z M37.136,225.084c0.26,0.044,0.505-0.129,0.548-0.389  c0.044-0.255-0.123-0.497-0.376-0.546c-0.253-0.052-0.501,0.11-0.553,0.363l0,0C36.715,224.775,36.882,225.023,37.136,225.084z   M25.883,222.884c0.253,0.051,0.498-0.111,0.549-0.364c0.001-0.005,0.001-0.01,0.003-0.016c0.057-0.245-0.095-0.49-0.339-0.549  c-0.009-0.001-0.016-0.004-0.025-0.005c-0.26-0.042-0.509,0.126-0.571,0.381C25.458,222.589,25.627,222.835,25.883,222.884z   M34.599,247.512c0.137-0.221,0.069-0.51-0.153-0.646c-0.221-0.137-0.51-0.069-0.646,0.153c-0.133,0.217-0.07,0.5,0.143,0.64  C34.164,247.796,34.455,247.731,34.599,247.512L34.599,247.512z M25.046,241.185c0.136-0.221,0.069-0.51-0.153-0.646  c-0.221-0.137-0.51-0.069-0.646,0.153c-0.133,0.217-0.07,0.5,0.143,0.64C24.609,241.468,24.902,241.403,25.046,241.185  L25.046,241.185z M43.045,204.758c0.256-0.058,0.418-0.308,0.364-0.566c-0.048-0.252-0.292-0.414-0.542-0.365  c0,0-0.004,0-0.005,0.001c-0.249,0.035-0.422,0.264-0.387,0.512c0.001,0.012,0.004,0.024,0.005,0.037  C42.541,204.632,42.786,204.798,43.045,204.758z M31.809,207.033c0.254-0.061,0.421-0.306,0.381-0.565  c-0.058-0.256-0.309-0.418-0.565-0.364c-0.254,0.052-0.419,0.301-0.366,0.556c0,0.003,0.001,0.007,0.001,0.007  c0.049,0.253,0.292,0.415,0.541,0.368C31.807,207.033,31.808,207.033,31.809,207.033z M20.592,209.306  c0.247-0.044,0.413-0.278,0.368-0.524c-0.001-0.007-0.003-0.014-0.005-0.021c-0.042-0.256-0.285-0.428-0.541-0.386  c-0.008,0.001-0.016,0.003-0.024,0.004c-0.257,0.054-0.422,0.306-0.368,0.562c0.054,0.257,0.308,0.422,0.562,0.368  C20.588,209.306,20.59,209.306,20.592,209.306z M28.148,256.712c0.145-0.18,0.119-0.445-0.06-0.593  c-0.179-0.147-0.445-0.12-0.593,0.06c-0.148,0.18-0.12,0.445,0.06,0.593l0,0C27.735,256.915,27.999,256.889,28.148,256.712z   M40.076,215.6c0.235-0.035,0.402-0.243,0.382-0.481c-0.021-0.224-0.221-0.389-0.445-0.367c-0.007,0.001-0.012,0.001-0.018,0.003  c-0.232,0.019-0.404,0.224-0.382,0.455c0,0.003,0.001,0.005,0.001,0.008C39.644,215.445,39.845,215.613,40.076,215.6L40.076,215.6z   M29.923,216.654c0.23-0.028,0.392-0.236,0.367-0.462c-0.021-0.224-0.221-0.389-0.445-0.367c-0.007,0.001-0.012,0.001-0.018,0.003  c-0.232,0.019-0.404,0.224-0.385,0.455c0,0.003,0.001,0.005,0.001,0.008C29.478,216.519,29.691,216.682,29.923,216.654  L29.923,216.654z M19.737,217.726c0.232-0.019,0.404-0.224,0.385-0.455l-0.001-0.008c-0.014-0.219-0.205-0.384-0.424-0.37  c-0.013,0-0.028,0.003-0.041,0.005c-0.232,0.019-0.404,0.224-0.385,0.455c0,0.003,0.001,0.005,0.001,0.008  C19.306,217.585,19.51,217.746,19.737,217.726L19.737,217.726z M32.773,236.796c0.226,0.059,0.456-0.072,0.52-0.297  c0.067-0.222-0.059-0.454-0.279-0.52c-0.224-0.063-0.46,0.06-0.537,0.279C32.413,236.487,32.545,236.726,32.773,236.796  L32.773,236.796z M22.967,233.877c0.213,0.07,0.443-0.043,0.514-0.254c0.003-0.008,0.004-0.016,0.008-0.024  c0.067-0.222-0.059-0.454-0.279-0.52c-0.224-0.063-0.46,0.06-0.537,0.279C22.612,233.581,22.743,233.813,22.967,233.877  L22.967,233.877z M29.33,197.799c0.197-0.101,0.274-0.342,0.174-0.538c-0.004-0.008-0.008-0.016-0.012-0.022  c-0.105-0.207-0.359-0.289-0.566-0.185c-0.004,0.003-0.009,0.005-0.013,0.007c-0.199,0.12-0.27,0.373-0.16,0.579  c0.108,0.202,0.36,0.277,0.562,0.17C29.32,197.807,29.324,197.802,29.33,197.799L29.33,197.799z M20.337,202.683  c0.206-0.113,0.285-0.369,0.177-0.579c-0.118-0.204-0.38-0.276-0.584-0.158c-0.195,0.112-0.27,0.357-0.171,0.559  c0.101,0.206,0.352,0.291,0.557,0.189C20.323,202.692,20.331,202.687,20.337,202.683L20.337,202.683z M38.897,258.242  c0.263,0.063,0.529-0.089,0.605-0.349c0.074-0.259-0.073-0.529-0.33-0.604c-0.263-0.066-0.531,0.088-0.605,0.349  C38.493,257.896,38.64,258.166,38.897,258.242L38.897,258.242z M27.544,254.992c0.259,0.076,0.529-0.073,0.604-0.33  s-0.073-0.529-0.33-0.604c-0.259-0.076-0.529,0.073-0.604,0.33C27.138,254.646,27.287,254.916,27.544,254.992L27.544,254.992z   M33.583,208.819c0.235-0.139,0.321-0.439,0.193-0.681c-0.139-0.233-0.444-0.309-0.677-0.168c-0.225,0.136-0.304,0.424-0.18,0.655  C33.054,208.857,33.345,208.943,33.583,208.819L33.583,208.819z M23.264,214.554c0.231-0.134,0.317-0.426,0.193-0.664  c-0.13-0.237-0.427-0.323-0.664-0.193c-0.237,0.13-0.323,0.427-0.193,0.664C22.733,214.593,23.028,214.677,23.264,214.554  L23.264,214.554z M35.738,234.462c0.264-0.044,0.451-0.283,0.433-0.549c-0.04-0.265-0.284-0.449-0.549-0.416  c-0.264,0.024-0.459,0.258-0.433,0.523c0,0,0.001,0.007,0.001,0.01C35.221,234.301,35.465,234.493,35.738,234.462  C35.736,234.462,35.738,234.462,35.738,234.462L35.738,234.462z M23.998,235.811c0.271-0.032,0.464-0.278,0.433-0.548l0-0.001  c-0.031-0.261-0.27-0.448-0.531-0.415l0,0c-0.266,0.031-0.459,0.27-0.428,0.535C23.498,235.644,23.734,235.835,23.998,235.811  L23.998,235.811z M38.633,242.027c0.265-0.027,0.459-0.264,0.432-0.532c-0.027-0.268-0.264-0.459-0.532-0.432  c-0.258,0.027-0.451,0.253-0.433,0.512C38.124,241.848,38.362,242.048,38.633,242.027L38.633,242.027z M26.902,242.885  c0.27-0.024,0.472-0.262,0.449-0.532c-0.025-0.262-0.253-0.459-0.515-0.45c-0.271,0.028-0.474,0.261-0.466,0.532  C26.398,242.703,26.633,242.9,26.902,242.885L26.902,242.885z M26.61,220.569c0.239-0.128,0.332-0.423,0.21-0.664  c-0.121-0.236-0.411-0.331-0.647-0.21c-0.239,0.108-0.346,0.389-0.238,0.627c0.003,0.007,0.005,0.013,0.011,0.018  c0.115,0.245,0.405,0.35,0.65,0.234C26.601,220.574,26.606,220.572,26.61,220.569L26.61,220.569z"/>
<path fill="#23286B" d="M165.821,0c-0.88,0.122-1.842,0.282-2.664,0.587c-0.161,0.06-0.315,0.137-0.474,0.201l1.602,3.016  c0.479-0.473,0.971-0.972,1.567-1.547C166.637,1.499,167.477-0.23,165.821,0z"/>

</g>
</g>
</g>

              </svg>