<?xml version="1.0" encoding="UTF-8"?><svg version="1.1" xmlns="http://www.w3.org/2000/svg" xmlns:xlink="http://www.w3.org/1999/xlink" viewBox="0 0 1500 1500" width="1500" height="1500" x="0px" y="0px">
              
              <!-- ITEM 0 -->
<g transform="translate(78.0 87.0) rotate(0.0 651.0 488.0) scale(1.6275 1.6266666666666667)">
<g transform="translate(-0.0 -0.0)">
<g clip-path="url(#clipPathId-collage-item-0)">
		<defs>
			<clipPath id="clipPathId-collage-item-0">
				<rect x="0.0" y="0.0" width="800.0" height="600.0"/>
			</clipPath>
		</defs>

<path style="fill:#F4F4F4;" d="M62.274,62.102c-0.026,0.652-0.049,1.304-0.049,1.962c0,27.092,21.963,49.055,49.055,49.055  s49.055-21.963,49.055-49.055c0-0.658-0.023-1.31-0.049-1.962H62.274z"/>
<path style="fill:#E7EFFE;" d="M113.698,62.102c-0.019,0.473-0.036,0.947-0.036,1.426c0,19.682,15.955,35.637,35.637,35.637  s35.637-15.955,35.637-35.637c0-0.478-0.018-0.952-0.036-1.426H113.698z"/>
<g>
	
		<linearGradient id="SVGID_1_-i0" gradientUnits="userSpaceOnUse" x1="4299.187" y1="-2368.2825" x2="5794.3984" y2="-2368.2825" gradientTransform="matrix(0.1 0 0 -0.1 0 18)">
		<stop offset="0" style="stop-color:#B9D3FD"/>
		<stop offset="1" style="stop-color:#89B3F4"/>
	</linearGradient>
	<path style="fill:url(#SVGID_1_-i0);" d="M578.832,277.191c1.624,4.865-0.262,10.185-2.658,14.72   c-6.624,12.537-17.429,22.818-30.28,28.811c-7.186,3.351-14.917,5.372-22.24,8.411c-21.367,8.869-38.824,26.748-47.179,48.321   c2.502-15.002-5.42-29.8-14.929-41.671c-9.508-11.871-21-22.432-27.771-36.051c-5.818-11.702-5.949-29.044,5.867-34.628   c8.719-4.12,19.604,0.48,28.463-3.331c3.132-1.347,6.026-4.21,5.845-7.615c-0.461-8.704-17.611-8.082-18.046-16.787   c-0.498-9.953,25.724-7.06,22.412-16.459c-1.41-4.001-6.974-5.132-8.943-8.891s-1.827-8.987,1.475-11.651   c4.37-3.524,10.913-0.753,16.397-1.954c6.242-1.367,10.167-7.777,11.433-14.04c1.266-6.263,0.612-12.766,1.53-19.09   c2.259-15.564,14.933-29.072,30.322-32.316s32.438,3.998,40.787,17.325c3.424,5.467,5.322,12.879,1.644,18.178   c-3.113,4.484-9.904,7.317-9.356,12.748c0.747,7.412,14.369,8.064,14.617,15.509c0.289,8.688-17.598,8.704-17.091,17.382   c0.227,3.874,4.299,6.144,6.771,9.136c4.637,5.613,2.797,15.283-3.576,18.801c-2.532,1.398-5.592,1.943-7.668,3.958   c-5.163,5.012-0.114,13.875,5.982,17.697C568.736,267.531,576.555,270.366,578.832,277.191z"/>
	
		<linearGradient id="SVGID_2_-i0" gradientUnits="userSpaceOnUse" x1="4786.8447" y1="-2716.7583" x2="6347.3921" y2="-2716.7583" gradientTransform="matrix(0.1 0 0 -0.1 0 18)">
		<stop offset="0" style="stop-color:#DEEAFE"/>
		<stop offset="1" style="stop-color:#E9F1FE"/>
	</linearGradient>
	<path style="fill:url(#SVGID_2_-i0);" d="M533.779,277.828c3.668-1.995,7.544-3.84,10.365-6.918   c5.995-6.537,5.591-16.446,6.063-25.303c0.472-8.857,3.6-19.308,12.142-21.694c7.132-1.993,16.179,2.376,21.463-2.811   c1.962-1.926,2.758-4.714,4.168-7.076c6.06-10.152,22.182-9.367,30.988-1.477c8.806,7.889,12.171,20.035,15.125,31.483   c1.077,4.174,1.225,10.087-2.938,11.204c-3.957,1.061-7.933-3.833-11.735-2.309c-3.05,1.222-3.244,5.536-2.153,8.634   c1.091,3.099,2.969,6.227,2.255,9.433c-1.364,6.12-9.982,6.462-16.029,4.802c-6.047-1.66-13.934-3.253-17.394,1.975   c3.828,12.348,7.146,27.331-1.496,36.946c-9.997,11.12-28.311,9.964-43.199,11.359c-27.663,2.593-47.202,23.692-62.698,46.755   C477.865,334.345,499.963,296.225,533.779,277.828z"/>
</g>
<path style="fill:#E0EBFE;" d="M520.874,229.504l-4.699-12.825c-1.694-0.083-3.363,0.102-4.981,0.645l5.081,13.866  c0.284,0.777-0.115,1.639-0.892,1.925c-0.777,0.284-1.639-0.115-1.925-0.892l-4.987-13.607c-1.51,0.946-2.809,2.194-3.873,3.671  l4.207,11.481c0.284,0.777-0.115,1.639-0.892,1.925c-0.777,0.284-1.639-0.115-1.925-0.892l-3.305-9.017  c-1.898,4.697-2.009,10.645,0.132,16.489c0.05,0.137,0.102,0.272,0.155,0.406c-1.1,0.635-2.174,1.321-3.205,2.078  c-2.892,2.124-6.62,5.728-7.957,10.836l1.451,0.379c1.226-4.683,4.697-8.026,7.394-10.007c0.93-0.682,1.901-1.308,2.901-1.891  c2.245,4.974,5.837,8.843,9.857,10.981l-3.14-8.568c-0.284-0.777,0.115-1.639,0.892-1.925c0.777-0.284,1.639,0.115,1.925,0.892  l4.046,11.041c1.765,0.437,3.557,0.534,5.307,0.243l-4.701-12.83c-0.284-0.777,0.115-1.639,0.892-1.925  c0.777-0.284,1.639,0.115,1.925,0.892l4.766,13.005c1.537-0.68,2.907-1.697,4.137-2.949l-4.304-11.742  c-0.284-0.777,0.115-1.639,0.892-1.925c0.777-0.284,1.639,0.115,1.925,0.892l3.698,10.093c1.195-1.698,2.238-3.607,3.171-5.583  l-2.321-6.336c-0.284-0.777,0.115-1.639,0.892-1.925c0.777-0.284,1.639,0.115,1.925,0.892l1.236,3.374  c2.285-5.674,3.904-11.093,5.813-12.906c-3.232-0.68-7.835-3.774-12.933-6.524l1.6,4.368c0.284,0.777-0.115,1.639-0.892,1.925  c-0.777,0.284-1.639-0.115-1.925-0.892l-2.697-7.36c-1.975-0.898-3.987-1.652-5.994-2.118l4.142,11.304  c0.284,0.777-0.115,1.639-0.892,1.925C522.02,230.681,521.159,230.282,520.874,229.504z"/>
<path style="fill:#C1D7FD;" d="M475.527,576.663H303.046c-17.673,0-31.999-14.327-31.999-31.999V115.486  c0-17.673,14.327-31.999,31.999-31.999h172.481c17.673,0,31.999,14.327,31.999,31.999v429.179  C507.527,562.338,493.2,576.663,475.527,576.663z"/>
<circle style="fill:#A1C3FC;" cx="355.311" cy="114.456" r="5.599"/>
<path style="fill:#A1C3FC;" d="M475.527,83.486h-33.111c-1.698,1.056-3.367,2.14-5.002,3.235  c-43.381,29.044-80.692,70.164-95.209,120.311c-5.852,20.213-7.88,41.317-12.329,61.885c-10.186,47.093-32.881,90.566-58.83,131.187  v144.561c0,17.673,14.327,31.999,31.999,31.999h172.482c17.673,0,31.999-14.327,31.999-31.999V115.486  C507.526,97.813,493.2,83.486,475.527,83.486z"/>
<linearGradient id="SVGID_3_-i0" gradientUnits="userSpaceOnUse" x1="3711.4111" y1="-5298.5854" x2="4108.8608" y2="-5298.5854" gradientTransform="matrix(0.1 0 0 -0.1 0 18)">
	<stop offset="0" style="stop-color:#A1C3FC"/>
	<stop offset="1" style="stop-color:#8AB8FD"/>
</linearGradient>
<circle style="fill:url(#SVGID_3_-i0);" cx="391.014" cy="547.859" r="19.872"/>
<rect x="370.787" y="110.291" transform="matrix(-0.9923 0.1238 -0.1238 -0.9923 792.7905 178.2198)" style="fill:#A1C3FC;" width="40.142" height="6.902"/>
<rect x="280.413" y="139.316" style="fill:#FFFFFF;" width="217.749" height="382.008"/>
<circle style="fill:#C1D7FD;" cx="388.672" cy="545.517" r="15.19"/>
<g>
	<path style="fill:#428DFC;" d="M405.481,114.123H372.75c-0.647,0-1.171-0.524-1.171-1.171s0.523-1.171,1.171-1.171h32.731   c0.647,0,1.171,0.524,1.171,1.171S406.128,114.123,405.481,114.123z"/>
</g>
<circle style="fill:#428DFC;" cx="355.449" cy="113.775" r="3.841"/>
<rect x="267.603" y="140.418" style="fill:#D62929;" width="3.934" height="16.962"/>
<rect x="267.603" y="177.785" style="fill:#D62929;" width="3.934" height="30.484"/>
<rect x="507.595" y="177.785" style="fill:#D62929;" width="3.934" height="30.484"/>
<rect x="267.603" y="217.61" style="fill:#D62929;" width="3.934" height="30.484"/>
<rect x="346.841" y="107.474" transform="matrix(-0.6794 -0.7338 0.7338 -0.6794 507.3928 444.632)" style="fill:#FFFFFF;" width="7.987" height="7.987"/>
<rect x="344.231" y="107.625" transform="matrix(-0.6794 -0.7338 0.7338 -0.6794 501.7925 440.1468)" style="fill:#A1C3FC;" width="5.646" height="5.646"/>
<path style="fill:none;stroke:#23286B;stroke-linecap:round;stroke-miterlimit:10;" d="M393.306,266.16"/>
<g>
	<path style="fill:#D3E3FE;" d="M623.527,12.169c-0.028,0.708-0.054,1.418-0.054,2.134c0,29.459,23.882,53.341,53.341,53.341   s53.341-23.882,53.341-53.341c0-0.715-0.026-1.425-0.054-2.134C730.102,12.169,623.527,12.169,623.527,12.169z"/>
	<path style="fill:#F6F9FF;" d="M679.444,12.169c-0.02,0.515-0.039,1.03-0.039,1.55c0,21.401,17.35,38.751,38.751,38.751   c21.401,0,38.751-17.35,38.751-38.751c0-0.52-0.019-1.035-0.04-1.55C756.868,12.169,679.444,12.169,679.444,12.169z"/>
	<path style="fill:#D3E3FE;" d="M721.924,12.169c-0.016,0.413-0.032,0.825-0.032,1.242c0,17.154,13.907,31.061,31.061,31.061   c17.154,0,31.061-13.907,31.061-31.061c0-0.417-0.015-0.83-0.032-1.242C783.982,12.169,721.924,12.169,721.924,12.169z"/>
</g>
<g>
	
		<linearGradient id="SVGID_4_-i0" gradientUnits="userSpaceOnUse" x1="3694.251" y1="-3621.6628" x2="5401.811" y2="-3621.6628" gradientTransform="matrix(-0.0964 0.0265 -0.0265 -0.0964 553.4375 -2.2095)">
		<stop offset="0" style="stop-color:#B9D3FD"/>
		<stop offset="1" style="stop-color:#89B3F4"/>
	</linearGradient>
	<path style="fill:url(#SVGID_4_-i0);" d="M136.083,514.685c-0.315,5.849,3.373,11.137,7.385,15.405   c11.09,11.799,26.103,19.848,42.068,22.555c8.928,1.514,18.052,1.398,27.036,2.528c26.215,3.295,50.85,17.696,66.584,38.922   c-7.298-15.762-3.057-34.456,3.82-50.406c6.877-15.951,16.329-31.061,19.661-48.108c2.864-14.649-2.244-33.783-16.947-36.353   c-10.849-1.897-21.442,6.466-32.351,4.952c-3.856-0.535-7.91-2.811-8.743-6.614c-2.128-9.724,16.945-14.232,14.787-23.95   c-2.467-11.11-30.463,0.015-29.663-11.337c0.341-4.834,6.125-7.764,7.155-12.498s-0.708-10.45-5.152-12.382   c-5.878-2.557-12.245,2.476-18.647,2.814c-7.288,0.385-13.551-5.484-16.84-11.998c-3.29-6.514-4.54-13.873-7.465-20.559   c-7.201-16.454-25.247-27.49-43.175-26.401c-17.928,1.089-34.507,14.225-39.665,31.43c-2.115,7.057-1.96,15.793,3.695,20.514   c4.785,3.996,13.122,5.057,14.163,11.204c1.421,8.388-13.381,13.231-11.399,21.504c2.312,9.655,22.015,4.255,24.083,13.965   c0.924,4.334-2.874,8.067-4.689,12.111c-3.407,7.585,1.548,17.676,9.632,19.621c3.211,0.773,6.747,0.446,9.642,2.036   c7.203,3.955,4.327,15.244-1.227,21.3C144.276,500.991,136.524,506.479,136.083,514.685z"/>
	
		<linearGradient id="SVGID_5_-i0" gradientUnits="userSpaceOnUse" x1="4251.1563" y1="-4019.624" x2="6033.3091" y2="-4019.624" gradientTransform="matrix(-0.0964 0.0265 -0.0265 -0.0964 553.4375 -2.2095)">
		<stop offset="0" style="stop-color:#DEEAFE"/>
		<stop offset="1" style="stop-color:#E9F1FE"/>
	</linearGradient>
	<path style="fill:url(#SVGID_5_-i0);" d="M185.886,501.743c-4.643-1.086-9.47-1.943-13.509-4.478   c-8.581-5.383-11.137-16.415-14.339-26.026s-9.812-20.171-19.94-20.211c-8.456-0.034-17.096,7.516-24.486,3.404   c-2.744-1.527-4.465-4.356-6.731-6.529c-9.747-9.344-27.262-3.596-34.569,7.757c-7.307,11.355-7.334,25.747-7.12,39.249   c0.078,4.922,1.707,11.479,6.628,11.447c4.678-0.029,7.574-6.624,12.222-6.096c3.727,0.423,5.248,5.114,4.985,8.856   c-0.263,3.743-1.384,7.756,0.375,11.07c3.355,6.326,12.949,4.093,19.105,0.434c6.155-3.658,14.357-7.803,19.752-3.093   c-0.475,14.757,0.407,32.26,12.837,40.229c14.375,9.217,34.192,2.398,51.008-0.575c31.247-5.522,59.152,11.795,83.199,32.496   C264.571,547.041,228.695,511.758,185.886,501.743z"/>
	<path style="fill:none;stroke:#428DFC;stroke-width:2;stroke-linecap:round;stroke-miterlimit:10;" d="M278.784,596.043   c-10.565-27.741-19.127-56.24-25.635-85.202"/>
	
		<ellipse transform="matrix(0.2235 0.9747 -0.9747 0.2235 691.3912 147.7384)" style="fill:#23286B;" cx="252.971" cy="507.805" rx="5.66" ry="15.138"/>
	<path style="fill:none;stroke:#428DFC;stroke-width:2;stroke-linecap:round;stroke-miterlimit:10;" d="M252.369,507.325   c-3.59-16.418-6.523-32.98-8.788-49.633"/>
	
		<ellipse transform="matrix(0.3174 0.9483 -0.9483 0.3174 596.3788 79.2732)" style="fill:#23286B;" cx="243.125" cy="453.891" rx="6.822" ry="18.242"/>
	<path style="fill:none;stroke:#428DFC;stroke-width:2;stroke-linecap:round;stroke-miterlimit:10;" d="M243,453.306   c-1.775-13.776-3.094-27.61-3.952-41.473"/>
	
		<ellipse transform="matrix(0.0106 0.9999 -0.9999 0.0106 644.7682 162.9077)" style="fill:#23286B;" cx="240.062" cy="407.274" rx="6.821" ry="18.241"/>
	<path style="fill:none;stroke:#428DFC;stroke-width:2;stroke-linecap:round;stroke-miterlimit:10;" d="M238.72,406.097   c-0.556-10.55-0.844-21.116-0.863-31.681"/>
	
		<ellipse transform="matrix(0.0106 0.9999 -0.9999 0.0106 604.3446 126.9483)" style="fill:#23286B;" cx="238.022" cy="368.867" rx="9.145" ry="24.456"/>
	<path style="fill:none;stroke:#428DFC;stroke-width:2;stroke-linecap:round;stroke-miterlimit:10;" d="M237.884,367.25   c0.069-7.042,0.256-14.083,0.565-21.119"/>
</g>
<g>
	<path style="fill:#C8DCF8;" d="M198.963,44.499h-19.586c1.138-0.359,2.276-0.659,3.473-0.838h12.578   C196.627,43.899,197.765,44.199,198.963,44.499z M203.395,46.236h-28.449c-0.599,0.24-1.138,0.539-1.676,0.838h31.743   C204.533,46.774,203.935,46.475,203.395,46.236z M207.528,48.81h-37.075c-0.419,0.3-0.779,0.539-1.198,0.838h39.17   C208.127,49.35,207.827,49.05,207.528,48.81z M209.744,51.326H167.16c-0.3,0.3-0.659,0.539-0.959,0.838h43.962   C210.043,51.925,209.924,51.626,209.744,51.326z M210.943,53.902h-46.418c-0.24,0.3-0.479,0.539-0.779,0.838h47.435   C211.122,54.441,211.002,54.201,210.943,53.902z M211.6,56.477h-49.232c-0.24,0.3-0.419,0.539-0.599,0.838h49.951   C211.661,57.017,211.6,56.717,211.6,56.477z M211.9,58.993h-51.269c-0.179,0.3-0.359,0.539-0.479,0.838h51.867   C211.96,59.591,211.96,59.293,211.9,58.993z M212.02,61.568h-52.826c-0.119,0.3-0.3,0.539-0.419,0.838h53.245   C212.02,62.107,212.02,61.868,212.02,61.568z M211.541,64.443c0.06-0.119,0.06-0.179,0.119-0.3h-53.605   c-0.119,0.3-0.24,0.539-0.3,0.838h53.425C211.302,64.802,211.421,64.623,211.541,64.443z M208.067,66.958   c0.179-0.119,0.359-0.179,0.539-0.24h-51.389c-0.06,0.3-0.119,0.539-0.24,0.838h50.07   C207.348,67.318,207.708,67.139,208.067,66.958z M204.773,69.234h-48.154c-0.06,0.3-0.119,0.539-0.119,0.838h47.435   C204.174,69.774,204.473,69.474,204.773,69.234z M202.437,71.75H156.2c0,0.3-0.06,0.539-0.06,0.838h45.699   C202.018,72.349,202.197,72.05,202.437,71.75z M200.82,74.326h-44.74c0,0.3,0,0.539,0,0.838H200.4   C200.521,74.925,200.7,74.625,200.82,74.326z M199.742,76.901H156.2c0,0.3,0.06,0.539,0.119,0.838h43.183   C199.562,77.44,199.682,77.141,199.742,76.901z M199.083,79.417h-42.464c0.06,0.3,0.119,0.599,0.179,0.838h42.165   C199.024,80.015,199.083,79.715,199.083,79.417z M198.843,81.992h-41.506c0.119,0.3,0.179,0.599,0.3,0.838h41.207   C198.843,82.591,198.843,82.291,198.843,81.992z M158.895,85.406h40.248c-0.06-0.3-0.119-0.539-0.119-0.838h-40.548   C158.595,84.807,158.774,85.106,158.895,85.406z M160.571,87.921h39.23c-0.06-0.3-0.179-0.539-0.24-0.838h-39.589   C160.152,87.382,160.332,87.682,160.571,87.921z M162.847,90.496h37.373c0-0.3,0-0.539-0.06-0.838h-38.213   C162.308,89.958,162.608,90.257,162.847,90.496z M166.022,92.893c0.119,0.06,0.179,0.119,0.3,0.179h33.121   c0.179-0.24,0.359-0.539,0.479-0.838h-34.918C165.363,92.414,165.663,92.712,166.022,92.893z M173.568,95.588h21.382   c0.838-0.179,1.617-0.479,2.395-0.838h-27.072C171.352,95.109,172.43,95.408,173.568,95.588z"/>
</g>
<g>
	<path style="fill:#EEEEEE;" d="M703.156,535.811h19.586c-1.138,0.359-2.276,0.659-3.473,0.838h-12.578   C705.493,536.409,704.355,536.109,703.156,535.811z M698.725,534.074h28.449c0.599-0.24,1.138-0.539,1.676-0.838h-31.743   C697.586,533.535,698.186,533.834,698.725,534.074z M694.591,531.498h37.075c0.419-0.3,0.779-0.539,1.198-0.838h-39.17   C693.993,530.96,694.293,531.258,694.591,531.498z M692.375,528.982h42.584c0.3-0.3,0.659-0.539,0.959-0.838h-43.962   C692.077,528.384,692.196,528.683,692.375,528.982z M691.178,526.407h46.418c0.24-0.3,0.479-0.539,0.779-0.838h-47.435   C690.999,525.868,691.118,526.108,691.178,526.407z M690.52,523.831h49.232c0.24-0.3,0.419-0.539,0.599-0.838h-49.951   C690.459,523.293,690.52,523.592,690.52,523.831z M690.22,521.317h51.269c0.179-0.3,0.359-0.539,0.479-0.838h-51.867   C690.16,520.717,690.16,521.017,690.22,521.317z M690.1,518.741h52.826c0.119-0.3,0.3-0.539,0.419-0.838H690.1   C690.1,518.201,690.1,518.441,690.1,518.741z M690.58,515.866c-0.06,0.119-0.06,0.179-0.119,0.3h53.605   c0.119-0.3,0.24-0.539,0.3-0.838H690.94C690.818,515.506,690.699,515.687,690.58,515.866z M694.053,513.35   c-0.179,0.119-0.359,0.179-0.539,0.24h51.389c0.06-0.3,0.119-0.539,0.24-0.838h-50.07   C694.772,512.991,694.412,513.171,694.053,513.35z M697.347,511.074h48.154c0.06-0.3,0.119-0.539,0.119-0.838h-47.435   C697.946,510.536,697.647,510.835,697.347,511.074z M699.683,508.558h46.238c0-0.3,0.06-0.539,0.06-0.838h-45.699   C700.102,507.96,699.923,508.26,699.683,508.558z M701.3,505.984h44.74c0-0.3,0-0.539,0-0.838h-44.321   C701.599,505.385,701.42,505.684,701.3,505.984z M702.378,503.409h43.543c0-0.3-0.06-0.539-0.119-0.838h-43.183   C702.558,502.869,702.439,503.169,702.378,503.409z M703.037,500.893h42.465c-0.06-0.3-0.119-0.599-0.179-0.838h-42.165   C703.097,500.293,703.037,500.593,703.037,500.893z M703.277,498.317h41.506c-0.119-0.3-0.18-0.599-0.3-0.838h-41.207   C703.277,497.718,703.277,498.018,703.277,498.317z M743.226,494.904h-40.248c0.06,0.3,0.119,0.539,0.119,0.838h40.548   C743.525,495.502,743.345,495.203,743.226,494.904z M741.549,492.388h-39.23c0.06,0.3,0.179,0.539,0.24,0.838h39.589   C741.968,492.926,741.788,492.628,741.549,492.388z M739.272,489.812h-37.373c0,0.3,0,0.539,0.06,0.838h38.213   C739.812,490.352,739.512,490.052,739.272,489.812z M736.098,487.417c-0.119-0.06-0.18-0.119-0.3-0.179h-33.121   c-0.18,0.24-0.359,0.539-0.479,0.838h34.918C736.758,487.896,736.458,487.596,736.098,487.417z M728.552,484.721h-21.381   c-0.838,0.18-1.617,0.479-2.395,0.838h27.072C730.768,485.201,729.69,484.901,728.552,484.721z"/>
</g>
<circle style="fill:#A1C3FC;" cx="661.087" cy="457.776" r="5.933"/>
<circle style="fill:#A1C3FC;" cx="34.108" cy="149.231" r="5.933"/>

</g>
</g>
</g>

<!-- ITEM 1 -->
<g transform="translate(618.0 373.0) rotate(0.0 272.0 164.0) scale(1.6585365853658536 1.6565656565656566)">
<g transform="translate(-0.0 -0.0)">
<g clip-path="url(#clipPathId-collage-item-1)">
		<defs>
			<clipPath id="clipPathId-collage-item-1">
				<rect x="0.0" y="0.0" width="328.0" height="198.0"/>
			</clipPath>
		</defs>

<rect x="0" y="0" fill="#EEEEEE" width="328" height="198"/>
<linearGradient id="SVGID_1_-i1" gradientUnits="userSpaceOnUse" x1="2.804" y1="17.9785" x2="323.629" y2="17.9785">
	<stop offset="0" style="stop-color:#B0CDFC"/>
	<stop offset="1" style="stop-color:#81AEF2"/>
</linearGradient>
<path fill="url(#SVGID_1_-i1)" d="M323.629,34.49H2.804V14.275c0-7.073,5.734-12.807,12.807-12.807h308.018V34.49z"/>
<path fill="#78A9EF" d="M40.639,38.084H5.712V17.771c0-7.019,5.69-12.709,12.709-12.709h22.218V38.084z"/>
<rect x="14.175" y="12.573" fill="#89B3F4" width="18" height="18"/>
<linearGradient id="SVGID_2_-i1" gradientUnits="userSpaceOnUse" x1="5.3333" y1="59" x2="64.8333" y2="59">
	<stop offset="0" style="stop-color:#EEEEEE"/>
	<stop offset="1" style="stop-color:#D6D7D8"/>
</linearGradient>
<rect x="5.333" y="52" fill="url(#SVGID_2_-i1)" width="59.5" height="14"/>
<rect x="59.167" y="52" fill="#F2F2F2" width="59.5" height="14"/>
<linearGradient id="SVGID_3_-i1" gradientUnits="userSpaceOnUse" x1="113" y1="59" x2="172.5" y2="59">
	<stop offset="0" style="stop-color:#EEEEEE"/>
	<stop offset="1" style="stop-color:#D6D7D8"/>
</linearGradient>
<rect x="113" y="52" fill="url(#SVGID_3_-i1)" width="59.5" height="14"/>
<rect x="166.833" y="52" fill="#F2F2F2" width="59.5" height="14"/>
<linearGradient id="SVGID_4_-i1" gradientUnits="userSpaceOnUse" x1="220.6667" y1="59" x2="280.1667" y2="59">
	<stop offset="0" style="stop-color:#EEEEEE"/>
	<stop offset="1" style="stop-color:#D6D7D8"/>
</linearGradient>
<rect x="220.667" y="52" fill="url(#SVGID_4_-i1)" width="59.5" height="14"/>
<rect x="263.5" y="52" fill="#F2F2F2" width="59.5" height="14"/>
<path fill="#F7F7F7" d="M296,45.333H63.333c-3.3,0-6-2.7-6-6v-2.667c0-3.3,2.7-6,6-6H296c3.3,0,6,2.7,6,6v2.667  C302,42.633,299.3,45.333,296,45.333z"/>
<circle fill="#23286B" cx="74.459" cy="41.238" r="1.5"/>
<circle fill="#23286B" cx="82.458" cy="41.238" r="1.5"/>
<circle fill="#23286B" cx="90.457" cy="41.238" r="1.5"/>

</g>
</g>
</g>

<!-- ITEM 2 -->
<g transform="translate(1256.0 541.0) rotate(0.0 -252.5 426.5) scale(-1.8831127667587715 1.8817103489657212)">
<g transform="translate(-0.0 -0.0)">
<g clip-path="url(#clipPathId-collage-item-2)">
		<defs>
			<clipPath id="clipPathId-collage-item-2">
				<rect x="0.0" y="0.0" width="268.173" height="453.311"/>
			</clipPath>
		</defs>

<path fill="#F2A19C" d="M68.911,171.378c2.337-0.833,8.519,4.12,11.05,5.131c3.693,1.475,8.382,2.87,10.762,6.145  c3.082,4.241,1.064,8.216-0.613,12.628c-1.54,4.052-1.381,5.624-2.798,9.692c-0.858,2.463-2.632,4.912-5.322,4.931  c-1.904,0.014-13.703,0.64-15.365,0.086c-2.928-0.976-6.05-7.552-7.905-10.198c-3.665-5.226,2.857-5.337,6.332-3.327  c2.242,1.297,4.232,4.112,6.529,4.898c2.246,0.769,3.483,0.094,5.859-0.027c0.592-2.367,1.212-5.623,0.941-8.084  c-0.291-2.641-3.441-4.322-5.863-4.962c-5.163-1.364-10.683-1.852-15.937-2.565c0.984-2.618,5.301-5.39,7.142-7.576  c2.015-2.392,3.68-5.133,5.824-7.47C69.237,171.277,69.175,170.758,68.911,171.378z"/>
<linearGradient id="SVGID_1_-i2" gradientUnits="userSpaceOnUse" x1="82.749" y1="125.9711" x2="91.3186" y2="124.167" gradientTransform="matrix(0.9842 -0.177 0.177 0.9842 -27.3312 88.3556)">
	<stop offset="0" style="stop-color:#FFBEB6"/>
	<stop offset="1" style="stop-color:#F2A19C"/>
</linearGradient>
<path fill="url(#SVGID_1_-i2)" d="M83.438,189.58c-1.416,3.994-6.028,4.193-9.269,5.792c-3.397,1.676-8.94,2.525-9.713,5.872  c-1.461,6.327,5.725,3.6,8.265,2.638c3.488-1.321,6.647-3.45,10.294-3.914c3.128-0.398,5.397-2.344,5.416-5.557  C88.445,192.041,86.185,189.92,83.438,189.58z"/>
<linearGradient id="SVGID_2_-i2" gradientUnits="userSpaceOnUse" x1="-56.8873" y1="439.9737" x2="22.417" y2="439.9737" gradientTransform="matrix(1 0 -0.16 1 161.8314 0)">
	<stop offset="0" style="stop-color:#428DFC"/>
	<stop offset="1" style="stop-color:#1D72D8"/>
</linearGradient>
<path fill="url(#SVGID_2_-i2)" d="M37.702,427.714c-2.017,8.163-6.465,24.62-3.556,25.378c6.769,0.245,64.527,0.245,77.132,0.191  c1.187-1.904,0.914-3.562,0.251-5.427c-1.802-5.064-7.935-9.231-13.044-11.05c-5.109-1.819-8.354-2.124-13.346-4.166  c-5.702-2.333-9.169-4.8-15.457-5.746c-2.543-0.382-8.758-0.26-11.407-0.137C51.417,427.076,44.56,427.395,37.702,427.714z"/>
<g>
	<path fill="#23286B" d="M217.977,61.64c-0.688,0-1.378-0.235-1.942-0.715c-1.262-1.074-1.415-2.967-0.341-4.229l38-44.667   c1.074-1.263,2.968-1.414,4.229-0.341c1.262,1.074,1.415,2.967,0.341,4.229l-38,44.667C219.67,61.282,218.826,61.64,217.977,61.64z   "/>
</g>
<path fill="#FFBEB6" d="M206.645,59.307c2.107-1.656,6.621-2.929,7.951-5.316c1.372-2.463,0.594-5.061,1.716-7.351  c1.105-2.256,13.456-11.744,14.765-10.424c1.619,1.633-0.757,6.367-1.774,7.757c-2.01,2.747-5.204,4.287-6.324,7.333  c-1.192,3.243-0.018,4.873-2.651,7.64c-2.806,2.949-7.237,6.174-10.682,8.352c-0.488,0.309-1.16,1.247-1.594,1.641  C207.431,66.822,205.07,60.545,206.645,59.307z"/>
<path fill="#FFBEB6" d="M229.1,47.37c1.979-1.231,8.927-6.918,11.368-6.394c4.3,0.923,0.886,7.196,0.355,9.236  c-1.491,5.727,0.718,10.753-1.509,16.331c-2.73,6.838-6.946,5.059-13.411,6.404c-3.406,0.709-8.722,2.734-11.723,4.618  c-3.439,2.16-6.053,4.927-9.901,6.624c0.962-6.174-1.942-11.774-4.174-17.556c2.56-1.689,5.916-2.488,8.747-3.899  c1.834-0.914,3.813-2.578,5.624-2.955C214.496,60.142,223.029,51.144,229.1,47.37z"/>
<path fill="#F2A19C" d="M48.92,68.047c1.586,7.877,10.607,14.314,12.918,22.019c5.029,0.456,19.503-0.794,21.327-5.657  c1.072-2.857-0.528-7.653-1.163-10.31c-1.356-5.677-5.516-11.3-6.517-16.678c-3.135,2.042-8.206,2.258-11.836,3.33  c-2.148,0.634-2.727,1.272-4.605,2.351C56.409,64.615,51.622,67.185,48.92,68.047z"/>
<linearGradient id="SVGID_3_-i2" gradientUnits="userSpaceOnUse" x1="76.9322" y1="58.2001" x2="48.4336" y2="47.7006">
	<stop offset="0" style="stop-color:#FFBEB6"/>
	<stop offset="1" style="stop-color:#F2A19C"/>
</linearGradient>
<path fill="url(#SVGID_3_-i2)" d="M16.867,42.083C21.011,34.868,37.8,8.881,50.863,18.017c10.752,7.521,31.331,16.597,29.507,19.011  c-4.691,5.765-4.235,5.758-0.925,11.919c2.655,4.94,5.216,8.856,2.262,13.958c-4.183,7.223-17.236,11.67-24.981,13.287  C36.716,80.37,17.558,66.226,16.71,45.527C17.214,44.776,15.868,41.764,16.867,42.083z"/>
<path fill="#23286B" d="M77.796,45.346c-3.778,1.958-9.676,3.939-9.233,10.059c0.378,5.229,6.347,8.731,10.421,8.16  C95.604,61.236,86.905,52.674,77.796,45.346z"/>
<path fill="#23286B" d="M25.958,19.705C32.83,5.616,63.122,8.427,69.242,23.01c-10.43,11.552-19.562,18.782-32.811,31.588  C34.017,49.665,24.486,20.498,25.958,19.705z"/>
<g>
	<path fill="#23286B" d="M0.759,79.628c-0.273,0-0.497-0.22-0.5-0.494c-0.012-1.061-0.058-2.228-0.106-3.492   c-0.377-9.768-0.946-24.529,10.364-41.345c2.672-3.972,8.624-8.604,12.589-8.857c0.273-0.013,0.513,0.191,0.531,0.467   c0.018,0.275-0.191,0.513-0.467,0.531c-3.309,0.211-9.055,4.302-11.823,8.417C0.218,51.4,0.78,65.965,1.152,75.603   c0.049,1.274,0.094,2.45,0.107,3.519c0.003,0.276-0.218,0.502-0.494,0.506C0.763,79.628,0.761,79.628,0.759,79.628z"/>
</g>
<g>
	<path fill="#23286B" d="M1.61,44.678c-0.02,0-0.04-0.001-0.061-0.003c-0.274-0.033-0.469-0.282-0.437-0.557   c0.6-4.975,6.255-11.069,9.162-13.596c4.117-3.579,8.9-4.073,13.457-4.073c0.276,0,0.5,0.224,0.5,0.5s-0.224,0.5-0.5,0.5   c-4.362,0-8.932,0.464-12.8,3.828c-2.806,2.44-8.262,8.289-8.825,12.961C2.076,44.491,1.86,44.678,1.61,44.678z"/>
</g>
<linearGradient id="SVGID_4_-i2" gradientUnits="userSpaceOnUse" x1="5.7793" y1="439.9737" x2="85.0836" y2="439.9737" gradientTransform="matrix(1 0 -0.16 1 161.8314 0)">
	<stop offset="0" style="stop-color:#428DFC"/>
	<stop offset="1" style="stop-color:#1D72D8"/>
</linearGradient>
<path fill="url(#SVGID_4_-i2)" d="M100.369,427.714c-2.017,8.163-6.465,24.62-3.556,25.378c6.769,0.245,64.527,0.245,77.132,0.191  c1.187-1.904,0.914-3.562,0.251-5.427c-1.802-5.064-7.935-9.231-13.044-11.05c-5.109-1.819-8.354-2.124-13.346-4.166  c-5.702-2.333-9.169-4.8-15.457-5.746c-2.543-0.382-8.758-0.26-11.407-0.137C114.084,427.076,107.226,427.395,100.369,427.714z"/>
<rect x="125.552" y="221.503" fill="#428DFC" width="40.559" height="104.888"/>
<path fill="#151A4F" d="M105.678,239.286c-2.328-0.856-24.622,77-29.562,87.444c-5.994,12.673-17.078,19.375-19.425,34.043  c-2.181,13.636-8.364,22.139-14.123,34.457c-4.937,10.56-2.375,21.988-5.524,32.917c11.535,3.966,29.92,1.189,42.654,0.544  c-0.555-10.694,7.777-24.737,12.52-34.16c6.346-12.607,14.776-23.978,22.515-35.801c4.227-6.458,10.886-12.771,14.04-19.443  c3.53-7.47,3.492-18.446,4.142-26.59c0.865-10.843-0.455-21.684,0.192-32.657c0.568-9.637,2.644-19.474,4.002-29.04  c1.187-8.361,7.183-24.059-1.049-28.375c-8.098-4.246-23.925-2.587-32.917-2.114c1.587,6.192,2.688,11.872,2.642,18.285  C106.664,238.981,105.696,240.543,105.678,239.286z"/>
<linearGradient id="SVGID_5_-i2" gradientUnits="userSpaceOnUse" x1="88.2592" y1="308.7354" x2="155.6604" y2="308.7354">
	<stop offset="0" style="stop-color:#23286B"/>
	<stop offset="1" style="stop-color:#151A4F"/>
</linearGradient>
<path fill="url(#SVGID_5_-i2)" d="M150.433,185.44c7.31,9.198,5.331,30.213,3.652,41.412c-2.736,18.248-4.767,37.27-6.485,55.791  c-2.089,22.515-2.761,45.811-2.761,68.515c0,20.42-2.233,40.784-2.132,60.874c0.027,5.453,0.09,14.894,1.343,20.057  c-7.753-0.102-37.591-0.307-45.262,0.098c-3.181-13.133-4.62-24.013-0.611-36.957c3.929-12.683,5.068-21.075,1.886-34.266  c-3.676-15.244,1.704-22.741,7.013-36.328c2.392-6.121,0.59-9.976-0.016-16.104c-0.775-7.838,0.437-15.92,0.016-23.792  c-0.637-11.921-3.098-38.434-7.765-44.434c-4.427-5.692-10.44-12.216-11-24.667c-0.171-3.806-0.054-19.584,2.333-23  c3.298-4.719,17.318,4.418,22.22,4.024c11.002-0.884,26.552-14.287,37.005-10.695C150.682,186.351,150.712,184.802,150.433,185.44z"/>
<path fill="#89B3F4" d="M61.312,94.64c-4.454-1.803-23.302,38.552-27.402,43.872c-5.264,6.831-18.829,22.165-20.846,30.234  c-1.076,4.305,7.104,8.61,14.397,11.708c5.89,2.501,13.659,3.609,19.483,6.392c3.785,1.809,18.193,6.188,18.193,6.188  s8.658-16.993,9.842-20.06c-4.33-2.827-8.956-3.814-14.613-7.324c-6.134-3.806-6.237-4.893-13.112-3.467  c2.5-3.339,5.641-2.219,8.216-4.21c2.613-2.02,4.807-6.381,6.976-8.985c4.589-5.51,10.49-9.272,15.366-14.688  c14.265-15.844-0.349-30.128-8.832-36.993C69.607,96.09,64.979,95.64,61.312,94.64z"/>
<linearGradient id="SVGID_6_-i2" gradientUnits="userSpaceOnUse" x1="72.1141" y1="87.8804" x2="108.1141" y2="157.3804">
	<stop offset="0" style="stop-color:#A1C3FC"/>
	<stop offset="1" style="stop-color:#81AEF2"/>
</linearGradient>
<path fill="url(#SVGID_6_-i2)" d="M47.017,76.418c9.196-1.471,24.081-4.365,39.842-7.993c0.841-0.194,1.649,0.437,1.667,1.3  c0.072,3.495,0.126,5.438,0.37,8.402c0.144,1.752,2.659,2.698,4.922,3.618c7.131,2.899,13.637,5.53,19.406,11.796  c10.541,11.45,18.156,17.822,23.766,32.459c4.645,12.12,6.949,24.791,10.628,37.063c2.045,6.823,3.707,13.58,5.438,20.438  c1.04,4.12,5.149,14.252,3.846,18.076c-0.049,0.142,0.424,3.849,0.437,3.909c-23.36,0.822-48.027,1.489-69.12,1.564  c-0.011-5.826-0.073-18.67,0.093-21.742c0.277-5.153-2.673-7.418-1.587-11.528c-2.351-0.591-6.582,0.014-6.868-2.378  c-0.158-1.327-0.226-2.297,1.025-3.228c-9.144-8.948-14.267-26.796-20.464-38c-3.275-5.92-5.366-11.936-5.786-18.823  c-0.406-6.641,0.757-15.146,3.014-20.376C54.979,87.64,46.169,75.453,47.017,76.418z"/>
<path fill="none" stroke="#000000" stroke-miterlimit="10" d="M210.178,59.851c2.423,5.379,4.075,11.492,5.901,17.2  c1.229,0.231,1.51-0.631,0.844-2.585"/>
<path fill="none" stroke="#000000" stroke-miterlimit="10" d="M134.854,103.696c3.069-6.003,6.606-13.995,12.603-17.31  c6.839,4.606,23.179,3.091,26.745,8.316"/>
<g>
	<path fill="#D6D7D8" d="M112.895,94.302l-0.557-0.313c-2.937-1.652-5.744-3.869-8.458-6.012   c-5.603-4.425-11.396-8.996-18.556-8.748c-5.866,0.208-24.73,9.955-27.868,13.296c-0.378,0.403-1.011,0.422-1.414,0.044   c-0.403-0.378-0.422-1.011-0.044-1.414c3.375-3.593,22.895-13.7,29.255-13.926c7.902-0.275,13.981,4.528,19.867,9.177   c2.096,1.656,4.104,3.242,6.168,4.598c0.285-0.269,0.716-0.354,1.094-0.183c0.755,0.339,1.633,0.842,1.724,1.732   c0.031,0.305-0.018,0.888-0.692,1.375L112.895,94.302z"/>
</g>
<path fill="#23286B" d="M27.495,17.423c-4.159,2.574-7.327,9.506-7.327,9.506s-4.743,3.302-5.941,4.159  c-6.387,4.568-8.159,15.497-10.045,23.02c-1.425,5.684-1.998,15.633-0.095,21.539c2.184,6.779,3.421,6.428,9.984,6.842  c7.861,0.496,27.204-0.034,36.67-0.342c2.995-0.097,5.355-2.568,5.319-5.564c-0.088-7.267-0.199-20.146,0.005-27.388  c0.269-9.57,2.205-20.67-7.029-25.991c-3.572-2.058-7.152-4.532-11.242-4.989C35.084,17.913,27.168,17.238,27.495,17.423z"/>
<linearGradient id="SVGID_7_-i2" gradientUnits="userSpaceOnUse" x1="11.924" y1="165.453" x2="29.8672" y2="165.453">
	<stop offset="0" style="stop-color:#428DFC"/>
	<stop offset="1" style="stop-color:#1D72D8"/>
</linearGradient>
<path fill="url(#SVGID_7_-i2)" d="M23.827,150.664c6.233-1.201,0.367,12.6,0.81,15.309c0.541,3.301,8.936,15.904,3.279,14.182  c-6.958-2.119-12.938-4.795-14.853-7.965c-3.295-5.454,1.319-8.535,4.165-12.958C19.067,156.378,21.641,153.896,23.827,150.664z"/>
<g>
	<path fill="#D6D7D8" d="M111.979,175.973H84.645c-0.552,0-1-0.448-1-1s0.448-1,1-1h27.333c0.552,0,1,0.448,1,1   S112.531,175.973,111.979,175.973z"/>
</g>
<linearGradient id="SVGID_8_-i2" gradientUnits="userSpaceOnUse" x1="252.4865" y1="8.5428" x2="268.173" y2="8.5428">
	<stop offset="0" style="stop-color:#EEEEEE"/>
	<stop offset="1" style="stop-color:#D6D7D8"/>
</linearGradient>
<path fill="url(#SVGID_8_-i2)" d="M264.419,12.661c3.051-3.963,6.235-17.599,0.836-10.784c-2.029,2.561-7.161-0.397-10.212,3.566  c-3.051,3.963-3.425,8.791-0.836,10.784S261.369,16.624,264.419,12.661z"/>
<path id="texure_4_-i2" opacity="0.51" fill="#FFFFFF" enable-background="new    " d="M121.474,213.874  c0.086,0.034,0.183-0.01,0.216-0.096c0.033-0.086-0.01-0.183-0.095-0.217c-0.086-0.034-0.183,0.01-0.217,0.096l0,0  C121.346,213.744,121.388,213.84,121.474,213.874L121.474,213.874z M122.923,210.046c0.09,0.031,0.188-0.012,0.228-0.098  c0.029-0.089-0.018-0.184-0.106-0.214c-0.079-0.036-0.173-0.003-0.21,0.077c-0.003,0.005-0.005,0.011-0.007,0.019  C122.795,209.916,122.838,210.013,122.923,210.046L122.923,210.046L122.923,210.046z M138.591,213.268  c0.037,0.087,0.138,0.127,0.225,0.089l0,0c0.08-0.032,0.12-0.123,0.088-0.203c-0.002-0.007-0.005-0.014-0.01-0.02  c-0.035-0.084-0.129-0.125-0.214-0.092C138.593,213.08,138.553,213.181,138.591,213.268L138.591,213.268L138.591,213.268z   M115.379,207.441c0.065,0.062,0.169,0.06,0.232-0.005c0.062-0.066,0.06-0.169-0.005-0.232c-0.065-0.064-0.169-0.06-0.232,0.005  c-0.063,0.058-0.066,0.158-0.007,0.221C115.372,207.435,115.375,207.438,115.379,207.441z M129.903,213.016  c0.01,0.093,0.087,0.165,0.18,0.167c0.096-0.003,0.17-0.084,0.167-0.181c-0.003-0.096-0.084-0.171-0.18-0.167  C129.977,212.846,129.906,212.924,129.903,213.016z M129.782,208.923c0.005,0.092,0.086,0.162,0.178,0.156l0,0  c0.089,0.004,0.165-0.065,0.169-0.155c0-0.005,0-0.009,0-0.014c-0.006-0.095-0.085-0.168-0.18-0.167  C129.856,208.752,129.784,208.83,129.782,208.923z M99.238,215.619c0.117,0.129,0.318,0.14,0.448,0.022  c0.003-0.002,0.005-0.005,0.008-0.008c0.127-0.117,0.136-0.317,0.019-0.444c0,0-0.001-0.001-0.002-0.001  c-0.117-0.129-0.318-0.14-0.448-0.022c-0.003,0.002-0.005,0.005-0.008,0.008c-0.127,0.117-0.136,0.317-0.019,0.444  c0,0.001,0,0.001,0,0.001L99.238,215.619z M104.916,210.339c0.121,0.131,0.324,0.14,0.457,0.019c0.132-0.121,0.14-0.325,0.019-0.458  c0,0-0.002-0.003-0.004-0.004c-0.117-0.127-0.316-0.136-0.443-0.019c0,0-0.001,0.001-0.001,0.001  C104.813,210.003,104.802,210.204,104.916,210.339L104.916,210.339z M123.128,234.299c-0.003,0.177,0.136,0.324,0.312,0.331  c0.171,0.012,0.318-0.115,0.331-0.285c0-0.007,0.001-0.012,0.001-0.017c0.003-0.177-0.136-0.324-0.313-0.331  C123.285,233.989,123.137,234.124,123.128,234.299L123.128,234.299L123.128,234.299z M123.712,218.78  c-0.007,0.176,0.127,0.322,0.302,0.33c0,0,0.007,0,0.011,0c0.171,0.012,0.318-0.115,0.331-0.285c0-0.007,0.001-0.012,0.001-0.017  c0-0.179-0.136-0.328-0.314-0.343C123.866,218.464,123.718,218.603,123.712,218.78L123.712,218.78z M124,211.026  c-0.006,0.177,0.135,0.326,0.312,0.331c0.178,0.006,0.325-0.135,0.33-0.313c0.009-0.175-0.126-0.324-0.301-0.333l0,0  c-0.177-0.01-0.33,0.124-0.341,0.302C124,211.018,124,211.022,124,211.026L124,211.026z M108.157,227.194  c0.162,0.069,0.348-0.008,0.416-0.17c0.069-0.162-0.008-0.349-0.17-0.417c-0.159-0.067-0.342,0.005-0.412,0.163  C107.922,226.932,107.995,227.121,108.157,227.194L108.157,227.194z M111.39,220.134c0.162,0.069,0.348-0.008,0.416-0.17  c0.069-0.162-0.008-0.349-0.17-0.417c-0.159-0.067-0.342,0.005-0.412,0.163C111.155,219.872,111.229,220.06,111.39,220.134  L111.39,220.134z M114.626,213.084c0.166,0.07,0.357-0.008,0.427-0.174c0.068-0.159-0.001-0.345-0.157-0.421  c-0.162-0.079-0.356-0.012-0.436,0.15c-0.079,0.162-0.012,0.357,0.15,0.437C114.616,213.08,114.621,213.082,114.626,213.084z   M137.621,228.377c0.065,0.165,0.25,0.248,0.416,0.184c0.163-0.058,0.246-0.239,0.188-0.401c0,0,0-0.002-0.001-0.003  c-0.049-0.163-0.22-0.254-0.383-0.206c-0.008,0.002-0.015,0.005-0.024,0.008C137.654,228.026,137.57,228.208,137.621,228.377z   M132.239,213.814c0.055,0.16,0.229,0.247,0.39,0.192c0.004-0.001,0.009-0.003,0.014-0.006c0.167-0.055,0.256-0.236,0.202-0.403  c-0.002-0.006-0.003-0.01-0.005-0.015c-0.064-0.167-0.249-0.25-0.415-0.187c-0.166,0.064-0.25,0.25-0.187,0.415  C132.238,213.812,132.239,213.813,132.239,213.814z M101.334,223.837c0.136,0.078,0.31,0.033,0.39-0.102  c0.079-0.135,0.034-0.31-0.101-0.391c-0.136-0.081-0.31-0.034-0.39,0.102l0,0C101.154,223.581,101.199,223.755,101.334,223.837  L101.334,223.837z M104.807,217.842c0.136,0.078,0.31,0.033,0.39-0.102c0.084-0.133,0.044-0.31-0.089-0.394  c-0.133-0.084-0.309-0.044-0.393,0.09c-0.003,0.005-0.006,0.01-0.009,0.015c-0.081,0.131-0.039,0.303,0.091,0.385  C104.8,217.838,104.804,217.839,104.807,217.842L104.807,217.842z M108.16,211.68c0.013,0.07,0.058,0.131,0.122,0.166  c0.136,0.078,0.31,0.033,0.39-0.102c0.082-0.139,0.038-0.317-0.101-0.401l-0.003-0.001c-0.082-0.048-0.183-0.053-0.27-0.012  l-0.012,0.002c-0.05,0.021-0.089,0.061-0.108,0.112C108.132,211.515,108.125,211.605,108.16,211.68L108.16,211.68z M130.064,227.522  c0.047,0.154,0.205,0.243,0.361,0.206c0.148-0.038,0.236-0.189,0.199-0.337c-0.001-0.004-0.002-0.008-0.004-0.012  c-0.037-0.154-0.191-0.247-0.344-0.209c-0.002,0-0.003,0.001-0.003,0.001C130.121,227.216,130.03,227.37,130.064,227.522z   M126.52,214.123c0.037,0.154,0.191,0.247,0.345,0.21c0,0,0.003-0.001,0.006-0.002c0.145-0.032,0.236-0.178,0.203-0.322  c-0.001-0.009-0.004-0.018-0.008-0.026c-0.037-0.154-0.191-0.247-0.345-0.21c-0.002,0.001-0.003,0.001-0.006,0.002  C126.569,213.821,126.483,213.974,126.52,214.123L126.52,214.123z M124.745,207.437c0.046,0.153,0.206,0.24,0.359,0.194  c0.148-0.044,0.235-0.198,0.196-0.349c-0.045-0.149-0.196-0.24-0.349-0.208C124.797,207.121,124.707,207.28,124.745,207.437  L124.745,207.437z M115.132,224.85c-0.016,0.157,0.096,0.298,0.252,0.318c0.155,0.021,0.297-0.087,0.318-0.242  c0.018-0.157-0.088-0.302-0.242-0.331C115.3,224.577,115.153,224.689,115.132,224.85z M116.058,217.977  c-0.026,0.149,0.075,0.292,0.224,0.318c0.005,0.001,0.012,0.001,0.016,0.003c0.155,0.021,0.297-0.087,0.318-0.242  c0.018-0.157-0.088-0.302-0.242-0.331C116.218,217.709,116.077,217.821,116.058,217.977z M116.974,211.107  c-0.02,0.155,0.089,0.296,0.244,0.317c0.153,0.019,0.294-0.086,0.316-0.239c0.022-0.154-0.083-0.299-0.239-0.323  c-0.155-0.023-0.298,0.083-0.322,0.239C116.974,211.103,116.974,211.104,116.974,211.107z M136.639,212.951  c0.097,0.125,0.276,0.152,0.406,0.058c0.124-0.101,0.144-0.283,0.043-0.408c-0.096-0.118-0.267-0.143-0.391-0.056  c-0.127,0.09-0.158,0.266-0.069,0.393C136.633,212.942,136.636,212.948,136.639,212.951z M117.448,212.039  c0.005,0.092,0.086,0.162,0.178,0.156c0.092-0.005,0.162-0.086,0.156-0.178s-0.086-0.162-0.178-0.156l0,0  C117.511,211.866,117.442,211.947,117.448,212.039L117.448,212.039L117.448,212.039z M117.167,207.961  c0.012,0.094,0.095,0.161,0.19,0.154c0.092-0.005,0.162-0.086,0.156-0.178l0,0c-0.002-0.088-0.076-0.159-0.166-0.156  c-0.005,0-0.008,0-0.013,0.001c-0.094,0.003-0.169,0.081-0.168,0.176C117.167,207.958,117.167,207.959,117.167,207.961z   M109.419,208.911c0.088,0.023,0.179-0.022,0.214-0.106c0.031-0.085-0.013-0.181-0.099-0.212c-0.003-0.002-0.006-0.002-0.009-0.003  c-0.083-0.032-0.176,0.008-0.209,0.091c-0.002,0.006-0.004,0.01-0.005,0.015C109.284,208.785,109.331,208.881,109.419,208.911  L109.419,208.911z M124.917,207.896c0.04,0.084,0.139,0.118,0.222,0.078c0.084-0.041,0.118-0.14,0.077-0.224  c-0.032-0.081-0.123-0.12-0.202-0.088c-0.006,0.002-0.014,0.006-0.02,0.01c-0.082,0.037-0.118,0.136-0.08,0.218  C124.915,207.893,124.916,207.894,124.917,207.896L124.917,207.896z M98.445,210.803c0.087,0.052,0.201,0.024,0.253-0.063  c0.001-0.001,0.002-0.003,0.003-0.005c0.056-0.088,0.031-0.204-0.056-0.26c-0.004-0.002-0.009-0.005-0.013-0.008  c-0.087-0.052-0.201-0.024-0.253,0.063c-0.001,0.001-0.002,0.003-0.003,0.005C98.323,210.628,98.354,210.746,98.445,210.803  L98.445,210.803z M117.768,213.5c0.019,0.097,0.114,0.16,0.21,0.14c0.007-0.001,0.015-0.004,0.022-0.007  c0.101-0.027,0.161-0.131,0.135-0.232c-0.031-0.1-0.131-0.163-0.235-0.146C117.797,213.285,117.737,213.394,117.768,213.5  C117.767,213.498,117.767,213.498,117.768,213.5L117.768,213.5z M116.609,208.979c0.03,0.105,0.138,0.164,0.243,0.133l0,0  c0.101-0.027,0.161-0.131,0.135-0.232c-0.031-0.1-0.131-0.163-0.235-0.146C116.648,208.765,116.587,208.872,116.609,208.979  L116.609,208.979z M108.16,211.68c0.023,0.015,0.049,0.027,0.075,0.033c0.103,0.016,0.2-0.055,0.215-0.159  c0-0.002,0.001-0.003,0.002-0.006c0.013-0.103-0.054-0.197-0.153-0.218l-0.012,0.002c-0.103-0.016-0.2,0.055-0.215,0.159  c0,0.002-0.001,0.005-0.002,0.006C108.059,211.572,108.095,211.645,108.16,211.68L108.16,211.68z M125.422,207.378  c0.063,0.085,0.183,0.102,0.268,0.039c0.001-0.002,0.004-0.003,0.004-0.004c0.082-0.063,0.099-0.18,0.036-0.263  c-0.055-0.085-0.168-0.11-0.254-0.055c-0.004,0.003-0.006,0.004-0.011,0.007C125.379,207.167,125.359,207.289,125.422,207.378  L125.422,207.378z M101.432,231.197c-0.015,0.182,0.114,0.344,0.297,0.37c0.18,0.022,0.346-0.104,0.37-0.284  c0.017-0.183-0.114-0.347-0.297-0.37C101.621,230.889,101.456,231.016,101.432,231.197L101.432,231.197z M102.419,223.253  c-0.023,0.181,0.104,0.346,0.284,0.371s0.346-0.104,0.37-0.285c0.023-0.181-0.104-0.346-0.284-0.371  C102.609,222.945,102.444,223.072,102.419,223.253L102.419,223.253z M103.395,215.311c-0.017,0.183,0.114,0.347,0.296,0.37  c0.181,0.016,0.341-0.117,0.357-0.298c0.017-0.18-0.117-0.341-0.297-0.358C103.576,215.007,103.417,215.134,103.395,215.311z   M129.009,216.154c0.114,0.141,0.318,0.168,0.464,0.059c0.145-0.112,0.172-0.319,0.06-0.464c-0.112-0.145-0.319-0.172-0.464-0.059  l0,0C128.927,215.803,128.9,216.008,129.009,216.154L129.009,216.154z M124.099,209.844c0.113,0.142,0.318,0.17,0.464,0.059  c0.143-0.118,0.168-0.327,0.057-0.476c-0.119-0.142-0.33-0.159-0.47-0.042C124.015,209.501,123.993,209.702,124.099,209.844z   M114.874,218.869c0.05,0.178,0.234,0.282,0.411,0.233l0,0c0.171-0.049,0.271-0.228,0.222-0.399l0,0  c-0.044-0.176-0.223-0.281-0.398-0.237c-0.176,0.044-0.281,0.223-0.236,0.399L114.874,218.869L114.874,218.869z M112.748,211.158  c0.044,0.174,0.22,0.279,0.394,0.236c0.002,0,0.004-0.001,0.006-0.002c0.179-0.044,0.289-0.225,0.245-0.405  c-0.044-0.179-0.224-0.289-0.404-0.245c-0.179,0.044-0.289,0.225-0.245,0.405C112.745,211.152,112.746,211.156,112.748,211.158z   M110.447,221.555c0.044,0.179,0.224,0.288,0.403,0.245c0.173-0.044,0.281-0.218,0.247-0.392c-0.047-0.179-0.224-0.291-0.405-0.257  C110.516,221.2,110.408,221.376,110.447,221.555L110.447,221.555z M108.649,213.788c0.044,0.179,0.224,0.288,0.403,0.245  c0.176-0.04,0.287-0.216,0.247-0.392c-0.04-0.176-0.216-0.288-0.392-0.248l0,0C108.731,213.435,108.616,213.609,108.649,213.788  L108.649,213.788z M96.858,217.556c-0.027,0.178,0.094,0.344,0.27,0.373c0,0,0.001,0.001,0.002,0  c0.18,0.033,0.351-0.085,0.385-0.264c0.027-0.182-0.095-0.351-0.275-0.385C97.06,217.256,96.892,217.377,96.858,217.556  L96.858,217.556z M98.171,209.684c-0.034,0.179,0.086,0.35,0.264,0.383c0.178,0.034,0.349-0.086,0.382-0.264  c0-0.002,0.001-0.005,0.001-0.009c0.025-0.18-0.096-0.35-0.275-0.385c-0.177-0.028-0.343,0.094-0.372,0.271  C98.172,209.682,98.172,209.682,98.171,209.684L98.171,209.684z M125.337,219.025c0.11,0.146,0.318,0.179,0.466,0.071  c0.145-0.106,0.179-0.31,0.073-0.456c-0.097-0.149-0.297-0.19-0.445-0.093c-0.004,0.003-0.008,0.004-0.012,0.009  c-0.152,0.102-0.192,0.308-0.088,0.46C125.332,219.02,125.334,219.022,125.337,219.025z M120.71,212.537  c0.11,0.146,0.318,0.179,0.466,0.071c0.145-0.106,0.179-0.31,0.073-0.456c-0.097-0.149-0.297-0.19-0.445-0.093  c-0.004,0.003-0.008,0.004-0.012,0.009c-0.152,0.102-0.191,0.309-0.088,0.46C120.706,212.531,120.708,212.534,120.71,212.537z   M111.967,215.558c0.059,0.124,0.207,0.177,0.332,0.118c0.121-0.058,0.174-0.201,0.121-0.324c-0.051-0.121-0.19-0.179-0.311-0.129  c-0.008,0.003-0.016,0.007-0.023,0.011C111.966,215.293,111.913,215.437,111.967,215.558z M109.428,210.122  c0.059,0.125,0.21,0.177,0.334,0.118c0.124-0.059,0.177-0.211,0.117-0.335c-0.057-0.124-0.203-0.178-0.326-0.122  c-0.003,0.001-0.005,0.003-0.008,0.004C109.423,209.849,109.371,209.997,109.428,210.122L109.428,210.122z M99.23,215.375  c0.009,0.136,0.126,0.24,0.261,0.234c0.135-0.015,0.235-0.127,0.234-0.262c-0.006-0.136-0.122-0.242-0.259-0.235l0,0  c-0.133,0.003-0.239,0.111-0.237,0.243C99.229,215.364,99.229,215.369,99.23,215.375z M98.955,209.363  c0.009,0.139,0.125,0.246,0.264,0.245c0.136-0.006,0.241-0.122,0.235-0.259c0,0,0,0,0-0.002c-0.002-0.133-0.109-0.238-0.242-0.237  c0,0-0.006,0.001-0.009,0.001c-0.137,0.001-0.247,0.111-0.248,0.248C98.954,209.359,98.955,209.361,98.955,209.363L98.955,209.363z"/>
<linearGradient id="SVGID_9_-i2" gradientUnits="userSpaceOnUse" x1="105.234" y1="212.4874" x2="175.4869" y2="212.4874">
	<stop offset="0" style="stop-color:#EEEEEE"/>
	<stop offset="1" style="stop-color:#D6D7D8"/>
</linearGradient>
<path fill="url(#SVGID_9_-i2)" d="M123.16,111.314c8.039,7.546,8.108,25.038,5.769,34.967c-2.94,12.482-11.326,23.637-23.695,28.306  c14.877,4.27,23.836,7.519,32.068,22.041c6.299,11.112,11.781,22.963,16.453,34.984c9.008,23.177,7.421,52.873,6.468,77.642  c-0.247,6.426-0.839,11.438-0.61,17.213c2.461-0.377,8.697,0.2,11.458,0.231c6.472,0.072,3.841-1.965,4.102-8.608  c0.215-5.476-0.099-8.709-0.265-14.469c-0.409-14.192,0.044-28.983-1.399-43.201c-2.852-28.11-7.771-57.926-15.385-84.771  c-3.748-13.216-10.489-27.015-16.259-39.881c-5.642-12.579-10.377-27.388-24.212-37.494  C119.312,102.776,119.77,108.131,123.16,111.314z"/>
<linearGradient id="SVGID_10_-i2" gradientUnits="userSpaceOnUse" x1="94.7915" y1="59.1547" x2="135.5132" y2="77.756">
	<stop offset="0" style="stop-color:#A1C3FC"/>
	<stop offset="1" style="stop-color:#81AEF2"/>
</linearGradient>
<path fill="url(#SVGID_10_-i2)" d="M85.391,78.436c-14.671,4.96-13.18,18.014-3.35,28.646c9.344,10.106,22.731,8.211,34.826,5.612  c11.648-2.503,23.322-4.759,34.965-7.13c14.296-2.911,25.731-8.521,39.177-15.056c9.293-4.516,19.276-9.299,29.109-11.31  c-4.342-7.07-6.971-15.478-9.495-22.884c-9.723,4.156-21.915,7.95-32.218,9.581c-5.183,0.821-42.197,6.146-43.357,6.258  c-5.459,0.527-10.529,1.062-16.084,1.399c-11.082,0.672-21.645,1.497-32.272,4.508C86.422,78.23,85.906,78.436,85.391,78.436z"/>
<circle fill="#F7931E" cx="139.944" cy="160.265" r="9.091"/>
<circle fill="#22B573" cx="148.685" cy="173.901" r="5.944"/>
<linearGradient id="SVGID_11_-i2" gradientUnits="userSpaceOnUse" x1="138.9229" y1="98.2314" x2="180.2281" y2="98.2314">
	<stop offset="0" style="stop-color:#428DFC"/>
	<stop offset="1" style="stop-color:#1D72D8"/>
</linearGradient>
<path fill="url(#SVGID_11_-i2)" d="M142.312,106.307c-8.379-1.438,1.007-11.213,4.333-13c4.601-2.472,11.869-3.587,17.017-3.701  c2.827-0.063,17.36-0.186,16.531,5.033c-0.5,3.147-13.573,6.392-16.215,7.253c-6.393,2.083-14.682,4.759-21.282,4.982  C143.118,106.702,141.878,106.069,142.312,106.307z"/>
<path fill="#22B573" d="M142.053,136.182c-2.958,0.342-5.256,2.851-5.256,5.901c0,3.283,2.661,5.944,5.944,5.944  c1.536,0,2.931-0.588,3.986-1.544C145.152,143.004,143.571,139.562,142.053,136.182z"/>
<path fill="#ED1E79" d="M157.104,172.28c-1.815-5.712-4.114-11.507-6.595-17.267c-2.735,1.641-4.572,4.627-4.572,8.049  c0,5.186,4.204,9.391,9.391,9.391C155.936,172.453,156.529,172.39,157.104,172.28z"/>
<path fill="#ED1E79" d="M159.283,179.851c-4.052,1.041-7.052,4.708-7.052,9.085c0,5.186,4.204,9.391,9.391,9.391  c0.728,0,1.434-0.091,2.114-0.248C162.375,191.904,160.895,185.812,159.283,179.851z"/>

</g>
</g>
</g>

<!-- ITEM 3 -->
<g transform="translate(330.0 222.0) rotate(9.631339797603156 15.0 15.0) scale(0.3 0.3)">
<g transform="translate(-0.0 -0.0)">
<g clip-path="url(#clipPathId-collage-item-3)">
		<defs>
			<clipPath id="clipPathId-collage-item-3">
				<rect x="0.0" y="0.0" width="100.0" height="100.0"/>
			</clipPath>
		</defs>

<path fill="#E94A47" d="M98.663,98.531c-33.052,1.963-65.546,1.955-97.487,0c-1.46-34.57-1.676-67.372,0-97.487  c32.497-1.392,64.992-1.392,97.487,0C100.512,32.524,100.381,65.091,98.663,98.531z"/>

</g>
</g>
</g>

<!-- ITEM 4 -->
<g transform="translate(299.0 460.0) rotate(318.89211975628507 7.0 7.0) scale(0.14 0.14)">
<g transform="translate(-0.0 -0.0)">
<g clip-path="url(#clipPathId-collage-item-4)">
		<defs>
			<clipPath id="clipPathId-collage-item-4">
				<rect x="0.0" y="0.0" width="100.0" height="100.0"/>
			</clipPath>
		</defs>

<path fill="#E94A47" d="M98.663,98.531c-33.052,1.963-65.546,1.955-97.487,0c-1.46-34.57-1.676-67.372,0-97.487  c32.497-1.392,64.992-1.392,97.487,0C100.512,32.524,100.381,65.091,98.663,98.531z"/>

</g>
</g>
</g>

<!-- ITEM 5 -->
<g transform="translate(441.0 302.0) rotate(344.7609590321914 8.5 8.5) scale(0.17 0.17)">
<g transform="translate(-0.0 -0.0)">
<g clip-path="url(#clipPathId-collage-item-5)">
		<defs>
			<clipPath id="clipPathId-collage-item-5">
				<rect x="0.0" y="0.0" width="100.0" height="100.0"/>
			</clipPath>
		</defs>

<path fill="#A1C3FC" d="M98.663,98.531c-33.052,1.963-65.546,1.955-97.487,0c-1.46-34.57-1.676-67.372,0-97.487  c32.497-1.392,64.992-1.392,97.487,0C100.512,32.524,100.381,65.091,98.663,98.531z"/>

</g>
</g>
</g>

<!-- ITEM 6 -->
<g transform="translate(182.0 357.0) rotate(325.2641736464542 32.0 32.0) scale(0.64 0.64)">
<g transform="translate(-0.0 -0.0)">
<g clip-path="url(#clipPathId-collage-item-6)">
		<defs>
			<clipPath id="clipPathId-collage-item-6">
				<rect x="0.0" y="0.0" width="100.0" height="100.0"/>
			</clipPath>
		</defs>

<path fill="#23286B" d="M98.663,98.531c-33.052,1.963-65.546,1.955-97.487,0c-1.46-34.57-1.676-67.372,0-97.487  c32.497-1.392,64.992-1.392,97.487,0C100.512,32.524,100.381,65.091,98.663,98.531z"/>

</g>
</g>
</g>

<!-- ITEM 7 -->
<g transform="translate(1151.0 289.0) rotate(345.85230043769354 21.5 21.5) scale(0.43 0.43)">
<g transform="translate(-0.0 -0.0)">
<g clip-path="url(#clipPathId-collage-item-7)">
		<defs>
			<clipPath id="clipPathId-collage-item-7">
				<rect x="0.0" y="0.0" width="100.0" height="100.0"/>
			</clipPath>
		</defs>

<path fill="#E94A47" d="M98.663,98.531c-33.052,1.963-65.546,1.955-97.487,0c-1.46-34.57-1.676-67.372,0-97.487  c32.497-1.392,64.992-1.392,97.487,0C100.512,32.524,100.381,65.091,98.663,98.531z"/>

</g>
</g>
</g>

<!-- ITEM 8 -->
<g transform="translate(1040.0 138.0) rotate(0.0 13.0 13.0) scale(0.26 0.26)">
<g transform="translate(-0.0 -0.0)">
<g clip-path="url(#clipPathId-collage-item-8)">
		<defs>
			<clipPath id="clipPathId-collage-item-8">
				<rect x="0.0" y="0.0" width="100.0" height="100.0"/>
			</clipPath>
		</defs>

<path fill="#E94A47" d="M98.663,98.531c-33.052,1.963-65.546,1.955-97.487,0c-1.46-34.57-1.676-67.372,0-97.487  c32.497-1.392,64.992-1.392,97.487,0C100.512,32.524,100.381,65.091,98.663,98.531z"/>

</g>
</g>
</g>

<!-- ITEM 9 -->
<g transform="translate(963.0 187.0) rotate(337.9682006226046 25.5 25.5) scale(0.51 0.51)">
<g transform="translate(-0.0 -0.0)">
<g clip-path="url(#clipPathId-collage-item-9)">
		<defs>
			<clipPath id="clipPathId-collage-item-9">
				<rect x="0.0" y="0.0" width="100.0" height="100.0"/>
			</clipPath>
		</defs>

<path fill="#23286B" d="M98.663,98.531c-33.052,1.963-65.546,1.955-97.487,0c-1.46-34.57-1.676-67.372,0-97.487  c32.497-1.392,64.992-1.392,97.487,0C100.512,32.524,100.381,65.091,98.663,98.531z"/>

</g>
</g>
</g>

<!-- ITEM 10 -->
<g transform="translate(359.0 369.0) rotate(19.954657185565527 22.5 22.5) scale(0.45 0.45)">
<g transform="translate(-0.0 -0.0)">
<g clip-path="url(#clipPathId-collage-item-10)">
		<defs>
			<clipPath id="clipPathId-collage-item-10">
				<rect x="0.0" y="0.0" width="100.0" height="100.0"/>
			</clipPath>
		</defs>

<path fill="#A1C3FC" d="M98.663,98.531c-33.052,1.963-65.546,1.955-97.487,0c-1.46-34.57-1.676-67.372,0-97.487  c32.497-1.392,64.992-1.392,97.487,0C100.512,32.524,100.381,65.091,98.663,98.531z"/>

</g>
</g>
</g>

<!-- ITEM 11 -->
<g transform="translate(1154.0 1090.0) rotate(0.0 95.5 163.0) scale(0.9317073170731708 0.9314285714285714)">
<g transform="translate(-0.0 -0.0)">
<g clip-path="url(#clipPathId-collage-item-11)">
		<defs>
			<clipPath id="clipPathId-collage-item-11">
				<rect x="0.0" y="0.0" width="205.0" height="350.0"/>
			</clipPath>
		</defs>

<linearGradient id="SVGID_1_-i11" gradientUnits="userSpaceOnUse" x1="229.5354" y1="2296.8765" x2="923.9109" y2="2296.8765" gradientTransform="matrix(0.1438 0 0 0.1438 -33.0072 -154.7435)">
	<stop offset="0" style="stop-color:#B9D3FD"/>
	<stop offset="1" style="stop-color:#89B3F4"/>
</linearGradient>
<path fill="url(#SVGID_1_-i11)" d="M98.974,59.468c0.249-0.3,0.498-0.599,0.747-0.898c-0.165-0.01-0.332-0.012-0.498-0.021  c2.379-9.742-2.305-20.061-8.91-27.655c-2.928-3.366-6.391-6.479-10.644-7.811c-4.439-1.391-9.256-0.698-13.764,0.449  C52.751,26.877,40.59,34.056,31.293,43.964c-3.02,3.219-5.915,7.357-5.057,11.691c0.959,4.841,6.405,9.242,4.174,13.641  c-2.301,4.534-10.146,2.886-12.964,7.117c-4.343,6.518,9.109,14.335,5.656,21.366c-1.771,3.604-6.649,3.906-10.321,5.516  c-7.044,3.089-9.866,13.149-5.458,19.463c3.922,5.618,12.606,9.611,10.967,16.266c-0.575,2.333-2.401,4.11-4.08,5.825  c-5.52,5.635-10.365,12.163-12.741,19.69c-2.377,7.528-2.025,16.177,2.226,22.825c2.178,3.406,5.245,6.136,8.375,8.691  c15.598,12.734,21.64,26.114,34.155,41.899c7.821,9.863,25.209,73.056,29.462,90.834c3.226-25.873,10.654-102.823,13.776-107.093  c3.121-4.27,4.745-10.272,2.09-14.847c-1.936-3.335-5.626-5.139-8.77-7.368c-3.143-2.228-6.112-5.736-5.355-9.518  c0.349-1.747,1.454-3.238,2.578-4.617c3.575-4.382,7.728-8.386,10.33-13.41c2.602-5.024,3.346-11.543,0.014-16.114  c-3.126-4.289-9.135-6.176-13.824-8.806c4.002-3.075,9.875-5.172,13.203-9.142c2.539-3.027,3.468-7.336,2.402-11.142  c-1.124-4.018-4.163-7.122-6.598-10.533c0.502-1.982,0.353-3.971-0.822-5.769c-0.624-0.955-1.463-1.709-2.423-2.342  c-0.129-2.01,0.321-3.947,1.652-5.487c2.029-2.345,5.461-2.974,7.709-5.11c3.564-3.386,2.361-10.326-2.133-12.311  c-2.586-1.141-6.399-1.438-6.819-4.238c-0.049-0.325-0.03-0.644,0.026-0.955C89.384,73.793,96.504,67.956,98.974,59.468z"/>
<linearGradient id="SVGID_2_-i11" gradientUnits="userSpaceOnUse" x1="671.1075" y1="2451.2043" x2="1213.2162" y2="2451.2043" gradientTransform="matrix(0.1438 0 0 0.1438 -33.0072 -154.7435)">
	<stop offset="0" style="stop-color:#DEEAFE"/>
	<stop offset="1" style="stop-color:#E9F1FE"/>
</linearGradient>
<path fill="url(#SVGID_2_-i11)" d="M133.622,207.735c-1.846-4.632-6.134-8.202-6.993-13.115c-1.246-7.132,5.017-13.025,9.048-19.034  c6.076-9.055,7.476-21.088,3.642-31.3c-3.834-10.212-12.801-18.338-23.326-21.136c-6.696-1.78-14.072-1.589-20.024-5.142  c-8.106-4.838-14.575-16.443-23.47-13.29c-6.219,2.204-7.68,10.69-5.624,16.971c2.056,6.281,6.442,11.613,8.362,17.937  c3.671,12.085-2.23,24.722-6.921,36.446c-4.691,11.724-7.915,26.2-0.089,36.102c3.816,4.829,9.922,7.97,12.136,13.716  c3.013,7.814-2.49,16.006-5.197,23.931c-5.039,14.75,0.715,32.506,13.442,41.477c0.431-18.77,9.152-37.198,23.385-49.411  c5.505-4.725,11.811-8.586,16.56-14.075C133.303,222.323,136.31,214.481,133.622,207.735z"/>
<g>
	<path fill="#23286B" d="M68.52,319.842c-0.04,0-0.08-0.003-0.119-0.008c-0.465-0.066-0.789-0.497-0.723-0.962   c4.05-28.816,10.15-55.857,18.131-80.372c0.145-0.447,0.627-0.69,1.072-0.545c0.446,0.146,0.69,0.626,0.544,1.074   c-7.952,24.42-14.029,51.364-18.065,80.081C69.3,319.535,68.936,319.842,68.52,319.842z"/>
</g>
<path fill="#C6DDFE" d="M76.658,226.995c2.439-3.598,9.103-3.325,14.883,0.61c5.781,3.935,8.49,10.041,6.051,13.639  c-2.439,3.598-9.103,3.325-14.883-0.61C76.928,236.699,74.219,230.592,76.658,226.995z"/>
<g>
	<path fill="#23286B" d="M88.435,234.165c-0.091,0-0.184-0.014-0.276-0.046c-0.444-0.152-0.68-0.636-0.529-1.082   c4.103-11.998,8.761-23.657,13.842-34.649c0.197-0.427,0.703-0.612,1.128-0.416c0.425,0.198,0.612,0.704,0.415,1.13   c-5.058,10.938-9.693,22.541-13.777,34.484C89.118,233.943,88.788,234.165,88.435,234.165z"/>
</g>
<path fill="#C6DDFE" d="M88.557,183.568c2.439-3.598,11.489-1.7,20.214,4.238c8.725,5.938,13.82,13.669,11.381,17.267  c-2.439,3.598-11.489,1.7-20.214-4.238C91.214,194.896,86.118,187.166,88.557,183.568z"/>
<g>
	<path fill="#23286B" d="M104.03,195.801c-0.124,0-0.248-0.028-0.367-0.084c-0.423-0.203-0.601-0.711-0.4-1.136   c1.539-3.219,3.138-6.431,4.753-9.547c4.439-8.562,9.299-16.945,14.448-24.92c0.254-0.394,0.781-0.508,1.175-0.253   c0.394,0.256,0.507,0.782,0.252,1.177c-5.118,7.93-9.952,16.267-14.367,24.779c-1.607,3.1-3.198,6.295-4.729,9.498   C104.651,195.623,104.346,195.801,104.03,195.801z"/>
</g>
<path fill="#C6DDFE" d="M108.784,141.551c2.885-2.88,12.018,1.616,20.4,10.043c8.382,8.427,12.838,17.594,9.954,20.474  c-2.885,2.88-12.018-1.616-20.4-10.043S105.9,144.431,108.784,141.551z"/>
<g>
	<path fill="#23286B" d="M125.855,157.355c-0.163,0-0.327-0.047-0.473-0.145c-0.39-0.262-0.494-0.79-0.233-1.181   c6.892-10.298,14.412-20.096,22.349-29.122c0.311-0.353,0.846-0.386,1.2-0.076c0.351,0.311,0.386,0.849,0.076,1.202   c-7.888,8.971-15.361,18.71-22.213,28.946C126.397,157.223,126.129,157.355,125.855,157.355z"/>
</g>
<path fill="#C6DDFE" d="M139.931,97.672c5.094-2.225,14.471,8.035,20.945,22.915c6.474,14.881,7.592,28.747,2.499,30.972  c-5.094,2.225-14.471-8.035-20.945-22.915S134.838,99.897,139.931,97.672z"/>
<g>
	<path fill="#23286B" d="M152.311,123.686c-0.207,0-0.414-0.075-0.577-0.227c-0.344-0.319-0.366-0.858-0.047-1.203   c8.162-8.849,16.879-17.059,25.911-24.4c0.365-0.297,0.899-0.24,1.196,0.124c0.296,0.365,0.24,0.902-0.125,1.198   c-8.969,7.29-17.626,15.442-25.734,24.233C152.768,123.594,152.54,123.686,152.311,123.686z"/>
</g>
<path fill="#C6DDFE" d="M160.176,68.748c4.283-3.547,17.487,5.376,29.493,19.929c12.005,14.554,18.266,29.227,13.983,32.775  c-4.283,3.547-17.487-5.376-29.493-19.929S155.893,72.295,160.176,68.748z"/>
<g>
	<path fill="#23286B" d="M182.612,95.82c-0.255,0-0.506-0.114-0.674-0.332c-0.286-0.373-0.218-0.907,0.155-1.194   c5.954-4.603,12.148-8.92,18.412-12.834c0.397-0.248,0.922-0.128,1.171,0.272c0.248,0.399,0.128,0.924-0.271,1.173   c-6.216,3.884-12.365,8.171-18.273,12.738C182.977,95.762,182.793,95.82,182.612,95.82z"/>
</g>
<g>
	<path fill="#1D72D8" d="M83.614,336.134l-3.072-9.355c-0.146-0.448,0.096-0.928,0.542-1.076c0.115-0.038,0.234-0.051,0.347-0.039   c-2.022-45.34-3.106-98.488,2.91-152.53c0.286-2.57,0.59-5.155,0.905-7.682c0.058-0.466,0.487-0.79,0.949-0.74   c0.465,0.059,0.797,0.483,0.739,0.951c-0.313,2.521-0.617,5.098-0.903,7.661c-6.197,55.65-4.845,110.383-2.706,156.584   L83.614,336.134z"/>
</g>
<path fill="#23286B" d="M74.732,165.78c-0.64-2.323,3.858-5.593,10.046-7.303s11.722-1.213,12.362,1.11  c0.64,2.323-3.858,5.593-10.046,7.303C80.906,168.6,75.371,168.103,74.732,165.78z"/>
<g>
	<path fill="#1D72D8" d="M86.567,162.67c-0.037,0-0.074-0.002-0.111-0.007c-0.465-0.062-0.793-0.489-0.732-0.955   c2.064-15.822,4.742-31.309,7.958-46.03c0.1-0.459,0.552-0.75,1.012-0.65c0.458,0.101,0.749,0.554,0.648,1.014   c-3.206,14.674-5.875,30.114-7.933,45.888C87.352,162.358,86.987,162.67,86.567,162.67z"/>
</g>
<path fill="#23286B" d="M79.826,117.243c-0.64-2.323,5.172-5.956,12.98-8.114s14.656-2.024,15.296,0.299  c0.64,2.323-5.172,5.956-12.98,8.114S80.466,119.566,79.826,117.243z"/>
<g>
	<path fill="#1D72D8" d="M95.32,113.074c-0.063,0-0.126-0.007-0.19-0.021c-0.458-0.104-0.745-0.56-0.64-1.019   c3.032-13.401,6.598-26.526,10.598-39.011c0.143-0.448,0.622-0.695,1.068-0.551c0.448,0.144,0.693,0.624,0.55,1.071   c-3.985,12.439-7.538,25.516-10.56,38.868C96.06,112.806,95.709,113.074,95.32,113.074z"/>
</g>
<ellipse transform="matrix(-0.9963 -0.086 0.086 -0.9963 204.9655 148.7545)" fill="#23286B" cx="105.686" cy="69.964" rx="18.512" ry="6.936"/>
<g>
	<path fill="#1D72D8" d="M107.488,69.27c-0.089,0-0.18-0.014-0.269-0.044c-0.446-0.149-0.685-0.631-0.537-1.078   c2.972-8.909,6.243-17.71,9.723-26.158c0.18-0.435,0.675-0.642,1.11-0.462c0.434,0.18,0.64,0.677,0.461,1.113   c-3.465,8.412-6.722,17.175-9.682,26.047C108.175,69.046,107.844,69.27,107.488,69.27z"/>
</g>
<path fill="#23286B" d="M98.871,35.55c0.548-3.456,9.528-4.9,20.058-3.225c10.53,1.675,18.622,5.835,18.074,9.291  c-0.548,3.456-9.528,4.9-20.058,3.225C106.416,43.166,98.324,39.006,98.871,35.55z"/>
<g>
	<path fill="#1D72D8" d="M118.917,39.042c-0.111,0-0.224-0.022-0.333-0.069c-0.432-0.185-0.633-0.685-0.449-1.118   c2.259-5.308,4.651-10.59,7.109-15.699c0.745-1.548,1.5-3.09,2.266-4.627c0.21-0.42,0.718-0.591,1.14-0.381   c0.421,0.21,0.591,0.722,0.381,1.142c-0.763,1.529-1.515,3.066-2.255,4.606c-2.447,5.085-4.827,10.344-7.077,15.628   C119.561,38.848,119.248,39.042,118.917,39.042z"/>
</g>
<path fill="#23286B" d="M106.752,10.612c0.662-4.18,10.948-6.018,22.973-4.105s21.237,6.852,20.574,11.032  c-0.662,4.18-10.948,6.018-22.973,4.105S106.089,14.792,106.752,10.612z"/>
<g>
	<path fill="#1D72D8" d="M131.214,12.991c-0.132,0-0.268-0.031-0.392-0.098c-0.417-0.218-0.577-0.733-0.36-1.15   c2.008-3.846,4.091-7.653,6.19-11.317c0.234-0.408,0.754-0.547,1.161-0.314c0.407,0.234,0.548,0.755,0.314,1.163   c-2.088,3.644-4.16,7.433-6.158,11.259C131.817,12.825,131.52,12.991,131.214,12.991z"/>
</g>
<linearGradient id="SVGID_3_-i11" gradientUnits="userSpaceOnUse" x1="538.7717" y1="3216.7576" x2="1002.4527" y2="3216.7576" gradientTransform="matrix(0.1438 0 0 0.1438 -33.0072 -154.7435)">
	<stop offset="0" style="stop-color:#EEEEEE"/>
	<stop offset="1" style="stop-color:#D6D7D8"/>
</linearGradient>
<rect x="44.468" y="265.653" fill="url(#SVGID_3_-i11)" width="66.677" height="84.347"/>

</g>
</g>
</g>

<!-- ITEM 12 -->
<g transform="translate(502.0 1073.0) rotate(314.5021385025404 -57.0 47.5) scale(-0.57 0.5757575757575758)">
<g transform="translate(-0.0 -0.0)">
<g clip-path="url(#clipPathId-collage-item-12)">
		<defs>
			<clipPath id="clipPathId-collage-item-12">
				<rect x="0.0" y="0.0" width="200.0" height="165.0"/>
			</clipPath>
		</defs>

<path fill="#EEEEEE" d="M170.98,87.304c0,2.433-1.969,4.406-4.397,4.406s-4.397-1.973-4.397-4.406V64.279  c-4.53-4.472-9.312-8.586-14.363-11.9v35.366c0,2.433-1.968,4.406-4.397,4.406s-4.397-1.973-4.397-4.406V47.621  c-4.579-1.942-9.362-3.119-14.363-3.257v43.381c0,2.433-1.969,4.406-4.397,4.406s-4.397-1.973-4.397-4.406V45.172  c-5.11,1.084-9.945,3.213-14.363,6.213v35.92c0,2.433-1.969,4.406-4.397,4.406s-4.397-1.973-4.397-4.406V59.093  c-9.961,11.037-16.269,27.332-16.269,45.614c0,18.279,6.308,34.838,16.269,45.969V123.87c0-2.433,1.969-4.406,4.397-4.406  s4.397,1.973,4.397,4.406v34.544c4.419,2.989,9.253,5.067,14.363,6.036v-40.139c0-2.433,1.969-4.406,4.397-4.406  s4.397,1.973,4.397,4.406V165c4.919-0.323,9.715-1.744,14.363-3.953v-36.736c0-2.433,1.969-4.406,4.397-4.406  s4.397,1.973,4.397,4.406v31.576c5.003-3.475,9.802-7.687,14.363-12.193V123.87c0-2.433,1.969-4.406,4.397-4.406  s4.397,1.973,4.397,4.406v10.557c12.015-13.343,21.938-26.653,29.02-29.721c-8.212-5.144-17.762-18.329-29.02-31.066V87.304z"/>
<g>
	<path fill="#EEEEEE" d="M88.874,107.692l-8.945,0.495c-12.575,0.695-25.578,1.414-37.787,4.962   c-9.421,2.737-22.351,8.45-30.449,20.128l-3.611-2.514c8.833-12.737,22.732-18.91,32.835-21.844   c12.69-3.687,25.948-4.42,38.769-5.129l8.945-0.495L88.874,107.692z"/>
</g>
<g>
	<path fill="#D6D7D8" d="M37.573,56.078l-4.913,7.506c-6.907,10.551-14.05,21.462-18.45,33.411   c-3.395,9.221-6.483,23.038-1.913,36.5l-4.163,1.419c-4.985-14.683-1.69-29.554,1.951-39.443   c4.573-12.42,11.856-23.545,18.898-34.303l4.913-7.506L37.573,56.078z"/>
</g>
<path fill="#D6D7D8" d="M79.876,14.333c1.448,1.954,1.041,4.713-0.909,6.163c-1.95,1.451-4.704,1.043-6.151-0.911l-13.7-18.487  c-6.298-0.885-12.585-1.332-18.612-0.975l21.042,28.394c1.448,1.954,1.041,4.713-0.909,6.163c-1.95,1.451-4.704,1.043-6.151-0.911  L30.612,1.557c-4.831,1.176-9.372,3.088-13.47,5.965l25.811,34.83c1.448,1.954,1.041,4.713-0.909,6.163  c-1.95,1.451-4.704,1.043-6.151-0.911l-25.33-34.18c-3.459,3.923-6.073,8.52-7.836,13.567l21.372,28.838  c1.448,1.954,1.041,4.713-0.909,6.163c-1.95,1.451-4.704,1.043-6.151-0.911L0.253,38.43c-1.43,14.812,3.201,31.662,14.078,46.34  c10.876,14.676,25.793,24.202,40.413,27.19L38.795,90.438c-1.448-1.954-1.041-4.713,0.909-6.163c1.95-1.451,4.704-1.043,6.151,0.911  l20.554,27.735c5.326-0.239,10.444-1.459,15.123-3.733L57.649,76.96c-1.448-1.954-1.041-4.713,0.909-6.163  c1.95-1.451,4.704-1.043,6.151,0.911l24.21,32.668c3.758-3.197,6.762-7.204,9.18-11.753L76.241,63.128  c-1.448-1.954-1.041-4.713,0.909-6.163c1.95-1.451,4.704-1.043,6.151,0.911l18.787,25.351c1.95-5.778,3.296-12.026,4.278-18.369  L94.571,48.943c-1.448-1.954-1.041-4.713,0.909-6.163c1.95-1.451,4.704-1.043,6.151,0.911l6.281,8.476  c1.707-17.889,1.756-34.502,5.616-41.196c-9.654,0.776-25.166-4.106-41.784-7.609L79.876,14.333z"/>

</g>
</g>
</g>

              </svg>