<svg width="1500" height="1500" viewBox="0 0 1500 1500" fill="none" xmlns="http://www.w3.org/2000/svg">
<path d="M1020.05 537.897C1022.69 545.811 1019.62 554.465 1015.72 561.842C1004.94 582.235 987.357 598.959 966.442 608.708C954.747 614.159 942.165 617.446 930.247 622.39C895.472 636.817 867.061 665.9 853.463 700.992C857.535 676.589 844.642 652.517 829.166 633.207C813.692 613.897 794.989 596.718 783.969 574.564C774.5 555.529 774.287 527.319 793.517 518.236C807.708 511.534 825.423 519.017 839.841 512.817C844.938 510.626 849.648 505.969 849.354 500.43C848.603 486.272 820.692 487.284 819.984 473.124C819.173 456.933 861.85 461.639 856.459 446.35C854.165 439.842 845.109 438.002 841.905 431.888C838.7 425.773 838.931 417.269 844.305 412.935C851.417 407.203 862.066 411.71 870.991 409.757C881.15 407.533 887.538 397.106 889.598 386.918C891.659 376.731 890.595 366.152 892.089 355.865C895.765 330.548 916.392 308.575 941.438 303.298C966.483 298.021 994.23 309.801 1007.82 331.48C1013.39 340.373 1016.48 352.43 1010.49 361.049C1005.43 368.343 994.375 372.952 995.267 381.786C996.483 393.843 1018.65 394.904 1019.06 407.014C1019.53 421.147 990.416 421.173 991.241 435.289C991.61 441.591 998.237 445.283 1002.26 450.15C1009.81 459.281 1006.81 475.01 996.441 480.733C992.32 483.007 987.34 483.894 983.961 487.171C975.558 495.324 983.775 509.741 993.697 515.959C1003.62 522.184 1016.34 526.795 1020.05 537.897Z" fill="url(#paint0_linear)"/>
<path d="M946.726 538.934C952.695 535.688 959.004 532.687 963.595 527.68C973.352 517.047 972.694 500.928 973.462 486.521C974.23 472.113 979.321 455.113 993.223 451.232C1004.83 447.99 1019.55 455.097 1028.15 446.659C1031.35 443.526 1032.64 438.991 1034.94 435.149C1044.8 418.635 1071.04 419.912 1085.37 432.746C1099.7 445.579 1105.18 465.337 1109.99 483.959C1111.74 490.748 1111.98 500.367 1105.21 502.184C1098.77 503.91 1092.29 495.949 1086.11 498.428C1081.14 500.416 1080.83 507.433 1082.6 512.473C1084.38 517.514 1087.43 522.602 1086.27 527.817C1084.05 537.772 1070.03 538.328 1060.19 535.628C1050.34 532.928 1037.51 530.337 1031.88 538.841C1038.11 558.927 1043.51 583.299 1029.44 598.94C1013.17 617.028 983.366 615.148 959.135 617.417C914.114 621.635 882.314 655.956 857.094 693.472C855.726 630.868 891.69 568.859 946.726 538.934Z" fill="url(#paint1_linear)"/>
<path d="M925.722 460.327L918.074 439.465C915.317 439.33 912.601 439.631 909.968 440.514L918.237 463.069C918.699 464.333 918.05 465.735 916.785 466.201C915.521 466.663 914.118 466.014 913.652 464.75L905.536 442.616C903.078 444.154 900.964 446.184 899.233 448.587L906.08 467.263C906.542 468.527 905.892 469.929 904.628 470.394C903.363 470.856 901.96 470.207 901.495 468.943L896.116 454.275C893.027 461.916 892.846 471.591 896.331 481.098C896.412 481.32 896.497 481.54 896.583 481.758C894.793 482.791 893.045 483.907 891.367 485.138C886.66 488.593 880.593 494.456 878.417 502.765L880.778 503.381C882.774 495.764 888.423 490.326 892.812 487.103C894.326 485.994 895.906 484.976 897.534 484.027C901.187 492.118 907.033 498.412 913.576 501.89L908.465 487.952C908.003 486.688 908.653 485.286 909.917 484.821C911.182 484.359 912.585 485.008 913.05 486.272L919.635 504.232C922.508 504.943 925.424 505.101 928.272 504.627L920.621 483.757C920.159 482.493 920.808 481.091 922.073 480.626C923.338 480.164 924.741 480.813 925.206 482.077L932.963 503.232C935.464 502.126 937.694 500.471 939.696 498.435L932.691 479.334C932.229 478.07 932.878 476.668 934.143 476.203C935.407 475.741 936.81 476.39 937.276 477.654L943.294 494.072C945.239 491.31 946.936 488.204 948.455 484.99L944.677 474.684C944.215 473.42 944.865 472.018 946.129 471.552C947.394 471.09 948.797 471.739 949.262 473.003L951.274 478.492C954.992 469.262 957.627 460.447 960.734 457.498C955.474 456.392 947.983 451.359 939.686 446.886L942.29 453.991C942.752 455.255 942.103 456.657 940.838 457.122C939.574 457.584 938.171 456.935 937.705 455.671L933.316 443.699C930.101 442.238 926.827 441.012 923.561 440.254L930.302 458.641C930.764 459.905 930.115 461.308 928.85 461.773C927.587 462.241 926.186 461.592 925.722 460.327Z" fill="#E0EBFE"/>
<path d="M851.92 1025.04H571.207C542.444 1025.04 519.129 1001.73 519.129 972.987V274.857C519.129 246.109 542.446 222.806 571.207 222.806H851.92C880.683 222.806 903.998 246.111 903.998 274.857V972.989C904 1001.74 880.683 1025.04 851.92 1025.04Z" fill="#C1D7FD"/>
<path d="M656.269 282.29C661.301 282.29 665.381 278.212 665.381 273.182C665.381 268.152 661.301 264.074 656.269 264.074C651.236 264.074 647.156 268.152 647.156 273.182C647.156 278.212 651.236 282.29 656.269 282.29Z" fill="#A1C3FC"/>
<path d="M851.92 222.804H798.032C795.268 224.522 792.552 226.285 789.891 228.066C719.288 275.311 658.565 342.2 634.938 423.772C625.414 456.652 622.114 490.981 614.873 524.438C598.295 601.043 561.359 671.759 519.127 737.836V972.988C519.127 1001.74 542.444 1025.04 571.205 1025.04H851.92C880.683 1025.04 903.998 1001.73 903.998 972.988V274.857C903.998 246.109 880.683 222.804 851.92 222.804Z" fill="#A1C3FC"/>
<path d="M714.375 1010.51C732.237 1010.51 746.717 996.037 746.717 978.184C746.717 960.331 732.237 945.859 714.375 945.859C696.513 945.859 682.033 960.331 682.033 978.184C682.033 996.037 696.513 1010.51 714.375 1010.51Z" fill="url(#paint2_linear)"/>
<path d="M682.407 281.632L747.235 273.549L745.845 262.408L681.017 270.492L682.407 281.632Z" fill="#A1C3FC"/>
<path d="M888.759 313.621H534.372V935.021H888.759V313.621Z" fill="white"/>
<path d="M710.564 999.083C724.217 999.083 735.285 988.021 735.285 974.374C735.285 960.728 724.217 949.665 710.564 949.665C696.91 949.665 685.842 960.728 685.842 974.374C685.842 988.021 696.91 999.083 710.564 999.083Z" fill="#C1D7FD"/>
<path d="M737.92 272.64H684.65C683.597 272.64 682.744 271.788 682.744 270.735C682.744 269.683 683.595 268.831 684.65 268.831H737.92C738.973 268.831 739.825 269.683 739.825 270.735C739.825 271.788 738.973 272.64 737.92 272.64Z" fill="#428DFC"/>
<path d="M656.493 278.322C659.946 278.322 662.745 275.525 662.745 272.074C662.745 268.623 659.946 265.826 656.493 265.826C653.041 265.826 650.242 268.623 650.242 272.074C650.242 275.525 653.041 278.322 656.493 278.322Z" fill="#428DFC"/>
<path d="M519.926 315.413H513.523V343.005H519.926V315.413Z" fill="#D62929"/>
<path d="M519.926 376.197H513.523V425.784H519.926V376.197Z" fill="#D62929"/>
<path d="M910.513 376.197H904.11V425.784H910.513V376.197Z" fill="#D62929"/>
<path d="M519.926 440.979H513.523V490.566H519.926V440.979Z" fill="#D62929"/>
<path d="M639.792 267.953L648.623 277.486L658.162 268.659L649.33 259.126L639.792 267.953Z" fill="white"/>
<path d="M636.332 266.4L642.575 273.139L649.318 266.899L643.075 260.16L636.332 266.4Z" fill="#A1C3FC"/>
<path d="M299.475 924.221C298.962 933.735 304.964 942.337 311.494 949.28C329.543 968.473 353.977 981.566 379.96 985.969C394.49 988.432 409.339 988.243 423.961 990.081C466.626 995.441 506.719 1018.87 532.326 1053.39C520.449 1027.75 527.351 997.346 538.543 971.401C549.736 945.454 565.119 920.875 570.541 893.145C575.203 869.316 566.889 838.191 542.96 834.011C525.304 830.925 508.063 844.529 490.309 842.066C484.033 841.196 477.435 837.494 476.08 831.307C472.616 815.49 503.658 808.157 500.146 792.349C496.131 774.276 450.567 792.373 451.869 773.907C452.424 766.044 461.838 761.278 463.514 753.577C465.19 745.876 462.362 736.578 455.129 733.436C445.563 729.276 435.2 737.463 424.781 738.013C412.92 738.639 402.727 729.092 397.374 718.496C392.019 707.9 389.985 695.93 385.225 685.054C373.505 658.289 344.135 640.337 314.957 642.108C285.779 643.88 258.797 665.247 250.402 693.234C246.96 704.714 247.213 718.924 256.416 726.604C264.204 733.104 277.772 734.83 279.466 744.829C281.779 758.473 257.689 766.351 260.914 779.809C264.677 795.514 296.744 786.73 300.11 802.525C301.613 809.575 295.432 815.647 292.478 822.226C286.933 834.564 294.998 850.979 308.154 854.142C313.38 855.4 319.135 854.868 323.847 857.454C335.57 863.888 330.889 882.251 321.85 892.102C312.809 901.945 300.193 910.872 299.475 924.221Z" fill="url(#paint3_linear)"/>
<path d="M380.529 903.169C372.973 901.402 365.117 900.008 358.543 895.884C344.578 887.128 340.418 869.183 335.207 853.549C329.995 837.915 319.238 820.737 302.754 820.672C288.992 820.617 274.93 832.898 262.903 826.209C258.437 823.725 255.636 819.124 251.949 815.589C236.085 800.389 207.58 809.739 195.687 828.207C183.795 846.678 183.751 870.089 184.1 892.052C184.227 900.058 186.878 910.724 194.887 910.672C202.5 910.625 207.213 899.897 214.778 900.756C220.844 901.444 223.319 909.075 222.891 915.162C222.463 921.251 220.639 927.778 223.501 933.169C228.962 943.459 244.576 939.827 254.595 933.875C264.612 927.925 277.961 921.182 286.741 928.844C285.968 952.849 287.404 981.32 307.633 994.283C331.029 1009.28 363.281 998.184 390.649 993.348C441.503 984.365 486.919 1012.53 526.055 1046.21C508.589 976.853 450.201 919.46 380.529 903.169Z" fill="url(#paint4_linear)"/>
<path d="M531.721 1056.56C514.526 1011.44 500.592 965.08 490 917.968" stroke="#428DFC" stroke-width="3.25417" stroke-miterlimit="10" stroke-linecap="round"/>
<path d="M465.699 918.531C466.836 923.487 478.509 925.041 491.772 922.001C505.034 918.962 514.864 912.48 513.727 907.524C512.59 902.568 500.917 901.014 487.654 904.053C474.392 907.093 464.562 913.575 465.699 918.531Z" fill="#23286B"/>
<path d="M488.73 912.249C482.887 885.542 478.114 858.601 474.428 831.512" stroke="#428DFC" stroke-width="3.25417" stroke-miterlimit="10" stroke-linecap="round"/>
<path d="M445.527 834.752C447.473 840.564 461.656 841.059 477.205 835.857C492.754 830.655 503.781 821.727 501.835 815.915C499.888 810.103 485.706 809.609 470.157 814.81C454.608 820.012 443.58 828.94 445.527 834.752Z" fill="#23286B"/>
<path d="M473.483 824.378C470.594 801.969 468.447 779.466 467.051 756.915" stroke="#428DFC" stroke-width="3.25417" stroke-miterlimit="10" stroke-linecap="round"/>
<path d="M439.045 749.795C439.11 755.922 452.453 760.749 468.847 760.575C485.241 760.401 498.479 755.293 498.414 749.166C498.349 743.039 485.006 738.213 468.612 738.386C452.217 738.56 438.98 743.668 439.045 749.795Z" fill="#23286B"/>
<path d="M466.517 747.584C465.612 730.423 465.143 713.236 465.112 696.05" stroke="#428DFC" stroke-width="3.25417" stroke-miterlimit="10" stroke-linecap="round"/>
<path d="M425.607 687.428C425.694 695.643 443.583 702.114 465.563 701.881C487.543 701.648 505.291 694.8 505.204 686.585C505.117 678.37 487.228 671.899 465.248 672.132C443.268 672.365 425.52 679.213 425.607 687.428Z" fill="#23286B"/>
<path d="M465.156 684.393C465.269 672.938 465.573 661.485 466.076 650.04" stroke="#428DFC" stroke-width="3.25417" stroke-miterlimit="10" stroke-linecap="round"/>
<path d="M1222.39 958.586H1254.26C1252.41 959.17 1250.56 959.658 1248.61 959.949H1228.14C1226.19 959.559 1224.34 959.071 1222.39 958.586ZM1215.17 955.76H1261.48C1262.45 955.37 1263.33 954.884 1264.2 954.397H1212.54C1213.32 954.884 1214.3 955.37 1215.17 955.76ZM1208.45 951.57H1268.79C1269.47 951.082 1270.05 950.693 1270.74 950.207H1206.99C1207.47 950.695 1207.96 951.18 1208.45 951.57ZM1204.84 947.477H1274.15C1274.63 946.989 1275.22 946.601 1275.71 946.114H1204.16C1204.36 946.505 1204.55 946.991 1204.84 947.477ZM1202.89 943.289H1278.44C1278.83 942.801 1279.22 942.412 1279.71 941.926H1202.5C1202.6 942.412 1202.79 942.802 1202.89 943.289ZM1201.82 939.098H1281.95C1282.34 938.61 1282.63 938.222 1282.92 937.735H1201.63C1201.72 938.223 1201.82 938.71 1201.82 939.098ZM1201.33 935.009H1284.77C1285.06 934.521 1285.36 934.132 1285.55 933.646H1201.14C1201.24 934.033 1201.24 934.521 1201.33 935.009ZM1201.14 930.819H1287.11C1287.31 930.331 1287.6 929.942 1287.79 929.456H1201.14C1201.14 929.94 1201.14 930.331 1201.14 930.819ZM1201.92 926.142C1201.82 926.336 1201.82 926.433 1201.73 926.63H1288.97C1289.16 926.142 1289.36 925.753 1289.46 925.267H1202.5C1202.31 925.556 1202.11 925.851 1201.92 926.142ZM1207.57 922.049C1207.28 922.243 1206.99 922.341 1206.69 922.44H1290.33C1290.43 921.952 1290.52 921.563 1290.72 921.077H1209.23C1208.74 921.465 1208.16 921.758 1207.57 922.049ZM1212.93 918.347H1291.3C1291.4 917.859 1291.5 917.47 1291.5 916.984H1214.3C1213.91 917.472 1213.42 917.958 1212.93 918.347ZM1216.73 914.254H1291.99C1291.99 913.766 1292.08 913.378 1292.08 912.891H1217.71C1217.42 913.282 1217.12 913.77 1216.73 914.254ZM1219.37 910.067H1292.18C1292.18 909.579 1292.18 909.191 1292.18 908.704H1220.05C1219.85 909.093 1219.56 909.579 1219.37 910.067ZM1221.12 905.879H1291.99C1291.99 905.391 1291.89 905.002 1291.79 904.516H1221.51C1221.41 905 1221.22 905.488 1221.12 905.879ZM1222.19 901.786H1291.3C1291.21 901.298 1291.11 900.812 1291.01 900.423H1222.39C1222.29 900.81 1222.19 901.298 1222.19 901.786ZM1222.58 897.596H1290.13C1289.94 897.108 1289.84 896.621 1289.65 896.232H1222.58C1222.58 896.621 1222.58 897.109 1222.58 897.596ZM1287.6 892.044H1222.1C1222.19 892.532 1222.29 892.921 1222.29 893.407H1288.28C1288.09 893.017 1287.79 892.53 1287.6 892.044ZM1284.87 887.951H1221.02C1221.12 888.439 1221.32 888.828 1221.41 889.314H1285.85C1285.55 888.826 1285.26 888.342 1284.87 887.951ZM1281.17 883.761H1220.34C1220.34 884.249 1220.34 884.638 1220.44 885.124H1282.63C1282.04 884.639 1281.56 884.151 1281.17 883.761ZM1276 879.865C1275.81 879.767 1275.71 879.671 1275.51 879.574H1221.61C1221.31 879.964 1221.02 880.451 1220.83 880.937H1277.66C1277.07 880.644 1276.59 880.156 1276 879.865ZM1263.72 875.479H1228.92C1227.56 875.772 1226.29 876.259 1225.02 876.843H1269.08C1267.32 876.26 1265.57 875.772 1263.72 875.479Z" fill="#EEEEEE"/>
<path d="M1153.92 841.3C1159.25 841.3 1163.57 836.979 1163.57 831.649C1163.57 826.319 1159.25 821.998 1153.92 821.998C1148.59 821.998 1144.26 826.319 1144.26 831.649C1144.26 836.979 1148.59 841.3 1153.92 841.3Z" fill="#A1C3FC"/>
<path d="M133.51 339.4C138.843 339.4 143.166 335.079 143.166 329.749C143.166 324.419 138.843 320.098 133.51 320.098C128.178 320.098 123.854 324.419 123.854 329.749C123.854 335.079 128.178 339.4 133.51 339.4Z" fill="#A1C3FC"/>
<path d="M1162 373H618V701H1162V373Z" fill="#EEEEEE"/>
<path d="M1154.75 430.135H622.65V396.648C622.65 384.931 632.16 375.432 643.891 375.432H1154.75V430.135V430.135Z" fill="url(#paint5_linear)"/>
<path d="M621.65 430.135V431.135H622.65H1154.75V430.135H1155.75V375.432V374.432H1154.75H643.891C631.609 374.432 621.65 384.377 621.65 396.648V430.135Z" stroke="#3281EC" stroke-opacity="0.1" stroke-width="2"/>
<path d="M685.401 436.089H627.474V402.439C627.474 390.811 636.911 381.385 648.552 381.385H685.401V436.089V436.089Z" fill="#78A9EF"/>
<path d="M671.363 393.828H641.51V423.646H671.363V393.828Z" fill="#89B3F4"/>
<path d="M725.528 459.141H626.845V482.333H725.528V459.141Z" fill="url(#paint6_linear)"/>
<path d="M814.814 459.141H716.131V482.333H814.814V459.141Z" fill="#F2F2F2"/>
<path d="M904.098 459.141H805.415V482.333H904.098V459.141Z" fill="url(#paint7_linear)"/>
<path d="M993.381 459.141H894.698V482.333H993.381V459.141Z" fill="#F2F2F2"/>
<path d="M1082.67 459.141H983.984V482.333H1082.67V459.141Z" fill="url(#paint8_linear)"/>
<path d="M1153.71 459.141H1055.02V482.333H1153.71V459.141Z" fill="#F2F2F2"/>
<path d="M1108.93 448.097H723.04C717.567 448.097 713.089 443.624 713.089 438.158V433.74C713.089 428.273 717.567 423.8 723.04 423.8H1108.93C1114.4 423.8 1118.88 428.273 1118.88 433.74V438.158C1118.88 443.624 1114.4 448.097 1108.93 448.097Z" fill="#F7F7F7"/>
<path d="M741.493 443.798C742.867 443.798 743.98 442.686 743.98 441.313C743.98 439.941 742.867 438.829 741.493 438.829C740.119 438.829 739.005 439.941 739.005 441.313C739.005 442.686 740.119 443.798 741.493 443.798Z" fill="#23286B"/>
<path d="M754.759 443.798C756.133 443.798 757.247 442.686 757.247 441.313C757.247 439.941 756.133 438.829 754.759 438.829C753.385 438.829 752.271 439.941 752.271 441.313C752.271 442.686 753.385 443.798 754.759 443.798Z" fill="#23286B"/>
<path d="M768.026 443.798C769.4 443.798 770.514 442.686 770.514 441.313C770.514 439.941 769.4 438.829 768.026 438.829C766.652 438.829 765.538 439.941 765.538 441.313C765.538 442.686 766.652 443.798 768.026 443.798Z" fill="#23286B"/>
<path d="M1126.23 863.484C1121.83 861.916 1110.19 871.236 1105.42 873.139C1098.47 875.914 1089.64 878.539 1085.16 884.702C1079.36 892.682 1083.16 900.162 1086.31 908.464C1089.21 916.089 1088.91 919.047 1091.58 926.702C1093.2 931.336 1096.54 935.945 1101.6 935.98C1105.19 936.007 1127.41 937.185 1130.54 936.142C1136.05 934.306 1141.93 921.931 1145.42 916.952C1152.33 907.119 1140.04 906.91 1133.5 910.692C1129.28 913.133 1125.53 918.43 1121.21 919.909C1116.98 921.356 1114.65 920.085 1110.17 919.858C1109.06 915.404 1107.89 909.277 1108.4 904.646C1108.95 899.676 1114.88 896.513 1119.44 895.309C1129.16 892.742 1139.56 891.824 1149.45 890.482C1147.6 885.556 1139.47 880.34 1136 876.227C1132.21 871.725 1129.07 866.568 1125.04 862.17C1125.62 863.294 1125.74 862.317 1126.23 863.484Z" fill="#F2A19C"/>
<path d="M1098.88 897.735C1101.54 905.25 1110.23 905.625 1116.33 908.633C1122.73 911.787 1133.17 913.385 1134.62 919.683C1137.37 931.588 1123.84 926.457 1119.06 924.647C1112.49 922.161 1106.54 918.155 1099.67 917.282C1093.78 916.533 1089.51 912.871 1089.47 906.825C1089.45 902.365 1093.7 898.374 1098.88 897.735Z" fill="url(#paint9_linear)"/>
<path d="M1185 1345.83C1188.8 1361.19 1197.18 1392.16 1191.7 1393.59C1178.95 1394.05 1070.19 1394.05 1046.45 1393.95C1044.22 1390.36 1044.73 1387.24 1045.98 1383.74C1049.37 1374.21 1060.92 1366.37 1070.54 1362.94C1080.16 1359.52 1086.27 1358.95 1095.67 1355.1C1106.41 1350.71 1112.94 1346.07 1124.78 1344.29C1129.57 1343.57 1141.27 1343.8 1146.26 1344.03C1159.18 1344.63 1172.09 1345.23 1185 1345.83Z" fill="url(#paint10_linear)"/>
<path d="M845.525 656.988C846.82 656.988 848.12 656.546 849.182 655.643C851.558 653.622 851.846 650.06 849.824 647.685L778.266 563.635C776.243 561.258 772.677 560.974 770.302 562.993C767.925 565.014 767.637 568.576 769.66 570.951L841.218 655.001C842.337 656.315 843.926 656.988 845.525 656.988Z" fill="#23286B"/>
<path d="M866.865 652.599C862.897 649.482 854.397 647.087 851.892 642.595C849.308 637.961 850.773 633.072 848.661 628.763C846.58 624.518 823.321 606.664 820.856 609.148C817.808 612.221 822.282 621.129 824.197 623.744C827.982 628.914 833.997 631.811 836.106 637.543C838.351 643.645 836.14 646.713 841.098 651.919C846.382 657.468 854.726 663.537 861.213 667.635C862.132 668.217 863.398 669.982 864.215 670.723C865.385 666.74 869.831 654.928 866.865 652.599Z" fill="#FFBEB6"/>
<path d="M824.579 630.136C820.852 627.82 807.768 617.119 803.172 618.105C795.074 619.842 801.503 631.646 802.503 635.484C805.311 646.261 801.151 655.718 805.345 666.214C810.486 679.082 818.425 675.734 830.599 678.265C837.013 679.599 847.024 683.41 852.675 686.955C859.151 691.019 864.073 696.226 871.32 699.419C869.508 687.801 874.977 677.264 879.18 666.384C874.359 663.206 868.039 661.702 862.708 659.047C859.254 657.327 855.528 654.196 852.117 653.487C852.08 654.17 836.011 637.238 824.579 630.136Z" fill="#FFBEB6"/>
<path d="M1163.88 669.045C1160.89 683.867 1143.9 695.979 1139.55 710.478C1130.08 711.336 1102.83 708.984 1099.39 699.833C1097.37 694.457 1100.39 685.432 1101.58 680.433C1104.13 669.75 1111.97 659.169 1113.85 649.05C1119.76 652.892 1129.31 653.298 1136.14 655.316C1140.19 656.509 1141.28 657.709 1144.81 659.74C1149.78 662.587 1158.79 667.423 1163.88 669.045Z" fill="#F2A19C"/>
<path d="M1224.24 620.188C1216.43 606.611 1184.82 557.711 1160.22 574.903C1139.97 589.055 1101.22 606.133 1104.65 610.676C1113.49 621.524 1112.63 621.511 1106.4 633.104C1101.4 642.4 1096.57 649.768 1102.14 659.369C1110.01 672.961 1134.59 681.329 1149.18 684.371C1186.86 692.233 1222.94 665.618 1224.53 626.669C1223.58 625.255 1226.12 619.588 1224.24 620.188Z" fill="url(#paint11_linear)"/>
<path d="M1109.5 626.328C1116.62 630.012 1127.72 633.74 1126.89 645.256C1126.18 655.095 1114.94 661.685 1107.26 660.611C1075.97 656.228 1092.35 640.117 1109.5 626.328Z" fill="#23286B"/>
<path d="M1207.12 578.079C1194.18 551.568 1137.13 556.857 1125.61 584.298C1145.25 606.036 1162.45 619.64 1187.4 643.738C1191.94 634.455 1209.89 579.571 1207.12 578.079Z" fill="#23286B"/>
<path d="M1254.57 690.837C1255.08 690.837 1255.51 690.423 1255.51 689.907C1255.53 687.911 1255.62 685.715 1255.71 683.336C1256.42 664.956 1257.49 637.18 1236.2 605.537C1231.16 598.063 1219.96 589.347 1212.49 588.87C1211.97 588.846 1211.52 589.23 1211.49 589.749C1211.46 590.267 1211.85 590.715 1212.37 590.748C1218.6 591.145 1229.42 598.844 1234.63 606.587C1255.59 637.72 1254.53 665.127 1253.83 683.263C1253.74 685.66 1253.65 687.873 1253.63 689.884C1253.62 690.404 1254.04 690.829 1254.56 690.837C1254.56 690.837 1254.57 690.837 1254.57 690.837Z" fill="#23286B"/>
<path d="M1252.97 625.071C1253.01 625.071 1253.04 625.069 1253.08 625.065C1253.6 625.003 1253.97 624.535 1253.91 624.017C1252.78 614.656 1242.13 603.189 1236.65 598.433C1228.9 591.699 1219.89 590.769 1211.31 590.769C1210.79 590.769 1210.37 591.191 1210.37 591.71C1210.37 592.229 1210.79 592.651 1211.31 592.651C1219.53 592.651 1228.13 593.524 1235.42 599.854C1240.7 604.446 1250.97 615.452 1252.03 624.243C1252.09 624.719 1252.5 625.071 1252.97 625.071Z" fill="#23286B"/>
<path d="M1066.99 1345.83C1070.79 1361.19 1079.17 1392.16 1073.69 1393.59C1060.94 1394.05 952.179 1394.05 928.442 1393.95C926.207 1390.36 926.721 1387.24 927.969 1383.74C931.363 1374.21 942.912 1366.37 952.533 1362.94C962.153 1359.52 968.264 1358.95 977.665 1355.1C988.402 1350.71 994.931 1346.07 1006.77 1344.29C1011.56 1343.57 1023.26 1343.8 1028.25 1344.03C1041.17 1344.63 1054.08 1345.23 1066.99 1345.83Z" fill="url(#paint12_linear)"/>
<path d="M943.194 957.804H1019.57V1155.17H943.194V957.804Z" fill="#428DFC"/>
<path d="M1057 991.267C1061.38 989.656 1103.36 1136.16 1112.67 1155.81C1123.95 1179.66 1144.82 1192.27 1149.24 1219.87C1153.35 1245.53 1165 1261.53 1175.84 1284.71C1185.14 1304.58 1180.31 1326.08 1186.24 1346.65C1164.52 1354.11 1129.9 1348.89 1105.92 1347.67C1106.97 1327.55 1091.27 1301.12 1082.34 1283.39C1070.39 1259.67 1054.52 1238.27 1039.95 1216.03C1031.99 1203.87 1019.45 1191.99 1013.51 1179.44C1006.86 1165.38 1006.93 1144.73 1005.71 1129.41C1004.08 1109 1006.56 1088.6 1005.34 1067.95C1004.28 1049.82 1000.37 1031.31 997.809 1013.31C995.573 997.576 984.282 968.037 999.784 959.916C1015.03 951.926 1044.84 955.048 1061.77 955.938C1058.78 967.589 1056.71 978.277 1056.8 990.345C1055.14 990.693 1056.96 993.632 1057 991.267Z" fill="#151A4F"/>
<path d="M972.718 889.944C958.952 907.252 962.679 946.796 965.841 967.87C970.993 1002.21 974.817 1038 978.052 1072.85C981.986 1115.22 983.252 1159.06 983.252 1201.78C983.252 1240.2 987.457 1278.52 987.267 1316.32C987.216 1326.59 987.097 1344.35 984.738 1354.07C999.337 1353.87 1055.53 1353.49 1069.97 1354.25C1075.96 1329.54 1078.67 1309.07 1071.12 1284.71C1063.72 1260.84 1061.58 1245.05 1067.57 1220.23C1074.49 1191.54 1064.36 1177.44 1054.36 1151.87C1049.86 1140.35 1053.25 1133.1 1054.39 1121.57C1055.85 1106.82 1053.57 1091.61 1054.36 1076.8C1055.56 1054.37 1060.2 1004.48 1068.99 993.186C1077.32 982.476 1088.65 970.199 1089.7 946.77C1090.02 939.608 1089.8 909.919 1085.31 903.491C1079.1 894.611 1052.7 911.804 1043.46 911.063C1022.75 909.399 993.464 884.179 973.78 890.938C972.249 891.659 972.192 888.744 972.718 889.944Z" fill="url(#paint13_linear)"/>
<path d="M1140.54 719.085C1148.93 715.692 1184.42 791.629 1192.14 801.639C1202.06 814.493 1227.6 843.347 1231.4 858.531C1233.43 866.632 1218.02 874.732 1204.29 880.562C1193.2 885.268 1178.57 887.353 1167.6 892.59C1160.47 895.994 1133.34 904.234 1133.34 904.234C1133.34 904.234 1117.04 872.258 1114.81 866.487C1122.96 861.167 1131.67 859.31 1142.32 852.705C1153.88 845.543 1154.07 843.498 1167.02 846.181C1162.31 839.898 1156.39 842.006 1151.54 838.259C1146.62 834.458 1142.49 826.252 1138.41 821.352C1129.77 810.984 1118.65 803.905 1109.47 793.714C1082.61 763.9 1110.13 737.021 1126.1 724.103C1124.92 721.813 1133.64 720.967 1140.54 719.085Z" fill="#89B3F4"/>
<path d="M1167.46 684.797C1150.14 682.029 1122.11 676.583 1092.43 669.756C1090.85 669.391 1089.33 670.578 1089.3 672.202C1089.16 678.779 1089.06 682.435 1088.6 688.012C1088.33 691.309 1083.59 693.089 1079.33 694.82C1065.9 700.275 1053.65 705.226 1042.79 717.017C1022.94 738.563 1008.6 750.553 998.032 778.095C989.285 800.902 984.946 824.745 978.018 847.837C974.168 860.676 971.038 873.391 967.778 886.296C965.82 894.048 958.082 913.114 960.536 920.31C960.628 920.577 959.737 927.552 959.713 927.665C1003.7 929.212 1050.15 930.467 1089.87 930.608C1089.89 919.645 1090.01 895.477 1089.7 889.696C1089.18 880 1094.73 875.737 1092.69 868.004C1097.11 866.892 1105.08 868.03 1105.62 863.529C1105.92 861.032 1106.05 859.207 1103.69 857.455C1120.91 840.617 1130.56 807.032 1142.23 785.95C1148.39 774.81 1152.33 763.49 1153.12 750.53C1153.89 738.034 1151.7 722.03 1147.45 712.189C1152.47 705.913 1169.06 682.981 1167.46 684.797Z" fill="url(#paint14_linear)"/>
<path d="M860.211 653.622C855.648 663.744 852.537 675.247 849.099 685.987C846.784 686.422 846.255 684.8 847.509 681.123" stroke="black" stroke-width="1.88241" stroke-miterlimit="10"/>
<path d="M1002.05 736.126C996.275 724.83 989.615 709.791 978.322 703.553C965.443 712.22 934.673 709.37 927.958 719.202" stroke="black" stroke-width="1.88241" stroke-miterlimit="10"/>
<path d="M1043.41 718.449L1044.45 717.86C1049.99 714.751 1055.27 710.58 1060.38 706.547C1070.93 698.221 1081.84 689.619 1095.33 690.086C1106.37 690.477 1141.89 708.818 1147.8 715.105C1148.52 715.863 1149.71 715.899 1150.47 715.188C1151.23 714.477 1151.26 713.286 1150.55 712.527C1144.19 705.766 1107.44 686.748 1095.46 686.322C1080.58 685.805 1069.13 694.843 1058.05 703.591C1054.1 706.707 1050.32 709.691 1046.43 712.243C1045.9 711.737 1045.08 711.577 1044.37 711.899C1042.95 712.537 1041.3 713.483 1041.13 715.158C1041.07 715.732 1041.16 716.829 1042.43 717.745L1043.41 718.449Z" fill="#D6D7D8"/>
<path d="M1204.22 573.785C1212.06 578.629 1218.02 591.673 1218.02 591.673C1218.02 591.673 1226.95 597.886 1229.21 599.499C1241.24 608.094 1244.57 628.659 1248.13 642.816C1250.81 653.511 1251.89 672.232 1248.3 683.346C1244.19 696.102 1241.86 695.441 1229.5 696.22C1214.7 697.154 1178.27 696.156 1160.45 695.577C1154.81 695.394 1150.37 690.745 1150.43 685.107C1150.6 671.433 1150.81 647.198 1150.42 633.571C1149.92 615.563 1146.27 594.676 1163.66 584.663C1170.39 580.791 1177.13 576.135 1184.83 575.275C1189.93 574.707 1204.84 573.437 1204.22 573.785Z" fill="#23286B"/>
<path d="M1211.13 824.506C1199.39 822.246 1210.44 848.216 1209.61 853.313C1208.59 859.525 1192.78 883.24 1203.43 879.999C1216.53 876.012 1227.8 870.977 1231.4 865.012C1237.61 854.749 1228.92 848.951 1223.56 840.628C1220.1 835.258 1215.25 830.588 1211.13 824.506Z" fill="url(#paint15_linear)"/>
<path d="M1045.13 872.13H1096.6C1097.64 872.13 1098.49 871.287 1098.49 870.248C1098.49 869.21 1097.64 868.367 1096.6 868.367H1045.13C1044.09 868.367 1043.25 869.21 1043.25 870.248C1043.25 871.287 1044.09 872.13 1045.13 872.13Z" fill="#D6D7D8"/>
<path d="M758.069 564.824C752.324 557.367 746.328 531.708 756.495 544.532C760.316 549.351 769.98 543.785 775.725 551.242C781.471 558.699 782.175 567.784 777.3 571.534C772.424 575.285 763.813 572.281 758.069 564.824Z" fill="url(#paint16_linear)"/>
<path opacity="0.51" d="M1027.25 943.449C1027.09 943.513 1026.91 943.43 1026.84 943.268C1026.78 943.106 1026.86 942.924 1027.02 942.86C1027.18 942.796 1027.37 942.879 1027.43 943.04C1027.49 943.204 1027.41 943.385 1027.25 943.449ZM1024.52 936.246C1024.35 936.304 1024.17 936.223 1024.09 936.061C1024.04 935.894 1024.13 935.715 1024.29 935.659C1024.44 935.591 1024.62 935.653 1024.69 935.803C1024.69 935.813 1024.7 935.824 1024.7 935.839C1024.76 936.001 1024.68 936.184 1024.52 936.246ZM995.017 942.309C994.948 942.472 994.757 942.547 994.594 942.476C994.443 942.416 994.368 942.245 994.428 942.094C994.432 942.081 994.437 942.068 994.447 942.056C994.513 941.898 994.69 941.821 994.85 941.883C995.014 941.955 995.089 942.145 995.017 942.309ZM1038.73 931.344C1038.61 931.46 1038.41 931.457 1038.29 931.334C1038.17 931.21 1038.18 931.016 1038.3 930.898C1038.42 930.777 1038.62 930.785 1038.74 930.907C1038.86 931.016 1038.86 931.205 1038.75 931.323C1038.74 931.332 1038.74 931.338 1038.73 931.344ZM1011.38 941.834C1011.36 942.009 1011.21 942.145 1011.04 942.149C1010.86 942.143 1010.72 941.99 1010.72 941.808C1010.73 941.627 1010.88 941.486 1011.06 941.494C1011.24 941.514 1011.37 941.661 1011.38 941.834ZM1011.61 934.132C1011.6 934.306 1011.44 934.437 1011.27 934.426C1011.1 934.434 1010.96 934.304 1010.95 934.134C1010.95 934.125 1010.95 934.117 1010.95 934.108C1010.96 933.929 1011.11 933.792 1011.29 933.794C1011.47 933.811 1011.6 933.957 1011.61 934.132ZM1069.12 946.732C1068.9 946.975 1068.52 946.996 1068.28 946.774C1068.27 946.77 1068.27 946.764 1068.26 946.759C1068.03 946.539 1068.01 946.162 1068.23 945.923C1068.23 945.923 1068.23 945.921 1068.23 945.921C1068.45 945.679 1068.83 945.658 1069.08 945.88C1069.08 945.884 1069.09 945.889 1069.09 945.895C1069.33 946.115 1069.35 946.492 1069.13 946.731C1069.13 946.732 1069.13 946.732 1069.13 946.732H1069.12ZM1058.43 936.797C1058.2 937.043 1057.82 937.06 1057.57 936.833C1057.32 936.605 1057.31 936.221 1057.53 935.971C1057.53 935.971 1057.54 935.965 1057.54 935.963C1057.76 935.724 1058.14 935.707 1058.38 935.928L1058.38 935.93C1058.63 936.165 1058.65 936.543 1058.43 936.797ZM1024.14 981.883C1024.14 982.216 1023.88 982.492 1023.55 982.506C1023.23 982.528 1022.95 982.289 1022.92 981.969C1022.92 981.956 1022.92 981.947 1022.92 981.937C1022.92 981.604 1023.18 981.328 1023.51 981.314C1023.84 981.299 1024.12 981.553 1024.14 981.883ZM1023.04 952.68C1023.05 953.012 1022.8 953.286 1022.47 953.301C1022.47 953.301 1022.45 953.301 1022.45 953.301C1022.12 953.324 1021.85 953.085 1021.82 952.765C1021.82 952.752 1021.82 952.743 1021.82 952.733C1021.82 952.396 1022.08 952.116 1022.41 952.088C1022.75 952.086 1023.02 952.347 1023.04 952.68ZM1022.49 938.09C1022.51 938.423 1022.24 938.703 1021.91 938.713C1021.57 938.724 1021.29 938.459 1021.28 938.124C1021.27 937.794 1021.52 937.514 1021.85 937.497C1022.18 937.478 1022.47 937.73 1022.49 938.065C1022.49 938.075 1022.49 938.082 1022.49 938.09ZM1052.33 968.513C1052.02 968.643 1051.67 968.498 1051.54 968.193C1051.41 967.888 1051.56 967.537 1051.86 967.409C1052.16 967.283 1052.51 967.418 1052.64 967.715C1052.77 968.02 1052.63 968.376 1052.33 968.513ZM1046.24 955.228C1045.93 955.358 1045.58 955.213 1045.46 954.908C1045.33 954.604 1045.47 954.252 1045.78 954.124C1046.08 953.998 1046.42 954.133 1046.55 954.43C1046.68 954.735 1046.54 955.089 1046.24 955.228ZM1040.15 941.962C1039.83 942.094 1039.47 941.947 1039.34 941.635C1039.21 941.336 1039.34 940.986 1039.64 940.843C1039.94 940.694 1040.31 940.82 1040.46 941.125C1040.61 941.43 1040.48 941.797 1040.18 941.947C1040.16 941.955 1040.16 941.958 1040.15 941.962ZM996.844 970.739C996.721 971.05 996.373 971.206 996.061 971.086C995.754 970.976 995.597 970.636 995.706 970.331C995.706 970.331 995.706 970.327 995.708 970.325C995.801 970.019 996.123 969.847 996.43 969.938C996.445 969.941 996.458 969.947 996.475 969.953C996.782 970.079 996.94 970.421 996.844 970.739ZM1006.98 943.336C1006.88 943.637 1006.55 943.801 1006.24 943.697C1006.24 943.695 1006.23 943.692 1006.22 943.686C1005.9 943.582 1005.74 943.242 1005.84 942.928C1005.84 942.916 1005.84 942.909 1005.85 942.899C1005.97 942.585 1006.32 942.429 1006.63 942.547C1006.94 942.668 1007.1 943.018 1006.98 943.328C1006.98 943.332 1006.98 943.334 1006.98 943.336ZM1065.18 962.196C1064.92 962.343 1064.59 962.258 1064.44 962.004C1064.29 961.75 1064.38 961.421 1064.63 961.269C1064.89 961.116 1065.22 961.205 1065.37 961.461C1065.52 961.715 1065.43 962.042 1065.18 962.196ZM1058.64 950.915C1058.38 951.062 1058.05 950.978 1057.9 950.724C1057.74 950.473 1057.82 950.14 1058.07 949.982C1058.32 949.824 1058.65 949.899 1058.81 950.151C1058.82 950.161 1058.82 950.17 1058.83 950.18C1058.98 950.426 1058.9 950.75 1058.66 950.904C1058.65 950.908 1058.64 950.91 1058.64 950.915ZM1052.32 939.32C1052.3 939.452 1052.21 939.567 1052.09 939.633C1051.84 939.779 1051.51 939.695 1051.36 939.441C1051.2 939.179 1051.29 938.844 1051.55 938.686L1051.55 938.684C1051.71 938.594 1051.9 938.585 1052.06 938.662L1052.08 938.666C1052.18 938.705 1052.25 938.78 1052.29 938.876C1052.37 939.01 1052.39 939.179 1052.32 939.32ZM1011.07 969.13C1010.99 969.42 1010.69 969.588 1010.39 969.518C1010.12 969.447 1009.95 969.162 1010.02 968.884C1010.02 968.876 1010.02 968.869 1010.03 968.861C1010.1 968.572 1010.39 968.397 1010.68 968.468C1010.68 968.468 1010.68 968.47 1010.68 968.47C1010.97 968.555 1011.14 968.844 1011.07 969.13ZM1017.75 943.917C1017.68 944.207 1017.39 944.382 1017.1 944.313C1017.1 944.313 1017.09 944.311 1017.09 944.309C1016.81 944.249 1016.64 943.974 1016.71 943.703C1016.71 943.686 1016.71 943.669 1016.72 943.654C1016.79 943.364 1017.08 943.189 1017.37 943.259C1017.37 943.261 1017.38 943.261 1017.38 943.263C1017.66 943.349 1017.82 943.637 1017.75 943.917ZM1021.09 931.336C1021 931.624 1020.7 931.788 1020.41 931.701C1020.14 931.618 1019.97 931.329 1020.05 931.045C1020.13 930.764 1020.41 930.593 1020.7 930.653C1020.99 930.742 1021.16 931.041 1021.09 931.336ZM1039.19 964.102C1039.22 964.398 1039.01 964.663 1038.72 964.701C1038.43 964.74 1038.16 964.537 1038.12 964.245C1038.09 963.95 1038.29 963.677 1038.58 963.623C1038.88 963.589 1039.15 963.8 1039.19 964.102ZM1037.45 951.169C1037.5 951.45 1037.31 951.719 1037.03 951.768C1037.02 951.77 1037.01 951.77 1037 951.774C1036.71 951.813 1036.44 951.61 1036.4 951.318C1036.36 951.023 1036.56 950.75 1036.85 950.695C1037.15 950.665 1037.41 950.876 1037.45 951.169ZM1035.72 938.242C1035.76 938.534 1035.56 938.799 1035.27 938.839C1034.98 938.874 1034.71 938.677 1034.67 938.389C1034.63 938.099 1034.83 937.826 1035.12 937.781C1035.41 937.738 1035.68 937.937 1035.73 938.231C1035.72 938.235 1035.72 938.236 1035.72 938.242ZM998.693 941.712C998.51 941.947 998.173 941.998 997.929 941.821C997.695 941.631 997.657 941.289 997.848 941.053C998.028 940.831 998.35 940.784 998.584 940.948C998.823 941.117 998.881 941.449 998.714 941.688C998.704 941.695 998.699 941.706 998.693 941.712ZM1034.83 939.996C1034.82 940.169 1034.67 940.301 1034.5 940.289C1034.32 940.28 1034.19 940.128 1034.2 939.954C1034.21 939.781 1034.36 939.65 1034.54 939.661C1034.71 939.67 1034.84 939.823 1034.83 939.996ZM1035.36 932.322C1035.34 932.499 1035.18 932.625 1035 932.612C1034.83 932.603 1034.7 932.45 1034.71 932.277C1034.71 932.112 1034.85 931.978 1035.02 931.984C1035.03 931.984 1035.04 931.984 1035.05 931.985C1035.22 931.991 1035.36 932.138 1035.36 932.317C1035.36 932.317 1035.36 932.318 1035.36 932.322ZM1049.95 934.11C1049.79 934.153 1049.61 934.068 1049.55 933.91C1049.49 933.75 1049.57 933.57 1049.73 933.512C1049.74 933.508 1049.75 933.508 1049.75 933.506C1049.91 933.446 1050.08 933.521 1050.15 933.677C1050.15 933.688 1050.15 933.696 1050.15 933.705C1050.21 933.873 1050.12 934.053 1049.95 934.11ZM1020.77 932.2C1020.69 932.358 1020.51 932.422 1020.35 932.347C1020.19 932.27 1020.13 932.083 1020.2 931.925C1020.26 931.773 1020.44 931.699 1020.58 931.76C1020.6 931.763 1020.61 931.771 1020.62 931.778C1020.78 931.848 1020.84 932.034 1020.77 932.189C1020.77 932.194 1020.77 932.196 1020.77 932.2ZM1070.62 937.67C1070.45 937.768 1070.24 937.715 1070.14 937.552C1070.14 937.55 1070.14 937.546 1070.13 937.542C1070.03 937.377 1070.08 937.158 1070.24 937.053C1070.25 937.049 1070.26 937.043 1070.26 937.038C1070.43 936.94 1070.64 936.993 1070.74 937.156C1070.74 937.158 1070.74 937.162 1070.75 937.166C1070.85 937.341 1070.79 937.563 1070.62 937.67ZM1034.23 942.745C1034.19 942.928 1034.01 943.046 1033.83 943.008C1033.82 943.007 1033.81 943.001 1033.79 942.995C1033.6 942.945 1033.49 942.749 1033.54 942.559C1033.6 942.371 1033.78 942.252 1033.98 942.284C1034.17 942.34 1034.29 942.546 1034.23 942.745C1034.23 942.741 1034.23 942.741 1034.23 942.745ZM1036.41 934.238C1036.36 934.435 1036.15 934.546 1035.95 934.488C1035.76 934.437 1035.65 934.242 1035.7 934.052C1035.76 933.863 1035.95 933.745 1036.14 933.777C1036.34 933.835 1036.45 934.037 1036.41 934.238ZM1052.32 939.32C1052.28 939.349 1052.23 939.371 1052.18 939.382C1051.99 939.413 1051.8 939.279 1051.78 939.083C1051.78 939.079 1051.77 939.078 1051.77 939.072C1051.75 938.878 1051.87 938.701 1052.06 938.662L1052.08 938.666C1052.28 938.635 1052.46 938.769 1052.49 938.965C1052.49 938.968 1052.49 938.974 1052.49 938.976C1052.51 939.117 1052.44 939.254 1052.32 939.32ZM1019.82 931.225C1019.7 931.385 1019.47 931.417 1019.31 931.299C1019.31 931.295 1019.3 931.293 1019.3 931.291C1019.15 931.173 1019.12 930.952 1019.24 930.796C1019.34 930.636 1019.55 930.589 1019.71 930.693C1019.72 930.698 1019.73 930.7 1019.74 930.706C1019.9 930.828 1019.93 931.058 1019.82 931.225ZM1064.99 976.046C1065.02 976.388 1064.78 976.693 1064.43 976.742C1064.09 976.783 1063.78 976.546 1063.74 976.208C1063.7 975.863 1063.95 975.555 1064.3 975.511C1064.64 975.466 1064.95 975.705 1064.99 976.046ZM1063.13 961.097C1063.18 961.438 1062.94 961.748 1062.6 961.795C1062.26 961.843 1061.95 961.6 1061.9 961.259C1061.86 960.919 1062.1 960.608 1062.44 960.561C1062.78 960.518 1063.09 960.757 1063.13 961.097ZM1061.3 946.153C1061.33 946.497 1061.08 946.806 1060.74 946.849C1060.4 946.879 1060.1 946.629 1060.07 946.288C1060.03 945.95 1060.29 945.647 1060.62 945.615C1060.95 945.581 1061.25 945.82 1061.3 946.153ZM1013.06 947.739C1012.85 948.004 1012.46 948.055 1012.19 947.85C1011.91 947.639 1011.86 947.25 1012.07 946.977C1012.29 946.704 1012.68 946.653 1012.95 946.866C1013.22 947.079 1013.27 947.464 1013.06 947.739ZM1022.31 935.866C1022.09 936.133 1021.71 936.185 1021.43 935.977C1021.16 935.754 1021.12 935.361 1021.33 935.081C1021.55 934.814 1021.95 934.782 1022.21 935.002C1022.47 935.22 1022.51 935.598 1022.31 935.866ZM1039.68 952.848C1039.58 953.183 1039.24 953.379 1038.91 953.286C1038.58 953.194 1038.39 952.857 1038.49 952.536C1038.57 952.204 1038.91 952.007 1039.24 952.09C1039.57 952.172 1039.77 952.509 1039.68 952.84L1039.68 952.848ZM1043.68 938.338C1043.6 938.666 1043.27 938.863 1042.94 938.782C1042.94 938.782 1042.93 938.78 1042.93 938.778C1042.59 938.696 1042.39 938.355 1042.47 938.016C1042.55 937.679 1042.89 937.473 1043.23 937.555C1043.57 937.638 1043.77 937.979 1043.69 938.317C1043.69 938.327 1043.69 938.334 1043.68 938.338ZM1048.02 957.902C1047.93 958.239 1047.59 958.444 1047.26 958.363C1046.93 958.28 1046.73 957.953 1046.79 957.626C1046.88 957.289 1047.21 957.078 1047.55 957.142C1047.89 957.234 1048.09 957.565 1048.02 957.902ZM1051.4 943.287C1051.32 943.624 1050.98 943.829 1050.64 943.748C1050.31 943.673 1050.1 943.342 1050.18 943.01C1050.25 942.679 1050.58 942.468 1050.92 942.544C1051.25 942.623 1051.46 942.95 1051.4 943.287ZM1073.61 950.377C1073.66 950.712 1073.43 951.025 1073.1 951.079C1073.1 951.079 1073.09 951.081 1073.09 951.079C1072.75 951.141 1072.43 950.919 1072.37 950.582C1072.32 950.24 1072.55 949.922 1072.89 949.858C1073.22 949.813 1073.54 950.04 1073.61 950.377ZM1071.13 935.564C1071.2 935.901 1070.97 936.223 1070.64 936.285C1070.3 936.349 1069.98 936.123 1069.92 935.788C1069.92 935.785 1069.91 935.779 1069.91 935.771C1069.87 935.433 1070.1 935.113 1070.43 935.047C1070.77 934.994 1071.08 935.224 1071.13 935.557C1071.13 935.561 1071.13 935.561 1071.13 935.564ZM1019.98 953.141C1019.77 953.416 1019.38 953.478 1019.1 953.275C1018.83 953.076 1018.76 952.692 1018.96 952.417C1019.14 952.137 1019.52 952.06 1019.8 952.242C1019.81 952.248 1019.81 952.25 1019.82 952.259C1020.11 952.451 1020.18 952.839 1019.99 953.125C1019.99 953.132 1019.98 953.136 1019.98 953.141ZM1028.69 940.933C1028.48 941.208 1028.09 941.27 1027.81 941.067C1027.54 940.867 1027.47 940.483 1027.67 940.208C1027.86 939.928 1028.23 939.851 1028.51 940.034C1028.52 940.039 1028.53 940.041 1028.53 940.05C1028.82 940.242 1028.89 940.632 1028.7 940.916C1028.7 940.922 1028.69 940.927 1028.69 940.933ZM1045.15 946.618C1045.04 946.851 1044.76 946.951 1044.53 946.84C1044.3 946.731 1044.2 946.461 1044.3 946.23C1044.4 946.002 1044.66 945.893 1044.89 945.987C1044.9 945.993 1044.92 946 1044.93 946.008C1045.16 946.119 1045.25 946.39 1045.15 946.618ZM1049.93 936.389C1049.82 936.624 1049.54 936.722 1049.31 936.611C1049.07 936.5 1048.97 936.214 1049.09 935.98C1049.19 935.747 1049.47 935.645 1049.7 935.751C1049.7 935.753 1049.71 935.756 1049.71 935.758C1049.94 935.875 1050.04 936.153 1049.93 936.389ZM1069.14 946.273C1069.12 946.529 1068.9 946.725 1068.65 946.714C1068.39 946.685 1068.2 946.475 1068.21 946.221C1068.22 945.965 1068.44 945.765 1068.69 945.778C1068.94 945.784 1069.14 945.987 1069.14 946.236C1069.14 946.253 1069.14 946.262 1069.14 946.273ZM1069.66 934.96C1069.64 935.222 1069.42 935.423 1069.16 935.421C1068.9 935.41 1068.71 935.192 1068.72 934.934C1068.72 934.934 1068.72 934.934 1068.72 934.93C1068.72 934.68 1068.92 934.482 1069.17 934.484C1069.17 934.484 1069.18 934.486 1069.19 934.486C1069.45 934.488 1069.65 934.695 1069.66 934.953C1069.66 934.953 1069.66 934.957 1069.66 934.96Z" fill="white"/>
<path d="M1024.08 750.461C1008.94 764.66 1008.81 797.575 1013.21 816.258C1018.75 839.746 1034.54 860.736 1057.83 869.522C1029.82 877.557 1012.95 883.671 997.445 910.997C985.584 931.906 975.26 954.207 966.462 976.827C949.499 1020.44 952.488 1076.32 954.283 1122.93C954.748 1135.02 955.862 1144.45 955.431 1155.32C950.797 1154.61 939.054 1155.69 933.855 1155.75C921.667 1155.89 926.621 1152.05 926.13 1139.55C925.725 1129.25 926.316 1123.17 926.629 1112.33C927.399 1085.62 926.546 1057.79 929.263 1031.03C934.634 978.14 943.897 922.035 958.235 871.52C965.293 846.652 977.987 820.686 988.853 796.476C999.477 772.806 1008.39 744.94 1034.45 725.923C1031.32 734.395 1030.46 744.471 1024.08 750.461Z" fill="url(#paint17_linear)"/>
<path d="M1095.2 688.594C1122.83 697.927 1120.02 722.491 1101.51 742.497C1083.91 761.514 1058.7 757.948 1035.93 753.057C1013.99 748.347 992.009 744.102 970.084 739.641C943.163 734.163 921.629 723.607 896.309 711.31C878.809 702.812 860.01 693.812 841.493 690.028C849.67 676.724 854.621 660.903 859.374 646.967C877.683 654.787 900.642 661.926 920.044 664.995C929.804 666.54 999.505 676.56 1001.69 676.771C1011.97 677.763 1021.52 678.769 1031.98 679.403C1052.85 680.668 1072.74 682.22 1092.75 687.886C1093.26 688.206 1094.23 688.594 1095.2 688.594Z" fill="url(#paint18_linear)"/>
<path d="M992.469 859.679C983.015 859.679 975.35 852.02 975.35 842.572C975.35 833.124 983.015 825.466 992.469 825.466C1001.92 825.466 1009.59 833.124 1009.59 842.572C1009.59 852.02 1001.92 859.679 992.469 859.679Z" fill="#F7931E"/>
<path d="M976.01 879.416C969.828 879.416 964.817 874.409 964.817 868.231C964.817 862.054 969.828 857.046 976.01 857.046C982.192 857.046 987.203 862.054 987.203 868.231C987.203 874.409 982.192 879.416 976.01 879.416Z" fill="#22B573"/>
<path d="M988.01 741.039C1003.79 738.333 986.114 719.939 979.851 716.577C971.187 711.925 957.5 709.827 947.806 709.613C942.482 709.494 915.115 709.263 916.676 719.083C917.618 725.005 942.236 731.111 947.211 732.731C959.25 736.651 974.859 741.686 987.287 742.106C986.493 741.782 988.828 740.591 988.01 741.039Z" fill="url(#paint19_linear)"/>
<path d="M988.498 797.255C994.068 797.898 998.396 802.62 998.396 808.359C998.396 814.536 993.385 819.544 987.202 819.544C984.31 819.544 981.683 818.437 979.696 816.638C982.662 810.092 985.639 803.615 988.498 797.255Z" fill="#22B573"/>
<path d="M960.156 865.181C963.574 854.433 967.903 843.528 972.575 832.689C977.725 835.777 981.185 841.396 981.185 847.835C981.185 857.594 973.268 865.506 963.5 865.506C962.355 865.506 961.239 865.388 960.156 865.181Z" fill="#ED1E79"/>
<path d="M956.052 879.427C963.683 881.386 969.332 888.287 969.332 896.523C969.332 906.281 961.415 914.194 951.648 914.194C950.277 914.194 948.947 914.023 947.667 913.727C950.23 902.108 953.017 890.644 956.052 879.427Z" fill="#ED1E79"/>
<path d="M356.956 253.797C347.082 252.718 337.472 251.085 328.122 248.903C329.426 238.605 331.008 228.893 333.016 220.07C342.697 221.289 352.308 222.92 361.849 224.963C360.816 234.366 359.143 243.992 356.956 253.797Z" fill="#E94A47"/>
<path d="M315.6 467.64C312.294 470.889 308.866 473.88 305.317 476.613C301.981 473.101 298.939 469.661 296.343 466.33C299.643 463.192 303.071 460.201 306.627 457.356C309.72 460.507 312.703 463.954 315.6 467.64Z" fill="#E94A47"/>
<path d="M459.65 316.286C454.317 318.085 448.987 319.535 443.66 320.642C441.876 315.037 440.375 309.666 439.304 304.652C444.572 302.971 449.902 301.519 455.294 300.296C457.004 305.377 458.438 310.724 459.65 316.286Z" fill="#A1C3FC"/>
<path d="M257.291 396.779C240.623 409.865 223.53 421.71 206.018 432.329C192.644 414.68 180.568 397.507 170.468 381.057C187.052 368.474 204.142 356.624 221.74 345.506C234.193 361.389 246 378.565 257.291 396.779Z" fill="#23286B"/>
<path d="M1197.89 325.621C1184.32 329.913 1170.77 333.325 1157.24 335.867C1153 321.606 1149.46 307.952 1147 295.219C1160.4 291.223 1173.95 287.808 1187.64 284.973C1191.72 297.904 1195.09 311.497 1197.89 325.621Z" fill="#E94A47"/>
<path d="M1065.65 163.618C1057.06 164.128 1048.61 164.126 1040.31 163.618C1039.93 154.63 1039.87 146.101 1040.31 138.271C1048.76 137.91 1057.2 137.91 1065.65 138.271C1066.13 146.456 1066.1 154.924 1065.65 163.618Z" fill="#E94A47"/>
<path d="M1020.79 226.134C1005.54 233.385 990.176 239.598 974.702 244.784C967.398 228.72 961.02 213.254 956.051 198.697C971.148 191.821 986.51 185.605 1002.14 180.046C1009.04 194.575 1015.2 209.996 1020.79 226.134Z" fill="#23286B"/>
<path d="M394.63 419.501C380.348 415.255 366.605 410.262 353.395 404.529C358.086 389.683 363.032 375.775 368.366 363.294C382.325 367.696 396.07 372.686 409.601 378.266C405.549 391.865 400.492 405.62 394.63 419.501Z" fill="#A1C3FC"/>
<path d="M1246.21 1145.39C1246.45 1145.11 1246.68 1144.83 1246.91 1144.55C1246.76 1144.54 1246.6 1144.54 1246.45 1144.53C1248.66 1135.46 1244.3 1125.85 1238.14 1118.78C1235.42 1115.64 1232.19 1112.74 1228.23 1111.5C1224.09 1110.2 1219.6 1110.85 1215.4 1111.92C1203.15 1115.03 1191.82 1121.72 1183.16 1130.95C1180.34 1133.95 1177.64 1137.8 1178.44 1141.84C1179.34 1146.35 1184.41 1150.45 1182.33 1154.54C1180.19 1158.77 1172.88 1157.23 1170.25 1161.17C1166.21 1167.24 1178.74 1174.53 1175.52 1181.07C1173.87 1184.43 1169.33 1184.71 1165.91 1186.21C1159.34 1189.09 1156.72 1198.46 1160.82 1204.34C1164.48 1209.57 1172.57 1213.29 1171.04 1219.49C1170.5 1221.66 1168.8 1223.32 1167.24 1224.92C1162.1 1230.17 1157.58 1236.25 1155.37 1243.26C1153.15 1250.27 1153.48 1258.32 1157.44 1264.52C1159.47 1267.69 1162.33 1270.23 1165.25 1272.61C1179.78 1284.47 1185.41 1296.93 1197.07 1311.64C1204.35 1320.82 1220.56 1379.68 1224.52 1396.24C1227.52 1372.14 1234.44 1300.47 1237.35 1296.49C1240.26 1292.52 1241.77 1286.93 1239.3 1282.66C1237.5 1279.56 1234.06 1277.88 1231.13 1275.8C1228.2 1273.73 1225.43 1270.46 1226.14 1266.94C1226.47 1265.31 1227.49 1263.92 1228.54 1262.64C1231.87 1258.55 1235.74 1254.82 1238.17 1250.15C1240.59 1245.47 1241.28 1239.39 1238.18 1235.14C1235.27 1231.14 1229.67 1229.38 1225.3 1226.93C1229.03 1224.07 1234.5 1222.12 1237.6 1218.42C1239.97 1215.6 1240.83 1211.59 1239.84 1208.04C1238.79 1204.3 1235.96 1201.41 1233.69 1198.23C1234.16 1196.38 1234.02 1194.53 1232.93 1192.86C1232.34 1191.97 1231.56 1191.27 1230.67 1190.68C1230.55 1188.8 1230.97 1187 1232.21 1185.56C1234.1 1183.38 1237.3 1182.79 1239.39 1180.81C1242.71 1177.65 1241.59 1171.19 1237.4 1169.34C1234.99 1168.28 1231.44 1168 1231.05 1165.39C1231 1165.09 1231.02 1164.79 1231.07 1164.5C1237.28 1158.73 1243.91 1153.3 1246.21 1145.39Z" fill="url(#paint20_linear)"/>
<path d="M1278.5 1283.49C1276.78 1279.18 1272.78 1275.85 1271.98 1271.27C1270.82 1264.63 1276.66 1259.14 1280.41 1253.55C1286.07 1245.11 1287.38 1233.9 1283.8 1224.39C1280.23 1214.88 1271.88 1207.31 1262.07 1204.71C1255.83 1203.05 1248.96 1203.23 1243.41 1199.92C1235.86 1195.41 1229.83 1184.6 1221.55 1187.54C1215.75 1189.59 1214.39 1197.49 1216.31 1203.34C1218.22 1209.2 1222.31 1214.16 1224.1 1220.05C1227.52 1231.31 1222.02 1243.08 1217.65 1254C1213.28 1264.92 1210.28 1278.4 1217.57 1287.63C1221.12 1292.12 1226.81 1295.05 1228.87 1300.4C1231.68 1307.68 1226.55 1315.31 1224.03 1322.69C1219.34 1336.43 1224.7 1352.97 1236.56 1361.32C1236.96 1343.84 1245.08 1326.68 1258.34 1315.3C1263.47 1310.9 1269.35 1307.3 1273.77 1302.19C1278.2 1297.08 1281 1289.77 1278.5 1283.49Z" fill="url(#paint21_linear)"/>
<path d="M1217.84 1387.91C1217.8 1387.91 1217.77 1387.91 1217.73 1387.9C1217.3 1387.84 1216.99 1387.44 1217.06 1387.01C1220.83 1360.17 1226.51 1334.98 1233.95 1312.15C1234.08 1311.73 1234.53 1311.5 1234.95 1311.64C1235.36 1311.77 1235.59 1312.22 1235.45 1312.64C1228.05 1335.38 1222.38 1360.48 1218.62 1387.23C1218.57 1387.62 1218.23 1387.91 1217.84 1387.91Z" fill="#23286B"/>
<path d="M1225.42 1301.43C1227.69 1298.08 1233.9 1298.33 1239.29 1302C1244.67 1305.66 1247.2 1311.35 1244.93 1314.7C1242.65 1318.05 1236.45 1317.8 1231.06 1314.13C1225.67 1310.47 1223.15 1304.78 1225.42 1301.43Z" fill="#C6DDFE"/>
<path d="M1236.4 1308.11C1236.31 1308.11 1236.22 1308.09 1236.14 1308.07C1235.72 1307.92 1235.5 1307.47 1235.65 1307.06C1239.47 1295.88 1243.81 1285.02 1248.54 1274.78C1248.73 1274.39 1249.2 1274.21 1249.59 1274.4C1249.99 1274.58 1250.16 1275.05 1249.98 1275.45C1245.27 1285.64 1240.95 1296.44 1237.14 1307.57C1237.03 1307.9 1236.72 1308.11 1236.4 1308.11Z" fill="#23286B"/>
<path d="M1236.51 1260.98C1238.78 1257.63 1247.21 1259.4 1255.34 1264.93C1263.47 1270.46 1268.22 1277.66 1265.95 1281.01C1263.67 1284.36 1255.24 1282.59 1247.11 1277.06C1238.98 1271.53 1234.24 1264.33 1236.51 1260.98Z" fill="#C6DDFE"/>
<path d="M1250.93 1272.37C1250.81 1272.37 1250.69 1272.35 1250.58 1272.3C1250.19 1272.11 1250.02 1271.63 1250.21 1271.24C1251.64 1268.24 1253.13 1265.25 1254.64 1262.35C1258.78 1254.37 1263.3 1246.56 1268.1 1239.13C1268.34 1238.77 1268.83 1238.66 1269.2 1238.9C1269.56 1239.14 1269.67 1239.63 1269.43 1240C1264.66 1247.38 1260.16 1255.15 1256.04 1263.08C1254.55 1265.96 1253.06 1268.94 1251.64 1271.92C1251.5 1272.21 1251.22 1272.37 1250.93 1272.37Z" fill="#23286B"/>
<path d="M1255.35 1221.84C1258.04 1219.16 1266.55 1223.35 1274.36 1231.2C1282.17 1239.05 1286.32 1247.59 1283.64 1250.27C1280.95 1252.95 1272.44 1248.76 1264.63 1240.91C1256.82 1233.07 1252.67 1224.53 1255.35 1221.84Z" fill="#C6DDFE"/>
<path d="M1271.26 1236.56C1271.11 1236.56 1270.95 1236.52 1270.82 1236.43C1270.46 1236.19 1270.36 1235.69 1270.6 1235.33C1277.02 1225.74 1284.03 1216.61 1291.42 1208.2C1291.71 1207.88 1292.21 1207.85 1292.54 1208.13C1292.87 1208.42 1292.9 1208.92 1292.61 1209.25C1285.26 1217.61 1278.3 1226.68 1271.92 1236.21C1271.76 1236.44 1271.51 1236.56 1271.26 1236.56Z" fill="#23286B"/>
<path d="M1284.37 1180.97C1289.12 1178.9 1297.86 1188.46 1303.89 1202.32C1309.92 1216.18 1310.96 1229.09 1306.22 1231.17C1301.47 1233.24 1292.73 1223.68 1286.7 1209.82C1280.67 1195.96 1279.63 1183.05 1284.37 1180.97Z" fill="#C6DDFE"/>
<path d="M1295.91 1205.2C1295.72 1205.2 1295.52 1205.13 1295.37 1204.99C1295.05 1204.7 1295.03 1204.19 1295.33 1203.87C1302.93 1195.63 1311.05 1187.98 1319.47 1181.15C1319.81 1180.87 1320.31 1180.92 1320.58 1181.26C1320.86 1181.6 1320.81 1182.1 1320.47 1182.38C1312.11 1189.17 1304.04 1196.76 1296.49 1204.95C1296.33 1205.12 1296.12 1205.2 1295.91 1205.2Z" fill="#23286B"/>
<path d="M1303.24 1154.03C1307.23 1150.73 1319.53 1159.04 1330.72 1172.6C1341.9 1186.15 1347.73 1199.82 1343.74 1203.12C1339.75 1206.43 1327.45 1198.12 1316.26 1184.56C1305.08 1171.01 1299.25 1157.34 1303.24 1154.03Z" fill="#C6DDFE"/>
<path d="M1324.14 1179.25C1323.9 1179.25 1323.67 1179.14 1323.51 1178.94C1323.25 1178.59 1323.31 1178.1 1323.66 1177.83C1329.2 1173.54 1334.98 1169.52 1340.81 1165.87C1341.18 1165.64 1341.67 1165.76 1341.9 1166.13C1342.13 1166.5 1342.02 1166.99 1341.65 1167.22C1335.86 1170.84 1330.13 1174.83 1324.62 1179.08C1324.48 1179.2 1324.31 1179.25 1324.14 1179.25Z" fill="#23286B"/>
<path d="M1231.9 1403.08L1229.04 1394.37C1228.91 1393.95 1229.13 1393.51 1229.55 1393.37C1229.65 1393.33 1229.76 1393.32 1229.87 1393.33C1227.99 1351.1 1226.98 1301.6 1232.58 1251.26C1232.85 1248.87 1233.13 1246.46 1233.42 1244.11C1233.48 1243.67 1233.88 1243.37 1234.31 1243.42C1234.74 1243.47 1235.05 1243.87 1235 1244.3C1234.71 1246.65 1234.42 1249.05 1234.16 1251.44C1228.38 1303.27 1229.64 1354.25 1231.63 1397.29L1231.9 1403.08Z" fill="#1D72D8"/>
<path d="M1223.63 1244.41C1223.03 1242.25 1227.22 1239.2 1232.99 1237.61C1238.75 1236.02 1243.91 1236.48 1244.51 1238.64C1245.1 1240.81 1240.91 1243.85 1235.15 1245.45C1229.38 1247.04 1224.22 1246.58 1223.63 1244.41Z" fill="#23286B"/>
<path d="M1234.65 1241.52C1234.62 1241.52 1234.59 1241.51 1234.55 1241.51C1234.12 1241.45 1233.81 1241.05 1233.87 1240.62C1235.79 1225.88 1238.29 1211.46 1241.28 1197.75C1241.38 1197.32 1241.8 1197.05 1242.23 1197.14C1242.65 1197.23 1242.92 1197.66 1242.83 1198.08C1239.84 1211.75 1237.36 1226.13 1235.44 1240.83C1235.39 1241.22 1235.05 1241.52 1234.65 1241.52Z" fill="#1D72D8"/>
<path d="M1228.37 1199.2C1227.78 1197.04 1233.19 1193.66 1240.47 1191.65C1247.74 1189.64 1254.12 1189.76 1254.72 1191.92C1255.32 1194.09 1249.9 1197.47 1242.63 1199.48C1235.35 1201.49 1228.97 1201.37 1228.37 1199.2Z" fill="#23286B"/>
<path d="M1242.81 1195.32C1242.75 1195.32 1242.69 1195.31 1242.63 1195.3C1242.21 1195.2 1241.94 1194.78 1242.04 1194.35C1244.86 1181.87 1248.18 1169.64 1251.91 1158.02C1252.04 1157.6 1252.49 1157.37 1252.91 1157.5C1253.32 1157.64 1253.55 1158.08 1253.42 1158.5C1249.71 1170.09 1246.4 1182.27 1243.58 1194.7C1243.5 1195.07 1243.17 1195.32 1242.81 1195.32Z" fill="#1D72D8"/>
<path d="M1253.03 1148.73C1243.53 1147.91 1235.59 1150.13 1235.29 1153.68C1234.98 1157.24 1242.42 1160.78 1251.91 1161.6C1261.4 1162.42 1269.35 1160.2 1269.65 1156.65C1269.96 1153.09 1262.52 1149.55 1253.03 1148.73Z" fill="#23286B"/>
<path d="M1254.15 1154.52C1254.06 1154.52 1253.98 1154.51 1253.9 1154.48C1253.48 1154.34 1253.26 1153.89 1253.4 1153.48C1256.17 1145.18 1259.21 1136.98 1262.46 1129.11C1262.62 1128.71 1263.08 1128.51 1263.49 1128.68C1263.89 1128.85 1264.09 1129.31 1263.92 1129.72C1260.69 1137.55 1257.66 1145.71 1254.9 1153.98C1254.79 1154.31 1254.48 1154.52 1254.15 1154.52Z" fill="#1D72D8"/>
<path d="M1246.12 1123.11C1246.63 1119.89 1255 1118.55 1264.81 1120.11C1274.62 1121.67 1282.16 1125.54 1281.65 1128.76C1281.14 1131.98 1272.77 1133.33 1262.96 1131.77C1253.15 1130.21 1245.61 1126.33 1246.12 1123.11Z" fill="#23286B"/>
<path d="M1264.8 1126.37C1264.69 1126.37 1264.59 1126.34 1264.48 1126.3C1264.08 1126.13 1263.9 1125.66 1264.07 1125.26C1266.17 1120.32 1268.4 1115.4 1270.69 1110.64C1271.38 1109.2 1272.09 1107.76 1272.8 1106.33C1273 1105.94 1273.47 1105.78 1273.86 1105.97C1274.26 1106.17 1274.41 1106.64 1274.22 1107.04C1273.51 1108.46 1272.81 1109.89 1272.12 1111.33C1269.84 1116.06 1267.62 1120.96 1265.52 1125.88C1265.4 1126.18 1265.1 1126.37 1264.8 1126.37Z" fill="#1D72D8"/>
<path d="M1253.46 1099.88C1254.08 1095.99 1263.66 1094.28 1274.87 1096.06C1286.07 1097.84 1294.65 1102.44 1294.03 1106.34C1293.42 1110.23 1283.83 1111.94 1272.63 1110.16C1261.43 1108.38 1252.84 1103.78 1253.46 1099.88Z" fill="#23286B"/>
<path d="M1276.25 1102.1C1276.13 1102.1 1276 1102.07 1275.89 1102.01C1275.5 1101.81 1275.35 1101.33 1275.55 1100.94C1277.42 1097.36 1279.36 1093.81 1281.32 1090.4C1281.54 1090.02 1282.02 1089.89 1282.4 1090.1C1282.78 1090.32 1282.91 1090.81 1282.69 1091.19C1280.75 1094.58 1278.82 1098.11 1276.96 1101.67C1276.81 1101.95 1276.54 1102.1 1276.25 1102.1Z" fill="#1D72D8"/>
<path d="M1257.55 1337.44H1195.43V1416H1257.55V1337.44Z" fill="url(#paint22_linear)"/>
<path d="M418.615 1151.29C419.614 1152.28 421.211 1152.27 422.181 1151.29C423.151 1150.3 423.127 1148.7 422.128 1147.72L412.673 1138.43C412.646 1134.78 412.868 1131.18 413.525 1127.79L428.048 1142.06C429.047 1143.04 430.643 1143.04 431.614 1142.05C432.584 1141.06 432.56 1139.47 431.561 1138.48L415.084 1122.29C416.116 1119.65 417.544 1117.23 419.485 1115.14L437.3 1132.64C438.299 1133.63 439.896 1133.62 440.866 1132.64C441.836 1131.65 441.812 1130.05 440.813 1129.07L423.331 1111.89C425.818 1110.25 428.624 1109.14 431.621 1108.56L446.371 1123.05C447.37 1124.03 448.967 1124.03 449.937 1123.04C450.907 1122.06 450.884 1120.46 449.884 1119.48L438.299 1108.09C446.811 1108.5 456.023 1112.51 463.53 1119.89C471.037 1127.26 475.316 1136.51 475.907 1145.05L464.9 1134.23C463.901 1133.25 462.304 1133.26 461.334 1134.24C460.364 1135.23 460.387 1136.83 461.386 1137.81L475.571 1151.75C475.033 1154.75 473.955 1157.56 472.312 1160.03L455.829 1143.83C454.83 1142.84 453.233 1142.85 452.263 1143.84C451.293 1144.82 451.316 1146.42 452.315 1147.4L469.024 1163.82C466.926 1165.69 464.426 1167.07 461.662 1168.07L446.577 1153.24C445.578 1152.26 443.981 1152.26 443.011 1153.25C442.041 1154.24 442.064 1155.83 443.063 1156.82L456.03 1169.56C452.604 1170.19 448.957 1170.44 445.284 1170.48L437.144 1162.48C436.145 1161.49 434.548 1161.5 433.578 1162.49C432.608 1163.47 432.631 1165.07 433.63 1166.05L437.965 1170.31C427.686 1169.81 418.255 1168.47 414.166 1170.12C415.335 1164.7 413.736 1155.5 413.004 1145.78L418.615 1151.29Z" fill="#EEEEEE"/>
<path d="M459.79 1126.14L463.567 1122.71C468.877 1117.88 474.367 1112.88 480.702 1109.35C485.59 1106.62 493.102 1103.67 501.133 1105.09L501.543 1102.61C492.784 1101.06 484.696 1104.22 479.454 1107.14C472.87 1110.81 467.272 1115.91 461.859 1120.83L458.082 1124.27L459.79 1126.14Z" fill="#EEEEEE"/>
<path d="M459.092 1084.46L464.138 1085.49C471.23 1086.94 478.564 1088.44 485.229 1091.47C490.372 1093.81 497.28 1098.13 500.982 1105.43L503.228 1104.31C499.19 1096.35 491.767 1091.69 486.251 1089.18C479.324 1086.03 471.846 1084.5 464.615 1083.02L459.569 1081.99L459.092 1084.46Z" fill="#D6D7D8"/>
<path d="M425.048 1084.81C425.272 1086.19 426.567 1087.13 427.942 1086.93C429.317 1086.72 430.25 1085.43 430.025 1084.06L427.907 1071.03C430.06 1068.11 432.389 1065.37 434.943 1063.07L438.196 1083.08C438.42 1084.46 439.716 1085.41 441.09 1085.2C442.465 1084.99 443.398 1083.71 443.173 1082.33L439.484 1059.63C441.897 1058.14 444.497 1057.06 447.315 1056.56L451.306 1081.11C451.53 1082.48 452.825 1083.43 454.2 1083.22C455.575 1083.02 456.508 1081.73 456.283 1080.36L452.368 1056.26C455.361 1056.44 458.293 1057.23 461.07 1058.55L464.373 1078.88C464.597 1080.26 465.892 1081.2 467.267 1081C468.642 1080.79 469.575 1079.51 469.35 1078.13L466.755 1062.16C473.409 1067.56 478.478 1076.24 480.16 1086.59C481.841 1096.93 479.793 1106.84 475.179 1113.99L472.713 1098.82C472.489 1097.44 471.194 1096.5 469.819 1096.7C468.444 1096.91 467.512 1098.2 467.736 1099.57L470.913 1119.12C468.687 1121.19 466.141 1122.78 463.338 1123.76L459.646 1101.05C459.422 1099.67 458.126 1098.72 456.752 1098.93C455.377 1099.14 454.444 1100.42 454.668 1101.8L458.411 1124.82C455.596 1125.06 452.751 1124.67 449.917 1123.81L446.538 1103.02C446.314 1101.65 445.018 1100.7 443.644 1100.91C442.269 1101.11 441.336 1102.4 441.56 1103.77L444.465 1121.64C441.313 1120.1 438.209 1118.13 435.212 1115.97L433.389 1104.75C433.165 1103.37 431.87 1102.43 430.495 1102.63C429.12 1102.84 428.188 1104.12 428.412 1105.5L429.383 1111.48C421.355 1104.95 414.513 1098.26 410.222 1097.13C414.398 1093.52 418.591 1085.24 423.792 1077.08L425.048 1084.81Z" fill="#D6D7D8"/>
<defs>
<linearGradient id="paint0_linear" x1="777.693" y1="501.521" x2="1021.04" y2="501.521" gradientUnits="userSpaceOnUse">
<stop stop-color="#B9D3FD"/>
<stop offset="1" stop-color="#89B3F4"/>
</linearGradient>
<linearGradient id="paint1_linear" x1="857.059" y1="558.206" x2="1111.04" y2="558.206" gradientUnits="userSpaceOnUse">
<stop stop-color="#DEEAFE"/>
<stop offset="1" stop-color="#E9F1FE"/>
</linearGradient>
<linearGradient id="paint2_linear" x1="682.032" y1="978.183" x2="746.717" y2="978.183" gradientUnits="userSpaceOnUse">
<stop stop-color="#A1C3FC"/>
<stop offset="1" stop-color="#8AB8FD"/>
</linearGradient>
<linearGradient id="paint3_linear" x1="555.322" y1="810.568" x2="287.441" y2="884.245" gradientUnits="userSpaceOnUse">
<stop stop-color="#B9D3FD"/>
<stop offset="1" stop-color="#89B3F4"/>
</linearGradient>
<linearGradient id="paint4_linear" x1="485.112" y1="896.979" x2="205.529" y2="973.875" gradientUnits="userSpaceOnUse">
<stop stop-color="#DEEAFE"/>
<stop offset="1" stop-color="#E9F1FE"/>
</linearGradient>
<linearGradient id="paint5_linear" x1="622.65" y1="402.783" x2="1154.75" y2="402.783" gradientUnits="userSpaceOnUse">
<stop stop-color="#B0CDFC"/>
<stop offset="1" stop-color="#81AEF2"/>
</linearGradient>
<linearGradient id="paint6_linear" x1="626.845" y1="470.737" x2="725.528" y2="470.737" gradientUnits="userSpaceOnUse">
<stop stop-color="#EEEEEE"/>
<stop offset="1" stop-color="#C2F0E8"/>
</linearGradient>
<linearGradient id="paint7_linear" x1="805.415" y1="470.737" x2="904.098" y2="470.737" gradientUnits="userSpaceOnUse">
<stop stop-color="#EEEEEE"/>
<stop offset="1" stop-color="#C2F0E8"/>
</linearGradient>
<linearGradient id="paint8_linear" x1="983.984" y1="470.737" x2="1082.67" y2="470.737" gradientUnits="userSpaceOnUse">
<stop stop-color="#EEEEEE"/>
<stop offset="1" stop-color="#C2F0E8"/>
</linearGradient>
<linearGradient id="paint9_linear" x1="1112.12" y1="912.995" x2="1096.84" y2="906.792" gradientUnits="userSpaceOnUse">
<stop stop-color="#FFBEB6"/>
<stop offset="1" stop-color="#F2A19C"/>
</linearGradient>
<linearGradient id="paint10_linear" x1="1190.94" y1="1368.9" x2="1045.34" y2="1392.22" gradientUnits="userSpaceOnUse">
<stop stop-color="#428DFC"/>
<stop offset="1" stop-color="#1D72D8"/>
</linearGradient>
<linearGradient id="paint11_linear" x1="1111.13" y1="650.516" x2="1164.78" y2="630.733" gradientUnits="userSpaceOnUse">
<stop stop-color="#FFBEB6"/>
<stop offset="1" stop-color="#F2A19C"/>
</linearGradient>
<linearGradient id="paint12_linear" x1="1072.93" y1="1368.9" x2="927.327" y2="1392.22" gradientUnits="userSpaceOnUse">
<stop stop-color="#428DFC"/>
<stop offset="1" stop-color="#1D72D8"/>
</linearGradient>
<linearGradient id="paint13_linear" x1="1089.8" y1="1121.95" x2="962.874" y2="1121.95" gradientUnits="userSpaceOnUse">
<stop stop-color="#23286B"/>
<stop offset="1" stop-color="#151A4F"/>
</linearGradient>
<linearGradient id="paint14_linear" x1="1120.2" y1="706.365" x2="1052.49" y2="837.186" gradientUnits="userSpaceOnUse">
<stop stop-color="#A1C3FC"/>
<stop offset="1" stop-color="#81AEF2"/>
</linearGradient>
<linearGradient id="paint15_linear" x1="1233.55" y1="852.335" x2="1199.76" y2="852.335" gradientUnits="userSpaceOnUse">
<stop stop-color="#428DFC"/>
<stop offset="1" stop-color="#1D72D8"/>
</linearGradient>
<linearGradient id="paint16_linear" x1="780.54" y1="557.075" x2="751" y2="557.075" gradientUnits="userSpaceOnUse">
<stop stop-color="#EEEEEE"/>
<stop offset="1" stop-color="#D6D7D8"/>
</linearGradient>
<linearGradient id="paint17_linear" x1="1057.83" y1="940.84" x2="925.539" y2="940.84" gradientUnits="userSpaceOnUse">
<stop stop-color="#EEEEEE"/>
<stop offset="1" stop-color="#D6D7D8"/>
</linearGradient>
<linearGradient id="paint18_linear" x1="1077.5" y1="652.312" x2="1000.83" y2="687.357" gradientUnits="userSpaceOnUse">
<stop stop-color="#A1C3FC"/>
<stop offset="1" stop-color="#81AEF2"/>
</linearGradient>
<linearGradient id="paint19_linear" x1="994.393" y1="725.843" x2="916.61" y2="725.843" gradientUnits="userSpaceOnUse">
<stop stop-color="#428DFC"/>
<stop offset="1" stop-color="#1D72D8"/>
</linearGradient>
<linearGradient id="paint20_linear" x1="1154" y1="1253.51" x2="1247.03" y2="1253.51" gradientUnits="userSpaceOnUse">
<stop stop-color="#B9D3FD"/>
<stop offset="1" stop-color="#89B3F4"/>
</linearGradient>
<linearGradient id="paint21_linear" x1="1213.16" y1="1274.18" x2="1285.79" y2="1274.18" gradientUnits="userSpaceOnUse">
<stop stop-color="#DEEAFE"/>
<stop offset="1" stop-color="#E9F1FE"/>
</linearGradient>
<linearGradient id="paint22_linear" x1="1195.43" y1="1376.72" x2="1257.55" y2="1376.72" gradientUnits="userSpaceOnUse">
<stop stop-color="#EEEEEE"/>
<stop offset="1" stop-color="#D6D7D8"/>
</linearGradient>
</defs>
</svg>
