<svg width="571" height="524" viewBox="0 0 571 524" fill="none" xmlns="http://www.w3.org/2000/svg">
<path d="M386.54 0L249.632 -1.19689e-05L433.09 261.52L569.998 261.52L386.54 0Z" fill="#00B4D7"/>
<path d="M211.635 261.521H348.543L486.058 65.4939C511.432 29.3236 496.184 0.00184381 452.001 0.00184381H395.093L211.635 261.521Z" fill="#91E0EF"/>
<path d="M110.28 1.27734L32.0001 113.598L318.999 112.716L397.279 0.395473L110.28 1.27734Z" fill="#91E0EF"/>
<rect width="136.908" height="319.452" transform="matrix(1 0 -0.574291 -0.818651 183.458 522.523)" fill="#00B4D7"/>
<rect width="136.908" height="319.452" transform="matrix(-0.571492 0.820607 0.999994 -0.00341463 215.241 410.002)" fill="#91E0EF"/>
<path d="M349.365 261.002L212.457 261.002L74.9422 457.03C49.5684 493.2 64.8161 522.522 108.999 522.522L165.907 522.522L349.365 261.002Z" fill="#91E0EF"/>
<rect width="136.908" height="319.452" transform="matrix(-1 -8.74228e-08 -0.574291 0.818651 320.366 0)" fill="#0078B7"/>
<path d="M249.999 523.002H386.907L570.365 261.482H433.457L249.999 523.002Z" fill="#0078B7"/>
</svg>
