<svg width="571" height="524" viewBox="0 0 571 524" fill="none" xmlns="http://www.w3.org/2000/svg">
<rect width="136.908" height="319.452" transform="matrix(1 0 0.574291 -0.818651 211.635 261.521)" fill="#91E0EF"/>
<rect width="136.908" height="287" transform="matrix(-0.571773 0.820411 0.999995 -0.00307272 110.28 1.27734)" fill="#91E0EF"/>
<path d="M386.54 0L249.632 -1.19689e-05L433.09 261.52L569.998 261.52L386.54 0Z" fill="#00B4D7"/>
<rect width="136.908" height="319.452" transform="matrix(1 0 -0.574291 -0.818651 183.458 522.523)" fill="#00B4D7"/>
<rect width="136.908" height="319.452" transform="matrix(-0.571492 0.820607 0.999994 -0.00341463 215.241 410.002)" fill="#91E0EF"/>
<rect width="136.908" height="319.452" transform="matrix(-1 -8.74228e-08 -0.574291 0.818651 349.365 261.002)" fill="#91E0EF"/>
<rect width="136.908" height="319.452" transform="matrix(-1 -8.74228e-08 -0.574291 0.818651 320.366 0)" fill="#0078B7"/>
<path d="M249.999 523.002H386.907L570.365 261.482H433.457L249.999 523.002Z" fill="#0078B7"/>
</svg>
