<svg width="1441" height="524" viewBox="0 0 1441 524" fill="none" xmlns="http://www.w3.org/2000/svg">
<path d="M1356.2 347.2C1367.9 347.2 1379.3 344.8 1390.1 340C1399.97 335.769 1408.78 329.683 1416.28 322.239C1417.07 321.455 1417.04 320.177 1416.23 319.413L1387.36 292.183C1386.56 291.421 1385.28 291.467 1384.49 292.244C1376.86 299.714 1366.93 303.7 1356.2 303.7C1342.82 303.7 1330.93 297.236 1323.47 287.477C1322.51 286.226 1323.45 284.5 1325.03 284.5H1438.5C1439.6 284.5 1440.5 283.604 1440.5 282.5V262.6C1440.5 240.1 1431.8 218.8 1415.9 202.9C1400 187 1378.7 178 1356.2 178C1333.4 178 1312.4 187 1296.2 202.9C1280.3 218.8 1286.08 239.155 1286.08 261.655C1286.08 284.155 1281.06 313.003 1290.1 335.657C1296.2 350.94 1333.4 347.2 1356.2 347.2ZM1324.98 241C1323.41 241 1322.47 239.293 1323.4 238.037C1330.86 228.002 1342.78 221.5 1356.2 221.5C1369.33 221.5 1381.22 227.989 1388.9 238.007C1389.86 239.262 1388.92 241 1387.34 241H1324.98Z" fill="#0078B7"/>
<path d="M712.262 346.919V274.838C712.262 246.709 737.359 221.437 768.569 221.437V201.585V179.609C754.412 179.609 740.576 182.246 727.706 187.228C715.48 191.916 704.219 198.948 694.566 207.739C684.914 216.236 677.513 226.491 672.044 237.919C666.574 249.639 664 261.946 664 274.838V346.919H712.262Z" fill="#0078B7"/>
<path d="M762.134 344.9C762.134 346.005 763.029 346.9 764.134 346.9H899.334C900.438 346.9 901.334 346.005 901.334 344.9V306.9C901.334 305.796 900.438 304.9 899.334 304.9H831.087C829.411 304.9 828.478 302.964 829.523 301.654L900.897 212.148C901.18 211.794 901.334 211.354 901.334 210.901V181.801C901.334 180.696 900.438 179.801 899.334 179.801H768.634C767.529 179.801 766.634 180.696 766.634 181.801V219.801C766.634 220.905 767.529 221.801 768.634 221.801H832.091C833.765 221.801 834.698 223.734 833.657 225.045L762.568 314.554C762.287 314.908 762.134 315.346 762.134 315.798V344.9Z" fill="#00B4D7"/>
<path d="M986.444 349C1006.54 349 1025.44 341.2 1039.54 327.1C1053.64 313 1061.44 294.101 1061.44 274.001V181.801C1061.44 180.696 1060.55 179.801 1059.44 179.801H1018.44C1017.34 179.801 1016.44 180.696 1016.44 181.801V274.001C1016.44 290.501 1002.94 304 986.444 304C969.944 304 956.444 290.501 956.444 274.001V181.801C956.444 180.696 955.549 179.801 954.444 179.801H913.444C912.34 179.801 911.444 180.696 911.444 181.801V274.001C911.444 294.101 919.244 313 933.344 327.1C947.444 341.2 966.344 349 986.444 349Z" fill="#91E0EF"/>
<path d="M1293.31 201.7C1279.81 188.2 1261.51 180.7 1242.31 180.7C1224.69 180.7 1207.87 186.894 1194.93 198.518C1193.73 199.598 1191.89 199.608 1190.68 198.539C1177.47 186.902 1160.65 180.7 1143.01 180.7C1135.25 180.7 1127.49 181.953 1120.26 184.46C1118.22 185.165 1116.01 183.704 1116.01 181.55V181C1116.01 179.343 1114.67 178 1113.01 178H1074.01C1072.36 178 1071.01 179.343 1071.01 181V343.9C1071.01 345.556 1072.36 346.9 1074.01 346.9H1113.01C1114.67 346.9 1116.01 345.556 1116.01 343.9V252.7C1116.01 238 1128.01 225.7 1143.01 225.7C1158.01 225.7 1170.31 238 1170.31 252.7V343.9C1170.31 345.556 1171.66 346.9 1173.31 346.9H1212.31C1213.97 346.9 1215.31 345.556 1215.31 343.9V252.7C1215.31 238 1227.31 225.7 1242.31 225.7C1257.31 225.7 1269.61 238 1269.61 252.7V343.9C1269.61 345.556 1270.96 346.9 1272.61 346.9H1311.61C1313.27 346.9 1314.61 345.556 1314.61 343.9V252.7C1314.61 233.5 1307.11 215.5 1293.31 201.7Z" fill="#00B4D7"/>
<path d="M386.54 0L249.632 -1.19689e-05L433.09 261.52L569.998 261.52L386.54 0Z" fill="#00B4D7"/>
<path d="M211.635 261.521H348.543L486.058 65.4939C511.432 29.3236 496.184 0.00184381 452.001 0.00184381H395.093L211.635 261.521Z" fill="#91E0EF"/>
<path d="M110.28 1.27734L32.0001 113.598L318.999 112.716L397.279 0.395473L110.28 1.27734Z" fill="#91E0EF"/>
<rect width="136.908" height="319.452" transform="matrix(1 0 -0.574291 -0.818651 183.458 522.523)" fill="#00B4D7"/>
<rect width="136.908" height="319.452" transform="matrix(-0.571492 0.820607 0.999994 -0.00341463 215.241 410.002)" fill="#91E0EF"/>
<path d="M349.365 261.002L212.457 261.002L74.9422 457.03C49.5684 493.2 64.8161 522.522 108.999 522.522L165.907 522.522L349.365 261.002Z" fill="#91E0EF"/>
<rect width="136.908" height="319.452" transform="matrix(-1 -8.74228e-08 -0.574291 0.818651 320.366 0)" fill="#0078B7"/>
<path d="M249.999 523.002H386.907L570.365 261.482H433.457L249.999 523.002Z" fill="#0078B7"/>
</svg>
