<svg width="229" height="39" viewBox="0 0 229 39" fill="none" xmlns="http://www.w3.org/2000/svg">
<path d="M0 0H126.703V39H0V0Z" fill="#00B4D7"/>
<path d="M18.1916 14.625L21.4728 23.3438L24.7463 14.625H27.3009V26H25.3322V22.25L25.5275 17.2344L22.1681 26H20.7541L17.4025 17.2422L17.5978 22.25V26H15.6291V14.625H18.1916ZM36.6325 23.3516H32.2262L31.3044 26H29.2497L33.5466 14.625H35.32L39.6247 26H37.5622L36.6325 23.3516ZM32.7809 21.7578H36.0778L34.4294 17.0391L32.7809 21.7578ZM41.4016 26V14.625H44.7609C45.7661 14.625 46.6568 14.849 47.4328 15.2969C48.2141 15.7448 48.8182 16.3802 49.2453 17.2031C49.6724 18.026 49.8859 18.9688 49.8859 20.0312V20.6016C49.8859 21.6797 49.6698 22.6276 49.2375 23.4453C48.8104 24.263 48.1984 24.8932 47.4016 25.3359C46.6099 25.7786 45.701 26 44.675 26H41.4016ZM43.3781 16.2188V24.4219H44.6672C45.7036 24.4219 46.4979 24.099 47.05 23.4531C47.6073 22.8021 47.8911 21.8698 47.9016 20.6562V20.0234C47.9016 18.7891 47.6333 17.8464 47.0969 17.1953C46.5604 16.5443 45.7818 16.2188 44.7609 16.2188H43.3781ZM58.9831 20.9219H54.3112V24.4219H59.7722V26H52.3347V14.625H59.7175V16.2188H54.3112V19.3594H58.9831V20.9219ZM79.7122 23.1875L81.4622 14.625H83.4231L80.7981 26H78.9075L76.7434 17.6953L74.5325 26H72.6341L70.0091 14.625H71.97L73.7356 23.1719L75.9075 14.625H77.5638L79.7122 23.1875ZM87.4344 26H85.4656V14.625H87.4344V26ZM98.3284 16.2188H94.7816V26H92.8206V16.2188H89.305V14.625H98.3284V16.2188ZM109.34 26H107.371V20.9453H102.285V26H100.308V14.625H102.285V19.3594H107.371V14.625H109.34V26Z" fill="#EAFAFD"/>
<path d="M124.868 0H228.002V39H124.867L124.868 0Z" fill="#0078B7"/>
<path d="M141.949 25L139.789 21.88H139.661H137.405V25H134.813V13.8H139.661C140.653 13.8 141.512 13.9653 142.237 14.296C142.973 14.6267 143.539 15.096 143.933 15.704C144.328 16.312 144.525 17.032 144.525 17.864C144.525 18.696 144.323 19.416 143.917 20.024C143.523 20.6213 142.957 21.08 142.221 21.4L144.733 25H141.949ZM141.901 17.864C141.901 17.2347 141.699 16.7547 141.293 16.424C140.888 16.0827 140.296 15.912 139.517 15.912H137.405V19.816H139.517C140.296 19.816 140.888 19.6453 141.293 19.304C141.699 18.9627 141.901 18.4827 141.901 17.864ZM155.731 22.92V25H147.059V13.8H155.523V15.88H149.635V18.312H154.835V20.328H149.635V22.92H155.731ZM165.649 22.6H160.449L159.457 25H156.801L161.793 13.8H164.353L169.361 25H166.641L165.649 22.6ZM164.833 20.632L163.057 16.344L161.281 20.632H164.833ZM176.207 25.192C175.066 25.192 174.031 24.9467 173.103 24.456C172.186 23.9547 171.46 23.2667 170.927 22.392C170.404 21.5067 170.143 20.5093 170.143 19.4C170.143 18.2907 170.404 17.2987 170.927 16.424C171.46 15.5387 172.186 14.8507 173.103 14.36C174.031 13.8587 175.071 13.608 176.223 13.608C177.194 13.608 178.068 13.7787 178.847 14.12C179.636 14.4613 180.298 14.952 180.831 15.592L179.167 17.128C178.41 16.2533 177.471 15.816 176.351 15.816C175.658 15.816 175.039 15.9707 174.495 16.28C173.951 16.5787 173.524 17 173.215 17.544C172.916 18.088 172.767 18.7067 172.767 19.4C172.767 20.0933 172.916 20.712 173.215 21.256C173.524 21.8 173.951 22.2267 174.495 22.536C175.039 22.8347 175.658 22.984 176.351 22.984C177.471 22.984 178.41 22.5413 179.167 21.656L180.831 23.192C180.298 23.8427 179.636 24.3387 178.847 24.68C178.058 25.0213 177.178 25.192 176.207 25.192ZM185.272 15.912H181.688V13.8H191.448V15.912H187.864V25H185.272V15.912Z" fill="#91E0EF"/>
<path d="M215.695 16.5078C215.484 16.4375 215.309 16.3672 215.133 16.332C215.133 16.1914 215.168 16.0508 215.203 15.9102C215.625 13.8359 215.344 12.1484 214.395 11.5859C213.48 11.0586 211.969 11.6211 210.422 12.957C210.281 13.0625 210.141 13.2031 210 13.3438C209.895 13.2383 209.789 13.168 209.719 13.0625C208.102 11.6562 206.484 11.0586 205.535 11.6211C204.621 12.1484 204.34 13.7305 204.727 15.7344C204.762 15.9102 204.797 16.1211 204.867 16.2969C204.621 16.3672 204.41 16.4375 204.199 16.5078C202.336 17.1758 201 18.1953 201 19.25C201 20.3398 202.406 21.4648 204.375 22.1328C204.516 22.168 204.691 22.2383 204.832 22.2734C204.797 22.4844 204.762 22.6953 204.691 22.9062C204.34 24.8398 204.621 26.3867 205.535 26.9141C206.484 27.4766 208.102 26.9141 209.648 25.543C209.754 25.4375 209.895 25.332 210 25.2266C210.176 25.3672 210.316 25.5078 210.492 25.6484C212.004 26.9492 213.48 27.4766 214.395 26.9492C215.344 26.3867 215.66 24.7344 215.273 22.6953C215.238 22.5547 215.203 22.3789 215.168 22.2383C215.273 22.2031 215.379 22.168 215.484 22.1328C217.523 21.4648 219 20.375 219 19.25C219 18.1953 217.594 17.1406 215.695 16.5078ZM210.914 13.5195C212.25 12.3594 213.445 11.9375 214.008 12.2539C214.605 12.5703 214.852 13.9766 214.465 15.7695C214.43 15.9102 214.43 16.0156 214.395 16.1211C213.586 15.9453 212.812 15.8398 212.004 15.7695C211.547 15.1016 211.055 14.4688 210.527 13.8711C210.668 13.7656 210.773 13.625 210.914 13.5195ZM206.871 21.0781C207.047 21.3945 207.223 21.6758 207.434 21.9922C206.871 21.9219 206.309 21.8516 205.781 21.7109C205.957 21.2188 206.133 20.6914 206.344 20.1641C206.52 20.4805 206.695 20.7617 206.871 21.0781ZM205.781 16.8594C206.309 16.7188 206.836 16.6484 207.398 16.5781C207.223 16.8594 207.047 17.1758 206.871 17.457C206.695 17.7734 206.52 18.0547 206.344 18.3711C206.133 17.8438 205.957 17.3516 205.781 16.8594ZM206.766 19.2852C206.977 18.793 207.258 18.3008 207.504 17.8438C207.785 17.3867 208.066 16.9297 208.383 16.4727C208.91 16.4375 209.438 16.4023 210 16.4023C210.527 16.4023 211.09 16.4375 211.582 16.4727C211.898 16.9297 212.18 17.3867 212.461 17.8438C212.707 18.3008 212.988 18.7578 213.199 19.25C212.988 19.7422 212.742 20.2344 212.461 20.6914C212.18 21.1484 211.898 21.6055 211.617 22.0625C211.09 22.0977 210.527 22.1328 210 22.1328C209.438 22.1328 208.91 22.0977 208.383 22.0625C208.066 21.6055 207.785 21.1484 207.504 20.6914C207.258 20.2344 207.012 19.7422 206.766 19.2852ZM213.094 21.0781C213.305 20.7617 213.445 20.4453 213.621 20.1289C213.832 20.6562 214.043 21.1484 214.219 21.6758C213.656 21.8164 213.129 21.9219 212.566 21.957C212.742 21.6758 212.918 21.3594 213.094 21.0781ZM213.621 18.3711C213.445 18.0547 213.27 17.7734 213.094 17.457C212.918 17.1758 212.742 16.8594 212.566 16.5781C213.129 16.6484 213.691 16.7539 214.184 16.8594C214.008 17.3867 213.832 17.8789 213.621 18.3711ZM210 14.4336C210.352 14.8203 210.703 15.2422 211.02 15.6992C210.352 15.6641 209.648 15.6641 208.945 15.6992C209.297 15.2422 209.648 14.8203 210 14.4336ZM205.922 12.2539C206.52 11.9375 207.82 12.4297 209.191 13.625C209.297 13.7305 209.367 13.8008 209.473 13.8711C208.91 14.4688 208.418 15.1016 207.961 15.7695C207.152 15.8398 206.379 15.9453 205.605 16.1211C205.535 15.9453 205.5 15.7695 205.465 15.5586C205.148 13.8711 205.359 12.6055 205.922 12.2539ZM205.043 21.5352C204.902 21.5 204.762 21.4648 204.621 21.3945C203.883 21.1484 203.004 20.7969 202.406 20.3047C202.055 20.0586 201.809 19.6719 201.738 19.25C201.738 18.6172 202.863 17.7734 204.445 17.2109C204.656 17.1406 204.867 17.1055 205.078 17.0352C205.289 17.8086 205.605 18.5469 205.922 19.2852C205.57 19.9883 205.289 20.7617 205.043 21.5352ZM209.156 24.9805C208.559 25.5078 207.891 25.9297 207.152 26.2109C206.766 26.4219 206.344 26.4219 205.922 26.2812C205.359 25.9297 205.148 24.6992 205.465 23.0469C205.5 22.8359 205.535 22.625 205.57 22.4492C206.379 22.625 207.152 22.7305 207.961 22.8008C208.418 23.4336 208.945 24.0664 209.473 24.6641C209.367 24.7695 209.262 24.875 209.156 24.9805ZM210 24.1367C209.648 23.75 209.297 23.3281 208.945 22.8359C209.297 22.8711 209.648 22.8711 210 22.8711C210.352 22.8711 210.703 22.8711 211.055 22.8359C210.738 23.293 210.387 23.7148 210 24.1367ZM214.605 25.1914C214.57 25.6133 214.359 26 214.043 26.2812C213.48 26.5977 212.285 26.1758 210.984 25.0859C210.844 24.9453 210.703 24.8047 210.527 24.6641C211.09 24.0664 211.582 23.4688 212.039 22.8008C212.848 22.7305 213.621 22.5898 214.43 22.4141C214.465 22.5547 214.5 22.6953 214.535 22.8359C214.676 23.6094 214.711 24.418 214.605 25.1914ZM215.238 21.3945C215.133 21.4297 215.062 21.4648 214.957 21.5C214.711 20.7266 214.395 19.9883 214.043 19.25C214.395 18.5469 214.676 17.8086 214.922 17.0352C215.098 17.1055 215.273 17.1406 215.449 17.2109C217.066 17.7734 218.227 18.6172 218.227 19.25C218.227 19.918 216.996 20.832 215.238 21.3945ZM210 20.8672C210.879 20.8672 211.582 20.1641 211.582 19.25C211.582 18.3711 210.879 17.668 210 17.668C209.086 17.668 208.383 18.3711 208.383 19.25C208.383 20.1641 209.086 20.8672 210 20.8672Z" fill="#91E0EF"/>
</svg>

