<svg width="228" height="39" viewBox="0 0 228 39" fill="none" xmlns="http://www.w3.org/2000/svg">
<g clip-path="url(#clip0)">
<path d="M0 0H126.703V39H0V0Z" fill="#00B4D7"/>
<path d="M18.2658 14.625L21.547 23.3438L24.8205 14.625H27.3751V26H25.4064V22.25L25.6017 17.2344L22.2423 26H20.8283L17.4767 17.2422L17.672 22.25V26H15.7033V14.625H18.2658ZM36.7067 23.3516H32.3005L31.3786 26H29.3239L33.6208 14.625H35.3942L39.6989 26H37.6364L36.7067 23.3516ZM32.8551 21.7578H36.152L34.5036 17.0391L32.8551 21.7578ZM41.4758 26V14.625H44.8351C45.8403 14.625 46.731 14.849 47.507 15.2969C48.2883 15.7448 48.8924 16.3802 49.3195 17.2031C49.7466 18.026 49.9601 18.9688 49.9601 20.0312V20.6016C49.9601 21.6797 49.744 22.6276 49.3117 23.4453C48.8846 24.263 48.2726 24.8932 47.4758 25.3359C46.6841 25.7786 45.7752 26 44.7492 26H41.4758ZM43.4523 16.2188V24.4219H44.7414C45.7778 24.4219 46.5721 24.099 47.1242 23.4531C47.6815 22.8021 47.9653 21.8698 47.9758 20.6562V20.0234C47.9758 18.7891 47.7075 17.8464 47.1711 17.1953C46.6346 16.5443 45.856 16.2188 44.8351 16.2188H43.4523ZM59.0573 20.9219H54.3855V24.4219H59.8464V26H52.4089V14.625H59.7917V16.2188H54.3855V19.3594H59.0573V20.9219ZM79.7864 23.1875L81.5364 14.625H83.4973L80.8723 26H78.9817L76.8176 17.6953L74.6067 26H72.7083L70.0833 14.625H72.0442L73.8098 23.1719L75.9817 14.625H77.638L79.7864 23.1875ZM87.5086 26H85.5398V14.625H87.5086V26ZM98.4026 16.2188H94.8558V26H92.8948V16.2188H89.3792V14.625H98.4026V16.2188ZM109.414 26H107.445V20.9453H102.359V26H100.383V14.625H102.359V19.3594H107.445V14.625H109.414V26Z" fill="#EAFAFD"/>
<path d="M124.868 0H228.002V39H124.867L124.868 0Z" fill="#0078B7"/>
<path d="M143.024 25L140.864 21.88H140.736H138.48V25H135.888V13.8H140.736C141.728 13.8 142.586 13.9653 143.312 14.296C144.048 14.6267 144.613 15.096 145.008 15.704C145.402 16.312 145.6 17.032 145.6 17.864C145.6 18.696 145.397 19.416 144.992 20.024C144.597 20.6213 144.032 21.08 143.296 21.4L145.808 25H143.024ZM142.976 17.864C142.976 17.2347 142.773 16.7547 142.368 16.424C141.962 16.0827 141.37 15.912 140.592 15.912H138.48V19.816H140.592C141.37 19.816 141.962 19.6453 142.368 19.304C142.773 18.9627 142.976 18.4827 142.976 17.864ZM156.805 22.92V25H148.133V13.8H156.597V15.88H150.709V18.312H155.909V20.328H150.709V22.92H156.805ZM166.724 22.6H161.524L160.532 25H157.876L162.868 13.8H165.428L170.436 25H167.716L166.724 22.6ZM165.908 20.632L164.132 16.344L162.356 20.632H165.908ZM177.281 25.192C176.14 25.192 175.105 24.9467 174.177 24.456C173.26 23.9547 172.535 23.2667 172.001 22.392C171.479 21.5067 171.217 20.5093 171.217 19.4C171.217 18.2907 171.479 17.2987 172.001 16.424C172.535 15.5387 173.26 14.8507 174.177 14.36C175.105 13.8587 176.145 13.608 177.297 13.608C178.268 13.608 179.143 13.7787 179.921 14.12C180.711 14.4613 181.372 14.952 181.905 15.592L180.241 17.128C179.484 16.2533 178.545 15.816 177.425 15.816C176.732 15.816 176.113 15.9707 175.569 16.28C175.025 16.5787 174.599 17 174.289 17.544C173.991 18.088 173.841 18.7067 173.841 19.4C173.841 20.0933 173.991 20.712 174.289 21.256C174.599 21.8 175.025 22.2267 175.569 22.536C176.113 22.8347 176.732 22.984 177.425 22.984C178.545 22.984 179.484 22.5413 180.241 21.656L181.905 23.192C181.372 23.8427 180.711 24.3387 179.921 24.68C179.132 25.0213 178.252 25.192 177.281 25.192ZM186.346 15.912H182.762V13.8H192.522V15.912H188.938V25H186.346V15.912Z" fill="#91E0EF"/>
<path d="M214.695 16.5078C214.484 16.4375 214.309 16.3672 214.133 16.332C214.133 16.1914 214.168 16.0508 214.203 15.9102C214.625 13.8359 214.344 12.1484 213.395 11.5859C212.48 11.0586 210.969 11.6211 209.422 12.957C209.281 13.0625 209.141 13.2031 209 13.3438C208.895 13.2383 208.789 13.168 208.719 13.0625C207.102 11.6562 205.484 11.0586 204.535 11.6211C203.621 12.1484 203.34 13.7305 203.727 15.7344C203.762 15.9102 203.797 16.1211 203.867 16.2969C203.621 16.3672 203.41 16.4375 203.199 16.5078C201.336 17.1758 200 18.1953 200 19.25C200 20.3398 201.406 21.4648 203.375 22.1328C203.516 22.168 203.691 22.2383 203.832 22.2734C203.797 22.4844 203.762 22.6953 203.691 22.9062C203.34 24.8398 203.621 26.3867 204.535 26.9141C205.484 27.4766 207.102 26.9141 208.648 25.543C208.754 25.4375 208.895 25.332 209 25.2266C209.176 25.3672 209.316 25.5078 209.492 25.6484C211.004 26.9492 212.48 27.4766 213.395 26.9492C214.344 26.3867 214.66 24.7344 214.273 22.6953C214.238 22.5547 214.203 22.3789 214.168 22.2383C214.273 22.2031 214.379 22.168 214.484 22.1328C216.523 21.4648 218 20.375 218 19.25C218 18.1953 216.594 17.1406 214.695 16.5078ZM209.914 13.5195C211.25 12.3594 212.445 11.9375 213.008 12.2539C213.605 12.5703 213.852 13.9766 213.465 15.7695C213.43 15.9102 213.43 16.0156 213.395 16.1211C212.586 15.9453 211.812 15.8398 211.004 15.7695C210.547 15.1016 210.055 14.4688 209.527 13.8711C209.668 13.7656 209.773 13.625 209.914 13.5195ZM205.871 21.0781C206.047 21.3945 206.223 21.6758 206.434 21.9922C205.871 21.9219 205.309 21.8516 204.781 21.7109C204.957 21.2188 205.133 20.6914 205.344 20.1641C205.52 20.4805 205.695 20.7617 205.871 21.0781ZM204.781 16.8594C205.309 16.7188 205.836 16.6484 206.398 16.5781C206.223 16.8594 206.047 17.1758 205.871 17.457C205.695 17.7734 205.52 18.0547 205.344 18.3711C205.133 17.8438 204.957 17.3516 204.781 16.8594ZM205.766 19.2852C205.977 18.793 206.258 18.3008 206.504 17.8438C206.785 17.3867 207.066 16.9297 207.383 16.4727C207.91 16.4375 208.438 16.4023 209 16.4023C209.527 16.4023 210.09 16.4375 210.582 16.4727C210.898 16.9297 211.18 17.3867 211.461 17.8438C211.707 18.3008 211.988 18.7578 212.199 19.25C211.988 19.7422 211.742 20.2344 211.461 20.6914C211.18 21.1484 210.898 21.6055 210.617 22.0625C210.09 22.0977 209.527 22.1328 209 22.1328C208.438 22.1328 207.91 22.0977 207.383 22.0625C207.066 21.6055 206.785 21.1484 206.504 20.6914C206.258 20.2344 206.012 19.7422 205.766 19.2852ZM212.094 21.0781C212.305 20.7617 212.445 20.4453 212.621 20.1289C212.832 20.6562 213.043 21.1484 213.219 21.6758C212.656 21.8164 212.129 21.9219 211.566 21.957C211.742 21.6758 211.918 21.3594 212.094 21.0781ZM212.621 18.3711C212.445 18.0547 212.27 17.7734 212.094 17.457C211.918 17.1758 211.742 16.8594 211.566 16.5781C212.129 16.6484 212.691 16.7539 213.184 16.8594C213.008 17.3867 212.832 17.8789 212.621 18.3711ZM209 14.4336C209.352 14.8203 209.703 15.2422 210.02 15.6992C209.352 15.6641 208.648 15.6641 207.945 15.6992C208.297 15.2422 208.648 14.8203 209 14.4336ZM204.922 12.2539C205.52 11.9375 206.82 12.4297 208.191 13.625C208.297 13.7305 208.367 13.8008 208.473 13.8711C207.91 14.4688 207.418 15.1016 206.961 15.7695C206.152 15.8398 205.379 15.9453 204.605 16.1211C204.535 15.9453 204.5 15.7695 204.465 15.5586C204.148 13.8711 204.359 12.6055 204.922 12.2539ZM204.043 21.5352C203.902 21.5 203.762 21.4648 203.621 21.3945C202.883 21.1484 202.004 20.7969 201.406 20.3047C201.055 20.0586 200.809 19.6719 200.738 19.25C200.738 18.6172 201.863 17.7734 203.445 17.2109C203.656 17.1406 203.867 17.1055 204.078 17.0352C204.289 17.8086 204.605 18.5469 204.922 19.2852C204.57 19.9883 204.289 20.7617 204.043 21.5352ZM208.156 24.9805C207.559 25.5078 206.891 25.9297 206.152 26.2109C205.766 26.4219 205.344 26.4219 204.922 26.2812C204.359 25.9297 204.148 24.6992 204.465 23.0469C204.5 22.8359 204.535 22.625 204.57 22.4492C205.379 22.625 206.152 22.7305 206.961 22.8008C207.418 23.4336 207.945 24.0664 208.473 24.6641C208.367 24.7695 208.262 24.875 208.156 24.9805ZM209 24.1367C208.648 23.75 208.297 23.3281 207.945 22.8359C208.297 22.8711 208.648 22.8711 209 22.8711C209.352 22.8711 209.703 22.8711 210.055 22.8359C209.738 23.293 209.387 23.7148 209 24.1367ZM213.605 25.1914C213.57 25.6133 213.359 26 213.043 26.2812C212.48 26.5977 211.285 26.1758 209.984 25.0859C209.844 24.9453 209.703 24.8047 209.527 24.6641C210.09 24.0664 210.582 23.4688 211.039 22.8008C211.848 22.7305 212.621 22.5898 213.43 22.4141C213.465 22.5547 213.5 22.6953 213.535 22.8359C213.676 23.6094 213.711 24.418 213.605 25.1914ZM214.238 21.3945C214.133 21.4297 214.062 21.4648 213.957 21.5C213.711 20.7266 213.395 19.9883 213.043 19.25C213.395 18.5469 213.676 17.8086 213.922 17.0352C214.098 17.1055 214.273 17.1406 214.449 17.2109C216.066 17.7734 217.227 18.6172 217.227 19.25C217.227 19.918 215.996 20.832 214.238 21.3945ZM209 20.8672C209.879 20.8672 210.582 20.1641 210.582 19.25C210.582 18.3711 209.879 17.668 209 17.668C208.086 17.668 207.383 18.3711 207.383 19.25C207.383 20.1641 208.086 20.8672 209 20.8672Z" fill="#91E0EF"/>
</g>
<defs>
<clipPath id="clip0">
<rect width="228" height="39" fill="white"/>
</clipPath>
</defs>
</svg>
