<svg xmlns="http://www.w3.org/2000/svg" data-name="Layer 1" viewBox="0 0 130 130"><circle cx="65" cy="65" r="64" fill="#334d5c"/><path d="M72.92856,26.595a13.82651,13.82651,0,0,0-10.33-4.94c-8.45,0-15.3,8.43-15.3,18.83a21.56394,21.56394,0,0,0,3.33,11.7,2.12158,2.12158,0,0,0,.61.62l.03.02,4.25995,4.26v3l-4.35,1.89-.01.01c-1.61.66-3.91,1.61-6.07,2.59a.61306.61306,0,0,0-.12.05c-.47.21-.93.43-1.38.64-.16.07-.31.14-.46.22-.2.09-.41.19-.6.29-.01,0-.01,0-.01.01-.81.4-1.54.79-2.11,1.13-3.45,2.1-7.35,7.06-7.51,12.47-.1,3.48-.07,11.7-.04,17.11005a5.142,5.142,0,0,0,1.45,3.55l.17.17,28.736,28.74017c.59155.01618,1.18.04486,1.77545.04486A64.02165,64.02165,0,0,0,127.049,80.71741L72.92856,26.605Z" opacity=".1"/><path fill="#dc8744" d="M62.59837,21.65067c-8.45135,0-15.30236,8.43162-15.30236,18.83266a21.55345,21.55345,0,0,0,3.33045,11.69791A2.36321,2.36321,0,0,0,52.62035,53.222h19.9558a2.36219,2.36219,0,0,0,1.99366-1.04079,21.55154,21.55154,0,0,0,3.33068-11.69791C77.90049,30.08229,71.04948,21.65067,62.59837,21.65067Z"/><rect width="14.707" height="25.729" x="55.528" y="48.96" fill="#f7be56"/><path fill="#fcd462" d="M69.63016,29.76666h0c-4.98283-4.56525-6.99106-2.24641-7.79451.65638a11.34915,11.34915,0,0,1-6.39193,7.01734c-2.12378.98438-3.96228,2.18968-3.75748,3.35579l.92107,5.24462.12717,3.86578a6.46106,6.46106,0,0,0,1.41088,3.84961l3.4245,4.228A5.51769,5.51769,0,0,0,61.851,60.08476h1.77462a5.51781,5.51781,0,0,0,4.28117-2.10056l3.4245-4.228a6.461,6.461,0,0,0,1.41079-3.84961l.12717-3.86578.92111-5.24458a11.32179,11.32179,0,0,0-1.39353-7.70066S70.41434,30.20066,69.63016,29.76666Z"/><path fill="#d5d6db" d="M92.85482,79.382c-.14927-5.4084-4.0562-10.36946-7.51609-12.46724a50.08939,50.08939,0,0,0-5.05323-2.51556v-.00038l-.03623-.016c-.08826-.03946-.17576-.07787-.26422-.11714-.39614-.17568-.79305-.34973-1.18786-.52064-.12716-.055-.25031-.1079-.3767-.16213-.35059-.1508-.69755-.29864-1.03688-.44209-.15633-.06587-.3056-.12878-.4583-.19283-.28328-.119-.56047-.23439-.82851-.34553-.53969-.22372-1.055-.43571-1.50527-.61881l-.00992-.00992-4.346-1.88893s.049,1.66036-.0387,4.45654a7.40365,7.40365,0,0,1-6.44832,7.22612,8.61484,8.61484,0,0,1-.86664.04309,8.48147,8.48147,0,0,1-.851-.04213,7.41421,7.41421,0,0,1-6.44241-7.21764c-.11572-3.25982-.06005-4.466-.06005-4.466L51.17815,61.9737l-.00991.00992c-1.61432.65655-3.913,1.61336-6.07239,2.58771l-.11305.05138c-.47545.215-.936.42846-1.3867.64178q-.22962.10868-.453.21609c-.20608.09932-.411.198-.60737.29549l-.0103.005v.00029c-.811.40291-1.54149.78962-2.10445,1.13334-3.45,2.09778-7.3569,7.05884-7.51589,12.46724-.09609,3.48638-.06863,11.6981-.0368,17.11069a5.17133,5.17133,0,0,0,5.17868,5.13941H62.87988l-.00076-.00172h.00152l-.00076.00172H87.71274a5.17121,5.17121,0,0,0,5.17868-5.13941C92.92326,91.08009,92.95071,82.86837,92.85482,79.382Z"/><polygon fill="#44c4a1" points="66.872 74.61 64.844 71.901 60.788 71.901 58.76 74.61 61.382 78.762 58.7 101.632 66.579 101.632 64.137 78.762 66.872 74.61"/><polygon fill="#ebf0f3" points="70.236 60.085 62.882 71.811 68.892 75.977 73.998 61.72 70.236 60.085"/><polygon fill="#ebf0f3" points="55.532 60.085 62.886 71.811 56.875 75.977 51.769 61.72 55.532 60.085"/><circle cx="87.644" cy="86.218" r="15.414" fill="#e56353"/><circle cx="87.644" cy="86.218" r="11.239" fill="#ebf0f3"/><polygon fill="#4d5c7d" points="93.964 84.772 87.647 78.449 87.644 78.452 87.641 78.449 81.324 84.772 82.82 86.268 86.637 82.451 86.637 93.986 88.651 93.986 88.651 82.451 92.468 86.268 93.964 84.772"/></svg>